G04 #@! TF.GenerationSoftware,KiCad,Pcbnew,(5.1.6)-1*
G04 #@! TF.CreationDate,2021-03-23T17:10:19-04:00*
G04 #@! TF.ProjectId,IO Board,494f2042-6f61-4726-942e-6b696361645f,1.0*
G04 #@! TF.SameCoordinates,Original*
G04 #@! TF.FileFunction,Soldermask,Top*
G04 #@! TF.FilePolarity,Negative*
%FSLAX46Y46*%
G04 Gerber Fmt 4.6, Leading zero omitted, Abs format (unit mm)*
G04 Created by KiCad (PCBNEW (5.1.6)-1) date 2021-03-23 17:10:19*
%MOMM*%
%LPD*%
G01*
G04 APERTURE LIST*
%ADD10C,0.100000*%
%ADD11C,0.150000*%
%ADD12C,0.300000*%
%ADD13C,0.400000*%
G04 APERTURE END LIST*
D10*
D11*
X159400000Y-171900000D02*
X159400000Y-203900000D01*
X267400000Y-203900000D01*
X267400000Y-171900000D01*
X159400000Y-171900000D01*
D10*
D11*
X10000000Y-10000000D02*
X10000000Y-205900000D01*
X269400000Y-205900000D01*
X269400000Y-10000000D01*
X10000000Y-10000000D01*
D10*
D11*
X12000000Y-12000000D02*
X12000000Y-203900000D01*
X267400000Y-203900000D01*
X267400000Y-12000000D01*
X12000000Y-12000000D01*
D10*
D11*
X60000000Y-12000000D02*
X60000000Y-10000000D01*
D10*
D11*
X110000000Y-12000000D02*
X110000000Y-10000000D01*
D10*
D11*
X160000000Y-12000000D02*
X160000000Y-10000000D01*
D10*
D11*
X210000000Y-12000000D02*
X210000000Y-10000000D01*
D10*
D11*
X260000000Y-12000000D02*
X260000000Y-10000000D01*
D10*
D11*
X36065476Y-11588095D02*
X35322619Y-11588095D01*
X35694047Y-11588095D02*
X35694047Y-10288095D01*
X35570238Y-10473809D01*
X35446428Y-10597619D01*
X35322619Y-10659523D01*
D10*
D11*
X85322619Y-10411904D02*
X85384523Y-10350000D01*
X85508333Y-10288095D01*
X85817857Y-10288095D01*
X85941666Y-10350000D01*
X86003571Y-10411904D01*
X86065476Y-10535714D01*
X86065476Y-10659523D01*
X86003571Y-10845238D01*
X85260714Y-11588095D01*
X86065476Y-11588095D01*
D10*
D11*
X135260714Y-10288095D02*
X136065476Y-10288095D01*
X135632142Y-10783333D01*
X135817857Y-10783333D01*
X135941666Y-10845238D01*
X136003571Y-10907142D01*
X136065476Y-11030952D01*
X136065476Y-11340476D01*
X136003571Y-11464285D01*
X135941666Y-11526190D01*
X135817857Y-11588095D01*
X135446428Y-11588095D01*
X135322619Y-11526190D01*
X135260714Y-11464285D01*
D10*
D11*
X185941666Y-10721428D02*
X185941666Y-11588095D01*
X185632142Y-10226190D02*
X185322619Y-11154761D01*
X186127380Y-11154761D01*
D10*
D11*
X236003571Y-10288095D02*
X235384523Y-10288095D01*
X235322619Y-10907142D01*
X235384523Y-10845238D01*
X235508333Y-10783333D01*
X235817857Y-10783333D01*
X235941666Y-10845238D01*
X236003571Y-10907142D01*
X236065476Y-11030952D01*
X236065476Y-11340476D01*
X236003571Y-11464285D01*
X235941666Y-11526190D01*
X235817857Y-11588095D01*
X235508333Y-11588095D01*
X235384523Y-11526190D01*
X235322619Y-11464285D01*
D10*
D11*
X60000000Y-203900000D02*
X60000000Y-205900000D01*
D10*
D11*
X110000000Y-203900000D02*
X110000000Y-205900000D01*
D10*
D11*
X160000000Y-203900000D02*
X160000000Y-205900000D01*
D10*
D11*
X210000000Y-203900000D02*
X210000000Y-205900000D01*
D10*
D11*
X260000000Y-203900000D02*
X260000000Y-205900000D01*
D10*
D11*
X36065476Y-205488095D02*
X35322619Y-205488095D01*
X35694047Y-205488095D02*
X35694047Y-204188095D01*
X35570238Y-204373809D01*
X35446428Y-204497619D01*
X35322619Y-204559523D01*
D10*
D11*
X85322619Y-204311904D02*
X85384523Y-204250000D01*
X85508333Y-204188095D01*
X85817857Y-204188095D01*
X85941666Y-204250000D01*
X86003571Y-204311904D01*
X86065476Y-204435714D01*
X86065476Y-204559523D01*
X86003571Y-204745238D01*
X85260714Y-205488095D01*
X86065476Y-205488095D01*
D10*
D11*
X135260714Y-204188095D02*
X136065476Y-204188095D01*
X135632142Y-204683333D01*
X135817857Y-204683333D01*
X135941666Y-204745238D01*
X136003571Y-204807142D01*
X136065476Y-204930952D01*
X136065476Y-205240476D01*
X136003571Y-205364285D01*
X135941666Y-205426190D01*
X135817857Y-205488095D01*
X135446428Y-205488095D01*
X135322619Y-205426190D01*
X135260714Y-205364285D01*
D10*
D11*
X185941666Y-204621428D02*
X185941666Y-205488095D01*
X185632142Y-204126190D02*
X185322619Y-205054761D01*
X186127380Y-205054761D01*
D10*
D11*
X236003571Y-204188095D02*
X235384523Y-204188095D01*
X235322619Y-204807142D01*
X235384523Y-204745238D01*
X235508333Y-204683333D01*
X235817857Y-204683333D01*
X235941666Y-204745238D01*
X236003571Y-204807142D01*
X236065476Y-204930952D01*
X236065476Y-205240476D01*
X236003571Y-205364285D01*
X235941666Y-205426190D01*
X235817857Y-205488095D01*
X235508333Y-205488095D01*
X235384523Y-205426190D01*
X235322619Y-205364285D01*
D10*
D11*
X10000000Y-60000000D02*
X12000000Y-60000000D01*
D10*
D11*
X10000000Y-110000000D02*
X12000000Y-110000000D01*
D10*
D11*
X10000000Y-160000000D02*
X12000000Y-160000000D01*
D10*
D11*
X10690476Y-35216666D02*
X11309523Y-35216666D01*
X10566666Y-35588095D02*
X11000000Y-34288095D01*
X11433333Y-35588095D01*
D10*
D11*
X11092857Y-84907142D02*
X11278571Y-84969047D01*
X11340476Y-85030952D01*
X11402380Y-85154761D01*
X11402380Y-85340476D01*
X11340476Y-85464285D01*
X11278571Y-85526190D01*
X11154761Y-85588095D01*
X10659523Y-85588095D01*
X10659523Y-84288095D01*
X11092857Y-84288095D01*
X11216666Y-84350000D01*
X11278571Y-84411904D01*
X11340476Y-84535714D01*
X11340476Y-84659523D01*
X11278571Y-84783333D01*
X11216666Y-84845238D01*
X11092857Y-84907142D01*
X10659523Y-84907142D01*
D10*
D11*
X11402380Y-135464285D02*
X11340476Y-135526190D01*
X11154761Y-135588095D01*
X11030952Y-135588095D01*
X10845238Y-135526190D01*
X10721428Y-135402380D01*
X10659523Y-135278571D01*
X10597619Y-135030952D01*
X10597619Y-134845238D01*
X10659523Y-134597619D01*
X10721428Y-134473809D01*
X10845238Y-134350000D01*
X11030952Y-134288095D01*
X11154761Y-134288095D01*
X11340476Y-134350000D01*
X11402380Y-134411904D01*
D10*
D11*
X10659523Y-185588095D02*
X10659523Y-184288095D01*
X10969047Y-184288095D01*
X11154761Y-184350000D01*
X11278571Y-184473809D01*
X11340476Y-184597619D01*
X11402380Y-184845238D01*
X11402380Y-185030952D01*
X11340476Y-185278571D01*
X11278571Y-185402380D01*
X11154761Y-185526190D01*
X10969047Y-185588095D01*
X10659523Y-185588095D01*
D10*
D11*
X269400000Y-60000000D02*
X267400000Y-60000000D01*
D10*
D11*
X269400000Y-110000000D02*
X267400000Y-110000000D01*
D10*
D11*
X269400000Y-160000000D02*
X267400000Y-160000000D01*
D10*
D11*
X268090476Y-35216666D02*
X268709523Y-35216666D01*
X267966666Y-35588095D02*
X268400000Y-34288095D01*
X268833333Y-35588095D01*
D10*
D11*
X268492857Y-84907142D02*
X268678571Y-84969047D01*
X268740476Y-85030952D01*
X268802380Y-85154761D01*
X268802380Y-85340476D01*
X268740476Y-85464285D01*
X268678571Y-85526190D01*
X268554761Y-85588095D01*
X268059523Y-85588095D01*
X268059523Y-84288095D01*
X268492857Y-84288095D01*
X268616666Y-84350000D01*
X268678571Y-84411904D01*
X268740476Y-84535714D01*
X268740476Y-84659523D01*
X268678571Y-84783333D01*
X268616666Y-84845238D01*
X268492857Y-84907142D01*
X268059523Y-84907142D01*
D10*
D11*
X268802380Y-135464285D02*
X268740476Y-135526190D01*
X268554761Y-135588095D01*
X268430952Y-135588095D01*
X268245238Y-135526190D01*
X268121428Y-135402380D01*
X268059523Y-135278571D01*
X267997619Y-135030952D01*
X267997619Y-134845238D01*
X268059523Y-134597619D01*
X268121428Y-134473809D01*
X268245238Y-134350000D01*
X268430952Y-134288095D01*
X268554761Y-134288095D01*
X268740476Y-134350000D01*
X268802380Y-134411904D01*
D10*
D11*
X268059523Y-185588095D02*
X268059523Y-184288095D01*
X268369047Y-184288095D01*
X268554761Y-184350000D01*
X268678571Y-184473809D01*
X268740476Y-184597619D01*
X268802380Y-184845238D01*
X268802380Y-185030952D01*
X268740476Y-185278571D01*
X268678571Y-185402380D01*
X268554761Y-185526190D01*
X268369047Y-185588095D01*
X268059523Y-185588095D01*
D10*
D11*
X182832142Y-199678571D02*
X182832142Y-198178571D01*
X183189285Y-198178571D01*
X183403571Y-198250000D01*
X183546428Y-198392857D01*
X183617857Y-198535714D01*
X183689285Y-198821428D01*
X183689285Y-199035714D01*
X183617857Y-199321428D01*
X183546428Y-199464285D01*
X183403571Y-199607142D01*
X183189285Y-199678571D01*
X182832142Y-199678571D01*
X184975000Y-199678571D02*
X184975000Y-198892857D01*
X184903571Y-198750000D01*
X184760714Y-198678571D01*
X184475000Y-198678571D01*
X184332142Y-198750000D01*
X184975000Y-199607142D02*
X184832142Y-199678571D01*
X184475000Y-199678571D01*
X184332142Y-199607142D01*
X184260714Y-199464285D01*
X184260714Y-199321428D01*
X184332142Y-199178571D01*
X184475000Y-199107142D01*
X184832142Y-199107142D01*
X184975000Y-199035714D01*
X185475000Y-198678571D02*
X186046428Y-198678571D01*
X185689285Y-198178571D02*
X185689285Y-199464285D01*
X185760714Y-199607142D01*
X185903571Y-199678571D01*
X186046428Y-199678571D01*
X187117857Y-199607142D02*
X186975000Y-199678571D01*
X186689285Y-199678571D01*
X186546428Y-199607142D01*
X186475000Y-199464285D01*
X186475000Y-198892857D01*
X186546428Y-198750000D01*
X186689285Y-198678571D01*
X186975000Y-198678571D01*
X187117857Y-198750000D01*
X187189285Y-198892857D01*
X187189285Y-199035714D01*
X186475000Y-199178571D01*
X187832142Y-199535714D02*
X187903571Y-199607142D01*
X187832142Y-199678571D01*
X187760714Y-199607142D01*
X187832142Y-199535714D01*
X187832142Y-199678571D01*
X187832142Y-198750000D02*
X187903571Y-198821428D01*
X187832142Y-198892857D01*
X187760714Y-198821428D01*
X187832142Y-198750000D01*
X187832142Y-198892857D01*
X189617857Y-198321428D02*
X189689285Y-198250000D01*
X189832142Y-198178571D01*
X190189285Y-198178571D01*
X190332142Y-198250000D01*
X190403571Y-198321428D01*
X190475000Y-198464285D01*
X190475000Y-198607142D01*
X190403571Y-198821428D01*
X189546428Y-199678571D01*
X190475000Y-199678571D01*
X191403571Y-198178571D02*
X191546428Y-198178571D01*
X191689285Y-198250000D01*
X191760714Y-198321428D01*
X191832142Y-198464285D01*
X191903571Y-198750000D01*
X191903571Y-199107142D01*
X191832142Y-199392857D01*
X191760714Y-199535714D01*
X191689285Y-199607142D01*
X191546428Y-199678571D01*
X191403571Y-199678571D01*
X191260714Y-199607142D01*
X191189285Y-199535714D01*
X191117857Y-199392857D01*
X191046428Y-199107142D01*
X191046428Y-198750000D01*
X191117857Y-198464285D01*
X191189285Y-198321428D01*
X191260714Y-198250000D01*
X191403571Y-198178571D01*
X192475000Y-198321428D02*
X192546428Y-198250000D01*
X192689285Y-198178571D01*
X193046428Y-198178571D01*
X193189285Y-198250000D01*
X193260714Y-198321428D01*
X193332142Y-198464285D01*
X193332142Y-198607142D01*
X193260714Y-198821428D01*
X192403571Y-199678571D01*
X193332142Y-199678571D01*
X194760714Y-199678571D02*
X193903571Y-199678571D01*
X194332142Y-199678571D02*
X194332142Y-198178571D01*
X194189285Y-198392857D01*
X194046428Y-198535714D01*
X193903571Y-198607142D01*
X195403571Y-199107142D02*
X196546428Y-199107142D01*
X197546428Y-198178571D02*
X197689285Y-198178571D01*
X197832142Y-198250000D01*
X197903571Y-198321428D01*
X197975000Y-198464285D01*
X198046428Y-198750000D01*
X198046428Y-199107142D01*
X197975000Y-199392857D01*
X197903571Y-199535714D01*
X197832142Y-199607142D01*
X197689285Y-199678571D01*
X197546428Y-199678571D01*
X197403571Y-199607142D01*
X197332142Y-199535714D01*
X197260714Y-199392857D01*
X197189285Y-199107142D01*
X197189285Y-198750000D01*
X197260714Y-198464285D01*
X197332142Y-198321428D01*
X197403571Y-198250000D01*
X197546428Y-198178571D01*
X198546428Y-198178571D02*
X199475000Y-198178571D01*
X198975000Y-198750000D01*
X199189285Y-198750000D01*
X199332142Y-198821428D01*
X199403571Y-198892857D01*
X199475000Y-199035714D01*
X199475000Y-199392857D01*
X199403571Y-199535714D01*
X199332142Y-199607142D01*
X199189285Y-199678571D01*
X198760714Y-199678571D01*
X198617857Y-199607142D01*
X198546428Y-199535714D01*
X200117857Y-199107142D02*
X201260714Y-199107142D01*
X201903571Y-198321428D02*
X201975000Y-198250000D01*
X202117857Y-198178571D01*
X202475000Y-198178571D01*
X202617857Y-198250000D01*
X202689285Y-198321428D01*
X202760714Y-198464285D01*
X202760714Y-198607142D01*
X202689285Y-198821428D01*
X201832142Y-199678571D01*
X202760714Y-199678571D01*
X203260714Y-198178571D02*
X204189285Y-198178571D01*
X203689285Y-198750000D01*
X203903571Y-198750000D01*
X204046428Y-198821428D01*
X204117857Y-198892857D01*
X204189285Y-199035714D01*
X204189285Y-199392857D01*
X204117857Y-199535714D01*
X204046428Y-199607142D01*
X203903571Y-199678571D01*
X203475000Y-199678571D01*
X203332142Y-199607142D01*
X203260714Y-199535714D01*
D10*
D11*
X159400000Y-200400000D02*
X267400000Y-200400000D01*
D10*
D11*
X160832142Y-202478571D02*
X160832142Y-200978571D01*
X161689285Y-202478571D02*
X161046428Y-201621428D01*
X161689285Y-200978571D02*
X160832142Y-201835714D01*
X162332142Y-202478571D02*
X162332142Y-201478571D01*
X162332142Y-200978571D02*
X162260714Y-201050000D01*
X162332142Y-201121428D01*
X162403571Y-201050000D01*
X162332142Y-200978571D01*
X162332142Y-201121428D01*
X163903571Y-202335714D02*
X163832142Y-202407142D01*
X163617857Y-202478571D01*
X163475000Y-202478571D01*
X163260714Y-202407142D01*
X163117857Y-202264285D01*
X163046428Y-202121428D01*
X162975000Y-201835714D01*
X162975000Y-201621428D01*
X163046428Y-201335714D01*
X163117857Y-201192857D01*
X163260714Y-201050000D01*
X163475000Y-200978571D01*
X163617857Y-200978571D01*
X163832142Y-201050000D01*
X163903571Y-201121428D01*
X165189285Y-202478571D02*
X165189285Y-201692857D01*
X165117857Y-201550000D01*
X164975000Y-201478571D01*
X164689285Y-201478571D01*
X164546428Y-201550000D01*
X165189285Y-202407142D02*
X165046428Y-202478571D01*
X164689285Y-202478571D01*
X164546428Y-202407142D01*
X164475000Y-202264285D01*
X164475000Y-202121428D01*
X164546428Y-201978571D01*
X164689285Y-201907142D01*
X165046428Y-201907142D01*
X165189285Y-201835714D01*
X166546428Y-202478571D02*
X166546428Y-200978571D01*
X166546428Y-202407142D02*
X166403571Y-202478571D01*
X166117857Y-202478571D01*
X165975000Y-202407142D01*
X165903571Y-202335714D01*
X165832142Y-202192857D01*
X165832142Y-201764285D01*
X165903571Y-201621428D01*
X165975000Y-201550000D01*
X166117857Y-201478571D01*
X166403571Y-201478571D01*
X166546428Y-201550000D01*
X168403571Y-201692857D02*
X168903571Y-201692857D01*
X169117857Y-202478571D02*
X168403571Y-202478571D01*
X168403571Y-200978571D01*
X169117857Y-200978571D01*
X169760714Y-202335714D02*
X169832142Y-202407142D01*
X169760714Y-202478571D01*
X169689285Y-202407142D01*
X169760714Y-202335714D01*
X169760714Y-202478571D01*
X170475000Y-202478571D02*
X170475000Y-200978571D01*
X170832142Y-200978571D01*
X171046428Y-201050000D01*
X171189285Y-201192857D01*
X171260714Y-201335714D01*
X171332142Y-201621428D01*
X171332142Y-201835714D01*
X171260714Y-202121428D01*
X171189285Y-202264285D01*
X171046428Y-202407142D01*
X170832142Y-202478571D01*
X170475000Y-202478571D01*
X171975000Y-202335714D02*
X172046428Y-202407142D01*
X171975000Y-202478571D01*
X171903571Y-202407142D01*
X171975000Y-202335714D01*
X171975000Y-202478571D01*
X172617857Y-202050000D02*
X173332142Y-202050000D01*
X172475000Y-202478571D02*
X172975000Y-200978571D01*
X173475000Y-202478571D01*
X173975000Y-202335714D02*
X174046428Y-202407142D01*
X173975000Y-202478571D01*
X173903571Y-202407142D01*
X173975000Y-202335714D01*
X173975000Y-202478571D01*
X176975000Y-202478571D02*
X176975000Y-200978571D01*
X177117857Y-201907142D02*
X177546428Y-202478571D01*
X177546428Y-201478571D02*
X176975000Y-202050000D01*
X178189285Y-202478571D02*
X178189285Y-201478571D01*
X178189285Y-200978571D02*
X178117857Y-201050000D01*
X178189285Y-201121428D01*
X178260714Y-201050000D01*
X178189285Y-200978571D01*
X178189285Y-201121428D01*
X179546428Y-202407142D02*
X179403571Y-202478571D01*
X179117857Y-202478571D01*
X178975000Y-202407142D01*
X178903571Y-202335714D01*
X178832142Y-202192857D01*
X178832142Y-201764285D01*
X178903571Y-201621428D01*
X178975000Y-201550000D01*
X179117857Y-201478571D01*
X179403571Y-201478571D01*
X179546428Y-201550000D01*
X180832142Y-202478571D02*
X180832142Y-201692857D01*
X180760714Y-201550000D01*
X180617857Y-201478571D01*
X180332142Y-201478571D01*
X180189285Y-201550000D01*
X180832142Y-202407142D02*
X180689285Y-202478571D01*
X180332142Y-202478571D01*
X180189285Y-202407142D01*
X180117857Y-202264285D01*
X180117857Y-202121428D01*
X180189285Y-201978571D01*
X180332142Y-201907142D01*
X180689285Y-201907142D01*
X180832142Y-201835714D01*
X182189285Y-202478571D02*
X182189285Y-200978571D01*
X182189285Y-202407142D02*
X182046428Y-202478571D01*
X181760714Y-202478571D01*
X181617857Y-202407142D01*
X181546428Y-202335714D01*
X181475000Y-202192857D01*
X181475000Y-201764285D01*
X181546428Y-201621428D01*
X181617857Y-201550000D01*
X181760714Y-201478571D01*
X182046428Y-201478571D01*
X182189285Y-201550000D01*
X184475000Y-203050000D02*
X184403571Y-202978571D01*
X184260714Y-202764285D01*
X184189285Y-202621428D01*
X184117857Y-202407142D01*
X184046428Y-202050000D01*
X184046428Y-201764285D01*
X184117857Y-201407142D01*
X184189285Y-201192857D01*
X184260714Y-201050000D01*
X184403571Y-200835714D01*
X184475000Y-200764285D01*
X185760714Y-200978571D02*
X185046428Y-200978571D01*
X184975000Y-201692857D01*
X185046428Y-201621428D01*
X185189285Y-201550000D01*
X185546428Y-201550000D01*
X185689285Y-201621428D01*
X185760714Y-201692857D01*
X185832142Y-201835714D01*
X185832142Y-202192857D01*
X185760714Y-202335714D01*
X185689285Y-202407142D01*
X185546428Y-202478571D01*
X185189285Y-202478571D01*
X185046428Y-202407142D01*
X184975000Y-202335714D01*
X186475000Y-202335714D02*
X186546428Y-202407142D01*
X186475000Y-202478571D01*
X186403571Y-202407142D01*
X186475000Y-202335714D01*
X186475000Y-202478571D01*
X187975000Y-202478571D02*
X187117857Y-202478571D01*
X187546428Y-202478571D02*
X187546428Y-200978571D01*
X187403571Y-201192857D01*
X187260714Y-201335714D01*
X187117857Y-201407142D01*
X188617857Y-202335714D02*
X188689285Y-202407142D01*
X188617857Y-202478571D01*
X188546428Y-202407142D01*
X188617857Y-202335714D01*
X188617857Y-202478571D01*
X189975000Y-200978571D02*
X189689285Y-200978571D01*
X189546428Y-201050000D01*
X189475000Y-201121428D01*
X189332142Y-201335714D01*
X189260714Y-201621428D01*
X189260714Y-202192857D01*
X189332142Y-202335714D01*
X189403571Y-202407142D01*
X189546428Y-202478571D01*
X189832142Y-202478571D01*
X189975000Y-202407142D01*
X190046428Y-202335714D01*
X190117857Y-202192857D01*
X190117857Y-201835714D01*
X190046428Y-201692857D01*
X189975000Y-201621428D01*
X189832142Y-201550000D01*
X189546428Y-201550000D01*
X189403571Y-201621428D01*
X189332142Y-201692857D01*
X189260714Y-201835714D01*
X190617857Y-203050000D02*
X190689285Y-202978571D01*
X190832142Y-202764285D01*
X190903571Y-202621428D01*
X190975000Y-202407142D01*
X191046428Y-202050000D01*
X191046428Y-201764285D01*
X190975000Y-201407142D01*
X190903571Y-201192857D01*
X190832142Y-201050000D01*
X190689285Y-200835714D01*
X190617857Y-200764285D01*
X191760714Y-201907142D02*
X192903571Y-201907142D01*
X194403571Y-202478571D02*
X193546428Y-202478571D01*
X193975000Y-202478571D02*
X193975000Y-200978571D01*
X193832142Y-201192857D01*
X193689285Y-201335714D01*
X193546428Y-201407142D01*
D10*
D11*
X159400000Y-197400000D02*
X267400000Y-197400000D01*
D10*
D12*
X246809285Y-199678571D02*
X246309285Y-198964285D01*
X245952142Y-199678571D02*
X245952142Y-198178571D01*
X246523571Y-198178571D01*
X246666428Y-198250000D01*
X246737857Y-198321428D01*
X246809285Y-198464285D01*
X246809285Y-198678571D01*
X246737857Y-198821428D01*
X246666428Y-198892857D01*
X246523571Y-198964285D01*
X245952142Y-198964285D01*
X248023571Y-199607142D02*
X247880714Y-199678571D01*
X247595000Y-199678571D01*
X247452142Y-199607142D01*
X247380714Y-199464285D01*
X247380714Y-198892857D01*
X247452142Y-198750000D01*
X247595000Y-198678571D01*
X247880714Y-198678571D01*
X248023571Y-198750000D01*
X248095000Y-198892857D01*
X248095000Y-199035714D01*
X247380714Y-199178571D01*
X248595000Y-198678571D02*
X248952142Y-199678571D01*
X249309285Y-198678571D01*
X249880714Y-199535714D02*
X249952142Y-199607142D01*
X249880714Y-199678571D01*
X249809285Y-199607142D01*
X249880714Y-199535714D01*
X249880714Y-199678571D01*
X249880714Y-198750000D02*
X249952142Y-198821428D01*
X249880714Y-198892857D01*
X249809285Y-198821428D01*
X249880714Y-198750000D01*
X249880714Y-198892857D01*
X252523571Y-199678571D02*
X251666428Y-199678571D01*
X252095000Y-199678571D02*
X252095000Y-198178571D01*
X251952142Y-198392857D01*
X251809285Y-198535714D01*
X251666428Y-198607142D01*
X253166428Y-199535714D02*
X253237857Y-199607142D01*
X253166428Y-199678571D01*
X253095000Y-199607142D01*
X253166428Y-199535714D01*
X253166428Y-199678571D01*
X254166428Y-198178571D02*
X254309285Y-198178571D01*
X254452142Y-198250000D01*
X254523571Y-198321428D01*
X254595000Y-198464285D01*
X254666428Y-198750000D01*
X254666428Y-199107142D01*
X254595000Y-199392857D01*
X254523571Y-199535714D01*
X254452142Y-199607142D01*
X254309285Y-199678571D01*
X254166428Y-199678571D01*
X254023571Y-199607142D01*
X253952142Y-199535714D01*
X253880714Y-199392857D01*
X253809285Y-199107142D01*
X253809285Y-198750000D01*
X253880714Y-198464285D01*
X253952142Y-198321428D01*
X254023571Y-198250000D01*
X254166428Y-198178571D01*
D10*
D11*
X160760714Y-199607142D02*
X160975000Y-199678571D01*
X161332142Y-199678571D01*
X161475000Y-199607142D01*
X161546428Y-199535714D01*
X161617857Y-199392857D01*
X161617857Y-199250000D01*
X161546428Y-199107142D01*
X161475000Y-199035714D01*
X161332142Y-198964285D01*
X161046428Y-198892857D01*
X160903571Y-198821428D01*
X160832142Y-198750000D01*
X160760714Y-198607142D01*
X160760714Y-198464285D01*
X160832142Y-198321428D01*
X160903571Y-198250000D01*
X161046428Y-198178571D01*
X161403571Y-198178571D01*
X161617857Y-198250000D01*
X162260714Y-199678571D02*
X162260714Y-198678571D01*
X162260714Y-198178571D02*
X162189285Y-198250000D01*
X162260714Y-198321428D01*
X162332142Y-198250000D01*
X162260714Y-198178571D01*
X162260714Y-198321428D01*
X162832142Y-198678571D02*
X163617857Y-198678571D01*
X162832142Y-199678571D01*
X163617857Y-199678571D01*
X164760714Y-199607142D02*
X164617857Y-199678571D01*
X164332142Y-199678571D01*
X164189285Y-199607142D01*
X164117857Y-199464285D01*
X164117857Y-198892857D01*
X164189285Y-198750000D01*
X164332142Y-198678571D01*
X164617857Y-198678571D01*
X164760714Y-198750000D01*
X164832142Y-198892857D01*
X164832142Y-199035714D01*
X164117857Y-199178571D01*
X165475000Y-199535714D02*
X165546428Y-199607142D01*
X165475000Y-199678571D01*
X165403571Y-199607142D01*
X165475000Y-199535714D01*
X165475000Y-199678571D01*
X165475000Y-198750000D02*
X165546428Y-198821428D01*
X165475000Y-198892857D01*
X165403571Y-198821428D01*
X165475000Y-198750000D01*
X165475000Y-198892857D01*
X167332142Y-198178571D02*
X167332142Y-199392857D01*
X167403571Y-199535714D01*
X167475000Y-199607142D01*
X167617857Y-199678571D01*
X167903571Y-199678571D01*
X168046428Y-199607142D01*
X168117857Y-199535714D01*
X168189285Y-199392857D01*
X168189285Y-198178571D01*
X168832142Y-199607142D02*
X169046428Y-199678571D01*
X169403571Y-199678571D01*
X169546428Y-199607142D01*
X169617857Y-199535714D01*
X169689285Y-199392857D01*
X169689285Y-199250000D01*
X169617857Y-199107142D01*
X169546428Y-199035714D01*
X169403571Y-198964285D01*
X169117857Y-198892857D01*
X168975000Y-198821428D01*
X168903571Y-198750000D01*
X168832142Y-198607142D01*
X168832142Y-198464285D01*
X168903571Y-198321428D01*
X168975000Y-198250000D01*
X169117857Y-198178571D01*
X169475000Y-198178571D01*
X169689285Y-198250000D01*
X171046428Y-199678571D02*
X170332142Y-199678571D01*
X170332142Y-198178571D01*
X172117857Y-199607142D02*
X171975000Y-199678571D01*
X171689285Y-199678571D01*
X171546428Y-199607142D01*
X171475000Y-199464285D01*
X171475000Y-198892857D01*
X171546428Y-198750000D01*
X171689285Y-198678571D01*
X171975000Y-198678571D01*
X172117857Y-198750000D01*
X172189285Y-198892857D01*
X172189285Y-199035714D01*
X171475000Y-199178571D01*
X172617857Y-198678571D02*
X173189285Y-198678571D01*
X172832142Y-198178571D02*
X172832142Y-199464285D01*
X172903571Y-199607142D01*
X173046428Y-199678571D01*
X173189285Y-199678571D01*
X173475000Y-198678571D02*
X174046428Y-198678571D01*
X173689285Y-198178571D02*
X173689285Y-199464285D01*
X173760714Y-199607142D01*
X173903571Y-199678571D01*
X174046428Y-199678571D01*
X175117857Y-199607142D02*
X174975000Y-199678571D01*
X174689285Y-199678571D01*
X174546428Y-199607142D01*
X174475000Y-199464285D01*
X174475000Y-198892857D01*
X174546428Y-198750000D01*
X174689285Y-198678571D01*
X174975000Y-198678571D01*
X175117857Y-198750000D01*
X175189285Y-198892857D01*
X175189285Y-199035714D01*
X174475000Y-199178571D01*
X175832142Y-199678571D02*
X175832142Y-198678571D01*
X175832142Y-198964285D02*
X175903571Y-198821428D01*
X175975000Y-198750000D01*
X176117857Y-198678571D01*
X176260714Y-198678571D01*
D10*
D11*
X245832142Y-202478571D02*
X245832142Y-200978571D01*
X247189285Y-202478571D02*
X247189285Y-200978571D01*
X247189285Y-202407142D02*
X247046428Y-202478571D01*
X246760714Y-202478571D01*
X246617857Y-202407142D01*
X246546428Y-202335714D01*
X246475000Y-202192857D01*
X246475000Y-201764285D01*
X246546428Y-201621428D01*
X246617857Y-201550000D01*
X246760714Y-201478571D01*
X247046428Y-201478571D01*
X247189285Y-201550000D01*
X247903571Y-202335714D02*
X247975000Y-202407142D01*
X247903571Y-202478571D01*
X247832142Y-202407142D01*
X247903571Y-202335714D01*
X247903571Y-202478571D01*
X247903571Y-201550000D02*
X247975000Y-201621428D01*
X247903571Y-201692857D01*
X247832142Y-201621428D01*
X247903571Y-201550000D01*
X247903571Y-201692857D01*
X250546428Y-202478571D02*
X249689285Y-202478571D01*
X250117857Y-202478571D02*
X250117857Y-200978571D01*
X249975000Y-201192857D01*
X249832142Y-201335714D01*
X249689285Y-201407142D01*
X252260714Y-200907142D02*
X250975000Y-202835714D01*
X253546428Y-202478571D02*
X252689285Y-202478571D01*
X253117857Y-202478571D02*
X253117857Y-200978571D01*
X252975000Y-201192857D01*
X252832142Y-201335714D01*
X252689285Y-201407142D01*
D10*
D11*
X159400000Y-193400000D02*
X267400000Y-193400000D01*
D10*
D13*
X161112380Y-194104761D02*
X162255238Y-194104761D01*
X161433809Y-196104761D02*
X161683809Y-194104761D01*
X162671904Y-196104761D02*
X162838571Y-194771428D01*
X162921904Y-194104761D02*
X162814761Y-194200000D01*
X162898095Y-194295238D01*
X163005238Y-194200000D01*
X162921904Y-194104761D01*
X162898095Y-194295238D01*
X163505238Y-194771428D02*
X164267142Y-194771428D01*
X163874285Y-194104761D02*
X163660000Y-195819047D01*
X163731428Y-196009523D01*
X163910000Y-196104761D01*
X164100476Y-196104761D01*
X165052857Y-196104761D02*
X164874285Y-196009523D01*
X164802857Y-195819047D01*
X165017142Y-194104761D01*
X166588571Y-196009523D02*
X166386190Y-196104761D01*
X166005238Y-196104761D01*
X165826666Y-196009523D01*
X165755238Y-195819047D01*
X165850476Y-195057142D01*
X165969523Y-194866666D01*
X166171904Y-194771428D01*
X166552857Y-194771428D01*
X166731428Y-194866666D01*
X166802857Y-195057142D01*
X166779047Y-195247619D01*
X165802857Y-195438095D01*
X167552857Y-195914285D02*
X167636190Y-196009523D01*
X167529047Y-196104761D01*
X167445714Y-196009523D01*
X167552857Y-195914285D01*
X167529047Y-196104761D01*
X167683809Y-194866666D02*
X167767142Y-194961904D01*
X167660000Y-195057142D01*
X167576666Y-194961904D01*
X167683809Y-194866666D01*
X167660000Y-195057142D01*
X170005238Y-196104761D02*
X170255238Y-194104761D01*
X172648095Y-194009523D02*
X170612380Y-196580952D01*
X173683809Y-194104761D02*
X174064761Y-194104761D01*
X174243333Y-194200000D01*
X174410000Y-194390476D01*
X174457619Y-194771428D01*
X174374285Y-195438095D01*
X174231428Y-195819047D01*
X174017142Y-196009523D01*
X173814761Y-196104761D01*
X173433809Y-196104761D01*
X173255238Y-196009523D01*
X173088571Y-195819047D01*
X173040952Y-195438095D01*
X173124285Y-194771428D01*
X173267142Y-194390476D01*
X173481428Y-194200000D01*
X173683809Y-194104761D01*
X177469523Y-195057142D02*
X177743333Y-195152380D01*
X177826666Y-195247619D01*
X177898095Y-195438095D01*
X177862380Y-195723809D01*
X177743333Y-195914285D01*
X177636190Y-196009523D01*
X177433809Y-196104761D01*
X176671904Y-196104761D01*
X176921904Y-194104761D01*
X177588571Y-194104761D01*
X177767142Y-194200000D01*
X177850476Y-194295238D01*
X177921904Y-194485714D01*
X177898095Y-194676190D01*
X177779047Y-194866666D01*
X177671904Y-194961904D01*
X177469523Y-195057142D01*
X176802857Y-195057142D01*
X178957619Y-196104761D02*
X178779047Y-196009523D01*
X178695714Y-195914285D01*
X178624285Y-195723809D01*
X178695714Y-195152380D01*
X178814761Y-194961904D01*
X178921904Y-194866666D01*
X179124285Y-194771428D01*
X179410000Y-194771428D01*
X179588571Y-194866666D01*
X179671904Y-194961904D01*
X179743333Y-195152380D01*
X179671904Y-195723809D01*
X179552857Y-195914285D01*
X179445714Y-196009523D01*
X179243333Y-196104761D01*
X178957619Y-196104761D01*
X181338571Y-196104761D02*
X181469523Y-195057142D01*
X181398095Y-194866666D01*
X181219523Y-194771428D01*
X180838571Y-194771428D01*
X180636190Y-194866666D01*
X181350476Y-196009523D02*
X181148095Y-196104761D01*
X180671904Y-196104761D01*
X180493333Y-196009523D01*
X180421904Y-195819047D01*
X180445714Y-195628571D01*
X180564761Y-195438095D01*
X180767142Y-195342857D01*
X181243333Y-195342857D01*
X181445714Y-195247619D01*
X182290952Y-196104761D02*
X182457619Y-194771428D01*
X182410000Y-195152380D02*
X182529047Y-194961904D01*
X182636190Y-194866666D01*
X182838571Y-194771428D01*
X183029047Y-194771428D01*
X184386190Y-196104761D02*
X184636190Y-194104761D01*
X184398095Y-196009523D02*
X184195714Y-196104761D01*
X183814761Y-196104761D01*
X183636190Y-196009523D01*
X183552857Y-195914285D01*
X183481428Y-195723809D01*
X183552857Y-195152380D01*
X183671904Y-194961904D01*
X183779047Y-194866666D01*
X183981428Y-194771428D01*
X184362380Y-194771428D01*
X184540952Y-194866666D01*
X187814761Y-196104761D02*
X186862380Y-196104761D01*
X187112380Y-194104761D01*
X189338571Y-196104761D02*
X189469523Y-195057142D01*
X189398095Y-194866666D01*
X189219523Y-194771428D01*
X188838571Y-194771428D01*
X188636190Y-194866666D01*
X189350476Y-196009523D02*
X189148095Y-196104761D01*
X188671904Y-196104761D01*
X188493333Y-196009523D01*
X188421904Y-195819047D01*
X188445714Y-195628571D01*
X188564761Y-195438095D01*
X188767142Y-195342857D01*
X189243333Y-195342857D01*
X189445714Y-195247619D01*
X190267142Y-194771428D02*
X190576666Y-196104761D01*
X191219523Y-194771428D02*
X190576666Y-196104761D01*
X190326666Y-196580952D01*
X190219523Y-196676190D01*
X190017142Y-196771428D01*
X192100476Y-196104761D02*
X191921904Y-196009523D01*
X191838571Y-195914285D01*
X191767142Y-195723809D01*
X191838571Y-195152380D01*
X191957619Y-194961904D01*
X192064761Y-194866666D01*
X192267142Y-194771428D01*
X192552857Y-194771428D01*
X192731428Y-194866666D01*
X192814761Y-194961904D01*
X192886190Y-195152380D01*
X192814761Y-195723809D01*
X192695714Y-195914285D01*
X192588571Y-196009523D01*
X192386190Y-196104761D01*
X192100476Y-196104761D01*
X194648095Y-194771428D02*
X194481428Y-196104761D01*
X193790952Y-194771428D02*
X193660000Y-195819047D01*
X193731428Y-196009523D01*
X193910000Y-196104761D01*
X194195714Y-196104761D01*
X194398095Y-196009523D01*
X194505238Y-195914285D01*
X195314761Y-194771428D02*
X196076666Y-194771428D01*
X195683809Y-194104761D02*
X195469523Y-195819047D01*
X195540952Y-196009523D01*
X195719523Y-196104761D01*
X195910000Y-196104761D01*
D10*
D11*
X161332142Y-191492857D02*
X160832142Y-191492857D01*
X160832142Y-192278571D02*
X160832142Y-190778571D01*
X161546428Y-190778571D01*
X162117857Y-192278571D02*
X162117857Y-191278571D01*
X162117857Y-190778571D02*
X162046428Y-190850000D01*
X162117857Y-190921428D01*
X162189285Y-190850000D01*
X162117857Y-190778571D01*
X162117857Y-190921428D01*
X163046428Y-192278571D02*
X162903571Y-192207142D01*
X162832142Y-192064285D01*
X162832142Y-190778571D01*
X164189285Y-192207142D02*
X164046428Y-192278571D01*
X163760714Y-192278571D01*
X163617857Y-192207142D01*
X163546428Y-192064285D01*
X163546428Y-191492857D01*
X163617857Y-191350000D01*
X163760714Y-191278571D01*
X164046428Y-191278571D01*
X164189285Y-191350000D01*
X164260714Y-191492857D01*
X164260714Y-191635714D01*
X163546428Y-191778571D01*
X164903571Y-192135714D02*
X164975000Y-192207142D01*
X164903571Y-192278571D01*
X164832142Y-192207142D01*
X164903571Y-192135714D01*
X164903571Y-192278571D01*
X164903571Y-191350000D02*
X164975000Y-191421428D01*
X164903571Y-191492857D01*
X164832142Y-191421428D01*
X164903571Y-191350000D01*
X164903571Y-191492857D01*
X166760714Y-192278571D02*
X166760714Y-190778571D01*
X167760714Y-190778571D02*
X168046428Y-190778571D01*
X168189285Y-190850000D01*
X168332142Y-190992857D01*
X168403571Y-191278571D01*
X168403571Y-191778571D01*
X168332142Y-192064285D01*
X168189285Y-192207142D01*
X168046428Y-192278571D01*
X167760714Y-192278571D01*
X167617857Y-192207142D01*
X167475000Y-192064285D01*
X167403571Y-191778571D01*
X167403571Y-191278571D01*
X167475000Y-190992857D01*
X167617857Y-190850000D01*
X167760714Y-190778571D01*
X170689285Y-191492857D02*
X170903571Y-191564285D01*
X170975000Y-191635714D01*
X171046428Y-191778571D01*
X171046428Y-191992857D01*
X170975000Y-192135714D01*
X170903571Y-192207142D01*
X170760714Y-192278571D01*
X170189285Y-192278571D01*
X170189285Y-190778571D01*
X170689285Y-190778571D01*
X170832142Y-190850000D01*
X170903571Y-190921428D01*
X170975000Y-191064285D01*
X170975000Y-191207142D01*
X170903571Y-191350000D01*
X170832142Y-191421428D01*
X170689285Y-191492857D01*
X170189285Y-191492857D01*
X171903571Y-192278571D02*
X171760714Y-192207142D01*
X171689285Y-192135714D01*
X171617857Y-191992857D01*
X171617857Y-191564285D01*
X171689285Y-191421428D01*
X171760714Y-191350000D01*
X171903571Y-191278571D01*
X172117857Y-191278571D01*
X172260714Y-191350000D01*
X172332142Y-191421428D01*
X172403571Y-191564285D01*
X172403571Y-191992857D01*
X172332142Y-192135714D01*
X172260714Y-192207142D01*
X172117857Y-192278571D01*
X171903571Y-192278571D01*
X173689285Y-192278571D02*
X173689285Y-191492857D01*
X173617857Y-191350000D01*
X173475000Y-191278571D01*
X173189285Y-191278571D01*
X173046428Y-191350000D01*
X173689285Y-192207142D02*
X173546428Y-192278571D01*
X173189285Y-192278571D01*
X173046428Y-192207142D01*
X172975000Y-192064285D01*
X172975000Y-191921428D01*
X173046428Y-191778571D01*
X173189285Y-191707142D01*
X173546428Y-191707142D01*
X173689285Y-191635714D01*
X174403571Y-192278571D02*
X174403571Y-191278571D01*
X174403571Y-191564285D02*
X174475000Y-191421428D01*
X174546428Y-191350000D01*
X174689285Y-191278571D01*
X174832142Y-191278571D01*
X175975000Y-192278571D02*
X175975000Y-190778571D01*
X175975000Y-192207142D02*
X175832142Y-192278571D01*
X175546428Y-192278571D01*
X175403571Y-192207142D01*
X175332142Y-192135714D01*
X175260714Y-191992857D01*
X175260714Y-191564285D01*
X175332142Y-191421428D01*
X175403571Y-191350000D01*
X175546428Y-191278571D01*
X175832142Y-191278571D01*
X175975000Y-191350000D01*
X176689285Y-192135714D02*
X176760714Y-192207142D01*
X176689285Y-192278571D01*
X176617857Y-192207142D01*
X176689285Y-192135714D01*
X176689285Y-192278571D01*
X177403571Y-192278571D02*
X177403571Y-190778571D01*
X177546428Y-191707142D02*
X177975000Y-192278571D01*
X177975000Y-191278571D02*
X177403571Y-191850000D01*
X178617857Y-192278571D02*
X178617857Y-191278571D01*
X178617857Y-190778571D02*
X178546428Y-190850000D01*
X178617857Y-190921428D01*
X178689285Y-190850000D01*
X178617857Y-190778571D01*
X178617857Y-190921428D01*
X179975000Y-192207142D02*
X179832142Y-192278571D01*
X179546428Y-192278571D01*
X179403571Y-192207142D01*
X179332142Y-192135714D01*
X179260714Y-191992857D01*
X179260714Y-191564285D01*
X179332142Y-191421428D01*
X179403571Y-191350000D01*
X179546428Y-191278571D01*
X179832142Y-191278571D01*
X179975000Y-191350000D01*
X181260714Y-192278571D02*
X181260714Y-191492857D01*
X181189285Y-191350000D01*
X181046428Y-191278571D01*
X180760714Y-191278571D01*
X180617857Y-191350000D01*
X181260714Y-192207142D02*
X181117857Y-192278571D01*
X180760714Y-192278571D01*
X180617857Y-192207142D01*
X180546428Y-192064285D01*
X180546428Y-191921428D01*
X180617857Y-191778571D01*
X180760714Y-191707142D01*
X181117857Y-191707142D01*
X181260714Y-191635714D01*
X182617857Y-192278571D02*
X182617857Y-190778571D01*
X182617857Y-192207142D02*
X182475000Y-192278571D01*
X182189285Y-192278571D01*
X182046428Y-192207142D01*
X181975000Y-192135714D01*
X181903571Y-191992857D01*
X181903571Y-191564285D01*
X181975000Y-191421428D01*
X182046428Y-191350000D01*
X182189285Y-191278571D01*
X182475000Y-191278571D01*
X182617857Y-191350000D01*
X182975000Y-192421428D02*
X184117857Y-192421428D01*
X184475000Y-191278571D02*
X184475000Y-192778571D01*
X184475000Y-191350000D02*
X184617857Y-191278571D01*
X184903571Y-191278571D01*
X185046428Y-191350000D01*
X185117857Y-191421428D01*
X185189285Y-191564285D01*
X185189285Y-191992857D01*
X185117857Y-192135714D01*
X185046428Y-192207142D01*
X184903571Y-192278571D01*
X184617857Y-192278571D01*
X184475000Y-192207142D01*
X186475000Y-192207142D02*
X186332142Y-192278571D01*
X186046428Y-192278571D01*
X185903571Y-192207142D01*
X185832142Y-192135714D01*
X185760714Y-191992857D01*
X185760714Y-191564285D01*
X185832142Y-191421428D01*
X185903571Y-191350000D01*
X186046428Y-191278571D01*
X186332142Y-191278571D01*
X186475000Y-191350000D01*
X187117857Y-192278571D02*
X187117857Y-190778571D01*
X187117857Y-191350000D02*
X187260714Y-191278571D01*
X187546428Y-191278571D01*
X187689285Y-191350000D01*
X187760714Y-191421428D01*
X187832142Y-191564285D01*
X187832142Y-191992857D01*
X187760714Y-192135714D01*
X187689285Y-192207142D01*
X187546428Y-192278571D01*
X187260714Y-192278571D01*
X187117857Y-192207142D01*
D10*
D11*
X159400000Y-187400000D02*
X267400000Y-187400000D01*
D10*
D11*
X160760714Y-189507142D02*
X160975000Y-189578571D01*
X161332142Y-189578571D01*
X161475000Y-189507142D01*
X161546428Y-189435714D01*
X161617857Y-189292857D01*
X161617857Y-189150000D01*
X161546428Y-189007142D01*
X161475000Y-188935714D01*
X161332142Y-188864285D01*
X161046428Y-188792857D01*
X160903571Y-188721428D01*
X160832142Y-188650000D01*
X160760714Y-188507142D01*
X160760714Y-188364285D01*
X160832142Y-188221428D01*
X160903571Y-188150000D01*
X161046428Y-188078571D01*
X161403571Y-188078571D01*
X161617857Y-188150000D01*
X162260714Y-189578571D02*
X162260714Y-188078571D01*
X162903571Y-189578571D02*
X162903571Y-188792857D01*
X162832142Y-188650000D01*
X162689285Y-188578571D01*
X162475000Y-188578571D01*
X162332142Y-188650000D01*
X162260714Y-188721428D01*
X164189285Y-189507142D02*
X164046428Y-189578571D01*
X163760714Y-189578571D01*
X163617857Y-189507142D01*
X163546428Y-189364285D01*
X163546428Y-188792857D01*
X163617857Y-188650000D01*
X163760714Y-188578571D01*
X164046428Y-188578571D01*
X164189285Y-188650000D01*
X164260714Y-188792857D01*
X164260714Y-188935714D01*
X163546428Y-189078571D01*
X165475000Y-189507142D02*
X165332142Y-189578571D01*
X165046428Y-189578571D01*
X164903571Y-189507142D01*
X164832142Y-189364285D01*
X164832142Y-188792857D01*
X164903571Y-188650000D01*
X165046428Y-188578571D01*
X165332142Y-188578571D01*
X165475000Y-188650000D01*
X165546428Y-188792857D01*
X165546428Y-188935714D01*
X164832142Y-189078571D01*
X165975000Y-188578571D02*
X166546428Y-188578571D01*
X166189285Y-188078571D02*
X166189285Y-189364285D01*
X166260714Y-189507142D01*
X166403571Y-189578571D01*
X166546428Y-189578571D01*
X167046428Y-189435714D02*
X167117857Y-189507142D01*
X167046428Y-189578571D01*
X166975000Y-189507142D01*
X167046428Y-189435714D01*
X167046428Y-189578571D01*
X167046428Y-188650000D02*
X167117857Y-188721428D01*
X167046428Y-188792857D01*
X166975000Y-188721428D01*
X167046428Y-188650000D01*
X167046428Y-188792857D01*
D10*
D11*
X179400000Y-197400000D02*
X179400000Y-200400000D01*
D10*
D11*
X243400000Y-197400000D02*
X243400000Y-203900000D01*
D12*
X200450142Y-85509571D02*
X200450142Y-84009571D01*
X202235857Y-83938142D02*
X200950142Y-85866714D01*
X203021571Y-84009571D02*
X203307285Y-84009571D01*
X203450142Y-84081000D01*
X203593000Y-84223857D01*
X203664428Y-84509571D01*
X203664428Y-85009571D01*
X203593000Y-85295285D01*
X203450142Y-85438142D01*
X203307285Y-85509571D01*
X203021571Y-85509571D01*
X202878714Y-85438142D01*
X202735857Y-85295285D01*
X202664428Y-85009571D01*
X202664428Y-84509571D01*
X202735857Y-84223857D01*
X202878714Y-84081000D01*
X203021571Y-84009571D01*
X205950142Y-84723857D02*
X206164428Y-84795285D01*
X206235857Y-84866714D01*
X206307285Y-85009571D01*
X206307285Y-85223857D01*
X206235857Y-85366714D01*
X206164428Y-85438142D01*
X206021571Y-85509571D01*
X205450142Y-85509571D01*
X205450142Y-84009571D01*
X205950142Y-84009571D01*
X206093000Y-84081000D01*
X206164428Y-84152428D01*
X206235857Y-84295285D01*
X206235857Y-84438142D01*
X206164428Y-84581000D01*
X206093000Y-84652428D01*
X205950142Y-84723857D01*
X205450142Y-84723857D01*
X207164428Y-85509571D02*
X207021571Y-85438142D01*
X206950142Y-85366714D01*
X206878714Y-85223857D01*
X206878714Y-84795285D01*
X206950142Y-84652428D01*
X207021571Y-84581000D01*
X207164428Y-84509571D01*
X207378714Y-84509571D01*
X207521571Y-84581000D01*
X207593000Y-84652428D01*
X207664428Y-84795285D01*
X207664428Y-85223857D01*
X207593000Y-85366714D01*
X207521571Y-85438142D01*
X207378714Y-85509571D01*
X207164428Y-85509571D01*
X208950142Y-85509571D02*
X208950142Y-84723857D01*
X208878714Y-84581000D01*
X208735857Y-84509571D01*
X208450142Y-84509571D01*
X208307285Y-84581000D01*
X208950142Y-85438142D02*
X208807285Y-85509571D01*
X208450142Y-85509571D01*
X208307285Y-85438142D01*
X208235857Y-85295285D01*
X208235857Y-85152428D01*
X208307285Y-85009571D01*
X208450142Y-84938142D01*
X208807285Y-84938142D01*
X208950142Y-84866714D01*
X209664428Y-85509571D02*
X209664428Y-84509571D01*
X209664428Y-84795285D02*
X209735857Y-84652428D01*
X209807285Y-84581000D01*
X209950142Y-84509571D01*
X210093000Y-84509571D01*
X211235857Y-85509571D02*
X211235857Y-84009571D01*
X211235857Y-85438142D02*
X211093000Y-85509571D01*
X210807285Y-85509571D01*
X210664428Y-85438142D01*
X210593000Y-85366714D01*
X210521571Y-85223857D01*
X210521571Y-84795285D01*
X210593000Y-84652428D01*
X210664428Y-84581000D01*
X210807285Y-84509571D01*
X211093000Y-84509571D01*
X211235857Y-84581000D01*
X200950142Y-87273857D02*
X200450142Y-87273857D01*
X200450142Y-88059571D02*
X200450142Y-86559571D01*
X201164428Y-86559571D01*
X201735857Y-88059571D02*
X201735857Y-87059571D01*
X201735857Y-87345285D02*
X201807285Y-87202428D01*
X201878714Y-87131000D01*
X202021571Y-87059571D01*
X202164428Y-87059571D01*
X202878714Y-88059571D02*
X202735857Y-87988142D01*
X202664428Y-87916714D01*
X202593000Y-87773857D01*
X202593000Y-87345285D01*
X202664428Y-87202428D01*
X202735857Y-87131000D01*
X202878714Y-87059571D01*
X203093000Y-87059571D01*
X203235857Y-87131000D01*
X203307285Y-87202428D01*
X203378714Y-87345285D01*
X203378714Y-87773857D01*
X203307285Y-87916714D01*
X203235857Y-87988142D01*
X203093000Y-88059571D01*
X202878714Y-88059571D01*
X204021571Y-87059571D02*
X204021571Y-88059571D01*
X204021571Y-87202428D02*
X204093000Y-87131000D01*
X204235857Y-87059571D01*
X204450142Y-87059571D01*
X204593000Y-87131000D01*
X204664428Y-87273857D01*
X204664428Y-88059571D01*
X205164428Y-87059571D02*
X205735857Y-87059571D01*
X205378714Y-86559571D02*
X205378714Y-87845285D01*
X205450142Y-87988142D01*
X205593000Y-88059571D01*
X205735857Y-88059571D01*
X207307285Y-87988142D02*
X207521571Y-88059571D01*
X207878714Y-88059571D01*
X208021571Y-87988142D01*
X208093000Y-87916714D01*
X208164428Y-87773857D01*
X208164428Y-87631000D01*
X208093000Y-87488142D01*
X208021571Y-87416714D01*
X207878714Y-87345285D01*
X207593000Y-87273857D01*
X207450142Y-87202428D01*
X207378714Y-87131000D01*
X207307285Y-86988142D01*
X207307285Y-86845285D01*
X207378714Y-86702428D01*
X207450142Y-86631000D01*
X207593000Y-86559571D01*
X207950142Y-86559571D01*
X208164428Y-86631000D01*
X208807285Y-88059571D02*
X208807285Y-87059571D01*
X208807285Y-86559571D02*
X208735857Y-86631000D01*
X208807285Y-86702428D01*
X208878714Y-86631000D01*
X208807285Y-86559571D01*
X208807285Y-86702428D01*
X210164428Y-88059571D02*
X210164428Y-86559571D01*
X210164428Y-87988142D02*
X210021571Y-88059571D01*
X209735857Y-88059571D01*
X209593000Y-87988142D01*
X209521571Y-87916714D01*
X209450142Y-87773857D01*
X209450142Y-87345285D01*
X209521571Y-87202428D01*
X209593000Y-87131000D01*
X209735857Y-87059571D01*
X210021571Y-87059571D01*
X210164428Y-87131000D01*
X211450142Y-87988142D02*
X211307285Y-88059571D01*
X211021571Y-88059571D01*
X210878714Y-87988142D01*
X210807285Y-87845285D01*
X210807285Y-87273857D01*
X210878714Y-87131000D01*
X211021571Y-87059571D01*
X211307285Y-87059571D01*
X211450142Y-87131000D01*
X211521571Y-87273857D01*
X211521571Y-87416714D01*
X210807285Y-87559571D01*
X213235857Y-87988142D02*
X213450142Y-88059571D01*
X213807285Y-88059571D01*
X213950142Y-87988142D01*
X214021571Y-87916714D01*
X214093000Y-87773857D01*
X214093000Y-87631000D01*
X214021571Y-87488142D01*
X213950142Y-87416714D01*
X213807285Y-87345285D01*
X213521571Y-87273857D01*
X213378714Y-87202428D01*
X213307285Y-87131000D01*
X213235857Y-86988142D01*
X213235857Y-86845285D01*
X213307285Y-86702428D01*
X213378714Y-86631000D01*
X213521571Y-86559571D01*
X213878714Y-86559571D01*
X214093000Y-86631000D01*
X214950142Y-88059571D02*
X214807285Y-87988142D01*
X214735857Y-87916714D01*
X214664428Y-87773857D01*
X214664428Y-87345285D01*
X214735857Y-87202428D01*
X214807285Y-87131000D01*
X214950142Y-87059571D01*
X215164428Y-87059571D01*
X215307285Y-87131000D01*
X215378714Y-87202428D01*
X215450142Y-87345285D01*
X215450142Y-87773857D01*
X215378714Y-87916714D01*
X215307285Y-87988142D01*
X215164428Y-88059571D01*
X214950142Y-88059571D01*
X216307285Y-88059571D02*
X216164428Y-87988142D01*
X216093000Y-87845285D01*
X216093000Y-86559571D01*
X217521571Y-88059571D02*
X217521571Y-86559571D01*
X217521571Y-87988142D02*
X217378714Y-88059571D01*
X217093000Y-88059571D01*
X216950142Y-87988142D01*
X216878714Y-87916714D01*
X216807285Y-87773857D01*
X216807285Y-87345285D01*
X216878714Y-87202428D01*
X216950142Y-87131000D01*
X217093000Y-87059571D01*
X217378714Y-87059571D01*
X217521571Y-87131000D01*
X218807285Y-87988142D02*
X218664428Y-88059571D01*
X218378714Y-88059571D01*
X218235857Y-87988142D01*
X218164428Y-87845285D01*
X218164428Y-87273857D01*
X218235857Y-87131000D01*
X218378714Y-87059571D01*
X218664428Y-87059571D01*
X218807285Y-87131000D01*
X218878714Y-87273857D01*
X218878714Y-87416714D01*
X218164428Y-87559571D01*
X219521571Y-88059571D02*
X219521571Y-87059571D01*
X219521571Y-87345285D02*
X219593000Y-87202428D01*
X219664428Y-87131000D01*
X219807285Y-87059571D01*
X219950142Y-87059571D01*
X221593000Y-88059571D02*
X221593000Y-86559571D01*
X222093000Y-87631000D01*
X222593000Y-86559571D01*
X222593000Y-88059571D01*
X223950142Y-88059571D02*
X223950142Y-87273857D01*
X223878714Y-87131000D01*
X223735857Y-87059571D01*
X223450142Y-87059571D01*
X223307285Y-87131000D01*
X223950142Y-87988142D02*
X223807285Y-88059571D01*
X223450142Y-88059571D01*
X223307285Y-87988142D01*
X223235857Y-87845285D01*
X223235857Y-87702428D01*
X223307285Y-87559571D01*
X223450142Y-87488142D01*
X223807285Y-87488142D01*
X223950142Y-87416714D01*
X224593000Y-87988142D02*
X224735857Y-88059571D01*
X225021571Y-88059571D01*
X225164428Y-87988142D01*
X225235857Y-87845285D01*
X225235857Y-87773857D01*
X225164428Y-87631000D01*
X225021571Y-87559571D01*
X224807285Y-87559571D01*
X224664428Y-87488142D01*
X224593000Y-87345285D01*
X224593000Y-87273857D01*
X224664428Y-87131000D01*
X224807285Y-87059571D01*
X225021571Y-87059571D01*
X225164428Y-87131000D01*
X225878714Y-88059571D02*
X225878714Y-86559571D01*
X226021571Y-87488142D02*
X226450142Y-88059571D01*
X226450142Y-87059571D02*
X225878714Y-87631000D01*
D10*
G36*
X179316000Y-119518000D02*
G01*
X178316000Y-119518000D01*
X178316000Y-116518000D01*
X179316000Y-116518000D01*
X179316000Y-119518000D01*
G37*
G36*
X176776000Y-119518000D02*
G01*
X175776000Y-119518000D01*
X175776000Y-116518000D01*
X176776000Y-116518000D01*
X176776000Y-119518000D01*
G37*
G36*
X169156000Y-119518000D02*
G01*
X168156000Y-119518000D01*
X168156000Y-116518000D01*
X169156000Y-116518000D01*
X169156000Y-119518000D01*
G37*
G36*
X174236000Y-119518000D02*
G01*
X173236000Y-119518000D01*
X173236000Y-116518000D01*
X174236000Y-116518000D01*
X174236000Y-119518000D01*
G37*
G36*
X171696000Y-119518000D02*
G01*
X170696000Y-119518000D01*
X170696000Y-116518000D01*
X171696000Y-116518000D01*
X171696000Y-119518000D01*
G37*
G36*
X142473351Y-113276743D02*
G01*
X142618941Y-113337048D01*
X142749970Y-113424599D01*
X142861401Y-113536030D01*
X142948952Y-113667059D01*
X143009257Y-113812649D01*
X143040000Y-113967206D01*
X143040000Y-114124794D01*
X143009257Y-114279351D01*
X142948952Y-114424941D01*
X142861401Y-114555970D01*
X142749970Y-114667401D01*
X142618941Y-114754952D01*
X142473351Y-114815257D01*
X142318794Y-114846000D01*
X142161206Y-114846000D01*
X142006649Y-114815257D01*
X141861059Y-114754952D01*
X141730030Y-114667401D01*
X141618599Y-114555970D01*
X141531048Y-114424941D01*
X141470743Y-114279351D01*
X141440000Y-114124794D01*
X141440000Y-113967206D01*
X141470743Y-113812649D01*
X141531048Y-113667059D01*
X141618599Y-113536030D01*
X141730030Y-113424599D01*
X141861059Y-113337048D01*
X142006649Y-113276743D01*
X142161206Y-113246000D01*
X142318794Y-113246000D01*
X142473351Y-113276743D01*
G37*
G36*
X145013351Y-113276743D02*
G01*
X145158941Y-113337048D01*
X145289970Y-113424599D01*
X145401401Y-113536030D01*
X145488952Y-113667059D01*
X145549257Y-113812649D01*
X145580000Y-113967206D01*
X145580000Y-114124794D01*
X145549257Y-114279351D01*
X145488952Y-114424941D01*
X145401401Y-114555970D01*
X145289970Y-114667401D01*
X145158941Y-114754952D01*
X145013351Y-114815257D01*
X144858794Y-114846000D01*
X144701206Y-114846000D01*
X144546649Y-114815257D01*
X144401059Y-114754952D01*
X144270030Y-114667401D01*
X144158599Y-114555970D01*
X144071048Y-114424941D01*
X144010743Y-114279351D01*
X143980000Y-114124794D01*
X143980000Y-113967206D01*
X144010743Y-113812649D01*
X144071048Y-113667059D01*
X144158599Y-113536030D01*
X144270030Y-113424599D01*
X144401059Y-113337048D01*
X144546649Y-113276743D01*
X144701206Y-113246000D01*
X144858794Y-113246000D01*
X145013351Y-113276743D01*
G37*
G36*
X107480000Y-114846000D02*
G01*
X105880000Y-114846000D01*
X105880000Y-113246000D01*
X107480000Y-113246000D01*
X107480000Y-114846000D01*
G37*
G36*
X119613351Y-113276743D02*
G01*
X119758941Y-113337048D01*
X119889970Y-113424599D01*
X120001401Y-113536030D01*
X120088952Y-113667059D01*
X120149257Y-113812649D01*
X120180000Y-113967206D01*
X120180000Y-114124794D01*
X120149257Y-114279351D01*
X120088952Y-114424941D01*
X120001401Y-114555970D01*
X119889970Y-114667401D01*
X119758941Y-114754952D01*
X119613351Y-114815257D01*
X119458794Y-114846000D01*
X119301206Y-114846000D01*
X119146649Y-114815257D01*
X119001059Y-114754952D01*
X118870030Y-114667401D01*
X118758599Y-114555970D01*
X118671048Y-114424941D01*
X118610743Y-114279351D01*
X118580000Y-114124794D01*
X118580000Y-113967206D01*
X118610743Y-113812649D01*
X118671048Y-113667059D01*
X118758599Y-113536030D01*
X118870030Y-113424599D01*
X119001059Y-113337048D01*
X119146649Y-113276743D01*
X119301206Y-113246000D01*
X119458794Y-113246000D01*
X119613351Y-113276743D01*
G37*
G36*
X122153351Y-113276743D02*
G01*
X122298941Y-113337048D01*
X122429970Y-113424599D01*
X122541401Y-113536030D01*
X122628952Y-113667059D01*
X122689257Y-113812649D01*
X122720000Y-113967206D01*
X122720000Y-114124794D01*
X122689257Y-114279351D01*
X122628952Y-114424941D01*
X122541401Y-114555970D01*
X122429970Y-114667401D01*
X122298941Y-114754952D01*
X122153351Y-114815257D01*
X121998794Y-114846000D01*
X121841206Y-114846000D01*
X121686649Y-114815257D01*
X121541059Y-114754952D01*
X121410030Y-114667401D01*
X121298599Y-114555970D01*
X121211048Y-114424941D01*
X121150743Y-114279351D01*
X121120000Y-114124794D01*
X121120000Y-113967206D01*
X121150743Y-113812649D01*
X121211048Y-113667059D01*
X121298599Y-113536030D01*
X121410030Y-113424599D01*
X121541059Y-113337048D01*
X121686649Y-113276743D01*
X121841206Y-113246000D01*
X121998794Y-113246000D01*
X122153351Y-113276743D01*
G37*
G36*
X124693351Y-113276743D02*
G01*
X124838941Y-113337048D01*
X124969970Y-113424599D01*
X125081401Y-113536030D01*
X125168952Y-113667059D01*
X125229257Y-113812649D01*
X125260000Y-113967206D01*
X125260000Y-114124794D01*
X125229257Y-114279351D01*
X125168952Y-114424941D01*
X125081401Y-114555970D01*
X124969970Y-114667401D01*
X124838941Y-114754952D01*
X124693351Y-114815257D01*
X124538794Y-114846000D01*
X124381206Y-114846000D01*
X124226649Y-114815257D01*
X124081059Y-114754952D01*
X123950030Y-114667401D01*
X123838599Y-114555970D01*
X123751048Y-114424941D01*
X123690743Y-114279351D01*
X123660000Y-114124794D01*
X123660000Y-113967206D01*
X123690743Y-113812649D01*
X123751048Y-113667059D01*
X123838599Y-113536030D01*
X123950030Y-113424599D01*
X124081059Y-113337048D01*
X124226649Y-113276743D01*
X124381206Y-113246000D01*
X124538794Y-113246000D01*
X124693351Y-113276743D01*
G37*
G36*
X111993351Y-113276743D02*
G01*
X112138941Y-113337048D01*
X112269970Y-113424599D01*
X112381401Y-113536030D01*
X112468952Y-113667059D01*
X112529257Y-113812649D01*
X112560000Y-113967206D01*
X112560000Y-114124794D01*
X112529257Y-114279351D01*
X112468952Y-114424941D01*
X112381401Y-114555970D01*
X112269970Y-114667401D01*
X112138941Y-114754952D01*
X111993351Y-114815257D01*
X111838794Y-114846000D01*
X111681206Y-114846000D01*
X111526649Y-114815257D01*
X111381059Y-114754952D01*
X111250030Y-114667401D01*
X111138599Y-114555970D01*
X111051048Y-114424941D01*
X110990743Y-114279351D01*
X110960000Y-114124794D01*
X110960000Y-113967206D01*
X110990743Y-113812649D01*
X111051048Y-113667059D01*
X111138599Y-113536030D01*
X111250030Y-113424599D01*
X111381059Y-113337048D01*
X111526649Y-113276743D01*
X111681206Y-113246000D01*
X111838794Y-113246000D01*
X111993351Y-113276743D01*
G37*
G36*
X114533351Y-113276743D02*
G01*
X114678941Y-113337048D01*
X114809970Y-113424599D01*
X114921401Y-113536030D01*
X115008952Y-113667059D01*
X115069257Y-113812649D01*
X115100000Y-113967206D01*
X115100000Y-114124794D01*
X115069257Y-114279351D01*
X115008952Y-114424941D01*
X114921401Y-114555970D01*
X114809970Y-114667401D01*
X114678941Y-114754952D01*
X114533351Y-114815257D01*
X114378794Y-114846000D01*
X114221206Y-114846000D01*
X114066649Y-114815257D01*
X113921059Y-114754952D01*
X113790030Y-114667401D01*
X113678599Y-114555970D01*
X113591048Y-114424941D01*
X113530743Y-114279351D01*
X113500000Y-114124794D01*
X113500000Y-113967206D01*
X113530743Y-113812649D01*
X113591048Y-113667059D01*
X113678599Y-113536030D01*
X113790030Y-113424599D01*
X113921059Y-113337048D01*
X114066649Y-113276743D01*
X114221206Y-113246000D01*
X114378794Y-113246000D01*
X114533351Y-113276743D01*
G37*
G36*
X129773351Y-113276743D02*
G01*
X129918941Y-113337048D01*
X130049970Y-113424599D01*
X130161401Y-113536030D01*
X130248952Y-113667059D01*
X130309257Y-113812649D01*
X130340000Y-113967206D01*
X130340000Y-114124794D01*
X130309257Y-114279351D01*
X130248952Y-114424941D01*
X130161401Y-114555970D01*
X130049970Y-114667401D01*
X129918941Y-114754952D01*
X129773351Y-114815257D01*
X129618794Y-114846000D01*
X129461206Y-114846000D01*
X129306649Y-114815257D01*
X129161059Y-114754952D01*
X129030030Y-114667401D01*
X128918599Y-114555970D01*
X128831048Y-114424941D01*
X128770743Y-114279351D01*
X128740000Y-114124794D01*
X128740000Y-113967206D01*
X128770743Y-113812649D01*
X128831048Y-113667059D01*
X128918599Y-113536030D01*
X129030030Y-113424599D01*
X129161059Y-113337048D01*
X129306649Y-113276743D01*
X129461206Y-113246000D01*
X129618794Y-113246000D01*
X129773351Y-113276743D01*
G37*
G36*
X132313351Y-113276743D02*
G01*
X132458941Y-113337048D01*
X132589970Y-113424599D01*
X132701401Y-113536030D01*
X132788952Y-113667059D01*
X132849257Y-113812649D01*
X132880000Y-113967206D01*
X132880000Y-114124794D01*
X132849257Y-114279351D01*
X132788952Y-114424941D01*
X132701401Y-114555970D01*
X132589970Y-114667401D01*
X132458941Y-114754952D01*
X132313351Y-114815257D01*
X132158794Y-114846000D01*
X132001206Y-114846000D01*
X131846649Y-114815257D01*
X131701059Y-114754952D01*
X131570030Y-114667401D01*
X131458599Y-114555970D01*
X131371048Y-114424941D01*
X131310743Y-114279351D01*
X131280000Y-114124794D01*
X131280000Y-113967206D01*
X131310743Y-113812649D01*
X131371048Y-113667059D01*
X131458599Y-113536030D01*
X131570030Y-113424599D01*
X131701059Y-113337048D01*
X131846649Y-113276743D01*
X132001206Y-113246000D01*
X132158794Y-113246000D01*
X132313351Y-113276743D01*
G37*
G36*
X134853351Y-113276743D02*
G01*
X134998941Y-113337048D01*
X135129970Y-113424599D01*
X135241401Y-113536030D01*
X135328952Y-113667059D01*
X135389257Y-113812649D01*
X135420000Y-113967206D01*
X135420000Y-114124794D01*
X135389257Y-114279351D01*
X135328952Y-114424941D01*
X135241401Y-114555970D01*
X135129970Y-114667401D01*
X134998941Y-114754952D01*
X134853351Y-114815257D01*
X134698794Y-114846000D01*
X134541206Y-114846000D01*
X134386649Y-114815257D01*
X134241059Y-114754952D01*
X134110030Y-114667401D01*
X133998599Y-114555970D01*
X133911048Y-114424941D01*
X133850743Y-114279351D01*
X133820000Y-114124794D01*
X133820000Y-113967206D01*
X133850743Y-113812649D01*
X133911048Y-113667059D01*
X133998599Y-113536030D01*
X134110030Y-113424599D01*
X134241059Y-113337048D01*
X134386649Y-113276743D01*
X134541206Y-113246000D01*
X134698794Y-113246000D01*
X134853351Y-113276743D01*
G37*
G36*
X117073351Y-113276743D02*
G01*
X117218941Y-113337048D01*
X117349970Y-113424599D01*
X117461401Y-113536030D01*
X117548952Y-113667059D01*
X117609257Y-113812649D01*
X117640000Y-113967206D01*
X117640000Y-114124794D01*
X117609257Y-114279351D01*
X117548952Y-114424941D01*
X117461401Y-114555970D01*
X117349970Y-114667401D01*
X117218941Y-114754952D01*
X117073351Y-114815257D01*
X116918794Y-114846000D01*
X116761206Y-114846000D01*
X116606649Y-114815257D01*
X116461059Y-114754952D01*
X116330030Y-114667401D01*
X116218599Y-114555970D01*
X116131048Y-114424941D01*
X116070743Y-114279351D01*
X116040000Y-114124794D01*
X116040000Y-113967206D01*
X116070743Y-113812649D01*
X116131048Y-113667059D01*
X116218599Y-113536030D01*
X116330030Y-113424599D01*
X116461059Y-113337048D01*
X116606649Y-113276743D01*
X116761206Y-113246000D01*
X116918794Y-113246000D01*
X117073351Y-113276743D01*
G37*
G36*
X137393351Y-113276743D02*
G01*
X137538941Y-113337048D01*
X137669970Y-113424599D01*
X137781401Y-113536030D01*
X137868952Y-113667059D01*
X137929257Y-113812649D01*
X137960000Y-113967206D01*
X137960000Y-114124794D01*
X137929257Y-114279351D01*
X137868952Y-114424941D01*
X137781401Y-114555970D01*
X137669970Y-114667401D01*
X137538941Y-114754952D01*
X137393351Y-114815257D01*
X137238794Y-114846000D01*
X137081206Y-114846000D01*
X136926649Y-114815257D01*
X136781059Y-114754952D01*
X136650030Y-114667401D01*
X136538599Y-114555970D01*
X136451048Y-114424941D01*
X136390743Y-114279351D01*
X136360000Y-114124794D01*
X136360000Y-113967206D01*
X136390743Y-113812649D01*
X136451048Y-113667059D01*
X136538599Y-113536030D01*
X136650030Y-113424599D01*
X136781059Y-113337048D01*
X136926649Y-113276743D01*
X137081206Y-113246000D01*
X137238794Y-113246000D01*
X137393351Y-113276743D01*
G37*
G36*
X109453351Y-113276743D02*
G01*
X109598941Y-113337048D01*
X109729970Y-113424599D01*
X109841401Y-113536030D01*
X109928952Y-113667059D01*
X109989257Y-113812649D01*
X110020000Y-113967206D01*
X110020000Y-114124794D01*
X109989257Y-114279351D01*
X109928952Y-114424941D01*
X109841401Y-114555970D01*
X109729970Y-114667401D01*
X109598941Y-114754952D01*
X109453351Y-114815257D01*
X109298794Y-114846000D01*
X109141206Y-114846000D01*
X108986649Y-114815257D01*
X108841059Y-114754952D01*
X108710030Y-114667401D01*
X108598599Y-114555970D01*
X108511048Y-114424941D01*
X108450743Y-114279351D01*
X108420000Y-114124794D01*
X108420000Y-113967206D01*
X108450743Y-113812649D01*
X108511048Y-113667059D01*
X108598599Y-113536030D01*
X108710030Y-113424599D01*
X108841059Y-113337048D01*
X108986649Y-113276743D01*
X109141206Y-113246000D01*
X109298794Y-113246000D01*
X109453351Y-113276743D01*
G37*
G36*
X139933351Y-113276743D02*
G01*
X140078941Y-113337048D01*
X140209970Y-113424599D01*
X140321401Y-113536030D01*
X140408952Y-113667059D01*
X140469257Y-113812649D01*
X140500000Y-113967206D01*
X140500000Y-114124794D01*
X140469257Y-114279351D01*
X140408952Y-114424941D01*
X140321401Y-114555970D01*
X140209970Y-114667401D01*
X140078941Y-114754952D01*
X139933351Y-114815257D01*
X139778794Y-114846000D01*
X139621206Y-114846000D01*
X139466649Y-114815257D01*
X139321059Y-114754952D01*
X139190030Y-114667401D01*
X139078599Y-114555970D01*
X138991048Y-114424941D01*
X138930743Y-114279351D01*
X138900000Y-114124794D01*
X138900000Y-113967206D01*
X138930743Y-113812649D01*
X138991048Y-113667059D01*
X139078599Y-113536030D01*
X139190030Y-113424599D01*
X139321059Y-113337048D01*
X139466649Y-113276743D01*
X139621206Y-113246000D01*
X139778794Y-113246000D01*
X139933351Y-113276743D01*
G37*
G36*
X127233351Y-113276743D02*
G01*
X127378941Y-113337048D01*
X127509970Y-113424599D01*
X127621401Y-113536030D01*
X127708952Y-113667059D01*
X127769257Y-113812649D01*
X127800000Y-113967206D01*
X127800000Y-114124794D01*
X127769257Y-114279351D01*
X127708952Y-114424941D01*
X127621401Y-114555970D01*
X127509970Y-114667401D01*
X127378941Y-114754952D01*
X127233351Y-114815257D01*
X127078794Y-114846000D01*
X126921206Y-114846000D01*
X126766649Y-114815257D01*
X126621059Y-114754952D01*
X126490030Y-114667401D01*
X126378599Y-114555970D01*
X126291048Y-114424941D01*
X126230743Y-114279351D01*
X126200000Y-114124794D01*
X126200000Y-113967206D01*
X126230743Y-113812649D01*
X126291048Y-113667059D01*
X126378599Y-113536030D01*
X126490030Y-113424599D01*
X126621059Y-113337048D01*
X126766649Y-113276743D01*
X126921206Y-113246000D01*
X127078794Y-113246000D01*
X127233351Y-113276743D01*
G37*
G36*
X117289464Y-109110837D02*
G01*
X117321025Y-109120412D01*
X117350120Y-109135963D01*
X117375615Y-109156885D01*
X117396537Y-109182380D01*
X117412088Y-109211475D01*
X117421663Y-109243036D01*
X117425500Y-109281998D01*
X117425500Y-110682002D01*
X117421663Y-110720964D01*
X117412088Y-110752525D01*
X117396537Y-110781620D01*
X117375615Y-110807115D01*
X117350120Y-110828037D01*
X117321025Y-110843588D01*
X117289464Y-110853163D01*
X117250502Y-110857000D01*
X116175498Y-110857000D01*
X116136536Y-110853163D01*
X116104975Y-110843588D01*
X116075880Y-110828037D01*
X116050385Y-110807115D01*
X116029463Y-110781620D01*
X116013912Y-110752525D01*
X116004337Y-110720964D01*
X116000500Y-110682002D01*
X116000500Y-109281998D01*
X116004337Y-109243036D01*
X116013912Y-109211475D01*
X116029463Y-109182380D01*
X116050385Y-109156885D01*
X116075880Y-109135963D01*
X116104975Y-109120412D01*
X116136536Y-109110837D01*
X116175498Y-109107000D01*
X117250502Y-109107000D01*
X117289464Y-109110837D01*
G37*
G36*
X120264464Y-109110837D02*
G01*
X120296025Y-109120412D01*
X120325120Y-109135963D01*
X120350615Y-109156885D01*
X120371537Y-109182380D01*
X120387088Y-109211475D01*
X120396663Y-109243036D01*
X120400500Y-109281998D01*
X120400500Y-110682002D01*
X120396663Y-110720964D01*
X120387088Y-110752525D01*
X120371537Y-110781620D01*
X120350615Y-110807115D01*
X120325120Y-110828037D01*
X120296025Y-110843588D01*
X120264464Y-110853163D01*
X120225502Y-110857000D01*
X119150498Y-110857000D01*
X119111536Y-110853163D01*
X119079975Y-110843588D01*
X119050880Y-110828037D01*
X119025385Y-110807115D01*
X119004463Y-110781620D01*
X118988912Y-110752525D01*
X118979337Y-110720964D01*
X118975500Y-110682002D01*
X118975500Y-109281998D01*
X118979337Y-109243036D01*
X118988912Y-109211475D01*
X119004463Y-109182380D01*
X119025385Y-109156885D01*
X119050880Y-109135963D01*
X119079975Y-109120412D01*
X119111536Y-109110837D01*
X119150498Y-109107000D01*
X120225502Y-109107000D01*
X120264464Y-109110837D01*
G37*
G36*
X142217964Y-109110837D02*
G01*
X142249525Y-109120412D01*
X142278620Y-109135963D01*
X142304115Y-109156885D01*
X142325037Y-109182380D01*
X142340588Y-109211475D01*
X142350163Y-109243036D01*
X142354000Y-109281998D01*
X142354000Y-110682002D01*
X142350163Y-110720964D01*
X142340588Y-110752525D01*
X142325037Y-110781620D01*
X142304115Y-110807115D01*
X142278620Y-110828037D01*
X142249525Y-110843588D01*
X142217964Y-110853163D01*
X142179002Y-110857000D01*
X141103998Y-110857000D01*
X141065036Y-110853163D01*
X141033475Y-110843588D01*
X141004380Y-110828037D01*
X140978885Y-110807115D01*
X140957963Y-110781620D01*
X140942412Y-110752525D01*
X140932837Y-110720964D01*
X140929000Y-110682002D01*
X140929000Y-109281998D01*
X140932837Y-109243036D01*
X140942412Y-109211475D01*
X140957963Y-109182380D01*
X140978885Y-109156885D01*
X141004380Y-109135963D01*
X141033475Y-109120412D01*
X141065036Y-109110837D01*
X141103998Y-109107000D01*
X142179002Y-109107000D01*
X142217964Y-109110837D01*
G37*
G36*
X145192964Y-109110837D02*
G01*
X145224525Y-109120412D01*
X145253620Y-109135963D01*
X145279115Y-109156885D01*
X145300037Y-109182380D01*
X145315588Y-109211475D01*
X145325163Y-109243036D01*
X145329000Y-109281998D01*
X145329000Y-110682002D01*
X145325163Y-110720964D01*
X145315588Y-110752525D01*
X145300037Y-110781620D01*
X145279115Y-110807115D01*
X145253620Y-110828037D01*
X145224525Y-110843588D01*
X145192964Y-110853163D01*
X145154002Y-110857000D01*
X144078998Y-110857000D01*
X144040036Y-110853163D01*
X144008475Y-110843588D01*
X143979380Y-110828037D01*
X143953885Y-110807115D01*
X143932963Y-110781620D01*
X143917412Y-110752525D01*
X143907837Y-110720964D01*
X143904000Y-110682002D01*
X143904000Y-109281998D01*
X143907837Y-109243036D01*
X143917412Y-109211475D01*
X143932963Y-109182380D01*
X143953885Y-109156885D01*
X143979380Y-109135963D01*
X144008475Y-109120412D01*
X144040036Y-109110837D01*
X144078998Y-109107000D01*
X145154002Y-109107000D01*
X145192964Y-109110837D01*
G37*
G36*
X110297000Y-110758000D02*
G01*
X108397000Y-110758000D01*
X108397000Y-109958000D01*
X110297000Y-109958000D01*
X110297000Y-110758000D01*
G37*
G36*
X179316000Y-109958000D02*
G01*
X178316000Y-109958000D01*
X178316000Y-106958000D01*
X179316000Y-106958000D01*
X179316000Y-109958000D01*
G37*
G36*
X176776000Y-109958000D02*
G01*
X175776000Y-109958000D01*
X175776000Y-106958000D01*
X176776000Y-106958000D01*
X176776000Y-109958000D01*
G37*
G36*
X174236000Y-109958000D02*
G01*
X173236000Y-109958000D01*
X173236000Y-106958000D01*
X174236000Y-106958000D01*
X174236000Y-109958000D01*
G37*
G36*
X171696000Y-109958000D02*
G01*
X170696000Y-109958000D01*
X170696000Y-106958000D01*
X171696000Y-106958000D01*
X171696000Y-109958000D01*
G37*
G36*
X169156000Y-109958000D02*
G01*
X168156000Y-109958000D01*
X168156000Y-106958000D01*
X169156000Y-106958000D01*
X169156000Y-109958000D01*
G37*
G36*
X113297000Y-109808000D02*
G01*
X111397000Y-109808000D01*
X111397000Y-109008000D01*
X113297000Y-109008000D01*
X113297000Y-109808000D01*
G37*
G36*
X110297000Y-108858000D02*
G01*
X108397000Y-108858000D01*
X108397000Y-108058000D01*
X110297000Y-108058000D01*
X110297000Y-108858000D01*
G37*
G36*
X188175000Y-108292000D02*
G01*
X186475000Y-108292000D01*
X186475000Y-106592000D01*
X188175000Y-106592000D01*
X188175000Y-108292000D01*
G37*
G36*
X117289464Y-105046837D02*
G01*
X117321025Y-105056412D01*
X117350120Y-105071963D01*
X117375615Y-105092885D01*
X117396537Y-105118380D01*
X117412088Y-105147475D01*
X117421663Y-105179036D01*
X117425500Y-105217998D01*
X117425500Y-106618002D01*
X117421663Y-106656964D01*
X117412088Y-106688525D01*
X117396537Y-106717620D01*
X117375615Y-106743115D01*
X117350120Y-106764037D01*
X117321025Y-106779588D01*
X117289464Y-106789163D01*
X117250502Y-106793000D01*
X116175498Y-106793000D01*
X116136536Y-106789163D01*
X116104975Y-106779588D01*
X116075880Y-106764037D01*
X116050385Y-106743115D01*
X116029463Y-106717620D01*
X116013912Y-106688525D01*
X116004337Y-106656964D01*
X116000500Y-106618002D01*
X116000500Y-105217998D01*
X116004337Y-105179036D01*
X116013912Y-105147475D01*
X116029463Y-105118380D01*
X116050385Y-105092885D01*
X116075880Y-105071963D01*
X116104975Y-105056412D01*
X116136536Y-105046837D01*
X116175498Y-105043000D01*
X117250502Y-105043000D01*
X117289464Y-105046837D01*
G37*
G36*
X120264464Y-105046837D02*
G01*
X120296025Y-105056412D01*
X120325120Y-105071963D01*
X120350615Y-105092885D01*
X120371537Y-105118380D01*
X120387088Y-105147475D01*
X120396663Y-105179036D01*
X120400500Y-105217998D01*
X120400500Y-106618002D01*
X120396663Y-106656964D01*
X120387088Y-106688525D01*
X120371537Y-106717620D01*
X120350615Y-106743115D01*
X120325120Y-106764037D01*
X120296025Y-106779588D01*
X120264464Y-106789163D01*
X120225502Y-106793000D01*
X119150498Y-106793000D01*
X119111536Y-106789163D01*
X119079975Y-106779588D01*
X119050880Y-106764037D01*
X119025385Y-106743115D01*
X119004463Y-106717620D01*
X118988912Y-106688525D01*
X118979337Y-106656964D01*
X118975500Y-106618002D01*
X118975500Y-105217998D01*
X118979337Y-105179036D01*
X118988912Y-105147475D01*
X119004463Y-105118380D01*
X119025385Y-105092885D01*
X119050880Y-105071963D01*
X119079975Y-105056412D01*
X119111536Y-105046837D01*
X119150498Y-105043000D01*
X120225502Y-105043000D01*
X120264464Y-105046837D01*
G37*
G36*
X169394964Y-104374337D02*
G01*
X169426525Y-104383912D01*
X169455620Y-104399463D01*
X169481115Y-104420385D01*
X169502037Y-104445880D01*
X169517588Y-104474975D01*
X169527163Y-104506536D01*
X169531000Y-104545498D01*
X169531000Y-105620502D01*
X169527163Y-105659464D01*
X169517588Y-105691025D01*
X169502037Y-105720120D01*
X169481115Y-105745615D01*
X169455620Y-105766537D01*
X169426525Y-105782088D01*
X169394964Y-105791663D01*
X169356002Y-105795500D01*
X167955998Y-105795500D01*
X167917036Y-105791663D01*
X167885475Y-105782088D01*
X167856380Y-105766537D01*
X167830885Y-105745615D01*
X167809963Y-105720120D01*
X167794412Y-105691025D01*
X167784837Y-105659464D01*
X167781000Y-105620502D01*
X167781000Y-104545498D01*
X167784837Y-104506536D01*
X167794412Y-104474975D01*
X167809963Y-104445880D01*
X167830885Y-104420385D01*
X167856380Y-104399463D01*
X167885475Y-104383912D01*
X167917036Y-104374337D01*
X167955998Y-104370500D01*
X169356002Y-104370500D01*
X169394964Y-104374337D01*
G37*
G36*
X187572935Y-104084664D02*
G01*
X187727624Y-104148739D01*
X187727626Y-104148740D01*
X187866844Y-104241762D01*
X187985238Y-104360156D01*
X188078260Y-104499374D01*
X188078261Y-104499376D01*
X188142336Y-104654065D01*
X188175000Y-104818281D01*
X188175000Y-104985719D01*
X188142336Y-105149935D01*
X188083076Y-105293000D01*
X188078260Y-105304626D01*
X187985238Y-105443844D01*
X187866844Y-105562238D01*
X187727626Y-105655260D01*
X187727625Y-105655261D01*
X187727624Y-105655261D01*
X187572935Y-105719336D01*
X187408719Y-105752000D01*
X187241281Y-105752000D01*
X187077065Y-105719336D01*
X186922376Y-105655261D01*
X186922375Y-105655261D01*
X186922374Y-105655260D01*
X186783156Y-105562238D01*
X186664762Y-105443844D01*
X186571740Y-105304626D01*
X186566924Y-105293000D01*
X186507664Y-105149935D01*
X186475000Y-104985719D01*
X186475000Y-104818281D01*
X186507664Y-104654065D01*
X186571739Y-104499376D01*
X186571740Y-104499374D01*
X186664762Y-104360156D01*
X186783156Y-104241762D01*
X186922374Y-104148740D01*
X186922376Y-104148739D01*
X187077065Y-104084664D01*
X187241281Y-104052000D01*
X187408719Y-104052000D01*
X187572935Y-104084664D01*
G37*
G36*
X177861000Y-105678000D02*
G01*
X175961000Y-105678000D01*
X175961000Y-104878000D01*
X177861000Y-104878000D01*
X177861000Y-105678000D01*
G37*
G36*
X174861000Y-104728000D02*
G01*
X172961000Y-104728000D01*
X172961000Y-103928000D01*
X174861000Y-103928000D01*
X174861000Y-104728000D01*
G37*
G36*
X177861000Y-103778000D02*
G01*
X175961000Y-103778000D01*
X175961000Y-102978000D01*
X177861000Y-102978000D01*
X177861000Y-103778000D01*
G37*
G36*
X187572935Y-101544664D02*
G01*
X187727624Y-101608739D01*
X187727626Y-101608740D01*
X187866844Y-101701762D01*
X187985238Y-101820156D01*
X188078260Y-101959374D01*
X188078261Y-101959376D01*
X188142336Y-102114065D01*
X188175000Y-102278281D01*
X188175000Y-102445719D01*
X188142336Y-102609935D01*
X188086340Y-102745120D01*
X188078260Y-102764626D01*
X187985238Y-102903844D01*
X187866844Y-103022238D01*
X187727626Y-103115260D01*
X187727625Y-103115261D01*
X187727624Y-103115261D01*
X187572935Y-103179336D01*
X187408719Y-103212000D01*
X187241281Y-103212000D01*
X187077065Y-103179336D01*
X186922376Y-103115261D01*
X186922375Y-103115261D01*
X186922374Y-103115260D01*
X186783156Y-103022238D01*
X186664762Y-102903844D01*
X186571740Y-102764626D01*
X186563660Y-102745120D01*
X186507664Y-102609935D01*
X186475000Y-102445719D01*
X186475000Y-102278281D01*
X186507664Y-102114065D01*
X186571739Y-101959376D01*
X186571740Y-101959374D01*
X186664762Y-101820156D01*
X186783156Y-101701762D01*
X186922374Y-101608740D01*
X186922376Y-101608739D01*
X187077065Y-101544664D01*
X187241281Y-101512000D01*
X187408719Y-101512000D01*
X187572935Y-101544664D01*
G37*
G36*
X169394964Y-101399337D02*
G01*
X169426525Y-101408912D01*
X169455620Y-101424463D01*
X169481115Y-101445385D01*
X169502037Y-101470880D01*
X169517588Y-101499975D01*
X169527163Y-101531536D01*
X169531000Y-101570498D01*
X169531000Y-102645502D01*
X169527163Y-102684464D01*
X169517588Y-102716025D01*
X169502037Y-102745120D01*
X169481115Y-102770615D01*
X169455620Y-102791537D01*
X169426525Y-102807088D01*
X169394964Y-102816663D01*
X169356002Y-102820500D01*
X167955998Y-102820500D01*
X167917036Y-102816663D01*
X167885475Y-102807088D01*
X167856380Y-102791537D01*
X167830885Y-102770615D01*
X167809963Y-102745120D01*
X167794412Y-102716025D01*
X167784837Y-102684464D01*
X167781000Y-102645502D01*
X167781000Y-101570498D01*
X167784837Y-101531536D01*
X167794412Y-101499975D01*
X167809963Y-101470880D01*
X167830885Y-101445385D01*
X167856380Y-101424463D01*
X167885475Y-101408912D01*
X167917036Y-101399337D01*
X167955998Y-101395500D01*
X169356002Y-101395500D01*
X169394964Y-101399337D01*
G37*
G36*
X187572935Y-99004664D02*
G01*
X187727624Y-99068739D01*
X187727626Y-99068740D01*
X187866844Y-99161762D01*
X187985238Y-99280156D01*
X188078260Y-99419374D01*
X188078261Y-99419376D01*
X188142336Y-99574065D01*
X188175000Y-99738281D01*
X188175000Y-99905719D01*
X188142336Y-100069935D01*
X188078261Y-100224624D01*
X188078260Y-100224626D01*
X187985238Y-100363844D01*
X187866844Y-100482238D01*
X187727626Y-100575260D01*
X187727625Y-100575261D01*
X187727624Y-100575261D01*
X187572935Y-100639336D01*
X187408719Y-100672000D01*
X187241281Y-100672000D01*
X187077065Y-100639336D01*
X186922376Y-100575261D01*
X186922375Y-100575261D01*
X186922374Y-100575260D01*
X186783156Y-100482238D01*
X186664762Y-100363844D01*
X186571740Y-100224626D01*
X186571739Y-100224624D01*
X186507664Y-100069935D01*
X186475000Y-99905719D01*
X186475000Y-99738281D01*
X186507664Y-99574065D01*
X186571739Y-99419376D01*
X186571740Y-99419374D01*
X186664762Y-99280156D01*
X186783156Y-99161762D01*
X186922374Y-99068740D01*
X186922376Y-99068739D01*
X187077065Y-99004664D01*
X187241281Y-98972000D01*
X187408719Y-98972000D01*
X187572935Y-99004664D01*
G37*
G36*
X169156000Y-99544000D02*
G01*
X168156000Y-99544000D01*
X168156000Y-96544000D01*
X169156000Y-96544000D01*
X169156000Y-99544000D01*
G37*
G36*
X171696000Y-99544000D02*
G01*
X170696000Y-99544000D01*
X170696000Y-96544000D01*
X171696000Y-96544000D01*
X171696000Y-99544000D01*
G37*
G36*
X174236000Y-99544000D02*
G01*
X173236000Y-99544000D01*
X173236000Y-96544000D01*
X174236000Y-96544000D01*
X174236000Y-99544000D01*
G37*
G36*
X179316000Y-99544000D02*
G01*
X178316000Y-99544000D01*
X178316000Y-96544000D01*
X179316000Y-96544000D01*
X179316000Y-99544000D01*
G37*
G36*
X176776000Y-99544000D02*
G01*
X175776000Y-99544000D01*
X175776000Y-96544000D01*
X176776000Y-96544000D01*
X176776000Y-99544000D01*
G37*
G36*
X122696464Y-97299837D02*
G01*
X122728025Y-97309412D01*
X122757120Y-97324963D01*
X122782615Y-97345885D01*
X122803537Y-97371380D01*
X122819088Y-97400475D01*
X122828663Y-97432036D01*
X122832500Y-97470998D01*
X122832500Y-98871002D01*
X122828663Y-98909964D01*
X122819088Y-98941525D01*
X122803537Y-98970620D01*
X122782615Y-98996115D01*
X122757120Y-99017037D01*
X122728025Y-99032588D01*
X122696464Y-99042163D01*
X122657502Y-99046000D01*
X121582498Y-99046000D01*
X121543536Y-99042163D01*
X121511975Y-99032588D01*
X121482880Y-99017037D01*
X121457385Y-98996115D01*
X121436463Y-98970620D01*
X121420912Y-98941525D01*
X121411337Y-98909964D01*
X121407500Y-98871002D01*
X121407500Y-97470998D01*
X121411337Y-97432036D01*
X121420912Y-97400475D01*
X121436463Y-97371380D01*
X121457385Y-97345885D01*
X121482880Y-97324963D01*
X121511975Y-97309412D01*
X121543536Y-97299837D01*
X121582498Y-97296000D01*
X122657502Y-97296000D01*
X122696464Y-97299837D01*
G37*
G36*
X132656464Y-97299837D02*
G01*
X132688025Y-97309412D01*
X132717120Y-97324963D01*
X132742615Y-97345885D01*
X132763537Y-97371380D01*
X132779088Y-97400475D01*
X132788663Y-97432036D01*
X132792500Y-97470998D01*
X132792500Y-98871002D01*
X132788663Y-98909964D01*
X132779088Y-98941525D01*
X132763537Y-98970620D01*
X132742615Y-98996115D01*
X132717120Y-99017037D01*
X132688025Y-99032588D01*
X132656464Y-99042163D01*
X132617502Y-99046000D01*
X131542498Y-99046000D01*
X131503536Y-99042163D01*
X131471975Y-99032588D01*
X131442880Y-99017037D01*
X131417385Y-98996115D01*
X131396463Y-98970620D01*
X131380912Y-98941525D01*
X131371337Y-98909964D01*
X131367500Y-98871002D01*
X131367500Y-97470998D01*
X131371337Y-97432036D01*
X131380912Y-97400475D01*
X131396463Y-97371380D01*
X131417385Y-97345885D01*
X131442880Y-97324963D01*
X131471975Y-97309412D01*
X131503536Y-97299837D01*
X131542498Y-97296000D01*
X132617502Y-97296000D01*
X132656464Y-97299837D01*
G37*
G36*
X135631464Y-97299837D02*
G01*
X135663025Y-97309412D01*
X135692120Y-97324963D01*
X135717615Y-97345885D01*
X135738537Y-97371380D01*
X135754088Y-97400475D01*
X135763663Y-97432036D01*
X135767500Y-97470998D01*
X135767500Y-98871002D01*
X135763663Y-98909964D01*
X135754088Y-98941525D01*
X135738537Y-98970620D01*
X135717615Y-98996115D01*
X135692120Y-99017037D01*
X135663025Y-99032588D01*
X135631464Y-99042163D01*
X135592502Y-99046000D01*
X134517498Y-99046000D01*
X134478536Y-99042163D01*
X134446975Y-99032588D01*
X134417880Y-99017037D01*
X134392385Y-98996115D01*
X134371463Y-98970620D01*
X134355912Y-98941525D01*
X134346337Y-98909964D01*
X134342500Y-98871002D01*
X134342500Y-97470998D01*
X134346337Y-97432036D01*
X134355912Y-97400475D01*
X134371463Y-97371380D01*
X134392385Y-97345885D01*
X134417880Y-97324963D01*
X134446975Y-97309412D01*
X134478536Y-97299837D01*
X134517498Y-97296000D01*
X135592502Y-97296000D01*
X135631464Y-97299837D01*
G37*
G36*
X125671464Y-97299837D02*
G01*
X125703025Y-97309412D01*
X125732120Y-97324963D01*
X125757615Y-97345885D01*
X125778537Y-97371380D01*
X125794088Y-97400475D01*
X125803663Y-97432036D01*
X125807500Y-97470998D01*
X125807500Y-98871002D01*
X125803663Y-98909964D01*
X125794088Y-98941525D01*
X125778537Y-98970620D01*
X125757615Y-98996115D01*
X125732120Y-99017037D01*
X125703025Y-99032588D01*
X125671464Y-99042163D01*
X125632502Y-99046000D01*
X124557498Y-99046000D01*
X124518536Y-99042163D01*
X124486975Y-99032588D01*
X124457880Y-99017037D01*
X124432385Y-98996115D01*
X124411463Y-98970620D01*
X124395912Y-98941525D01*
X124386337Y-98909964D01*
X124382500Y-98871002D01*
X124382500Y-97470998D01*
X124386337Y-97432036D01*
X124395912Y-97400475D01*
X124411463Y-97371380D01*
X124432385Y-97345885D01*
X124457880Y-97324963D01*
X124486975Y-97309412D01*
X124518536Y-97299837D01*
X124557498Y-97296000D01*
X125632502Y-97296000D01*
X125671464Y-97299837D01*
G37*
G36*
X187572935Y-96464664D02*
G01*
X187727624Y-96528739D01*
X187727626Y-96528740D01*
X187866844Y-96621762D01*
X187985238Y-96740156D01*
X188078260Y-96879374D01*
X188078261Y-96879376D01*
X188142336Y-97034065D01*
X188175000Y-97198281D01*
X188175000Y-97365719D01*
X188142336Y-97529935D01*
X188078261Y-97684624D01*
X188078260Y-97684626D01*
X187985238Y-97823844D01*
X187866844Y-97942238D01*
X187727626Y-98035260D01*
X187727625Y-98035261D01*
X187727624Y-98035261D01*
X187572935Y-98099336D01*
X187408719Y-98132000D01*
X187241281Y-98132000D01*
X187077065Y-98099336D01*
X186922376Y-98035261D01*
X186922375Y-98035261D01*
X186922374Y-98035260D01*
X186783156Y-97942238D01*
X186664762Y-97823844D01*
X186571740Y-97684626D01*
X186571739Y-97684624D01*
X186507664Y-97529935D01*
X186475000Y-97365719D01*
X186475000Y-97198281D01*
X186507664Y-97034065D01*
X186571739Y-96879376D01*
X186571740Y-96879374D01*
X186664762Y-96740156D01*
X186783156Y-96621762D01*
X186922374Y-96528740D01*
X186922376Y-96528739D01*
X187077065Y-96464664D01*
X187241281Y-96432000D01*
X187408719Y-96432000D01*
X187572935Y-96464664D01*
G37*
G36*
X142473351Y-92956743D02*
G01*
X142618941Y-93017048D01*
X142749970Y-93104599D01*
X142861401Y-93216030D01*
X142948952Y-93347059D01*
X143009257Y-93492649D01*
X143040000Y-93647206D01*
X143040000Y-93804794D01*
X143009257Y-93959351D01*
X142948952Y-94104941D01*
X142861401Y-94235970D01*
X142749970Y-94347401D01*
X142618941Y-94434952D01*
X142473351Y-94495257D01*
X142318794Y-94526000D01*
X142161206Y-94526000D01*
X142006649Y-94495257D01*
X141861059Y-94434952D01*
X141730030Y-94347401D01*
X141618599Y-94235970D01*
X141531048Y-94104941D01*
X141470743Y-93959351D01*
X141440000Y-93804794D01*
X141440000Y-93647206D01*
X141470743Y-93492649D01*
X141531048Y-93347059D01*
X141618599Y-93216030D01*
X141730030Y-93104599D01*
X141861059Y-93017048D01*
X142006649Y-92956743D01*
X142161206Y-92926000D01*
X142318794Y-92926000D01*
X142473351Y-92956743D01*
G37*
G36*
X145013351Y-92956743D02*
G01*
X145158941Y-93017048D01*
X145289970Y-93104599D01*
X145401401Y-93216030D01*
X145488952Y-93347059D01*
X145549257Y-93492649D01*
X145580000Y-93647206D01*
X145580000Y-93804794D01*
X145549257Y-93959351D01*
X145488952Y-94104941D01*
X145401401Y-94235970D01*
X145289970Y-94347401D01*
X145158941Y-94434952D01*
X145013351Y-94495257D01*
X144858794Y-94526000D01*
X144701206Y-94526000D01*
X144546649Y-94495257D01*
X144401059Y-94434952D01*
X144270030Y-94347401D01*
X144158599Y-94235970D01*
X144071048Y-94104941D01*
X144010743Y-93959351D01*
X143980000Y-93804794D01*
X143980000Y-93647206D01*
X144010743Y-93492649D01*
X144071048Y-93347059D01*
X144158599Y-93216030D01*
X144270030Y-93104599D01*
X144401059Y-93017048D01*
X144546649Y-92956743D01*
X144701206Y-92926000D01*
X144858794Y-92926000D01*
X145013351Y-92956743D01*
G37*
G36*
X139933351Y-92956743D02*
G01*
X140078941Y-93017048D01*
X140209970Y-93104599D01*
X140321401Y-93216030D01*
X140408952Y-93347059D01*
X140469257Y-93492649D01*
X140500000Y-93647206D01*
X140500000Y-93804794D01*
X140469257Y-93959351D01*
X140408952Y-94104941D01*
X140321401Y-94235970D01*
X140209970Y-94347401D01*
X140078941Y-94434952D01*
X139933351Y-94495257D01*
X139778794Y-94526000D01*
X139621206Y-94526000D01*
X139466649Y-94495257D01*
X139321059Y-94434952D01*
X139190030Y-94347401D01*
X139078599Y-94235970D01*
X138991048Y-94104941D01*
X138930743Y-93959351D01*
X138900000Y-93804794D01*
X138900000Y-93647206D01*
X138930743Y-93492649D01*
X138991048Y-93347059D01*
X139078599Y-93216030D01*
X139190030Y-93104599D01*
X139321059Y-93017048D01*
X139466649Y-92956743D01*
X139621206Y-92926000D01*
X139778794Y-92926000D01*
X139933351Y-92956743D01*
G37*
G36*
X117073351Y-92956743D02*
G01*
X117218941Y-93017048D01*
X117349970Y-93104599D01*
X117461401Y-93216030D01*
X117548952Y-93347059D01*
X117609257Y-93492649D01*
X117640000Y-93647206D01*
X117640000Y-93804794D01*
X117609257Y-93959351D01*
X117548952Y-94104941D01*
X117461401Y-94235970D01*
X117349970Y-94347401D01*
X117218941Y-94434952D01*
X117073351Y-94495257D01*
X116918794Y-94526000D01*
X116761206Y-94526000D01*
X116606649Y-94495257D01*
X116461059Y-94434952D01*
X116330030Y-94347401D01*
X116218599Y-94235970D01*
X116131048Y-94104941D01*
X116070743Y-93959351D01*
X116040000Y-93804794D01*
X116040000Y-93647206D01*
X116070743Y-93492649D01*
X116131048Y-93347059D01*
X116218599Y-93216030D01*
X116330030Y-93104599D01*
X116461059Y-93017048D01*
X116606649Y-92956743D01*
X116761206Y-92926000D01*
X116918794Y-92926000D01*
X117073351Y-92956743D01*
G37*
G36*
X119613351Y-92956743D02*
G01*
X119758941Y-93017048D01*
X119889970Y-93104599D01*
X120001401Y-93216030D01*
X120088952Y-93347059D01*
X120149257Y-93492649D01*
X120180000Y-93647206D01*
X120180000Y-93804794D01*
X120149257Y-93959351D01*
X120088952Y-94104941D01*
X120001401Y-94235970D01*
X119889970Y-94347401D01*
X119758941Y-94434952D01*
X119613351Y-94495257D01*
X119458794Y-94526000D01*
X119301206Y-94526000D01*
X119146649Y-94495257D01*
X119001059Y-94434952D01*
X118870030Y-94347401D01*
X118758599Y-94235970D01*
X118671048Y-94104941D01*
X118610743Y-93959351D01*
X118580000Y-93804794D01*
X118580000Y-93647206D01*
X118610743Y-93492649D01*
X118671048Y-93347059D01*
X118758599Y-93216030D01*
X118870030Y-93104599D01*
X119001059Y-93017048D01*
X119146649Y-92956743D01*
X119301206Y-92926000D01*
X119458794Y-92926000D01*
X119613351Y-92956743D01*
G37*
G36*
X122153351Y-92956743D02*
G01*
X122298941Y-93017048D01*
X122429970Y-93104599D01*
X122541401Y-93216030D01*
X122628952Y-93347059D01*
X122689257Y-93492649D01*
X122720000Y-93647206D01*
X122720000Y-93804794D01*
X122689257Y-93959351D01*
X122628952Y-94104941D01*
X122541401Y-94235970D01*
X122429970Y-94347401D01*
X122298941Y-94434952D01*
X122153351Y-94495257D01*
X121998794Y-94526000D01*
X121841206Y-94526000D01*
X121686649Y-94495257D01*
X121541059Y-94434952D01*
X121410030Y-94347401D01*
X121298599Y-94235970D01*
X121211048Y-94104941D01*
X121150743Y-93959351D01*
X121120000Y-93804794D01*
X121120000Y-93647206D01*
X121150743Y-93492649D01*
X121211048Y-93347059D01*
X121298599Y-93216030D01*
X121410030Y-93104599D01*
X121541059Y-93017048D01*
X121686649Y-92956743D01*
X121841206Y-92926000D01*
X121998794Y-92926000D01*
X122153351Y-92956743D01*
G37*
G36*
X124693351Y-92956743D02*
G01*
X124838941Y-93017048D01*
X124969970Y-93104599D01*
X125081401Y-93216030D01*
X125168952Y-93347059D01*
X125229257Y-93492649D01*
X125260000Y-93647206D01*
X125260000Y-93804794D01*
X125229257Y-93959351D01*
X125168952Y-94104941D01*
X125081401Y-94235970D01*
X124969970Y-94347401D01*
X124838941Y-94434952D01*
X124693351Y-94495257D01*
X124538794Y-94526000D01*
X124381206Y-94526000D01*
X124226649Y-94495257D01*
X124081059Y-94434952D01*
X123950030Y-94347401D01*
X123838599Y-94235970D01*
X123751048Y-94104941D01*
X123690743Y-93959351D01*
X123660000Y-93804794D01*
X123660000Y-93647206D01*
X123690743Y-93492649D01*
X123751048Y-93347059D01*
X123838599Y-93216030D01*
X123950030Y-93104599D01*
X124081059Y-93017048D01*
X124226649Y-92956743D01*
X124381206Y-92926000D01*
X124538794Y-92926000D01*
X124693351Y-92956743D01*
G37*
G36*
X127233351Y-92956743D02*
G01*
X127378941Y-93017048D01*
X127509970Y-93104599D01*
X127621401Y-93216030D01*
X127708952Y-93347059D01*
X127769257Y-93492649D01*
X127800000Y-93647206D01*
X127800000Y-93804794D01*
X127769257Y-93959351D01*
X127708952Y-94104941D01*
X127621401Y-94235970D01*
X127509970Y-94347401D01*
X127378941Y-94434952D01*
X127233351Y-94495257D01*
X127078794Y-94526000D01*
X126921206Y-94526000D01*
X126766649Y-94495257D01*
X126621059Y-94434952D01*
X126490030Y-94347401D01*
X126378599Y-94235970D01*
X126291048Y-94104941D01*
X126230743Y-93959351D01*
X126200000Y-93804794D01*
X126200000Y-93647206D01*
X126230743Y-93492649D01*
X126291048Y-93347059D01*
X126378599Y-93216030D01*
X126490030Y-93104599D01*
X126621059Y-93017048D01*
X126766649Y-92956743D01*
X126921206Y-92926000D01*
X127078794Y-92926000D01*
X127233351Y-92956743D01*
G37*
G36*
X129773351Y-92956743D02*
G01*
X129918941Y-93017048D01*
X130049970Y-93104599D01*
X130161401Y-93216030D01*
X130248952Y-93347059D01*
X130309257Y-93492649D01*
X130340000Y-93647206D01*
X130340000Y-93804794D01*
X130309257Y-93959351D01*
X130248952Y-94104941D01*
X130161401Y-94235970D01*
X130049970Y-94347401D01*
X129918941Y-94434952D01*
X129773351Y-94495257D01*
X129618794Y-94526000D01*
X129461206Y-94526000D01*
X129306649Y-94495257D01*
X129161059Y-94434952D01*
X129030030Y-94347401D01*
X128918599Y-94235970D01*
X128831048Y-94104941D01*
X128770743Y-93959351D01*
X128740000Y-93804794D01*
X128740000Y-93647206D01*
X128770743Y-93492649D01*
X128831048Y-93347059D01*
X128918599Y-93216030D01*
X129030030Y-93104599D01*
X129161059Y-93017048D01*
X129306649Y-92956743D01*
X129461206Y-92926000D01*
X129618794Y-92926000D01*
X129773351Y-92956743D01*
G37*
G36*
X132313351Y-92956743D02*
G01*
X132458941Y-93017048D01*
X132589970Y-93104599D01*
X132701401Y-93216030D01*
X132788952Y-93347059D01*
X132849257Y-93492649D01*
X132880000Y-93647206D01*
X132880000Y-93804794D01*
X132849257Y-93959351D01*
X132788952Y-94104941D01*
X132701401Y-94235970D01*
X132589970Y-94347401D01*
X132458941Y-94434952D01*
X132313351Y-94495257D01*
X132158794Y-94526000D01*
X132001206Y-94526000D01*
X131846649Y-94495257D01*
X131701059Y-94434952D01*
X131570030Y-94347401D01*
X131458599Y-94235970D01*
X131371048Y-94104941D01*
X131310743Y-93959351D01*
X131280000Y-93804794D01*
X131280000Y-93647206D01*
X131310743Y-93492649D01*
X131371048Y-93347059D01*
X131458599Y-93216030D01*
X131570030Y-93104599D01*
X131701059Y-93017048D01*
X131846649Y-92956743D01*
X132001206Y-92926000D01*
X132158794Y-92926000D01*
X132313351Y-92956743D01*
G37*
G36*
X134853351Y-92956743D02*
G01*
X134998941Y-93017048D01*
X135129970Y-93104599D01*
X135241401Y-93216030D01*
X135328952Y-93347059D01*
X135389257Y-93492649D01*
X135420000Y-93647206D01*
X135420000Y-93804794D01*
X135389257Y-93959351D01*
X135328952Y-94104941D01*
X135241401Y-94235970D01*
X135129970Y-94347401D01*
X134998941Y-94434952D01*
X134853351Y-94495257D01*
X134698794Y-94526000D01*
X134541206Y-94526000D01*
X134386649Y-94495257D01*
X134241059Y-94434952D01*
X134110030Y-94347401D01*
X133998599Y-94235970D01*
X133911048Y-94104941D01*
X133850743Y-93959351D01*
X133820000Y-93804794D01*
X133820000Y-93647206D01*
X133850743Y-93492649D01*
X133911048Y-93347059D01*
X133998599Y-93216030D01*
X134110030Y-93104599D01*
X134241059Y-93017048D01*
X134386649Y-92956743D01*
X134541206Y-92926000D01*
X134698794Y-92926000D01*
X134853351Y-92956743D01*
G37*
G36*
X137393351Y-92956743D02*
G01*
X137538941Y-93017048D01*
X137669970Y-93104599D01*
X137781401Y-93216030D01*
X137868952Y-93347059D01*
X137929257Y-93492649D01*
X137960000Y-93647206D01*
X137960000Y-93804794D01*
X137929257Y-93959351D01*
X137868952Y-94104941D01*
X137781401Y-94235970D01*
X137669970Y-94347401D01*
X137538941Y-94434952D01*
X137393351Y-94495257D01*
X137238794Y-94526000D01*
X137081206Y-94526000D01*
X136926649Y-94495257D01*
X136781059Y-94434952D01*
X136650030Y-94347401D01*
X136538599Y-94235970D01*
X136451048Y-94104941D01*
X136390743Y-93959351D01*
X136360000Y-93804794D01*
X136360000Y-93647206D01*
X136390743Y-93492649D01*
X136451048Y-93347059D01*
X136538599Y-93216030D01*
X136650030Y-93104599D01*
X136781059Y-93017048D01*
X136926649Y-92956743D01*
X137081206Y-92926000D01*
X137238794Y-92926000D01*
X137393351Y-92956743D01*
G37*
G36*
X188571964Y-92001337D02*
G01*
X188603525Y-92010912D01*
X188632620Y-92026463D01*
X188658115Y-92047385D01*
X188679037Y-92072880D01*
X188694588Y-92101975D01*
X188704163Y-92133536D01*
X188708000Y-92172498D01*
X188708000Y-93247502D01*
X188704163Y-93286464D01*
X188694588Y-93318025D01*
X188679037Y-93347120D01*
X188658115Y-93372615D01*
X188632620Y-93393537D01*
X188603525Y-93409088D01*
X188571964Y-93418663D01*
X188533002Y-93422500D01*
X187132998Y-93422500D01*
X187094036Y-93418663D01*
X187062475Y-93409088D01*
X187033380Y-93393537D01*
X187007885Y-93372615D01*
X186986963Y-93347120D01*
X186971412Y-93318025D01*
X186961837Y-93286464D01*
X186958000Y-93247502D01*
X186958000Y-92172498D01*
X186961837Y-92133536D01*
X186971412Y-92101975D01*
X186986963Y-92072880D01*
X187007885Y-92047385D01*
X187033380Y-92026463D01*
X187062475Y-92010912D01*
X187094036Y-92001337D01*
X187132998Y-91997500D01*
X188533002Y-91997500D01*
X188571964Y-92001337D01*
G37*
G36*
X188571964Y-89026337D02*
G01*
X188603525Y-89035912D01*
X188632620Y-89051463D01*
X188658115Y-89072385D01*
X188679037Y-89097880D01*
X188694588Y-89126975D01*
X188704163Y-89158536D01*
X188708000Y-89197498D01*
X188708000Y-90272502D01*
X188704163Y-90311464D01*
X188694588Y-90343025D01*
X188679037Y-90372120D01*
X188658115Y-90397615D01*
X188632620Y-90418537D01*
X188603525Y-90434088D01*
X188571964Y-90443663D01*
X188533002Y-90447500D01*
X187132998Y-90447500D01*
X187094036Y-90443663D01*
X187062475Y-90434088D01*
X187033380Y-90418537D01*
X187007885Y-90397615D01*
X186986963Y-90372120D01*
X186971412Y-90343025D01*
X186961837Y-90311464D01*
X186958000Y-90272502D01*
X186958000Y-89197498D01*
X186961837Y-89158536D01*
X186971412Y-89126975D01*
X186986963Y-89097880D01*
X187007885Y-89072385D01*
X187033380Y-89051463D01*
X187062475Y-89035912D01*
X187094036Y-89026337D01*
X187132998Y-89022500D01*
X188533002Y-89022500D01*
X188571964Y-89026337D01*
G37*
G36*
X176776000Y-89984000D02*
G01*
X175776000Y-89984000D01*
X175776000Y-86984000D01*
X176776000Y-86984000D01*
X176776000Y-89984000D01*
G37*
G36*
X179316000Y-89984000D02*
G01*
X178316000Y-89984000D01*
X178316000Y-86984000D01*
X179316000Y-86984000D01*
X179316000Y-89984000D01*
G37*
G36*
X174236000Y-89984000D02*
G01*
X173236000Y-89984000D01*
X173236000Y-86984000D01*
X174236000Y-86984000D01*
X174236000Y-89984000D01*
G37*
G36*
X171696000Y-89984000D02*
G01*
X170696000Y-89984000D01*
X170696000Y-86984000D01*
X171696000Y-86984000D01*
X171696000Y-89984000D01*
G37*
G36*
X169156000Y-89984000D02*
G01*
X168156000Y-89984000D01*
X168156000Y-86984000D01*
X169156000Y-86984000D01*
X169156000Y-89984000D01*
G37*
M02*
