G04 #@! TF.GenerationSoftware,KiCad,Pcbnew,(5.1.6)-1*
G04 #@! TF.CreationDate,2021-03-23T17:10:19-04:00*
G04 #@! TF.ProjectId,IO Board,494f2042-6f61-4726-942e-6b696361645f,1.0*
G04 #@! TF.SameCoordinates,Original*
G04 #@! TF.FileFunction,Soldermask,Bot*
G04 #@! TF.FilePolarity,Negative*
%FSLAX46Y46*%
G04 Gerber Fmt 4.6, Leading zero omitted, Abs format (unit mm)*
G04 Created by KiCad (PCBNEW (5.1.6)-1) date 2021-03-23 17:10:19*
%MOMM*%
%LPD*%
G01*
G04 APERTURE LIST*
%ADD10C,0.100000*%
%ADD11C,0.150000*%
%ADD12C,0.300000*%
%ADD13C,0.400000*%
G04 APERTURE END LIST*
D10*
D11*
X159400000Y-171900000D02*
X159400000Y-203900000D01*
X267400000Y-203900000D01*
X267400000Y-171900000D01*
X159400000Y-171900000D01*
D10*
D11*
X10000000Y-10000000D02*
X10000000Y-205900000D01*
X269400000Y-205900000D01*
X269400000Y-10000000D01*
X10000000Y-10000000D01*
D10*
D11*
X12000000Y-12000000D02*
X12000000Y-203900000D01*
X267400000Y-203900000D01*
X267400000Y-12000000D01*
X12000000Y-12000000D01*
D10*
D11*
X60000000Y-12000000D02*
X60000000Y-10000000D01*
D10*
D11*
X110000000Y-12000000D02*
X110000000Y-10000000D01*
D10*
D11*
X160000000Y-12000000D02*
X160000000Y-10000000D01*
D10*
D11*
X210000000Y-12000000D02*
X210000000Y-10000000D01*
D10*
D11*
X260000000Y-12000000D02*
X260000000Y-10000000D01*
D10*
D11*
X36065476Y-11588095D02*
X35322619Y-11588095D01*
X35694047Y-11588095D02*
X35694047Y-10288095D01*
X35570238Y-10473809D01*
X35446428Y-10597619D01*
X35322619Y-10659523D01*
D10*
D11*
X85322619Y-10411904D02*
X85384523Y-10350000D01*
X85508333Y-10288095D01*
X85817857Y-10288095D01*
X85941666Y-10350000D01*
X86003571Y-10411904D01*
X86065476Y-10535714D01*
X86065476Y-10659523D01*
X86003571Y-10845238D01*
X85260714Y-11588095D01*
X86065476Y-11588095D01*
D10*
D11*
X135260714Y-10288095D02*
X136065476Y-10288095D01*
X135632142Y-10783333D01*
X135817857Y-10783333D01*
X135941666Y-10845238D01*
X136003571Y-10907142D01*
X136065476Y-11030952D01*
X136065476Y-11340476D01*
X136003571Y-11464285D01*
X135941666Y-11526190D01*
X135817857Y-11588095D01*
X135446428Y-11588095D01*
X135322619Y-11526190D01*
X135260714Y-11464285D01*
D10*
D11*
X185941666Y-10721428D02*
X185941666Y-11588095D01*
X185632142Y-10226190D02*
X185322619Y-11154761D01*
X186127380Y-11154761D01*
D10*
D11*
X236003571Y-10288095D02*
X235384523Y-10288095D01*
X235322619Y-10907142D01*
X235384523Y-10845238D01*
X235508333Y-10783333D01*
X235817857Y-10783333D01*
X235941666Y-10845238D01*
X236003571Y-10907142D01*
X236065476Y-11030952D01*
X236065476Y-11340476D01*
X236003571Y-11464285D01*
X235941666Y-11526190D01*
X235817857Y-11588095D01*
X235508333Y-11588095D01*
X235384523Y-11526190D01*
X235322619Y-11464285D01*
D10*
D11*
X60000000Y-203900000D02*
X60000000Y-205900000D01*
D10*
D11*
X110000000Y-203900000D02*
X110000000Y-205900000D01*
D10*
D11*
X160000000Y-203900000D02*
X160000000Y-205900000D01*
D10*
D11*
X210000000Y-203900000D02*
X210000000Y-205900000D01*
D10*
D11*
X260000000Y-203900000D02*
X260000000Y-205900000D01*
D10*
D11*
X36065476Y-205488095D02*
X35322619Y-205488095D01*
X35694047Y-205488095D02*
X35694047Y-204188095D01*
X35570238Y-204373809D01*
X35446428Y-204497619D01*
X35322619Y-204559523D01*
D10*
D11*
X85322619Y-204311904D02*
X85384523Y-204250000D01*
X85508333Y-204188095D01*
X85817857Y-204188095D01*
X85941666Y-204250000D01*
X86003571Y-204311904D01*
X86065476Y-204435714D01*
X86065476Y-204559523D01*
X86003571Y-204745238D01*
X85260714Y-205488095D01*
X86065476Y-205488095D01*
D10*
D11*
X135260714Y-204188095D02*
X136065476Y-204188095D01*
X135632142Y-204683333D01*
X135817857Y-204683333D01*
X135941666Y-204745238D01*
X136003571Y-204807142D01*
X136065476Y-204930952D01*
X136065476Y-205240476D01*
X136003571Y-205364285D01*
X135941666Y-205426190D01*
X135817857Y-205488095D01*
X135446428Y-205488095D01*
X135322619Y-205426190D01*
X135260714Y-205364285D01*
D10*
D11*
X185941666Y-204621428D02*
X185941666Y-205488095D01*
X185632142Y-204126190D02*
X185322619Y-205054761D01*
X186127380Y-205054761D01*
D10*
D11*
X236003571Y-204188095D02*
X235384523Y-204188095D01*
X235322619Y-204807142D01*
X235384523Y-204745238D01*
X235508333Y-204683333D01*
X235817857Y-204683333D01*
X235941666Y-204745238D01*
X236003571Y-204807142D01*
X236065476Y-204930952D01*
X236065476Y-205240476D01*
X236003571Y-205364285D01*
X235941666Y-205426190D01*
X235817857Y-205488095D01*
X235508333Y-205488095D01*
X235384523Y-205426190D01*
X235322619Y-205364285D01*
D10*
D11*
X10000000Y-60000000D02*
X12000000Y-60000000D01*
D10*
D11*
X10000000Y-110000000D02*
X12000000Y-110000000D01*
D10*
D11*
X10000000Y-160000000D02*
X12000000Y-160000000D01*
D10*
D11*
X10690476Y-35216666D02*
X11309523Y-35216666D01*
X10566666Y-35588095D02*
X11000000Y-34288095D01*
X11433333Y-35588095D01*
D10*
D11*
X11092857Y-84907142D02*
X11278571Y-84969047D01*
X11340476Y-85030952D01*
X11402380Y-85154761D01*
X11402380Y-85340476D01*
X11340476Y-85464285D01*
X11278571Y-85526190D01*
X11154761Y-85588095D01*
X10659523Y-85588095D01*
X10659523Y-84288095D01*
X11092857Y-84288095D01*
X11216666Y-84350000D01*
X11278571Y-84411904D01*
X11340476Y-84535714D01*
X11340476Y-84659523D01*
X11278571Y-84783333D01*
X11216666Y-84845238D01*
X11092857Y-84907142D01*
X10659523Y-84907142D01*
D10*
D11*
X11402380Y-135464285D02*
X11340476Y-135526190D01*
X11154761Y-135588095D01*
X11030952Y-135588095D01*
X10845238Y-135526190D01*
X10721428Y-135402380D01*
X10659523Y-135278571D01*
X10597619Y-135030952D01*
X10597619Y-134845238D01*
X10659523Y-134597619D01*
X10721428Y-134473809D01*
X10845238Y-134350000D01*
X11030952Y-134288095D01*
X11154761Y-134288095D01*
X11340476Y-134350000D01*
X11402380Y-134411904D01*
D10*
D11*
X10659523Y-185588095D02*
X10659523Y-184288095D01*
X10969047Y-184288095D01*
X11154761Y-184350000D01*
X11278571Y-184473809D01*
X11340476Y-184597619D01*
X11402380Y-184845238D01*
X11402380Y-185030952D01*
X11340476Y-185278571D01*
X11278571Y-185402380D01*
X11154761Y-185526190D01*
X10969047Y-185588095D01*
X10659523Y-185588095D01*
D10*
D11*
X269400000Y-60000000D02*
X267400000Y-60000000D01*
D10*
D11*
X269400000Y-110000000D02*
X267400000Y-110000000D01*
D10*
D11*
X269400000Y-160000000D02*
X267400000Y-160000000D01*
D10*
D11*
X268090476Y-35216666D02*
X268709523Y-35216666D01*
X267966666Y-35588095D02*
X268400000Y-34288095D01*
X268833333Y-35588095D01*
D10*
D11*
X268492857Y-84907142D02*
X268678571Y-84969047D01*
X268740476Y-85030952D01*
X268802380Y-85154761D01*
X268802380Y-85340476D01*
X268740476Y-85464285D01*
X268678571Y-85526190D01*
X268554761Y-85588095D01*
X268059523Y-85588095D01*
X268059523Y-84288095D01*
X268492857Y-84288095D01*
X268616666Y-84350000D01*
X268678571Y-84411904D01*
X268740476Y-84535714D01*
X268740476Y-84659523D01*
X268678571Y-84783333D01*
X268616666Y-84845238D01*
X268492857Y-84907142D01*
X268059523Y-84907142D01*
D10*
D11*
X268802380Y-135464285D02*
X268740476Y-135526190D01*
X268554761Y-135588095D01*
X268430952Y-135588095D01*
X268245238Y-135526190D01*
X268121428Y-135402380D01*
X268059523Y-135278571D01*
X267997619Y-135030952D01*
X267997619Y-134845238D01*
X268059523Y-134597619D01*
X268121428Y-134473809D01*
X268245238Y-134350000D01*
X268430952Y-134288095D01*
X268554761Y-134288095D01*
X268740476Y-134350000D01*
X268802380Y-134411904D01*
D10*
D11*
X268059523Y-185588095D02*
X268059523Y-184288095D01*
X268369047Y-184288095D01*
X268554761Y-184350000D01*
X268678571Y-184473809D01*
X268740476Y-184597619D01*
X268802380Y-184845238D01*
X268802380Y-185030952D01*
X268740476Y-185278571D01*
X268678571Y-185402380D01*
X268554761Y-185526190D01*
X268369047Y-185588095D01*
X268059523Y-185588095D01*
D10*
D11*
X182832142Y-199678571D02*
X182832142Y-198178571D01*
X183189285Y-198178571D01*
X183403571Y-198250000D01*
X183546428Y-198392857D01*
X183617857Y-198535714D01*
X183689285Y-198821428D01*
X183689285Y-199035714D01*
X183617857Y-199321428D01*
X183546428Y-199464285D01*
X183403571Y-199607142D01*
X183189285Y-199678571D01*
X182832142Y-199678571D01*
X184975000Y-199678571D02*
X184975000Y-198892857D01*
X184903571Y-198750000D01*
X184760714Y-198678571D01*
X184475000Y-198678571D01*
X184332142Y-198750000D01*
X184975000Y-199607142D02*
X184832142Y-199678571D01*
X184475000Y-199678571D01*
X184332142Y-199607142D01*
X184260714Y-199464285D01*
X184260714Y-199321428D01*
X184332142Y-199178571D01*
X184475000Y-199107142D01*
X184832142Y-199107142D01*
X184975000Y-199035714D01*
X185475000Y-198678571D02*
X186046428Y-198678571D01*
X185689285Y-198178571D02*
X185689285Y-199464285D01*
X185760714Y-199607142D01*
X185903571Y-199678571D01*
X186046428Y-199678571D01*
X187117857Y-199607142D02*
X186975000Y-199678571D01*
X186689285Y-199678571D01*
X186546428Y-199607142D01*
X186475000Y-199464285D01*
X186475000Y-198892857D01*
X186546428Y-198750000D01*
X186689285Y-198678571D01*
X186975000Y-198678571D01*
X187117857Y-198750000D01*
X187189285Y-198892857D01*
X187189285Y-199035714D01*
X186475000Y-199178571D01*
X187832142Y-199535714D02*
X187903571Y-199607142D01*
X187832142Y-199678571D01*
X187760714Y-199607142D01*
X187832142Y-199535714D01*
X187832142Y-199678571D01*
X187832142Y-198750000D02*
X187903571Y-198821428D01*
X187832142Y-198892857D01*
X187760714Y-198821428D01*
X187832142Y-198750000D01*
X187832142Y-198892857D01*
X189617857Y-198321428D02*
X189689285Y-198250000D01*
X189832142Y-198178571D01*
X190189285Y-198178571D01*
X190332142Y-198250000D01*
X190403571Y-198321428D01*
X190475000Y-198464285D01*
X190475000Y-198607142D01*
X190403571Y-198821428D01*
X189546428Y-199678571D01*
X190475000Y-199678571D01*
X191403571Y-198178571D02*
X191546428Y-198178571D01*
X191689285Y-198250000D01*
X191760714Y-198321428D01*
X191832142Y-198464285D01*
X191903571Y-198750000D01*
X191903571Y-199107142D01*
X191832142Y-199392857D01*
X191760714Y-199535714D01*
X191689285Y-199607142D01*
X191546428Y-199678571D01*
X191403571Y-199678571D01*
X191260714Y-199607142D01*
X191189285Y-199535714D01*
X191117857Y-199392857D01*
X191046428Y-199107142D01*
X191046428Y-198750000D01*
X191117857Y-198464285D01*
X191189285Y-198321428D01*
X191260714Y-198250000D01*
X191403571Y-198178571D01*
X192475000Y-198321428D02*
X192546428Y-198250000D01*
X192689285Y-198178571D01*
X193046428Y-198178571D01*
X193189285Y-198250000D01*
X193260714Y-198321428D01*
X193332142Y-198464285D01*
X193332142Y-198607142D01*
X193260714Y-198821428D01*
X192403571Y-199678571D01*
X193332142Y-199678571D01*
X194760714Y-199678571D02*
X193903571Y-199678571D01*
X194332142Y-199678571D02*
X194332142Y-198178571D01*
X194189285Y-198392857D01*
X194046428Y-198535714D01*
X193903571Y-198607142D01*
X195403571Y-199107142D02*
X196546428Y-199107142D01*
X197546428Y-198178571D02*
X197689285Y-198178571D01*
X197832142Y-198250000D01*
X197903571Y-198321428D01*
X197975000Y-198464285D01*
X198046428Y-198750000D01*
X198046428Y-199107142D01*
X197975000Y-199392857D01*
X197903571Y-199535714D01*
X197832142Y-199607142D01*
X197689285Y-199678571D01*
X197546428Y-199678571D01*
X197403571Y-199607142D01*
X197332142Y-199535714D01*
X197260714Y-199392857D01*
X197189285Y-199107142D01*
X197189285Y-198750000D01*
X197260714Y-198464285D01*
X197332142Y-198321428D01*
X197403571Y-198250000D01*
X197546428Y-198178571D01*
X198546428Y-198178571D02*
X199475000Y-198178571D01*
X198975000Y-198750000D01*
X199189285Y-198750000D01*
X199332142Y-198821428D01*
X199403571Y-198892857D01*
X199475000Y-199035714D01*
X199475000Y-199392857D01*
X199403571Y-199535714D01*
X199332142Y-199607142D01*
X199189285Y-199678571D01*
X198760714Y-199678571D01*
X198617857Y-199607142D01*
X198546428Y-199535714D01*
X200117857Y-199107142D02*
X201260714Y-199107142D01*
X201903571Y-198321428D02*
X201975000Y-198250000D01*
X202117857Y-198178571D01*
X202475000Y-198178571D01*
X202617857Y-198250000D01*
X202689285Y-198321428D01*
X202760714Y-198464285D01*
X202760714Y-198607142D01*
X202689285Y-198821428D01*
X201832142Y-199678571D01*
X202760714Y-199678571D01*
X203260714Y-198178571D02*
X204189285Y-198178571D01*
X203689285Y-198750000D01*
X203903571Y-198750000D01*
X204046428Y-198821428D01*
X204117857Y-198892857D01*
X204189285Y-199035714D01*
X204189285Y-199392857D01*
X204117857Y-199535714D01*
X204046428Y-199607142D01*
X203903571Y-199678571D01*
X203475000Y-199678571D01*
X203332142Y-199607142D01*
X203260714Y-199535714D01*
D10*
D11*
X159400000Y-200400000D02*
X267400000Y-200400000D01*
D10*
D11*
X160832142Y-202478571D02*
X160832142Y-200978571D01*
X161689285Y-202478571D02*
X161046428Y-201621428D01*
X161689285Y-200978571D02*
X160832142Y-201835714D01*
X162332142Y-202478571D02*
X162332142Y-201478571D01*
X162332142Y-200978571D02*
X162260714Y-201050000D01*
X162332142Y-201121428D01*
X162403571Y-201050000D01*
X162332142Y-200978571D01*
X162332142Y-201121428D01*
X163903571Y-202335714D02*
X163832142Y-202407142D01*
X163617857Y-202478571D01*
X163475000Y-202478571D01*
X163260714Y-202407142D01*
X163117857Y-202264285D01*
X163046428Y-202121428D01*
X162975000Y-201835714D01*
X162975000Y-201621428D01*
X163046428Y-201335714D01*
X163117857Y-201192857D01*
X163260714Y-201050000D01*
X163475000Y-200978571D01*
X163617857Y-200978571D01*
X163832142Y-201050000D01*
X163903571Y-201121428D01*
X165189285Y-202478571D02*
X165189285Y-201692857D01*
X165117857Y-201550000D01*
X164975000Y-201478571D01*
X164689285Y-201478571D01*
X164546428Y-201550000D01*
X165189285Y-202407142D02*
X165046428Y-202478571D01*
X164689285Y-202478571D01*
X164546428Y-202407142D01*
X164475000Y-202264285D01*
X164475000Y-202121428D01*
X164546428Y-201978571D01*
X164689285Y-201907142D01*
X165046428Y-201907142D01*
X165189285Y-201835714D01*
X166546428Y-202478571D02*
X166546428Y-200978571D01*
X166546428Y-202407142D02*
X166403571Y-202478571D01*
X166117857Y-202478571D01*
X165975000Y-202407142D01*
X165903571Y-202335714D01*
X165832142Y-202192857D01*
X165832142Y-201764285D01*
X165903571Y-201621428D01*
X165975000Y-201550000D01*
X166117857Y-201478571D01*
X166403571Y-201478571D01*
X166546428Y-201550000D01*
X168403571Y-201692857D02*
X168903571Y-201692857D01*
X169117857Y-202478571D02*
X168403571Y-202478571D01*
X168403571Y-200978571D01*
X169117857Y-200978571D01*
X169760714Y-202335714D02*
X169832142Y-202407142D01*
X169760714Y-202478571D01*
X169689285Y-202407142D01*
X169760714Y-202335714D01*
X169760714Y-202478571D01*
X170475000Y-202478571D02*
X170475000Y-200978571D01*
X170832142Y-200978571D01*
X171046428Y-201050000D01*
X171189285Y-201192857D01*
X171260714Y-201335714D01*
X171332142Y-201621428D01*
X171332142Y-201835714D01*
X171260714Y-202121428D01*
X171189285Y-202264285D01*
X171046428Y-202407142D01*
X170832142Y-202478571D01*
X170475000Y-202478571D01*
X171975000Y-202335714D02*
X172046428Y-202407142D01*
X171975000Y-202478571D01*
X171903571Y-202407142D01*
X171975000Y-202335714D01*
X171975000Y-202478571D01*
X172617857Y-202050000D02*
X173332142Y-202050000D01*
X172475000Y-202478571D02*
X172975000Y-200978571D01*
X173475000Y-202478571D01*
X173975000Y-202335714D02*
X174046428Y-202407142D01*
X173975000Y-202478571D01*
X173903571Y-202407142D01*
X173975000Y-202335714D01*
X173975000Y-202478571D01*
X176975000Y-202478571D02*
X176975000Y-200978571D01*
X177117857Y-201907142D02*
X177546428Y-202478571D01*
X177546428Y-201478571D02*
X176975000Y-202050000D01*
X178189285Y-202478571D02*
X178189285Y-201478571D01*
X178189285Y-200978571D02*
X178117857Y-201050000D01*
X178189285Y-201121428D01*
X178260714Y-201050000D01*
X178189285Y-200978571D01*
X178189285Y-201121428D01*
X179546428Y-202407142D02*
X179403571Y-202478571D01*
X179117857Y-202478571D01*
X178975000Y-202407142D01*
X178903571Y-202335714D01*
X178832142Y-202192857D01*
X178832142Y-201764285D01*
X178903571Y-201621428D01*
X178975000Y-201550000D01*
X179117857Y-201478571D01*
X179403571Y-201478571D01*
X179546428Y-201550000D01*
X180832142Y-202478571D02*
X180832142Y-201692857D01*
X180760714Y-201550000D01*
X180617857Y-201478571D01*
X180332142Y-201478571D01*
X180189285Y-201550000D01*
X180832142Y-202407142D02*
X180689285Y-202478571D01*
X180332142Y-202478571D01*
X180189285Y-202407142D01*
X180117857Y-202264285D01*
X180117857Y-202121428D01*
X180189285Y-201978571D01*
X180332142Y-201907142D01*
X180689285Y-201907142D01*
X180832142Y-201835714D01*
X182189285Y-202478571D02*
X182189285Y-200978571D01*
X182189285Y-202407142D02*
X182046428Y-202478571D01*
X181760714Y-202478571D01*
X181617857Y-202407142D01*
X181546428Y-202335714D01*
X181475000Y-202192857D01*
X181475000Y-201764285D01*
X181546428Y-201621428D01*
X181617857Y-201550000D01*
X181760714Y-201478571D01*
X182046428Y-201478571D01*
X182189285Y-201550000D01*
X184475000Y-203050000D02*
X184403571Y-202978571D01*
X184260714Y-202764285D01*
X184189285Y-202621428D01*
X184117857Y-202407142D01*
X184046428Y-202050000D01*
X184046428Y-201764285D01*
X184117857Y-201407142D01*
X184189285Y-201192857D01*
X184260714Y-201050000D01*
X184403571Y-200835714D01*
X184475000Y-200764285D01*
X185760714Y-200978571D02*
X185046428Y-200978571D01*
X184975000Y-201692857D01*
X185046428Y-201621428D01*
X185189285Y-201550000D01*
X185546428Y-201550000D01*
X185689285Y-201621428D01*
X185760714Y-201692857D01*
X185832142Y-201835714D01*
X185832142Y-202192857D01*
X185760714Y-202335714D01*
X185689285Y-202407142D01*
X185546428Y-202478571D01*
X185189285Y-202478571D01*
X185046428Y-202407142D01*
X184975000Y-202335714D01*
X186475000Y-202335714D02*
X186546428Y-202407142D01*
X186475000Y-202478571D01*
X186403571Y-202407142D01*
X186475000Y-202335714D01*
X186475000Y-202478571D01*
X187975000Y-202478571D02*
X187117857Y-202478571D01*
X187546428Y-202478571D02*
X187546428Y-200978571D01*
X187403571Y-201192857D01*
X187260714Y-201335714D01*
X187117857Y-201407142D01*
X188617857Y-202335714D02*
X188689285Y-202407142D01*
X188617857Y-202478571D01*
X188546428Y-202407142D01*
X188617857Y-202335714D01*
X188617857Y-202478571D01*
X189975000Y-200978571D02*
X189689285Y-200978571D01*
X189546428Y-201050000D01*
X189475000Y-201121428D01*
X189332142Y-201335714D01*
X189260714Y-201621428D01*
X189260714Y-202192857D01*
X189332142Y-202335714D01*
X189403571Y-202407142D01*
X189546428Y-202478571D01*
X189832142Y-202478571D01*
X189975000Y-202407142D01*
X190046428Y-202335714D01*
X190117857Y-202192857D01*
X190117857Y-201835714D01*
X190046428Y-201692857D01*
X189975000Y-201621428D01*
X189832142Y-201550000D01*
X189546428Y-201550000D01*
X189403571Y-201621428D01*
X189332142Y-201692857D01*
X189260714Y-201835714D01*
X190617857Y-203050000D02*
X190689285Y-202978571D01*
X190832142Y-202764285D01*
X190903571Y-202621428D01*
X190975000Y-202407142D01*
X191046428Y-202050000D01*
X191046428Y-201764285D01*
X190975000Y-201407142D01*
X190903571Y-201192857D01*
X190832142Y-201050000D01*
X190689285Y-200835714D01*
X190617857Y-200764285D01*
X191760714Y-201907142D02*
X192903571Y-201907142D01*
X194403571Y-202478571D02*
X193546428Y-202478571D01*
X193975000Y-202478571D02*
X193975000Y-200978571D01*
X193832142Y-201192857D01*
X193689285Y-201335714D01*
X193546428Y-201407142D01*
D10*
D11*
X159400000Y-197400000D02*
X267400000Y-197400000D01*
D10*
D12*
X246809285Y-199678571D02*
X246309285Y-198964285D01*
X245952142Y-199678571D02*
X245952142Y-198178571D01*
X246523571Y-198178571D01*
X246666428Y-198250000D01*
X246737857Y-198321428D01*
X246809285Y-198464285D01*
X246809285Y-198678571D01*
X246737857Y-198821428D01*
X246666428Y-198892857D01*
X246523571Y-198964285D01*
X245952142Y-198964285D01*
X248023571Y-199607142D02*
X247880714Y-199678571D01*
X247595000Y-199678571D01*
X247452142Y-199607142D01*
X247380714Y-199464285D01*
X247380714Y-198892857D01*
X247452142Y-198750000D01*
X247595000Y-198678571D01*
X247880714Y-198678571D01*
X248023571Y-198750000D01*
X248095000Y-198892857D01*
X248095000Y-199035714D01*
X247380714Y-199178571D01*
X248595000Y-198678571D02*
X248952142Y-199678571D01*
X249309285Y-198678571D01*
X249880714Y-199535714D02*
X249952142Y-199607142D01*
X249880714Y-199678571D01*
X249809285Y-199607142D01*
X249880714Y-199535714D01*
X249880714Y-199678571D01*
X249880714Y-198750000D02*
X249952142Y-198821428D01*
X249880714Y-198892857D01*
X249809285Y-198821428D01*
X249880714Y-198750000D01*
X249880714Y-198892857D01*
X252523571Y-199678571D02*
X251666428Y-199678571D01*
X252095000Y-199678571D02*
X252095000Y-198178571D01*
X251952142Y-198392857D01*
X251809285Y-198535714D01*
X251666428Y-198607142D01*
X253166428Y-199535714D02*
X253237857Y-199607142D01*
X253166428Y-199678571D01*
X253095000Y-199607142D01*
X253166428Y-199535714D01*
X253166428Y-199678571D01*
X254166428Y-198178571D02*
X254309285Y-198178571D01*
X254452142Y-198250000D01*
X254523571Y-198321428D01*
X254595000Y-198464285D01*
X254666428Y-198750000D01*
X254666428Y-199107142D01*
X254595000Y-199392857D01*
X254523571Y-199535714D01*
X254452142Y-199607142D01*
X254309285Y-199678571D01*
X254166428Y-199678571D01*
X254023571Y-199607142D01*
X253952142Y-199535714D01*
X253880714Y-199392857D01*
X253809285Y-199107142D01*
X253809285Y-198750000D01*
X253880714Y-198464285D01*
X253952142Y-198321428D01*
X254023571Y-198250000D01*
X254166428Y-198178571D01*
D10*
D11*
X160760714Y-199607142D02*
X160975000Y-199678571D01*
X161332142Y-199678571D01*
X161475000Y-199607142D01*
X161546428Y-199535714D01*
X161617857Y-199392857D01*
X161617857Y-199250000D01*
X161546428Y-199107142D01*
X161475000Y-199035714D01*
X161332142Y-198964285D01*
X161046428Y-198892857D01*
X160903571Y-198821428D01*
X160832142Y-198750000D01*
X160760714Y-198607142D01*
X160760714Y-198464285D01*
X160832142Y-198321428D01*
X160903571Y-198250000D01*
X161046428Y-198178571D01*
X161403571Y-198178571D01*
X161617857Y-198250000D01*
X162260714Y-199678571D02*
X162260714Y-198678571D01*
X162260714Y-198178571D02*
X162189285Y-198250000D01*
X162260714Y-198321428D01*
X162332142Y-198250000D01*
X162260714Y-198178571D01*
X162260714Y-198321428D01*
X162832142Y-198678571D02*
X163617857Y-198678571D01*
X162832142Y-199678571D01*
X163617857Y-199678571D01*
X164760714Y-199607142D02*
X164617857Y-199678571D01*
X164332142Y-199678571D01*
X164189285Y-199607142D01*
X164117857Y-199464285D01*
X164117857Y-198892857D01*
X164189285Y-198750000D01*
X164332142Y-198678571D01*
X164617857Y-198678571D01*
X164760714Y-198750000D01*
X164832142Y-198892857D01*
X164832142Y-199035714D01*
X164117857Y-199178571D01*
X165475000Y-199535714D02*
X165546428Y-199607142D01*
X165475000Y-199678571D01*
X165403571Y-199607142D01*
X165475000Y-199535714D01*
X165475000Y-199678571D01*
X165475000Y-198750000D02*
X165546428Y-198821428D01*
X165475000Y-198892857D01*
X165403571Y-198821428D01*
X165475000Y-198750000D01*
X165475000Y-198892857D01*
X167332142Y-198178571D02*
X167332142Y-199392857D01*
X167403571Y-199535714D01*
X167475000Y-199607142D01*
X167617857Y-199678571D01*
X167903571Y-199678571D01*
X168046428Y-199607142D01*
X168117857Y-199535714D01*
X168189285Y-199392857D01*
X168189285Y-198178571D01*
X168832142Y-199607142D02*
X169046428Y-199678571D01*
X169403571Y-199678571D01*
X169546428Y-199607142D01*
X169617857Y-199535714D01*
X169689285Y-199392857D01*
X169689285Y-199250000D01*
X169617857Y-199107142D01*
X169546428Y-199035714D01*
X169403571Y-198964285D01*
X169117857Y-198892857D01*
X168975000Y-198821428D01*
X168903571Y-198750000D01*
X168832142Y-198607142D01*
X168832142Y-198464285D01*
X168903571Y-198321428D01*
X168975000Y-198250000D01*
X169117857Y-198178571D01*
X169475000Y-198178571D01*
X169689285Y-198250000D01*
X171046428Y-199678571D02*
X170332142Y-199678571D01*
X170332142Y-198178571D01*
X172117857Y-199607142D02*
X171975000Y-199678571D01*
X171689285Y-199678571D01*
X171546428Y-199607142D01*
X171475000Y-199464285D01*
X171475000Y-198892857D01*
X171546428Y-198750000D01*
X171689285Y-198678571D01*
X171975000Y-198678571D01*
X172117857Y-198750000D01*
X172189285Y-198892857D01*
X172189285Y-199035714D01*
X171475000Y-199178571D01*
X172617857Y-198678571D02*
X173189285Y-198678571D01*
X172832142Y-198178571D02*
X172832142Y-199464285D01*
X172903571Y-199607142D01*
X173046428Y-199678571D01*
X173189285Y-199678571D01*
X173475000Y-198678571D02*
X174046428Y-198678571D01*
X173689285Y-198178571D02*
X173689285Y-199464285D01*
X173760714Y-199607142D01*
X173903571Y-199678571D01*
X174046428Y-199678571D01*
X175117857Y-199607142D02*
X174975000Y-199678571D01*
X174689285Y-199678571D01*
X174546428Y-199607142D01*
X174475000Y-199464285D01*
X174475000Y-198892857D01*
X174546428Y-198750000D01*
X174689285Y-198678571D01*
X174975000Y-198678571D01*
X175117857Y-198750000D01*
X175189285Y-198892857D01*
X175189285Y-199035714D01*
X174475000Y-199178571D01*
X175832142Y-199678571D02*
X175832142Y-198678571D01*
X175832142Y-198964285D02*
X175903571Y-198821428D01*
X175975000Y-198750000D01*
X176117857Y-198678571D01*
X176260714Y-198678571D01*
D10*
D11*
X245832142Y-202478571D02*
X245832142Y-200978571D01*
X247189285Y-202478571D02*
X247189285Y-200978571D01*
X247189285Y-202407142D02*
X247046428Y-202478571D01*
X246760714Y-202478571D01*
X246617857Y-202407142D01*
X246546428Y-202335714D01*
X246475000Y-202192857D01*
X246475000Y-201764285D01*
X246546428Y-201621428D01*
X246617857Y-201550000D01*
X246760714Y-201478571D01*
X247046428Y-201478571D01*
X247189285Y-201550000D01*
X247903571Y-202335714D02*
X247975000Y-202407142D01*
X247903571Y-202478571D01*
X247832142Y-202407142D01*
X247903571Y-202335714D01*
X247903571Y-202478571D01*
X247903571Y-201550000D02*
X247975000Y-201621428D01*
X247903571Y-201692857D01*
X247832142Y-201621428D01*
X247903571Y-201550000D01*
X247903571Y-201692857D01*
X250546428Y-202478571D02*
X249689285Y-202478571D01*
X250117857Y-202478571D02*
X250117857Y-200978571D01*
X249975000Y-201192857D01*
X249832142Y-201335714D01*
X249689285Y-201407142D01*
X252260714Y-200907142D02*
X250975000Y-202835714D01*
X253546428Y-202478571D02*
X252689285Y-202478571D01*
X253117857Y-202478571D02*
X253117857Y-200978571D01*
X252975000Y-201192857D01*
X252832142Y-201335714D01*
X252689285Y-201407142D01*
D10*
D11*
X159400000Y-193400000D02*
X267400000Y-193400000D01*
D10*
D13*
X161112380Y-194104761D02*
X162255238Y-194104761D01*
X161433809Y-196104761D02*
X161683809Y-194104761D01*
X162671904Y-196104761D02*
X162838571Y-194771428D01*
X162921904Y-194104761D02*
X162814761Y-194200000D01*
X162898095Y-194295238D01*
X163005238Y-194200000D01*
X162921904Y-194104761D01*
X162898095Y-194295238D01*
X163505238Y-194771428D02*
X164267142Y-194771428D01*
X163874285Y-194104761D02*
X163660000Y-195819047D01*
X163731428Y-196009523D01*
X163910000Y-196104761D01*
X164100476Y-196104761D01*
X165052857Y-196104761D02*
X164874285Y-196009523D01*
X164802857Y-195819047D01*
X165017142Y-194104761D01*
X166588571Y-196009523D02*
X166386190Y-196104761D01*
X166005238Y-196104761D01*
X165826666Y-196009523D01*
X165755238Y-195819047D01*
X165850476Y-195057142D01*
X165969523Y-194866666D01*
X166171904Y-194771428D01*
X166552857Y-194771428D01*
X166731428Y-194866666D01*
X166802857Y-195057142D01*
X166779047Y-195247619D01*
X165802857Y-195438095D01*
X167552857Y-195914285D02*
X167636190Y-196009523D01*
X167529047Y-196104761D01*
X167445714Y-196009523D01*
X167552857Y-195914285D01*
X167529047Y-196104761D01*
X167683809Y-194866666D02*
X167767142Y-194961904D01*
X167660000Y-195057142D01*
X167576666Y-194961904D01*
X167683809Y-194866666D01*
X167660000Y-195057142D01*
X170005238Y-196104761D02*
X170255238Y-194104761D01*
X172648095Y-194009523D02*
X170612380Y-196580952D01*
X173683809Y-194104761D02*
X174064761Y-194104761D01*
X174243333Y-194200000D01*
X174410000Y-194390476D01*
X174457619Y-194771428D01*
X174374285Y-195438095D01*
X174231428Y-195819047D01*
X174017142Y-196009523D01*
X173814761Y-196104761D01*
X173433809Y-196104761D01*
X173255238Y-196009523D01*
X173088571Y-195819047D01*
X173040952Y-195438095D01*
X173124285Y-194771428D01*
X173267142Y-194390476D01*
X173481428Y-194200000D01*
X173683809Y-194104761D01*
X177469523Y-195057142D02*
X177743333Y-195152380D01*
X177826666Y-195247619D01*
X177898095Y-195438095D01*
X177862380Y-195723809D01*
X177743333Y-195914285D01*
X177636190Y-196009523D01*
X177433809Y-196104761D01*
X176671904Y-196104761D01*
X176921904Y-194104761D01*
X177588571Y-194104761D01*
X177767142Y-194200000D01*
X177850476Y-194295238D01*
X177921904Y-194485714D01*
X177898095Y-194676190D01*
X177779047Y-194866666D01*
X177671904Y-194961904D01*
X177469523Y-195057142D01*
X176802857Y-195057142D01*
X178957619Y-196104761D02*
X178779047Y-196009523D01*
X178695714Y-195914285D01*
X178624285Y-195723809D01*
X178695714Y-195152380D01*
X178814761Y-194961904D01*
X178921904Y-194866666D01*
X179124285Y-194771428D01*
X179410000Y-194771428D01*
X179588571Y-194866666D01*
X179671904Y-194961904D01*
X179743333Y-195152380D01*
X179671904Y-195723809D01*
X179552857Y-195914285D01*
X179445714Y-196009523D01*
X179243333Y-196104761D01*
X178957619Y-196104761D01*
X181338571Y-196104761D02*
X181469523Y-195057142D01*
X181398095Y-194866666D01*
X181219523Y-194771428D01*
X180838571Y-194771428D01*
X180636190Y-194866666D01*
X181350476Y-196009523D02*
X181148095Y-196104761D01*
X180671904Y-196104761D01*
X180493333Y-196009523D01*
X180421904Y-195819047D01*
X180445714Y-195628571D01*
X180564761Y-195438095D01*
X180767142Y-195342857D01*
X181243333Y-195342857D01*
X181445714Y-195247619D01*
X182290952Y-196104761D02*
X182457619Y-194771428D01*
X182410000Y-195152380D02*
X182529047Y-194961904D01*
X182636190Y-194866666D01*
X182838571Y-194771428D01*
X183029047Y-194771428D01*
X184386190Y-196104761D02*
X184636190Y-194104761D01*
X184398095Y-196009523D02*
X184195714Y-196104761D01*
X183814761Y-196104761D01*
X183636190Y-196009523D01*
X183552857Y-195914285D01*
X183481428Y-195723809D01*
X183552857Y-195152380D01*
X183671904Y-194961904D01*
X183779047Y-194866666D01*
X183981428Y-194771428D01*
X184362380Y-194771428D01*
X184540952Y-194866666D01*
X187814761Y-196104761D02*
X186862380Y-196104761D01*
X187112380Y-194104761D01*
X189338571Y-196104761D02*
X189469523Y-195057142D01*
X189398095Y-194866666D01*
X189219523Y-194771428D01*
X188838571Y-194771428D01*
X188636190Y-194866666D01*
X189350476Y-196009523D02*
X189148095Y-196104761D01*
X188671904Y-196104761D01*
X188493333Y-196009523D01*
X188421904Y-195819047D01*
X188445714Y-195628571D01*
X188564761Y-195438095D01*
X188767142Y-195342857D01*
X189243333Y-195342857D01*
X189445714Y-195247619D01*
X190267142Y-194771428D02*
X190576666Y-196104761D01*
X191219523Y-194771428D02*
X190576666Y-196104761D01*
X190326666Y-196580952D01*
X190219523Y-196676190D01*
X190017142Y-196771428D01*
X192100476Y-196104761D02*
X191921904Y-196009523D01*
X191838571Y-195914285D01*
X191767142Y-195723809D01*
X191838571Y-195152380D01*
X191957619Y-194961904D01*
X192064761Y-194866666D01*
X192267142Y-194771428D01*
X192552857Y-194771428D01*
X192731428Y-194866666D01*
X192814761Y-194961904D01*
X192886190Y-195152380D01*
X192814761Y-195723809D01*
X192695714Y-195914285D01*
X192588571Y-196009523D01*
X192386190Y-196104761D01*
X192100476Y-196104761D01*
X194648095Y-194771428D02*
X194481428Y-196104761D01*
X193790952Y-194771428D02*
X193660000Y-195819047D01*
X193731428Y-196009523D01*
X193910000Y-196104761D01*
X194195714Y-196104761D01*
X194398095Y-196009523D01*
X194505238Y-195914285D01*
X195314761Y-194771428D02*
X196076666Y-194771428D01*
X195683809Y-194104761D02*
X195469523Y-195819047D01*
X195540952Y-196009523D01*
X195719523Y-196104761D01*
X195910000Y-196104761D01*
D10*
D11*
X161332142Y-191492857D02*
X160832142Y-191492857D01*
X160832142Y-192278571D02*
X160832142Y-190778571D01*
X161546428Y-190778571D01*
X162117857Y-192278571D02*
X162117857Y-191278571D01*
X162117857Y-190778571D02*
X162046428Y-190850000D01*
X162117857Y-190921428D01*
X162189285Y-190850000D01*
X162117857Y-190778571D01*
X162117857Y-190921428D01*
X163046428Y-192278571D02*
X162903571Y-192207142D01*
X162832142Y-192064285D01*
X162832142Y-190778571D01*
X164189285Y-192207142D02*
X164046428Y-192278571D01*
X163760714Y-192278571D01*
X163617857Y-192207142D01*
X163546428Y-192064285D01*
X163546428Y-191492857D01*
X163617857Y-191350000D01*
X163760714Y-191278571D01*
X164046428Y-191278571D01*
X164189285Y-191350000D01*
X164260714Y-191492857D01*
X164260714Y-191635714D01*
X163546428Y-191778571D01*
X164903571Y-192135714D02*
X164975000Y-192207142D01*
X164903571Y-192278571D01*
X164832142Y-192207142D01*
X164903571Y-192135714D01*
X164903571Y-192278571D01*
X164903571Y-191350000D02*
X164975000Y-191421428D01*
X164903571Y-191492857D01*
X164832142Y-191421428D01*
X164903571Y-191350000D01*
X164903571Y-191492857D01*
X166760714Y-192278571D02*
X166760714Y-190778571D01*
X167760714Y-190778571D02*
X168046428Y-190778571D01*
X168189285Y-190850000D01*
X168332142Y-190992857D01*
X168403571Y-191278571D01*
X168403571Y-191778571D01*
X168332142Y-192064285D01*
X168189285Y-192207142D01*
X168046428Y-192278571D01*
X167760714Y-192278571D01*
X167617857Y-192207142D01*
X167475000Y-192064285D01*
X167403571Y-191778571D01*
X167403571Y-191278571D01*
X167475000Y-190992857D01*
X167617857Y-190850000D01*
X167760714Y-190778571D01*
X170689285Y-191492857D02*
X170903571Y-191564285D01*
X170975000Y-191635714D01*
X171046428Y-191778571D01*
X171046428Y-191992857D01*
X170975000Y-192135714D01*
X170903571Y-192207142D01*
X170760714Y-192278571D01*
X170189285Y-192278571D01*
X170189285Y-190778571D01*
X170689285Y-190778571D01*
X170832142Y-190850000D01*
X170903571Y-190921428D01*
X170975000Y-191064285D01*
X170975000Y-191207142D01*
X170903571Y-191350000D01*
X170832142Y-191421428D01*
X170689285Y-191492857D01*
X170189285Y-191492857D01*
X171903571Y-192278571D02*
X171760714Y-192207142D01*
X171689285Y-192135714D01*
X171617857Y-191992857D01*
X171617857Y-191564285D01*
X171689285Y-191421428D01*
X171760714Y-191350000D01*
X171903571Y-191278571D01*
X172117857Y-191278571D01*
X172260714Y-191350000D01*
X172332142Y-191421428D01*
X172403571Y-191564285D01*
X172403571Y-191992857D01*
X172332142Y-192135714D01*
X172260714Y-192207142D01*
X172117857Y-192278571D01*
X171903571Y-192278571D01*
X173689285Y-192278571D02*
X173689285Y-191492857D01*
X173617857Y-191350000D01*
X173475000Y-191278571D01*
X173189285Y-191278571D01*
X173046428Y-191350000D01*
X173689285Y-192207142D02*
X173546428Y-192278571D01*
X173189285Y-192278571D01*
X173046428Y-192207142D01*
X172975000Y-192064285D01*
X172975000Y-191921428D01*
X173046428Y-191778571D01*
X173189285Y-191707142D01*
X173546428Y-191707142D01*
X173689285Y-191635714D01*
X174403571Y-192278571D02*
X174403571Y-191278571D01*
X174403571Y-191564285D02*
X174475000Y-191421428D01*
X174546428Y-191350000D01*
X174689285Y-191278571D01*
X174832142Y-191278571D01*
X175975000Y-192278571D02*
X175975000Y-190778571D01*
X175975000Y-192207142D02*
X175832142Y-192278571D01*
X175546428Y-192278571D01*
X175403571Y-192207142D01*
X175332142Y-192135714D01*
X175260714Y-191992857D01*
X175260714Y-191564285D01*
X175332142Y-191421428D01*
X175403571Y-191350000D01*
X175546428Y-191278571D01*
X175832142Y-191278571D01*
X175975000Y-191350000D01*
X176689285Y-192135714D02*
X176760714Y-192207142D01*
X176689285Y-192278571D01*
X176617857Y-192207142D01*
X176689285Y-192135714D01*
X176689285Y-192278571D01*
X177403571Y-192278571D02*
X177403571Y-190778571D01*
X177546428Y-191707142D02*
X177975000Y-192278571D01*
X177975000Y-191278571D02*
X177403571Y-191850000D01*
X178617857Y-192278571D02*
X178617857Y-191278571D01*
X178617857Y-190778571D02*
X178546428Y-190850000D01*
X178617857Y-190921428D01*
X178689285Y-190850000D01*
X178617857Y-190778571D01*
X178617857Y-190921428D01*
X179975000Y-192207142D02*
X179832142Y-192278571D01*
X179546428Y-192278571D01*
X179403571Y-192207142D01*
X179332142Y-192135714D01*
X179260714Y-191992857D01*
X179260714Y-191564285D01*
X179332142Y-191421428D01*
X179403571Y-191350000D01*
X179546428Y-191278571D01*
X179832142Y-191278571D01*
X179975000Y-191350000D01*
X181260714Y-192278571D02*
X181260714Y-191492857D01*
X181189285Y-191350000D01*
X181046428Y-191278571D01*
X180760714Y-191278571D01*
X180617857Y-191350000D01*
X181260714Y-192207142D02*
X181117857Y-192278571D01*
X180760714Y-192278571D01*
X180617857Y-192207142D01*
X180546428Y-192064285D01*
X180546428Y-191921428D01*
X180617857Y-191778571D01*
X180760714Y-191707142D01*
X181117857Y-191707142D01*
X181260714Y-191635714D01*
X182617857Y-192278571D02*
X182617857Y-190778571D01*
X182617857Y-192207142D02*
X182475000Y-192278571D01*
X182189285Y-192278571D01*
X182046428Y-192207142D01*
X181975000Y-192135714D01*
X181903571Y-191992857D01*
X181903571Y-191564285D01*
X181975000Y-191421428D01*
X182046428Y-191350000D01*
X182189285Y-191278571D01*
X182475000Y-191278571D01*
X182617857Y-191350000D01*
X182975000Y-192421428D02*
X184117857Y-192421428D01*
X184475000Y-191278571D02*
X184475000Y-192778571D01*
X184475000Y-191350000D02*
X184617857Y-191278571D01*
X184903571Y-191278571D01*
X185046428Y-191350000D01*
X185117857Y-191421428D01*
X185189285Y-191564285D01*
X185189285Y-191992857D01*
X185117857Y-192135714D01*
X185046428Y-192207142D01*
X184903571Y-192278571D01*
X184617857Y-192278571D01*
X184475000Y-192207142D01*
X186475000Y-192207142D02*
X186332142Y-192278571D01*
X186046428Y-192278571D01*
X185903571Y-192207142D01*
X185832142Y-192135714D01*
X185760714Y-191992857D01*
X185760714Y-191564285D01*
X185832142Y-191421428D01*
X185903571Y-191350000D01*
X186046428Y-191278571D01*
X186332142Y-191278571D01*
X186475000Y-191350000D01*
X187117857Y-192278571D02*
X187117857Y-190778571D01*
X187117857Y-191350000D02*
X187260714Y-191278571D01*
X187546428Y-191278571D01*
X187689285Y-191350000D01*
X187760714Y-191421428D01*
X187832142Y-191564285D01*
X187832142Y-191992857D01*
X187760714Y-192135714D01*
X187689285Y-192207142D01*
X187546428Y-192278571D01*
X187260714Y-192278571D01*
X187117857Y-192207142D01*
D10*
D11*
X159400000Y-187400000D02*
X267400000Y-187400000D01*
D10*
D11*
X160760714Y-189507142D02*
X160975000Y-189578571D01*
X161332142Y-189578571D01*
X161475000Y-189507142D01*
X161546428Y-189435714D01*
X161617857Y-189292857D01*
X161617857Y-189150000D01*
X161546428Y-189007142D01*
X161475000Y-188935714D01*
X161332142Y-188864285D01*
X161046428Y-188792857D01*
X160903571Y-188721428D01*
X160832142Y-188650000D01*
X160760714Y-188507142D01*
X160760714Y-188364285D01*
X160832142Y-188221428D01*
X160903571Y-188150000D01*
X161046428Y-188078571D01*
X161403571Y-188078571D01*
X161617857Y-188150000D01*
X162260714Y-189578571D02*
X162260714Y-188078571D01*
X162903571Y-189578571D02*
X162903571Y-188792857D01*
X162832142Y-188650000D01*
X162689285Y-188578571D01*
X162475000Y-188578571D01*
X162332142Y-188650000D01*
X162260714Y-188721428D01*
X164189285Y-189507142D02*
X164046428Y-189578571D01*
X163760714Y-189578571D01*
X163617857Y-189507142D01*
X163546428Y-189364285D01*
X163546428Y-188792857D01*
X163617857Y-188650000D01*
X163760714Y-188578571D01*
X164046428Y-188578571D01*
X164189285Y-188650000D01*
X164260714Y-188792857D01*
X164260714Y-188935714D01*
X163546428Y-189078571D01*
X165475000Y-189507142D02*
X165332142Y-189578571D01*
X165046428Y-189578571D01*
X164903571Y-189507142D01*
X164832142Y-189364285D01*
X164832142Y-188792857D01*
X164903571Y-188650000D01*
X165046428Y-188578571D01*
X165332142Y-188578571D01*
X165475000Y-188650000D01*
X165546428Y-188792857D01*
X165546428Y-188935714D01*
X164832142Y-189078571D01*
X165975000Y-188578571D02*
X166546428Y-188578571D01*
X166189285Y-188078571D02*
X166189285Y-189364285D01*
X166260714Y-189507142D01*
X166403571Y-189578571D01*
X166546428Y-189578571D01*
X167046428Y-189435714D02*
X167117857Y-189507142D01*
X167046428Y-189578571D01*
X166975000Y-189507142D01*
X167046428Y-189435714D01*
X167046428Y-189578571D01*
X167046428Y-188650000D02*
X167117857Y-188721428D01*
X167046428Y-188792857D01*
X166975000Y-188721428D01*
X167046428Y-188650000D01*
X167046428Y-188792857D01*
D10*
D11*
X179400000Y-197400000D02*
X179400000Y-200400000D01*
D10*
D11*
X243400000Y-197400000D02*
X243400000Y-203900000D01*
D12*
X200450142Y-93129571D02*
X200450142Y-91629571D01*
X202235857Y-91558142D02*
X200950142Y-93486714D01*
X203021571Y-91629571D02*
X203307285Y-91629571D01*
X203450142Y-91701000D01*
X203593000Y-91843857D01*
X203664428Y-92129571D01*
X203664428Y-92629571D01*
X203593000Y-92915285D01*
X203450142Y-93058142D01*
X203307285Y-93129571D01*
X203021571Y-93129571D01*
X202878714Y-93058142D01*
X202735857Y-92915285D01*
X202664428Y-92629571D01*
X202664428Y-92129571D01*
X202735857Y-91843857D01*
X202878714Y-91701000D01*
X203021571Y-91629571D01*
X205950142Y-92343857D02*
X206164428Y-92415285D01*
X206235857Y-92486714D01*
X206307285Y-92629571D01*
X206307285Y-92843857D01*
X206235857Y-92986714D01*
X206164428Y-93058142D01*
X206021571Y-93129571D01*
X205450142Y-93129571D01*
X205450142Y-91629571D01*
X205950142Y-91629571D01*
X206093000Y-91701000D01*
X206164428Y-91772428D01*
X206235857Y-91915285D01*
X206235857Y-92058142D01*
X206164428Y-92201000D01*
X206093000Y-92272428D01*
X205950142Y-92343857D01*
X205450142Y-92343857D01*
X207164428Y-93129571D02*
X207021571Y-93058142D01*
X206950142Y-92986714D01*
X206878714Y-92843857D01*
X206878714Y-92415285D01*
X206950142Y-92272428D01*
X207021571Y-92201000D01*
X207164428Y-92129571D01*
X207378714Y-92129571D01*
X207521571Y-92201000D01*
X207593000Y-92272428D01*
X207664428Y-92415285D01*
X207664428Y-92843857D01*
X207593000Y-92986714D01*
X207521571Y-93058142D01*
X207378714Y-93129571D01*
X207164428Y-93129571D01*
X208950142Y-93129571D02*
X208950142Y-92343857D01*
X208878714Y-92201000D01*
X208735857Y-92129571D01*
X208450142Y-92129571D01*
X208307285Y-92201000D01*
X208950142Y-93058142D02*
X208807285Y-93129571D01*
X208450142Y-93129571D01*
X208307285Y-93058142D01*
X208235857Y-92915285D01*
X208235857Y-92772428D01*
X208307285Y-92629571D01*
X208450142Y-92558142D01*
X208807285Y-92558142D01*
X208950142Y-92486714D01*
X209664428Y-93129571D02*
X209664428Y-92129571D01*
X209664428Y-92415285D02*
X209735857Y-92272428D01*
X209807285Y-92201000D01*
X209950142Y-92129571D01*
X210093000Y-92129571D01*
X211235857Y-93129571D02*
X211235857Y-91629571D01*
X211235857Y-93058142D02*
X211093000Y-93129571D01*
X210807285Y-93129571D01*
X210664428Y-93058142D01*
X210593000Y-92986714D01*
X210521571Y-92843857D01*
X210521571Y-92415285D01*
X210593000Y-92272428D01*
X210664428Y-92201000D01*
X210807285Y-92129571D01*
X211093000Y-92129571D01*
X211235857Y-92201000D01*
X200950142Y-94893857D02*
X201164428Y-94965285D01*
X201235857Y-95036714D01*
X201307285Y-95179571D01*
X201307285Y-95393857D01*
X201235857Y-95536714D01*
X201164428Y-95608142D01*
X201021571Y-95679571D01*
X200450142Y-95679571D01*
X200450142Y-94179571D01*
X200950142Y-94179571D01*
X201093000Y-94251000D01*
X201164428Y-94322428D01*
X201235857Y-94465285D01*
X201235857Y-94608142D01*
X201164428Y-94751000D01*
X201093000Y-94822428D01*
X200950142Y-94893857D01*
X200450142Y-94893857D01*
X202164428Y-95679571D02*
X202021571Y-95608142D01*
X201950142Y-95536714D01*
X201878714Y-95393857D01*
X201878714Y-94965285D01*
X201950142Y-94822428D01*
X202021571Y-94751000D01*
X202164428Y-94679571D01*
X202378714Y-94679571D01*
X202521571Y-94751000D01*
X202593000Y-94822428D01*
X202664428Y-94965285D01*
X202664428Y-95393857D01*
X202593000Y-95536714D01*
X202521571Y-95608142D01*
X202378714Y-95679571D01*
X202164428Y-95679571D01*
X203093000Y-94679571D02*
X203664428Y-94679571D01*
X203307285Y-94179571D02*
X203307285Y-95465285D01*
X203378714Y-95608142D01*
X203521571Y-95679571D01*
X203664428Y-95679571D01*
X203950142Y-94679571D02*
X204521571Y-94679571D01*
X204164428Y-94179571D02*
X204164428Y-95465285D01*
X204235857Y-95608142D01*
X204378714Y-95679571D01*
X204521571Y-95679571D01*
X205235857Y-95679571D02*
X205093000Y-95608142D01*
X205021571Y-95536714D01*
X204950142Y-95393857D01*
X204950142Y-94965285D01*
X205021571Y-94822428D01*
X205093000Y-94751000D01*
X205235857Y-94679571D01*
X205450142Y-94679571D01*
X205593000Y-94751000D01*
X205664428Y-94822428D01*
X205735857Y-94965285D01*
X205735857Y-95393857D01*
X205664428Y-95536714D01*
X205593000Y-95608142D01*
X205450142Y-95679571D01*
X205235857Y-95679571D01*
X206378714Y-95679571D02*
X206378714Y-94679571D01*
X206378714Y-94822428D02*
X206450142Y-94751000D01*
X206593000Y-94679571D01*
X206807285Y-94679571D01*
X206950142Y-94751000D01*
X207021571Y-94893857D01*
X207021571Y-95679571D01*
X207021571Y-94893857D02*
X207093000Y-94751000D01*
X207235857Y-94679571D01*
X207450142Y-94679571D01*
X207593000Y-94751000D01*
X207664428Y-94893857D01*
X207664428Y-95679571D01*
X209450142Y-95608142D02*
X209664428Y-95679571D01*
X210021571Y-95679571D01*
X210164428Y-95608142D01*
X210235857Y-95536714D01*
X210307285Y-95393857D01*
X210307285Y-95251000D01*
X210235857Y-95108142D01*
X210164428Y-95036714D01*
X210021571Y-94965285D01*
X209735857Y-94893857D01*
X209593000Y-94822428D01*
X209521571Y-94751000D01*
X209450142Y-94608142D01*
X209450142Y-94465285D01*
X209521571Y-94322428D01*
X209593000Y-94251000D01*
X209735857Y-94179571D01*
X210093000Y-94179571D01*
X210307285Y-94251000D01*
X210950142Y-95679571D02*
X210950142Y-94679571D01*
X210950142Y-94179571D02*
X210878714Y-94251000D01*
X210950142Y-94322428D01*
X211021571Y-94251000D01*
X210950142Y-94179571D01*
X210950142Y-94322428D01*
X212307285Y-95679571D02*
X212307285Y-94179571D01*
X212307285Y-95608142D02*
X212164428Y-95679571D01*
X211878714Y-95679571D01*
X211735857Y-95608142D01*
X211664428Y-95536714D01*
X211593000Y-95393857D01*
X211593000Y-94965285D01*
X211664428Y-94822428D01*
X211735857Y-94751000D01*
X211878714Y-94679571D01*
X212164428Y-94679571D01*
X212307285Y-94751000D01*
X213593000Y-95608142D02*
X213450142Y-95679571D01*
X213164428Y-95679571D01*
X213021571Y-95608142D01*
X212950142Y-95465285D01*
X212950142Y-94893857D01*
X213021571Y-94751000D01*
X213164428Y-94679571D01*
X213450142Y-94679571D01*
X213593000Y-94751000D01*
X213664428Y-94893857D01*
X213664428Y-95036714D01*
X212950142Y-95179571D01*
X215378714Y-95608142D02*
X215593000Y-95679571D01*
X215950142Y-95679571D01*
X216093000Y-95608142D01*
X216164428Y-95536714D01*
X216235857Y-95393857D01*
X216235857Y-95251000D01*
X216164428Y-95108142D01*
X216093000Y-95036714D01*
X215950142Y-94965285D01*
X215664428Y-94893857D01*
X215521571Y-94822428D01*
X215450142Y-94751000D01*
X215378714Y-94608142D01*
X215378714Y-94465285D01*
X215450142Y-94322428D01*
X215521571Y-94251000D01*
X215664428Y-94179571D01*
X216021571Y-94179571D01*
X216235857Y-94251000D01*
X217093000Y-95679571D02*
X216950142Y-95608142D01*
X216878714Y-95536714D01*
X216807285Y-95393857D01*
X216807285Y-94965285D01*
X216878714Y-94822428D01*
X216950142Y-94751000D01*
X217093000Y-94679571D01*
X217307285Y-94679571D01*
X217450142Y-94751000D01*
X217521571Y-94822428D01*
X217593000Y-94965285D01*
X217593000Y-95393857D01*
X217521571Y-95536714D01*
X217450142Y-95608142D01*
X217307285Y-95679571D01*
X217093000Y-95679571D01*
X218450142Y-95679571D02*
X218307285Y-95608142D01*
X218235857Y-95465285D01*
X218235857Y-94179571D01*
X219664428Y-95679571D02*
X219664428Y-94179571D01*
X219664428Y-95608142D02*
X219521571Y-95679571D01*
X219235857Y-95679571D01*
X219093000Y-95608142D01*
X219021571Y-95536714D01*
X218950142Y-95393857D01*
X218950142Y-94965285D01*
X219021571Y-94822428D01*
X219093000Y-94751000D01*
X219235857Y-94679571D01*
X219521571Y-94679571D01*
X219664428Y-94751000D01*
X220950142Y-95608142D02*
X220807285Y-95679571D01*
X220521571Y-95679571D01*
X220378714Y-95608142D01*
X220307285Y-95465285D01*
X220307285Y-94893857D01*
X220378714Y-94751000D01*
X220521571Y-94679571D01*
X220807285Y-94679571D01*
X220950142Y-94751000D01*
X221021571Y-94893857D01*
X221021571Y-95036714D01*
X220307285Y-95179571D01*
X221664428Y-95679571D02*
X221664428Y-94679571D01*
X221664428Y-94965285D02*
X221735857Y-94822428D01*
X221807285Y-94751000D01*
X221950142Y-94679571D01*
X222093000Y-94679571D01*
X223735857Y-95679571D02*
X223735857Y-94179571D01*
X224235857Y-95251000D01*
X224735857Y-94179571D01*
X224735857Y-95679571D01*
X226093000Y-95679571D02*
X226093000Y-94893857D01*
X226021571Y-94751000D01*
X225878714Y-94679571D01*
X225593000Y-94679571D01*
X225450142Y-94751000D01*
X226093000Y-95608142D02*
X225950142Y-95679571D01*
X225593000Y-95679571D01*
X225450142Y-95608142D01*
X225378714Y-95465285D01*
X225378714Y-95322428D01*
X225450142Y-95179571D01*
X225593000Y-95108142D01*
X225950142Y-95108142D01*
X226093000Y-95036714D01*
X226735857Y-95608142D02*
X226878714Y-95679571D01*
X227164428Y-95679571D01*
X227307285Y-95608142D01*
X227378714Y-95465285D01*
X227378714Y-95393857D01*
X227307285Y-95251000D01*
X227164428Y-95179571D01*
X226950142Y-95179571D01*
X226807285Y-95108142D01*
X226735857Y-94965285D01*
X226735857Y-94893857D01*
X226807285Y-94751000D01*
X226950142Y-94679571D01*
X227164428Y-94679571D01*
X227307285Y-94751000D01*
X228021571Y-95679571D02*
X228021571Y-94179571D01*
X228164428Y-95108142D02*
X228593000Y-95679571D01*
X228593000Y-94679571D02*
X228021571Y-95251000D01*
D10*
G36*
X164440453Y-115483274D02*
G01*
X164456753Y-115488219D01*
X164471775Y-115496249D01*
X164484944Y-115507056D01*
X164495751Y-115520225D01*
X164503781Y-115535247D01*
X164508726Y-115551547D01*
X164511000Y-115574640D01*
X164511000Y-117337360D01*
X164508726Y-117360453D01*
X164503781Y-117376753D01*
X164495751Y-117391775D01*
X164484944Y-117404944D01*
X164471775Y-117415751D01*
X164456753Y-117423781D01*
X164440453Y-117428726D01*
X164417360Y-117431000D01*
X164004640Y-117431000D01*
X163981547Y-117428726D01*
X163965247Y-117423781D01*
X163950225Y-117415751D01*
X163937056Y-117404944D01*
X163926249Y-117391775D01*
X163918219Y-117376753D01*
X163913274Y-117360453D01*
X163911000Y-117337360D01*
X163911000Y-115574640D01*
X163913274Y-115551547D01*
X163918219Y-115535247D01*
X163926249Y-115520225D01*
X163937056Y-115507056D01*
X163950225Y-115496249D01*
X163965247Y-115488219D01*
X163981547Y-115483274D01*
X164004640Y-115481000D01*
X164417360Y-115481000D01*
X164440453Y-115483274D01*
G37*
G36*
X161900453Y-115483274D02*
G01*
X161916753Y-115488219D01*
X161931775Y-115496249D01*
X161944944Y-115507056D01*
X161955751Y-115520225D01*
X161963781Y-115535247D01*
X161968726Y-115551547D01*
X161971000Y-115574640D01*
X161971000Y-117337360D01*
X161968726Y-117360453D01*
X161963781Y-117376753D01*
X161955751Y-117391775D01*
X161944944Y-117404944D01*
X161931775Y-117415751D01*
X161916753Y-117423781D01*
X161900453Y-117428726D01*
X161877360Y-117431000D01*
X161464640Y-117431000D01*
X161441547Y-117428726D01*
X161425247Y-117423781D01*
X161410225Y-117415751D01*
X161397056Y-117404944D01*
X161386249Y-117391775D01*
X161378219Y-117376753D01*
X161373274Y-117360453D01*
X161371000Y-117337360D01*
X161371000Y-115574640D01*
X161373274Y-115551547D01*
X161378219Y-115535247D01*
X161386249Y-115520225D01*
X161397056Y-115507056D01*
X161410225Y-115496249D01*
X161425247Y-115488219D01*
X161441547Y-115483274D01*
X161464640Y-115481000D01*
X161877360Y-115481000D01*
X161900453Y-115483274D01*
G37*
G36*
X160630453Y-115483274D02*
G01*
X160646753Y-115488219D01*
X160661775Y-115496249D01*
X160674944Y-115507056D01*
X160685751Y-115520225D01*
X160693781Y-115535247D01*
X160698726Y-115551547D01*
X160701000Y-115574640D01*
X160701000Y-117337360D01*
X160698726Y-117360453D01*
X160693781Y-117376753D01*
X160685751Y-117391775D01*
X160674944Y-117404944D01*
X160661775Y-117415751D01*
X160646753Y-117423781D01*
X160630453Y-117428726D01*
X160607360Y-117431000D01*
X160194640Y-117431000D01*
X160171547Y-117428726D01*
X160155247Y-117423781D01*
X160140225Y-117415751D01*
X160127056Y-117404944D01*
X160116249Y-117391775D01*
X160108219Y-117376753D01*
X160103274Y-117360453D01*
X160101000Y-117337360D01*
X160101000Y-115574640D01*
X160103274Y-115551547D01*
X160108219Y-115535247D01*
X160116249Y-115520225D01*
X160127056Y-115507056D01*
X160140225Y-115496249D01*
X160155247Y-115488219D01*
X160171547Y-115483274D01*
X160194640Y-115481000D01*
X160607360Y-115481000D01*
X160630453Y-115483274D01*
G37*
G36*
X159360453Y-115483274D02*
G01*
X159376753Y-115488219D01*
X159391775Y-115496249D01*
X159404944Y-115507056D01*
X159415751Y-115520225D01*
X159423781Y-115535247D01*
X159428726Y-115551547D01*
X159431000Y-115574640D01*
X159431000Y-117337360D01*
X159428726Y-117360453D01*
X159423781Y-117376753D01*
X159415751Y-117391775D01*
X159404944Y-117404944D01*
X159391775Y-117415751D01*
X159376753Y-117423781D01*
X159360453Y-117428726D01*
X159337360Y-117431000D01*
X158924640Y-117431000D01*
X158901547Y-117428726D01*
X158885247Y-117423781D01*
X158870225Y-117415751D01*
X158857056Y-117404944D01*
X158846249Y-117391775D01*
X158838219Y-117376753D01*
X158833274Y-117360453D01*
X158831000Y-117337360D01*
X158831000Y-115574640D01*
X158833274Y-115551547D01*
X158838219Y-115535247D01*
X158846249Y-115520225D01*
X158857056Y-115507056D01*
X158870225Y-115496249D01*
X158885247Y-115488219D01*
X158901547Y-115483274D01*
X158924640Y-115481000D01*
X159337360Y-115481000D01*
X159360453Y-115483274D01*
G37*
G36*
X158090453Y-115483274D02*
G01*
X158106753Y-115488219D01*
X158121775Y-115496249D01*
X158134944Y-115507056D01*
X158145751Y-115520225D01*
X158153781Y-115535247D01*
X158158726Y-115551547D01*
X158161000Y-115574640D01*
X158161000Y-117337360D01*
X158158726Y-117360453D01*
X158153781Y-117376753D01*
X158145751Y-117391775D01*
X158134944Y-117404944D01*
X158121775Y-117415751D01*
X158106753Y-117423781D01*
X158090453Y-117428726D01*
X158067360Y-117431000D01*
X157654640Y-117431000D01*
X157631547Y-117428726D01*
X157615247Y-117423781D01*
X157600225Y-117415751D01*
X157587056Y-117404944D01*
X157576249Y-117391775D01*
X157568219Y-117376753D01*
X157563274Y-117360453D01*
X157561000Y-117337360D01*
X157561000Y-115574640D01*
X157563274Y-115551547D01*
X157568219Y-115535247D01*
X157576249Y-115520225D01*
X157587056Y-115507056D01*
X157600225Y-115496249D01*
X157615247Y-115488219D01*
X157631547Y-115483274D01*
X157654640Y-115481000D01*
X158067360Y-115481000D01*
X158090453Y-115483274D01*
G37*
G36*
X156820453Y-115483274D02*
G01*
X156836753Y-115488219D01*
X156851775Y-115496249D01*
X156864944Y-115507056D01*
X156875751Y-115520225D01*
X156883781Y-115535247D01*
X156888726Y-115551547D01*
X156891000Y-115574640D01*
X156891000Y-117337360D01*
X156888726Y-117360453D01*
X156883781Y-117376753D01*
X156875751Y-117391775D01*
X156864944Y-117404944D01*
X156851775Y-117415751D01*
X156836753Y-117423781D01*
X156820453Y-117428726D01*
X156797360Y-117431000D01*
X156384640Y-117431000D01*
X156361547Y-117428726D01*
X156345247Y-117423781D01*
X156330225Y-117415751D01*
X156317056Y-117404944D01*
X156306249Y-117391775D01*
X156298219Y-117376753D01*
X156293274Y-117360453D01*
X156291000Y-117337360D01*
X156291000Y-115574640D01*
X156293274Y-115551547D01*
X156298219Y-115535247D01*
X156306249Y-115520225D01*
X156317056Y-115507056D01*
X156330225Y-115496249D01*
X156345247Y-115488219D01*
X156361547Y-115483274D01*
X156384640Y-115481000D01*
X156797360Y-115481000D01*
X156820453Y-115483274D01*
G37*
G36*
X163170453Y-115483274D02*
G01*
X163186753Y-115488219D01*
X163201775Y-115496249D01*
X163214944Y-115507056D01*
X163225751Y-115520225D01*
X163233781Y-115535247D01*
X163238726Y-115551547D01*
X163241000Y-115574640D01*
X163241000Y-117337360D01*
X163238726Y-117360453D01*
X163233781Y-117376753D01*
X163225751Y-117391775D01*
X163214944Y-117404944D01*
X163201775Y-117415751D01*
X163186753Y-117423781D01*
X163170453Y-117428726D01*
X163147360Y-117431000D01*
X162734640Y-117431000D01*
X162711547Y-117428726D01*
X162695247Y-117423781D01*
X162680225Y-117415751D01*
X162667056Y-117404944D01*
X162656249Y-117391775D01*
X162648219Y-117376753D01*
X162643274Y-117360453D01*
X162641000Y-117337360D01*
X162641000Y-115574640D01*
X162643274Y-115551547D01*
X162648219Y-115535247D01*
X162656249Y-115520225D01*
X162667056Y-115507056D01*
X162680225Y-115496249D01*
X162695247Y-115488219D01*
X162711547Y-115483274D01*
X162734640Y-115481000D01*
X163147360Y-115481000D01*
X163170453Y-115483274D01*
G37*
G36*
X127233351Y-113276743D02*
G01*
X127378941Y-113337048D01*
X127509970Y-113424599D01*
X127621401Y-113536030D01*
X127708952Y-113667059D01*
X127769257Y-113812649D01*
X127800000Y-113967206D01*
X127800000Y-114124794D01*
X127769257Y-114279351D01*
X127708952Y-114424941D01*
X127621401Y-114555970D01*
X127509970Y-114667401D01*
X127378941Y-114754952D01*
X127233351Y-114815257D01*
X127078794Y-114846000D01*
X126921206Y-114846000D01*
X126766649Y-114815257D01*
X126621059Y-114754952D01*
X126490030Y-114667401D01*
X126378599Y-114555970D01*
X126291048Y-114424941D01*
X126230743Y-114279351D01*
X126200000Y-114124794D01*
X126200000Y-113967206D01*
X126230743Y-113812649D01*
X126291048Y-113667059D01*
X126378599Y-113536030D01*
X126490030Y-113424599D01*
X126621059Y-113337048D01*
X126766649Y-113276743D01*
X126921206Y-113246000D01*
X127078794Y-113246000D01*
X127233351Y-113276743D01*
G37*
G36*
X107480000Y-114846000D02*
G01*
X105880000Y-114846000D01*
X105880000Y-113246000D01*
X107480000Y-113246000D01*
X107480000Y-114846000D01*
G37*
G36*
X109453351Y-113276743D02*
G01*
X109598941Y-113337048D01*
X109729970Y-113424599D01*
X109841401Y-113536030D01*
X109928952Y-113667059D01*
X109989257Y-113812649D01*
X110020000Y-113967206D01*
X110020000Y-114124794D01*
X109989257Y-114279351D01*
X109928952Y-114424941D01*
X109841401Y-114555970D01*
X109729970Y-114667401D01*
X109598941Y-114754952D01*
X109453351Y-114815257D01*
X109298794Y-114846000D01*
X109141206Y-114846000D01*
X108986649Y-114815257D01*
X108841059Y-114754952D01*
X108710030Y-114667401D01*
X108598599Y-114555970D01*
X108511048Y-114424941D01*
X108450743Y-114279351D01*
X108420000Y-114124794D01*
X108420000Y-113967206D01*
X108450743Y-113812649D01*
X108511048Y-113667059D01*
X108598599Y-113536030D01*
X108710030Y-113424599D01*
X108841059Y-113337048D01*
X108986649Y-113276743D01*
X109141206Y-113246000D01*
X109298794Y-113246000D01*
X109453351Y-113276743D01*
G37*
G36*
X111993351Y-113276743D02*
G01*
X112138941Y-113337048D01*
X112269970Y-113424599D01*
X112381401Y-113536030D01*
X112468952Y-113667059D01*
X112529257Y-113812649D01*
X112560000Y-113967206D01*
X112560000Y-114124794D01*
X112529257Y-114279351D01*
X112468952Y-114424941D01*
X112381401Y-114555970D01*
X112269970Y-114667401D01*
X112138941Y-114754952D01*
X111993351Y-114815257D01*
X111838794Y-114846000D01*
X111681206Y-114846000D01*
X111526649Y-114815257D01*
X111381059Y-114754952D01*
X111250030Y-114667401D01*
X111138599Y-114555970D01*
X111051048Y-114424941D01*
X110990743Y-114279351D01*
X110960000Y-114124794D01*
X110960000Y-113967206D01*
X110990743Y-113812649D01*
X111051048Y-113667059D01*
X111138599Y-113536030D01*
X111250030Y-113424599D01*
X111381059Y-113337048D01*
X111526649Y-113276743D01*
X111681206Y-113246000D01*
X111838794Y-113246000D01*
X111993351Y-113276743D01*
G37*
G36*
X114533351Y-113276743D02*
G01*
X114678941Y-113337048D01*
X114809970Y-113424599D01*
X114921401Y-113536030D01*
X115008952Y-113667059D01*
X115069257Y-113812649D01*
X115100000Y-113967206D01*
X115100000Y-114124794D01*
X115069257Y-114279351D01*
X115008952Y-114424941D01*
X114921401Y-114555970D01*
X114809970Y-114667401D01*
X114678941Y-114754952D01*
X114533351Y-114815257D01*
X114378794Y-114846000D01*
X114221206Y-114846000D01*
X114066649Y-114815257D01*
X113921059Y-114754952D01*
X113790030Y-114667401D01*
X113678599Y-114555970D01*
X113591048Y-114424941D01*
X113530743Y-114279351D01*
X113500000Y-114124794D01*
X113500000Y-113967206D01*
X113530743Y-113812649D01*
X113591048Y-113667059D01*
X113678599Y-113536030D01*
X113790030Y-113424599D01*
X113921059Y-113337048D01*
X114066649Y-113276743D01*
X114221206Y-113246000D01*
X114378794Y-113246000D01*
X114533351Y-113276743D01*
G37*
G36*
X117073351Y-113276743D02*
G01*
X117218941Y-113337048D01*
X117349970Y-113424599D01*
X117461401Y-113536030D01*
X117548952Y-113667059D01*
X117609257Y-113812649D01*
X117640000Y-113967206D01*
X117640000Y-114124794D01*
X117609257Y-114279351D01*
X117548952Y-114424941D01*
X117461401Y-114555970D01*
X117349970Y-114667401D01*
X117218941Y-114754952D01*
X117073351Y-114815257D01*
X116918794Y-114846000D01*
X116761206Y-114846000D01*
X116606649Y-114815257D01*
X116461059Y-114754952D01*
X116330030Y-114667401D01*
X116218599Y-114555970D01*
X116131048Y-114424941D01*
X116070743Y-114279351D01*
X116040000Y-114124794D01*
X116040000Y-113967206D01*
X116070743Y-113812649D01*
X116131048Y-113667059D01*
X116218599Y-113536030D01*
X116330030Y-113424599D01*
X116461059Y-113337048D01*
X116606649Y-113276743D01*
X116761206Y-113246000D01*
X116918794Y-113246000D01*
X117073351Y-113276743D01*
G37*
G36*
X119613351Y-113276743D02*
G01*
X119758941Y-113337048D01*
X119889970Y-113424599D01*
X120001401Y-113536030D01*
X120088952Y-113667059D01*
X120149257Y-113812649D01*
X120180000Y-113967206D01*
X120180000Y-114124794D01*
X120149257Y-114279351D01*
X120088952Y-114424941D01*
X120001401Y-114555970D01*
X119889970Y-114667401D01*
X119758941Y-114754952D01*
X119613351Y-114815257D01*
X119458794Y-114846000D01*
X119301206Y-114846000D01*
X119146649Y-114815257D01*
X119001059Y-114754952D01*
X118870030Y-114667401D01*
X118758599Y-114555970D01*
X118671048Y-114424941D01*
X118610743Y-114279351D01*
X118580000Y-114124794D01*
X118580000Y-113967206D01*
X118610743Y-113812649D01*
X118671048Y-113667059D01*
X118758599Y-113536030D01*
X118870030Y-113424599D01*
X119001059Y-113337048D01*
X119146649Y-113276743D01*
X119301206Y-113246000D01*
X119458794Y-113246000D01*
X119613351Y-113276743D01*
G37*
G36*
X122153351Y-113276743D02*
G01*
X122298941Y-113337048D01*
X122429970Y-113424599D01*
X122541401Y-113536030D01*
X122628952Y-113667059D01*
X122689257Y-113812649D01*
X122720000Y-113967206D01*
X122720000Y-114124794D01*
X122689257Y-114279351D01*
X122628952Y-114424941D01*
X122541401Y-114555970D01*
X122429970Y-114667401D01*
X122298941Y-114754952D01*
X122153351Y-114815257D01*
X121998794Y-114846000D01*
X121841206Y-114846000D01*
X121686649Y-114815257D01*
X121541059Y-114754952D01*
X121410030Y-114667401D01*
X121298599Y-114555970D01*
X121211048Y-114424941D01*
X121150743Y-114279351D01*
X121120000Y-114124794D01*
X121120000Y-113967206D01*
X121150743Y-113812649D01*
X121211048Y-113667059D01*
X121298599Y-113536030D01*
X121410030Y-113424599D01*
X121541059Y-113337048D01*
X121686649Y-113276743D01*
X121841206Y-113246000D01*
X121998794Y-113246000D01*
X122153351Y-113276743D01*
G37*
G36*
X124693351Y-113276743D02*
G01*
X124838941Y-113337048D01*
X124969970Y-113424599D01*
X125081401Y-113536030D01*
X125168952Y-113667059D01*
X125229257Y-113812649D01*
X125260000Y-113967206D01*
X125260000Y-114124794D01*
X125229257Y-114279351D01*
X125168952Y-114424941D01*
X125081401Y-114555970D01*
X124969970Y-114667401D01*
X124838941Y-114754952D01*
X124693351Y-114815257D01*
X124538794Y-114846000D01*
X124381206Y-114846000D01*
X124226649Y-114815257D01*
X124081059Y-114754952D01*
X123950030Y-114667401D01*
X123838599Y-114555970D01*
X123751048Y-114424941D01*
X123690743Y-114279351D01*
X123660000Y-114124794D01*
X123660000Y-113967206D01*
X123690743Y-113812649D01*
X123751048Y-113667059D01*
X123838599Y-113536030D01*
X123950030Y-113424599D01*
X124081059Y-113337048D01*
X124226649Y-113276743D01*
X124381206Y-113246000D01*
X124538794Y-113246000D01*
X124693351Y-113276743D01*
G37*
G36*
X129773351Y-113276743D02*
G01*
X129918941Y-113337048D01*
X130049970Y-113424599D01*
X130161401Y-113536030D01*
X130248952Y-113667059D01*
X130309257Y-113812649D01*
X130340000Y-113967206D01*
X130340000Y-114124794D01*
X130309257Y-114279351D01*
X130248952Y-114424941D01*
X130161401Y-114555970D01*
X130049970Y-114667401D01*
X129918941Y-114754952D01*
X129773351Y-114815257D01*
X129618794Y-114846000D01*
X129461206Y-114846000D01*
X129306649Y-114815257D01*
X129161059Y-114754952D01*
X129030030Y-114667401D01*
X128918599Y-114555970D01*
X128831048Y-114424941D01*
X128770743Y-114279351D01*
X128740000Y-114124794D01*
X128740000Y-113967206D01*
X128770743Y-113812649D01*
X128831048Y-113667059D01*
X128918599Y-113536030D01*
X129030030Y-113424599D01*
X129161059Y-113337048D01*
X129306649Y-113276743D01*
X129461206Y-113246000D01*
X129618794Y-113246000D01*
X129773351Y-113276743D01*
G37*
G36*
X132313351Y-113276743D02*
G01*
X132458941Y-113337048D01*
X132589970Y-113424599D01*
X132701401Y-113536030D01*
X132788952Y-113667059D01*
X132849257Y-113812649D01*
X132880000Y-113967206D01*
X132880000Y-114124794D01*
X132849257Y-114279351D01*
X132788952Y-114424941D01*
X132701401Y-114555970D01*
X132589970Y-114667401D01*
X132458941Y-114754952D01*
X132313351Y-114815257D01*
X132158794Y-114846000D01*
X132001206Y-114846000D01*
X131846649Y-114815257D01*
X131701059Y-114754952D01*
X131570030Y-114667401D01*
X131458599Y-114555970D01*
X131371048Y-114424941D01*
X131310743Y-114279351D01*
X131280000Y-114124794D01*
X131280000Y-113967206D01*
X131310743Y-113812649D01*
X131371048Y-113667059D01*
X131458599Y-113536030D01*
X131570030Y-113424599D01*
X131701059Y-113337048D01*
X131846649Y-113276743D01*
X132001206Y-113246000D01*
X132158794Y-113246000D01*
X132313351Y-113276743D01*
G37*
G36*
X134853351Y-113276743D02*
G01*
X134998941Y-113337048D01*
X135129970Y-113424599D01*
X135241401Y-113536030D01*
X135328952Y-113667059D01*
X135389257Y-113812649D01*
X135420000Y-113967206D01*
X135420000Y-114124794D01*
X135389257Y-114279351D01*
X135328952Y-114424941D01*
X135241401Y-114555970D01*
X135129970Y-114667401D01*
X134998941Y-114754952D01*
X134853351Y-114815257D01*
X134698794Y-114846000D01*
X134541206Y-114846000D01*
X134386649Y-114815257D01*
X134241059Y-114754952D01*
X134110030Y-114667401D01*
X133998599Y-114555970D01*
X133911048Y-114424941D01*
X133850743Y-114279351D01*
X133820000Y-114124794D01*
X133820000Y-113967206D01*
X133850743Y-113812649D01*
X133911048Y-113667059D01*
X133998599Y-113536030D01*
X134110030Y-113424599D01*
X134241059Y-113337048D01*
X134386649Y-113276743D01*
X134541206Y-113246000D01*
X134698794Y-113246000D01*
X134853351Y-113276743D01*
G37*
G36*
X137393351Y-113276743D02*
G01*
X137538941Y-113337048D01*
X137669970Y-113424599D01*
X137781401Y-113536030D01*
X137868952Y-113667059D01*
X137929257Y-113812649D01*
X137960000Y-113967206D01*
X137960000Y-114124794D01*
X137929257Y-114279351D01*
X137868952Y-114424941D01*
X137781401Y-114555970D01*
X137669970Y-114667401D01*
X137538941Y-114754952D01*
X137393351Y-114815257D01*
X137238794Y-114846000D01*
X137081206Y-114846000D01*
X136926649Y-114815257D01*
X136781059Y-114754952D01*
X136650030Y-114667401D01*
X136538599Y-114555970D01*
X136451048Y-114424941D01*
X136390743Y-114279351D01*
X136360000Y-114124794D01*
X136360000Y-113967206D01*
X136390743Y-113812649D01*
X136451048Y-113667059D01*
X136538599Y-113536030D01*
X136650030Y-113424599D01*
X136781059Y-113337048D01*
X136926649Y-113276743D01*
X137081206Y-113246000D01*
X137238794Y-113246000D01*
X137393351Y-113276743D01*
G37*
G36*
X139933351Y-113276743D02*
G01*
X140078941Y-113337048D01*
X140209970Y-113424599D01*
X140321401Y-113536030D01*
X140408952Y-113667059D01*
X140469257Y-113812649D01*
X140500000Y-113967206D01*
X140500000Y-114124794D01*
X140469257Y-114279351D01*
X140408952Y-114424941D01*
X140321401Y-114555970D01*
X140209970Y-114667401D01*
X140078941Y-114754952D01*
X139933351Y-114815257D01*
X139778794Y-114846000D01*
X139621206Y-114846000D01*
X139466649Y-114815257D01*
X139321059Y-114754952D01*
X139190030Y-114667401D01*
X139078599Y-114555970D01*
X138991048Y-114424941D01*
X138930743Y-114279351D01*
X138900000Y-114124794D01*
X138900000Y-113967206D01*
X138930743Y-113812649D01*
X138991048Y-113667059D01*
X139078599Y-113536030D01*
X139190030Y-113424599D01*
X139321059Y-113337048D01*
X139466649Y-113276743D01*
X139621206Y-113246000D01*
X139778794Y-113246000D01*
X139933351Y-113276743D01*
G37*
G36*
X142473351Y-113276743D02*
G01*
X142618941Y-113337048D01*
X142749970Y-113424599D01*
X142861401Y-113536030D01*
X142948952Y-113667059D01*
X143009257Y-113812649D01*
X143040000Y-113967206D01*
X143040000Y-114124794D01*
X143009257Y-114279351D01*
X142948952Y-114424941D01*
X142861401Y-114555970D01*
X142749970Y-114667401D01*
X142618941Y-114754952D01*
X142473351Y-114815257D01*
X142318794Y-114846000D01*
X142161206Y-114846000D01*
X142006649Y-114815257D01*
X141861059Y-114754952D01*
X141730030Y-114667401D01*
X141618599Y-114555970D01*
X141531048Y-114424941D01*
X141470743Y-114279351D01*
X141440000Y-114124794D01*
X141440000Y-113967206D01*
X141470743Y-113812649D01*
X141531048Y-113667059D01*
X141618599Y-113536030D01*
X141730030Y-113424599D01*
X141861059Y-113337048D01*
X142006649Y-113276743D01*
X142161206Y-113246000D01*
X142318794Y-113246000D01*
X142473351Y-113276743D01*
G37*
G36*
X145013351Y-113276743D02*
G01*
X145158941Y-113337048D01*
X145289970Y-113424599D01*
X145401401Y-113536030D01*
X145488952Y-113667059D01*
X145549257Y-113812649D01*
X145580000Y-113967206D01*
X145580000Y-114124794D01*
X145549257Y-114279351D01*
X145488952Y-114424941D01*
X145401401Y-114555970D01*
X145289970Y-114667401D01*
X145158941Y-114754952D01*
X145013351Y-114815257D01*
X144858794Y-114846000D01*
X144701206Y-114846000D01*
X144546649Y-114815257D01*
X144401059Y-114754952D01*
X144270030Y-114667401D01*
X144158599Y-114555970D01*
X144071048Y-114424941D01*
X144010743Y-114279351D01*
X143980000Y-114124794D01*
X143980000Y-113967206D01*
X144010743Y-113812649D01*
X144071048Y-113667059D01*
X144158599Y-113536030D01*
X144270030Y-113424599D01*
X144401059Y-113337048D01*
X144546649Y-113276743D01*
X144701206Y-113246000D01*
X144858794Y-113246000D01*
X145013351Y-113276743D01*
G37*
G36*
X149870000Y-114732000D02*
G01*
X149220000Y-114732000D01*
X149220000Y-113172000D01*
X149870000Y-113172000D01*
X149870000Y-114732000D01*
G37*
G36*
X150820000Y-114732000D02*
G01*
X150170000Y-114732000D01*
X150170000Y-113172000D01*
X150820000Y-113172000D01*
X150820000Y-114732000D01*
G37*
G36*
X151770000Y-114732000D02*
G01*
X151120000Y-114732000D01*
X151120000Y-113172000D01*
X151770000Y-113172000D01*
X151770000Y-114732000D01*
G37*
G36*
X163170453Y-110533274D02*
G01*
X163186753Y-110538219D01*
X163201775Y-110546249D01*
X163214944Y-110557056D01*
X163225751Y-110570225D01*
X163233781Y-110585247D01*
X163238726Y-110601547D01*
X163241000Y-110624640D01*
X163241000Y-112387360D01*
X163238726Y-112410453D01*
X163233781Y-112426753D01*
X163225751Y-112441775D01*
X163214944Y-112454944D01*
X163201775Y-112465751D01*
X163186753Y-112473781D01*
X163170453Y-112478726D01*
X163147360Y-112481000D01*
X162734640Y-112481000D01*
X162711547Y-112478726D01*
X162695247Y-112473781D01*
X162680225Y-112465751D01*
X162667056Y-112454944D01*
X162656249Y-112441775D01*
X162648219Y-112426753D01*
X162643274Y-112410453D01*
X162641000Y-112387360D01*
X162641000Y-110624640D01*
X162643274Y-110601547D01*
X162648219Y-110585247D01*
X162656249Y-110570225D01*
X162667056Y-110557056D01*
X162680225Y-110546249D01*
X162695247Y-110538219D01*
X162711547Y-110533274D01*
X162734640Y-110531000D01*
X163147360Y-110531000D01*
X163170453Y-110533274D01*
G37*
G36*
X160630453Y-110533274D02*
G01*
X160646753Y-110538219D01*
X160661775Y-110546249D01*
X160674944Y-110557056D01*
X160685751Y-110570225D01*
X160693781Y-110585247D01*
X160698726Y-110601547D01*
X160701000Y-110624640D01*
X160701000Y-112387360D01*
X160698726Y-112410453D01*
X160693781Y-112426753D01*
X160685751Y-112441775D01*
X160674944Y-112454944D01*
X160661775Y-112465751D01*
X160646753Y-112473781D01*
X160630453Y-112478726D01*
X160607360Y-112481000D01*
X160194640Y-112481000D01*
X160171547Y-112478726D01*
X160155247Y-112473781D01*
X160140225Y-112465751D01*
X160127056Y-112454944D01*
X160116249Y-112441775D01*
X160108219Y-112426753D01*
X160103274Y-112410453D01*
X160101000Y-112387360D01*
X160101000Y-110624640D01*
X160103274Y-110601547D01*
X160108219Y-110585247D01*
X160116249Y-110570225D01*
X160127056Y-110557056D01*
X160140225Y-110546249D01*
X160155247Y-110538219D01*
X160171547Y-110533274D01*
X160194640Y-110531000D01*
X160607360Y-110531000D01*
X160630453Y-110533274D01*
G37*
G36*
X159360453Y-110533274D02*
G01*
X159376753Y-110538219D01*
X159391775Y-110546249D01*
X159404944Y-110557056D01*
X159415751Y-110570225D01*
X159423781Y-110585247D01*
X159428726Y-110601547D01*
X159431000Y-110624640D01*
X159431000Y-112387360D01*
X159428726Y-112410453D01*
X159423781Y-112426753D01*
X159415751Y-112441775D01*
X159404944Y-112454944D01*
X159391775Y-112465751D01*
X159376753Y-112473781D01*
X159360453Y-112478726D01*
X159337360Y-112481000D01*
X158924640Y-112481000D01*
X158901547Y-112478726D01*
X158885247Y-112473781D01*
X158870225Y-112465751D01*
X158857056Y-112454944D01*
X158846249Y-112441775D01*
X158838219Y-112426753D01*
X158833274Y-112410453D01*
X158831000Y-112387360D01*
X158831000Y-110624640D01*
X158833274Y-110601547D01*
X158838219Y-110585247D01*
X158846249Y-110570225D01*
X158857056Y-110557056D01*
X158870225Y-110546249D01*
X158885247Y-110538219D01*
X158901547Y-110533274D01*
X158924640Y-110531000D01*
X159337360Y-110531000D01*
X159360453Y-110533274D01*
G37*
G36*
X156820453Y-110533274D02*
G01*
X156836753Y-110538219D01*
X156851775Y-110546249D01*
X156864944Y-110557056D01*
X156875751Y-110570225D01*
X156883781Y-110585247D01*
X156888726Y-110601547D01*
X156891000Y-110624640D01*
X156891000Y-112387360D01*
X156888726Y-112410453D01*
X156883781Y-112426753D01*
X156875751Y-112441775D01*
X156864944Y-112454944D01*
X156851775Y-112465751D01*
X156836753Y-112473781D01*
X156820453Y-112478726D01*
X156797360Y-112481000D01*
X156384640Y-112481000D01*
X156361547Y-112478726D01*
X156345247Y-112473781D01*
X156330225Y-112465751D01*
X156317056Y-112454944D01*
X156306249Y-112441775D01*
X156298219Y-112426753D01*
X156293274Y-112410453D01*
X156291000Y-112387360D01*
X156291000Y-110624640D01*
X156293274Y-110601547D01*
X156298219Y-110585247D01*
X156306249Y-110570225D01*
X156317056Y-110557056D01*
X156330225Y-110546249D01*
X156345247Y-110538219D01*
X156361547Y-110533274D01*
X156384640Y-110531000D01*
X156797360Y-110531000D01*
X156820453Y-110533274D01*
G37*
G36*
X161900453Y-110533274D02*
G01*
X161916753Y-110538219D01*
X161931775Y-110546249D01*
X161944944Y-110557056D01*
X161955751Y-110570225D01*
X161963781Y-110585247D01*
X161968726Y-110601547D01*
X161971000Y-110624640D01*
X161971000Y-112387360D01*
X161968726Y-112410453D01*
X161963781Y-112426753D01*
X161955751Y-112441775D01*
X161944944Y-112454944D01*
X161931775Y-112465751D01*
X161916753Y-112473781D01*
X161900453Y-112478726D01*
X161877360Y-112481000D01*
X161464640Y-112481000D01*
X161441547Y-112478726D01*
X161425247Y-112473781D01*
X161410225Y-112465751D01*
X161397056Y-112454944D01*
X161386249Y-112441775D01*
X161378219Y-112426753D01*
X161373274Y-112410453D01*
X161371000Y-112387360D01*
X161371000Y-110624640D01*
X161373274Y-110601547D01*
X161378219Y-110585247D01*
X161386249Y-110570225D01*
X161397056Y-110557056D01*
X161410225Y-110546249D01*
X161425247Y-110538219D01*
X161441547Y-110533274D01*
X161464640Y-110531000D01*
X161877360Y-110531000D01*
X161900453Y-110533274D01*
G37*
G36*
X164440453Y-110533274D02*
G01*
X164456753Y-110538219D01*
X164471775Y-110546249D01*
X164484944Y-110557056D01*
X164495751Y-110570225D01*
X164503781Y-110585247D01*
X164508726Y-110601547D01*
X164511000Y-110624640D01*
X164511000Y-112387360D01*
X164508726Y-112410453D01*
X164503781Y-112426753D01*
X164495751Y-112441775D01*
X164484944Y-112454944D01*
X164471775Y-112465751D01*
X164456753Y-112473781D01*
X164440453Y-112478726D01*
X164417360Y-112481000D01*
X164004640Y-112481000D01*
X163981547Y-112478726D01*
X163965247Y-112473781D01*
X163950225Y-112465751D01*
X163937056Y-112454944D01*
X163926249Y-112441775D01*
X163918219Y-112426753D01*
X163913274Y-112410453D01*
X163911000Y-112387360D01*
X163911000Y-110624640D01*
X163913274Y-110601547D01*
X163918219Y-110585247D01*
X163926249Y-110570225D01*
X163937056Y-110557056D01*
X163950225Y-110546249D01*
X163965247Y-110538219D01*
X163981547Y-110533274D01*
X164004640Y-110531000D01*
X164417360Y-110531000D01*
X164440453Y-110533274D01*
G37*
G36*
X158090453Y-110533274D02*
G01*
X158106753Y-110538219D01*
X158121775Y-110546249D01*
X158134944Y-110557056D01*
X158145751Y-110570225D01*
X158153781Y-110585247D01*
X158158726Y-110601547D01*
X158161000Y-110624640D01*
X158161000Y-112387360D01*
X158158726Y-112410453D01*
X158153781Y-112426753D01*
X158145751Y-112441775D01*
X158134944Y-112454944D01*
X158121775Y-112465751D01*
X158106753Y-112473781D01*
X158090453Y-112478726D01*
X158067360Y-112481000D01*
X157654640Y-112481000D01*
X157631547Y-112478726D01*
X157615247Y-112473781D01*
X157600225Y-112465751D01*
X157587056Y-112454944D01*
X157576249Y-112441775D01*
X157568219Y-112426753D01*
X157563274Y-112410453D01*
X157561000Y-112387360D01*
X157561000Y-110624640D01*
X157563274Y-110601547D01*
X157568219Y-110585247D01*
X157576249Y-110570225D01*
X157587056Y-110557056D01*
X157600225Y-110546249D01*
X157615247Y-110538219D01*
X157631547Y-110533274D01*
X157654640Y-110531000D01*
X158067360Y-110531000D01*
X158090453Y-110533274D01*
G37*
G36*
X149870000Y-112032000D02*
G01*
X149220000Y-112032000D01*
X149220000Y-110472000D01*
X149870000Y-110472000D01*
X149870000Y-112032000D01*
G37*
G36*
X150820000Y-112032000D02*
G01*
X150170000Y-112032000D01*
X150170000Y-110472000D01*
X150820000Y-110472000D01*
X150820000Y-112032000D01*
G37*
G36*
X151770000Y-112032000D02*
G01*
X151120000Y-112032000D01*
X151120000Y-110472000D01*
X151770000Y-110472000D01*
X151770000Y-112032000D01*
G37*
G36*
X120337464Y-109872837D02*
G01*
X120369025Y-109882412D01*
X120398120Y-109897963D01*
X120423615Y-109918885D01*
X120444537Y-109944380D01*
X120460088Y-109973475D01*
X120469663Y-110005036D01*
X120473500Y-110043998D01*
X120473500Y-111444002D01*
X120469663Y-111482964D01*
X120460088Y-111514525D01*
X120444537Y-111543620D01*
X120423615Y-111569115D01*
X120398120Y-111590037D01*
X120369025Y-111605588D01*
X120337464Y-111615163D01*
X120298502Y-111619000D01*
X119223498Y-111619000D01*
X119184536Y-111615163D01*
X119152975Y-111605588D01*
X119123880Y-111590037D01*
X119098385Y-111569115D01*
X119077463Y-111543620D01*
X119061912Y-111514525D01*
X119052337Y-111482964D01*
X119048500Y-111444002D01*
X119048500Y-110043998D01*
X119052337Y-110005036D01*
X119061912Y-109973475D01*
X119077463Y-109944380D01*
X119098385Y-109918885D01*
X119123880Y-109897963D01*
X119152975Y-109882412D01*
X119184536Y-109872837D01*
X119223498Y-109869000D01*
X120298502Y-109869000D01*
X120337464Y-109872837D01*
G37*
G36*
X113552464Y-109872837D02*
G01*
X113584025Y-109882412D01*
X113613120Y-109897963D01*
X113638615Y-109918885D01*
X113659537Y-109944380D01*
X113675088Y-109973475D01*
X113684663Y-110005036D01*
X113688500Y-110043998D01*
X113688500Y-111444002D01*
X113684663Y-111482964D01*
X113675088Y-111514525D01*
X113659537Y-111543620D01*
X113638615Y-111569115D01*
X113613120Y-111590037D01*
X113584025Y-111605588D01*
X113552464Y-111615163D01*
X113513502Y-111619000D01*
X112438498Y-111619000D01*
X112399536Y-111615163D01*
X112367975Y-111605588D01*
X112338880Y-111590037D01*
X112313385Y-111569115D01*
X112292463Y-111543620D01*
X112276912Y-111514525D01*
X112267337Y-111482964D01*
X112263500Y-111444002D01*
X112263500Y-110043998D01*
X112267337Y-110005036D01*
X112276912Y-109973475D01*
X112292463Y-109944380D01*
X112313385Y-109918885D01*
X112338880Y-109897963D01*
X112367975Y-109882412D01*
X112399536Y-109872837D01*
X112438498Y-109869000D01*
X113513502Y-109869000D01*
X113552464Y-109872837D01*
G37*
G36*
X123312464Y-109872837D02*
G01*
X123344025Y-109882412D01*
X123373120Y-109897963D01*
X123398615Y-109918885D01*
X123419537Y-109944380D01*
X123435088Y-109973475D01*
X123444663Y-110005036D01*
X123448500Y-110043998D01*
X123448500Y-111444002D01*
X123444663Y-111482964D01*
X123435088Y-111514525D01*
X123419537Y-111543620D01*
X123398615Y-111569115D01*
X123373120Y-111590037D01*
X123344025Y-111605588D01*
X123312464Y-111615163D01*
X123273502Y-111619000D01*
X122198498Y-111619000D01*
X122159536Y-111615163D01*
X122127975Y-111605588D01*
X122098880Y-111590037D01*
X122073385Y-111569115D01*
X122052463Y-111543620D01*
X122036912Y-111514525D01*
X122027337Y-111482964D01*
X122023500Y-111444002D01*
X122023500Y-110043998D01*
X122027337Y-110005036D01*
X122036912Y-109973475D01*
X122052463Y-109944380D01*
X122073385Y-109918885D01*
X122098880Y-109897963D01*
X122127975Y-109882412D01*
X122159536Y-109872837D01*
X122198498Y-109869000D01*
X123273502Y-109869000D01*
X123312464Y-109872837D01*
G37*
G36*
X116527464Y-109872837D02*
G01*
X116559025Y-109882412D01*
X116588120Y-109897963D01*
X116613615Y-109918885D01*
X116634537Y-109944380D01*
X116650088Y-109973475D01*
X116659663Y-110005036D01*
X116663500Y-110043998D01*
X116663500Y-111444002D01*
X116659663Y-111482964D01*
X116650088Y-111514525D01*
X116634537Y-111543620D01*
X116613615Y-111569115D01*
X116588120Y-111590037D01*
X116559025Y-111605588D01*
X116527464Y-111615163D01*
X116488502Y-111619000D01*
X115413498Y-111619000D01*
X115374536Y-111615163D01*
X115342975Y-111605588D01*
X115313880Y-111590037D01*
X115288385Y-111569115D01*
X115267463Y-111543620D01*
X115251912Y-111514525D01*
X115242337Y-111482964D01*
X115238500Y-111444002D01*
X115238500Y-110043998D01*
X115242337Y-110005036D01*
X115251912Y-109973475D01*
X115267463Y-109944380D01*
X115288385Y-109918885D01*
X115313880Y-109897963D01*
X115342975Y-109882412D01*
X115374536Y-109872837D01*
X115413498Y-109869000D01*
X116488502Y-109869000D01*
X116527464Y-109872837D01*
G37*
G36*
X140650000Y-109996000D02*
G01*
X138750000Y-109996000D01*
X138750000Y-109196000D01*
X140650000Y-109196000D01*
X140650000Y-109996000D01*
G37*
G36*
X143650000Y-109046000D02*
G01*
X141750000Y-109046000D01*
X141750000Y-108246000D01*
X143650000Y-108246000D01*
X143650000Y-109046000D01*
G37*
G36*
X160377964Y-107495337D02*
G01*
X160409525Y-107504912D01*
X160438620Y-107520463D01*
X160464115Y-107541385D01*
X160485037Y-107566880D01*
X160500588Y-107595975D01*
X160510163Y-107627536D01*
X160514000Y-107666498D01*
X160514000Y-108741502D01*
X160510163Y-108780464D01*
X160500588Y-108812025D01*
X160485037Y-108841120D01*
X160464115Y-108866615D01*
X160438620Y-108887537D01*
X160409525Y-108903088D01*
X160377964Y-108912663D01*
X160339002Y-108916500D01*
X158938998Y-108916500D01*
X158900036Y-108912663D01*
X158868475Y-108903088D01*
X158839380Y-108887537D01*
X158813885Y-108866615D01*
X158792963Y-108841120D01*
X158777412Y-108812025D01*
X158767837Y-108780464D01*
X158764000Y-108741502D01*
X158764000Y-107666498D01*
X158767837Y-107627536D01*
X158777412Y-107595975D01*
X158792963Y-107566880D01*
X158813885Y-107541385D01*
X158839380Y-107520463D01*
X158868475Y-107504912D01*
X158900036Y-107495337D01*
X158938998Y-107491500D01*
X160339002Y-107491500D01*
X160377964Y-107495337D01*
G37*
G36*
X164441964Y-107495337D02*
G01*
X164473525Y-107504912D01*
X164502620Y-107520463D01*
X164528115Y-107541385D01*
X164549037Y-107566880D01*
X164564588Y-107595975D01*
X164574163Y-107627536D01*
X164578000Y-107666498D01*
X164578000Y-108741502D01*
X164574163Y-108780464D01*
X164564588Y-108812025D01*
X164549037Y-108841120D01*
X164528115Y-108866615D01*
X164502620Y-108887537D01*
X164473525Y-108903088D01*
X164441964Y-108912663D01*
X164403002Y-108916500D01*
X163002998Y-108916500D01*
X162964036Y-108912663D01*
X162932475Y-108903088D01*
X162903380Y-108887537D01*
X162877885Y-108866615D01*
X162856963Y-108841120D01*
X162841412Y-108812025D01*
X162831837Y-108780464D01*
X162828000Y-108741502D01*
X162828000Y-107666498D01*
X162831837Y-107627536D01*
X162841412Y-107595975D01*
X162856963Y-107566880D01*
X162877885Y-107541385D01*
X162903380Y-107520463D01*
X162932475Y-107504912D01*
X162964036Y-107495337D01*
X163002998Y-107491500D01*
X164403002Y-107491500D01*
X164441964Y-107495337D01*
G37*
G36*
X157329964Y-107495337D02*
G01*
X157361525Y-107504912D01*
X157390620Y-107520463D01*
X157416115Y-107541385D01*
X157437037Y-107566880D01*
X157452588Y-107595975D01*
X157462163Y-107627536D01*
X157466000Y-107666498D01*
X157466000Y-108741502D01*
X157462163Y-108780464D01*
X157452588Y-108812025D01*
X157437037Y-108841120D01*
X157416115Y-108866615D01*
X157390620Y-108887537D01*
X157361525Y-108903088D01*
X157329964Y-108912663D01*
X157291002Y-108916500D01*
X155890998Y-108916500D01*
X155852036Y-108912663D01*
X155820475Y-108903088D01*
X155791380Y-108887537D01*
X155765885Y-108866615D01*
X155744963Y-108841120D01*
X155729412Y-108812025D01*
X155719837Y-108780464D01*
X155716000Y-108741502D01*
X155716000Y-107666498D01*
X155719837Y-107627536D01*
X155729412Y-107595975D01*
X155744963Y-107566880D01*
X155765885Y-107541385D01*
X155791380Y-107520463D01*
X155820475Y-107504912D01*
X155852036Y-107495337D01*
X155890998Y-107491500D01*
X157291002Y-107491500D01*
X157329964Y-107495337D01*
G37*
G36*
X147000000Y-108726000D02*
G01*
X145100000Y-108726000D01*
X145100000Y-107926000D01*
X147000000Y-107926000D01*
X147000000Y-108726000D01*
G37*
G36*
X135260000Y-108636000D02*
G01*
X134610000Y-108636000D01*
X134610000Y-107076000D01*
X135260000Y-107076000D01*
X135260000Y-108636000D01*
G37*
G36*
X133360000Y-108636000D02*
G01*
X132710000Y-108636000D01*
X132710000Y-107076000D01*
X133360000Y-107076000D01*
X133360000Y-108636000D01*
G37*
G36*
X134310000Y-108636000D02*
G01*
X133660000Y-108636000D01*
X133660000Y-107076000D01*
X134310000Y-107076000D01*
X134310000Y-108636000D01*
G37*
G36*
X188175000Y-108292000D02*
G01*
X186475000Y-108292000D01*
X186475000Y-106592000D01*
X188175000Y-106592000D01*
X188175000Y-108292000D01*
G37*
G36*
X140650000Y-108096000D02*
G01*
X138750000Y-108096000D01*
X138750000Y-107296000D01*
X140650000Y-107296000D01*
X140650000Y-108096000D01*
G37*
G36*
X150000000Y-107776000D02*
G01*
X148100000Y-107776000D01*
X148100000Y-106976000D01*
X150000000Y-106976000D01*
X150000000Y-107776000D01*
G37*
G36*
X147000000Y-106826000D02*
G01*
X145100000Y-106826000D01*
X145100000Y-106026000D01*
X147000000Y-106026000D01*
X147000000Y-106826000D01*
G37*
G36*
X119060000Y-106821000D02*
G01*
X117160000Y-106821000D01*
X117160000Y-106021000D01*
X119060000Y-106021000D01*
X119060000Y-106821000D01*
G37*
G36*
X164441964Y-104520337D02*
G01*
X164473525Y-104529912D01*
X164502620Y-104545463D01*
X164528115Y-104566385D01*
X164549037Y-104591880D01*
X164564588Y-104620975D01*
X164574163Y-104652536D01*
X164578000Y-104691498D01*
X164578000Y-105766502D01*
X164574163Y-105805464D01*
X164564588Y-105837025D01*
X164549037Y-105866120D01*
X164528115Y-105891615D01*
X164502620Y-105912537D01*
X164473525Y-105928088D01*
X164441964Y-105937663D01*
X164403002Y-105941500D01*
X163002998Y-105941500D01*
X162964036Y-105937663D01*
X162932475Y-105928088D01*
X162903380Y-105912537D01*
X162877885Y-105891615D01*
X162856963Y-105866120D01*
X162841412Y-105837025D01*
X162831837Y-105805464D01*
X162828000Y-105766502D01*
X162828000Y-104691498D01*
X162831837Y-104652536D01*
X162841412Y-104620975D01*
X162856963Y-104591880D01*
X162877885Y-104566385D01*
X162903380Y-104545463D01*
X162932475Y-104529912D01*
X162964036Y-104520337D01*
X163002998Y-104516500D01*
X164403002Y-104516500D01*
X164441964Y-104520337D01*
G37*
G36*
X160377964Y-104520337D02*
G01*
X160409525Y-104529912D01*
X160438620Y-104545463D01*
X160464115Y-104566385D01*
X160485037Y-104591880D01*
X160500588Y-104620975D01*
X160510163Y-104652536D01*
X160514000Y-104691498D01*
X160514000Y-105766502D01*
X160510163Y-105805464D01*
X160500588Y-105837025D01*
X160485037Y-105866120D01*
X160464115Y-105891615D01*
X160438620Y-105912537D01*
X160409525Y-105928088D01*
X160377964Y-105937663D01*
X160339002Y-105941500D01*
X158938998Y-105941500D01*
X158900036Y-105937663D01*
X158868475Y-105928088D01*
X158839380Y-105912537D01*
X158813885Y-105891615D01*
X158792963Y-105866120D01*
X158777412Y-105837025D01*
X158767837Y-105805464D01*
X158764000Y-105766502D01*
X158764000Y-104691498D01*
X158767837Y-104652536D01*
X158777412Y-104620975D01*
X158792963Y-104591880D01*
X158813885Y-104566385D01*
X158839380Y-104545463D01*
X158868475Y-104529912D01*
X158900036Y-104520337D01*
X158938998Y-104516500D01*
X160339002Y-104516500D01*
X160377964Y-104520337D01*
G37*
G36*
X157329964Y-104520337D02*
G01*
X157361525Y-104529912D01*
X157390620Y-104545463D01*
X157416115Y-104566385D01*
X157437037Y-104591880D01*
X157452588Y-104620975D01*
X157462163Y-104652536D01*
X157466000Y-104691498D01*
X157466000Y-105766502D01*
X157462163Y-105805464D01*
X157452588Y-105837025D01*
X157437037Y-105866120D01*
X157416115Y-105891615D01*
X157390620Y-105912537D01*
X157361525Y-105928088D01*
X157329964Y-105937663D01*
X157291002Y-105941500D01*
X155890998Y-105941500D01*
X155852036Y-105937663D01*
X155820475Y-105928088D01*
X155791380Y-105912537D01*
X155765885Y-105891615D01*
X155744963Y-105866120D01*
X155729412Y-105837025D01*
X155719837Y-105805464D01*
X155716000Y-105766502D01*
X155716000Y-104691498D01*
X155719837Y-104652536D01*
X155729412Y-104620975D01*
X155744963Y-104591880D01*
X155765885Y-104566385D01*
X155791380Y-104545463D01*
X155820475Y-104529912D01*
X155852036Y-104520337D01*
X155890998Y-104516500D01*
X157291002Y-104516500D01*
X157329964Y-104520337D01*
G37*
G36*
X134310000Y-105936000D02*
G01*
X133660000Y-105936000D01*
X133660000Y-104376000D01*
X134310000Y-104376000D01*
X134310000Y-105936000D01*
G37*
G36*
X133360000Y-105936000D02*
G01*
X132710000Y-105936000D01*
X132710000Y-104376000D01*
X133360000Y-104376000D01*
X133360000Y-105936000D01*
G37*
G36*
X135260000Y-105936000D02*
G01*
X134610000Y-105936000D01*
X134610000Y-104376000D01*
X135260000Y-104376000D01*
X135260000Y-105936000D01*
G37*
G36*
X122060000Y-105871000D02*
G01*
X120160000Y-105871000D01*
X120160000Y-105071000D01*
X122060000Y-105071000D01*
X122060000Y-105871000D01*
G37*
G36*
X187572935Y-104084664D02*
G01*
X187727624Y-104148739D01*
X187727626Y-104148740D01*
X187866844Y-104241762D01*
X187985238Y-104360156D01*
X188078260Y-104499374D01*
X188078261Y-104499376D01*
X188142336Y-104654065D01*
X188175000Y-104818281D01*
X188175000Y-104985719D01*
X188142336Y-105149935D01*
X188104337Y-105241671D01*
X188078260Y-105304626D01*
X187985238Y-105443844D01*
X187866844Y-105562238D01*
X187727626Y-105655260D01*
X187727625Y-105655261D01*
X187727624Y-105655261D01*
X187572935Y-105719336D01*
X187408719Y-105752000D01*
X187241281Y-105752000D01*
X187077065Y-105719336D01*
X186922376Y-105655261D01*
X186922375Y-105655261D01*
X186922374Y-105655260D01*
X186783156Y-105562238D01*
X186664762Y-105443844D01*
X186571740Y-105304626D01*
X186545663Y-105241671D01*
X186507664Y-105149935D01*
X186475000Y-104985719D01*
X186475000Y-104818281D01*
X186507664Y-104654065D01*
X186571739Y-104499376D01*
X186571740Y-104499374D01*
X186664762Y-104360156D01*
X186783156Y-104241762D01*
X186922374Y-104148740D01*
X186922376Y-104148739D01*
X187077065Y-104084664D01*
X187241281Y-104052000D01*
X187408719Y-104052000D01*
X187572935Y-104084664D01*
G37*
G36*
X180731000Y-105588000D02*
G01*
X180081000Y-105588000D01*
X180081000Y-104028000D01*
X180731000Y-104028000D01*
X180731000Y-105588000D01*
G37*
G36*
X182631000Y-105588000D02*
G01*
X181981000Y-105588000D01*
X181981000Y-104028000D01*
X182631000Y-104028000D01*
X182631000Y-105588000D01*
G37*
G36*
X181681000Y-105588000D02*
G01*
X181031000Y-105588000D01*
X181031000Y-104028000D01*
X181681000Y-104028000D01*
X181681000Y-105588000D01*
G37*
G36*
X111901464Y-103649837D02*
G01*
X111933025Y-103659412D01*
X111962120Y-103674963D01*
X111987615Y-103695885D01*
X112008537Y-103721380D01*
X112024088Y-103750475D01*
X112033663Y-103782036D01*
X112037500Y-103820998D01*
X112037500Y-105221002D01*
X112033663Y-105259964D01*
X112024088Y-105291525D01*
X112008537Y-105320620D01*
X111987615Y-105346115D01*
X111962120Y-105367037D01*
X111933025Y-105382588D01*
X111901464Y-105392163D01*
X111862502Y-105396000D01*
X110787498Y-105396000D01*
X110748536Y-105392163D01*
X110716975Y-105382588D01*
X110687880Y-105367037D01*
X110662385Y-105346115D01*
X110641463Y-105320620D01*
X110625912Y-105291525D01*
X110616337Y-105259964D01*
X110612500Y-105221002D01*
X110612500Y-103820998D01*
X110616337Y-103782036D01*
X110625912Y-103750475D01*
X110641463Y-103721380D01*
X110662385Y-103695885D01*
X110687880Y-103674963D01*
X110716975Y-103659412D01*
X110748536Y-103649837D01*
X110787498Y-103646000D01*
X111862502Y-103646000D01*
X111901464Y-103649837D01*
G37*
G36*
X114876464Y-103649837D02*
G01*
X114908025Y-103659412D01*
X114937120Y-103674963D01*
X114962615Y-103695885D01*
X114983537Y-103721380D01*
X114999088Y-103750475D01*
X115008663Y-103782036D01*
X115012500Y-103820998D01*
X115012500Y-105221002D01*
X115008663Y-105259964D01*
X114999088Y-105291525D01*
X114983537Y-105320620D01*
X114962615Y-105346115D01*
X114937120Y-105367037D01*
X114908025Y-105382588D01*
X114876464Y-105392163D01*
X114837502Y-105396000D01*
X113762498Y-105396000D01*
X113723536Y-105392163D01*
X113691975Y-105382588D01*
X113662880Y-105367037D01*
X113637385Y-105346115D01*
X113616463Y-105320620D01*
X113600912Y-105291525D01*
X113591337Y-105259964D01*
X113587500Y-105221002D01*
X113587500Y-103820998D01*
X113591337Y-103782036D01*
X113600912Y-103750475D01*
X113616463Y-103721380D01*
X113637385Y-103695885D01*
X113662880Y-103674963D01*
X113691975Y-103659412D01*
X113723536Y-103649837D01*
X113762498Y-103646000D01*
X114837502Y-103646000D01*
X114876464Y-103649837D01*
G37*
G36*
X119060000Y-104921000D02*
G01*
X117160000Y-104921000D01*
X117160000Y-104121000D01*
X119060000Y-104121000D01*
X119060000Y-104921000D01*
G37*
G36*
X137898964Y-102124837D02*
G01*
X137930525Y-102134412D01*
X137959620Y-102149963D01*
X137985115Y-102170885D01*
X138006037Y-102196380D01*
X138021588Y-102225475D01*
X138031163Y-102257036D01*
X138035000Y-102295998D01*
X138035000Y-103371002D01*
X138031163Y-103409964D01*
X138021588Y-103441525D01*
X138006037Y-103470620D01*
X137985115Y-103496115D01*
X137959620Y-103517037D01*
X137930525Y-103532588D01*
X137898964Y-103542163D01*
X137860002Y-103546000D01*
X136459998Y-103546000D01*
X136421036Y-103542163D01*
X136389475Y-103532588D01*
X136360380Y-103517037D01*
X136334885Y-103496115D01*
X136313963Y-103470620D01*
X136298412Y-103441525D01*
X136288837Y-103409964D01*
X136285000Y-103371002D01*
X136285000Y-102295998D01*
X136288837Y-102257036D01*
X136298412Y-102225475D01*
X136313963Y-102196380D01*
X136334885Y-102170885D01*
X136360380Y-102149963D01*
X136389475Y-102134412D01*
X136421036Y-102124837D01*
X136459998Y-102121000D01*
X137860002Y-102121000D01*
X137898964Y-102124837D01*
G37*
G36*
X144374453Y-101513274D02*
G01*
X144390753Y-101518219D01*
X144405775Y-101526249D01*
X144418944Y-101537056D01*
X144429751Y-101550225D01*
X144437781Y-101565247D01*
X144442726Y-101581547D01*
X144445000Y-101604640D01*
X144445000Y-103367360D01*
X144442726Y-103390453D01*
X144437781Y-103406753D01*
X144429751Y-103421775D01*
X144418944Y-103434944D01*
X144405775Y-103445751D01*
X144390753Y-103453781D01*
X144374453Y-103458726D01*
X144351360Y-103461000D01*
X143938640Y-103461000D01*
X143915547Y-103458726D01*
X143899247Y-103453781D01*
X143884225Y-103445751D01*
X143871056Y-103434944D01*
X143860249Y-103421775D01*
X143852219Y-103406753D01*
X143847274Y-103390453D01*
X143845000Y-103367360D01*
X143845000Y-101604640D01*
X143847274Y-101581547D01*
X143852219Y-101565247D01*
X143860249Y-101550225D01*
X143871056Y-101537056D01*
X143884225Y-101526249D01*
X143899247Y-101518219D01*
X143915547Y-101513274D01*
X143938640Y-101511000D01*
X144351360Y-101511000D01*
X144374453Y-101513274D01*
G37*
G36*
X143104453Y-101513274D02*
G01*
X143120753Y-101518219D01*
X143135775Y-101526249D01*
X143148944Y-101537056D01*
X143159751Y-101550225D01*
X143167781Y-101565247D01*
X143172726Y-101581547D01*
X143175000Y-101604640D01*
X143175000Y-103367360D01*
X143172726Y-103390453D01*
X143167781Y-103406753D01*
X143159751Y-103421775D01*
X143148944Y-103434944D01*
X143135775Y-103445751D01*
X143120753Y-103453781D01*
X143104453Y-103458726D01*
X143081360Y-103461000D01*
X142668640Y-103461000D01*
X142645547Y-103458726D01*
X142629247Y-103453781D01*
X142614225Y-103445751D01*
X142601056Y-103434944D01*
X142590249Y-103421775D01*
X142582219Y-103406753D01*
X142577274Y-103390453D01*
X142575000Y-103367360D01*
X142575000Y-101604640D01*
X142577274Y-101581547D01*
X142582219Y-101565247D01*
X142590249Y-101550225D01*
X142601056Y-101537056D01*
X142614225Y-101526249D01*
X142629247Y-101518219D01*
X142645547Y-101513274D01*
X142668640Y-101511000D01*
X143081360Y-101511000D01*
X143104453Y-101513274D01*
G37*
G36*
X141834453Y-101513274D02*
G01*
X141850753Y-101518219D01*
X141865775Y-101526249D01*
X141878944Y-101537056D01*
X141889751Y-101550225D01*
X141897781Y-101565247D01*
X141902726Y-101581547D01*
X141905000Y-101604640D01*
X141905000Y-103367360D01*
X141902726Y-103390453D01*
X141897781Y-103406753D01*
X141889751Y-103421775D01*
X141878944Y-103434944D01*
X141865775Y-103445751D01*
X141850753Y-103453781D01*
X141834453Y-103458726D01*
X141811360Y-103461000D01*
X141398640Y-103461000D01*
X141375547Y-103458726D01*
X141359247Y-103453781D01*
X141344225Y-103445751D01*
X141331056Y-103434944D01*
X141320249Y-103421775D01*
X141312219Y-103406753D01*
X141307274Y-103390453D01*
X141305000Y-103367360D01*
X141305000Y-101604640D01*
X141307274Y-101581547D01*
X141312219Y-101565247D01*
X141320249Y-101550225D01*
X141331056Y-101537056D01*
X141344225Y-101526249D01*
X141359247Y-101518219D01*
X141375547Y-101513274D01*
X141398640Y-101511000D01*
X141811360Y-101511000D01*
X141834453Y-101513274D01*
G37*
G36*
X140564453Y-101513274D02*
G01*
X140580753Y-101518219D01*
X140595775Y-101526249D01*
X140608944Y-101537056D01*
X140619751Y-101550225D01*
X140627781Y-101565247D01*
X140632726Y-101581547D01*
X140635000Y-101604640D01*
X140635000Y-103367360D01*
X140632726Y-103390453D01*
X140627781Y-103406753D01*
X140619751Y-103421775D01*
X140608944Y-103434944D01*
X140595775Y-103445751D01*
X140580753Y-103453781D01*
X140564453Y-103458726D01*
X140541360Y-103461000D01*
X140128640Y-103461000D01*
X140105547Y-103458726D01*
X140089247Y-103453781D01*
X140074225Y-103445751D01*
X140061056Y-103434944D01*
X140050249Y-103421775D01*
X140042219Y-103406753D01*
X140037274Y-103390453D01*
X140035000Y-103367360D01*
X140035000Y-101604640D01*
X140037274Y-101581547D01*
X140042219Y-101565247D01*
X140050249Y-101550225D01*
X140061056Y-101537056D01*
X140074225Y-101526249D01*
X140089247Y-101518219D01*
X140105547Y-101513274D01*
X140128640Y-101511000D01*
X140541360Y-101511000D01*
X140564453Y-101513274D01*
G37*
G36*
X187572935Y-101544664D02*
G01*
X187661977Y-101581547D01*
X187727626Y-101608740D01*
X187866844Y-101701762D01*
X187985238Y-101820156D01*
X188078260Y-101959374D01*
X188078261Y-101959376D01*
X188142336Y-102114065D01*
X188175000Y-102278281D01*
X188175000Y-102445719D01*
X188142336Y-102609935D01*
X188078261Y-102764624D01*
X188078260Y-102764626D01*
X187985238Y-102903844D01*
X187866844Y-103022238D01*
X187727626Y-103115260D01*
X187727625Y-103115261D01*
X187727624Y-103115261D01*
X187572935Y-103179336D01*
X187408719Y-103212000D01*
X187241281Y-103212000D01*
X187077065Y-103179336D01*
X186922376Y-103115261D01*
X186922375Y-103115261D01*
X186922374Y-103115260D01*
X186783156Y-103022238D01*
X186664762Y-102903844D01*
X186571740Y-102764626D01*
X186571739Y-102764624D01*
X186507664Y-102609935D01*
X186475000Y-102445719D01*
X186475000Y-102278281D01*
X186507664Y-102114065D01*
X186571739Y-101959376D01*
X186571740Y-101959374D01*
X186664762Y-101820156D01*
X186783156Y-101701762D01*
X186922374Y-101608740D01*
X186988023Y-101581547D01*
X187077065Y-101544664D01*
X187241281Y-101512000D01*
X187408719Y-101512000D01*
X187572935Y-101544664D01*
G37*
G36*
X180731000Y-102888000D02*
G01*
X180081000Y-102888000D01*
X180081000Y-101328000D01*
X180731000Y-101328000D01*
X180731000Y-102888000D01*
G37*
G36*
X181681000Y-102888000D02*
G01*
X181031000Y-102888000D01*
X181031000Y-101328000D01*
X181681000Y-101328000D01*
X181681000Y-102888000D01*
G37*
G36*
X182631000Y-102888000D02*
G01*
X181981000Y-102888000D01*
X181981000Y-101328000D01*
X182631000Y-101328000D01*
X182631000Y-102888000D01*
G37*
G36*
X161900453Y-100497274D02*
G01*
X161916753Y-100502219D01*
X161931775Y-100510249D01*
X161944944Y-100521056D01*
X161955751Y-100534225D01*
X161963781Y-100549247D01*
X161968726Y-100565547D01*
X161971000Y-100588640D01*
X161971000Y-102351360D01*
X161968726Y-102374453D01*
X161963781Y-102390753D01*
X161955751Y-102405775D01*
X161944944Y-102418944D01*
X161931775Y-102429751D01*
X161916753Y-102437781D01*
X161900453Y-102442726D01*
X161877360Y-102445000D01*
X161464640Y-102445000D01*
X161441547Y-102442726D01*
X161425247Y-102437781D01*
X161410225Y-102429751D01*
X161397056Y-102418944D01*
X161386249Y-102405775D01*
X161378219Y-102390753D01*
X161373274Y-102374453D01*
X161371000Y-102351360D01*
X161371000Y-100588640D01*
X161373274Y-100565547D01*
X161378219Y-100549247D01*
X161386249Y-100534225D01*
X161397056Y-100521056D01*
X161410225Y-100510249D01*
X161425247Y-100502219D01*
X161441547Y-100497274D01*
X161464640Y-100495000D01*
X161877360Y-100495000D01*
X161900453Y-100497274D01*
G37*
G36*
X164440453Y-100497274D02*
G01*
X164456753Y-100502219D01*
X164471775Y-100510249D01*
X164484944Y-100521056D01*
X164495751Y-100534225D01*
X164503781Y-100549247D01*
X164508726Y-100565547D01*
X164511000Y-100588640D01*
X164511000Y-102351360D01*
X164508726Y-102374453D01*
X164503781Y-102390753D01*
X164495751Y-102405775D01*
X164484944Y-102418944D01*
X164471775Y-102429751D01*
X164456753Y-102437781D01*
X164440453Y-102442726D01*
X164417360Y-102445000D01*
X164004640Y-102445000D01*
X163981547Y-102442726D01*
X163965247Y-102437781D01*
X163950225Y-102429751D01*
X163937056Y-102418944D01*
X163926249Y-102405775D01*
X163918219Y-102390753D01*
X163913274Y-102374453D01*
X163911000Y-102351360D01*
X163911000Y-100588640D01*
X163913274Y-100565547D01*
X163918219Y-100549247D01*
X163926249Y-100534225D01*
X163937056Y-100521056D01*
X163950225Y-100510249D01*
X163965247Y-100502219D01*
X163981547Y-100497274D01*
X164004640Y-100495000D01*
X164417360Y-100495000D01*
X164440453Y-100497274D01*
G37*
G36*
X163170453Y-100497274D02*
G01*
X163186753Y-100502219D01*
X163201775Y-100510249D01*
X163214944Y-100521056D01*
X163225751Y-100534225D01*
X163233781Y-100549247D01*
X163238726Y-100565547D01*
X163241000Y-100588640D01*
X163241000Y-102351360D01*
X163238726Y-102374453D01*
X163233781Y-102390753D01*
X163225751Y-102405775D01*
X163214944Y-102418944D01*
X163201775Y-102429751D01*
X163186753Y-102437781D01*
X163170453Y-102442726D01*
X163147360Y-102445000D01*
X162734640Y-102445000D01*
X162711547Y-102442726D01*
X162695247Y-102437781D01*
X162680225Y-102429751D01*
X162667056Y-102418944D01*
X162656249Y-102405775D01*
X162648219Y-102390753D01*
X162643274Y-102374453D01*
X162641000Y-102351360D01*
X162641000Y-100588640D01*
X162643274Y-100565547D01*
X162648219Y-100549247D01*
X162656249Y-100534225D01*
X162667056Y-100521056D01*
X162680225Y-100510249D01*
X162695247Y-100502219D01*
X162711547Y-100497274D01*
X162734640Y-100495000D01*
X163147360Y-100495000D01*
X163170453Y-100497274D01*
G37*
G36*
X158090453Y-100497274D02*
G01*
X158106753Y-100502219D01*
X158121775Y-100510249D01*
X158134944Y-100521056D01*
X158145751Y-100534225D01*
X158153781Y-100549247D01*
X158158726Y-100565547D01*
X158161000Y-100588640D01*
X158161000Y-102351360D01*
X158158726Y-102374453D01*
X158153781Y-102390753D01*
X158145751Y-102405775D01*
X158134944Y-102418944D01*
X158121775Y-102429751D01*
X158106753Y-102437781D01*
X158090453Y-102442726D01*
X158067360Y-102445000D01*
X157654640Y-102445000D01*
X157631547Y-102442726D01*
X157615247Y-102437781D01*
X157600225Y-102429751D01*
X157587056Y-102418944D01*
X157576249Y-102405775D01*
X157568219Y-102390753D01*
X157563274Y-102374453D01*
X157561000Y-102351360D01*
X157561000Y-100588640D01*
X157563274Y-100565547D01*
X157568219Y-100549247D01*
X157576249Y-100534225D01*
X157587056Y-100521056D01*
X157600225Y-100510249D01*
X157615247Y-100502219D01*
X157631547Y-100497274D01*
X157654640Y-100495000D01*
X158067360Y-100495000D01*
X158090453Y-100497274D01*
G37*
G36*
X159360453Y-100497274D02*
G01*
X159376753Y-100502219D01*
X159391775Y-100510249D01*
X159404944Y-100521056D01*
X159415751Y-100534225D01*
X159423781Y-100549247D01*
X159428726Y-100565547D01*
X159431000Y-100588640D01*
X159431000Y-102351360D01*
X159428726Y-102374453D01*
X159423781Y-102390753D01*
X159415751Y-102405775D01*
X159404944Y-102418944D01*
X159391775Y-102429751D01*
X159376753Y-102437781D01*
X159360453Y-102442726D01*
X159337360Y-102445000D01*
X158924640Y-102445000D01*
X158901547Y-102442726D01*
X158885247Y-102437781D01*
X158870225Y-102429751D01*
X158857056Y-102418944D01*
X158846249Y-102405775D01*
X158838219Y-102390753D01*
X158833274Y-102374453D01*
X158831000Y-102351360D01*
X158831000Y-100588640D01*
X158833274Y-100565547D01*
X158838219Y-100549247D01*
X158846249Y-100534225D01*
X158857056Y-100521056D01*
X158870225Y-100510249D01*
X158885247Y-100502219D01*
X158901547Y-100497274D01*
X158924640Y-100495000D01*
X159337360Y-100495000D01*
X159360453Y-100497274D01*
G37*
G36*
X160630453Y-100497274D02*
G01*
X160646753Y-100502219D01*
X160661775Y-100510249D01*
X160674944Y-100521056D01*
X160685751Y-100534225D01*
X160693781Y-100549247D01*
X160698726Y-100565547D01*
X160701000Y-100588640D01*
X160701000Y-102351360D01*
X160698726Y-102374453D01*
X160693781Y-102390753D01*
X160685751Y-102405775D01*
X160674944Y-102418944D01*
X160661775Y-102429751D01*
X160646753Y-102437781D01*
X160630453Y-102442726D01*
X160607360Y-102445000D01*
X160194640Y-102445000D01*
X160171547Y-102442726D01*
X160155247Y-102437781D01*
X160140225Y-102429751D01*
X160127056Y-102418944D01*
X160116249Y-102405775D01*
X160108219Y-102390753D01*
X160103274Y-102374453D01*
X160101000Y-102351360D01*
X160101000Y-100588640D01*
X160103274Y-100565547D01*
X160108219Y-100549247D01*
X160116249Y-100534225D01*
X160127056Y-100521056D01*
X160140225Y-100510249D01*
X160155247Y-100502219D01*
X160171547Y-100497274D01*
X160194640Y-100495000D01*
X160607360Y-100495000D01*
X160630453Y-100497274D01*
G37*
G36*
X156820453Y-100497274D02*
G01*
X156836753Y-100502219D01*
X156851775Y-100510249D01*
X156864944Y-100521056D01*
X156875751Y-100534225D01*
X156883781Y-100549247D01*
X156888726Y-100565547D01*
X156891000Y-100588640D01*
X156891000Y-102351360D01*
X156888726Y-102374453D01*
X156883781Y-102390753D01*
X156875751Y-102405775D01*
X156864944Y-102418944D01*
X156851775Y-102429751D01*
X156836753Y-102437781D01*
X156820453Y-102442726D01*
X156797360Y-102445000D01*
X156384640Y-102445000D01*
X156361547Y-102442726D01*
X156345247Y-102437781D01*
X156330225Y-102429751D01*
X156317056Y-102418944D01*
X156306249Y-102405775D01*
X156298219Y-102390753D01*
X156293274Y-102374453D01*
X156291000Y-102351360D01*
X156291000Y-100588640D01*
X156293274Y-100565547D01*
X156298219Y-100549247D01*
X156306249Y-100534225D01*
X156317056Y-100521056D01*
X156330225Y-100510249D01*
X156345247Y-100502219D01*
X156361547Y-100497274D01*
X156384640Y-100495000D01*
X156797360Y-100495000D01*
X156820453Y-100497274D01*
G37*
G36*
X153138964Y-99584837D02*
G01*
X153170525Y-99594412D01*
X153199620Y-99609963D01*
X153225115Y-99630885D01*
X153246037Y-99656380D01*
X153261588Y-99685475D01*
X153271163Y-99717036D01*
X153275000Y-99755998D01*
X153275000Y-100831002D01*
X153271163Y-100869964D01*
X153261588Y-100901525D01*
X153246037Y-100930620D01*
X153225115Y-100956115D01*
X153199620Y-100977037D01*
X153170525Y-100992588D01*
X153138964Y-101002163D01*
X153100002Y-101006000D01*
X151699998Y-101006000D01*
X151661036Y-101002163D01*
X151629475Y-100992588D01*
X151600380Y-100977037D01*
X151574885Y-100956115D01*
X151553963Y-100930620D01*
X151538412Y-100901525D01*
X151528837Y-100869964D01*
X151525000Y-100831002D01*
X151525000Y-99755998D01*
X151528837Y-99717036D01*
X151538412Y-99685475D01*
X151553963Y-99656380D01*
X151574885Y-99630885D01*
X151600380Y-99609963D01*
X151629475Y-99594412D01*
X151661036Y-99584837D01*
X151699998Y-99581000D01*
X153100002Y-99581000D01*
X153138964Y-99584837D01*
G37*
G36*
X149328964Y-99584837D02*
G01*
X149360525Y-99594412D01*
X149389620Y-99609963D01*
X149415115Y-99630885D01*
X149436037Y-99656380D01*
X149451588Y-99685475D01*
X149461163Y-99717036D01*
X149465000Y-99755998D01*
X149465000Y-100831002D01*
X149461163Y-100869964D01*
X149451588Y-100901525D01*
X149436037Y-100930620D01*
X149415115Y-100956115D01*
X149389620Y-100977037D01*
X149360525Y-100992588D01*
X149328964Y-101002163D01*
X149290002Y-101006000D01*
X147889998Y-101006000D01*
X147851036Y-101002163D01*
X147819475Y-100992588D01*
X147790380Y-100977037D01*
X147764885Y-100956115D01*
X147743963Y-100930620D01*
X147728412Y-100901525D01*
X147718837Y-100869964D01*
X147715000Y-100831002D01*
X147715000Y-99755998D01*
X147718837Y-99717036D01*
X147728412Y-99685475D01*
X147743963Y-99656380D01*
X147764885Y-99630885D01*
X147790380Y-99609963D01*
X147819475Y-99594412D01*
X147851036Y-99584837D01*
X147889998Y-99581000D01*
X149290002Y-99581000D01*
X149328964Y-99584837D01*
G37*
G36*
X187572935Y-99004664D02*
G01*
X187727624Y-99068739D01*
X187727626Y-99068740D01*
X187866844Y-99161762D01*
X187985238Y-99280156D01*
X188030053Y-99347227D01*
X188078261Y-99419376D01*
X188142336Y-99574065D01*
X188175000Y-99738281D01*
X188175000Y-99905719D01*
X188142336Y-100069935D01*
X188086340Y-100205120D01*
X188078260Y-100224626D01*
X187985238Y-100363844D01*
X187866844Y-100482238D01*
X187727626Y-100575260D01*
X187727625Y-100575261D01*
X187727624Y-100575261D01*
X187572935Y-100639336D01*
X187408719Y-100672000D01*
X187241281Y-100672000D01*
X187077065Y-100639336D01*
X186922376Y-100575261D01*
X186922375Y-100575261D01*
X186922374Y-100575260D01*
X186783156Y-100482238D01*
X186664762Y-100363844D01*
X186571740Y-100224626D01*
X186563660Y-100205120D01*
X186507664Y-100069935D01*
X186475000Y-99905719D01*
X186475000Y-99738281D01*
X186507664Y-99574065D01*
X186571739Y-99419376D01*
X186619947Y-99347227D01*
X186664762Y-99280156D01*
X186783156Y-99161762D01*
X186922374Y-99068740D01*
X186922376Y-99068739D01*
X187077065Y-99004664D01*
X187241281Y-98972000D01*
X187408719Y-98972000D01*
X187572935Y-99004664D01*
G37*
G36*
X137898964Y-99149837D02*
G01*
X137930525Y-99159412D01*
X137959620Y-99174963D01*
X137985115Y-99195885D01*
X138006037Y-99221380D01*
X138021588Y-99250475D01*
X138031163Y-99282036D01*
X138035000Y-99320998D01*
X138035000Y-100396002D01*
X138031163Y-100434964D01*
X138021588Y-100466525D01*
X138006037Y-100495620D01*
X137985115Y-100521115D01*
X137959620Y-100542037D01*
X137930525Y-100557588D01*
X137898964Y-100567163D01*
X137860002Y-100571000D01*
X136459998Y-100571000D01*
X136421036Y-100567163D01*
X136389475Y-100557588D01*
X136360380Y-100542037D01*
X136334885Y-100521115D01*
X136313963Y-100495620D01*
X136298412Y-100466525D01*
X136288837Y-100434964D01*
X136285000Y-100396002D01*
X136285000Y-99320998D01*
X136288837Y-99282036D01*
X136298412Y-99250475D01*
X136313963Y-99221380D01*
X136334885Y-99195885D01*
X136360380Y-99174963D01*
X136389475Y-99159412D01*
X136421036Y-99149837D01*
X136459998Y-99146000D01*
X137860002Y-99146000D01*
X137898964Y-99149837D01*
G37*
G36*
X120245964Y-98859337D02*
G01*
X120277525Y-98868912D01*
X120306620Y-98884463D01*
X120332115Y-98905385D01*
X120353037Y-98930880D01*
X120368588Y-98959975D01*
X120378163Y-98991536D01*
X120382000Y-99030498D01*
X120382000Y-100105502D01*
X120378163Y-100144464D01*
X120368588Y-100176025D01*
X120353037Y-100205120D01*
X120332115Y-100230615D01*
X120306620Y-100251537D01*
X120277525Y-100267088D01*
X120245964Y-100276663D01*
X120207002Y-100280500D01*
X118806998Y-100280500D01*
X118768036Y-100276663D01*
X118736475Y-100267088D01*
X118707380Y-100251537D01*
X118681885Y-100230615D01*
X118660963Y-100205120D01*
X118645412Y-100176025D01*
X118635837Y-100144464D01*
X118632000Y-100105502D01*
X118632000Y-99030498D01*
X118635837Y-98991536D01*
X118645412Y-98959975D01*
X118660963Y-98930880D01*
X118681885Y-98905385D01*
X118707380Y-98884463D01*
X118736475Y-98868912D01*
X118768036Y-98859337D01*
X118806998Y-98855500D01*
X120207002Y-98855500D01*
X120245964Y-98859337D01*
G37*
G36*
X182022964Y-98188837D02*
G01*
X182054525Y-98198412D01*
X182083620Y-98213963D01*
X182109115Y-98234885D01*
X182130037Y-98260380D01*
X182145588Y-98289475D01*
X182155163Y-98321036D01*
X182159000Y-98359998D01*
X182159000Y-99760002D01*
X182155163Y-99798964D01*
X182145588Y-99830525D01*
X182130037Y-99859620D01*
X182109115Y-99885115D01*
X182083620Y-99906037D01*
X182054525Y-99921588D01*
X182022964Y-99931163D01*
X181984002Y-99935000D01*
X180908998Y-99935000D01*
X180870036Y-99931163D01*
X180838475Y-99921588D01*
X180809380Y-99906037D01*
X180783885Y-99885115D01*
X180762963Y-99859620D01*
X180747412Y-99830525D01*
X180737837Y-99798964D01*
X180734000Y-99760002D01*
X180734000Y-98359998D01*
X180737837Y-98321036D01*
X180747412Y-98289475D01*
X180762963Y-98260380D01*
X180783885Y-98234885D01*
X180809380Y-98213963D01*
X180838475Y-98198412D01*
X180870036Y-98188837D01*
X180908998Y-98185000D01*
X181984002Y-98185000D01*
X182022964Y-98188837D01*
G37*
G36*
X179047964Y-98188837D02*
G01*
X179079525Y-98198412D01*
X179108620Y-98213963D01*
X179134115Y-98234885D01*
X179155037Y-98260380D01*
X179170588Y-98289475D01*
X179180163Y-98321036D01*
X179184000Y-98359998D01*
X179184000Y-99760002D01*
X179180163Y-99798964D01*
X179170588Y-99830525D01*
X179155037Y-99859620D01*
X179134115Y-99885115D01*
X179108620Y-99906037D01*
X179079525Y-99921588D01*
X179047964Y-99931163D01*
X179009002Y-99935000D01*
X177933998Y-99935000D01*
X177895036Y-99931163D01*
X177863475Y-99921588D01*
X177834380Y-99906037D01*
X177808885Y-99885115D01*
X177787963Y-99859620D01*
X177772412Y-99830525D01*
X177762837Y-99798964D01*
X177759000Y-99760002D01*
X177759000Y-98359998D01*
X177762837Y-98321036D01*
X177772412Y-98289475D01*
X177787963Y-98260380D01*
X177808885Y-98234885D01*
X177834380Y-98213963D01*
X177863475Y-98198412D01*
X177895036Y-98188837D01*
X177933998Y-98185000D01*
X179009002Y-98185000D01*
X179047964Y-98188837D01*
G37*
G36*
X143104453Y-96563274D02*
G01*
X143120753Y-96568219D01*
X143135775Y-96576249D01*
X143148944Y-96587056D01*
X143159751Y-96600225D01*
X143167781Y-96615247D01*
X143172726Y-96631547D01*
X143175000Y-96654640D01*
X143175000Y-98417360D01*
X143172726Y-98440453D01*
X143167781Y-98456753D01*
X143159751Y-98471775D01*
X143148944Y-98484944D01*
X143135775Y-98495751D01*
X143120753Y-98503781D01*
X143104453Y-98508726D01*
X143081360Y-98511000D01*
X142668640Y-98511000D01*
X142645547Y-98508726D01*
X142629247Y-98503781D01*
X142614225Y-98495751D01*
X142601056Y-98484944D01*
X142590249Y-98471775D01*
X142582219Y-98456753D01*
X142577274Y-98440453D01*
X142575000Y-98417360D01*
X142575000Y-96654640D01*
X142577274Y-96631547D01*
X142582219Y-96615247D01*
X142590249Y-96600225D01*
X142601056Y-96587056D01*
X142614225Y-96576249D01*
X142629247Y-96568219D01*
X142645547Y-96563274D01*
X142668640Y-96561000D01*
X143081360Y-96561000D01*
X143104453Y-96563274D01*
G37*
G36*
X140564453Y-96563274D02*
G01*
X140580753Y-96568219D01*
X140595775Y-96576249D01*
X140608944Y-96587056D01*
X140619751Y-96600225D01*
X140627781Y-96615247D01*
X140632726Y-96631547D01*
X140635000Y-96654640D01*
X140635000Y-98417360D01*
X140632726Y-98440453D01*
X140627781Y-98456753D01*
X140619751Y-98471775D01*
X140608944Y-98484944D01*
X140595775Y-98495751D01*
X140580753Y-98503781D01*
X140564453Y-98508726D01*
X140541360Y-98511000D01*
X140128640Y-98511000D01*
X140105547Y-98508726D01*
X140089247Y-98503781D01*
X140074225Y-98495751D01*
X140061056Y-98484944D01*
X140050249Y-98471775D01*
X140042219Y-98456753D01*
X140037274Y-98440453D01*
X140035000Y-98417360D01*
X140035000Y-96654640D01*
X140037274Y-96631547D01*
X140042219Y-96615247D01*
X140050249Y-96600225D01*
X140061056Y-96587056D01*
X140074225Y-96576249D01*
X140089247Y-96568219D01*
X140105547Y-96563274D01*
X140128640Y-96561000D01*
X140541360Y-96561000D01*
X140564453Y-96563274D01*
G37*
G36*
X144374453Y-96563274D02*
G01*
X144390753Y-96568219D01*
X144405775Y-96576249D01*
X144418944Y-96587056D01*
X144429751Y-96600225D01*
X144437781Y-96615247D01*
X144442726Y-96631547D01*
X144445000Y-96654640D01*
X144445000Y-98417360D01*
X144442726Y-98440453D01*
X144437781Y-98456753D01*
X144429751Y-98471775D01*
X144418944Y-98484944D01*
X144405775Y-98495751D01*
X144390753Y-98503781D01*
X144374453Y-98508726D01*
X144351360Y-98511000D01*
X143938640Y-98511000D01*
X143915547Y-98508726D01*
X143899247Y-98503781D01*
X143884225Y-98495751D01*
X143871056Y-98484944D01*
X143860249Y-98471775D01*
X143852219Y-98456753D01*
X143847274Y-98440453D01*
X143845000Y-98417360D01*
X143845000Y-96654640D01*
X143847274Y-96631547D01*
X143852219Y-96615247D01*
X143860249Y-96600225D01*
X143871056Y-96587056D01*
X143884225Y-96576249D01*
X143899247Y-96568219D01*
X143915547Y-96563274D01*
X143938640Y-96561000D01*
X144351360Y-96561000D01*
X144374453Y-96563274D01*
G37*
G36*
X141834453Y-96563274D02*
G01*
X141850753Y-96568219D01*
X141865775Y-96576249D01*
X141878944Y-96587056D01*
X141889751Y-96600225D01*
X141897781Y-96615247D01*
X141902726Y-96631547D01*
X141905000Y-96654640D01*
X141905000Y-98417360D01*
X141902726Y-98440453D01*
X141897781Y-98456753D01*
X141889751Y-98471775D01*
X141878944Y-98484944D01*
X141865775Y-98495751D01*
X141850753Y-98503781D01*
X141834453Y-98508726D01*
X141811360Y-98511000D01*
X141398640Y-98511000D01*
X141375547Y-98508726D01*
X141359247Y-98503781D01*
X141344225Y-98495751D01*
X141331056Y-98484944D01*
X141320249Y-98471775D01*
X141312219Y-98456753D01*
X141307274Y-98440453D01*
X141305000Y-98417360D01*
X141305000Y-96654640D01*
X141307274Y-96631547D01*
X141312219Y-96615247D01*
X141320249Y-96600225D01*
X141331056Y-96587056D01*
X141344225Y-96576249D01*
X141359247Y-96568219D01*
X141375547Y-96563274D01*
X141398640Y-96561000D01*
X141811360Y-96561000D01*
X141834453Y-96563274D01*
G37*
G36*
X187572935Y-96464664D02*
G01*
X187727624Y-96528739D01*
X187727626Y-96528740D01*
X187866844Y-96621762D01*
X187985238Y-96740156D01*
X188030053Y-96807227D01*
X188078261Y-96879376D01*
X188142336Y-97034065D01*
X188175000Y-97198281D01*
X188175000Y-97365719D01*
X188142336Y-97529935D01*
X188078261Y-97684624D01*
X188078260Y-97684626D01*
X187985238Y-97823844D01*
X187866844Y-97942238D01*
X187727626Y-98035260D01*
X187727625Y-98035261D01*
X187727624Y-98035261D01*
X187572935Y-98099336D01*
X187408719Y-98132000D01*
X187241281Y-98132000D01*
X187077065Y-98099336D01*
X186922376Y-98035261D01*
X186922375Y-98035261D01*
X186922374Y-98035260D01*
X186783156Y-97942238D01*
X186664762Y-97823844D01*
X186571740Y-97684626D01*
X186571739Y-97684624D01*
X186507664Y-97529935D01*
X186475000Y-97365719D01*
X186475000Y-97198281D01*
X186507664Y-97034065D01*
X186571739Y-96879376D01*
X186619947Y-96807227D01*
X186664762Y-96740156D01*
X186783156Y-96621762D01*
X186922374Y-96528740D01*
X186922376Y-96528739D01*
X187077065Y-96464664D01*
X187241281Y-96432000D01*
X187408719Y-96432000D01*
X187572935Y-96464664D01*
G37*
G36*
X149328964Y-96609837D02*
G01*
X149360525Y-96619412D01*
X149389620Y-96634963D01*
X149415115Y-96655885D01*
X149436037Y-96681380D01*
X149451588Y-96710475D01*
X149461163Y-96742036D01*
X149465000Y-96780998D01*
X149465000Y-97856002D01*
X149461163Y-97894964D01*
X149451588Y-97926525D01*
X149436037Y-97955620D01*
X149415115Y-97981115D01*
X149389620Y-98002037D01*
X149360525Y-98017588D01*
X149328964Y-98027163D01*
X149290002Y-98031000D01*
X147889998Y-98031000D01*
X147851036Y-98027163D01*
X147819475Y-98017588D01*
X147790380Y-98002037D01*
X147764885Y-97981115D01*
X147743963Y-97955620D01*
X147728412Y-97926525D01*
X147718837Y-97894964D01*
X147715000Y-97856002D01*
X147715000Y-96780998D01*
X147718837Y-96742036D01*
X147728412Y-96710475D01*
X147743963Y-96681380D01*
X147764885Y-96655885D01*
X147790380Y-96634963D01*
X147819475Y-96619412D01*
X147851036Y-96609837D01*
X147889998Y-96606000D01*
X149290002Y-96606000D01*
X149328964Y-96609837D01*
G37*
G36*
X153138964Y-96609837D02*
G01*
X153170525Y-96619412D01*
X153199620Y-96634963D01*
X153225115Y-96655885D01*
X153246037Y-96681380D01*
X153261588Y-96710475D01*
X153271163Y-96742036D01*
X153275000Y-96780998D01*
X153275000Y-97856002D01*
X153271163Y-97894964D01*
X153261588Y-97926525D01*
X153246037Y-97955620D01*
X153225115Y-97981115D01*
X153199620Y-98002037D01*
X153170525Y-98017588D01*
X153138964Y-98027163D01*
X153100002Y-98031000D01*
X151699998Y-98031000D01*
X151661036Y-98027163D01*
X151629475Y-98017588D01*
X151600380Y-98002037D01*
X151574885Y-97981115D01*
X151553963Y-97955620D01*
X151538412Y-97926525D01*
X151528837Y-97894964D01*
X151525000Y-97856002D01*
X151525000Y-96780998D01*
X151528837Y-96742036D01*
X151538412Y-96710475D01*
X151553963Y-96681380D01*
X151574885Y-96655885D01*
X151600380Y-96634963D01*
X151629475Y-96619412D01*
X151661036Y-96609837D01*
X151699998Y-96606000D01*
X153100002Y-96606000D01*
X153138964Y-96609837D01*
G37*
G36*
X158090453Y-95547274D02*
G01*
X158106753Y-95552219D01*
X158121775Y-95560249D01*
X158134944Y-95571056D01*
X158145751Y-95584225D01*
X158153781Y-95599247D01*
X158158726Y-95615547D01*
X158161000Y-95638640D01*
X158161000Y-97401360D01*
X158158726Y-97424453D01*
X158153781Y-97440753D01*
X158145751Y-97455775D01*
X158134944Y-97468944D01*
X158121775Y-97479751D01*
X158106753Y-97487781D01*
X158090453Y-97492726D01*
X158067360Y-97495000D01*
X157654640Y-97495000D01*
X157631547Y-97492726D01*
X157615247Y-97487781D01*
X157600225Y-97479751D01*
X157587056Y-97468944D01*
X157576249Y-97455775D01*
X157568219Y-97440753D01*
X157563274Y-97424453D01*
X157561000Y-97401360D01*
X157561000Y-95638640D01*
X157563274Y-95615547D01*
X157568219Y-95599247D01*
X157576249Y-95584225D01*
X157587056Y-95571056D01*
X157600225Y-95560249D01*
X157615247Y-95552219D01*
X157631547Y-95547274D01*
X157654640Y-95545000D01*
X158067360Y-95545000D01*
X158090453Y-95547274D01*
G37*
G36*
X159360453Y-95547274D02*
G01*
X159376753Y-95552219D01*
X159391775Y-95560249D01*
X159404944Y-95571056D01*
X159415751Y-95584225D01*
X159423781Y-95599247D01*
X159428726Y-95615547D01*
X159431000Y-95638640D01*
X159431000Y-97401360D01*
X159428726Y-97424453D01*
X159423781Y-97440753D01*
X159415751Y-97455775D01*
X159404944Y-97468944D01*
X159391775Y-97479751D01*
X159376753Y-97487781D01*
X159360453Y-97492726D01*
X159337360Y-97495000D01*
X158924640Y-97495000D01*
X158901547Y-97492726D01*
X158885247Y-97487781D01*
X158870225Y-97479751D01*
X158857056Y-97468944D01*
X158846249Y-97455775D01*
X158838219Y-97440753D01*
X158833274Y-97424453D01*
X158831000Y-97401360D01*
X158831000Y-95638640D01*
X158833274Y-95615547D01*
X158838219Y-95599247D01*
X158846249Y-95584225D01*
X158857056Y-95571056D01*
X158870225Y-95560249D01*
X158885247Y-95552219D01*
X158901547Y-95547274D01*
X158924640Y-95545000D01*
X159337360Y-95545000D01*
X159360453Y-95547274D01*
G37*
G36*
X160630453Y-95547274D02*
G01*
X160646753Y-95552219D01*
X160661775Y-95560249D01*
X160674944Y-95571056D01*
X160685751Y-95584225D01*
X160693781Y-95599247D01*
X160698726Y-95615547D01*
X160701000Y-95638640D01*
X160701000Y-97401360D01*
X160698726Y-97424453D01*
X160693781Y-97440753D01*
X160685751Y-97455775D01*
X160674944Y-97468944D01*
X160661775Y-97479751D01*
X160646753Y-97487781D01*
X160630453Y-97492726D01*
X160607360Y-97495000D01*
X160194640Y-97495000D01*
X160171547Y-97492726D01*
X160155247Y-97487781D01*
X160140225Y-97479751D01*
X160127056Y-97468944D01*
X160116249Y-97455775D01*
X160108219Y-97440753D01*
X160103274Y-97424453D01*
X160101000Y-97401360D01*
X160101000Y-95638640D01*
X160103274Y-95615547D01*
X160108219Y-95599247D01*
X160116249Y-95584225D01*
X160127056Y-95571056D01*
X160140225Y-95560249D01*
X160155247Y-95552219D01*
X160171547Y-95547274D01*
X160194640Y-95545000D01*
X160607360Y-95545000D01*
X160630453Y-95547274D01*
G37*
G36*
X161900453Y-95547274D02*
G01*
X161916753Y-95552219D01*
X161931775Y-95560249D01*
X161944944Y-95571056D01*
X161955751Y-95584225D01*
X161963781Y-95599247D01*
X161968726Y-95615547D01*
X161971000Y-95638640D01*
X161971000Y-97401360D01*
X161968726Y-97424453D01*
X161963781Y-97440753D01*
X161955751Y-97455775D01*
X161944944Y-97468944D01*
X161931775Y-97479751D01*
X161916753Y-97487781D01*
X161900453Y-97492726D01*
X161877360Y-97495000D01*
X161464640Y-97495000D01*
X161441547Y-97492726D01*
X161425247Y-97487781D01*
X161410225Y-97479751D01*
X161397056Y-97468944D01*
X161386249Y-97455775D01*
X161378219Y-97440753D01*
X161373274Y-97424453D01*
X161371000Y-97401360D01*
X161371000Y-95638640D01*
X161373274Y-95615547D01*
X161378219Y-95599247D01*
X161386249Y-95584225D01*
X161397056Y-95571056D01*
X161410225Y-95560249D01*
X161425247Y-95552219D01*
X161441547Y-95547274D01*
X161464640Y-95545000D01*
X161877360Y-95545000D01*
X161900453Y-95547274D01*
G37*
G36*
X163170453Y-95547274D02*
G01*
X163186753Y-95552219D01*
X163201775Y-95560249D01*
X163214944Y-95571056D01*
X163225751Y-95584225D01*
X163233781Y-95599247D01*
X163238726Y-95615547D01*
X163241000Y-95638640D01*
X163241000Y-97401360D01*
X163238726Y-97424453D01*
X163233781Y-97440753D01*
X163225751Y-97455775D01*
X163214944Y-97468944D01*
X163201775Y-97479751D01*
X163186753Y-97487781D01*
X163170453Y-97492726D01*
X163147360Y-97495000D01*
X162734640Y-97495000D01*
X162711547Y-97492726D01*
X162695247Y-97487781D01*
X162680225Y-97479751D01*
X162667056Y-97468944D01*
X162656249Y-97455775D01*
X162648219Y-97440753D01*
X162643274Y-97424453D01*
X162641000Y-97401360D01*
X162641000Y-95638640D01*
X162643274Y-95615547D01*
X162648219Y-95599247D01*
X162656249Y-95584225D01*
X162667056Y-95571056D01*
X162680225Y-95560249D01*
X162695247Y-95552219D01*
X162711547Y-95547274D01*
X162734640Y-95545000D01*
X163147360Y-95545000D01*
X163170453Y-95547274D01*
G37*
G36*
X164440453Y-95547274D02*
G01*
X164456753Y-95552219D01*
X164471775Y-95560249D01*
X164484944Y-95571056D01*
X164495751Y-95584225D01*
X164503781Y-95599247D01*
X164508726Y-95615547D01*
X164511000Y-95638640D01*
X164511000Y-97401360D01*
X164508726Y-97424453D01*
X164503781Y-97440753D01*
X164495751Y-97455775D01*
X164484944Y-97468944D01*
X164471775Y-97479751D01*
X164456753Y-97487781D01*
X164440453Y-97492726D01*
X164417360Y-97495000D01*
X164004640Y-97495000D01*
X163981547Y-97492726D01*
X163965247Y-97487781D01*
X163950225Y-97479751D01*
X163937056Y-97468944D01*
X163926249Y-97455775D01*
X163918219Y-97440753D01*
X163913274Y-97424453D01*
X163911000Y-97401360D01*
X163911000Y-95638640D01*
X163913274Y-95615547D01*
X163918219Y-95599247D01*
X163926249Y-95584225D01*
X163937056Y-95571056D01*
X163950225Y-95560249D01*
X163965247Y-95552219D01*
X163981547Y-95547274D01*
X164004640Y-95545000D01*
X164417360Y-95545000D01*
X164440453Y-95547274D01*
G37*
G36*
X156820453Y-95547274D02*
G01*
X156836753Y-95552219D01*
X156851775Y-95560249D01*
X156864944Y-95571056D01*
X156875751Y-95584225D01*
X156883781Y-95599247D01*
X156888726Y-95615547D01*
X156891000Y-95638640D01*
X156891000Y-97401360D01*
X156888726Y-97424453D01*
X156883781Y-97440753D01*
X156875751Y-97455775D01*
X156864944Y-97468944D01*
X156851775Y-97479751D01*
X156836753Y-97487781D01*
X156820453Y-97492726D01*
X156797360Y-97495000D01*
X156384640Y-97495000D01*
X156361547Y-97492726D01*
X156345247Y-97487781D01*
X156330225Y-97479751D01*
X156317056Y-97468944D01*
X156306249Y-97455775D01*
X156298219Y-97440753D01*
X156293274Y-97424453D01*
X156291000Y-97401360D01*
X156291000Y-95638640D01*
X156293274Y-95615547D01*
X156298219Y-95599247D01*
X156306249Y-95584225D01*
X156317056Y-95571056D01*
X156330225Y-95560249D01*
X156345247Y-95552219D01*
X156361547Y-95547274D01*
X156384640Y-95545000D01*
X156797360Y-95545000D01*
X156820453Y-95547274D01*
G37*
G36*
X120245964Y-95884337D02*
G01*
X120277525Y-95893912D01*
X120306620Y-95909463D01*
X120332115Y-95930385D01*
X120353037Y-95955880D01*
X120368588Y-95984975D01*
X120378163Y-96016536D01*
X120382000Y-96055498D01*
X120382000Y-97130502D01*
X120378163Y-97169464D01*
X120368588Y-97201025D01*
X120353037Y-97230120D01*
X120332115Y-97255615D01*
X120306620Y-97276537D01*
X120277525Y-97292088D01*
X120245964Y-97301663D01*
X120207002Y-97305500D01*
X118806998Y-97305500D01*
X118768036Y-97301663D01*
X118736475Y-97292088D01*
X118707380Y-97276537D01*
X118681885Y-97255615D01*
X118660963Y-97230120D01*
X118645412Y-97201025D01*
X118635837Y-97169464D01*
X118632000Y-97130502D01*
X118632000Y-96055498D01*
X118635837Y-96016536D01*
X118645412Y-95984975D01*
X118660963Y-95955880D01*
X118681885Y-95930385D01*
X118707380Y-95909463D01*
X118736475Y-95893912D01*
X118768036Y-95884337D01*
X118806998Y-95880500D01*
X120207002Y-95880500D01*
X120245964Y-95884337D01*
G37*
G36*
X132313351Y-92956743D02*
G01*
X132458941Y-93017048D01*
X132589970Y-93104599D01*
X132701401Y-93216030D01*
X132788952Y-93347059D01*
X132849257Y-93492649D01*
X132880000Y-93647206D01*
X132880000Y-93804794D01*
X132849257Y-93959351D01*
X132788952Y-94104941D01*
X132701401Y-94235970D01*
X132589970Y-94347401D01*
X132458941Y-94434952D01*
X132313351Y-94495257D01*
X132158794Y-94526000D01*
X132001206Y-94526000D01*
X131846649Y-94495257D01*
X131701059Y-94434952D01*
X131570030Y-94347401D01*
X131458599Y-94235970D01*
X131371048Y-94104941D01*
X131310743Y-93959351D01*
X131280000Y-93804794D01*
X131280000Y-93647206D01*
X131310743Y-93492649D01*
X131371048Y-93347059D01*
X131458599Y-93216030D01*
X131570030Y-93104599D01*
X131701059Y-93017048D01*
X131846649Y-92956743D01*
X132001206Y-92926000D01*
X132158794Y-92926000D01*
X132313351Y-92956743D01*
G37*
G36*
X117073351Y-92956743D02*
G01*
X117218941Y-93017048D01*
X117349970Y-93104599D01*
X117461401Y-93216030D01*
X117548952Y-93347059D01*
X117609257Y-93492649D01*
X117640000Y-93647206D01*
X117640000Y-93804794D01*
X117609257Y-93959351D01*
X117548952Y-94104941D01*
X117461401Y-94235970D01*
X117349970Y-94347401D01*
X117218941Y-94434952D01*
X117073351Y-94495257D01*
X116918794Y-94526000D01*
X116761206Y-94526000D01*
X116606649Y-94495257D01*
X116461059Y-94434952D01*
X116330030Y-94347401D01*
X116218599Y-94235970D01*
X116131048Y-94104941D01*
X116070743Y-93959351D01*
X116040000Y-93804794D01*
X116040000Y-93647206D01*
X116070743Y-93492649D01*
X116131048Y-93347059D01*
X116218599Y-93216030D01*
X116330030Y-93104599D01*
X116461059Y-93017048D01*
X116606649Y-92956743D01*
X116761206Y-92926000D01*
X116918794Y-92926000D01*
X117073351Y-92956743D01*
G37*
G36*
X119613351Y-92956743D02*
G01*
X119758941Y-93017048D01*
X119889970Y-93104599D01*
X120001401Y-93216030D01*
X120088952Y-93347059D01*
X120149257Y-93492649D01*
X120180000Y-93647206D01*
X120180000Y-93804794D01*
X120149257Y-93959351D01*
X120088952Y-94104941D01*
X120001401Y-94235970D01*
X119889970Y-94347401D01*
X119758941Y-94434952D01*
X119613351Y-94495257D01*
X119458794Y-94526000D01*
X119301206Y-94526000D01*
X119146649Y-94495257D01*
X119001059Y-94434952D01*
X118870030Y-94347401D01*
X118758599Y-94235970D01*
X118671048Y-94104941D01*
X118610743Y-93959351D01*
X118580000Y-93804794D01*
X118580000Y-93647206D01*
X118610743Y-93492649D01*
X118671048Y-93347059D01*
X118758599Y-93216030D01*
X118870030Y-93104599D01*
X119001059Y-93017048D01*
X119146649Y-92956743D01*
X119301206Y-92926000D01*
X119458794Y-92926000D01*
X119613351Y-92956743D01*
G37*
G36*
X122153351Y-92956743D02*
G01*
X122298941Y-93017048D01*
X122429970Y-93104599D01*
X122541401Y-93216030D01*
X122628952Y-93347059D01*
X122689257Y-93492649D01*
X122720000Y-93647206D01*
X122720000Y-93804794D01*
X122689257Y-93959351D01*
X122628952Y-94104941D01*
X122541401Y-94235970D01*
X122429970Y-94347401D01*
X122298941Y-94434952D01*
X122153351Y-94495257D01*
X121998794Y-94526000D01*
X121841206Y-94526000D01*
X121686649Y-94495257D01*
X121541059Y-94434952D01*
X121410030Y-94347401D01*
X121298599Y-94235970D01*
X121211048Y-94104941D01*
X121150743Y-93959351D01*
X121120000Y-93804794D01*
X121120000Y-93647206D01*
X121150743Y-93492649D01*
X121211048Y-93347059D01*
X121298599Y-93216030D01*
X121410030Y-93104599D01*
X121541059Y-93017048D01*
X121686649Y-92956743D01*
X121841206Y-92926000D01*
X121998794Y-92926000D01*
X122153351Y-92956743D01*
G37*
G36*
X127233351Y-92956743D02*
G01*
X127378941Y-93017048D01*
X127509970Y-93104599D01*
X127621401Y-93216030D01*
X127708952Y-93347059D01*
X127769257Y-93492649D01*
X127800000Y-93647206D01*
X127800000Y-93804794D01*
X127769257Y-93959351D01*
X127708952Y-94104941D01*
X127621401Y-94235970D01*
X127509970Y-94347401D01*
X127378941Y-94434952D01*
X127233351Y-94495257D01*
X127078794Y-94526000D01*
X126921206Y-94526000D01*
X126766649Y-94495257D01*
X126621059Y-94434952D01*
X126490030Y-94347401D01*
X126378599Y-94235970D01*
X126291048Y-94104941D01*
X126230743Y-93959351D01*
X126200000Y-93804794D01*
X126200000Y-93647206D01*
X126230743Y-93492649D01*
X126291048Y-93347059D01*
X126378599Y-93216030D01*
X126490030Y-93104599D01*
X126621059Y-93017048D01*
X126766649Y-92956743D01*
X126921206Y-92926000D01*
X127078794Y-92926000D01*
X127233351Y-92956743D01*
G37*
G36*
X145013351Y-92956743D02*
G01*
X145158941Y-93017048D01*
X145289970Y-93104599D01*
X145401401Y-93216030D01*
X145488952Y-93347059D01*
X145549257Y-93492649D01*
X145580000Y-93647206D01*
X145580000Y-93804794D01*
X145549257Y-93959351D01*
X145488952Y-94104941D01*
X145401401Y-94235970D01*
X145289970Y-94347401D01*
X145158941Y-94434952D01*
X145013351Y-94495257D01*
X144858794Y-94526000D01*
X144701206Y-94526000D01*
X144546649Y-94495257D01*
X144401059Y-94434952D01*
X144270030Y-94347401D01*
X144158599Y-94235970D01*
X144071048Y-94104941D01*
X144010743Y-93959351D01*
X143980000Y-93804794D01*
X143980000Y-93647206D01*
X144010743Y-93492649D01*
X144071048Y-93347059D01*
X144158599Y-93216030D01*
X144270030Y-93104599D01*
X144401059Y-93017048D01*
X144546649Y-92956743D01*
X144701206Y-92926000D01*
X144858794Y-92926000D01*
X145013351Y-92956743D01*
G37*
G36*
X142473351Y-92956743D02*
G01*
X142618941Y-93017048D01*
X142749970Y-93104599D01*
X142861401Y-93216030D01*
X142948952Y-93347059D01*
X143009257Y-93492649D01*
X143040000Y-93647206D01*
X143040000Y-93804794D01*
X143009257Y-93959351D01*
X142948952Y-94104941D01*
X142861401Y-94235970D01*
X142749970Y-94347401D01*
X142618941Y-94434952D01*
X142473351Y-94495257D01*
X142318794Y-94526000D01*
X142161206Y-94526000D01*
X142006649Y-94495257D01*
X141861059Y-94434952D01*
X141730030Y-94347401D01*
X141618599Y-94235970D01*
X141531048Y-94104941D01*
X141470743Y-93959351D01*
X141440000Y-93804794D01*
X141440000Y-93647206D01*
X141470743Y-93492649D01*
X141531048Y-93347059D01*
X141618599Y-93216030D01*
X141730030Y-93104599D01*
X141861059Y-93017048D01*
X142006649Y-92956743D01*
X142161206Y-92926000D01*
X142318794Y-92926000D01*
X142473351Y-92956743D01*
G37*
G36*
X139933351Y-92956743D02*
G01*
X140078941Y-93017048D01*
X140209970Y-93104599D01*
X140321401Y-93216030D01*
X140408952Y-93347059D01*
X140469257Y-93492649D01*
X140500000Y-93647206D01*
X140500000Y-93804794D01*
X140469257Y-93959351D01*
X140408952Y-94104941D01*
X140321401Y-94235970D01*
X140209970Y-94347401D01*
X140078941Y-94434952D01*
X139933351Y-94495257D01*
X139778794Y-94526000D01*
X139621206Y-94526000D01*
X139466649Y-94495257D01*
X139321059Y-94434952D01*
X139190030Y-94347401D01*
X139078599Y-94235970D01*
X138991048Y-94104941D01*
X138930743Y-93959351D01*
X138900000Y-93804794D01*
X138900000Y-93647206D01*
X138930743Y-93492649D01*
X138991048Y-93347059D01*
X139078599Y-93216030D01*
X139190030Y-93104599D01*
X139321059Y-93017048D01*
X139466649Y-92956743D01*
X139621206Y-92926000D01*
X139778794Y-92926000D01*
X139933351Y-92956743D01*
G37*
G36*
X137393351Y-92956743D02*
G01*
X137538941Y-93017048D01*
X137669970Y-93104599D01*
X137781401Y-93216030D01*
X137868952Y-93347059D01*
X137929257Y-93492649D01*
X137960000Y-93647206D01*
X137960000Y-93804794D01*
X137929257Y-93959351D01*
X137868952Y-94104941D01*
X137781401Y-94235970D01*
X137669970Y-94347401D01*
X137538941Y-94434952D01*
X137393351Y-94495257D01*
X137238794Y-94526000D01*
X137081206Y-94526000D01*
X136926649Y-94495257D01*
X136781059Y-94434952D01*
X136650030Y-94347401D01*
X136538599Y-94235970D01*
X136451048Y-94104941D01*
X136390743Y-93959351D01*
X136360000Y-93804794D01*
X136360000Y-93647206D01*
X136390743Y-93492649D01*
X136451048Y-93347059D01*
X136538599Y-93216030D01*
X136650030Y-93104599D01*
X136781059Y-93017048D01*
X136926649Y-92956743D01*
X137081206Y-92926000D01*
X137238794Y-92926000D01*
X137393351Y-92956743D01*
G37*
G36*
X134853351Y-92956743D02*
G01*
X134998941Y-93017048D01*
X135129970Y-93104599D01*
X135241401Y-93216030D01*
X135328952Y-93347059D01*
X135389257Y-93492649D01*
X135420000Y-93647206D01*
X135420000Y-93804794D01*
X135389257Y-93959351D01*
X135328952Y-94104941D01*
X135241401Y-94235970D01*
X135129970Y-94347401D01*
X134998941Y-94434952D01*
X134853351Y-94495257D01*
X134698794Y-94526000D01*
X134541206Y-94526000D01*
X134386649Y-94495257D01*
X134241059Y-94434952D01*
X134110030Y-94347401D01*
X133998599Y-94235970D01*
X133911048Y-94104941D01*
X133850743Y-93959351D01*
X133820000Y-93804794D01*
X133820000Y-93647206D01*
X133850743Y-93492649D01*
X133911048Y-93347059D01*
X133998599Y-93216030D01*
X134110030Y-93104599D01*
X134241059Y-93017048D01*
X134386649Y-92956743D01*
X134541206Y-92926000D01*
X134698794Y-92926000D01*
X134853351Y-92956743D01*
G37*
G36*
X129773351Y-92956743D02*
G01*
X129918941Y-93017048D01*
X130049970Y-93104599D01*
X130161401Y-93216030D01*
X130248952Y-93347059D01*
X130309257Y-93492649D01*
X130340000Y-93647206D01*
X130340000Y-93804794D01*
X130309257Y-93959351D01*
X130248952Y-94104941D01*
X130161401Y-94235970D01*
X130049970Y-94347401D01*
X129918941Y-94434952D01*
X129773351Y-94495257D01*
X129618794Y-94526000D01*
X129461206Y-94526000D01*
X129306649Y-94495257D01*
X129161059Y-94434952D01*
X129030030Y-94347401D01*
X128918599Y-94235970D01*
X128831048Y-94104941D01*
X128770743Y-93959351D01*
X128740000Y-93804794D01*
X128740000Y-93647206D01*
X128770743Y-93492649D01*
X128831048Y-93347059D01*
X128918599Y-93216030D01*
X129030030Y-93104599D01*
X129161059Y-93017048D01*
X129306649Y-92956743D01*
X129461206Y-92926000D01*
X129618794Y-92926000D01*
X129773351Y-92956743D01*
G37*
G36*
X124693351Y-92956743D02*
G01*
X124838941Y-93017048D01*
X124969970Y-93104599D01*
X125081401Y-93216030D01*
X125168952Y-93347059D01*
X125229257Y-93492649D01*
X125260000Y-93647206D01*
X125260000Y-93804794D01*
X125229257Y-93959351D01*
X125168952Y-94104941D01*
X125081401Y-94235970D01*
X124969970Y-94347401D01*
X124838941Y-94434952D01*
X124693351Y-94495257D01*
X124538794Y-94526000D01*
X124381206Y-94526000D01*
X124226649Y-94495257D01*
X124081059Y-94434952D01*
X123950030Y-94347401D01*
X123838599Y-94235970D01*
X123751048Y-94104941D01*
X123690743Y-93959351D01*
X123660000Y-93804794D01*
X123660000Y-93647206D01*
X123690743Y-93492649D01*
X123751048Y-93347059D01*
X123838599Y-93216030D01*
X123950030Y-93104599D01*
X124081059Y-93017048D01*
X124226649Y-92956743D01*
X124381206Y-92926000D01*
X124538794Y-92926000D01*
X124693351Y-92956743D01*
G37*
G36*
X157329964Y-92509337D02*
G01*
X157361525Y-92518912D01*
X157390620Y-92534463D01*
X157416115Y-92555385D01*
X157437037Y-92580880D01*
X157452588Y-92609975D01*
X157462163Y-92641536D01*
X157466000Y-92680498D01*
X157466000Y-93755502D01*
X157462163Y-93794464D01*
X157452588Y-93826025D01*
X157437037Y-93855120D01*
X157416115Y-93880615D01*
X157390620Y-93901537D01*
X157361525Y-93917088D01*
X157329964Y-93926663D01*
X157291002Y-93930500D01*
X155890998Y-93930500D01*
X155852036Y-93926663D01*
X155820475Y-93917088D01*
X155791380Y-93901537D01*
X155765885Y-93880615D01*
X155744963Y-93855120D01*
X155729412Y-93826025D01*
X155719837Y-93794464D01*
X155716000Y-93755502D01*
X155716000Y-92680498D01*
X155719837Y-92641536D01*
X155729412Y-92609975D01*
X155744963Y-92580880D01*
X155765885Y-92555385D01*
X155791380Y-92534463D01*
X155820475Y-92518912D01*
X155852036Y-92509337D01*
X155890998Y-92505500D01*
X157291002Y-92505500D01*
X157329964Y-92509337D01*
G37*
G36*
X160377964Y-92509337D02*
G01*
X160409525Y-92518912D01*
X160438620Y-92534463D01*
X160464115Y-92555385D01*
X160485037Y-92580880D01*
X160500588Y-92609975D01*
X160510163Y-92641536D01*
X160514000Y-92680498D01*
X160514000Y-93755502D01*
X160510163Y-93794464D01*
X160500588Y-93826025D01*
X160485037Y-93855120D01*
X160464115Y-93880615D01*
X160438620Y-93901537D01*
X160409525Y-93917088D01*
X160377964Y-93926663D01*
X160339002Y-93930500D01*
X158938998Y-93930500D01*
X158900036Y-93926663D01*
X158868475Y-93917088D01*
X158839380Y-93901537D01*
X158813885Y-93880615D01*
X158792963Y-93855120D01*
X158777412Y-93826025D01*
X158767837Y-93794464D01*
X158764000Y-93755502D01*
X158764000Y-92680498D01*
X158767837Y-92641536D01*
X158777412Y-92609975D01*
X158792963Y-92580880D01*
X158813885Y-92555385D01*
X158839380Y-92534463D01*
X158868475Y-92518912D01*
X158900036Y-92509337D01*
X158938998Y-92505500D01*
X160339002Y-92505500D01*
X160377964Y-92509337D01*
G37*
G36*
X164695964Y-92509337D02*
G01*
X164727525Y-92518912D01*
X164756620Y-92534463D01*
X164782115Y-92555385D01*
X164803037Y-92580880D01*
X164818588Y-92609975D01*
X164828163Y-92641536D01*
X164832000Y-92680498D01*
X164832000Y-93755502D01*
X164828163Y-93794464D01*
X164818588Y-93826025D01*
X164803037Y-93855120D01*
X164782115Y-93880615D01*
X164756620Y-93901537D01*
X164727525Y-93917088D01*
X164695964Y-93926663D01*
X164657002Y-93930500D01*
X163256998Y-93930500D01*
X163218036Y-93926663D01*
X163186475Y-93917088D01*
X163157380Y-93901537D01*
X163131885Y-93880615D01*
X163110963Y-93855120D01*
X163095412Y-93826025D01*
X163085837Y-93794464D01*
X163082000Y-93755502D01*
X163082000Y-92680498D01*
X163085837Y-92641536D01*
X163095412Y-92609975D01*
X163110963Y-92580880D01*
X163131885Y-92555385D01*
X163157380Y-92534463D01*
X163186475Y-92518912D01*
X163218036Y-92509337D01*
X163256998Y-92505500D01*
X164657002Y-92505500D01*
X164695964Y-92509337D01*
G37*
G36*
X157329964Y-89534337D02*
G01*
X157361525Y-89543912D01*
X157390620Y-89559463D01*
X157416115Y-89580385D01*
X157437037Y-89605880D01*
X157452588Y-89634975D01*
X157462163Y-89666536D01*
X157466000Y-89705498D01*
X157466000Y-90780502D01*
X157462163Y-90819464D01*
X157452588Y-90851025D01*
X157437037Y-90880120D01*
X157416115Y-90905615D01*
X157390620Y-90926537D01*
X157361525Y-90942088D01*
X157329964Y-90951663D01*
X157291002Y-90955500D01*
X155890998Y-90955500D01*
X155852036Y-90951663D01*
X155820475Y-90942088D01*
X155791380Y-90926537D01*
X155765885Y-90905615D01*
X155744963Y-90880120D01*
X155729412Y-90851025D01*
X155719837Y-90819464D01*
X155716000Y-90780502D01*
X155716000Y-89705498D01*
X155719837Y-89666536D01*
X155729412Y-89634975D01*
X155744963Y-89605880D01*
X155765885Y-89580385D01*
X155791380Y-89559463D01*
X155820475Y-89543912D01*
X155852036Y-89534337D01*
X155890998Y-89530500D01*
X157291002Y-89530500D01*
X157329964Y-89534337D01*
G37*
G36*
X160377964Y-89534337D02*
G01*
X160409525Y-89543912D01*
X160438620Y-89559463D01*
X160464115Y-89580385D01*
X160485037Y-89605880D01*
X160500588Y-89634975D01*
X160510163Y-89666536D01*
X160514000Y-89705498D01*
X160514000Y-90780502D01*
X160510163Y-90819464D01*
X160500588Y-90851025D01*
X160485037Y-90880120D01*
X160464115Y-90905615D01*
X160438620Y-90926537D01*
X160409525Y-90942088D01*
X160377964Y-90951663D01*
X160339002Y-90955500D01*
X158938998Y-90955500D01*
X158900036Y-90951663D01*
X158868475Y-90942088D01*
X158839380Y-90926537D01*
X158813885Y-90905615D01*
X158792963Y-90880120D01*
X158777412Y-90851025D01*
X158767837Y-90819464D01*
X158764000Y-90780502D01*
X158764000Y-89705498D01*
X158767837Y-89666536D01*
X158777412Y-89634975D01*
X158792963Y-89605880D01*
X158813885Y-89580385D01*
X158839380Y-89559463D01*
X158868475Y-89543912D01*
X158900036Y-89534337D01*
X158938998Y-89530500D01*
X160339002Y-89530500D01*
X160377964Y-89534337D01*
G37*
G36*
X164695964Y-89534337D02*
G01*
X164727525Y-89543912D01*
X164756620Y-89559463D01*
X164782115Y-89580385D01*
X164803037Y-89605880D01*
X164818588Y-89634975D01*
X164828163Y-89666536D01*
X164832000Y-89705498D01*
X164832000Y-90780502D01*
X164828163Y-90819464D01*
X164818588Y-90851025D01*
X164803037Y-90880120D01*
X164782115Y-90905615D01*
X164756620Y-90926537D01*
X164727525Y-90942088D01*
X164695964Y-90951663D01*
X164657002Y-90955500D01*
X163256998Y-90955500D01*
X163218036Y-90951663D01*
X163186475Y-90942088D01*
X163157380Y-90926537D01*
X163131885Y-90905615D01*
X163110963Y-90880120D01*
X163095412Y-90851025D01*
X163085837Y-90819464D01*
X163082000Y-90780502D01*
X163082000Y-89705498D01*
X163085837Y-89666536D01*
X163095412Y-89634975D01*
X163110963Y-89605880D01*
X163131885Y-89580385D01*
X163157380Y-89559463D01*
X163186475Y-89543912D01*
X163218036Y-89534337D01*
X163256998Y-89530500D01*
X164657002Y-89530500D01*
X164695964Y-89534337D01*
G37*
M02*
