G04 #@! TF.GenerationSoftware,KiCad,Pcbnew,(5.1.6)-1*
G04 #@! TF.CreationDate,2021-01-18T17:04:58-05:00*
G04 #@! TF.ProjectId,IO Board,494f2042-6f61-4726-942e-6b696361645f,2.3*
G04 #@! TF.SameCoordinates,Original*
G04 #@! TF.FileFunction,Legend,Bot*
G04 #@! TF.FilePolarity,Positive*
%FSLAX46Y46*%
G04 Gerber Fmt 4.6, Leading zero omitted, Abs format (unit mm)*
G04 Created by KiCad (PCBNEW (5.1.6)-1) date 2021-01-18 17:04:58*
%MOMM*%
%LPD*%
G01*
G04 APERTURE LIST*
%ADD10C,0.100000*%
%ADD11C,0.150000*%
%ADD12C,0.300000*%
%ADD13C,0.400000*%
%ADD14C,0.200000*%
%ADD15C,0.120000*%
%ADD16R,2.200000X2.150000*%
%ADD17R,2.032000X1.524000*%
%ADD18R,0.900000X0.800000*%
%ADD19R,2.660000X0.800000*%
%ADD20C,1.727200*%
%ADD21O,1.727200X1.727200*%
%ADD22O,1.727200X2.032000*%
%ADD23C,1.500000*%
%ADD24R,1.524000X2.032000*%
%ADD25O,1.700000X1.700000*%
%ADD26R,1.700000X1.700000*%
G04 APERTURE END LIST*
D10*
D11*
X159400000Y-171900000D02*
X159400000Y-203900000D01*
X267400000Y-203900000D01*
X267400000Y-171900000D01*
X159400000Y-171900000D01*
D10*
D11*
X10000000Y-10000000D02*
X10000000Y-205900000D01*
X269400000Y-205900000D01*
X269400000Y-10000000D01*
X10000000Y-10000000D01*
D10*
D11*
X12000000Y-12000000D02*
X12000000Y-203900000D01*
X267400000Y-203900000D01*
X267400000Y-12000000D01*
X12000000Y-12000000D01*
D10*
D11*
X60000000Y-12000000D02*
X60000000Y-10000000D01*
D10*
D11*
X110000000Y-12000000D02*
X110000000Y-10000000D01*
D10*
D11*
X160000000Y-12000000D02*
X160000000Y-10000000D01*
D10*
D11*
X210000000Y-12000000D02*
X210000000Y-10000000D01*
D10*
D11*
X260000000Y-12000000D02*
X260000000Y-10000000D01*
D10*
D11*
X36065476Y-11588095D02*
X35322619Y-11588095D01*
X35694047Y-11588095D02*
X35694047Y-10288095D01*
X35570238Y-10473809D01*
X35446428Y-10597619D01*
X35322619Y-10659523D01*
D10*
D11*
X85322619Y-10411904D02*
X85384523Y-10350000D01*
X85508333Y-10288095D01*
X85817857Y-10288095D01*
X85941666Y-10350000D01*
X86003571Y-10411904D01*
X86065476Y-10535714D01*
X86065476Y-10659523D01*
X86003571Y-10845238D01*
X85260714Y-11588095D01*
X86065476Y-11588095D01*
D10*
D11*
X135260714Y-10288095D02*
X136065476Y-10288095D01*
X135632142Y-10783333D01*
X135817857Y-10783333D01*
X135941666Y-10845238D01*
X136003571Y-10907142D01*
X136065476Y-11030952D01*
X136065476Y-11340476D01*
X136003571Y-11464285D01*
X135941666Y-11526190D01*
X135817857Y-11588095D01*
X135446428Y-11588095D01*
X135322619Y-11526190D01*
X135260714Y-11464285D01*
D10*
D11*
X185941666Y-10721428D02*
X185941666Y-11588095D01*
X185632142Y-10226190D02*
X185322619Y-11154761D01*
X186127380Y-11154761D01*
D10*
D11*
X236003571Y-10288095D02*
X235384523Y-10288095D01*
X235322619Y-10907142D01*
X235384523Y-10845238D01*
X235508333Y-10783333D01*
X235817857Y-10783333D01*
X235941666Y-10845238D01*
X236003571Y-10907142D01*
X236065476Y-11030952D01*
X236065476Y-11340476D01*
X236003571Y-11464285D01*
X235941666Y-11526190D01*
X235817857Y-11588095D01*
X235508333Y-11588095D01*
X235384523Y-11526190D01*
X235322619Y-11464285D01*
D10*
D11*
X60000000Y-203900000D02*
X60000000Y-205900000D01*
D10*
D11*
X110000000Y-203900000D02*
X110000000Y-205900000D01*
D10*
D11*
X160000000Y-203900000D02*
X160000000Y-205900000D01*
D10*
D11*
X210000000Y-203900000D02*
X210000000Y-205900000D01*
D10*
D11*
X260000000Y-203900000D02*
X260000000Y-205900000D01*
D10*
D11*
X36065476Y-205488095D02*
X35322619Y-205488095D01*
X35694047Y-205488095D02*
X35694047Y-204188095D01*
X35570238Y-204373809D01*
X35446428Y-204497619D01*
X35322619Y-204559523D01*
D10*
D11*
X85322619Y-204311904D02*
X85384523Y-204250000D01*
X85508333Y-204188095D01*
X85817857Y-204188095D01*
X85941666Y-204250000D01*
X86003571Y-204311904D01*
X86065476Y-204435714D01*
X86065476Y-204559523D01*
X86003571Y-204745238D01*
X85260714Y-205488095D01*
X86065476Y-205488095D01*
D10*
D11*
X135260714Y-204188095D02*
X136065476Y-204188095D01*
X135632142Y-204683333D01*
X135817857Y-204683333D01*
X135941666Y-204745238D01*
X136003571Y-204807142D01*
X136065476Y-204930952D01*
X136065476Y-205240476D01*
X136003571Y-205364285D01*
X135941666Y-205426190D01*
X135817857Y-205488095D01*
X135446428Y-205488095D01*
X135322619Y-205426190D01*
X135260714Y-205364285D01*
D10*
D11*
X185941666Y-204621428D02*
X185941666Y-205488095D01*
X185632142Y-204126190D02*
X185322619Y-205054761D01*
X186127380Y-205054761D01*
D10*
D11*
X236003571Y-204188095D02*
X235384523Y-204188095D01*
X235322619Y-204807142D01*
X235384523Y-204745238D01*
X235508333Y-204683333D01*
X235817857Y-204683333D01*
X235941666Y-204745238D01*
X236003571Y-204807142D01*
X236065476Y-204930952D01*
X236065476Y-205240476D01*
X236003571Y-205364285D01*
X235941666Y-205426190D01*
X235817857Y-205488095D01*
X235508333Y-205488095D01*
X235384523Y-205426190D01*
X235322619Y-205364285D01*
D10*
D11*
X10000000Y-60000000D02*
X12000000Y-60000000D01*
D10*
D11*
X10000000Y-110000000D02*
X12000000Y-110000000D01*
D10*
D11*
X10000000Y-160000000D02*
X12000000Y-160000000D01*
D10*
D11*
X10690476Y-35216666D02*
X11309523Y-35216666D01*
X10566666Y-35588095D02*
X11000000Y-34288095D01*
X11433333Y-35588095D01*
D10*
D11*
X11092857Y-84907142D02*
X11278571Y-84969047D01*
X11340476Y-85030952D01*
X11402380Y-85154761D01*
X11402380Y-85340476D01*
X11340476Y-85464285D01*
X11278571Y-85526190D01*
X11154761Y-85588095D01*
X10659523Y-85588095D01*
X10659523Y-84288095D01*
X11092857Y-84288095D01*
X11216666Y-84350000D01*
X11278571Y-84411904D01*
X11340476Y-84535714D01*
X11340476Y-84659523D01*
X11278571Y-84783333D01*
X11216666Y-84845238D01*
X11092857Y-84907142D01*
X10659523Y-84907142D01*
D10*
D11*
X11402380Y-135464285D02*
X11340476Y-135526190D01*
X11154761Y-135588095D01*
X11030952Y-135588095D01*
X10845238Y-135526190D01*
X10721428Y-135402380D01*
X10659523Y-135278571D01*
X10597619Y-135030952D01*
X10597619Y-134845238D01*
X10659523Y-134597619D01*
X10721428Y-134473809D01*
X10845238Y-134350000D01*
X11030952Y-134288095D01*
X11154761Y-134288095D01*
X11340476Y-134350000D01*
X11402380Y-134411904D01*
D10*
D11*
X10659523Y-185588095D02*
X10659523Y-184288095D01*
X10969047Y-184288095D01*
X11154761Y-184350000D01*
X11278571Y-184473809D01*
X11340476Y-184597619D01*
X11402380Y-184845238D01*
X11402380Y-185030952D01*
X11340476Y-185278571D01*
X11278571Y-185402380D01*
X11154761Y-185526190D01*
X10969047Y-185588095D01*
X10659523Y-185588095D01*
D10*
D11*
X269400000Y-60000000D02*
X267400000Y-60000000D01*
D10*
D11*
X269400000Y-110000000D02*
X267400000Y-110000000D01*
D10*
D11*
X269400000Y-160000000D02*
X267400000Y-160000000D01*
D10*
D11*
X268090476Y-35216666D02*
X268709523Y-35216666D01*
X267966666Y-35588095D02*
X268400000Y-34288095D01*
X268833333Y-35588095D01*
D10*
D11*
X268492857Y-84907142D02*
X268678571Y-84969047D01*
X268740476Y-85030952D01*
X268802380Y-85154761D01*
X268802380Y-85340476D01*
X268740476Y-85464285D01*
X268678571Y-85526190D01*
X268554761Y-85588095D01*
X268059523Y-85588095D01*
X268059523Y-84288095D01*
X268492857Y-84288095D01*
X268616666Y-84350000D01*
X268678571Y-84411904D01*
X268740476Y-84535714D01*
X268740476Y-84659523D01*
X268678571Y-84783333D01*
X268616666Y-84845238D01*
X268492857Y-84907142D01*
X268059523Y-84907142D01*
D10*
D11*
X268802380Y-135464285D02*
X268740476Y-135526190D01*
X268554761Y-135588095D01*
X268430952Y-135588095D01*
X268245238Y-135526190D01*
X268121428Y-135402380D01*
X268059523Y-135278571D01*
X267997619Y-135030952D01*
X267997619Y-134845238D01*
X268059523Y-134597619D01*
X268121428Y-134473809D01*
X268245238Y-134350000D01*
X268430952Y-134288095D01*
X268554761Y-134288095D01*
X268740476Y-134350000D01*
X268802380Y-134411904D01*
D10*
D11*
X268059523Y-185588095D02*
X268059523Y-184288095D01*
X268369047Y-184288095D01*
X268554761Y-184350000D01*
X268678571Y-184473809D01*
X268740476Y-184597619D01*
X268802380Y-184845238D01*
X268802380Y-185030952D01*
X268740476Y-185278571D01*
X268678571Y-185402380D01*
X268554761Y-185526190D01*
X268369047Y-185588095D01*
X268059523Y-185588095D01*
D10*
D11*
X182832142Y-199678571D02*
X182832142Y-198178571D01*
X183189285Y-198178571D01*
X183403571Y-198250000D01*
X183546428Y-198392857D01*
X183617857Y-198535714D01*
X183689285Y-198821428D01*
X183689285Y-199035714D01*
X183617857Y-199321428D01*
X183546428Y-199464285D01*
X183403571Y-199607142D01*
X183189285Y-199678571D01*
X182832142Y-199678571D01*
X184975000Y-199678571D02*
X184975000Y-198892857D01*
X184903571Y-198750000D01*
X184760714Y-198678571D01*
X184475000Y-198678571D01*
X184332142Y-198750000D01*
X184975000Y-199607142D02*
X184832142Y-199678571D01*
X184475000Y-199678571D01*
X184332142Y-199607142D01*
X184260714Y-199464285D01*
X184260714Y-199321428D01*
X184332142Y-199178571D01*
X184475000Y-199107142D01*
X184832142Y-199107142D01*
X184975000Y-199035714D01*
X185475000Y-198678571D02*
X186046428Y-198678571D01*
X185689285Y-198178571D02*
X185689285Y-199464285D01*
X185760714Y-199607142D01*
X185903571Y-199678571D01*
X186046428Y-199678571D01*
X187117857Y-199607142D02*
X186975000Y-199678571D01*
X186689285Y-199678571D01*
X186546428Y-199607142D01*
X186475000Y-199464285D01*
X186475000Y-198892857D01*
X186546428Y-198750000D01*
X186689285Y-198678571D01*
X186975000Y-198678571D01*
X187117857Y-198750000D01*
X187189285Y-198892857D01*
X187189285Y-199035714D01*
X186475000Y-199178571D01*
X187832142Y-199535714D02*
X187903571Y-199607142D01*
X187832142Y-199678571D01*
X187760714Y-199607142D01*
X187832142Y-199535714D01*
X187832142Y-199678571D01*
X187832142Y-198750000D02*
X187903571Y-198821428D01*
X187832142Y-198892857D01*
X187760714Y-198821428D01*
X187832142Y-198750000D01*
X187832142Y-198892857D01*
X189617857Y-198321428D02*
X189689285Y-198250000D01*
X189832142Y-198178571D01*
X190189285Y-198178571D01*
X190332142Y-198250000D01*
X190403571Y-198321428D01*
X190475000Y-198464285D01*
X190475000Y-198607142D01*
X190403571Y-198821428D01*
X189546428Y-199678571D01*
X190475000Y-199678571D01*
X191403571Y-198178571D02*
X191546428Y-198178571D01*
X191689285Y-198250000D01*
X191760714Y-198321428D01*
X191832142Y-198464285D01*
X191903571Y-198750000D01*
X191903571Y-199107142D01*
X191832142Y-199392857D01*
X191760714Y-199535714D01*
X191689285Y-199607142D01*
X191546428Y-199678571D01*
X191403571Y-199678571D01*
X191260714Y-199607142D01*
X191189285Y-199535714D01*
X191117857Y-199392857D01*
X191046428Y-199107142D01*
X191046428Y-198750000D01*
X191117857Y-198464285D01*
X191189285Y-198321428D01*
X191260714Y-198250000D01*
X191403571Y-198178571D01*
X192475000Y-198321428D02*
X192546428Y-198250000D01*
X192689285Y-198178571D01*
X193046428Y-198178571D01*
X193189285Y-198250000D01*
X193260714Y-198321428D01*
X193332142Y-198464285D01*
X193332142Y-198607142D01*
X193260714Y-198821428D01*
X192403571Y-199678571D01*
X193332142Y-199678571D01*
X194260714Y-198178571D02*
X194403571Y-198178571D01*
X194546428Y-198250000D01*
X194617857Y-198321428D01*
X194689285Y-198464285D01*
X194760714Y-198750000D01*
X194760714Y-199107142D01*
X194689285Y-199392857D01*
X194617857Y-199535714D01*
X194546428Y-199607142D01*
X194403571Y-199678571D01*
X194260714Y-199678571D01*
X194117857Y-199607142D01*
X194046428Y-199535714D01*
X193975000Y-199392857D01*
X193903571Y-199107142D01*
X193903571Y-198750000D01*
X193975000Y-198464285D01*
X194046428Y-198321428D01*
X194117857Y-198250000D01*
X194260714Y-198178571D01*
X195403571Y-199107142D02*
X196546428Y-199107142D01*
X197546428Y-198178571D02*
X197689285Y-198178571D01*
X197832142Y-198250000D01*
X197903571Y-198321428D01*
X197975000Y-198464285D01*
X198046428Y-198750000D01*
X198046428Y-199107142D01*
X197975000Y-199392857D01*
X197903571Y-199535714D01*
X197832142Y-199607142D01*
X197689285Y-199678571D01*
X197546428Y-199678571D01*
X197403571Y-199607142D01*
X197332142Y-199535714D01*
X197260714Y-199392857D01*
X197189285Y-199107142D01*
X197189285Y-198750000D01*
X197260714Y-198464285D01*
X197332142Y-198321428D01*
X197403571Y-198250000D01*
X197546428Y-198178571D01*
X199332142Y-198678571D02*
X199332142Y-199678571D01*
X198975000Y-198107142D02*
X198617857Y-199178571D01*
X199546428Y-199178571D01*
X200117857Y-199107142D02*
X201260714Y-199107142D01*
X201903571Y-198321428D02*
X201975000Y-198250000D01*
X202117857Y-198178571D01*
X202475000Y-198178571D01*
X202617857Y-198250000D01*
X202689285Y-198321428D01*
X202760714Y-198464285D01*
X202760714Y-198607142D01*
X202689285Y-198821428D01*
X201832142Y-199678571D01*
X202760714Y-199678571D01*
X203260714Y-198178571D02*
X204260714Y-198178571D01*
X203617857Y-199678571D01*
D10*
D11*
X159400000Y-200400000D02*
X267400000Y-200400000D01*
D10*
D11*
X160832142Y-202478571D02*
X160832142Y-200978571D01*
X161689285Y-202478571D02*
X161046428Y-201621428D01*
X161689285Y-200978571D02*
X160832142Y-201835714D01*
X162332142Y-202478571D02*
X162332142Y-201478571D01*
X162332142Y-200978571D02*
X162260714Y-201050000D01*
X162332142Y-201121428D01*
X162403571Y-201050000D01*
X162332142Y-200978571D01*
X162332142Y-201121428D01*
X163903571Y-202335714D02*
X163832142Y-202407142D01*
X163617857Y-202478571D01*
X163475000Y-202478571D01*
X163260714Y-202407142D01*
X163117857Y-202264285D01*
X163046428Y-202121428D01*
X162975000Y-201835714D01*
X162975000Y-201621428D01*
X163046428Y-201335714D01*
X163117857Y-201192857D01*
X163260714Y-201050000D01*
X163475000Y-200978571D01*
X163617857Y-200978571D01*
X163832142Y-201050000D01*
X163903571Y-201121428D01*
X165189285Y-202478571D02*
X165189285Y-201692857D01*
X165117857Y-201550000D01*
X164975000Y-201478571D01*
X164689285Y-201478571D01*
X164546428Y-201550000D01*
X165189285Y-202407142D02*
X165046428Y-202478571D01*
X164689285Y-202478571D01*
X164546428Y-202407142D01*
X164475000Y-202264285D01*
X164475000Y-202121428D01*
X164546428Y-201978571D01*
X164689285Y-201907142D01*
X165046428Y-201907142D01*
X165189285Y-201835714D01*
X166546428Y-202478571D02*
X166546428Y-200978571D01*
X166546428Y-202407142D02*
X166403571Y-202478571D01*
X166117857Y-202478571D01*
X165975000Y-202407142D01*
X165903571Y-202335714D01*
X165832142Y-202192857D01*
X165832142Y-201764285D01*
X165903571Y-201621428D01*
X165975000Y-201550000D01*
X166117857Y-201478571D01*
X166403571Y-201478571D01*
X166546428Y-201550000D01*
X168403571Y-201692857D02*
X168903571Y-201692857D01*
X169117857Y-202478571D02*
X168403571Y-202478571D01*
X168403571Y-200978571D01*
X169117857Y-200978571D01*
X169760714Y-202335714D02*
X169832142Y-202407142D01*
X169760714Y-202478571D01*
X169689285Y-202407142D01*
X169760714Y-202335714D01*
X169760714Y-202478571D01*
X170475000Y-202478571D02*
X170475000Y-200978571D01*
X170832142Y-200978571D01*
X171046428Y-201050000D01*
X171189285Y-201192857D01*
X171260714Y-201335714D01*
X171332142Y-201621428D01*
X171332142Y-201835714D01*
X171260714Y-202121428D01*
X171189285Y-202264285D01*
X171046428Y-202407142D01*
X170832142Y-202478571D01*
X170475000Y-202478571D01*
X171975000Y-202335714D02*
X172046428Y-202407142D01*
X171975000Y-202478571D01*
X171903571Y-202407142D01*
X171975000Y-202335714D01*
X171975000Y-202478571D01*
X172617857Y-202050000D02*
X173332142Y-202050000D01*
X172475000Y-202478571D02*
X172975000Y-200978571D01*
X173475000Y-202478571D01*
X173975000Y-202335714D02*
X174046428Y-202407142D01*
X173975000Y-202478571D01*
X173903571Y-202407142D01*
X173975000Y-202335714D01*
X173975000Y-202478571D01*
X176975000Y-202478571D02*
X176975000Y-200978571D01*
X177117857Y-201907142D02*
X177546428Y-202478571D01*
X177546428Y-201478571D02*
X176975000Y-202050000D01*
X178189285Y-202478571D02*
X178189285Y-201478571D01*
X178189285Y-200978571D02*
X178117857Y-201050000D01*
X178189285Y-201121428D01*
X178260714Y-201050000D01*
X178189285Y-200978571D01*
X178189285Y-201121428D01*
X179546428Y-202407142D02*
X179403571Y-202478571D01*
X179117857Y-202478571D01*
X178975000Y-202407142D01*
X178903571Y-202335714D01*
X178832142Y-202192857D01*
X178832142Y-201764285D01*
X178903571Y-201621428D01*
X178975000Y-201550000D01*
X179117857Y-201478571D01*
X179403571Y-201478571D01*
X179546428Y-201550000D01*
X180832142Y-202478571D02*
X180832142Y-201692857D01*
X180760714Y-201550000D01*
X180617857Y-201478571D01*
X180332142Y-201478571D01*
X180189285Y-201550000D01*
X180832142Y-202407142D02*
X180689285Y-202478571D01*
X180332142Y-202478571D01*
X180189285Y-202407142D01*
X180117857Y-202264285D01*
X180117857Y-202121428D01*
X180189285Y-201978571D01*
X180332142Y-201907142D01*
X180689285Y-201907142D01*
X180832142Y-201835714D01*
X182189285Y-202478571D02*
X182189285Y-200978571D01*
X182189285Y-202407142D02*
X182046428Y-202478571D01*
X181760714Y-202478571D01*
X181617857Y-202407142D01*
X181546428Y-202335714D01*
X181475000Y-202192857D01*
X181475000Y-201764285D01*
X181546428Y-201621428D01*
X181617857Y-201550000D01*
X181760714Y-201478571D01*
X182046428Y-201478571D01*
X182189285Y-201550000D01*
X184475000Y-203050000D02*
X184403571Y-202978571D01*
X184260714Y-202764285D01*
X184189285Y-202621428D01*
X184117857Y-202407142D01*
X184046428Y-202050000D01*
X184046428Y-201764285D01*
X184117857Y-201407142D01*
X184189285Y-201192857D01*
X184260714Y-201050000D01*
X184403571Y-200835714D01*
X184475000Y-200764285D01*
X185760714Y-200978571D02*
X185046428Y-200978571D01*
X184975000Y-201692857D01*
X185046428Y-201621428D01*
X185189285Y-201550000D01*
X185546428Y-201550000D01*
X185689285Y-201621428D01*
X185760714Y-201692857D01*
X185832142Y-201835714D01*
X185832142Y-202192857D01*
X185760714Y-202335714D01*
X185689285Y-202407142D01*
X185546428Y-202478571D01*
X185189285Y-202478571D01*
X185046428Y-202407142D01*
X184975000Y-202335714D01*
X186475000Y-202335714D02*
X186546428Y-202407142D01*
X186475000Y-202478571D01*
X186403571Y-202407142D01*
X186475000Y-202335714D01*
X186475000Y-202478571D01*
X187975000Y-202478571D02*
X187117857Y-202478571D01*
X187546428Y-202478571D02*
X187546428Y-200978571D01*
X187403571Y-201192857D01*
X187260714Y-201335714D01*
X187117857Y-201407142D01*
X188617857Y-202335714D02*
X188689285Y-202407142D01*
X188617857Y-202478571D01*
X188546428Y-202407142D01*
X188617857Y-202335714D01*
X188617857Y-202478571D01*
X189975000Y-200978571D02*
X189689285Y-200978571D01*
X189546428Y-201050000D01*
X189475000Y-201121428D01*
X189332142Y-201335714D01*
X189260714Y-201621428D01*
X189260714Y-202192857D01*
X189332142Y-202335714D01*
X189403571Y-202407142D01*
X189546428Y-202478571D01*
X189832142Y-202478571D01*
X189975000Y-202407142D01*
X190046428Y-202335714D01*
X190117857Y-202192857D01*
X190117857Y-201835714D01*
X190046428Y-201692857D01*
X189975000Y-201621428D01*
X189832142Y-201550000D01*
X189546428Y-201550000D01*
X189403571Y-201621428D01*
X189332142Y-201692857D01*
X189260714Y-201835714D01*
X190617857Y-203050000D02*
X190689285Y-202978571D01*
X190832142Y-202764285D01*
X190903571Y-202621428D01*
X190975000Y-202407142D01*
X191046428Y-202050000D01*
X191046428Y-201764285D01*
X190975000Y-201407142D01*
X190903571Y-201192857D01*
X190832142Y-201050000D01*
X190689285Y-200835714D01*
X190617857Y-200764285D01*
X191760714Y-201907142D02*
X192903571Y-201907142D01*
X194403571Y-202478571D02*
X193546428Y-202478571D01*
X193975000Y-202478571D02*
X193975000Y-200978571D01*
X193832142Y-201192857D01*
X193689285Y-201335714D01*
X193546428Y-201407142D01*
D10*
D11*
X159400000Y-197400000D02*
X267400000Y-197400000D01*
D10*
D12*
X246809285Y-199678571D02*
X246309285Y-198964285D01*
X245952142Y-199678571D02*
X245952142Y-198178571D01*
X246523571Y-198178571D01*
X246666428Y-198250000D01*
X246737857Y-198321428D01*
X246809285Y-198464285D01*
X246809285Y-198678571D01*
X246737857Y-198821428D01*
X246666428Y-198892857D01*
X246523571Y-198964285D01*
X245952142Y-198964285D01*
X248023571Y-199607142D02*
X247880714Y-199678571D01*
X247595000Y-199678571D01*
X247452142Y-199607142D01*
X247380714Y-199464285D01*
X247380714Y-198892857D01*
X247452142Y-198750000D01*
X247595000Y-198678571D01*
X247880714Y-198678571D01*
X248023571Y-198750000D01*
X248095000Y-198892857D01*
X248095000Y-199035714D01*
X247380714Y-199178571D01*
X248595000Y-198678571D02*
X248952142Y-199678571D01*
X249309285Y-198678571D01*
X249880714Y-199535714D02*
X249952142Y-199607142D01*
X249880714Y-199678571D01*
X249809285Y-199607142D01*
X249880714Y-199535714D01*
X249880714Y-199678571D01*
X249880714Y-198750000D02*
X249952142Y-198821428D01*
X249880714Y-198892857D01*
X249809285Y-198821428D01*
X249880714Y-198750000D01*
X249880714Y-198892857D01*
X251666428Y-198321428D02*
X251737857Y-198250000D01*
X251880714Y-198178571D01*
X252237857Y-198178571D01*
X252380714Y-198250000D01*
X252452142Y-198321428D01*
X252523571Y-198464285D01*
X252523571Y-198607142D01*
X252452142Y-198821428D01*
X251595000Y-199678571D01*
X252523571Y-199678571D01*
X253166428Y-199535714D02*
X253237857Y-199607142D01*
X253166428Y-199678571D01*
X253095000Y-199607142D01*
X253166428Y-199535714D01*
X253166428Y-199678571D01*
X253737857Y-198178571D02*
X254666428Y-198178571D01*
X254166428Y-198750000D01*
X254380714Y-198750000D01*
X254523571Y-198821428D01*
X254595000Y-198892857D01*
X254666428Y-199035714D01*
X254666428Y-199392857D01*
X254595000Y-199535714D01*
X254523571Y-199607142D01*
X254380714Y-199678571D01*
X253952142Y-199678571D01*
X253809285Y-199607142D01*
X253737857Y-199535714D01*
D10*
D11*
X160760714Y-199607142D02*
X160975000Y-199678571D01*
X161332142Y-199678571D01*
X161475000Y-199607142D01*
X161546428Y-199535714D01*
X161617857Y-199392857D01*
X161617857Y-199250000D01*
X161546428Y-199107142D01*
X161475000Y-199035714D01*
X161332142Y-198964285D01*
X161046428Y-198892857D01*
X160903571Y-198821428D01*
X160832142Y-198750000D01*
X160760714Y-198607142D01*
X160760714Y-198464285D01*
X160832142Y-198321428D01*
X160903571Y-198250000D01*
X161046428Y-198178571D01*
X161403571Y-198178571D01*
X161617857Y-198250000D01*
X162260714Y-199678571D02*
X162260714Y-198678571D01*
X162260714Y-198178571D02*
X162189285Y-198250000D01*
X162260714Y-198321428D01*
X162332142Y-198250000D01*
X162260714Y-198178571D01*
X162260714Y-198321428D01*
X162832142Y-198678571D02*
X163617857Y-198678571D01*
X162832142Y-199678571D01*
X163617857Y-199678571D01*
X164760714Y-199607142D02*
X164617857Y-199678571D01*
X164332142Y-199678571D01*
X164189285Y-199607142D01*
X164117857Y-199464285D01*
X164117857Y-198892857D01*
X164189285Y-198750000D01*
X164332142Y-198678571D01*
X164617857Y-198678571D01*
X164760714Y-198750000D01*
X164832142Y-198892857D01*
X164832142Y-199035714D01*
X164117857Y-199178571D01*
X165475000Y-199535714D02*
X165546428Y-199607142D01*
X165475000Y-199678571D01*
X165403571Y-199607142D01*
X165475000Y-199535714D01*
X165475000Y-199678571D01*
X165475000Y-198750000D02*
X165546428Y-198821428D01*
X165475000Y-198892857D01*
X165403571Y-198821428D01*
X165475000Y-198750000D01*
X165475000Y-198892857D01*
X167332142Y-198178571D02*
X167332142Y-199392857D01*
X167403571Y-199535714D01*
X167475000Y-199607142D01*
X167617857Y-199678571D01*
X167903571Y-199678571D01*
X168046428Y-199607142D01*
X168117857Y-199535714D01*
X168189285Y-199392857D01*
X168189285Y-198178571D01*
X168832142Y-199607142D02*
X169046428Y-199678571D01*
X169403571Y-199678571D01*
X169546428Y-199607142D01*
X169617857Y-199535714D01*
X169689285Y-199392857D01*
X169689285Y-199250000D01*
X169617857Y-199107142D01*
X169546428Y-199035714D01*
X169403571Y-198964285D01*
X169117857Y-198892857D01*
X168975000Y-198821428D01*
X168903571Y-198750000D01*
X168832142Y-198607142D01*
X168832142Y-198464285D01*
X168903571Y-198321428D01*
X168975000Y-198250000D01*
X169117857Y-198178571D01*
X169475000Y-198178571D01*
X169689285Y-198250000D01*
X171046428Y-199678571D02*
X170332142Y-199678571D01*
X170332142Y-198178571D01*
X172117857Y-199607142D02*
X171975000Y-199678571D01*
X171689285Y-199678571D01*
X171546428Y-199607142D01*
X171475000Y-199464285D01*
X171475000Y-198892857D01*
X171546428Y-198750000D01*
X171689285Y-198678571D01*
X171975000Y-198678571D01*
X172117857Y-198750000D01*
X172189285Y-198892857D01*
X172189285Y-199035714D01*
X171475000Y-199178571D01*
X172617857Y-198678571D02*
X173189285Y-198678571D01*
X172832142Y-198178571D02*
X172832142Y-199464285D01*
X172903571Y-199607142D01*
X173046428Y-199678571D01*
X173189285Y-199678571D01*
X173475000Y-198678571D02*
X174046428Y-198678571D01*
X173689285Y-198178571D02*
X173689285Y-199464285D01*
X173760714Y-199607142D01*
X173903571Y-199678571D01*
X174046428Y-199678571D01*
X175117857Y-199607142D02*
X174975000Y-199678571D01*
X174689285Y-199678571D01*
X174546428Y-199607142D01*
X174475000Y-199464285D01*
X174475000Y-198892857D01*
X174546428Y-198750000D01*
X174689285Y-198678571D01*
X174975000Y-198678571D01*
X175117857Y-198750000D01*
X175189285Y-198892857D01*
X175189285Y-199035714D01*
X174475000Y-199178571D01*
X175832142Y-199678571D02*
X175832142Y-198678571D01*
X175832142Y-198964285D02*
X175903571Y-198821428D01*
X175975000Y-198750000D01*
X176117857Y-198678571D01*
X176260714Y-198678571D01*
D10*
D11*
X245832142Y-202478571D02*
X245832142Y-200978571D01*
X247189285Y-202478571D02*
X247189285Y-200978571D01*
X247189285Y-202407142D02*
X247046428Y-202478571D01*
X246760714Y-202478571D01*
X246617857Y-202407142D01*
X246546428Y-202335714D01*
X246475000Y-202192857D01*
X246475000Y-201764285D01*
X246546428Y-201621428D01*
X246617857Y-201550000D01*
X246760714Y-201478571D01*
X247046428Y-201478571D01*
X247189285Y-201550000D01*
X247903571Y-202335714D02*
X247975000Y-202407142D01*
X247903571Y-202478571D01*
X247832142Y-202407142D01*
X247903571Y-202335714D01*
X247903571Y-202478571D01*
X247903571Y-201550000D02*
X247975000Y-201621428D01*
X247903571Y-201692857D01*
X247832142Y-201621428D01*
X247903571Y-201550000D01*
X247903571Y-201692857D01*
X250546428Y-202478571D02*
X249689285Y-202478571D01*
X250117857Y-202478571D02*
X250117857Y-200978571D01*
X249975000Y-201192857D01*
X249832142Y-201335714D01*
X249689285Y-201407142D01*
X252260714Y-200907142D02*
X250975000Y-202835714D01*
X253546428Y-202478571D02*
X252689285Y-202478571D01*
X253117857Y-202478571D02*
X253117857Y-200978571D01*
X252975000Y-201192857D01*
X252832142Y-201335714D01*
X252689285Y-201407142D01*
D10*
D11*
X159400000Y-193400000D02*
X267400000Y-193400000D01*
D10*
D13*
X161112380Y-194104761D02*
X162255238Y-194104761D01*
X161433809Y-196104761D02*
X161683809Y-194104761D01*
X162671904Y-196104761D02*
X162838571Y-194771428D01*
X162921904Y-194104761D02*
X162814761Y-194200000D01*
X162898095Y-194295238D01*
X163005238Y-194200000D01*
X162921904Y-194104761D01*
X162898095Y-194295238D01*
X163505238Y-194771428D02*
X164267142Y-194771428D01*
X163874285Y-194104761D02*
X163660000Y-195819047D01*
X163731428Y-196009523D01*
X163910000Y-196104761D01*
X164100476Y-196104761D01*
X165052857Y-196104761D02*
X164874285Y-196009523D01*
X164802857Y-195819047D01*
X165017142Y-194104761D01*
X166588571Y-196009523D02*
X166386190Y-196104761D01*
X166005238Y-196104761D01*
X165826666Y-196009523D01*
X165755238Y-195819047D01*
X165850476Y-195057142D01*
X165969523Y-194866666D01*
X166171904Y-194771428D01*
X166552857Y-194771428D01*
X166731428Y-194866666D01*
X166802857Y-195057142D01*
X166779047Y-195247619D01*
X165802857Y-195438095D01*
X167552857Y-195914285D02*
X167636190Y-196009523D01*
X167529047Y-196104761D01*
X167445714Y-196009523D01*
X167552857Y-195914285D01*
X167529047Y-196104761D01*
X167683809Y-194866666D02*
X167767142Y-194961904D01*
X167660000Y-195057142D01*
X167576666Y-194961904D01*
X167683809Y-194866666D01*
X167660000Y-195057142D01*
X170005238Y-196104761D02*
X170255238Y-194104761D01*
X172648095Y-194009523D02*
X170612380Y-196580952D01*
X173683809Y-194104761D02*
X174064761Y-194104761D01*
X174243333Y-194200000D01*
X174410000Y-194390476D01*
X174457619Y-194771428D01*
X174374285Y-195438095D01*
X174231428Y-195819047D01*
X174017142Y-196009523D01*
X173814761Y-196104761D01*
X173433809Y-196104761D01*
X173255238Y-196009523D01*
X173088571Y-195819047D01*
X173040952Y-195438095D01*
X173124285Y-194771428D01*
X173267142Y-194390476D01*
X173481428Y-194200000D01*
X173683809Y-194104761D01*
X177469523Y-195057142D02*
X177743333Y-195152380D01*
X177826666Y-195247619D01*
X177898095Y-195438095D01*
X177862380Y-195723809D01*
X177743333Y-195914285D01*
X177636190Y-196009523D01*
X177433809Y-196104761D01*
X176671904Y-196104761D01*
X176921904Y-194104761D01*
X177588571Y-194104761D01*
X177767142Y-194200000D01*
X177850476Y-194295238D01*
X177921904Y-194485714D01*
X177898095Y-194676190D01*
X177779047Y-194866666D01*
X177671904Y-194961904D01*
X177469523Y-195057142D01*
X176802857Y-195057142D01*
X178957619Y-196104761D02*
X178779047Y-196009523D01*
X178695714Y-195914285D01*
X178624285Y-195723809D01*
X178695714Y-195152380D01*
X178814761Y-194961904D01*
X178921904Y-194866666D01*
X179124285Y-194771428D01*
X179410000Y-194771428D01*
X179588571Y-194866666D01*
X179671904Y-194961904D01*
X179743333Y-195152380D01*
X179671904Y-195723809D01*
X179552857Y-195914285D01*
X179445714Y-196009523D01*
X179243333Y-196104761D01*
X178957619Y-196104761D01*
X181338571Y-196104761D02*
X181469523Y-195057142D01*
X181398095Y-194866666D01*
X181219523Y-194771428D01*
X180838571Y-194771428D01*
X180636190Y-194866666D01*
X181350476Y-196009523D02*
X181148095Y-196104761D01*
X180671904Y-196104761D01*
X180493333Y-196009523D01*
X180421904Y-195819047D01*
X180445714Y-195628571D01*
X180564761Y-195438095D01*
X180767142Y-195342857D01*
X181243333Y-195342857D01*
X181445714Y-195247619D01*
X182290952Y-196104761D02*
X182457619Y-194771428D01*
X182410000Y-195152380D02*
X182529047Y-194961904D01*
X182636190Y-194866666D01*
X182838571Y-194771428D01*
X183029047Y-194771428D01*
X184386190Y-196104761D02*
X184636190Y-194104761D01*
X184398095Y-196009523D02*
X184195714Y-196104761D01*
X183814761Y-196104761D01*
X183636190Y-196009523D01*
X183552857Y-195914285D01*
X183481428Y-195723809D01*
X183552857Y-195152380D01*
X183671904Y-194961904D01*
X183779047Y-194866666D01*
X183981428Y-194771428D01*
X184362380Y-194771428D01*
X184540952Y-194866666D01*
X187814761Y-196104761D02*
X186862380Y-196104761D01*
X187112380Y-194104761D01*
X189338571Y-196104761D02*
X189469523Y-195057142D01*
X189398095Y-194866666D01*
X189219523Y-194771428D01*
X188838571Y-194771428D01*
X188636190Y-194866666D01*
X189350476Y-196009523D02*
X189148095Y-196104761D01*
X188671904Y-196104761D01*
X188493333Y-196009523D01*
X188421904Y-195819047D01*
X188445714Y-195628571D01*
X188564761Y-195438095D01*
X188767142Y-195342857D01*
X189243333Y-195342857D01*
X189445714Y-195247619D01*
X190267142Y-194771428D02*
X190576666Y-196104761D01*
X191219523Y-194771428D02*
X190576666Y-196104761D01*
X190326666Y-196580952D01*
X190219523Y-196676190D01*
X190017142Y-196771428D01*
X192100476Y-196104761D02*
X191921904Y-196009523D01*
X191838571Y-195914285D01*
X191767142Y-195723809D01*
X191838571Y-195152380D01*
X191957619Y-194961904D01*
X192064761Y-194866666D01*
X192267142Y-194771428D01*
X192552857Y-194771428D01*
X192731428Y-194866666D01*
X192814761Y-194961904D01*
X192886190Y-195152380D01*
X192814761Y-195723809D01*
X192695714Y-195914285D01*
X192588571Y-196009523D01*
X192386190Y-196104761D01*
X192100476Y-196104761D01*
X194648095Y-194771428D02*
X194481428Y-196104761D01*
X193790952Y-194771428D02*
X193660000Y-195819047D01*
X193731428Y-196009523D01*
X193910000Y-196104761D01*
X194195714Y-196104761D01*
X194398095Y-196009523D01*
X194505238Y-195914285D01*
X195314761Y-194771428D02*
X196076666Y-194771428D01*
X195683809Y-194104761D02*
X195469523Y-195819047D01*
X195540952Y-196009523D01*
X195719523Y-196104761D01*
X195910000Y-196104761D01*
D10*
D11*
X161332142Y-191492857D02*
X160832142Y-191492857D01*
X160832142Y-192278571D02*
X160832142Y-190778571D01*
X161546428Y-190778571D01*
X162117857Y-192278571D02*
X162117857Y-191278571D01*
X162117857Y-190778571D02*
X162046428Y-190850000D01*
X162117857Y-190921428D01*
X162189285Y-190850000D01*
X162117857Y-190778571D01*
X162117857Y-190921428D01*
X163046428Y-192278571D02*
X162903571Y-192207142D01*
X162832142Y-192064285D01*
X162832142Y-190778571D01*
X164189285Y-192207142D02*
X164046428Y-192278571D01*
X163760714Y-192278571D01*
X163617857Y-192207142D01*
X163546428Y-192064285D01*
X163546428Y-191492857D01*
X163617857Y-191350000D01*
X163760714Y-191278571D01*
X164046428Y-191278571D01*
X164189285Y-191350000D01*
X164260714Y-191492857D01*
X164260714Y-191635714D01*
X163546428Y-191778571D01*
X164903571Y-192135714D02*
X164975000Y-192207142D01*
X164903571Y-192278571D01*
X164832142Y-192207142D01*
X164903571Y-192135714D01*
X164903571Y-192278571D01*
X164903571Y-191350000D02*
X164975000Y-191421428D01*
X164903571Y-191492857D01*
X164832142Y-191421428D01*
X164903571Y-191350000D01*
X164903571Y-191492857D01*
X166760714Y-192278571D02*
X166760714Y-190778571D01*
X167760714Y-190778571D02*
X168046428Y-190778571D01*
X168189285Y-190850000D01*
X168332142Y-190992857D01*
X168403571Y-191278571D01*
X168403571Y-191778571D01*
X168332142Y-192064285D01*
X168189285Y-192207142D01*
X168046428Y-192278571D01*
X167760714Y-192278571D01*
X167617857Y-192207142D01*
X167475000Y-192064285D01*
X167403571Y-191778571D01*
X167403571Y-191278571D01*
X167475000Y-190992857D01*
X167617857Y-190850000D01*
X167760714Y-190778571D01*
X170689285Y-191492857D02*
X170903571Y-191564285D01*
X170975000Y-191635714D01*
X171046428Y-191778571D01*
X171046428Y-191992857D01*
X170975000Y-192135714D01*
X170903571Y-192207142D01*
X170760714Y-192278571D01*
X170189285Y-192278571D01*
X170189285Y-190778571D01*
X170689285Y-190778571D01*
X170832142Y-190850000D01*
X170903571Y-190921428D01*
X170975000Y-191064285D01*
X170975000Y-191207142D01*
X170903571Y-191350000D01*
X170832142Y-191421428D01*
X170689285Y-191492857D01*
X170189285Y-191492857D01*
X171903571Y-192278571D02*
X171760714Y-192207142D01*
X171689285Y-192135714D01*
X171617857Y-191992857D01*
X171617857Y-191564285D01*
X171689285Y-191421428D01*
X171760714Y-191350000D01*
X171903571Y-191278571D01*
X172117857Y-191278571D01*
X172260714Y-191350000D01*
X172332142Y-191421428D01*
X172403571Y-191564285D01*
X172403571Y-191992857D01*
X172332142Y-192135714D01*
X172260714Y-192207142D01*
X172117857Y-192278571D01*
X171903571Y-192278571D01*
X173689285Y-192278571D02*
X173689285Y-191492857D01*
X173617857Y-191350000D01*
X173475000Y-191278571D01*
X173189285Y-191278571D01*
X173046428Y-191350000D01*
X173689285Y-192207142D02*
X173546428Y-192278571D01*
X173189285Y-192278571D01*
X173046428Y-192207142D01*
X172975000Y-192064285D01*
X172975000Y-191921428D01*
X173046428Y-191778571D01*
X173189285Y-191707142D01*
X173546428Y-191707142D01*
X173689285Y-191635714D01*
X174403571Y-192278571D02*
X174403571Y-191278571D01*
X174403571Y-191564285D02*
X174475000Y-191421428D01*
X174546428Y-191350000D01*
X174689285Y-191278571D01*
X174832142Y-191278571D01*
X175975000Y-192278571D02*
X175975000Y-190778571D01*
X175975000Y-192207142D02*
X175832142Y-192278571D01*
X175546428Y-192278571D01*
X175403571Y-192207142D01*
X175332142Y-192135714D01*
X175260714Y-191992857D01*
X175260714Y-191564285D01*
X175332142Y-191421428D01*
X175403571Y-191350000D01*
X175546428Y-191278571D01*
X175832142Y-191278571D01*
X175975000Y-191350000D01*
X176689285Y-192135714D02*
X176760714Y-192207142D01*
X176689285Y-192278571D01*
X176617857Y-192207142D01*
X176689285Y-192135714D01*
X176689285Y-192278571D01*
X177403571Y-192278571D02*
X177403571Y-190778571D01*
X177546428Y-191707142D02*
X177975000Y-192278571D01*
X177975000Y-191278571D02*
X177403571Y-191850000D01*
X178617857Y-192278571D02*
X178617857Y-191278571D01*
X178617857Y-190778571D02*
X178546428Y-190850000D01*
X178617857Y-190921428D01*
X178689285Y-190850000D01*
X178617857Y-190778571D01*
X178617857Y-190921428D01*
X179975000Y-192207142D02*
X179832142Y-192278571D01*
X179546428Y-192278571D01*
X179403571Y-192207142D01*
X179332142Y-192135714D01*
X179260714Y-191992857D01*
X179260714Y-191564285D01*
X179332142Y-191421428D01*
X179403571Y-191350000D01*
X179546428Y-191278571D01*
X179832142Y-191278571D01*
X179975000Y-191350000D01*
X181260714Y-192278571D02*
X181260714Y-191492857D01*
X181189285Y-191350000D01*
X181046428Y-191278571D01*
X180760714Y-191278571D01*
X180617857Y-191350000D01*
X181260714Y-192207142D02*
X181117857Y-192278571D01*
X180760714Y-192278571D01*
X180617857Y-192207142D01*
X180546428Y-192064285D01*
X180546428Y-191921428D01*
X180617857Y-191778571D01*
X180760714Y-191707142D01*
X181117857Y-191707142D01*
X181260714Y-191635714D01*
X182617857Y-192278571D02*
X182617857Y-190778571D01*
X182617857Y-192207142D02*
X182475000Y-192278571D01*
X182189285Y-192278571D01*
X182046428Y-192207142D01*
X181975000Y-192135714D01*
X181903571Y-191992857D01*
X181903571Y-191564285D01*
X181975000Y-191421428D01*
X182046428Y-191350000D01*
X182189285Y-191278571D01*
X182475000Y-191278571D01*
X182617857Y-191350000D01*
X182975000Y-192421428D02*
X184117857Y-192421428D01*
X184475000Y-191278571D02*
X184475000Y-192778571D01*
X184475000Y-191350000D02*
X184617857Y-191278571D01*
X184903571Y-191278571D01*
X185046428Y-191350000D01*
X185117857Y-191421428D01*
X185189285Y-191564285D01*
X185189285Y-191992857D01*
X185117857Y-192135714D01*
X185046428Y-192207142D01*
X184903571Y-192278571D01*
X184617857Y-192278571D01*
X184475000Y-192207142D01*
X186475000Y-192207142D02*
X186332142Y-192278571D01*
X186046428Y-192278571D01*
X185903571Y-192207142D01*
X185832142Y-192135714D01*
X185760714Y-191992857D01*
X185760714Y-191564285D01*
X185832142Y-191421428D01*
X185903571Y-191350000D01*
X186046428Y-191278571D01*
X186332142Y-191278571D01*
X186475000Y-191350000D01*
X187117857Y-192278571D02*
X187117857Y-190778571D01*
X187117857Y-191350000D02*
X187260714Y-191278571D01*
X187546428Y-191278571D01*
X187689285Y-191350000D01*
X187760714Y-191421428D01*
X187832142Y-191564285D01*
X187832142Y-191992857D01*
X187760714Y-192135714D01*
X187689285Y-192207142D01*
X187546428Y-192278571D01*
X187260714Y-192278571D01*
X187117857Y-192207142D01*
D10*
D11*
X159400000Y-187400000D02*
X267400000Y-187400000D01*
D10*
D11*
X160760714Y-189507142D02*
X160975000Y-189578571D01*
X161332142Y-189578571D01*
X161475000Y-189507142D01*
X161546428Y-189435714D01*
X161617857Y-189292857D01*
X161617857Y-189150000D01*
X161546428Y-189007142D01*
X161475000Y-188935714D01*
X161332142Y-188864285D01*
X161046428Y-188792857D01*
X160903571Y-188721428D01*
X160832142Y-188650000D01*
X160760714Y-188507142D01*
X160760714Y-188364285D01*
X160832142Y-188221428D01*
X160903571Y-188150000D01*
X161046428Y-188078571D01*
X161403571Y-188078571D01*
X161617857Y-188150000D01*
X162260714Y-189578571D02*
X162260714Y-188078571D01*
X162903571Y-189578571D02*
X162903571Y-188792857D01*
X162832142Y-188650000D01*
X162689285Y-188578571D01*
X162475000Y-188578571D01*
X162332142Y-188650000D01*
X162260714Y-188721428D01*
X164189285Y-189507142D02*
X164046428Y-189578571D01*
X163760714Y-189578571D01*
X163617857Y-189507142D01*
X163546428Y-189364285D01*
X163546428Y-188792857D01*
X163617857Y-188650000D01*
X163760714Y-188578571D01*
X164046428Y-188578571D01*
X164189285Y-188650000D01*
X164260714Y-188792857D01*
X164260714Y-188935714D01*
X163546428Y-189078571D01*
X165475000Y-189507142D02*
X165332142Y-189578571D01*
X165046428Y-189578571D01*
X164903571Y-189507142D01*
X164832142Y-189364285D01*
X164832142Y-188792857D01*
X164903571Y-188650000D01*
X165046428Y-188578571D01*
X165332142Y-188578571D01*
X165475000Y-188650000D01*
X165546428Y-188792857D01*
X165546428Y-188935714D01*
X164832142Y-189078571D01*
X165975000Y-188578571D02*
X166546428Y-188578571D01*
X166189285Y-188078571D02*
X166189285Y-189364285D01*
X166260714Y-189507142D01*
X166403571Y-189578571D01*
X166546428Y-189578571D01*
X167046428Y-189435714D02*
X167117857Y-189507142D01*
X167046428Y-189578571D01*
X166975000Y-189507142D01*
X167046428Y-189435714D01*
X167046428Y-189578571D01*
X167046428Y-188650000D02*
X167117857Y-188721428D01*
X167046428Y-188792857D01*
X166975000Y-188721428D01*
X167046428Y-188650000D01*
X167046428Y-188792857D01*
D10*
D11*
X179400000Y-197400000D02*
X179400000Y-200400000D01*
D10*
D11*
X243400000Y-197400000D02*
X243400000Y-203900000D01*
D12*
X226612142Y-93383571D02*
X226612142Y-91883571D01*
X228397857Y-91812142D02*
X227112142Y-93740714D01*
X229183571Y-91883571D02*
X229469285Y-91883571D01*
X229612142Y-91955000D01*
X229755000Y-92097857D01*
X229826428Y-92383571D01*
X229826428Y-92883571D01*
X229755000Y-93169285D01*
X229612142Y-93312142D01*
X229469285Y-93383571D01*
X229183571Y-93383571D01*
X229040714Y-93312142D01*
X228897857Y-93169285D01*
X228826428Y-92883571D01*
X228826428Y-92383571D01*
X228897857Y-92097857D01*
X229040714Y-91955000D01*
X229183571Y-91883571D01*
X232112142Y-92597857D02*
X232326428Y-92669285D01*
X232397857Y-92740714D01*
X232469285Y-92883571D01*
X232469285Y-93097857D01*
X232397857Y-93240714D01*
X232326428Y-93312142D01*
X232183571Y-93383571D01*
X231612142Y-93383571D01*
X231612142Y-91883571D01*
X232112142Y-91883571D01*
X232255000Y-91955000D01*
X232326428Y-92026428D01*
X232397857Y-92169285D01*
X232397857Y-92312142D01*
X232326428Y-92455000D01*
X232255000Y-92526428D01*
X232112142Y-92597857D01*
X231612142Y-92597857D01*
X233326428Y-93383571D02*
X233183571Y-93312142D01*
X233112142Y-93240714D01*
X233040714Y-93097857D01*
X233040714Y-92669285D01*
X233112142Y-92526428D01*
X233183571Y-92455000D01*
X233326428Y-92383571D01*
X233540714Y-92383571D01*
X233683571Y-92455000D01*
X233755000Y-92526428D01*
X233826428Y-92669285D01*
X233826428Y-93097857D01*
X233755000Y-93240714D01*
X233683571Y-93312142D01*
X233540714Y-93383571D01*
X233326428Y-93383571D01*
X235112142Y-93383571D02*
X235112142Y-92597857D01*
X235040714Y-92455000D01*
X234897857Y-92383571D01*
X234612142Y-92383571D01*
X234469285Y-92455000D01*
X235112142Y-93312142D02*
X234969285Y-93383571D01*
X234612142Y-93383571D01*
X234469285Y-93312142D01*
X234397857Y-93169285D01*
X234397857Y-93026428D01*
X234469285Y-92883571D01*
X234612142Y-92812142D01*
X234969285Y-92812142D01*
X235112142Y-92740714D01*
X235826428Y-93383571D02*
X235826428Y-92383571D01*
X235826428Y-92669285D02*
X235897857Y-92526428D01*
X235969285Y-92455000D01*
X236112142Y-92383571D01*
X236255000Y-92383571D01*
X237397857Y-93383571D02*
X237397857Y-91883571D01*
X237397857Y-93312142D02*
X237255000Y-93383571D01*
X236969285Y-93383571D01*
X236826428Y-93312142D01*
X236755000Y-93240714D01*
X236683571Y-93097857D01*
X236683571Y-92669285D01*
X236755000Y-92526428D01*
X236826428Y-92455000D01*
X236969285Y-92383571D01*
X237255000Y-92383571D01*
X237397857Y-92455000D01*
X240112142Y-93383571D02*
X239612142Y-92669285D01*
X239255000Y-93383571D02*
X239255000Y-91883571D01*
X239826428Y-91883571D01*
X239969285Y-91955000D01*
X240040714Y-92026428D01*
X240112142Y-92169285D01*
X240112142Y-92383571D01*
X240040714Y-92526428D01*
X239969285Y-92597857D01*
X239826428Y-92669285D01*
X239255000Y-92669285D01*
X241326428Y-93312142D02*
X241183571Y-93383571D01*
X240897857Y-93383571D01*
X240755000Y-93312142D01*
X240683571Y-93169285D01*
X240683571Y-92597857D01*
X240755000Y-92455000D01*
X240897857Y-92383571D01*
X241183571Y-92383571D01*
X241326428Y-92455000D01*
X241397857Y-92597857D01*
X241397857Y-92740714D01*
X240683571Y-92883571D01*
X241897857Y-92383571D02*
X242255000Y-93383571D01*
X242612142Y-92383571D01*
X244255000Y-92026428D02*
X244326428Y-91955000D01*
X244469285Y-91883571D01*
X244826428Y-91883571D01*
X244969285Y-91955000D01*
X245040714Y-92026428D01*
X245112142Y-92169285D01*
X245112142Y-92312142D01*
X245040714Y-92526428D01*
X244183571Y-93383571D01*
X245112142Y-93383571D01*
X245755000Y-93240714D02*
X245826428Y-93312142D01*
X245755000Y-93383571D01*
X245683571Y-93312142D01*
X245755000Y-93240714D01*
X245755000Y-93383571D01*
X247183571Y-91883571D02*
X246469285Y-91883571D01*
X246397857Y-92597857D01*
X246469285Y-92526428D01*
X246612142Y-92455000D01*
X246969285Y-92455000D01*
X247112142Y-92526428D01*
X247183571Y-92597857D01*
X247255000Y-92740714D01*
X247255000Y-93097857D01*
X247183571Y-93240714D01*
X247112142Y-93312142D01*
X246969285Y-93383571D01*
X246612142Y-93383571D01*
X246469285Y-93312142D01*
X246397857Y-93240714D01*
X227112142Y-95147857D02*
X227326428Y-95219285D01*
X227397857Y-95290714D01*
X227469285Y-95433571D01*
X227469285Y-95647857D01*
X227397857Y-95790714D01*
X227326428Y-95862142D01*
X227183571Y-95933571D01*
X226612142Y-95933571D01*
X226612142Y-94433571D01*
X227112142Y-94433571D01*
X227255000Y-94505000D01*
X227326428Y-94576428D01*
X227397857Y-94719285D01*
X227397857Y-94862142D01*
X227326428Y-95005000D01*
X227255000Y-95076428D01*
X227112142Y-95147857D01*
X226612142Y-95147857D01*
X228326428Y-95933571D02*
X228183571Y-95862142D01*
X228112142Y-95790714D01*
X228040714Y-95647857D01*
X228040714Y-95219285D01*
X228112142Y-95076428D01*
X228183571Y-95005000D01*
X228326428Y-94933571D01*
X228540714Y-94933571D01*
X228683571Y-95005000D01*
X228755000Y-95076428D01*
X228826428Y-95219285D01*
X228826428Y-95647857D01*
X228755000Y-95790714D01*
X228683571Y-95862142D01*
X228540714Y-95933571D01*
X228326428Y-95933571D01*
X229255000Y-94933571D02*
X229826428Y-94933571D01*
X229469285Y-94433571D02*
X229469285Y-95719285D01*
X229540714Y-95862142D01*
X229683571Y-95933571D01*
X229826428Y-95933571D01*
X230112142Y-94933571D02*
X230683571Y-94933571D01*
X230326428Y-94433571D02*
X230326428Y-95719285D01*
X230397857Y-95862142D01*
X230540714Y-95933571D01*
X230683571Y-95933571D01*
X231397857Y-95933571D02*
X231255000Y-95862142D01*
X231183571Y-95790714D01*
X231112142Y-95647857D01*
X231112142Y-95219285D01*
X231183571Y-95076428D01*
X231255000Y-95005000D01*
X231397857Y-94933571D01*
X231612142Y-94933571D01*
X231755000Y-95005000D01*
X231826428Y-95076428D01*
X231897857Y-95219285D01*
X231897857Y-95647857D01*
X231826428Y-95790714D01*
X231755000Y-95862142D01*
X231612142Y-95933571D01*
X231397857Y-95933571D01*
X232540714Y-95933571D02*
X232540714Y-94933571D01*
X232540714Y-95076428D02*
X232612142Y-95005000D01*
X232755000Y-94933571D01*
X232969285Y-94933571D01*
X233112142Y-95005000D01*
X233183571Y-95147857D01*
X233183571Y-95933571D01*
X233183571Y-95147857D02*
X233255000Y-95005000D01*
X233397857Y-94933571D01*
X233612142Y-94933571D01*
X233755000Y-95005000D01*
X233826428Y-95147857D01*
X233826428Y-95933571D01*
X235612142Y-95862142D02*
X235826428Y-95933571D01*
X236183571Y-95933571D01*
X236326428Y-95862142D01*
X236397857Y-95790714D01*
X236469285Y-95647857D01*
X236469285Y-95505000D01*
X236397857Y-95362142D01*
X236326428Y-95290714D01*
X236183571Y-95219285D01*
X235897857Y-95147857D01*
X235755000Y-95076428D01*
X235683571Y-95005000D01*
X235612142Y-94862142D01*
X235612142Y-94719285D01*
X235683571Y-94576428D01*
X235755000Y-94505000D01*
X235897857Y-94433571D01*
X236255000Y-94433571D01*
X236469285Y-94505000D01*
X237112142Y-95933571D02*
X237112142Y-94933571D01*
X237112142Y-94433571D02*
X237040714Y-94505000D01*
X237112142Y-94576428D01*
X237183571Y-94505000D01*
X237112142Y-94433571D01*
X237112142Y-94576428D01*
X238469285Y-95933571D02*
X238469285Y-94433571D01*
X238469285Y-95862142D02*
X238326428Y-95933571D01*
X238040714Y-95933571D01*
X237897857Y-95862142D01*
X237826428Y-95790714D01*
X237755000Y-95647857D01*
X237755000Y-95219285D01*
X237826428Y-95076428D01*
X237897857Y-95005000D01*
X238040714Y-94933571D01*
X238326428Y-94933571D01*
X238469285Y-95005000D01*
X239755000Y-95862142D02*
X239612142Y-95933571D01*
X239326428Y-95933571D01*
X239183571Y-95862142D01*
X239112142Y-95719285D01*
X239112142Y-95147857D01*
X239183571Y-95005000D01*
X239326428Y-94933571D01*
X239612142Y-94933571D01*
X239755000Y-95005000D01*
X239826428Y-95147857D01*
X239826428Y-95290714D01*
X239112142Y-95433571D01*
X241540714Y-95862142D02*
X241755000Y-95933571D01*
X242112142Y-95933571D01*
X242255000Y-95862142D01*
X242326428Y-95790714D01*
X242397857Y-95647857D01*
X242397857Y-95505000D01*
X242326428Y-95362142D01*
X242255000Y-95290714D01*
X242112142Y-95219285D01*
X241826428Y-95147857D01*
X241683571Y-95076428D01*
X241612142Y-95005000D01*
X241540714Y-94862142D01*
X241540714Y-94719285D01*
X241612142Y-94576428D01*
X241683571Y-94505000D01*
X241826428Y-94433571D01*
X242183571Y-94433571D01*
X242397857Y-94505000D01*
X243040714Y-95933571D02*
X243040714Y-94933571D01*
X243040714Y-94433571D02*
X242969285Y-94505000D01*
X243040714Y-94576428D01*
X243112142Y-94505000D01*
X243040714Y-94433571D01*
X243040714Y-94576428D01*
X243969285Y-95933571D02*
X243826428Y-95862142D01*
X243755000Y-95719285D01*
X243755000Y-94433571D01*
X244540714Y-95933571D02*
X244540714Y-94433571D01*
X244683571Y-95362142D02*
X245112142Y-95933571D01*
X245112142Y-94933571D02*
X244540714Y-95505000D01*
X246826428Y-95862142D02*
X247040714Y-95933571D01*
X247397857Y-95933571D01*
X247540714Y-95862142D01*
X247612142Y-95790714D01*
X247683571Y-95647857D01*
X247683571Y-95505000D01*
X247612142Y-95362142D01*
X247540714Y-95290714D01*
X247397857Y-95219285D01*
X247112142Y-95147857D01*
X246969285Y-95076428D01*
X246897857Y-95005000D01*
X246826428Y-94862142D01*
X246826428Y-94719285D01*
X246897857Y-94576428D01*
X246969285Y-94505000D01*
X247112142Y-94433571D01*
X247469285Y-94433571D01*
X247683571Y-94505000D01*
X248969285Y-95862142D02*
X248826428Y-95933571D01*
X248540714Y-95933571D01*
X248397857Y-95862142D01*
X248326428Y-95790714D01*
X248255000Y-95647857D01*
X248255000Y-95219285D01*
X248326428Y-95076428D01*
X248397857Y-95005000D01*
X248540714Y-94933571D01*
X248826428Y-94933571D01*
X248969285Y-95005000D01*
X249612142Y-95933571D02*
X249612142Y-94933571D01*
X249612142Y-95219285D02*
X249683571Y-95076428D01*
X249755000Y-95005000D01*
X249897857Y-94933571D01*
X250040714Y-94933571D01*
X251112142Y-95862142D02*
X250969285Y-95933571D01*
X250683571Y-95933571D01*
X250540714Y-95862142D01*
X250469285Y-95719285D01*
X250469285Y-95147857D01*
X250540714Y-95005000D01*
X250683571Y-94933571D01*
X250969285Y-94933571D01*
X251112142Y-95005000D01*
X251183571Y-95147857D01*
X251183571Y-95290714D01*
X250469285Y-95433571D01*
X252397857Y-95862142D02*
X252255000Y-95933571D01*
X251969285Y-95933571D01*
X251826428Y-95862142D01*
X251755000Y-95719285D01*
X251755000Y-95147857D01*
X251826428Y-95005000D01*
X251969285Y-94933571D01*
X252255000Y-94933571D01*
X252397857Y-95005000D01*
X252469285Y-95147857D01*
X252469285Y-95290714D01*
X251755000Y-95433571D01*
X253112142Y-94933571D02*
X253112142Y-95933571D01*
X253112142Y-95076428D02*
X253183571Y-95005000D01*
X253326428Y-94933571D01*
X253540714Y-94933571D01*
X253683571Y-95005000D01*
X253755000Y-95147857D01*
X253755000Y-95933571D01*
D14*
X164700000Y-102100000D02*
X164700000Y-101750000D01*
X170100000Y-102100000D02*
X170100000Y-101750000D01*
X164700000Y-98500000D02*
X164700000Y-98900000D01*
X170100000Y-98500000D02*
X170100000Y-98900000D01*
X171491420Y-100300000D02*
G75*
G03*
X171491420Y-100300000I-141420J0D01*
G01*
X170100000Y-102100000D02*
X164700000Y-102100000D01*
X170100000Y-98500000D02*
X164700000Y-98500000D01*
D11*
X190500000Y-80568800D02*
X190500000Y-80822800D01*
X190500000Y-80822800D02*
X188214000Y-80822800D01*
X188214000Y-80822800D02*
X188214000Y-80568800D01*
X190500000Y-80568800D02*
X188214000Y-80568800D01*
X188214000Y-80568800D02*
X188214000Y-78917800D01*
X190500000Y-77139800D02*
X190500000Y-75488800D01*
X190500000Y-75488800D02*
X188214000Y-75488800D01*
X188214000Y-75488800D02*
X188214000Y-77139800D01*
X190500000Y-78917800D02*
X190500000Y-80568800D01*
X193979800Y-80543400D02*
X193979800Y-80797400D01*
X193979800Y-80797400D02*
X191693800Y-80797400D01*
X191693800Y-80797400D02*
X191693800Y-80543400D01*
X193979800Y-80543400D02*
X191693800Y-80543400D01*
X191693800Y-80543400D02*
X191693800Y-78892400D01*
X193979800Y-77114400D02*
X193979800Y-75463400D01*
X193979800Y-75463400D02*
X191693800Y-75463400D01*
X191693800Y-75463400D02*
X191693800Y-77114400D01*
X193979800Y-78892400D02*
X193979800Y-80543400D01*
D15*
X165635400Y-97363400D02*
X165635400Y-96433400D01*
X165635400Y-94203400D02*
X165635400Y-95133400D01*
X165635400Y-94203400D02*
X167795400Y-94203400D01*
X165635400Y-97363400D02*
X167095400Y-97363400D01*
X181723000Y-92588200D02*
X181723000Y-91658200D01*
X181723000Y-89428200D02*
X181723000Y-90358200D01*
X181723000Y-89428200D02*
X183883000Y-89428200D01*
X181723000Y-92588200D02*
X183183000Y-92588200D01*
X172875600Y-108069600D02*
X172875600Y-112369600D01*
X168745600Y-113859600D02*
X175745600Y-113859600D01*
X175745600Y-103259600D02*
X175745600Y-113859600D01*
X173275600Y-107289600D02*
X172475600Y-106769600D01*
X174175600Y-112369600D02*
X172875600Y-112369600D01*
X170725600Y-109589600D02*
X170725600Y-112379600D01*
X170215600Y-107049600D02*
X170215600Y-109589600D01*
X171235600Y-107049600D02*
X170725600Y-107049600D01*
X168745600Y-103259600D02*
X168745600Y-113859600D01*
X174175600Y-107269600D02*
X173275600Y-107269600D01*
X173405600Y-107289600D02*
G75*
G03*
X173405600Y-107289600I-130000J0D01*
G01*
X168745600Y-103259600D02*
X175745600Y-103259600D01*
X170725600Y-112379600D02*
X170255600Y-112379600D01*
X170725600Y-109589600D02*
X171235600Y-109589600D01*
X170725600Y-104759600D02*
X170725600Y-107049600D01*
X170215600Y-109589600D02*
X170725600Y-109589600D01*
X170725600Y-107049600D02*
X170215600Y-107049600D01*
X171235600Y-109589600D02*
X171235600Y-107049600D01*
X170215600Y-107809600D02*
X171235600Y-108819600D01*
X170255600Y-104759600D02*
X170725600Y-104759600D01*
X162064200Y-107968000D02*
X162064200Y-112268000D01*
X157934200Y-113758000D02*
X164934200Y-113758000D01*
X164934200Y-103158000D02*
X164934200Y-113758000D01*
X162464200Y-107188000D02*
X161664200Y-106668000D01*
X163364200Y-112268000D02*
X162064200Y-112268000D01*
X159914200Y-109488000D02*
X159914200Y-112278000D01*
X159404200Y-106948000D02*
X159404200Y-109488000D01*
X160424200Y-106948000D02*
X159914200Y-106948000D01*
X157934200Y-103158000D02*
X157934200Y-113758000D01*
X163364200Y-107168000D02*
X162464200Y-107168000D01*
X162594200Y-107188000D02*
G75*
G03*
X162594200Y-107188000I-130000J0D01*
G01*
X157934200Y-103158000D02*
X164934200Y-103158000D01*
X159914200Y-112278000D02*
X159444200Y-112278000D01*
X159914200Y-109488000D02*
X160424200Y-109488000D01*
X159914200Y-104658000D02*
X159914200Y-106948000D01*
X159404200Y-109488000D02*
X159914200Y-109488000D01*
X159914200Y-106948000D02*
X159404200Y-106948000D01*
X160424200Y-109488000D02*
X160424200Y-106948000D01*
X159404200Y-107708000D02*
X160424200Y-108718000D01*
X159444200Y-104658000D02*
X159914200Y-104658000D01*
X158473800Y-91635800D02*
X158473800Y-95935800D01*
X154343800Y-97425800D02*
X161343800Y-97425800D01*
X161343800Y-86825800D02*
X161343800Y-97425800D01*
X158873800Y-90855800D02*
X158073800Y-90335800D01*
X159773800Y-95935800D02*
X158473800Y-95935800D01*
X156323800Y-93155800D02*
X156323800Y-95945800D01*
X155813800Y-90615800D02*
X155813800Y-93155800D01*
X156833800Y-90615800D02*
X156323800Y-90615800D01*
X154343800Y-86825800D02*
X154343800Y-97425800D01*
X159773800Y-90835800D02*
X158873800Y-90835800D01*
X159003800Y-90855800D02*
G75*
G03*
X159003800Y-90855800I-130000J0D01*
G01*
X154343800Y-86825800D02*
X161343800Y-86825800D01*
X156323800Y-95945800D02*
X155853800Y-95945800D01*
X156323800Y-93155800D02*
X156833800Y-93155800D01*
X156323800Y-88325800D02*
X156323800Y-90615800D01*
X155813800Y-93155800D02*
X156323800Y-93155800D01*
X156323800Y-90615800D02*
X155813800Y-90615800D01*
X156833800Y-93155800D02*
X156833800Y-90615800D01*
X155813800Y-91375800D02*
X156833800Y-92385800D01*
X155853800Y-88325800D02*
X156323800Y-88325800D01*
X190664600Y-88130600D02*
X190664600Y-92430600D01*
X186534600Y-93920600D02*
X193534600Y-93920600D01*
X193534600Y-83320600D02*
X193534600Y-93920600D01*
X191064600Y-87350600D02*
X190264600Y-86830600D01*
X191964600Y-92430600D02*
X190664600Y-92430600D01*
X188514600Y-89650600D02*
X188514600Y-92440600D01*
X188004600Y-87110600D02*
X188004600Y-89650600D01*
X189024600Y-87110600D02*
X188514600Y-87110600D01*
X186534600Y-83320600D02*
X186534600Y-93920600D01*
X191964600Y-87330600D02*
X191064600Y-87330600D01*
X191194600Y-87350600D02*
G75*
G03*
X191194600Y-87350600I-130000J0D01*
G01*
X186534600Y-83320600D02*
X193534600Y-83320600D01*
X188514600Y-92440600D02*
X188044600Y-92440600D01*
X188514600Y-89650600D02*
X189024600Y-89650600D01*
X188514600Y-84820600D02*
X188514600Y-87110600D01*
X188004600Y-89650600D02*
X188514600Y-89650600D01*
X188514600Y-87110600D02*
X188004600Y-87110600D01*
X189024600Y-89650600D02*
X189024600Y-87110600D01*
X188004600Y-87870600D02*
X189024600Y-88880600D01*
X188044600Y-84820600D02*
X188514600Y-84820600D01*
D11*
X143383000Y-96647000D02*
X143129000Y-96647000D01*
X143129000Y-96647000D02*
X143129000Y-94361000D01*
X143129000Y-94361000D02*
X143383000Y-94361000D01*
X143383000Y-96647000D02*
X143383000Y-94361000D01*
X143383000Y-94361000D02*
X145034000Y-94361000D01*
X146812000Y-96647000D02*
X148463000Y-96647000D01*
X148463000Y-96647000D02*
X148463000Y-94361000D01*
X148463000Y-94361000D02*
X146812000Y-94361000D01*
X145034000Y-96647000D02*
X143383000Y-96647000D01*
X126746000Y-92456000D02*
X126746000Y-92710000D01*
X126746000Y-92710000D02*
X124460000Y-92710000D01*
X124460000Y-92710000D02*
X124460000Y-92456000D01*
X126746000Y-92456000D02*
X124460000Y-92456000D01*
X124460000Y-92456000D02*
X124460000Y-90805000D01*
X126746000Y-89027000D02*
X126746000Y-87376000D01*
X126746000Y-87376000D02*
X124460000Y-87376000D01*
X124460000Y-87376000D02*
X124460000Y-89027000D01*
X126746000Y-90805000D02*
X126746000Y-92456000D01*
X162306000Y-77216000D02*
X162560000Y-77216000D01*
X162560000Y-77216000D02*
X162560000Y-79502000D01*
X162560000Y-79502000D02*
X162306000Y-79502000D01*
X162306000Y-77216000D02*
X162306000Y-79502000D01*
X162306000Y-79502000D02*
X160655000Y-79502000D01*
X158877000Y-77216000D02*
X157226000Y-77216000D01*
X157226000Y-77216000D02*
X157226000Y-79502000D01*
X157226000Y-79502000D02*
X158877000Y-79502000D01*
X160655000Y-77216000D02*
X162306000Y-77216000D01*
X178689000Y-105537000D02*
X178689000Y-105283000D01*
X178689000Y-105283000D02*
X180975000Y-105283000D01*
X180975000Y-105283000D02*
X180975000Y-105537000D01*
X178689000Y-105537000D02*
X180975000Y-105537000D01*
X180975000Y-105537000D02*
X180975000Y-107188000D01*
X178689000Y-108966000D02*
X178689000Y-110617000D01*
X178689000Y-110617000D02*
X180975000Y-110617000D01*
X180975000Y-110617000D02*
X180975000Y-108966000D01*
X178689000Y-107188000D02*
X178689000Y-105537000D01*
X181356000Y-98806000D02*
X181356000Y-98552000D01*
X181356000Y-98552000D02*
X183642000Y-98552000D01*
X183642000Y-98552000D02*
X183642000Y-98806000D01*
X181356000Y-98806000D02*
X183642000Y-98806000D01*
X183642000Y-98806000D02*
X183642000Y-100457000D01*
X181356000Y-102235000D02*
X181356000Y-103886000D01*
X181356000Y-103886000D02*
X183642000Y-103886000D01*
X183642000Y-103886000D02*
X183642000Y-102235000D01*
X181356000Y-100457000D02*
X181356000Y-98806000D01*
X124587000Y-84709000D02*
X124333000Y-84709000D01*
X124333000Y-84709000D02*
X124333000Y-82423000D01*
X124333000Y-82423000D02*
X124587000Y-82423000D01*
X124587000Y-84709000D02*
X124587000Y-82423000D01*
X124587000Y-82423000D02*
X126238000Y-82423000D01*
X128016000Y-84709000D02*
X129667000Y-84709000D01*
X129667000Y-84709000D02*
X129667000Y-82423000D01*
X129667000Y-82423000D02*
X128016000Y-82423000D01*
X126238000Y-84709000D02*
X124587000Y-84709000D01*
X128016000Y-75895200D02*
X126365000Y-75895200D01*
X131445000Y-73609200D02*
X129794000Y-73609200D01*
X131445000Y-75895200D02*
X131445000Y-73609200D01*
X129794000Y-75895200D02*
X131445000Y-75895200D01*
X126365000Y-73609200D02*
X128016000Y-73609200D01*
X126365000Y-75895200D02*
X126365000Y-73609200D01*
X126111000Y-73609200D02*
X126365000Y-73609200D01*
X126111000Y-75895200D02*
X126111000Y-73609200D01*
X126365000Y-75895200D02*
X126111000Y-75895200D01*
D15*
X128988600Y-77576600D02*
X127528600Y-77576600D01*
X128988600Y-80736600D02*
X126828600Y-80736600D01*
X128988600Y-80736600D02*
X128988600Y-79806600D01*
X128988600Y-77576600D02*
X128988600Y-78506600D01*
D11*
X121838000Y-75357000D02*
X123489000Y-75357000D01*
X118409000Y-77643000D02*
X120060000Y-77643000D01*
X118409000Y-75357000D02*
X118409000Y-77643000D01*
X120060000Y-75357000D02*
X118409000Y-75357000D01*
X123489000Y-77643000D02*
X121838000Y-77643000D01*
X123489000Y-75357000D02*
X123489000Y-77643000D01*
X123743000Y-77643000D02*
X123489000Y-77643000D01*
X123743000Y-75357000D02*
X123743000Y-77643000D01*
X123489000Y-75357000D02*
X123743000Y-75357000D01*
X172659295Y-99583980D02*
X172659295Y-98583980D01*
X172421200Y-98583980D01*
X172278342Y-98631600D01*
X172183104Y-98726838D01*
X172135485Y-98822076D01*
X172087866Y-99012552D01*
X172087866Y-99155409D01*
X172135485Y-99345885D01*
X172183104Y-99441123D01*
X172278342Y-99536361D01*
X172421200Y-99583980D01*
X172659295Y-99583980D01*
X171706914Y-98679219D02*
X171659295Y-98631600D01*
X171564057Y-98583980D01*
X171325961Y-98583980D01*
X171230723Y-98631600D01*
X171183104Y-98679219D01*
X171135485Y-98774457D01*
X171135485Y-98869695D01*
X171183104Y-99012552D01*
X171754533Y-99583980D01*
X171135485Y-99583980D01*
X187104257Y-78506580D02*
X187437590Y-78030390D01*
X187675685Y-78506580D02*
X187675685Y-77506580D01*
X187294733Y-77506580D01*
X187199495Y-77554200D01*
X187151876Y-77601819D01*
X187104257Y-77697057D01*
X187104257Y-77839914D01*
X187151876Y-77935152D01*
X187199495Y-77982771D01*
X187294733Y-78030390D01*
X187675685Y-78030390D01*
X186151876Y-78506580D02*
X186723304Y-78506580D01*
X186437590Y-78506580D02*
X186437590Y-77506580D01*
X186532828Y-77649438D01*
X186628066Y-77744676D01*
X186723304Y-77792295D01*
X185294733Y-77506580D02*
X185485209Y-77506580D01*
X185580447Y-77554200D01*
X185628066Y-77601819D01*
X185723304Y-77744676D01*
X185770923Y-77935152D01*
X185770923Y-78316104D01*
X185723304Y-78411342D01*
X185675685Y-78458961D01*
X185580447Y-78506580D01*
X185389971Y-78506580D01*
X185294733Y-78458961D01*
X185247114Y-78411342D01*
X185199495Y-78316104D01*
X185199495Y-78078009D01*
X185247114Y-77982771D01*
X185294733Y-77935152D01*
X185389971Y-77887533D01*
X185580447Y-77887533D01*
X185675685Y-77935152D01*
X185723304Y-77982771D01*
X185770923Y-78078009D01*
X193708257Y-82265780D02*
X194041590Y-81789590D01*
X194279685Y-82265780D02*
X194279685Y-81265780D01*
X193898733Y-81265780D01*
X193803495Y-81313400D01*
X193755876Y-81361019D01*
X193708257Y-81456257D01*
X193708257Y-81599114D01*
X193755876Y-81694352D01*
X193803495Y-81741971D01*
X193898733Y-81789590D01*
X194279685Y-81789590D01*
X192755876Y-82265780D02*
X193327304Y-82265780D01*
X193041590Y-82265780D02*
X193041590Y-81265780D01*
X193136828Y-81408638D01*
X193232066Y-81503876D01*
X193327304Y-81551495D01*
X191898733Y-81599114D02*
X191898733Y-82265780D01*
X192136828Y-81218161D02*
X192374923Y-81932447D01*
X191755876Y-81932447D01*
X166490638Y-93831019D02*
X166585876Y-93783400D01*
X166681114Y-93688161D01*
X166823971Y-93545304D01*
X166919209Y-93497685D01*
X167014447Y-93497685D01*
X166966828Y-93735780D02*
X167062066Y-93688161D01*
X167157304Y-93592923D01*
X167204923Y-93402447D01*
X167204923Y-93069114D01*
X167157304Y-92878638D01*
X167062066Y-92783400D01*
X166966828Y-92735780D01*
X166776352Y-92735780D01*
X166681114Y-92783400D01*
X166585876Y-92878638D01*
X166538257Y-93069114D01*
X166538257Y-93402447D01*
X166585876Y-93592923D01*
X166681114Y-93688161D01*
X166776352Y-93735780D01*
X166966828Y-93735780D01*
X166157304Y-92831019D02*
X166109685Y-92783400D01*
X166014447Y-92735780D01*
X165776352Y-92735780D01*
X165681114Y-92783400D01*
X165633495Y-92831019D01*
X165585876Y-92926257D01*
X165585876Y-93021495D01*
X165633495Y-93164352D01*
X166204923Y-93735780D01*
X165585876Y-93735780D01*
X182578238Y-89055819D02*
X182673476Y-89008200D01*
X182768714Y-88912961D01*
X182911571Y-88770104D01*
X183006809Y-88722485D01*
X183102047Y-88722485D01*
X183054428Y-88960580D02*
X183149666Y-88912961D01*
X183244904Y-88817723D01*
X183292523Y-88627247D01*
X183292523Y-88293914D01*
X183244904Y-88103438D01*
X183149666Y-88008200D01*
X183054428Y-87960580D01*
X182863952Y-87960580D01*
X182768714Y-88008200D01*
X182673476Y-88103438D01*
X182625857Y-88293914D01*
X182625857Y-88627247D01*
X182673476Y-88817723D01*
X182768714Y-88912961D01*
X182863952Y-88960580D01*
X183054428Y-88960580D01*
X181673476Y-88960580D02*
X182244904Y-88960580D01*
X181959190Y-88960580D02*
X181959190Y-87960580D01*
X182054428Y-88103438D01*
X182149666Y-88198676D01*
X182244904Y-88246295D01*
X173305695Y-102712780D02*
X173305695Y-101712780D01*
X172734266Y-102712780D02*
X173162838Y-102141352D01*
X172734266Y-101712780D02*
X173305695Y-102284209D01*
X171877123Y-102046114D02*
X171877123Y-102712780D01*
X172115219Y-101665161D02*
X172353314Y-102379447D01*
X171734266Y-102379447D01*
X160605695Y-102661980D02*
X160605695Y-101661980D01*
X160034266Y-102661980D02*
X160462838Y-102090552D01*
X160034266Y-101661980D02*
X160605695Y-102233409D01*
X159700933Y-101661980D02*
X159081885Y-101661980D01*
X159415219Y-102042933D01*
X159272361Y-102042933D01*
X159177123Y-102090552D01*
X159129504Y-102138171D01*
X159081885Y-102233409D01*
X159081885Y-102471504D01*
X159129504Y-102566742D01*
X159177123Y-102614361D01*
X159272361Y-102661980D01*
X159558076Y-102661980D01*
X159653314Y-102614361D01*
X159700933Y-102566742D01*
X159665895Y-99410780D02*
X159665895Y-98410780D01*
X159094466Y-99410780D02*
X159523038Y-98839352D01*
X159094466Y-98410780D02*
X159665895Y-98982209D01*
X158713514Y-98506019D02*
X158665895Y-98458400D01*
X158570657Y-98410780D01*
X158332561Y-98410780D01*
X158237323Y-98458400D01*
X158189704Y-98506019D01*
X158142085Y-98601257D01*
X158142085Y-98696495D01*
X158189704Y-98839352D01*
X158761133Y-99410780D01*
X158142085Y-99410780D01*
X185548495Y-83637380D02*
X185548495Y-82637380D01*
X184977066Y-83637380D02*
X185405638Y-83065952D01*
X184977066Y-82637380D02*
X185548495Y-83208809D01*
X184024685Y-83637380D02*
X184596114Y-83637380D01*
X184310400Y-83637380D02*
X184310400Y-82637380D01*
X184405638Y-82780238D01*
X184500876Y-82875476D01*
X184596114Y-82923095D01*
X142279666Y-95734142D02*
X142327285Y-95781761D01*
X142470142Y-95829380D01*
X142565380Y-95829380D01*
X142708238Y-95781761D01*
X142803476Y-95686523D01*
X142851095Y-95591285D01*
X142898714Y-95400809D01*
X142898714Y-95257952D01*
X142851095Y-95067476D01*
X142803476Y-94972238D01*
X142708238Y-94877000D01*
X142565380Y-94829380D01*
X142470142Y-94829380D01*
X142327285Y-94877000D01*
X142279666Y-94924619D01*
X141327285Y-95829380D02*
X141898714Y-95829380D01*
X141613000Y-95829380D02*
X141613000Y-94829380D01*
X141708238Y-94972238D01*
X141803476Y-95067476D01*
X141898714Y-95115095D01*
X128284266Y-90349342D02*
X128331885Y-90396961D01*
X128474742Y-90444580D01*
X128569980Y-90444580D01*
X128712838Y-90396961D01*
X128808076Y-90301723D01*
X128855695Y-90206485D01*
X128903314Y-90016009D01*
X128903314Y-89873152D01*
X128855695Y-89682676D01*
X128808076Y-89587438D01*
X128712838Y-89492200D01*
X128569980Y-89444580D01*
X128474742Y-89444580D01*
X128331885Y-89492200D01*
X128284266Y-89539819D01*
X127903314Y-89539819D02*
X127855695Y-89492200D01*
X127760457Y-89444580D01*
X127522361Y-89444580D01*
X127427123Y-89492200D01*
X127379504Y-89539819D01*
X127331885Y-89635057D01*
X127331885Y-89730295D01*
X127379504Y-89873152D01*
X127950933Y-90444580D01*
X127331885Y-90444580D01*
X159932666Y-76811142D02*
X159980285Y-76858761D01*
X160123142Y-76906380D01*
X160218380Y-76906380D01*
X160361238Y-76858761D01*
X160456476Y-76763523D01*
X160504095Y-76668285D01*
X160551714Y-76477809D01*
X160551714Y-76334952D01*
X160504095Y-76144476D01*
X160456476Y-76049238D01*
X160361238Y-75954000D01*
X160218380Y-75906380D01*
X160123142Y-75906380D01*
X159980285Y-75954000D01*
X159932666Y-76001619D01*
X159599333Y-75906380D02*
X158980285Y-75906380D01*
X159313619Y-76287333D01*
X159170761Y-76287333D01*
X159075523Y-76334952D01*
X159027904Y-76382571D01*
X158980285Y-76477809D01*
X158980285Y-76715904D01*
X159027904Y-76811142D01*
X159075523Y-76858761D01*
X159170761Y-76906380D01*
X159456476Y-76906380D01*
X159551714Y-76858761D01*
X159599333Y-76811142D01*
X179947866Y-112015542D02*
X179995485Y-112063161D01*
X180138342Y-112110780D01*
X180233580Y-112110780D01*
X180376438Y-112063161D01*
X180471676Y-111967923D01*
X180519295Y-111872685D01*
X180566914Y-111682209D01*
X180566914Y-111539352D01*
X180519295Y-111348876D01*
X180471676Y-111253638D01*
X180376438Y-111158400D01*
X180233580Y-111110780D01*
X180138342Y-111110780D01*
X179995485Y-111158400D01*
X179947866Y-111206019D01*
X179090723Y-111444114D02*
X179090723Y-112110780D01*
X179328819Y-111063161D02*
X179566914Y-111777447D01*
X178947866Y-111777447D01*
X180176466Y-100534742D02*
X180224085Y-100582361D01*
X180366942Y-100629980D01*
X180462180Y-100629980D01*
X180605038Y-100582361D01*
X180700276Y-100487123D01*
X180747895Y-100391885D01*
X180795514Y-100201409D01*
X180795514Y-100058552D01*
X180747895Y-99868076D01*
X180700276Y-99772838D01*
X180605038Y-99677600D01*
X180462180Y-99629980D01*
X180366942Y-99629980D01*
X180224085Y-99677600D01*
X180176466Y-99725219D01*
X179271704Y-99629980D02*
X179747895Y-99629980D01*
X179795514Y-100106171D01*
X179747895Y-100058552D01*
X179652657Y-100010933D01*
X179414561Y-100010933D01*
X179319323Y-100058552D01*
X179271704Y-100106171D01*
X179224085Y-100201409D01*
X179224085Y-100439504D01*
X179271704Y-100534742D01*
X179319323Y-100582361D01*
X179414561Y-100629980D01*
X179652657Y-100629980D01*
X179747895Y-100582361D01*
X179795514Y-100534742D01*
X131230666Y-83846942D02*
X131278285Y-83894561D01*
X131421142Y-83942180D01*
X131516380Y-83942180D01*
X131659238Y-83894561D01*
X131754476Y-83799323D01*
X131802095Y-83704085D01*
X131849714Y-83513609D01*
X131849714Y-83370752D01*
X131802095Y-83180276D01*
X131754476Y-83085038D01*
X131659238Y-82989800D01*
X131516380Y-82942180D01*
X131421142Y-82942180D01*
X131278285Y-82989800D01*
X131230666Y-83037419D01*
X130373523Y-82942180D02*
X130564000Y-82942180D01*
X130659238Y-82989800D01*
X130706857Y-83037419D01*
X130802095Y-83180276D01*
X130849714Y-83370752D01*
X130849714Y-83751704D01*
X130802095Y-83846942D01*
X130754476Y-83894561D01*
X130659238Y-83942180D01*
X130468761Y-83942180D01*
X130373523Y-83894561D01*
X130325904Y-83846942D01*
X130278285Y-83751704D01*
X130278285Y-83513609D01*
X130325904Y-83418371D01*
X130373523Y-83370752D01*
X130468761Y-83323133D01*
X130659238Y-83323133D01*
X130754476Y-83370752D01*
X130802095Y-83418371D01*
X130849714Y-83513609D01*
X132932466Y-75160142D02*
X132980085Y-75207761D01*
X133122942Y-75255380D01*
X133218180Y-75255380D01*
X133361038Y-75207761D01*
X133456276Y-75112523D01*
X133503895Y-75017285D01*
X133551514Y-74826809D01*
X133551514Y-74683952D01*
X133503895Y-74493476D01*
X133456276Y-74398238D01*
X133361038Y-74303000D01*
X133218180Y-74255380D01*
X133122942Y-74255380D01*
X132980085Y-74303000D01*
X132932466Y-74350619D01*
X132599133Y-74255380D02*
X131932466Y-74255380D01*
X132361038Y-75255380D01*
X125856904Y-78547980D02*
X125856904Y-79357504D01*
X125809285Y-79452742D01*
X125761666Y-79500361D01*
X125666428Y-79547980D01*
X125475952Y-79547980D01*
X125380714Y-79500361D01*
X125333095Y-79452742D01*
X125285476Y-79357504D01*
X125285476Y-78547980D01*
X124666428Y-78976552D02*
X124761666Y-78928933D01*
X124809285Y-78881314D01*
X124856904Y-78786076D01*
X124856904Y-78738457D01*
X124809285Y-78643219D01*
X124761666Y-78595600D01*
X124666428Y-78547980D01*
X124475952Y-78547980D01*
X124380714Y-78595600D01*
X124333095Y-78643219D01*
X124285476Y-78738457D01*
X124285476Y-78786076D01*
X124333095Y-78881314D01*
X124380714Y-78928933D01*
X124475952Y-78976552D01*
X124666428Y-78976552D01*
X124761666Y-79024171D01*
X124809285Y-79071790D01*
X124856904Y-79167028D01*
X124856904Y-79357504D01*
X124809285Y-79452742D01*
X124761666Y-79500361D01*
X124666428Y-79547980D01*
X124475952Y-79547980D01*
X124380714Y-79500361D01*
X124333095Y-79452742D01*
X124285476Y-79357504D01*
X124285476Y-79167028D01*
X124333095Y-79071790D01*
X124380714Y-79024171D01*
X124475952Y-78976552D01*
X119166666Y-74852380D02*
X119500000Y-74376190D01*
X119738095Y-74852380D02*
X119738095Y-73852380D01*
X119357142Y-73852380D01*
X119261904Y-73900000D01*
X119214285Y-73947619D01*
X119166666Y-74042857D01*
X119166666Y-74185714D01*
X119214285Y-74280952D01*
X119261904Y-74328571D01*
X119357142Y-74376190D01*
X119738095Y-74376190D01*
X118785714Y-73947619D02*
X118738095Y-73900000D01*
X118642857Y-73852380D01*
X118404761Y-73852380D01*
X118309523Y-73900000D01*
X118261904Y-73947619D01*
X118214285Y-74042857D01*
X118214285Y-74138095D01*
X118261904Y-74280952D01*
X118833333Y-74852380D01*
X118214285Y-74852380D01*
%LPC*%
D12*
X226612142Y-79413571D02*
X226612142Y-77913571D01*
X228397857Y-77842142D02*
X227112142Y-79770714D01*
X229183571Y-77913571D02*
X229469285Y-77913571D01*
X229612142Y-77985000D01*
X229755000Y-78127857D01*
X229826428Y-78413571D01*
X229826428Y-78913571D01*
X229755000Y-79199285D01*
X229612142Y-79342142D01*
X229469285Y-79413571D01*
X229183571Y-79413571D01*
X229040714Y-79342142D01*
X228897857Y-79199285D01*
X228826428Y-78913571D01*
X228826428Y-78413571D01*
X228897857Y-78127857D01*
X229040714Y-77985000D01*
X229183571Y-77913571D01*
X232112142Y-78627857D02*
X232326428Y-78699285D01*
X232397857Y-78770714D01*
X232469285Y-78913571D01*
X232469285Y-79127857D01*
X232397857Y-79270714D01*
X232326428Y-79342142D01*
X232183571Y-79413571D01*
X231612142Y-79413571D01*
X231612142Y-77913571D01*
X232112142Y-77913571D01*
X232255000Y-77985000D01*
X232326428Y-78056428D01*
X232397857Y-78199285D01*
X232397857Y-78342142D01*
X232326428Y-78485000D01*
X232255000Y-78556428D01*
X232112142Y-78627857D01*
X231612142Y-78627857D01*
X233326428Y-79413571D02*
X233183571Y-79342142D01*
X233112142Y-79270714D01*
X233040714Y-79127857D01*
X233040714Y-78699285D01*
X233112142Y-78556428D01*
X233183571Y-78485000D01*
X233326428Y-78413571D01*
X233540714Y-78413571D01*
X233683571Y-78485000D01*
X233755000Y-78556428D01*
X233826428Y-78699285D01*
X233826428Y-79127857D01*
X233755000Y-79270714D01*
X233683571Y-79342142D01*
X233540714Y-79413571D01*
X233326428Y-79413571D01*
X235112142Y-79413571D02*
X235112142Y-78627857D01*
X235040714Y-78485000D01*
X234897857Y-78413571D01*
X234612142Y-78413571D01*
X234469285Y-78485000D01*
X235112142Y-79342142D02*
X234969285Y-79413571D01*
X234612142Y-79413571D01*
X234469285Y-79342142D01*
X234397857Y-79199285D01*
X234397857Y-79056428D01*
X234469285Y-78913571D01*
X234612142Y-78842142D01*
X234969285Y-78842142D01*
X235112142Y-78770714D01*
X235826428Y-79413571D02*
X235826428Y-78413571D01*
X235826428Y-78699285D02*
X235897857Y-78556428D01*
X235969285Y-78485000D01*
X236112142Y-78413571D01*
X236255000Y-78413571D01*
X237397857Y-79413571D02*
X237397857Y-77913571D01*
X237397857Y-79342142D02*
X237255000Y-79413571D01*
X236969285Y-79413571D01*
X236826428Y-79342142D01*
X236755000Y-79270714D01*
X236683571Y-79127857D01*
X236683571Y-78699285D01*
X236755000Y-78556428D01*
X236826428Y-78485000D01*
X236969285Y-78413571D01*
X237255000Y-78413571D01*
X237397857Y-78485000D01*
X240112142Y-79413571D02*
X239612142Y-78699285D01*
X239255000Y-79413571D02*
X239255000Y-77913571D01*
X239826428Y-77913571D01*
X239969285Y-77985000D01*
X240040714Y-78056428D01*
X240112142Y-78199285D01*
X240112142Y-78413571D01*
X240040714Y-78556428D01*
X239969285Y-78627857D01*
X239826428Y-78699285D01*
X239255000Y-78699285D01*
X241326428Y-79342142D02*
X241183571Y-79413571D01*
X240897857Y-79413571D01*
X240755000Y-79342142D01*
X240683571Y-79199285D01*
X240683571Y-78627857D01*
X240755000Y-78485000D01*
X240897857Y-78413571D01*
X241183571Y-78413571D01*
X241326428Y-78485000D01*
X241397857Y-78627857D01*
X241397857Y-78770714D01*
X240683571Y-78913571D01*
X241897857Y-78413571D02*
X242255000Y-79413571D01*
X242612142Y-78413571D01*
X244255000Y-78056428D02*
X244326428Y-77985000D01*
X244469285Y-77913571D01*
X244826428Y-77913571D01*
X244969285Y-77985000D01*
X245040714Y-78056428D01*
X245112142Y-78199285D01*
X245112142Y-78342142D01*
X245040714Y-78556428D01*
X244183571Y-79413571D01*
X245112142Y-79413571D01*
X245755000Y-79270714D02*
X245826428Y-79342142D01*
X245755000Y-79413571D01*
X245683571Y-79342142D01*
X245755000Y-79270714D01*
X245755000Y-79413571D01*
X247183571Y-77913571D02*
X246469285Y-77913571D01*
X246397857Y-78627857D01*
X246469285Y-78556428D01*
X246612142Y-78485000D01*
X246969285Y-78485000D01*
X247112142Y-78556428D01*
X247183571Y-78627857D01*
X247255000Y-78770714D01*
X247255000Y-79127857D01*
X247183571Y-79270714D01*
X247112142Y-79342142D01*
X246969285Y-79413571D01*
X246612142Y-79413571D01*
X246469285Y-79342142D01*
X246397857Y-79270714D01*
X227112142Y-81177857D02*
X227326428Y-81249285D01*
X227397857Y-81320714D01*
X227469285Y-81463571D01*
X227469285Y-81677857D01*
X227397857Y-81820714D01*
X227326428Y-81892142D01*
X227183571Y-81963571D01*
X226612142Y-81963571D01*
X226612142Y-80463571D01*
X227112142Y-80463571D01*
X227255000Y-80535000D01*
X227326428Y-80606428D01*
X227397857Y-80749285D01*
X227397857Y-80892142D01*
X227326428Y-81035000D01*
X227255000Y-81106428D01*
X227112142Y-81177857D01*
X226612142Y-81177857D01*
X228326428Y-81963571D02*
X228183571Y-81892142D01*
X228112142Y-81820714D01*
X228040714Y-81677857D01*
X228040714Y-81249285D01*
X228112142Y-81106428D01*
X228183571Y-81035000D01*
X228326428Y-80963571D01*
X228540714Y-80963571D01*
X228683571Y-81035000D01*
X228755000Y-81106428D01*
X228826428Y-81249285D01*
X228826428Y-81677857D01*
X228755000Y-81820714D01*
X228683571Y-81892142D01*
X228540714Y-81963571D01*
X228326428Y-81963571D01*
X229255000Y-80963571D02*
X229826428Y-80963571D01*
X229469285Y-80463571D02*
X229469285Y-81749285D01*
X229540714Y-81892142D01*
X229683571Y-81963571D01*
X229826428Y-81963571D01*
X230112142Y-80963571D02*
X230683571Y-80963571D01*
X230326428Y-80463571D02*
X230326428Y-81749285D01*
X230397857Y-81892142D01*
X230540714Y-81963571D01*
X230683571Y-81963571D01*
X231397857Y-81963571D02*
X231255000Y-81892142D01*
X231183571Y-81820714D01*
X231112142Y-81677857D01*
X231112142Y-81249285D01*
X231183571Y-81106428D01*
X231255000Y-81035000D01*
X231397857Y-80963571D01*
X231612142Y-80963571D01*
X231755000Y-81035000D01*
X231826428Y-81106428D01*
X231897857Y-81249285D01*
X231897857Y-81677857D01*
X231826428Y-81820714D01*
X231755000Y-81892142D01*
X231612142Y-81963571D01*
X231397857Y-81963571D01*
X232540714Y-81963571D02*
X232540714Y-80963571D01*
X232540714Y-81106428D02*
X232612142Y-81035000D01*
X232755000Y-80963571D01*
X232969285Y-80963571D01*
X233112142Y-81035000D01*
X233183571Y-81177857D01*
X233183571Y-81963571D01*
X233183571Y-81177857D02*
X233255000Y-81035000D01*
X233397857Y-80963571D01*
X233612142Y-80963571D01*
X233755000Y-81035000D01*
X233826428Y-81177857D01*
X233826428Y-81963571D01*
X235612142Y-81892142D02*
X235826428Y-81963571D01*
X236183571Y-81963571D01*
X236326428Y-81892142D01*
X236397857Y-81820714D01*
X236469285Y-81677857D01*
X236469285Y-81535000D01*
X236397857Y-81392142D01*
X236326428Y-81320714D01*
X236183571Y-81249285D01*
X235897857Y-81177857D01*
X235755000Y-81106428D01*
X235683571Y-81035000D01*
X235612142Y-80892142D01*
X235612142Y-80749285D01*
X235683571Y-80606428D01*
X235755000Y-80535000D01*
X235897857Y-80463571D01*
X236255000Y-80463571D01*
X236469285Y-80535000D01*
X237112142Y-81963571D02*
X237112142Y-80963571D01*
X237112142Y-80463571D02*
X237040714Y-80535000D01*
X237112142Y-80606428D01*
X237183571Y-80535000D01*
X237112142Y-80463571D01*
X237112142Y-80606428D01*
X238469285Y-81963571D02*
X238469285Y-80463571D01*
X238469285Y-81892142D02*
X238326428Y-81963571D01*
X238040714Y-81963571D01*
X237897857Y-81892142D01*
X237826428Y-81820714D01*
X237755000Y-81677857D01*
X237755000Y-81249285D01*
X237826428Y-81106428D01*
X237897857Y-81035000D01*
X238040714Y-80963571D01*
X238326428Y-80963571D01*
X238469285Y-81035000D01*
X239755000Y-81892142D02*
X239612142Y-81963571D01*
X239326428Y-81963571D01*
X239183571Y-81892142D01*
X239112142Y-81749285D01*
X239112142Y-81177857D01*
X239183571Y-81035000D01*
X239326428Y-80963571D01*
X239612142Y-80963571D01*
X239755000Y-81035000D01*
X239826428Y-81177857D01*
X239826428Y-81320714D01*
X239112142Y-81463571D01*
X241540714Y-81892142D02*
X241755000Y-81963571D01*
X242112142Y-81963571D01*
X242255000Y-81892142D01*
X242326428Y-81820714D01*
X242397857Y-81677857D01*
X242397857Y-81535000D01*
X242326428Y-81392142D01*
X242255000Y-81320714D01*
X242112142Y-81249285D01*
X241826428Y-81177857D01*
X241683571Y-81106428D01*
X241612142Y-81035000D01*
X241540714Y-80892142D01*
X241540714Y-80749285D01*
X241612142Y-80606428D01*
X241683571Y-80535000D01*
X241826428Y-80463571D01*
X242183571Y-80463571D01*
X242397857Y-80535000D01*
X243255000Y-81963571D02*
X243112142Y-81892142D01*
X243040714Y-81820714D01*
X242969285Y-81677857D01*
X242969285Y-81249285D01*
X243040714Y-81106428D01*
X243112142Y-81035000D01*
X243255000Y-80963571D01*
X243469285Y-80963571D01*
X243612142Y-81035000D01*
X243683571Y-81106428D01*
X243755000Y-81249285D01*
X243755000Y-81677857D01*
X243683571Y-81820714D01*
X243612142Y-81892142D01*
X243469285Y-81963571D01*
X243255000Y-81963571D01*
X244612142Y-81963571D02*
X244469285Y-81892142D01*
X244397857Y-81749285D01*
X244397857Y-80463571D01*
X245826428Y-81963571D02*
X245826428Y-80463571D01*
X245826428Y-81892142D02*
X245683571Y-81963571D01*
X245397857Y-81963571D01*
X245255000Y-81892142D01*
X245183571Y-81820714D01*
X245112142Y-81677857D01*
X245112142Y-81249285D01*
X245183571Y-81106428D01*
X245255000Y-81035000D01*
X245397857Y-80963571D01*
X245683571Y-80963571D01*
X245826428Y-81035000D01*
X247112142Y-81892142D02*
X246969285Y-81963571D01*
X246683571Y-81963571D01*
X246540714Y-81892142D01*
X246469285Y-81749285D01*
X246469285Y-81177857D01*
X246540714Y-81035000D01*
X246683571Y-80963571D01*
X246969285Y-80963571D01*
X247112142Y-81035000D01*
X247183571Y-81177857D01*
X247183571Y-81320714D01*
X246469285Y-81463571D01*
X247826428Y-81963571D02*
X247826428Y-80963571D01*
X247826428Y-81249285D02*
X247897857Y-81106428D01*
X247969285Y-81035000D01*
X248112142Y-80963571D01*
X248255000Y-80963571D01*
X249897857Y-81963571D02*
X249897857Y-80463571D01*
X250397857Y-81535000D01*
X250897857Y-80463571D01*
X250897857Y-81963571D01*
X252255000Y-81963571D02*
X252255000Y-81177857D01*
X252183571Y-81035000D01*
X252040714Y-80963571D01*
X251755000Y-80963571D01*
X251612142Y-81035000D01*
X252255000Y-81892142D02*
X252112142Y-81963571D01*
X251755000Y-81963571D01*
X251612142Y-81892142D01*
X251540714Y-81749285D01*
X251540714Y-81606428D01*
X251612142Y-81463571D01*
X251755000Y-81392142D01*
X252112142Y-81392142D01*
X252255000Y-81320714D01*
X252897857Y-81892142D02*
X253040714Y-81963571D01*
X253326428Y-81963571D01*
X253469285Y-81892142D01*
X253540714Y-81749285D01*
X253540714Y-81677857D01*
X253469285Y-81535000D01*
X253326428Y-81463571D01*
X253112142Y-81463571D01*
X252969285Y-81392142D01*
X252897857Y-81249285D01*
X252897857Y-81177857D01*
X252969285Y-81035000D01*
X253112142Y-80963571D01*
X253326428Y-80963571D01*
X253469285Y-81035000D01*
X254183571Y-81963571D02*
X254183571Y-80463571D01*
X254326428Y-81392142D02*
X254755000Y-81963571D01*
X254755000Y-80963571D02*
X254183571Y-81535000D01*
D16*
X165200000Y-100300000D03*
X169600000Y-100300000D03*
D17*
X189357000Y-79679800D03*
X189357000Y-76377800D03*
X192836800Y-79654400D03*
X192836800Y-76352400D03*
D18*
X167395400Y-94833400D03*
X167395400Y-96733400D03*
X165395400Y-95783400D03*
X183483000Y-90058200D03*
X183483000Y-91958200D03*
X181483000Y-91008200D03*
D19*
X175615600Y-112369600D03*
X168875600Y-112369600D03*
X168875600Y-104749600D03*
X175615600Y-107289600D03*
X164804200Y-112268000D03*
X158064200Y-112268000D03*
X158064200Y-104648000D03*
X164804200Y-107188000D03*
X161213800Y-95935800D03*
X154473800Y-95935800D03*
X154473800Y-88315800D03*
X161213800Y-90855800D03*
X193404600Y-92430600D03*
X186664600Y-92430600D03*
X186664600Y-84810600D03*
X193404600Y-87350600D03*
D20*
X197358000Y-114046000D03*
D21*
X199898000Y-114046000D03*
X197358000Y-111506000D03*
X199898000Y-111506000D03*
X197358000Y-108966000D03*
X199898000Y-108966000D03*
X197358000Y-106426000D03*
X199898000Y-106426000D03*
X197358000Y-103886000D03*
X199898000Y-103886000D03*
X197358000Y-101346000D03*
X199898000Y-101346000D03*
X197358000Y-98806000D03*
X199898000Y-98806000D03*
X197358000Y-96266000D03*
X199898000Y-96266000D03*
X197358000Y-93726000D03*
X199898000Y-93726000D03*
X197358000Y-91186000D03*
X199898000Y-91186000D03*
X197358000Y-88646000D03*
X199898000Y-88646000D03*
X197358000Y-86106000D03*
X199898000Y-86106000D03*
X197358000Y-83566000D03*
X199898000Y-83566000D03*
X197358000Y-81026000D03*
X199898000Y-81026000D03*
X197358000Y-78486000D03*
X199898000Y-78486000D03*
X197358000Y-75946000D03*
X199898000Y-75946000D03*
X197358000Y-73406000D03*
X199898000Y-73406000D03*
X197358000Y-70866000D03*
X199898000Y-70866000D03*
D22*
X131318000Y-119126000D03*
X133858000Y-119126000D03*
X136398000Y-119126000D03*
X138938000Y-119126000D03*
X141478000Y-119126000D03*
X144018000Y-119126000D03*
X146558000Y-119126000D03*
X149098000Y-119126000D03*
X154178000Y-119126000D03*
X156718000Y-119126000D03*
X159258000Y-119126000D03*
X161798000Y-119126000D03*
X164338000Y-119126000D03*
X166878000Y-119126000D03*
X169418000Y-119126000D03*
X171958000Y-119126000D03*
X177038000Y-119126000D03*
X179578000Y-119126000D03*
X182118000Y-119126000D03*
X184658000Y-119126000D03*
X187198000Y-119126000D03*
X189738000Y-119126000D03*
X192278000Y-119126000D03*
X194818000Y-119126000D03*
X122174000Y-70866000D03*
X124714000Y-70866000D03*
X127254000Y-70866000D03*
X129794000Y-70866000D03*
X132334000Y-70866000D03*
X134874000Y-70866000D03*
X137414000Y-70866000D03*
X139954000Y-70866000D03*
X142494000Y-70866000D03*
X145034000Y-70866000D03*
X149098000Y-70866000D03*
X151638000Y-70866000D03*
X154178000Y-70866000D03*
X156718000Y-70866000D03*
X159258000Y-70866000D03*
X161798000Y-70866000D03*
X164338000Y-70866000D03*
X166878000Y-70866000D03*
X171958000Y-70866000D03*
X174498000Y-70866000D03*
X177038000Y-70866000D03*
X179578000Y-70866000D03*
X182118000Y-70866000D03*
X184658000Y-70866000D03*
X187198000Y-70866000D03*
X189738000Y-70866000D03*
D23*
X106976000Y-105045000D03*
X106976000Y-80845000D03*
D24*
X144272000Y-95504000D03*
X147574000Y-95504000D03*
D17*
X125603000Y-91567000D03*
X125603000Y-88265000D03*
D24*
X161417000Y-78359000D03*
X158115000Y-78359000D03*
D17*
X179832000Y-106426000D03*
X179832000Y-109728000D03*
X182499000Y-99695000D03*
X182499000Y-102997000D03*
D24*
X125476000Y-83566000D03*
X128778000Y-83566000D03*
X130556000Y-74752200D03*
X127254000Y-74752200D03*
D18*
X129228600Y-79156600D03*
X127228600Y-78206600D03*
X127228600Y-80106600D03*
D25*
X188700000Y-96640000D03*
X188700000Y-99180000D03*
X188700000Y-101720000D03*
X188700000Y-104260000D03*
D26*
X188700000Y-106800000D03*
D24*
X119298000Y-76500000D03*
X122600000Y-76500000D03*
M02*
