M48
; DRILL file {KiCad (5.1.6)-1} date 01/18/21 17:04:17
; FORMAT={-:-/ absolute / metric / decimal}
; #@! TF.CreationDate,2021-01-18T17:04:17-05:00
; #@! TF.GenerationSoftware,Kicad,Pcbnew,(5.1.6)-1
; #@! TF.FileFunction,Plated,1,4,PTH
FMAT,2
METRIC
T1C0.381
T2C1.000
T3C1.016
%
G90
G05
T1
X110.363Y-81.788
X111.887Y-104.013
X122.301Y-84.836
X124.003Y-79.553
X128.27Y-87.63
X128.27Y-92.202
X128.651Y-94.742
X134.239Y-89.916
X136.398Y-92.837
X139.7Y-93.345
X140.462Y-91.821
X140.589Y-74.676
X140.843Y-109.22
X142.494Y-78.994
X142.494Y-80.772
X143.51Y-98.552
X143.891Y-92.329
X144.018Y-78.359
X145.034Y-81.153
X145.669Y-97.409
X146.304Y-93.472
X148.971Y-93.218
X149.606Y-89.662
X150.241Y-84.074
X151.257Y-93.218
X151.384Y-89.916
X151.892Y-95.504
X153.797Y-81.026
X155.321Y-78.359
X155.448Y-104.521
X156.134Y-84.633
X156.337Y-74.295
X156.362Y-86.411
X156.566Y-110.541
X161.036Y-84.633
X161.036Y-109.474
X162.357Y-110.744
X162.408Y-94.767
X162.56Y-87.63
X164.084Y-111.125
X164.211Y-78.359
X164.821Y-82.321
X165.252Y-85.039
X165.354Y-108.763
X166.497Y-109.982
X166.599Y-90.424
X167.107Y-103.302
X167.64Y-98.323
X168.275Y-90.094
X168.885Y-110.617
X169.266Y-97.536
X169.291Y-80.899
X169.748Y-103.175
X169.799Y-91.44
X170.256Y-115.138
X170.5Y-87.0
X171.196Y-80.645
X172.466Y-91.44
X172.517Y-99.06
X173.736Y-79.756
X174.523Y-110.388
X174.752Y-75.565
X175.057Y-98.831
X175.336Y-104.597
X177.8Y-110.9
X178.384Y-84.404
X179.07Y-90.17
X179.07Y-104.14
X179.705Y-86.893
X180.213Y-92.1
X182.1Y-111.4
X182.485Y-97.56
X182.499Y-104.648
X182.9Y-112.5
X183.617Y-96.622
X184.201Y-81.585
X184.328Y-109.271
X184.48Y-106.578
X185.268Y-102.819
X185.896Y-91.008
X186.69Y-86.639
X186.868Y-81.559
X186.969Y-83.16
X187.64Y-90.058
X193.243Y-73.889
T2
X188.7Y-96.64
X188.7Y-99.18
X188.7Y-101.72
X188.7Y-104.26
X188.7Y-106.8
T3
X122.174Y-70.866
X124.714Y-70.866
X127.254Y-70.866
X129.794Y-70.866
X132.334Y-70.866
X134.874Y-70.866
X137.414Y-70.866
X139.954Y-70.866
X142.494Y-70.866
X145.034Y-70.866
X177.038Y-119.126
X179.578Y-119.126
X182.118Y-119.126
X184.658Y-119.126
X187.198Y-119.126
X189.738Y-119.126
X192.278Y-119.126
X194.818Y-119.126
X131.318Y-119.126
X133.858Y-119.126
X136.398Y-119.126
X138.938Y-119.126
X141.478Y-119.126
X144.018Y-119.126
X146.558Y-119.126
X149.098Y-119.126
X197.358Y-70.866
X197.358Y-73.406
X197.358Y-75.946
X197.358Y-78.486
X197.358Y-81.026
X197.358Y-83.566
X197.358Y-86.106
X197.358Y-88.646
X197.358Y-91.186
X197.358Y-93.726
X197.358Y-96.266
X197.358Y-98.806
X197.358Y-101.346
X197.358Y-103.886
X197.358Y-106.426
X197.358Y-108.966
X197.358Y-111.506
X197.358Y-114.046
X199.898Y-70.866
X199.898Y-73.406
X199.898Y-75.946
X199.898Y-78.486
X199.898Y-81.026
X199.898Y-83.566
X199.898Y-86.106
X199.898Y-88.646
X199.898Y-91.186
X199.898Y-93.726
X199.898Y-96.266
X199.898Y-98.806
X199.898Y-101.346
X199.898Y-103.886
X199.898Y-106.426
X199.898Y-108.966
X199.898Y-111.506
X199.898Y-114.046
X154.178Y-119.126
X156.718Y-119.126
X159.258Y-119.126
X161.798Y-119.126
X164.338Y-119.126
X166.878Y-119.126
X169.418Y-119.126
X171.958Y-119.126
X149.098Y-70.866
X151.638Y-70.866
X154.178Y-70.866
X156.718Y-70.866
X159.258Y-70.866
X161.798Y-70.866
X164.338Y-70.866
X166.878Y-70.866
X171.958Y-70.866
X174.498Y-70.866
X177.038Y-70.866
X179.578Y-70.866
X182.118Y-70.866
X184.658Y-70.866
X187.198Y-70.866
X189.738Y-70.866
T0
M30
