G04 #@! TF.GenerationSoftware,KiCad,Pcbnew,(5.1.6)-1*
G04 #@! TF.CreationDate,2021-01-18T17:04:58-05:00*
G04 #@! TF.ProjectId,IO Board,494f2042-6f61-4726-942e-6b696361645f,2.3*
G04 #@! TF.SameCoordinates,Original*
G04 #@! TF.FileFunction,Other,Fab,Top*
%FSLAX46Y46*%
G04 Gerber Fmt 4.6, Leading zero omitted, Abs format (unit mm)*
G04 Created by KiCad (PCBNEW (5.1.6)-1) date 2021-01-18 17:04:58*
%MOMM*%
%LPD*%
G01*
G04 APERTURE LIST*
%ADD10C,0.100000*%
%ADD11C,0.150000*%
%ADD12C,0.300000*%
%ADD13C,0.400000*%
%ADD14C,0.075000*%
G04 APERTURE END LIST*
D10*
D11*
X159400000Y-171900000D02*
X159400000Y-203900000D01*
X267400000Y-203900000D01*
X267400000Y-171900000D01*
X159400000Y-171900000D01*
D10*
D11*
X10000000Y-10000000D02*
X10000000Y-205900000D01*
X269400000Y-205900000D01*
X269400000Y-10000000D01*
X10000000Y-10000000D01*
D10*
D11*
X12000000Y-12000000D02*
X12000000Y-203900000D01*
X267400000Y-203900000D01*
X267400000Y-12000000D01*
X12000000Y-12000000D01*
D10*
D11*
X60000000Y-12000000D02*
X60000000Y-10000000D01*
D10*
D11*
X110000000Y-12000000D02*
X110000000Y-10000000D01*
D10*
D11*
X160000000Y-12000000D02*
X160000000Y-10000000D01*
D10*
D11*
X210000000Y-12000000D02*
X210000000Y-10000000D01*
D10*
D11*
X260000000Y-12000000D02*
X260000000Y-10000000D01*
D10*
D11*
X36065476Y-11588095D02*
X35322619Y-11588095D01*
X35694047Y-11588095D02*
X35694047Y-10288095D01*
X35570238Y-10473809D01*
X35446428Y-10597619D01*
X35322619Y-10659523D01*
D10*
D11*
X85322619Y-10411904D02*
X85384523Y-10350000D01*
X85508333Y-10288095D01*
X85817857Y-10288095D01*
X85941666Y-10350000D01*
X86003571Y-10411904D01*
X86065476Y-10535714D01*
X86065476Y-10659523D01*
X86003571Y-10845238D01*
X85260714Y-11588095D01*
X86065476Y-11588095D01*
D10*
D11*
X135260714Y-10288095D02*
X136065476Y-10288095D01*
X135632142Y-10783333D01*
X135817857Y-10783333D01*
X135941666Y-10845238D01*
X136003571Y-10907142D01*
X136065476Y-11030952D01*
X136065476Y-11340476D01*
X136003571Y-11464285D01*
X135941666Y-11526190D01*
X135817857Y-11588095D01*
X135446428Y-11588095D01*
X135322619Y-11526190D01*
X135260714Y-11464285D01*
D10*
D11*
X185941666Y-10721428D02*
X185941666Y-11588095D01*
X185632142Y-10226190D02*
X185322619Y-11154761D01*
X186127380Y-11154761D01*
D10*
D11*
X236003571Y-10288095D02*
X235384523Y-10288095D01*
X235322619Y-10907142D01*
X235384523Y-10845238D01*
X235508333Y-10783333D01*
X235817857Y-10783333D01*
X235941666Y-10845238D01*
X236003571Y-10907142D01*
X236065476Y-11030952D01*
X236065476Y-11340476D01*
X236003571Y-11464285D01*
X235941666Y-11526190D01*
X235817857Y-11588095D01*
X235508333Y-11588095D01*
X235384523Y-11526190D01*
X235322619Y-11464285D01*
D10*
D11*
X60000000Y-203900000D02*
X60000000Y-205900000D01*
D10*
D11*
X110000000Y-203900000D02*
X110000000Y-205900000D01*
D10*
D11*
X160000000Y-203900000D02*
X160000000Y-205900000D01*
D10*
D11*
X210000000Y-203900000D02*
X210000000Y-205900000D01*
D10*
D11*
X260000000Y-203900000D02*
X260000000Y-205900000D01*
D10*
D11*
X36065476Y-205488095D02*
X35322619Y-205488095D01*
X35694047Y-205488095D02*
X35694047Y-204188095D01*
X35570238Y-204373809D01*
X35446428Y-204497619D01*
X35322619Y-204559523D01*
D10*
D11*
X85322619Y-204311904D02*
X85384523Y-204250000D01*
X85508333Y-204188095D01*
X85817857Y-204188095D01*
X85941666Y-204250000D01*
X86003571Y-204311904D01*
X86065476Y-204435714D01*
X86065476Y-204559523D01*
X86003571Y-204745238D01*
X85260714Y-205488095D01*
X86065476Y-205488095D01*
D10*
D11*
X135260714Y-204188095D02*
X136065476Y-204188095D01*
X135632142Y-204683333D01*
X135817857Y-204683333D01*
X135941666Y-204745238D01*
X136003571Y-204807142D01*
X136065476Y-204930952D01*
X136065476Y-205240476D01*
X136003571Y-205364285D01*
X135941666Y-205426190D01*
X135817857Y-205488095D01*
X135446428Y-205488095D01*
X135322619Y-205426190D01*
X135260714Y-205364285D01*
D10*
D11*
X185941666Y-204621428D02*
X185941666Y-205488095D01*
X185632142Y-204126190D02*
X185322619Y-205054761D01*
X186127380Y-205054761D01*
D10*
D11*
X236003571Y-204188095D02*
X235384523Y-204188095D01*
X235322619Y-204807142D01*
X235384523Y-204745238D01*
X235508333Y-204683333D01*
X235817857Y-204683333D01*
X235941666Y-204745238D01*
X236003571Y-204807142D01*
X236065476Y-204930952D01*
X236065476Y-205240476D01*
X236003571Y-205364285D01*
X235941666Y-205426190D01*
X235817857Y-205488095D01*
X235508333Y-205488095D01*
X235384523Y-205426190D01*
X235322619Y-205364285D01*
D10*
D11*
X10000000Y-60000000D02*
X12000000Y-60000000D01*
D10*
D11*
X10000000Y-110000000D02*
X12000000Y-110000000D01*
D10*
D11*
X10000000Y-160000000D02*
X12000000Y-160000000D01*
D10*
D11*
X10690476Y-35216666D02*
X11309523Y-35216666D01*
X10566666Y-35588095D02*
X11000000Y-34288095D01*
X11433333Y-35588095D01*
D10*
D11*
X11092857Y-84907142D02*
X11278571Y-84969047D01*
X11340476Y-85030952D01*
X11402380Y-85154761D01*
X11402380Y-85340476D01*
X11340476Y-85464285D01*
X11278571Y-85526190D01*
X11154761Y-85588095D01*
X10659523Y-85588095D01*
X10659523Y-84288095D01*
X11092857Y-84288095D01*
X11216666Y-84350000D01*
X11278571Y-84411904D01*
X11340476Y-84535714D01*
X11340476Y-84659523D01*
X11278571Y-84783333D01*
X11216666Y-84845238D01*
X11092857Y-84907142D01*
X10659523Y-84907142D01*
D10*
D11*
X11402380Y-135464285D02*
X11340476Y-135526190D01*
X11154761Y-135588095D01*
X11030952Y-135588095D01*
X10845238Y-135526190D01*
X10721428Y-135402380D01*
X10659523Y-135278571D01*
X10597619Y-135030952D01*
X10597619Y-134845238D01*
X10659523Y-134597619D01*
X10721428Y-134473809D01*
X10845238Y-134350000D01*
X11030952Y-134288095D01*
X11154761Y-134288095D01*
X11340476Y-134350000D01*
X11402380Y-134411904D01*
D10*
D11*
X10659523Y-185588095D02*
X10659523Y-184288095D01*
X10969047Y-184288095D01*
X11154761Y-184350000D01*
X11278571Y-184473809D01*
X11340476Y-184597619D01*
X11402380Y-184845238D01*
X11402380Y-185030952D01*
X11340476Y-185278571D01*
X11278571Y-185402380D01*
X11154761Y-185526190D01*
X10969047Y-185588095D01*
X10659523Y-185588095D01*
D10*
D11*
X269400000Y-60000000D02*
X267400000Y-60000000D01*
D10*
D11*
X269400000Y-110000000D02*
X267400000Y-110000000D01*
D10*
D11*
X269400000Y-160000000D02*
X267400000Y-160000000D01*
D10*
D11*
X268090476Y-35216666D02*
X268709523Y-35216666D01*
X267966666Y-35588095D02*
X268400000Y-34288095D01*
X268833333Y-35588095D01*
D10*
D11*
X268492857Y-84907142D02*
X268678571Y-84969047D01*
X268740476Y-85030952D01*
X268802380Y-85154761D01*
X268802380Y-85340476D01*
X268740476Y-85464285D01*
X268678571Y-85526190D01*
X268554761Y-85588095D01*
X268059523Y-85588095D01*
X268059523Y-84288095D01*
X268492857Y-84288095D01*
X268616666Y-84350000D01*
X268678571Y-84411904D01*
X268740476Y-84535714D01*
X268740476Y-84659523D01*
X268678571Y-84783333D01*
X268616666Y-84845238D01*
X268492857Y-84907142D01*
X268059523Y-84907142D01*
D10*
D11*
X268802380Y-135464285D02*
X268740476Y-135526190D01*
X268554761Y-135588095D01*
X268430952Y-135588095D01*
X268245238Y-135526190D01*
X268121428Y-135402380D01*
X268059523Y-135278571D01*
X267997619Y-135030952D01*
X267997619Y-134845238D01*
X268059523Y-134597619D01*
X268121428Y-134473809D01*
X268245238Y-134350000D01*
X268430952Y-134288095D01*
X268554761Y-134288095D01*
X268740476Y-134350000D01*
X268802380Y-134411904D01*
D10*
D11*
X268059523Y-185588095D02*
X268059523Y-184288095D01*
X268369047Y-184288095D01*
X268554761Y-184350000D01*
X268678571Y-184473809D01*
X268740476Y-184597619D01*
X268802380Y-184845238D01*
X268802380Y-185030952D01*
X268740476Y-185278571D01*
X268678571Y-185402380D01*
X268554761Y-185526190D01*
X268369047Y-185588095D01*
X268059523Y-185588095D01*
D10*
D11*
X182832142Y-199678571D02*
X182832142Y-198178571D01*
X183189285Y-198178571D01*
X183403571Y-198250000D01*
X183546428Y-198392857D01*
X183617857Y-198535714D01*
X183689285Y-198821428D01*
X183689285Y-199035714D01*
X183617857Y-199321428D01*
X183546428Y-199464285D01*
X183403571Y-199607142D01*
X183189285Y-199678571D01*
X182832142Y-199678571D01*
X184975000Y-199678571D02*
X184975000Y-198892857D01*
X184903571Y-198750000D01*
X184760714Y-198678571D01*
X184475000Y-198678571D01*
X184332142Y-198750000D01*
X184975000Y-199607142D02*
X184832142Y-199678571D01*
X184475000Y-199678571D01*
X184332142Y-199607142D01*
X184260714Y-199464285D01*
X184260714Y-199321428D01*
X184332142Y-199178571D01*
X184475000Y-199107142D01*
X184832142Y-199107142D01*
X184975000Y-199035714D01*
X185475000Y-198678571D02*
X186046428Y-198678571D01*
X185689285Y-198178571D02*
X185689285Y-199464285D01*
X185760714Y-199607142D01*
X185903571Y-199678571D01*
X186046428Y-199678571D01*
X187117857Y-199607142D02*
X186975000Y-199678571D01*
X186689285Y-199678571D01*
X186546428Y-199607142D01*
X186475000Y-199464285D01*
X186475000Y-198892857D01*
X186546428Y-198750000D01*
X186689285Y-198678571D01*
X186975000Y-198678571D01*
X187117857Y-198750000D01*
X187189285Y-198892857D01*
X187189285Y-199035714D01*
X186475000Y-199178571D01*
X187832142Y-199535714D02*
X187903571Y-199607142D01*
X187832142Y-199678571D01*
X187760714Y-199607142D01*
X187832142Y-199535714D01*
X187832142Y-199678571D01*
X187832142Y-198750000D02*
X187903571Y-198821428D01*
X187832142Y-198892857D01*
X187760714Y-198821428D01*
X187832142Y-198750000D01*
X187832142Y-198892857D01*
X189617857Y-198321428D02*
X189689285Y-198250000D01*
X189832142Y-198178571D01*
X190189285Y-198178571D01*
X190332142Y-198250000D01*
X190403571Y-198321428D01*
X190475000Y-198464285D01*
X190475000Y-198607142D01*
X190403571Y-198821428D01*
X189546428Y-199678571D01*
X190475000Y-199678571D01*
X191403571Y-198178571D02*
X191546428Y-198178571D01*
X191689285Y-198250000D01*
X191760714Y-198321428D01*
X191832142Y-198464285D01*
X191903571Y-198750000D01*
X191903571Y-199107142D01*
X191832142Y-199392857D01*
X191760714Y-199535714D01*
X191689285Y-199607142D01*
X191546428Y-199678571D01*
X191403571Y-199678571D01*
X191260714Y-199607142D01*
X191189285Y-199535714D01*
X191117857Y-199392857D01*
X191046428Y-199107142D01*
X191046428Y-198750000D01*
X191117857Y-198464285D01*
X191189285Y-198321428D01*
X191260714Y-198250000D01*
X191403571Y-198178571D01*
X192475000Y-198321428D02*
X192546428Y-198250000D01*
X192689285Y-198178571D01*
X193046428Y-198178571D01*
X193189285Y-198250000D01*
X193260714Y-198321428D01*
X193332142Y-198464285D01*
X193332142Y-198607142D01*
X193260714Y-198821428D01*
X192403571Y-199678571D01*
X193332142Y-199678571D01*
X194260714Y-198178571D02*
X194403571Y-198178571D01*
X194546428Y-198250000D01*
X194617857Y-198321428D01*
X194689285Y-198464285D01*
X194760714Y-198750000D01*
X194760714Y-199107142D01*
X194689285Y-199392857D01*
X194617857Y-199535714D01*
X194546428Y-199607142D01*
X194403571Y-199678571D01*
X194260714Y-199678571D01*
X194117857Y-199607142D01*
X194046428Y-199535714D01*
X193975000Y-199392857D01*
X193903571Y-199107142D01*
X193903571Y-198750000D01*
X193975000Y-198464285D01*
X194046428Y-198321428D01*
X194117857Y-198250000D01*
X194260714Y-198178571D01*
X195403571Y-199107142D02*
X196546428Y-199107142D01*
X197546428Y-198178571D02*
X197689285Y-198178571D01*
X197832142Y-198250000D01*
X197903571Y-198321428D01*
X197975000Y-198464285D01*
X198046428Y-198750000D01*
X198046428Y-199107142D01*
X197975000Y-199392857D01*
X197903571Y-199535714D01*
X197832142Y-199607142D01*
X197689285Y-199678571D01*
X197546428Y-199678571D01*
X197403571Y-199607142D01*
X197332142Y-199535714D01*
X197260714Y-199392857D01*
X197189285Y-199107142D01*
X197189285Y-198750000D01*
X197260714Y-198464285D01*
X197332142Y-198321428D01*
X197403571Y-198250000D01*
X197546428Y-198178571D01*
X199332142Y-198678571D02*
X199332142Y-199678571D01*
X198975000Y-198107142D02*
X198617857Y-199178571D01*
X199546428Y-199178571D01*
X200117857Y-199107142D02*
X201260714Y-199107142D01*
X201903571Y-198321428D02*
X201975000Y-198250000D01*
X202117857Y-198178571D01*
X202475000Y-198178571D01*
X202617857Y-198250000D01*
X202689285Y-198321428D01*
X202760714Y-198464285D01*
X202760714Y-198607142D01*
X202689285Y-198821428D01*
X201832142Y-199678571D01*
X202760714Y-199678571D01*
X203260714Y-198178571D02*
X204260714Y-198178571D01*
X203617857Y-199678571D01*
D10*
D11*
X159400000Y-200400000D02*
X267400000Y-200400000D01*
D10*
D11*
X160832142Y-202478571D02*
X160832142Y-200978571D01*
X161689285Y-202478571D02*
X161046428Y-201621428D01*
X161689285Y-200978571D02*
X160832142Y-201835714D01*
X162332142Y-202478571D02*
X162332142Y-201478571D01*
X162332142Y-200978571D02*
X162260714Y-201050000D01*
X162332142Y-201121428D01*
X162403571Y-201050000D01*
X162332142Y-200978571D01*
X162332142Y-201121428D01*
X163903571Y-202335714D02*
X163832142Y-202407142D01*
X163617857Y-202478571D01*
X163475000Y-202478571D01*
X163260714Y-202407142D01*
X163117857Y-202264285D01*
X163046428Y-202121428D01*
X162975000Y-201835714D01*
X162975000Y-201621428D01*
X163046428Y-201335714D01*
X163117857Y-201192857D01*
X163260714Y-201050000D01*
X163475000Y-200978571D01*
X163617857Y-200978571D01*
X163832142Y-201050000D01*
X163903571Y-201121428D01*
X165189285Y-202478571D02*
X165189285Y-201692857D01*
X165117857Y-201550000D01*
X164975000Y-201478571D01*
X164689285Y-201478571D01*
X164546428Y-201550000D01*
X165189285Y-202407142D02*
X165046428Y-202478571D01*
X164689285Y-202478571D01*
X164546428Y-202407142D01*
X164475000Y-202264285D01*
X164475000Y-202121428D01*
X164546428Y-201978571D01*
X164689285Y-201907142D01*
X165046428Y-201907142D01*
X165189285Y-201835714D01*
X166546428Y-202478571D02*
X166546428Y-200978571D01*
X166546428Y-202407142D02*
X166403571Y-202478571D01*
X166117857Y-202478571D01*
X165975000Y-202407142D01*
X165903571Y-202335714D01*
X165832142Y-202192857D01*
X165832142Y-201764285D01*
X165903571Y-201621428D01*
X165975000Y-201550000D01*
X166117857Y-201478571D01*
X166403571Y-201478571D01*
X166546428Y-201550000D01*
X168403571Y-201692857D02*
X168903571Y-201692857D01*
X169117857Y-202478571D02*
X168403571Y-202478571D01*
X168403571Y-200978571D01*
X169117857Y-200978571D01*
X169760714Y-202335714D02*
X169832142Y-202407142D01*
X169760714Y-202478571D01*
X169689285Y-202407142D01*
X169760714Y-202335714D01*
X169760714Y-202478571D01*
X170475000Y-202478571D02*
X170475000Y-200978571D01*
X170832142Y-200978571D01*
X171046428Y-201050000D01*
X171189285Y-201192857D01*
X171260714Y-201335714D01*
X171332142Y-201621428D01*
X171332142Y-201835714D01*
X171260714Y-202121428D01*
X171189285Y-202264285D01*
X171046428Y-202407142D01*
X170832142Y-202478571D01*
X170475000Y-202478571D01*
X171975000Y-202335714D02*
X172046428Y-202407142D01*
X171975000Y-202478571D01*
X171903571Y-202407142D01*
X171975000Y-202335714D01*
X171975000Y-202478571D01*
X172617857Y-202050000D02*
X173332142Y-202050000D01*
X172475000Y-202478571D02*
X172975000Y-200978571D01*
X173475000Y-202478571D01*
X173975000Y-202335714D02*
X174046428Y-202407142D01*
X173975000Y-202478571D01*
X173903571Y-202407142D01*
X173975000Y-202335714D01*
X173975000Y-202478571D01*
X176975000Y-202478571D02*
X176975000Y-200978571D01*
X177117857Y-201907142D02*
X177546428Y-202478571D01*
X177546428Y-201478571D02*
X176975000Y-202050000D01*
X178189285Y-202478571D02*
X178189285Y-201478571D01*
X178189285Y-200978571D02*
X178117857Y-201050000D01*
X178189285Y-201121428D01*
X178260714Y-201050000D01*
X178189285Y-200978571D01*
X178189285Y-201121428D01*
X179546428Y-202407142D02*
X179403571Y-202478571D01*
X179117857Y-202478571D01*
X178975000Y-202407142D01*
X178903571Y-202335714D01*
X178832142Y-202192857D01*
X178832142Y-201764285D01*
X178903571Y-201621428D01*
X178975000Y-201550000D01*
X179117857Y-201478571D01*
X179403571Y-201478571D01*
X179546428Y-201550000D01*
X180832142Y-202478571D02*
X180832142Y-201692857D01*
X180760714Y-201550000D01*
X180617857Y-201478571D01*
X180332142Y-201478571D01*
X180189285Y-201550000D01*
X180832142Y-202407142D02*
X180689285Y-202478571D01*
X180332142Y-202478571D01*
X180189285Y-202407142D01*
X180117857Y-202264285D01*
X180117857Y-202121428D01*
X180189285Y-201978571D01*
X180332142Y-201907142D01*
X180689285Y-201907142D01*
X180832142Y-201835714D01*
X182189285Y-202478571D02*
X182189285Y-200978571D01*
X182189285Y-202407142D02*
X182046428Y-202478571D01*
X181760714Y-202478571D01*
X181617857Y-202407142D01*
X181546428Y-202335714D01*
X181475000Y-202192857D01*
X181475000Y-201764285D01*
X181546428Y-201621428D01*
X181617857Y-201550000D01*
X181760714Y-201478571D01*
X182046428Y-201478571D01*
X182189285Y-201550000D01*
X184475000Y-203050000D02*
X184403571Y-202978571D01*
X184260714Y-202764285D01*
X184189285Y-202621428D01*
X184117857Y-202407142D01*
X184046428Y-202050000D01*
X184046428Y-201764285D01*
X184117857Y-201407142D01*
X184189285Y-201192857D01*
X184260714Y-201050000D01*
X184403571Y-200835714D01*
X184475000Y-200764285D01*
X185760714Y-200978571D02*
X185046428Y-200978571D01*
X184975000Y-201692857D01*
X185046428Y-201621428D01*
X185189285Y-201550000D01*
X185546428Y-201550000D01*
X185689285Y-201621428D01*
X185760714Y-201692857D01*
X185832142Y-201835714D01*
X185832142Y-202192857D01*
X185760714Y-202335714D01*
X185689285Y-202407142D01*
X185546428Y-202478571D01*
X185189285Y-202478571D01*
X185046428Y-202407142D01*
X184975000Y-202335714D01*
X186475000Y-202335714D02*
X186546428Y-202407142D01*
X186475000Y-202478571D01*
X186403571Y-202407142D01*
X186475000Y-202335714D01*
X186475000Y-202478571D01*
X187975000Y-202478571D02*
X187117857Y-202478571D01*
X187546428Y-202478571D02*
X187546428Y-200978571D01*
X187403571Y-201192857D01*
X187260714Y-201335714D01*
X187117857Y-201407142D01*
X188617857Y-202335714D02*
X188689285Y-202407142D01*
X188617857Y-202478571D01*
X188546428Y-202407142D01*
X188617857Y-202335714D01*
X188617857Y-202478571D01*
X189975000Y-200978571D02*
X189689285Y-200978571D01*
X189546428Y-201050000D01*
X189475000Y-201121428D01*
X189332142Y-201335714D01*
X189260714Y-201621428D01*
X189260714Y-202192857D01*
X189332142Y-202335714D01*
X189403571Y-202407142D01*
X189546428Y-202478571D01*
X189832142Y-202478571D01*
X189975000Y-202407142D01*
X190046428Y-202335714D01*
X190117857Y-202192857D01*
X190117857Y-201835714D01*
X190046428Y-201692857D01*
X189975000Y-201621428D01*
X189832142Y-201550000D01*
X189546428Y-201550000D01*
X189403571Y-201621428D01*
X189332142Y-201692857D01*
X189260714Y-201835714D01*
X190617857Y-203050000D02*
X190689285Y-202978571D01*
X190832142Y-202764285D01*
X190903571Y-202621428D01*
X190975000Y-202407142D01*
X191046428Y-202050000D01*
X191046428Y-201764285D01*
X190975000Y-201407142D01*
X190903571Y-201192857D01*
X190832142Y-201050000D01*
X190689285Y-200835714D01*
X190617857Y-200764285D01*
X191760714Y-201907142D02*
X192903571Y-201907142D01*
X194403571Y-202478571D02*
X193546428Y-202478571D01*
X193975000Y-202478571D02*
X193975000Y-200978571D01*
X193832142Y-201192857D01*
X193689285Y-201335714D01*
X193546428Y-201407142D01*
D10*
D11*
X159400000Y-197400000D02*
X267400000Y-197400000D01*
D10*
D12*
X246809285Y-199678571D02*
X246309285Y-198964285D01*
X245952142Y-199678571D02*
X245952142Y-198178571D01*
X246523571Y-198178571D01*
X246666428Y-198250000D01*
X246737857Y-198321428D01*
X246809285Y-198464285D01*
X246809285Y-198678571D01*
X246737857Y-198821428D01*
X246666428Y-198892857D01*
X246523571Y-198964285D01*
X245952142Y-198964285D01*
X248023571Y-199607142D02*
X247880714Y-199678571D01*
X247595000Y-199678571D01*
X247452142Y-199607142D01*
X247380714Y-199464285D01*
X247380714Y-198892857D01*
X247452142Y-198750000D01*
X247595000Y-198678571D01*
X247880714Y-198678571D01*
X248023571Y-198750000D01*
X248095000Y-198892857D01*
X248095000Y-199035714D01*
X247380714Y-199178571D01*
X248595000Y-198678571D02*
X248952142Y-199678571D01*
X249309285Y-198678571D01*
X249880714Y-199535714D02*
X249952142Y-199607142D01*
X249880714Y-199678571D01*
X249809285Y-199607142D01*
X249880714Y-199535714D01*
X249880714Y-199678571D01*
X249880714Y-198750000D02*
X249952142Y-198821428D01*
X249880714Y-198892857D01*
X249809285Y-198821428D01*
X249880714Y-198750000D01*
X249880714Y-198892857D01*
X251666428Y-198321428D02*
X251737857Y-198250000D01*
X251880714Y-198178571D01*
X252237857Y-198178571D01*
X252380714Y-198250000D01*
X252452142Y-198321428D01*
X252523571Y-198464285D01*
X252523571Y-198607142D01*
X252452142Y-198821428D01*
X251595000Y-199678571D01*
X252523571Y-199678571D01*
X253166428Y-199535714D02*
X253237857Y-199607142D01*
X253166428Y-199678571D01*
X253095000Y-199607142D01*
X253166428Y-199535714D01*
X253166428Y-199678571D01*
X253737857Y-198178571D02*
X254666428Y-198178571D01*
X254166428Y-198750000D01*
X254380714Y-198750000D01*
X254523571Y-198821428D01*
X254595000Y-198892857D01*
X254666428Y-199035714D01*
X254666428Y-199392857D01*
X254595000Y-199535714D01*
X254523571Y-199607142D01*
X254380714Y-199678571D01*
X253952142Y-199678571D01*
X253809285Y-199607142D01*
X253737857Y-199535714D01*
D10*
D11*
X160760714Y-199607142D02*
X160975000Y-199678571D01*
X161332142Y-199678571D01*
X161475000Y-199607142D01*
X161546428Y-199535714D01*
X161617857Y-199392857D01*
X161617857Y-199250000D01*
X161546428Y-199107142D01*
X161475000Y-199035714D01*
X161332142Y-198964285D01*
X161046428Y-198892857D01*
X160903571Y-198821428D01*
X160832142Y-198750000D01*
X160760714Y-198607142D01*
X160760714Y-198464285D01*
X160832142Y-198321428D01*
X160903571Y-198250000D01*
X161046428Y-198178571D01*
X161403571Y-198178571D01*
X161617857Y-198250000D01*
X162260714Y-199678571D02*
X162260714Y-198678571D01*
X162260714Y-198178571D02*
X162189285Y-198250000D01*
X162260714Y-198321428D01*
X162332142Y-198250000D01*
X162260714Y-198178571D01*
X162260714Y-198321428D01*
X162832142Y-198678571D02*
X163617857Y-198678571D01*
X162832142Y-199678571D01*
X163617857Y-199678571D01*
X164760714Y-199607142D02*
X164617857Y-199678571D01*
X164332142Y-199678571D01*
X164189285Y-199607142D01*
X164117857Y-199464285D01*
X164117857Y-198892857D01*
X164189285Y-198750000D01*
X164332142Y-198678571D01*
X164617857Y-198678571D01*
X164760714Y-198750000D01*
X164832142Y-198892857D01*
X164832142Y-199035714D01*
X164117857Y-199178571D01*
X165475000Y-199535714D02*
X165546428Y-199607142D01*
X165475000Y-199678571D01*
X165403571Y-199607142D01*
X165475000Y-199535714D01*
X165475000Y-199678571D01*
X165475000Y-198750000D02*
X165546428Y-198821428D01*
X165475000Y-198892857D01*
X165403571Y-198821428D01*
X165475000Y-198750000D01*
X165475000Y-198892857D01*
X167332142Y-198178571D02*
X167332142Y-199392857D01*
X167403571Y-199535714D01*
X167475000Y-199607142D01*
X167617857Y-199678571D01*
X167903571Y-199678571D01*
X168046428Y-199607142D01*
X168117857Y-199535714D01*
X168189285Y-199392857D01*
X168189285Y-198178571D01*
X168832142Y-199607142D02*
X169046428Y-199678571D01*
X169403571Y-199678571D01*
X169546428Y-199607142D01*
X169617857Y-199535714D01*
X169689285Y-199392857D01*
X169689285Y-199250000D01*
X169617857Y-199107142D01*
X169546428Y-199035714D01*
X169403571Y-198964285D01*
X169117857Y-198892857D01*
X168975000Y-198821428D01*
X168903571Y-198750000D01*
X168832142Y-198607142D01*
X168832142Y-198464285D01*
X168903571Y-198321428D01*
X168975000Y-198250000D01*
X169117857Y-198178571D01*
X169475000Y-198178571D01*
X169689285Y-198250000D01*
X171046428Y-199678571D02*
X170332142Y-199678571D01*
X170332142Y-198178571D01*
X172117857Y-199607142D02*
X171975000Y-199678571D01*
X171689285Y-199678571D01*
X171546428Y-199607142D01*
X171475000Y-199464285D01*
X171475000Y-198892857D01*
X171546428Y-198750000D01*
X171689285Y-198678571D01*
X171975000Y-198678571D01*
X172117857Y-198750000D01*
X172189285Y-198892857D01*
X172189285Y-199035714D01*
X171475000Y-199178571D01*
X172617857Y-198678571D02*
X173189285Y-198678571D01*
X172832142Y-198178571D02*
X172832142Y-199464285D01*
X172903571Y-199607142D01*
X173046428Y-199678571D01*
X173189285Y-199678571D01*
X173475000Y-198678571D02*
X174046428Y-198678571D01*
X173689285Y-198178571D02*
X173689285Y-199464285D01*
X173760714Y-199607142D01*
X173903571Y-199678571D01*
X174046428Y-199678571D01*
X175117857Y-199607142D02*
X174975000Y-199678571D01*
X174689285Y-199678571D01*
X174546428Y-199607142D01*
X174475000Y-199464285D01*
X174475000Y-198892857D01*
X174546428Y-198750000D01*
X174689285Y-198678571D01*
X174975000Y-198678571D01*
X175117857Y-198750000D01*
X175189285Y-198892857D01*
X175189285Y-199035714D01*
X174475000Y-199178571D01*
X175832142Y-199678571D02*
X175832142Y-198678571D01*
X175832142Y-198964285D02*
X175903571Y-198821428D01*
X175975000Y-198750000D01*
X176117857Y-198678571D01*
X176260714Y-198678571D01*
D10*
D11*
X245832142Y-202478571D02*
X245832142Y-200978571D01*
X247189285Y-202478571D02*
X247189285Y-200978571D01*
X247189285Y-202407142D02*
X247046428Y-202478571D01*
X246760714Y-202478571D01*
X246617857Y-202407142D01*
X246546428Y-202335714D01*
X246475000Y-202192857D01*
X246475000Y-201764285D01*
X246546428Y-201621428D01*
X246617857Y-201550000D01*
X246760714Y-201478571D01*
X247046428Y-201478571D01*
X247189285Y-201550000D01*
X247903571Y-202335714D02*
X247975000Y-202407142D01*
X247903571Y-202478571D01*
X247832142Y-202407142D01*
X247903571Y-202335714D01*
X247903571Y-202478571D01*
X247903571Y-201550000D02*
X247975000Y-201621428D01*
X247903571Y-201692857D01*
X247832142Y-201621428D01*
X247903571Y-201550000D01*
X247903571Y-201692857D01*
X250546428Y-202478571D02*
X249689285Y-202478571D01*
X250117857Y-202478571D02*
X250117857Y-200978571D01*
X249975000Y-201192857D01*
X249832142Y-201335714D01*
X249689285Y-201407142D01*
X252260714Y-200907142D02*
X250975000Y-202835714D01*
X253546428Y-202478571D02*
X252689285Y-202478571D01*
X253117857Y-202478571D02*
X253117857Y-200978571D01*
X252975000Y-201192857D01*
X252832142Y-201335714D01*
X252689285Y-201407142D01*
D10*
D11*
X159400000Y-193400000D02*
X267400000Y-193400000D01*
D10*
D13*
X161112380Y-194104761D02*
X162255238Y-194104761D01*
X161433809Y-196104761D02*
X161683809Y-194104761D01*
X162671904Y-196104761D02*
X162838571Y-194771428D01*
X162921904Y-194104761D02*
X162814761Y-194200000D01*
X162898095Y-194295238D01*
X163005238Y-194200000D01*
X162921904Y-194104761D01*
X162898095Y-194295238D01*
X163505238Y-194771428D02*
X164267142Y-194771428D01*
X163874285Y-194104761D02*
X163660000Y-195819047D01*
X163731428Y-196009523D01*
X163910000Y-196104761D01*
X164100476Y-196104761D01*
X165052857Y-196104761D02*
X164874285Y-196009523D01*
X164802857Y-195819047D01*
X165017142Y-194104761D01*
X166588571Y-196009523D02*
X166386190Y-196104761D01*
X166005238Y-196104761D01*
X165826666Y-196009523D01*
X165755238Y-195819047D01*
X165850476Y-195057142D01*
X165969523Y-194866666D01*
X166171904Y-194771428D01*
X166552857Y-194771428D01*
X166731428Y-194866666D01*
X166802857Y-195057142D01*
X166779047Y-195247619D01*
X165802857Y-195438095D01*
X167552857Y-195914285D02*
X167636190Y-196009523D01*
X167529047Y-196104761D01*
X167445714Y-196009523D01*
X167552857Y-195914285D01*
X167529047Y-196104761D01*
X167683809Y-194866666D02*
X167767142Y-194961904D01*
X167660000Y-195057142D01*
X167576666Y-194961904D01*
X167683809Y-194866666D01*
X167660000Y-195057142D01*
X170005238Y-196104761D02*
X170255238Y-194104761D01*
X172648095Y-194009523D02*
X170612380Y-196580952D01*
X173683809Y-194104761D02*
X174064761Y-194104761D01*
X174243333Y-194200000D01*
X174410000Y-194390476D01*
X174457619Y-194771428D01*
X174374285Y-195438095D01*
X174231428Y-195819047D01*
X174017142Y-196009523D01*
X173814761Y-196104761D01*
X173433809Y-196104761D01*
X173255238Y-196009523D01*
X173088571Y-195819047D01*
X173040952Y-195438095D01*
X173124285Y-194771428D01*
X173267142Y-194390476D01*
X173481428Y-194200000D01*
X173683809Y-194104761D01*
X177469523Y-195057142D02*
X177743333Y-195152380D01*
X177826666Y-195247619D01*
X177898095Y-195438095D01*
X177862380Y-195723809D01*
X177743333Y-195914285D01*
X177636190Y-196009523D01*
X177433809Y-196104761D01*
X176671904Y-196104761D01*
X176921904Y-194104761D01*
X177588571Y-194104761D01*
X177767142Y-194200000D01*
X177850476Y-194295238D01*
X177921904Y-194485714D01*
X177898095Y-194676190D01*
X177779047Y-194866666D01*
X177671904Y-194961904D01*
X177469523Y-195057142D01*
X176802857Y-195057142D01*
X178957619Y-196104761D02*
X178779047Y-196009523D01*
X178695714Y-195914285D01*
X178624285Y-195723809D01*
X178695714Y-195152380D01*
X178814761Y-194961904D01*
X178921904Y-194866666D01*
X179124285Y-194771428D01*
X179410000Y-194771428D01*
X179588571Y-194866666D01*
X179671904Y-194961904D01*
X179743333Y-195152380D01*
X179671904Y-195723809D01*
X179552857Y-195914285D01*
X179445714Y-196009523D01*
X179243333Y-196104761D01*
X178957619Y-196104761D01*
X181338571Y-196104761D02*
X181469523Y-195057142D01*
X181398095Y-194866666D01*
X181219523Y-194771428D01*
X180838571Y-194771428D01*
X180636190Y-194866666D01*
X181350476Y-196009523D02*
X181148095Y-196104761D01*
X180671904Y-196104761D01*
X180493333Y-196009523D01*
X180421904Y-195819047D01*
X180445714Y-195628571D01*
X180564761Y-195438095D01*
X180767142Y-195342857D01*
X181243333Y-195342857D01*
X181445714Y-195247619D01*
X182290952Y-196104761D02*
X182457619Y-194771428D01*
X182410000Y-195152380D02*
X182529047Y-194961904D01*
X182636190Y-194866666D01*
X182838571Y-194771428D01*
X183029047Y-194771428D01*
X184386190Y-196104761D02*
X184636190Y-194104761D01*
X184398095Y-196009523D02*
X184195714Y-196104761D01*
X183814761Y-196104761D01*
X183636190Y-196009523D01*
X183552857Y-195914285D01*
X183481428Y-195723809D01*
X183552857Y-195152380D01*
X183671904Y-194961904D01*
X183779047Y-194866666D01*
X183981428Y-194771428D01*
X184362380Y-194771428D01*
X184540952Y-194866666D01*
X187814761Y-196104761D02*
X186862380Y-196104761D01*
X187112380Y-194104761D01*
X189338571Y-196104761D02*
X189469523Y-195057142D01*
X189398095Y-194866666D01*
X189219523Y-194771428D01*
X188838571Y-194771428D01*
X188636190Y-194866666D01*
X189350476Y-196009523D02*
X189148095Y-196104761D01*
X188671904Y-196104761D01*
X188493333Y-196009523D01*
X188421904Y-195819047D01*
X188445714Y-195628571D01*
X188564761Y-195438095D01*
X188767142Y-195342857D01*
X189243333Y-195342857D01*
X189445714Y-195247619D01*
X190267142Y-194771428D02*
X190576666Y-196104761D01*
X191219523Y-194771428D02*
X190576666Y-196104761D01*
X190326666Y-196580952D01*
X190219523Y-196676190D01*
X190017142Y-196771428D01*
X192100476Y-196104761D02*
X191921904Y-196009523D01*
X191838571Y-195914285D01*
X191767142Y-195723809D01*
X191838571Y-195152380D01*
X191957619Y-194961904D01*
X192064761Y-194866666D01*
X192267142Y-194771428D01*
X192552857Y-194771428D01*
X192731428Y-194866666D01*
X192814761Y-194961904D01*
X192886190Y-195152380D01*
X192814761Y-195723809D01*
X192695714Y-195914285D01*
X192588571Y-196009523D01*
X192386190Y-196104761D01*
X192100476Y-196104761D01*
X194648095Y-194771428D02*
X194481428Y-196104761D01*
X193790952Y-194771428D02*
X193660000Y-195819047D01*
X193731428Y-196009523D01*
X193910000Y-196104761D01*
X194195714Y-196104761D01*
X194398095Y-196009523D01*
X194505238Y-195914285D01*
X195314761Y-194771428D02*
X196076666Y-194771428D01*
X195683809Y-194104761D02*
X195469523Y-195819047D01*
X195540952Y-196009523D01*
X195719523Y-196104761D01*
X195910000Y-196104761D01*
D10*
D11*
X161332142Y-191492857D02*
X160832142Y-191492857D01*
X160832142Y-192278571D02*
X160832142Y-190778571D01*
X161546428Y-190778571D01*
X162117857Y-192278571D02*
X162117857Y-191278571D01*
X162117857Y-190778571D02*
X162046428Y-190850000D01*
X162117857Y-190921428D01*
X162189285Y-190850000D01*
X162117857Y-190778571D01*
X162117857Y-190921428D01*
X163046428Y-192278571D02*
X162903571Y-192207142D01*
X162832142Y-192064285D01*
X162832142Y-190778571D01*
X164189285Y-192207142D02*
X164046428Y-192278571D01*
X163760714Y-192278571D01*
X163617857Y-192207142D01*
X163546428Y-192064285D01*
X163546428Y-191492857D01*
X163617857Y-191350000D01*
X163760714Y-191278571D01*
X164046428Y-191278571D01*
X164189285Y-191350000D01*
X164260714Y-191492857D01*
X164260714Y-191635714D01*
X163546428Y-191778571D01*
X164903571Y-192135714D02*
X164975000Y-192207142D01*
X164903571Y-192278571D01*
X164832142Y-192207142D01*
X164903571Y-192135714D01*
X164903571Y-192278571D01*
X164903571Y-191350000D02*
X164975000Y-191421428D01*
X164903571Y-191492857D01*
X164832142Y-191421428D01*
X164903571Y-191350000D01*
X164903571Y-191492857D01*
X166760714Y-192278571D02*
X166760714Y-190778571D01*
X167760714Y-190778571D02*
X168046428Y-190778571D01*
X168189285Y-190850000D01*
X168332142Y-190992857D01*
X168403571Y-191278571D01*
X168403571Y-191778571D01*
X168332142Y-192064285D01*
X168189285Y-192207142D01*
X168046428Y-192278571D01*
X167760714Y-192278571D01*
X167617857Y-192207142D01*
X167475000Y-192064285D01*
X167403571Y-191778571D01*
X167403571Y-191278571D01*
X167475000Y-190992857D01*
X167617857Y-190850000D01*
X167760714Y-190778571D01*
X170689285Y-191492857D02*
X170903571Y-191564285D01*
X170975000Y-191635714D01*
X171046428Y-191778571D01*
X171046428Y-191992857D01*
X170975000Y-192135714D01*
X170903571Y-192207142D01*
X170760714Y-192278571D01*
X170189285Y-192278571D01*
X170189285Y-190778571D01*
X170689285Y-190778571D01*
X170832142Y-190850000D01*
X170903571Y-190921428D01*
X170975000Y-191064285D01*
X170975000Y-191207142D01*
X170903571Y-191350000D01*
X170832142Y-191421428D01*
X170689285Y-191492857D01*
X170189285Y-191492857D01*
X171903571Y-192278571D02*
X171760714Y-192207142D01*
X171689285Y-192135714D01*
X171617857Y-191992857D01*
X171617857Y-191564285D01*
X171689285Y-191421428D01*
X171760714Y-191350000D01*
X171903571Y-191278571D01*
X172117857Y-191278571D01*
X172260714Y-191350000D01*
X172332142Y-191421428D01*
X172403571Y-191564285D01*
X172403571Y-191992857D01*
X172332142Y-192135714D01*
X172260714Y-192207142D01*
X172117857Y-192278571D01*
X171903571Y-192278571D01*
X173689285Y-192278571D02*
X173689285Y-191492857D01*
X173617857Y-191350000D01*
X173475000Y-191278571D01*
X173189285Y-191278571D01*
X173046428Y-191350000D01*
X173689285Y-192207142D02*
X173546428Y-192278571D01*
X173189285Y-192278571D01*
X173046428Y-192207142D01*
X172975000Y-192064285D01*
X172975000Y-191921428D01*
X173046428Y-191778571D01*
X173189285Y-191707142D01*
X173546428Y-191707142D01*
X173689285Y-191635714D01*
X174403571Y-192278571D02*
X174403571Y-191278571D01*
X174403571Y-191564285D02*
X174475000Y-191421428D01*
X174546428Y-191350000D01*
X174689285Y-191278571D01*
X174832142Y-191278571D01*
X175975000Y-192278571D02*
X175975000Y-190778571D01*
X175975000Y-192207142D02*
X175832142Y-192278571D01*
X175546428Y-192278571D01*
X175403571Y-192207142D01*
X175332142Y-192135714D01*
X175260714Y-191992857D01*
X175260714Y-191564285D01*
X175332142Y-191421428D01*
X175403571Y-191350000D01*
X175546428Y-191278571D01*
X175832142Y-191278571D01*
X175975000Y-191350000D01*
X176689285Y-192135714D02*
X176760714Y-192207142D01*
X176689285Y-192278571D01*
X176617857Y-192207142D01*
X176689285Y-192135714D01*
X176689285Y-192278571D01*
X177403571Y-192278571D02*
X177403571Y-190778571D01*
X177546428Y-191707142D02*
X177975000Y-192278571D01*
X177975000Y-191278571D02*
X177403571Y-191850000D01*
X178617857Y-192278571D02*
X178617857Y-191278571D01*
X178617857Y-190778571D02*
X178546428Y-190850000D01*
X178617857Y-190921428D01*
X178689285Y-190850000D01*
X178617857Y-190778571D01*
X178617857Y-190921428D01*
X179975000Y-192207142D02*
X179832142Y-192278571D01*
X179546428Y-192278571D01*
X179403571Y-192207142D01*
X179332142Y-192135714D01*
X179260714Y-191992857D01*
X179260714Y-191564285D01*
X179332142Y-191421428D01*
X179403571Y-191350000D01*
X179546428Y-191278571D01*
X179832142Y-191278571D01*
X179975000Y-191350000D01*
X181260714Y-192278571D02*
X181260714Y-191492857D01*
X181189285Y-191350000D01*
X181046428Y-191278571D01*
X180760714Y-191278571D01*
X180617857Y-191350000D01*
X181260714Y-192207142D02*
X181117857Y-192278571D01*
X180760714Y-192278571D01*
X180617857Y-192207142D01*
X180546428Y-192064285D01*
X180546428Y-191921428D01*
X180617857Y-191778571D01*
X180760714Y-191707142D01*
X181117857Y-191707142D01*
X181260714Y-191635714D01*
X182617857Y-192278571D02*
X182617857Y-190778571D01*
X182617857Y-192207142D02*
X182475000Y-192278571D01*
X182189285Y-192278571D01*
X182046428Y-192207142D01*
X181975000Y-192135714D01*
X181903571Y-191992857D01*
X181903571Y-191564285D01*
X181975000Y-191421428D01*
X182046428Y-191350000D01*
X182189285Y-191278571D01*
X182475000Y-191278571D01*
X182617857Y-191350000D01*
X182975000Y-192421428D02*
X184117857Y-192421428D01*
X184475000Y-191278571D02*
X184475000Y-192778571D01*
X184475000Y-191350000D02*
X184617857Y-191278571D01*
X184903571Y-191278571D01*
X185046428Y-191350000D01*
X185117857Y-191421428D01*
X185189285Y-191564285D01*
X185189285Y-191992857D01*
X185117857Y-192135714D01*
X185046428Y-192207142D01*
X184903571Y-192278571D01*
X184617857Y-192278571D01*
X184475000Y-192207142D01*
X186475000Y-192207142D02*
X186332142Y-192278571D01*
X186046428Y-192278571D01*
X185903571Y-192207142D01*
X185832142Y-192135714D01*
X185760714Y-191992857D01*
X185760714Y-191564285D01*
X185832142Y-191421428D01*
X185903571Y-191350000D01*
X186046428Y-191278571D01*
X186332142Y-191278571D01*
X186475000Y-191350000D01*
X187117857Y-192278571D02*
X187117857Y-190778571D01*
X187117857Y-191350000D02*
X187260714Y-191278571D01*
X187546428Y-191278571D01*
X187689285Y-191350000D01*
X187760714Y-191421428D01*
X187832142Y-191564285D01*
X187832142Y-191992857D01*
X187760714Y-192135714D01*
X187689285Y-192207142D01*
X187546428Y-192278571D01*
X187260714Y-192278571D01*
X187117857Y-192207142D01*
D10*
D11*
X159400000Y-187400000D02*
X267400000Y-187400000D01*
D10*
D11*
X160760714Y-189507142D02*
X160975000Y-189578571D01*
X161332142Y-189578571D01*
X161475000Y-189507142D01*
X161546428Y-189435714D01*
X161617857Y-189292857D01*
X161617857Y-189150000D01*
X161546428Y-189007142D01*
X161475000Y-188935714D01*
X161332142Y-188864285D01*
X161046428Y-188792857D01*
X160903571Y-188721428D01*
X160832142Y-188650000D01*
X160760714Y-188507142D01*
X160760714Y-188364285D01*
X160832142Y-188221428D01*
X160903571Y-188150000D01*
X161046428Y-188078571D01*
X161403571Y-188078571D01*
X161617857Y-188150000D01*
X162260714Y-189578571D02*
X162260714Y-188078571D01*
X162903571Y-189578571D02*
X162903571Y-188792857D01*
X162832142Y-188650000D01*
X162689285Y-188578571D01*
X162475000Y-188578571D01*
X162332142Y-188650000D01*
X162260714Y-188721428D01*
X164189285Y-189507142D02*
X164046428Y-189578571D01*
X163760714Y-189578571D01*
X163617857Y-189507142D01*
X163546428Y-189364285D01*
X163546428Y-188792857D01*
X163617857Y-188650000D01*
X163760714Y-188578571D01*
X164046428Y-188578571D01*
X164189285Y-188650000D01*
X164260714Y-188792857D01*
X164260714Y-188935714D01*
X163546428Y-189078571D01*
X165475000Y-189507142D02*
X165332142Y-189578571D01*
X165046428Y-189578571D01*
X164903571Y-189507142D01*
X164832142Y-189364285D01*
X164832142Y-188792857D01*
X164903571Y-188650000D01*
X165046428Y-188578571D01*
X165332142Y-188578571D01*
X165475000Y-188650000D01*
X165546428Y-188792857D01*
X165546428Y-188935714D01*
X164832142Y-189078571D01*
X165975000Y-188578571D02*
X166546428Y-188578571D01*
X166189285Y-188078571D02*
X166189285Y-189364285D01*
X166260714Y-189507142D01*
X166403571Y-189578571D01*
X166546428Y-189578571D01*
X167046428Y-189435714D02*
X167117857Y-189507142D01*
X167046428Y-189578571D01*
X166975000Y-189507142D01*
X167046428Y-189435714D01*
X167046428Y-189578571D01*
X167046428Y-188650000D02*
X167117857Y-188721428D01*
X167046428Y-188792857D01*
X166975000Y-188721428D01*
X167046428Y-188650000D01*
X167046428Y-188792857D01*
D10*
D11*
X179400000Y-197400000D02*
X179400000Y-200400000D01*
D10*
D11*
X243400000Y-197400000D02*
X243400000Y-203900000D01*
D12*
X136727857Y-33443571D02*
X136870714Y-33443571D01*
X137013571Y-33515000D01*
X137085000Y-33586428D01*
X137156428Y-33729285D01*
X137227857Y-34015000D01*
X137227857Y-34372142D01*
X137156428Y-34657857D01*
X137085000Y-34800714D01*
X137013571Y-34872142D01*
X136870714Y-34943571D01*
X136727857Y-34943571D01*
X136585000Y-34872142D01*
X136513571Y-34800714D01*
X136442142Y-34657857D01*
X136370714Y-34372142D01*
X136370714Y-34015000D01*
X136442142Y-33729285D01*
X136513571Y-33586428D01*
X136585000Y-33515000D01*
X136727857Y-33443571D01*
X137870714Y-34800714D02*
X137942142Y-34872142D01*
X137870714Y-34943571D01*
X137799285Y-34872142D01*
X137870714Y-34800714D01*
X137870714Y-34943571D01*
X138870714Y-33443571D02*
X139013571Y-33443571D01*
X139156428Y-33515000D01*
X139227857Y-33586428D01*
X139299285Y-33729285D01*
X139370714Y-34015000D01*
X139370714Y-34372142D01*
X139299285Y-34657857D01*
X139227857Y-34800714D01*
X139156428Y-34872142D01*
X139013571Y-34943571D01*
X138870714Y-34943571D01*
X138727857Y-34872142D01*
X138656428Y-34800714D01*
X138585000Y-34657857D01*
X138513571Y-34372142D01*
X138513571Y-34015000D01*
X138585000Y-33729285D01*
X138656428Y-33586428D01*
X138727857Y-33515000D01*
X138870714Y-33443571D01*
X140656428Y-33443571D02*
X140370714Y-33443571D01*
X140227857Y-33515000D01*
X140156428Y-33586428D01*
X140013571Y-33800714D01*
X139942142Y-34086428D01*
X139942142Y-34657857D01*
X140013571Y-34800714D01*
X140085000Y-34872142D01*
X140227857Y-34943571D01*
X140513571Y-34943571D01*
X140656428Y-34872142D01*
X140727857Y-34800714D01*
X140799285Y-34657857D01*
X140799285Y-34300714D01*
X140727857Y-34157857D01*
X140656428Y-34086428D01*
X140513571Y-34015000D01*
X140227857Y-34015000D01*
X140085000Y-34086428D01*
X140013571Y-34157857D01*
X139942142Y-34300714D01*
X141370714Y-33586428D02*
X141442142Y-33515000D01*
X141585000Y-33443571D01*
X141942142Y-33443571D01*
X142085000Y-33515000D01*
X142156428Y-33586428D01*
X142227857Y-33729285D01*
X142227857Y-33872142D01*
X142156428Y-34086428D01*
X141299285Y-34943571D01*
X142227857Y-34943571D01*
X144013571Y-34943571D02*
X144013571Y-33943571D01*
X144013571Y-33443571D02*
X143942142Y-33515000D01*
X144013571Y-33586428D01*
X144085000Y-33515000D01*
X144013571Y-33443571D01*
X144013571Y-33586428D01*
X144727857Y-33943571D02*
X144727857Y-34943571D01*
X144727857Y-34086428D02*
X144799285Y-34015000D01*
X144942142Y-33943571D01*
X145156428Y-33943571D01*
X145299285Y-34015000D01*
X145370714Y-34157857D01*
X145370714Y-34943571D01*
X147727857Y-34157857D02*
X147227857Y-34157857D01*
X147227857Y-34943571D02*
X147227857Y-33443571D01*
X147942142Y-33443571D01*
X148513571Y-34943571D02*
X148513571Y-33943571D01*
X148513571Y-33443571D02*
X148442142Y-33515000D01*
X148513571Y-33586428D01*
X148585000Y-33515000D01*
X148513571Y-33443571D01*
X148513571Y-33586428D01*
X149227857Y-33943571D02*
X149227857Y-34943571D01*
X149227857Y-34086428D02*
X149299285Y-34015000D01*
X149442142Y-33943571D01*
X149656428Y-33943571D01*
X149799285Y-34015000D01*
X149870714Y-34157857D01*
X149870714Y-34943571D01*
X150585000Y-34943571D02*
X150585000Y-33943571D01*
X150585000Y-33443571D02*
X150513571Y-33515000D01*
X150585000Y-33586428D01*
X150656428Y-33515000D01*
X150585000Y-33443571D01*
X150585000Y-33586428D01*
X151227857Y-34872142D02*
X151370714Y-34943571D01*
X151656428Y-34943571D01*
X151799285Y-34872142D01*
X151870714Y-34729285D01*
X151870714Y-34657857D01*
X151799285Y-34515000D01*
X151656428Y-34443571D01*
X151442142Y-34443571D01*
X151299285Y-34372142D01*
X151227857Y-34229285D01*
X151227857Y-34157857D01*
X151299285Y-34015000D01*
X151442142Y-33943571D01*
X151656428Y-33943571D01*
X151799285Y-34015000D01*
X152513571Y-34943571D02*
X152513571Y-33443571D01*
X153156428Y-34943571D02*
X153156428Y-34157857D01*
X153085000Y-34015000D01*
X152942142Y-33943571D01*
X152727857Y-33943571D01*
X152585000Y-34015000D01*
X152513571Y-34086428D01*
X154442142Y-34872142D02*
X154299285Y-34943571D01*
X154013571Y-34943571D01*
X153870714Y-34872142D01*
X153799285Y-34729285D01*
X153799285Y-34157857D01*
X153870714Y-34015000D01*
X154013571Y-33943571D01*
X154299285Y-33943571D01*
X154442142Y-34015000D01*
X154513571Y-34157857D01*
X154513571Y-34300714D01*
X153799285Y-34443571D01*
X155799285Y-34943571D02*
X155799285Y-33443571D01*
X155799285Y-34872142D02*
X155656428Y-34943571D01*
X155370714Y-34943571D01*
X155227857Y-34872142D01*
X155156428Y-34800714D01*
X155085000Y-34657857D01*
X155085000Y-34229285D01*
X155156428Y-34086428D01*
X155227857Y-34015000D01*
X155370714Y-33943571D01*
X155656428Y-33943571D01*
X155799285Y-34015000D01*
X157442142Y-33943571D02*
X158013571Y-33943571D01*
X157656428Y-33443571D02*
X157656428Y-34729285D01*
X157727857Y-34872142D01*
X157870714Y-34943571D01*
X158013571Y-34943571D01*
X158513571Y-34943571D02*
X158513571Y-33443571D01*
X159156428Y-34943571D02*
X159156428Y-34157857D01*
X159085000Y-34015000D01*
X158942142Y-33943571D01*
X158727857Y-33943571D01*
X158585000Y-34015000D01*
X158513571Y-34086428D01*
X159870714Y-34943571D02*
X159870714Y-33943571D01*
X159870714Y-33443571D02*
X159799285Y-33515000D01*
X159870714Y-33586428D01*
X159942142Y-33515000D01*
X159870714Y-33443571D01*
X159870714Y-33586428D01*
X161227857Y-34872142D02*
X161085000Y-34943571D01*
X160799285Y-34943571D01*
X160656428Y-34872142D01*
X160585000Y-34800714D01*
X160513571Y-34657857D01*
X160513571Y-34229285D01*
X160585000Y-34086428D01*
X160656428Y-34015000D01*
X160799285Y-33943571D01*
X161085000Y-33943571D01*
X161227857Y-34015000D01*
X161870714Y-34943571D02*
X161870714Y-33443571D01*
X162013571Y-34372142D02*
X162442142Y-34943571D01*
X162442142Y-33943571D02*
X161870714Y-34515000D01*
X163085000Y-33943571D02*
X163085000Y-34943571D01*
X163085000Y-34086428D02*
X163156428Y-34015000D01*
X163299285Y-33943571D01*
X163513571Y-33943571D01*
X163656428Y-34015000D01*
X163727857Y-34157857D01*
X163727857Y-34943571D01*
X165013571Y-34872142D02*
X164870714Y-34943571D01*
X164585000Y-34943571D01*
X164442142Y-34872142D01*
X164370714Y-34729285D01*
X164370714Y-34157857D01*
X164442142Y-34015000D01*
X164585000Y-33943571D01*
X164870714Y-33943571D01*
X165013571Y-34015000D01*
X165085000Y-34157857D01*
X165085000Y-34300714D01*
X164370714Y-34443571D01*
X165656428Y-34872142D02*
X165799285Y-34943571D01*
X166085000Y-34943571D01*
X166227857Y-34872142D01*
X166299285Y-34729285D01*
X166299285Y-34657857D01*
X166227857Y-34515000D01*
X166085000Y-34443571D01*
X165870714Y-34443571D01*
X165727857Y-34372142D01*
X165656428Y-34229285D01*
X165656428Y-34157857D01*
X165727857Y-34015000D01*
X165870714Y-33943571D01*
X166085000Y-33943571D01*
X166227857Y-34015000D01*
X166870714Y-34872142D02*
X167013571Y-34943571D01*
X167299285Y-34943571D01*
X167442142Y-34872142D01*
X167513571Y-34729285D01*
X167513571Y-34657857D01*
X167442142Y-34515000D01*
X167299285Y-34443571D01*
X167085000Y-34443571D01*
X166942142Y-34372142D01*
X166870714Y-34229285D01*
X166870714Y-34157857D01*
X166942142Y-34015000D01*
X167085000Y-33943571D01*
X167299285Y-33943571D01*
X167442142Y-34015000D01*
X137227857Y-37493571D02*
X136370714Y-37493571D01*
X136799285Y-37493571D02*
X136799285Y-35993571D01*
X136656428Y-36207857D01*
X136513571Y-36350714D01*
X136370714Y-36422142D01*
X137870714Y-37350714D02*
X137942142Y-37422142D01*
X137870714Y-37493571D01*
X137799285Y-37422142D01*
X137870714Y-37350714D01*
X137870714Y-37493571D01*
X138870714Y-35993571D02*
X139013571Y-35993571D01*
X139156428Y-36065000D01*
X139227857Y-36136428D01*
X139299285Y-36279285D01*
X139370714Y-36565000D01*
X139370714Y-36922142D01*
X139299285Y-37207857D01*
X139227857Y-37350714D01*
X139156428Y-37422142D01*
X139013571Y-37493571D01*
X138870714Y-37493571D01*
X138727857Y-37422142D01*
X138656428Y-37350714D01*
X138585000Y-37207857D01*
X138513571Y-36922142D01*
X138513571Y-36565000D01*
X138585000Y-36279285D01*
X138656428Y-36136428D01*
X138727857Y-36065000D01*
X138870714Y-35993571D01*
X141370714Y-37493571D02*
X141227857Y-37422142D01*
X141156428Y-37350714D01*
X141085000Y-37207857D01*
X141085000Y-36779285D01*
X141156428Y-36636428D01*
X141227857Y-36565000D01*
X141370714Y-36493571D01*
X141585000Y-36493571D01*
X141727857Y-36565000D01*
X141799285Y-36636428D01*
X141870714Y-36779285D01*
X141870714Y-37207857D01*
X141799285Y-37350714D01*
X141727857Y-37422142D01*
X141585000Y-37493571D01*
X141370714Y-37493571D01*
X142370714Y-36493571D02*
X143156428Y-36493571D01*
X142370714Y-37493571D01*
X143156428Y-37493571D01*
X145727857Y-37350714D02*
X145656428Y-37422142D01*
X145442142Y-37493571D01*
X145299285Y-37493571D01*
X145085000Y-37422142D01*
X144942142Y-37279285D01*
X144870714Y-37136428D01*
X144799285Y-36850714D01*
X144799285Y-36636428D01*
X144870714Y-36350714D01*
X144942142Y-36207857D01*
X145085000Y-36065000D01*
X145299285Y-35993571D01*
X145442142Y-35993571D01*
X145656428Y-36065000D01*
X145727857Y-36136428D01*
X147013571Y-36493571D02*
X147013571Y-37493571D01*
X146370714Y-36493571D02*
X146370714Y-37279285D01*
X146442142Y-37422142D01*
X146585000Y-37493571D01*
X146799285Y-37493571D01*
X146942142Y-37422142D01*
X147013571Y-37350714D01*
X149085000Y-37493571D02*
X148942142Y-37422142D01*
X148870714Y-37350714D01*
X148799285Y-37207857D01*
X148799285Y-36779285D01*
X148870714Y-36636428D01*
X148942142Y-36565000D01*
X149085000Y-36493571D01*
X149299285Y-36493571D01*
X149442142Y-36565000D01*
X149513571Y-36636428D01*
X149585000Y-36779285D01*
X149585000Y-37207857D01*
X149513571Y-37350714D01*
X149442142Y-37422142D01*
X149299285Y-37493571D01*
X149085000Y-37493571D01*
X150227857Y-36493571D02*
X150227857Y-37493571D01*
X150227857Y-36636428D02*
X150299285Y-36565000D01*
X150442142Y-36493571D01*
X150656428Y-36493571D01*
X150799285Y-36565000D01*
X150870714Y-36707857D01*
X150870714Y-37493571D01*
X152942142Y-37493571D02*
X152799285Y-37422142D01*
X152727857Y-37350714D01*
X152656428Y-37207857D01*
X152656428Y-36779285D01*
X152727857Y-36636428D01*
X152799285Y-36565000D01*
X152942142Y-36493571D01*
X153156428Y-36493571D01*
X153299285Y-36565000D01*
X153370714Y-36636428D01*
X153442142Y-36779285D01*
X153442142Y-37207857D01*
X153370714Y-37350714D01*
X153299285Y-37422142D01*
X153156428Y-37493571D01*
X152942142Y-37493571D01*
X154727857Y-36493571D02*
X154727857Y-37493571D01*
X154085000Y-36493571D02*
X154085000Y-37279285D01*
X154156428Y-37422142D01*
X154299285Y-37493571D01*
X154513571Y-37493571D01*
X154656428Y-37422142D01*
X154727857Y-37350714D01*
X155227857Y-36493571D02*
X155799285Y-36493571D01*
X155442142Y-35993571D02*
X155442142Y-37279285D01*
X155513571Y-37422142D01*
X155656428Y-37493571D01*
X155799285Y-37493571D01*
X156870714Y-37422142D02*
X156727857Y-37493571D01*
X156442142Y-37493571D01*
X156299285Y-37422142D01*
X156227857Y-37279285D01*
X156227857Y-36707857D01*
X156299285Y-36565000D01*
X156442142Y-36493571D01*
X156727857Y-36493571D01*
X156870714Y-36565000D01*
X156942142Y-36707857D01*
X156942142Y-36850714D01*
X156227857Y-36993571D01*
X157585000Y-37493571D02*
X157585000Y-36493571D01*
X157585000Y-36779285D02*
X157656428Y-36636428D01*
X157727857Y-36565000D01*
X157870714Y-36493571D01*
X158013571Y-36493571D01*
X160370714Y-37493571D02*
X159656428Y-37493571D01*
X159656428Y-35993571D01*
X161513571Y-37493571D02*
X161513571Y-36707857D01*
X161442142Y-36565000D01*
X161299285Y-36493571D01*
X161013571Y-36493571D01*
X160870714Y-36565000D01*
X161513571Y-37422142D02*
X161370714Y-37493571D01*
X161013571Y-37493571D01*
X160870714Y-37422142D01*
X160799285Y-37279285D01*
X160799285Y-37136428D01*
X160870714Y-36993571D01*
X161013571Y-36922142D01*
X161370714Y-36922142D01*
X161513571Y-36850714D01*
X162085000Y-36493571D02*
X162442142Y-37493571D01*
X162799285Y-36493571D02*
X162442142Y-37493571D01*
X162299285Y-37850714D01*
X162227857Y-37922142D01*
X162085000Y-37993571D01*
X163942142Y-37422142D02*
X163799285Y-37493571D01*
X163513571Y-37493571D01*
X163370714Y-37422142D01*
X163299285Y-37279285D01*
X163299285Y-36707857D01*
X163370714Y-36565000D01*
X163513571Y-36493571D01*
X163799285Y-36493571D01*
X163942142Y-36565000D01*
X164013571Y-36707857D01*
X164013571Y-36850714D01*
X163299285Y-36993571D01*
X164656428Y-37493571D02*
X164656428Y-36493571D01*
X164656428Y-36779285D02*
X164727857Y-36636428D01*
X164799285Y-36565000D01*
X164942142Y-36493571D01*
X165085000Y-36493571D01*
X165513571Y-37422142D02*
X165656428Y-37493571D01*
X165942142Y-37493571D01*
X166085000Y-37422142D01*
X166156428Y-37279285D01*
X166156428Y-37207857D01*
X166085000Y-37065000D01*
X165942142Y-36993571D01*
X165727857Y-36993571D01*
X165585000Y-36922142D01*
X165513571Y-36779285D01*
X165513571Y-36707857D01*
X165585000Y-36565000D01*
X165727857Y-36493571D01*
X165942142Y-36493571D01*
X166085000Y-36565000D01*
X136727857Y-38543571D02*
X136870714Y-38543571D01*
X137013571Y-38615000D01*
X137085000Y-38686428D01*
X137156428Y-38829285D01*
X137227857Y-39115000D01*
X137227857Y-39472142D01*
X137156428Y-39757857D01*
X137085000Y-39900714D01*
X137013571Y-39972142D01*
X136870714Y-40043571D01*
X136727857Y-40043571D01*
X136585000Y-39972142D01*
X136513571Y-39900714D01*
X136442142Y-39757857D01*
X136370714Y-39472142D01*
X136370714Y-39115000D01*
X136442142Y-38829285D01*
X136513571Y-38686428D01*
X136585000Y-38615000D01*
X136727857Y-38543571D01*
X137870714Y-39900714D02*
X137942142Y-39972142D01*
X137870714Y-40043571D01*
X137799285Y-39972142D01*
X137870714Y-39900714D01*
X137870714Y-40043571D01*
X139299285Y-38543571D02*
X138585000Y-38543571D01*
X138513571Y-39257857D01*
X138585000Y-39186428D01*
X138727857Y-39115000D01*
X139085000Y-39115000D01*
X139227857Y-39186428D01*
X139299285Y-39257857D01*
X139370714Y-39400714D01*
X139370714Y-39757857D01*
X139299285Y-39900714D01*
X139227857Y-39972142D01*
X139085000Y-40043571D01*
X138727857Y-40043571D01*
X138585000Y-39972142D01*
X138513571Y-39900714D01*
X141370714Y-40043571D02*
X141227857Y-39972142D01*
X141156428Y-39900714D01*
X141085000Y-39757857D01*
X141085000Y-39329285D01*
X141156428Y-39186428D01*
X141227857Y-39115000D01*
X141370714Y-39043571D01*
X141585000Y-39043571D01*
X141727857Y-39115000D01*
X141799285Y-39186428D01*
X141870714Y-39329285D01*
X141870714Y-39757857D01*
X141799285Y-39900714D01*
X141727857Y-39972142D01*
X141585000Y-40043571D01*
X141370714Y-40043571D01*
X142370714Y-39043571D02*
X143156428Y-39043571D01*
X142370714Y-40043571D01*
X143156428Y-40043571D01*
X145727857Y-39900714D02*
X145656428Y-39972142D01*
X145442142Y-40043571D01*
X145299285Y-40043571D01*
X145085000Y-39972142D01*
X144942142Y-39829285D01*
X144870714Y-39686428D01*
X144799285Y-39400714D01*
X144799285Y-39186428D01*
X144870714Y-38900714D01*
X144942142Y-38757857D01*
X145085000Y-38615000D01*
X145299285Y-38543571D01*
X145442142Y-38543571D01*
X145656428Y-38615000D01*
X145727857Y-38686428D01*
X147013571Y-39043571D02*
X147013571Y-40043571D01*
X146370714Y-39043571D02*
X146370714Y-39829285D01*
X146442142Y-39972142D01*
X146585000Y-40043571D01*
X146799285Y-40043571D01*
X146942142Y-39972142D01*
X147013571Y-39900714D01*
X149085000Y-40043571D02*
X148942142Y-39972142D01*
X148870714Y-39900714D01*
X148799285Y-39757857D01*
X148799285Y-39329285D01*
X148870714Y-39186428D01*
X148942142Y-39115000D01*
X149085000Y-39043571D01*
X149299285Y-39043571D01*
X149442142Y-39115000D01*
X149513571Y-39186428D01*
X149585000Y-39329285D01*
X149585000Y-39757857D01*
X149513571Y-39900714D01*
X149442142Y-39972142D01*
X149299285Y-40043571D01*
X149085000Y-40043571D01*
X150227857Y-39043571D02*
X150227857Y-40043571D01*
X150227857Y-39186428D02*
X150299285Y-39115000D01*
X150442142Y-39043571D01*
X150656428Y-39043571D01*
X150799285Y-39115000D01*
X150870714Y-39257857D01*
X150870714Y-40043571D01*
X152727857Y-40043571D02*
X152727857Y-39043571D01*
X152727857Y-38543571D02*
X152656428Y-38615000D01*
X152727857Y-38686428D01*
X152799285Y-38615000D01*
X152727857Y-38543571D01*
X152727857Y-38686428D01*
X153442142Y-39043571D02*
X153442142Y-40043571D01*
X153442142Y-39186428D02*
X153513571Y-39115000D01*
X153656428Y-39043571D01*
X153870714Y-39043571D01*
X154013571Y-39115000D01*
X154085000Y-39257857D01*
X154085000Y-40043571D01*
X154799285Y-39043571D02*
X154799285Y-40043571D01*
X154799285Y-39186428D02*
X154870714Y-39115000D01*
X155013571Y-39043571D01*
X155227857Y-39043571D01*
X155370714Y-39115000D01*
X155442142Y-39257857D01*
X155442142Y-40043571D01*
X156727857Y-39972142D02*
X156585000Y-40043571D01*
X156299285Y-40043571D01*
X156156428Y-39972142D01*
X156085000Y-39829285D01*
X156085000Y-39257857D01*
X156156428Y-39115000D01*
X156299285Y-39043571D01*
X156585000Y-39043571D01*
X156727857Y-39115000D01*
X156799285Y-39257857D01*
X156799285Y-39400714D01*
X156085000Y-39543571D01*
X157442142Y-40043571D02*
X157442142Y-39043571D01*
X157442142Y-39329285D02*
X157513571Y-39186428D01*
X157585000Y-39115000D01*
X157727857Y-39043571D01*
X157870714Y-39043571D01*
X160227857Y-40043571D02*
X159513571Y-40043571D01*
X159513571Y-38543571D01*
X161370714Y-40043571D02*
X161370714Y-39257857D01*
X161299285Y-39115000D01*
X161156428Y-39043571D01*
X160870714Y-39043571D01*
X160727857Y-39115000D01*
X161370714Y-39972142D02*
X161227857Y-40043571D01*
X160870714Y-40043571D01*
X160727857Y-39972142D01*
X160656428Y-39829285D01*
X160656428Y-39686428D01*
X160727857Y-39543571D01*
X160870714Y-39472142D01*
X161227857Y-39472142D01*
X161370714Y-39400714D01*
X161942142Y-39043571D02*
X162299285Y-40043571D01*
X162656428Y-39043571D02*
X162299285Y-40043571D01*
X162156428Y-40400714D01*
X162085000Y-40472142D01*
X161942142Y-40543571D01*
X163799285Y-39972142D02*
X163656428Y-40043571D01*
X163370714Y-40043571D01*
X163227857Y-39972142D01*
X163156428Y-39829285D01*
X163156428Y-39257857D01*
X163227857Y-39115000D01*
X163370714Y-39043571D01*
X163656428Y-39043571D01*
X163799285Y-39115000D01*
X163870714Y-39257857D01*
X163870714Y-39400714D01*
X163156428Y-39543571D01*
X164513571Y-40043571D02*
X164513571Y-39043571D01*
X164513571Y-39329285D02*
X164585000Y-39186428D01*
X164656428Y-39115000D01*
X164799285Y-39043571D01*
X164942142Y-39043571D01*
X165370714Y-39972142D02*
X165513571Y-40043571D01*
X165799285Y-40043571D01*
X165942142Y-39972142D01*
X166013571Y-39829285D01*
X166013571Y-39757857D01*
X165942142Y-39615000D01*
X165799285Y-39543571D01*
X165585000Y-39543571D01*
X165442142Y-39472142D01*
X165370714Y-39329285D01*
X165370714Y-39257857D01*
X165442142Y-39115000D01*
X165585000Y-39043571D01*
X165799285Y-39043571D01*
X165942142Y-39115000D01*
X137227857Y-41165000D02*
X137085000Y-41093571D01*
X136870714Y-41093571D01*
X136656428Y-41165000D01*
X136513571Y-41307857D01*
X136442142Y-41450714D01*
X136370714Y-41736428D01*
X136370714Y-41950714D01*
X136442142Y-42236428D01*
X136513571Y-42379285D01*
X136656428Y-42522142D01*
X136870714Y-42593571D01*
X137013571Y-42593571D01*
X137227857Y-42522142D01*
X137299285Y-42450714D01*
X137299285Y-41950714D01*
X137013571Y-41950714D01*
X137942142Y-42593571D02*
X137942142Y-41593571D01*
X137942142Y-41879285D02*
X138013571Y-41736428D01*
X138085000Y-41665000D01*
X138227857Y-41593571D01*
X138370714Y-41593571D01*
X139442142Y-42522142D02*
X139299285Y-42593571D01*
X139013571Y-42593571D01*
X138870714Y-42522142D01*
X138799285Y-42379285D01*
X138799285Y-41807857D01*
X138870714Y-41665000D01*
X139013571Y-41593571D01*
X139299285Y-41593571D01*
X139442142Y-41665000D01*
X139513571Y-41807857D01*
X139513571Y-41950714D01*
X138799285Y-42093571D01*
X140727857Y-42522142D02*
X140585000Y-42593571D01*
X140299285Y-42593571D01*
X140156428Y-42522142D01*
X140085000Y-42379285D01*
X140085000Y-41807857D01*
X140156428Y-41665000D01*
X140299285Y-41593571D01*
X140585000Y-41593571D01*
X140727857Y-41665000D01*
X140799285Y-41807857D01*
X140799285Y-41950714D01*
X140085000Y-42093571D01*
X141442142Y-41593571D02*
X141442142Y-42593571D01*
X141442142Y-41736428D02*
X141513571Y-41665000D01*
X141656428Y-41593571D01*
X141870714Y-41593571D01*
X142013571Y-41665000D01*
X142085000Y-41807857D01*
X142085000Y-42593571D01*
X143870714Y-42522142D02*
X144085000Y-42593571D01*
X144442142Y-42593571D01*
X144585000Y-42522142D01*
X144656428Y-42450714D01*
X144727857Y-42307857D01*
X144727857Y-42165000D01*
X144656428Y-42022142D01*
X144585000Y-41950714D01*
X144442142Y-41879285D01*
X144156428Y-41807857D01*
X144013571Y-41736428D01*
X143942142Y-41665000D01*
X143870714Y-41522142D01*
X143870714Y-41379285D01*
X143942142Y-41236428D01*
X144013571Y-41165000D01*
X144156428Y-41093571D01*
X144513571Y-41093571D01*
X144727857Y-41165000D01*
X145585000Y-42593571D02*
X145442142Y-42522142D01*
X145370714Y-42450714D01*
X145299285Y-42307857D01*
X145299285Y-41879285D01*
X145370714Y-41736428D01*
X145442142Y-41665000D01*
X145585000Y-41593571D01*
X145799285Y-41593571D01*
X145942142Y-41665000D01*
X146013571Y-41736428D01*
X146085000Y-41879285D01*
X146085000Y-42307857D01*
X146013571Y-42450714D01*
X145942142Y-42522142D01*
X145799285Y-42593571D01*
X145585000Y-42593571D01*
X146942142Y-42593571D02*
X146799285Y-42522142D01*
X146727857Y-42379285D01*
X146727857Y-41093571D01*
X148156428Y-42593571D02*
X148156428Y-41093571D01*
X148156428Y-42522142D02*
X148013571Y-42593571D01*
X147727857Y-42593571D01*
X147585000Y-42522142D01*
X147513571Y-42450714D01*
X147442142Y-42307857D01*
X147442142Y-41879285D01*
X147513571Y-41736428D01*
X147585000Y-41665000D01*
X147727857Y-41593571D01*
X148013571Y-41593571D01*
X148156428Y-41665000D01*
X149442142Y-42522142D02*
X149299285Y-42593571D01*
X149013571Y-42593571D01*
X148870714Y-42522142D01*
X148799285Y-42379285D01*
X148799285Y-41807857D01*
X148870714Y-41665000D01*
X149013571Y-41593571D01*
X149299285Y-41593571D01*
X149442142Y-41665000D01*
X149513571Y-41807857D01*
X149513571Y-41950714D01*
X148799285Y-42093571D01*
X150156428Y-42593571D02*
X150156428Y-41593571D01*
X150156428Y-41879285D02*
X150227857Y-41736428D01*
X150299285Y-41665000D01*
X150442142Y-41593571D01*
X150585000Y-41593571D01*
X152227857Y-42593571D02*
X152227857Y-41093571D01*
X152727857Y-42165000D01*
X153227857Y-41093571D01*
X153227857Y-42593571D01*
X154585000Y-42593571D02*
X154585000Y-41807857D01*
X154513571Y-41665000D01*
X154370714Y-41593571D01*
X154085000Y-41593571D01*
X153942142Y-41665000D01*
X154585000Y-42522142D02*
X154442142Y-42593571D01*
X154085000Y-42593571D01*
X153942142Y-42522142D01*
X153870714Y-42379285D01*
X153870714Y-42236428D01*
X153942142Y-42093571D01*
X154085000Y-42022142D01*
X154442142Y-42022142D01*
X154585000Y-41950714D01*
X155227857Y-42522142D02*
X155370714Y-42593571D01*
X155656428Y-42593571D01*
X155799285Y-42522142D01*
X155870714Y-42379285D01*
X155870714Y-42307857D01*
X155799285Y-42165000D01*
X155656428Y-42093571D01*
X155442142Y-42093571D01*
X155299285Y-42022142D01*
X155227857Y-41879285D01*
X155227857Y-41807857D01*
X155299285Y-41665000D01*
X155442142Y-41593571D01*
X155656428Y-41593571D01*
X155799285Y-41665000D01*
X156513571Y-42593571D02*
X156513571Y-41093571D01*
X156656428Y-42022142D02*
X157085000Y-42593571D01*
X157085000Y-41593571D02*
X156513571Y-42165000D01*
X159370714Y-41807857D02*
X159585000Y-41879285D01*
X159656428Y-41950714D01*
X159727857Y-42093571D01*
X159727857Y-42307857D01*
X159656428Y-42450714D01*
X159585000Y-42522142D01*
X159442142Y-42593571D01*
X158870714Y-42593571D01*
X158870714Y-41093571D01*
X159370714Y-41093571D01*
X159513571Y-41165000D01*
X159585000Y-41236428D01*
X159656428Y-41379285D01*
X159656428Y-41522142D01*
X159585000Y-41665000D01*
X159513571Y-41736428D01*
X159370714Y-41807857D01*
X158870714Y-41807857D01*
X160585000Y-42593571D02*
X160442142Y-42522142D01*
X160370714Y-42450714D01*
X160299285Y-42307857D01*
X160299285Y-41879285D01*
X160370714Y-41736428D01*
X160442142Y-41665000D01*
X160585000Y-41593571D01*
X160799285Y-41593571D01*
X160942142Y-41665000D01*
X161013571Y-41736428D01*
X161085000Y-41879285D01*
X161085000Y-42307857D01*
X161013571Y-42450714D01*
X160942142Y-42522142D01*
X160799285Y-42593571D01*
X160585000Y-42593571D01*
X161513571Y-41593571D02*
X162085000Y-41593571D01*
X161727857Y-41093571D02*
X161727857Y-42379285D01*
X161799285Y-42522142D01*
X161942142Y-42593571D01*
X162085000Y-42593571D01*
X162585000Y-42593571D02*
X162585000Y-41093571D01*
X163227857Y-42593571D02*
X163227857Y-41807857D01*
X163156428Y-41665000D01*
X163013571Y-41593571D01*
X162799285Y-41593571D01*
X162656428Y-41665000D01*
X162585000Y-41736428D01*
X165013571Y-42522142D02*
X165227857Y-42593571D01*
X165585000Y-42593571D01*
X165727857Y-42522142D01*
X165799285Y-42450714D01*
X165870714Y-42307857D01*
X165870714Y-42165000D01*
X165799285Y-42022142D01*
X165727857Y-41950714D01*
X165585000Y-41879285D01*
X165299285Y-41807857D01*
X165156428Y-41736428D01*
X165085000Y-41665000D01*
X165013571Y-41522142D01*
X165013571Y-41379285D01*
X165085000Y-41236428D01*
X165156428Y-41165000D01*
X165299285Y-41093571D01*
X165656428Y-41093571D01*
X165870714Y-41165000D01*
X166513571Y-42593571D02*
X166513571Y-41593571D01*
X166513571Y-41093571D02*
X166442142Y-41165000D01*
X166513571Y-41236428D01*
X166585000Y-41165000D01*
X166513571Y-41093571D01*
X166513571Y-41236428D01*
X167870714Y-42593571D02*
X167870714Y-41093571D01*
X167870714Y-42522142D02*
X167727857Y-42593571D01*
X167442142Y-42593571D01*
X167299285Y-42522142D01*
X167227857Y-42450714D01*
X167156428Y-42307857D01*
X167156428Y-41879285D01*
X167227857Y-41736428D01*
X167299285Y-41665000D01*
X167442142Y-41593571D01*
X167727857Y-41593571D01*
X167870714Y-41665000D01*
X169156428Y-42522142D02*
X169013571Y-42593571D01*
X168727857Y-42593571D01*
X168585000Y-42522142D01*
X168513571Y-42379285D01*
X168513571Y-41807857D01*
X168585000Y-41665000D01*
X168727857Y-41593571D01*
X169013571Y-41593571D01*
X169156428Y-41665000D01*
X169227857Y-41807857D01*
X169227857Y-41950714D01*
X168513571Y-42093571D01*
X169799285Y-42522142D02*
X169942142Y-42593571D01*
X170227857Y-42593571D01*
X170370714Y-42522142D01*
X170442142Y-42379285D01*
X170442142Y-42307857D01*
X170370714Y-42165000D01*
X170227857Y-42093571D01*
X170013571Y-42093571D01*
X169870714Y-42022142D01*
X169799285Y-41879285D01*
X169799285Y-41807857D01*
X169870714Y-41665000D01*
X170013571Y-41593571D01*
X170227857Y-41593571D01*
X170370714Y-41665000D01*
X136299285Y-43643571D02*
X136656428Y-45143571D01*
X136942142Y-44072142D01*
X137227857Y-45143571D01*
X137585000Y-43643571D01*
X138156428Y-45143571D02*
X138156428Y-43643571D01*
X138799285Y-45143571D02*
X138799285Y-44357857D01*
X138727857Y-44215000D01*
X138585000Y-44143571D01*
X138370714Y-44143571D01*
X138227857Y-44215000D01*
X138156428Y-44286428D01*
X139513571Y-45143571D02*
X139513571Y-44143571D01*
X139513571Y-43643571D02*
X139442142Y-43715000D01*
X139513571Y-43786428D01*
X139585000Y-43715000D01*
X139513571Y-43643571D01*
X139513571Y-43786428D01*
X140013571Y-44143571D02*
X140585000Y-44143571D01*
X140227857Y-43643571D02*
X140227857Y-44929285D01*
X140299285Y-45072142D01*
X140442142Y-45143571D01*
X140585000Y-45143571D01*
X141656428Y-45072142D02*
X141513571Y-45143571D01*
X141227857Y-45143571D01*
X141085000Y-45072142D01*
X141013571Y-44929285D01*
X141013571Y-44357857D01*
X141085000Y-44215000D01*
X141227857Y-44143571D01*
X141513571Y-44143571D01*
X141656428Y-44215000D01*
X141727857Y-44357857D01*
X141727857Y-44500714D01*
X141013571Y-44643571D01*
X143442142Y-45072142D02*
X143656428Y-45143571D01*
X144013571Y-45143571D01*
X144156428Y-45072142D01*
X144227857Y-45000714D01*
X144299285Y-44857857D01*
X144299285Y-44715000D01*
X144227857Y-44572142D01*
X144156428Y-44500714D01*
X144013571Y-44429285D01*
X143727857Y-44357857D01*
X143585000Y-44286428D01*
X143513571Y-44215000D01*
X143442142Y-44072142D01*
X143442142Y-43929285D01*
X143513571Y-43786428D01*
X143585000Y-43715000D01*
X143727857Y-43643571D01*
X144085000Y-43643571D01*
X144299285Y-43715000D01*
X144942142Y-45143571D02*
X144942142Y-44143571D01*
X144942142Y-43643571D02*
X144870714Y-43715000D01*
X144942142Y-43786428D01*
X145013571Y-43715000D01*
X144942142Y-43643571D01*
X144942142Y-43786428D01*
X145870714Y-45143571D02*
X145727857Y-45072142D01*
X145656428Y-44929285D01*
X145656428Y-43643571D01*
X146442142Y-45143571D02*
X146442142Y-43643571D01*
X146585000Y-44572142D02*
X147013571Y-45143571D01*
X147013571Y-44143571D02*
X146442142Y-44715000D01*
X147585000Y-45072142D02*
X147727857Y-45143571D01*
X148013571Y-45143571D01*
X148156428Y-45072142D01*
X148227857Y-44929285D01*
X148227857Y-44857857D01*
X148156428Y-44715000D01*
X148013571Y-44643571D01*
X147799285Y-44643571D01*
X147656428Y-44572142D01*
X147585000Y-44429285D01*
X147585000Y-44357857D01*
X147656428Y-44215000D01*
X147799285Y-44143571D01*
X148013571Y-44143571D01*
X148156428Y-44215000D01*
X149513571Y-45072142D02*
X149370714Y-45143571D01*
X149085000Y-45143571D01*
X148942142Y-45072142D01*
X148870714Y-45000714D01*
X148799285Y-44857857D01*
X148799285Y-44429285D01*
X148870714Y-44286428D01*
X148942142Y-44215000D01*
X149085000Y-44143571D01*
X149370714Y-44143571D01*
X149513571Y-44215000D01*
X150156428Y-45143571D02*
X150156428Y-44143571D01*
X150156428Y-44429285D02*
X150227857Y-44286428D01*
X150299285Y-44215000D01*
X150442142Y-44143571D01*
X150585000Y-44143571D01*
X151656428Y-45072142D02*
X151513571Y-45143571D01*
X151227857Y-45143571D01*
X151085000Y-45072142D01*
X151013571Y-44929285D01*
X151013571Y-44357857D01*
X151085000Y-44215000D01*
X151227857Y-44143571D01*
X151513571Y-44143571D01*
X151656428Y-44215000D01*
X151727857Y-44357857D01*
X151727857Y-44500714D01*
X151013571Y-44643571D01*
X152942142Y-45072142D02*
X152799285Y-45143571D01*
X152513571Y-45143571D01*
X152370714Y-45072142D01*
X152299285Y-44929285D01*
X152299285Y-44357857D01*
X152370714Y-44215000D01*
X152513571Y-44143571D01*
X152799285Y-44143571D01*
X152942142Y-44215000D01*
X153013571Y-44357857D01*
X153013571Y-44500714D01*
X152299285Y-44643571D01*
X153656428Y-44143571D02*
X153656428Y-45143571D01*
X153656428Y-44286428D02*
X153727857Y-44215000D01*
X153870714Y-44143571D01*
X154085000Y-44143571D01*
X154227857Y-44215000D01*
X154299285Y-44357857D01*
X154299285Y-45143571D01*
X156656428Y-44357857D02*
X156870714Y-44429285D01*
X156942142Y-44500714D01*
X157013571Y-44643571D01*
X157013571Y-44857857D01*
X156942142Y-45000714D01*
X156870714Y-45072142D01*
X156727857Y-45143571D01*
X156156428Y-45143571D01*
X156156428Y-43643571D01*
X156656428Y-43643571D01*
X156799285Y-43715000D01*
X156870714Y-43786428D01*
X156942142Y-43929285D01*
X156942142Y-44072142D01*
X156870714Y-44215000D01*
X156799285Y-44286428D01*
X156656428Y-44357857D01*
X156156428Y-44357857D01*
X157870714Y-45143571D02*
X157727857Y-45072142D01*
X157656428Y-45000714D01*
X157585000Y-44857857D01*
X157585000Y-44429285D01*
X157656428Y-44286428D01*
X157727857Y-44215000D01*
X157870714Y-44143571D01*
X158085000Y-44143571D01*
X158227857Y-44215000D01*
X158299285Y-44286428D01*
X158370714Y-44429285D01*
X158370714Y-44857857D01*
X158299285Y-45000714D01*
X158227857Y-45072142D01*
X158085000Y-45143571D01*
X157870714Y-45143571D01*
X158799285Y-44143571D02*
X159370714Y-44143571D01*
X159013571Y-43643571D02*
X159013571Y-44929285D01*
X159085000Y-45072142D01*
X159227857Y-45143571D01*
X159370714Y-45143571D01*
X159870714Y-45143571D02*
X159870714Y-43643571D01*
X160513571Y-45143571D02*
X160513571Y-44357857D01*
X160442142Y-44215000D01*
X160299285Y-44143571D01*
X160085000Y-44143571D01*
X159942142Y-44215000D01*
X159870714Y-44286428D01*
X162299285Y-45072142D02*
X162513571Y-45143571D01*
X162870714Y-45143571D01*
X163013571Y-45072142D01*
X163085000Y-45000714D01*
X163156428Y-44857857D01*
X163156428Y-44715000D01*
X163085000Y-44572142D01*
X163013571Y-44500714D01*
X162870714Y-44429285D01*
X162585000Y-44357857D01*
X162442142Y-44286428D01*
X162370714Y-44215000D01*
X162299285Y-44072142D01*
X162299285Y-43929285D01*
X162370714Y-43786428D01*
X162442142Y-43715000D01*
X162585000Y-43643571D01*
X162942142Y-43643571D01*
X163156428Y-43715000D01*
X163799285Y-45143571D02*
X163799285Y-44143571D01*
X163799285Y-43643571D02*
X163727857Y-43715000D01*
X163799285Y-43786428D01*
X163870714Y-43715000D01*
X163799285Y-43643571D01*
X163799285Y-43786428D01*
X165156428Y-45143571D02*
X165156428Y-43643571D01*
X165156428Y-45072142D02*
X165013571Y-45143571D01*
X164727857Y-45143571D01*
X164585000Y-45072142D01*
X164513571Y-45000714D01*
X164442142Y-44857857D01*
X164442142Y-44429285D01*
X164513571Y-44286428D01*
X164585000Y-44215000D01*
X164727857Y-44143571D01*
X165013571Y-44143571D01*
X165156428Y-44215000D01*
X166442142Y-45072142D02*
X166299285Y-45143571D01*
X166013571Y-45143571D01*
X165870714Y-45072142D01*
X165799285Y-44929285D01*
X165799285Y-44357857D01*
X165870714Y-44215000D01*
X166013571Y-44143571D01*
X166299285Y-44143571D01*
X166442142Y-44215000D01*
X166513571Y-44357857D01*
X166513571Y-44500714D01*
X165799285Y-44643571D01*
X167085000Y-45072142D02*
X167227857Y-45143571D01*
X167513571Y-45143571D01*
X167656428Y-45072142D01*
X167727857Y-44929285D01*
X167727857Y-44857857D01*
X167656428Y-44715000D01*
X167513571Y-44643571D01*
X167299285Y-44643571D01*
X167156428Y-44572142D01*
X167085000Y-44429285D01*
X167085000Y-44357857D01*
X167156428Y-44215000D01*
X167299285Y-44143571D01*
X167513571Y-44143571D01*
X167656428Y-44215000D01*
X206188571Y-116398857D02*
X206188571Y-116256000D01*
X206260000Y-116113142D01*
X206331428Y-116041714D01*
X206474285Y-115970285D01*
X206760000Y-115898857D01*
X207117142Y-115898857D01*
X207402857Y-115970285D01*
X207545714Y-116041714D01*
X207617142Y-116113142D01*
X207688571Y-116256000D01*
X207688571Y-116398857D01*
X207617142Y-116541714D01*
X207545714Y-116613142D01*
X207402857Y-116684571D01*
X207117142Y-116756000D01*
X206760000Y-116756000D01*
X206474285Y-116684571D01*
X206331428Y-116613142D01*
X206260000Y-116541714D01*
X206188571Y-116398857D01*
X207545714Y-115256000D02*
X207617142Y-115184571D01*
X207688571Y-115256000D01*
X207617142Y-115327428D01*
X207545714Y-115256000D01*
X207688571Y-115256000D01*
X207688571Y-113756000D02*
X207688571Y-114613142D01*
X207688571Y-114184571D02*
X206188571Y-114184571D01*
X206402857Y-114327428D01*
X206545714Y-114470285D01*
X206617142Y-114613142D01*
X206188571Y-112827428D02*
X206188571Y-112684571D01*
X206260000Y-112541714D01*
X206331428Y-112470285D01*
X206474285Y-112398857D01*
X206760000Y-112327428D01*
X207117142Y-112327428D01*
X207402857Y-112398857D01*
X207545714Y-112470285D01*
X207617142Y-112541714D01*
X207688571Y-112684571D01*
X207688571Y-112827428D01*
X207617142Y-112970285D01*
X207545714Y-113041714D01*
X207402857Y-113113142D01*
X207117142Y-113184571D01*
X206760000Y-113184571D01*
X206474285Y-113113142D01*
X206331428Y-113041714D01*
X206260000Y-112970285D01*
X206188571Y-112827428D01*
X206188571Y-111398857D02*
X206188571Y-111256000D01*
X206260000Y-111113142D01*
X206331428Y-111041714D01*
X206474285Y-110970285D01*
X206760000Y-110898857D01*
X207117142Y-110898857D01*
X207402857Y-110970285D01*
X207545714Y-111041714D01*
X207617142Y-111113142D01*
X207688571Y-111256000D01*
X207688571Y-111398857D01*
X207617142Y-111541714D01*
X207545714Y-111613142D01*
X207402857Y-111684571D01*
X207117142Y-111756000D01*
X206760000Y-111756000D01*
X206474285Y-111684571D01*
X206331428Y-111613142D01*
X206260000Y-111541714D01*
X206188571Y-111398857D01*
X206188571Y-109970285D02*
X206188571Y-109827428D01*
X206260000Y-109684571D01*
X206331428Y-109613142D01*
X206474285Y-109541714D01*
X206760000Y-109470285D01*
X207117142Y-109470285D01*
X207402857Y-109541714D01*
X207545714Y-109613142D01*
X207617142Y-109684571D01*
X207688571Y-109827428D01*
X207688571Y-109970285D01*
X207617142Y-110113142D01*
X207545714Y-110184571D01*
X207402857Y-110256000D01*
X207117142Y-110327428D01*
X206760000Y-110327428D01*
X206474285Y-110256000D01*
X206331428Y-110184571D01*
X206260000Y-110113142D01*
X206188571Y-109970285D01*
X207688571Y-107684571D02*
X206688571Y-107684571D01*
X206188571Y-107684571D02*
X206260000Y-107756000D01*
X206331428Y-107684571D01*
X206260000Y-107613142D01*
X206188571Y-107684571D01*
X206331428Y-107684571D01*
X206688571Y-106970285D02*
X207688571Y-106970285D01*
X206831428Y-106970285D02*
X206760000Y-106898857D01*
X206688571Y-106756000D01*
X206688571Y-106541714D01*
X206760000Y-106398857D01*
X206902857Y-106327428D01*
X207688571Y-106327428D01*
X207010000Y-120396000D02*
X207010000Y-117856000D01*
X205740000Y-120396000D02*
X209710000Y-120396000D01*
X205740000Y-117856000D02*
X209710000Y-117856000D01*
X207010000Y-117856000D02*
X207596421Y-118982504D01*
X207010000Y-117856000D02*
X206423579Y-118982504D01*
X207010000Y-120396000D02*
X207596421Y-119269496D01*
X207010000Y-120396000D02*
X206423579Y-119269496D01*
X209744571Y-116398857D02*
X209744571Y-116256000D01*
X209816000Y-116113142D01*
X209887428Y-116041714D01*
X210030285Y-115970285D01*
X210316000Y-115898857D01*
X210673142Y-115898857D01*
X210958857Y-115970285D01*
X211101714Y-116041714D01*
X211173142Y-116113142D01*
X211244571Y-116256000D01*
X211244571Y-116398857D01*
X211173142Y-116541714D01*
X211101714Y-116613142D01*
X210958857Y-116684571D01*
X210673142Y-116756000D01*
X210316000Y-116756000D01*
X210030285Y-116684571D01*
X209887428Y-116613142D01*
X209816000Y-116541714D01*
X209744571Y-116398857D01*
X211101714Y-115256000D02*
X211173142Y-115184571D01*
X211244571Y-115256000D01*
X211173142Y-115327428D01*
X211101714Y-115256000D01*
X211244571Y-115256000D01*
X211244571Y-113756000D02*
X211244571Y-114613142D01*
X211244571Y-114184571D02*
X209744571Y-114184571D01*
X209958857Y-114327428D01*
X210101714Y-114470285D01*
X210173142Y-114613142D01*
X209744571Y-112398857D02*
X209744571Y-113113142D01*
X210458857Y-113184571D01*
X210387428Y-113113142D01*
X210316000Y-112970285D01*
X210316000Y-112613142D01*
X210387428Y-112470285D01*
X210458857Y-112398857D01*
X210601714Y-112327428D01*
X210958857Y-112327428D01*
X211101714Y-112398857D01*
X211173142Y-112470285D01*
X211244571Y-112613142D01*
X211244571Y-112970285D01*
X211173142Y-113113142D01*
X211101714Y-113184571D01*
X209744571Y-111398857D02*
X209744571Y-111256000D01*
X209816000Y-111113142D01*
X209887428Y-111041714D01*
X210030285Y-110970285D01*
X210316000Y-110898857D01*
X210673142Y-110898857D01*
X210958857Y-110970285D01*
X211101714Y-111041714D01*
X211173142Y-111113142D01*
X211244571Y-111256000D01*
X211244571Y-111398857D01*
X211173142Y-111541714D01*
X211101714Y-111613142D01*
X210958857Y-111684571D01*
X210673142Y-111756000D01*
X210316000Y-111756000D01*
X210030285Y-111684571D01*
X209887428Y-111613142D01*
X209816000Y-111541714D01*
X209744571Y-111398857D01*
X209744571Y-109970285D02*
X209744571Y-109827428D01*
X209816000Y-109684571D01*
X209887428Y-109613142D01*
X210030285Y-109541714D01*
X210316000Y-109470285D01*
X210673142Y-109470285D01*
X210958857Y-109541714D01*
X211101714Y-109613142D01*
X211173142Y-109684571D01*
X211244571Y-109827428D01*
X211244571Y-109970285D01*
X211173142Y-110113142D01*
X211101714Y-110184571D01*
X210958857Y-110256000D01*
X210673142Y-110327428D01*
X210316000Y-110327428D01*
X210030285Y-110256000D01*
X209887428Y-110184571D01*
X209816000Y-110113142D01*
X209744571Y-109970285D01*
X211244571Y-107684571D02*
X210244571Y-107684571D01*
X209744571Y-107684571D02*
X209816000Y-107756000D01*
X209887428Y-107684571D01*
X209816000Y-107613142D01*
X209744571Y-107684571D01*
X209887428Y-107684571D01*
X210244571Y-106970285D02*
X211244571Y-106970285D01*
X210387428Y-106970285D02*
X210316000Y-106898857D01*
X210244571Y-106756000D01*
X210244571Y-106541714D01*
X210316000Y-106398857D01*
X210458857Y-106327428D01*
X211244571Y-106327428D01*
X210312000Y-121666000D02*
X210312000Y-117856000D01*
X205740000Y-121666000D02*
X213012000Y-121666000D01*
X205740000Y-117856000D02*
X213012000Y-117856000D01*
X210312000Y-117856000D02*
X210898421Y-118982504D01*
X210312000Y-117856000D02*
X209725579Y-118982504D01*
X210312000Y-121666000D02*
X210898421Y-120539496D01*
X210312000Y-121666000D02*
X209725579Y-120539496D01*
X210117428Y-85277142D02*
X210117428Y-85420000D01*
X210046000Y-85562857D01*
X209974571Y-85634285D01*
X209831714Y-85705714D01*
X209546000Y-85777142D01*
X209188857Y-85777142D01*
X208903142Y-85705714D01*
X208760285Y-85634285D01*
X208688857Y-85562857D01*
X208617428Y-85420000D01*
X208617428Y-85277142D01*
X208688857Y-85134285D01*
X208760285Y-85062857D01*
X208903142Y-84991428D01*
X209188857Y-84920000D01*
X209546000Y-84920000D01*
X209831714Y-84991428D01*
X209974571Y-85062857D01*
X210046000Y-85134285D01*
X210117428Y-85277142D01*
X208760285Y-86420000D02*
X208688857Y-86491428D01*
X208617428Y-86420000D01*
X208688857Y-86348571D01*
X208760285Y-86420000D01*
X208617428Y-86420000D01*
X208617428Y-87920000D02*
X208617428Y-87062857D01*
X208617428Y-87491428D02*
X210117428Y-87491428D01*
X209903142Y-87348571D01*
X209760285Y-87205714D01*
X209688857Y-87062857D01*
X210117428Y-88848571D02*
X210117428Y-88991428D01*
X210046000Y-89134285D01*
X209974571Y-89205714D01*
X209831714Y-89277142D01*
X209546000Y-89348571D01*
X209188857Y-89348571D01*
X208903142Y-89277142D01*
X208760285Y-89205714D01*
X208688857Y-89134285D01*
X208617428Y-88991428D01*
X208617428Y-88848571D01*
X208688857Y-88705714D01*
X208760285Y-88634285D01*
X208903142Y-88562857D01*
X209188857Y-88491428D01*
X209546000Y-88491428D01*
X209831714Y-88562857D01*
X209974571Y-88634285D01*
X210046000Y-88705714D01*
X210117428Y-88848571D01*
X210117428Y-90277142D02*
X210117428Y-90420000D01*
X210046000Y-90562857D01*
X209974571Y-90634285D01*
X209831714Y-90705714D01*
X209546000Y-90777142D01*
X209188857Y-90777142D01*
X208903142Y-90705714D01*
X208760285Y-90634285D01*
X208688857Y-90562857D01*
X208617428Y-90420000D01*
X208617428Y-90277142D01*
X208688857Y-90134285D01*
X208760285Y-90062857D01*
X208903142Y-89991428D01*
X209188857Y-89920000D01*
X209546000Y-89920000D01*
X209831714Y-89991428D01*
X209974571Y-90062857D01*
X210046000Y-90134285D01*
X210117428Y-90277142D01*
X210117428Y-91705714D02*
X210117428Y-91848571D01*
X210046000Y-91991428D01*
X209974571Y-92062857D01*
X209831714Y-92134285D01*
X209546000Y-92205714D01*
X209188857Y-92205714D01*
X208903142Y-92134285D01*
X208760285Y-92062857D01*
X208688857Y-91991428D01*
X208617428Y-91848571D01*
X208617428Y-91705714D01*
X208688857Y-91562857D01*
X208760285Y-91491428D01*
X208903142Y-91420000D01*
X209188857Y-91348571D01*
X209546000Y-91348571D01*
X209831714Y-91420000D01*
X209974571Y-91491428D01*
X210046000Y-91562857D01*
X210117428Y-91705714D01*
X208617428Y-93991428D02*
X209617428Y-93991428D01*
X210117428Y-93991428D02*
X210046000Y-93920000D01*
X209974571Y-93991428D01*
X210046000Y-94062857D01*
X210117428Y-93991428D01*
X209974571Y-93991428D01*
X209617428Y-94705714D02*
X208617428Y-94705714D01*
X209474571Y-94705714D02*
X209546000Y-94777142D01*
X209617428Y-94920000D01*
X209617428Y-95134285D01*
X209546000Y-95277142D01*
X209403142Y-95348571D01*
X208617428Y-95348571D01*
X209296000Y-81026000D02*
X209296000Y-83566000D01*
X205740000Y-81026000D02*
X211996000Y-81026000D01*
X205740000Y-83566000D02*
X211996000Y-83566000D01*
X209296000Y-83566000D02*
X208709579Y-82439496D01*
X209296000Y-83566000D02*
X209882421Y-82439496D01*
X209296000Y-81026000D02*
X208709579Y-82152504D01*
X209296000Y-81026000D02*
X209882421Y-82152504D01*
X214943428Y-66227142D02*
X214943428Y-66370000D01*
X214872000Y-66512857D01*
X214800571Y-66584285D01*
X214657714Y-66655714D01*
X214372000Y-66727142D01*
X214014857Y-66727142D01*
X213729142Y-66655714D01*
X213586285Y-66584285D01*
X213514857Y-66512857D01*
X213443428Y-66370000D01*
X213443428Y-66227142D01*
X213514857Y-66084285D01*
X213586285Y-66012857D01*
X213729142Y-65941428D01*
X214014857Y-65870000D01*
X214372000Y-65870000D01*
X214657714Y-65941428D01*
X214800571Y-66012857D01*
X214872000Y-66084285D01*
X214943428Y-66227142D01*
X213586285Y-67370000D02*
X213514857Y-67441428D01*
X213443428Y-67370000D01*
X213514857Y-67298571D01*
X213586285Y-67370000D01*
X213443428Y-67370000D01*
X213443428Y-68870000D02*
X213443428Y-68012857D01*
X213443428Y-68441428D02*
X214943428Y-68441428D01*
X214729142Y-68298571D01*
X214586285Y-68155714D01*
X214514857Y-68012857D01*
X214943428Y-69798571D02*
X214943428Y-69941428D01*
X214872000Y-70084285D01*
X214800571Y-70155714D01*
X214657714Y-70227142D01*
X214372000Y-70298571D01*
X214014857Y-70298571D01*
X213729142Y-70227142D01*
X213586285Y-70155714D01*
X213514857Y-70084285D01*
X213443428Y-69941428D01*
X213443428Y-69798571D01*
X213514857Y-69655714D01*
X213586285Y-69584285D01*
X213729142Y-69512857D01*
X214014857Y-69441428D01*
X214372000Y-69441428D01*
X214657714Y-69512857D01*
X214800571Y-69584285D01*
X214872000Y-69655714D01*
X214943428Y-69798571D01*
X214943428Y-71227142D02*
X214943428Y-71370000D01*
X214872000Y-71512857D01*
X214800571Y-71584285D01*
X214657714Y-71655714D01*
X214372000Y-71727142D01*
X214014857Y-71727142D01*
X213729142Y-71655714D01*
X213586285Y-71584285D01*
X213514857Y-71512857D01*
X213443428Y-71370000D01*
X213443428Y-71227142D01*
X213514857Y-71084285D01*
X213586285Y-71012857D01*
X213729142Y-70941428D01*
X214014857Y-70870000D01*
X214372000Y-70870000D01*
X214657714Y-70941428D01*
X214800571Y-71012857D01*
X214872000Y-71084285D01*
X214943428Y-71227142D01*
X214943428Y-72655714D02*
X214943428Y-72798571D01*
X214872000Y-72941428D01*
X214800571Y-73012857D01*
X214657714Y-73084285D01*
X214372000Y-73155714D01*
X214014857Y-73155714D01*
X213729142Y-73084285D01*
X213586285Y-73012857D01*
X213514857Y-72941428D01*
X213443428Y-72798571D01*
X213443428Y-72655714D01*
X213514857Y-72512857D01*
X213586285Y-72441428D01*
X213729142Y-72370000D01*
X214014857Y-72298571D01*
X214372000Y-72298571D01*
X214657714Y-72370000D01*
X214800571Y-72441428D01*
X214872000Y-72512857D01*
X214943428Y-72655714D01*
X213443428Y-74941428D02*
X214443428Y-74941428D01*
X214943428Y-74941428D02*
X214872000Y-74870000D01*
X214800571Y-74941428D01*
X214872000Y-75012857D01*
X214943428Y-74941428D01*
X214800571Y-74941428D01*
X214443428Y-75655714D02*
X213443428Y-75655714D01*
X214300571Y-75655714D02*
X214372000Y-75727142D01*
X214443428Y-75870000D01*
X214443428Y-76084285D01*
X214372000Y-76227142D01*
X214229142Y-76298571D01*
X213443428Y-76298571D01*
X209042000Y-68326000D02*
X209042000Y-70866000D01*
X204216000Y-68326000D02*
X211742000Y-68326000D01*
X204216000Y-70866000D02*
X211742000Y-70866000D01*
X209042000Y-70866000D02*
X208455579Y-69739496D01*
X209042000Y-70866000D02*
X209628421Y-69739496D01*
X209042000Y-68326000D02*
X208455579Y-69452504D01*
X209042000Y-68326000D02*
X209628421Y-69452504D01*
X203641142Y-60392571D02*
X203784000Y-60392571D01*
X203926857Y-60464000D01*
X203998285Y-60535428D01*
X204069714Y-60678285D01*
X204141142Y-60964000D01*
X204141142Y-61321142D01*
X204069714Y-61606857D01*
X203998285Y-61749714D01*
X203926857Y-61821142D01*
X203784000Y-61892571D01*
X203641142Y-61892571D01*
X203498285Y-61821142D01*
X203426857Y-61749714D01*
X203355428Y-61606857D01*
X203284000Y-61321142D01*
X203284000Y-60964000D01*
X203355428Y-60678285D01*
X203426857Y-60535428D01*
X203498285Y-60464000D01*
X203641142Y-60392571D01*
X204784000Y-61749714D02*
X204855428Y-61821142D01*
X204784000Y-61892571D01*
X204712571Y-61821142D01*
X204784000Y-61749714D01*
X204784000Y-61892571D01*
X206284000Y-61892571D02*
X205426857Y-61892571D01*
X205855428Y-61892571D02*
X205855428Y-60392571D01*
X205712571Y-60606857D01*
X205569714Y-60749714D01*
X205426857Y-60821142D01*
X207212571Y-60392571D02*
X207355428Y-60392571D01*
X207498285Y-60464000D01*
X207569714Y-60535428D01*
X207641142Y-60678285D01*
X207712571Y-60964000D01*
X207712571Y-61321142D01*
X207641142Y-61606857D01*
X207569714Y-61749714D01*
X207498285Y-61821142D01*
X207355428Y-61892571D01*
X207212571Y-61892571D01*
X207069714Y-61821142D01*
X206998285Y-61749714D01*
X206926857Y-61606857D01*
X206855428Y-61321142D01*
X206855428Y-60964000D01*
X206926857Y-60678285D01*
X206998285Y-60535428D01*
X207069714Y-60464000D01*
X207212571Y-60392571D01*
X208641142Y-60392571D02*
X208784000Y-60392571D01*
X208926857Y-60464000D01*
X208998285Y-60535428D01*
X209069714Y-60678285D01*
X209141142Y-60964000D01*
X209141142Y-61321142D01*
X209069714Y-61606857D01*
X208998285Y-61749714D01*
X208926857Y-61821142D01*
X208784000Y-61892571D01*
X208641142Y-61892571D01*
X208498285Y-61821142D01*
X208426857Y-61749714D01*
X208355428Y-61606857D01*
X208284000Y-61321142D01*
X208284000Y-60964000D01*
X208355428Y-60678285D01*
X208426857Y-60535428D01*
X208498285Y-60464000D01*
X208641142Y-60392571D01*
X210069714Y-60392571D02*
X210212571Y-60392571D01*
X210355428Y-60464000D01*
X210426857Y-60535428D01*
X210498285Y-60678285D01*
X210569714Y-60964000D01*
X210569714Y-61321142D01*
X210498285Y-61606857D01*
X210426857Y-61749714D01*
X210355428Y-61821142D01*
X210212571Y-61892571D01*
X210069714Y-61892571D01*
X209926857Y-61821142D01*
X209855428Y-61749714D01*
X209784000Y-61606857D01*
X209712571Y-61321142D01*
X209712571Y-60964000D01*
X209784000Y-60678285D01*
X209855428Y-60535428D01*
X209926857Y-60464000D01*
X210069714Y-60392571D01*
X212355428Y-61892571D02*
X212355428Y-60892571D01*
X212355428Y-60392571D02*
X212284000Y-60464000D01*
X212355428Y-60535428D01*
X212426857Y-60464000D01*
X212355428Y-60392571D01*
X212355428Y-60535428D01*
X213069714Y-60892571D02*
X213069714Y-61892571D01*
X213069714Y-61035428D02*
X213141142Y-60964000D01*
X213284000Y-60892571D01*
X213498285Y-60892571D01*
X213641142Y-60964000D01*
X213712571Y-61106857D01*
X213712571Y-61892571D01*
X199898000Y-61214000D02*
X202438000Y-61214000D01*
X199898000Y-65786000D02*
X199898000Y-58514000D01*
X202438000Y-65786000D02*
X202438000Y-58514000D01*
X202438000Y-61214000D02*
X201311496Y-61800421D01*
X202438000Y-61214000D02*
X201311496Y-60627579D01*
X199898000Y-61214000D02*
X201024504Y-61800421D01*
X199898000Y-61214000D02*
X201024504Y-60627579D01*
X216912571Y-105738857D02*
X216912571Y-106596000D01*
X216912571Y-106167428D02*
X215412571Y-106167428D01*
X215626857Y-106310285D01*
X215769714Y-106453142D01*
X215841142Y-106596000D01*
X216769714Y-105096000D02*
X216841142Y-105024571D01*
X216912571Y-105096000D01*
X216841142Y-105167428D01*
X216769714Y-105096000D01*
X216912571Y-105096000D01*
X215412571Y-103738857D02*
X215412571Y-104024571D01*
X215484000Y-104167428D01*
X215555428Y-104238857D01*
X215769714Y-104381714D01*
X216055428Y-104453142D01*
X216626857Y-104453142D01*
X216769714Y-104381714D01*
X216841142Y-104310285D01*
X216912571Y-104167428D01*
X216912571Y-103881714D01*
X216841142Y-103738857D01*
X216769714Y-103667428D01*
X216626857Y-103596000D01*
X216269714Y-103596000D01*
X216126857Y-103667428D01*
X216055428Y-103738857D01*
X215984000Y-103881714D01*
X215984000Y-104167428D01*
X216055428Y-104310285D01*
X216126857Y-104381714D01*
X216269714Y-104453142D01*
X215412571Y-102667428D02*
X215412571Y-102524571D01*
X215484000Y-102381714D01*
X215555428Y-102310285D01*
X215698285Y-102238857D01*
X215984000Y-102167428D01*
X216341142Y-102167428D01*
X216626857Y-102238857D01*
X216769714Y-102310285D01*
X216841142Y-102381714D01*
X216912571Y-102524571D01*
X216912571Y-102667428D01*
X216841142Y-102810285D01*
X216769714Y-102881714D01*
X216626857Y-102953142D01*
X216341142Y-103024571D01*
X215984000Y-103024571D01*
X215698285Y-102953142D01*
X215555428Y-102881714D01*
X215484000Y-102810285D01*
X215412571Y-102667428D01*
X215412571Y-101238857D02*
X215412571Y-101096000D01*
X215484000Y-100953142D01*
X215555428Y-100881714D01*
X215698285Y-100810285D01*
X215984000Y-100738857D01*
X216341142Y-100738857D01*
X216626857Y-100810285D01*
X216769714Y-100881714D01*
X216841142Y-100953142D01*
X216912571Y-101096000D01*
X216912571Y-101238857D01*
X216841142Y-101381714D01*
X216769714Y-101453142D01*
X216626857Y-101524571D01*
X216341142Y-101596000D01*
X215984000Y-101596000D01*
X215698285Y-101524571D01*
X215555428Y-101453142D01*
X215484000Y-101381714D01*
X215412571Y-101238857D01*
X215412571Y-99810285D02*
X215412571Y-99667428D01*
X215484000Y-99524571D01*
X215555428Y-99453142D01*
X215698285Y-99381714D01*
X215984000Y-99310285D01*
X216341142Y-99310285D01*
X216626857Y-99381714D01*
X216769714Y-99453142D01*
X216841142Y-99524571D01*
X216912571Y-99667428D01*
X216912571Y-99810285D01*
X216841142Y-99953142D01*
X216769714Y-100024571D01*
X216626857Y-100096000D01*
X216341142Y-100167428D01*
X215984000Y-100167428D01*
X215698285Y-100096000D01*
X215555428Y-100024571D01*
X215484000Y-99953142D01*
X215412571Y-99810285D01*
X216912571Y-97524571D02*
X215912571Y-97524571D01*
X215412571Y-97524571D02*
X215484000Y-97596000D01*
X215555428Y-97524571D01*
X215484000Y-97453142D01*
X215412571Y-97524571D01*
X215555428Y-97524571D01*
X215912571Y-96810285D02*
X216912571Y-96810285D01*
X216055428Y-96810285D02*
X215984000Y-96738857D01*
X215912571Y-96596000D01*
X215912571Y-96381714D01*
X215984000Y-96238857D01*
X216126857Y-96167428D01*
X216912571Y-96167428D01*
X214884000Y-121666000D02*
X214884000Y-81026000D01*
X205740000Y-121666000D02*
X217584000Y-121666000D01*
X205740000Y-81026000D02*
X217584000Y-81026000D01*
X214884000Y-81026000D02*
X215470421Y-82152504D01*
X214884000Y-81026000D02*
X214297579Y-82152504D01*
X214884000Y-121666000D02*
X215470421Y-120539496D01*
X214884000Y-121666000D02*
X214297579Y-120539496D01*
X147586571Y-130068571D02*
X148515142Y-130068571D01*
X148015142Y-130640000D01*
X148229428Y-130640000D01*
X148372285Y-130711428D01*
X148443714Y-130782857D01*
X148515142Y-130925714D01*
X148515142Y-131282857D01*
X148443714Y-131425714D01*
X148372285Y-131497142D01*
X148229428Y-131568571D01*
X147800857Y-131568571D01*
X147658000Y-131497142D01*
X147586571Y-131425714D01*
X149158000Y-131425714D02*
X149229428Y-131497142D01*
X149158000Y-131568571D01*
X149086571Y-131497142D01*
X149158000Y-131425714D01*
X149158000Y-131568571D01*
X149943714Y-131568571D02*
X150229428Y-131568571D01*
X150372285Y-131497142D01*
X150443714Y-131425714D01*
X150586571Y-131211428D01*
X150658000Y-130925714D01*
X150658000Y-130354285D01*
X150586571Y-130211428D01*
X150515142Y-130140000D01*
X150372285Y-130068571D01*
X150086571Y-130068571D01*
X149943714Y-130140000D01*
X149872285Y-130211428D01*
X149800857Y-130354285D01*
X149800857Y-130711428D01*
X149872285Y-130854285D01*
X149943714Y-130925714D01*
X150086571Y-130997142D01*
X150372285Y-130997142D01*
X150515142Y-130925714D01*
X150586571Y-130854285D01*
X150658000Y-130711428D01*
X151586571Y-130068571D02*
X151729428Y-130068571D01*
X151872285Y-130140000D01*
X151943714Y-130211428D01*
X152015142Y-130354285D01*
X152086571Y-130640000D01*
X152086571Y-130997142D01*
X152015142Y-131282857D01*
X151943714Y-131425714D01*
X151872285Y-131497142D01*
X151729428Y-131568571D01*
X151586571Y-131568571D01*
X151443714Y-131497142D01*
X151372285Y-131425714D01*
X151300857Y-131282857D01*
X151229428Y-130997142D01*
X151229428Y-130640000D01*
X151300857Y-130354285D01*
X151372285Y-130211428D01*
X151443714Y-130140000D01*
X151586571Y-130068571D01*
X153015142Y-130068571D02*
X153158000Y-130068571D01*
X153300857Y-130140000D01*
X153372285Y-130211428D01*
X153443714Y-130354285D01*
X153515142Y-130640000D01*
X153515142Y-130997142D01*
X153443714Y-131282857D01*
X153372285Y-131425714D01*
X153300857Y-131497142D01*
X153158000Y-131568571D01*
X153015142Y-131568571D01*
X152872285Y-131497142D01*
X152800857Y-131425714D01*
X152729428Y-131282857D01*
X152658000Y-130997142D01*
X152658000Y-130640000D01*
X152729428Y-130354285D01*
X152800857Y-130211428D01*
X152872285Y-130140000D01*
X153015142Y-130068571D01*
X154443714Y-130068571D02*
X154586571Y-130068571D01*
X154729428Y-130140000D01*
X154800857Y-130211428D01*
X154872285Y-130354285D01*
X154943714Y-130640000D01*
X154943714Y-130997142D01*
X154872285Y-131282857D01*
X154800857Y-131425714D01*
X154729428Y-131497142D01*
X154586571Y-131568571D01*
X154443714Y-131568571D01*
X154300857Y-131497142D01*
X154229428Y-131425714D01*
X154158000Y-131282857D01*
X154086571Y-130997142D01*
X154086571Y-130640000D01*
X154158000Y-130354285D01*
X154229428Y-130211428D01*
X154300857Y-130140000D01*
X154443714Y-130068571D01*
X156729428Y-131568571D02*
X156729428Y-130568571D01*
X156729428Y-130068571D02*
X156658000Y-130140000D01*
X156729428Y-130211428D01*
X156800857Y-130140000D01*
X156729428Y-130068571D01*
X156729428Y-130211428D01*
X157443714Y-130568571D02*
X157443714Y-131568571D01*
X157443714Y-130711428D02*
X157515142Y-130640000D01*
X157658000Y-130568571D01*
X157872285Y-130568571D01*
X158015142Y-130640000D01*
X158086571Y-130782857D01*
X158086571Y-131568571D01*
X103378000Y-129540000D02*
X202438000Y-129540000D01*
X103378000Y-123444000D02*
X103378000Y-132240000D01*
X202438000Y-123444000D02*
X202438000Y-132240000D01*
X202438000Y-129540000D02*
X201311496Y-130126421D01*
X202438000Y-129540000D02*
X201311496Y-128953579D01*
X103378000Y-129540000D02*
X104504504Y-130126421D01*
X103378000Y-129540000D02*
X104504504Y-128953579D01*
X149642285Y-134632571D02*
X149642285Y-135632571D01*
X149285142Y-134061142D02*
X148928000Y-135132571D01*
X149856571Y-135132571D01*
X150428000Y-135489714D02*
X150499428Y-135561142D01*
X150428000Y-135632571D01*
X150356571Y-135561142D01*
X150428000Y-135489714D01*
X150428000Y-135632571D01*
X151428000Y-134132571D02*
X151570857Y-134132571D01*
X151713714Y-134204000D01*
X151785142Y-134275428D01*
X151856571Y-134418285D01*
X151928000Y-134704000D01*
X151928000Y-135061142D01*
X151856571Y-135346857D01*
X151785142Y-135489714D01*
X151713714Y-135561142D01*
X151570857Y-135632571D01*
X151428000Y-135632571D01*
X151285142Y-135561142D01*
X151213714Y-135489714D01*
X151142285Y-135346857D01*
X151070857Y-135061142D01*
X151070857Y-134704000D01*
X151142285Y-134418285D01*
X151213714Y-134275428D01*
X151285142Y-134204000D01*
X151428000Y-134132571D01*
X152856571Y-134132571D02*
X152999428Y-134132571D01*
X153142285Y-134204000D01*
X153213714Y-134275428D01*
X153285142Y-134418285D01*
X153356571Y-134704000D01*
X153356571Y-135061142D01*
X153285142Y-135346857D01*
X153213714Y-135489714D01*
X153142285Y-135561142D01*
X152999428Y-135632571D01*
X152856571Y-135632571D01*
X152713714Y-135561142D01*
X152642285Y-135489714D01*
X152570857Y-135346857D01*
X152499428Y-135061142D01*
X152499428Y-134704000D01*
X152570857Y-134418285D01*
X152642285Y-134275428D01*
X152713714Y-134204000D01*
X152856571Y-134132571D01*
X154285142Y-134132571D02*
X154428000Y-134132571D01*
X154570857Y-134204000D01*
X154642285Y-134275428D01*
X154713714Y-134418285D01*
X154785142Y-134704000D01*
X154785142Y-135061142D01*
X154713714Y-135346857D01*
X154642285Y-135489714D01*
X154570857Y-135561142D01*
X154428000Y-135632571D01*
X154285142Y-135632571D01*
X154142285Y-135561142D01*
X154070857Y-135489714D01*
X153999428Y-135346857D01*
X153928000Y-135061142D01*
X153928000Y-134704000D01*
X153999428Y-134418285D01*
X154070857Y-134275428D01*
X154142285Y-134204000D01*
X154285142Y-134132571D01*
X155713714Y-134132571D02*
X155856571Y-134132571D01*
X155999428Y-134204000D01*
X156070857Y-134275428D01*
X156142285Y-134418285D01*
X156213714Y-134704000D01*
X156213714Y-135061142D01*
X156142285Y-135346857D01*
X156070857Y-135489714D01*
X155999428Y-135561142D01*
X155856571Y-135632571D01*
X155713714Y-135632571D01*
X155570857Y-135561142D01*
X155499428Y-135489714D01*
X155428000Y-135346857D01*
X155356571Y-135061142D01*
X155356571Y-134704000D01*
X155428000Y-134418285D01*
X155499428Y-134275428D01*
X155570857Y-134204000D01*
X155713714Y-134132571D01*
X157999428Y-135632571D02*
X157999428Y-134632571D01*
X157999428Y-134132571D02*
X157928000Y-134204000D01*
X157999428Y-134275428D01*
X158070857Y-134204000D01*
X157999428Y-134132571D01*
X157999428Y-134275428D01*
X158713714Y-134632571D02*
X158713714Y-135632571D01*
X158713714Y-134775428D02*
X158785142Y-134704000D01*
X158928000Y-134632571D01*
X159142285Y-134632571D01*
X159285142Y-134704000D01*
X159356571Y-134846857D01*
X159356571Y-135632571D01*
X103378000Y-133604000D02*
X204978000Y-133604000D01*
X103378000Y-123444000D02*
X103378000Y-136304000D01*
X204978000Y-123444000D02*
X204978000Y-136304000D01*
X204978000Y-133604000D02*
X203851496Y-134190421D01*
X204978000Y-133604000D02*
X203851496Y-133017579D01*
X103378000Y-133604000D02*
X104504504Y-134190421D01*
X103378000Y-133604000D02*
X104504504Y-133017579D01*
X80608571Y-89746000D02*
X80680000Y-89817428D01*
X80751428Y-89960285D01*
X80751428Y-90317428D01*
X80680000Y-90460285D01*
X80608571Y-90531714D01*
X80465714Y-90603142D01*
X80322857Y-90603142D01*
X80108571Y-90531714D01*
X79251428Y-89674571D01*
X79251428Y-90603142D01*
X79394285Y-91246000D02*
X79322857Y-91317428D01*
X79251428Y-91246000D01*
X79322857Y-91174571D01*
X79394285Y-91246000D01*
X79251428Y-91246000D01*
X79251428Y-92746000D02*
X79251428Y-91888857D01*
X79251428Y-92317428D02*
X80751428Y-92317428D01*
X80537142Y-92174571D01*
X80394285Y-92031714D01*
X80322857Y-91888857D01*
X80751428Y-93674571D02*
X80751428Y-93817428D01*
X80680000Y-93960285D01*
X80608571Y-94031714D01*
X80465714Y-94103142D01*
X80180000Y-94174571D01*
X79822857Y-94174571D01*
X79537142Y-94103142D01*
X79394285Y-94031714D01*
X79322857Y-93960285D01*
X79251428Y-93817428D01*
X79251428Y-93674571D01*
X79322857Y-93531714D01*
X79394285Y-93460285D01*
X79537142Y-93388857D01*
X79822857Y-93317428D01*
X80180000Y-93317428D01*
X80465714Y-93388857D01*
X80608571Y-93460285D01*
X80680000Y-93531714D01*
X80751428Y-93674571D01*
X80751428Y-95103142D02*
X80751428Y-95246000D01*
X80680000Y-95388857D01*
X80608571Y-95460285D01*
X80465714Y-95531714D01*
X80180000Y-95603142D01*
X79822857Y-95603142D01*
X79537142Y-95531714D01*
X79394285Y-95460285D01*
X79322857Y-95388857D01*
X79251428Y-95246000D01*
X79251428Y-95103142D01*
X79322857Y-94960285D01*
X79394285Y-94888857D01*
X79537142Y-94817428D01*
X79822857Y-94746000D01*
X80180000Y-94746000D01*
X80465714Y-94817428D01*
X80608571Y-94888857D01*
X80680000Y-94960285D01*
X80751428Y-95103142D01*
X80751428Y-96531714D02*
X80751428Y-96674571D01*
X80680000Y-96817428D01*
X80608571Y-96888857D01*
X80465714Y-96960285D01*
X80180000Y-97031714D01*
X79822857Y-97031714D01*
X79537142Y-96960285D01*
X79394285Y-96888857D01*
X79322857Y-96817428D01*
X79251428Y-96674571D01*
X79251428Y-96531714D01*
X79322857Y-96388857D01*
X79394285Y-96317428D01*
X79537142Y-96246000D01*
X79822857Y-96174571D01*
X80180000Y-96174571D01*
X80465714Y-96246000D01*
X80608571Y-96317428D01*
X80680000Y-96388857D01*
X80751428Y-96531714D01*
X79251428Y-98817428D02*
X80251428Y-98817428D01*
X80751428Y-98817428D02*
X80680000Y-98746000D01*
X80608571Y-98817428D01*
X80680000Y-98888857D01*
X80751428Y-98817428D01*
X80608571Y-98817428D01*
X80251428Y-99531714D02*
X79251428Y-99531714D01*
X80108571Y-99531714D02*
X80180000Y-99603142D01*
X80251428Y-99746000D01*
X80251428Y-99960285D01*
X80180000Y-100103142D01*
X80037142Y-100174571D01*
X79251428Y-100174571D01*
X81280000Y-68326000D02*
X81280000Y-121666000D01*
X101346000Y-68326000D02*
X78580000Y-68326000D01*
X101346000Y-121666000D02*
X78580000Y-121666000D01*
X81280000Y-121666000D02*
X80693579Y-120539496D01*
X81280000Y-121666000D02*
X81866421Y-120539496D01*
X81280000Y-68326000D02*
X80693579Y-69452504D01*
X81280000Y-68326000D02*
X81866421Y-69452504D01*
X146316571Y-53962571D02*
X147245142Y-53962571D01*
X146745142Y-54534000D01*
X146959428Y-54534000D01*
X147102285Y-54605428D01*
X147173714Y-54676857D01*
X147245142Y-54819714D01*
X147245142Y-55176857D01*
X147173714Y-55319714D01*
X147102285Y-55391142D01*
X146959428Y-55462571D01*
X146530857Y-55462571D01*
X146388000Y-55391142D01*
X146316571Y-55319714D01*
X147888000Y-55319714D02*
X147959428Y-55391142D01*
X147888000Y-55462571D01*
X147816571Y-55391142D01*
X147888000Y-55319714D01*
X147888000Y-55462571D01*
X148816571Y-54605428D02*
X148673714Y-54534000D01*
X148602285Y-54462571D01*
X148530857Y-54319714D01*
X148530857Y-54248285D01*
X148602285Y-54105428D01*
X148673714Y-54034000D01*
X148816571Y-53962571D01*
X149102285Y-53962571D01*
X149245142Y-54034000D01*
X149316571Y-54105428D01*
X149388000Y-54248285D01*
X149388000Y-54319714D01*
X149316571Y-54462571D01*
X149245142Y-54534000D01*
X149102285Y-54605428D01*
X148816571Y-54605428D01*
X148673714Y-54676857D01*
X148602285Y-54748285D01*
X148530857Y-54891142D01*
X148530857Y-55176857D01*
X148602285Y-55319714D01*
X148673714Y-55391142D01*
X148816571Y-55462571D01*
X149102285Y-55462571D01*
X149245142Y-55391142D01*
X149316571Y-55319714D01*
X149388000Y-55176857D01*
X149388000Y-54891142D01*
X149316571Y-54748285D01*
X149245142Y-54676857D01*
X149102285Y-54605428D01*
X150316571Y-53962571D02*
X150459428Y-53962571D01*
X150602285Y-54034000D01*
X150673714Y-54105428D01*
X150745142Y-54248285D01*
X150816571Y-54534000D01*
X150816571Y-54891142D01*
X150745142Y-55176857D01*
X150673714Y-55319714D01*
X150602285Y-55391142D01*
X150459428Y-55462571D01*
X150316571Y-55462571D01*
X150173714Y-55391142D01*
X150102285Y-55319714D01*
X150030857Y-55176857D01*
X149959428Y-54891142D01*
X149959428Y-54534000D01*
X150030857Y-54248285D01*
X150102285Y-54105428D01*
X150173714Y-54034000D01*
X150316571Y-53962571D01*
X151745142Y-53962571D02*
X151888000Y-53962571D01*
X152030857Y-54034000D01*
X152102285Y-54105428D01*
X152173714Y-54248285D01*
X152245142Y-54534000D01*
X152245142Y-54891142D01*
X152173714Y-55176857D01*
X152102285Y-55319714D01*
X152030857Y-55391142D01*
X151888000Y-55462571D01*
X151745142Y-55462571D01*
X151602285Y-55391142D01*
X151530857Y-55319714D01*
X151459428Y-55176857D01*
X151388000Y-54891142D01*
X151388000Y-54534000D01*
X151459428Y-54248285D01*
X151530857Y-54105428D01*
X151602285Y-54034000D01*
X151745142Y-53962571D01*
X153173714Y-53962571D02*
X153316571Y-53962571D01*
X153459428Y-54034000D01*
X153530857Y-54105428D01*
X153602285Y-54248285D01*
X153673714Y-54534000D01*
X153673714Y-54891142D01*
X153602285Y-55176857D01*
X153530857Y-55319714D01*
X153459428Y-55391142D01*
X153316571Y-55462571D01*
X153173714Y-55462571D01*
X153030857Y-55391142D01*
X152959428Y-55319714D01*
X152888000Y-55176857D01*
X152816571Y-54891142D01*
X152816571Y-54534000D01*
X152888000Y-54248285D01*
X152959428Y-54105428D01*
X153030857Y-54034000D01*
X153173714Y-53962571D01*
X155459428Y-55462571D02*
X155459428Y-54462571D01*
X155459428Y-53962571D02*
X155388000Y-54034000D01*
X155459428Y-54105428D01*
X155530857Y-54034000D01*
X155459428Y-53962571D01*
X155459428Y-54105428D01*
X156173714Y-54462571D02*
X156173714Y-55462571D01*
X156173714Y-54605428D02*
X156245142Y-54534000D01*
X156388000Y-54462571D01*
X156602285Y-54462571D01*
X156745142Y-54534000D01*
X156816571Y-54676857D01*
X156816571Y-55462571D01*
X103378000Y-56134000D02*
X199898000Y-56134000D01*
X103378000Y-65786000D02*
X103378000Y-53434000D01*
X199898000Y-65786000D02*
X199898000Y-53434000D01*
X199898000Y-56134000D02*
X198771496Y-56720421D01*
X199898000Y-56134000D02*
X198771496Y-55547579D01*
X103378000Y-56134000D02*
X104504504Y-56720421D01*
X103378000Y-56134000D02*
X104504504Y-55547579D01*
X226612142Y-101003571D02*
X226612142Y-99503571D01*
X228397857Y-99432142D02*
X227112142Y-101360714D01*
X229183571Y-99503571D02*
X229469285Y-99503571D01*
X229612142Y-99575000D01*
X229755000Y-99717857D01*
X229826428Y-100003571D01*
X229826428Y-100503571D01*
X229755000Y-100789285D01*
X229612142Y-100932142D01*
X229469285Y-101003571D01*
X229183571Y-101003571D01*
X229040714Y-100932142D01*
X228897857Y-100789285D01*
X228826428Y-100503571D01*
X228826428Y-100003571D01*
X228897857Y-99717857D01*
X229040714Y-99575000D01*
X229183571Y-99503571D01*
X232112142Y-100217857D02*
X232326428Y-100289285D01*
X232397857Y-100360714D01*
X232469285Y-100503571D01*
X232469285Y-100717857D01*
X232397857Y-100860714D01*
X232326428Y-100932142D01*
X232183571Y-101003571D01*
X231612142Y-101003571D01*
X231612142Y-99503571D01*
X232112142Y-99503571D01*
X232255000Y-99575000D01*
X232326428Y-99646428D01*
X232397857Y-99789285D01*
X232397857Y-99932142D01*
X232326428Y-100075000D01*
X232255000Y-100146428D01*
X232112142Y-100217857D01*
X231612142Y-100217857D01*
X233326428Y-101003571D02*
X233183571Y-100932142D01*
X233112142Y-100860714D01*
X233040714Y-100717857D01*
X233040714Y-100289285D01*
X233112142Y-100146428D01*
X233183571Y-100075000D01*
X233326428Y-100003571D01*
X233540714Y-100003571D01*
X233683571Y-100075000D01*
X233755000Y-100146428D01*
X233826428Y-100289285D01*
X233826428Y-100717857D01*
X233755000Y-100860714D01*
X233683571Y-100932142D01*
X233540714Y-101003571D01*
X233326428Y-101003571D01*
X235112142Y-101003571D02*
X235112142Y-100217857D01*
X235040714Y-100075000D01*
X234897857Y-100003571D01*
X234612142Y-100003571D01*
X234469285Y-100075000D01*
X235112142Y-100932142D02*
X234969285Y-101003571D01*
X234612142Y-101003571D01*
X234469285Y-100932142D01*
X234397857Y-100789285D01*
X234397857Y-100646428D01*
X234469285Y-100503571D01*
X234612142Y-100432142D01*
X234969285Y-100432142D01*
X235112142Y-100360714D01*
X235826428Y-101003571D02*
X235826428Y-100003571D01*
X235826428Y-100289285D02*
X235897857Y-100146428D01*
X235969285Y-100075000D01*
X236112142Y-100003571D01*
X236255000Y-100003571D01*
X237397857Y-101003571D02*
X237397857Y-99503571D01*
X237397857Y-100932142D02*
X237255000Y-101003571D01*
X236969285Y-101003571D01*
X236826428Y-100932142D01*
X236755000Y-100860714D01*
X236683571Y-100717857D01*
X236683571Y-100289285D01*
X236755000Y-100146428D01*
X236826428Y-100075000D01*
X236969285Y-100003571D01*
X237255000Y-100003571D01*
X237397857Y-100075000D01*
X240112142Y-101003571D02*
X239612142Y-100289285D01*
X239255000Y-101003571D02*
X239255000Y-99503571D01*
X239826428Y-99503571D01*
X239969285Y-99575000D01*
X240040714Y-99646428D01*
X240112142Y-99789285D01*
X240112142Y-100003571D01*
X240040714Y-100146428D01*
X239969285Y-100217857D01*
X239826428Y-100289285D01*
X239255000Y-100289285D01*
X241326428Y-100932142D02*
X241183571Y-101003571D01*
X240897857Y-101003571D01*
X240755000Y-100932142D01*
X240683571Y-100789285D01*
X240683571Y-100217857D01*
X240755000Y-100075000D01*
X240897857Y-100003571D01*
X241183571Y-100003571D01*
X241326428Y-100075000D01*
X241397857Y-100217857D01*
X241397857Y-100360714D01*
X240683571Y-100503571D01*
X241897857Y-100003571D02*
X242255000Y-101003571D01*
X242612142Y-100003571D01*
X244255000Y-99646428D02*
X244326428Y-99575000D01*
X244469285Y-99503571D01*
X244826428Y-99503571D01*
X244969285Y-99575000D01*
X245040714Y-99646428D01*
X245112142Y-99789285D01*
X245112142Y-99932142D01*
X245040714Y-100146428D01*
X244183571Y-101003571D01*
X245112142Y-101003571D01*
X245755000Y-100860714D02*
X245826428Y-100932142D01*
X245755000Y-101003571D01*
X245683571Y-100932142D01*
X245755000Y-100860714D01*
X245755000Y-101003571D01*
X247183571Y-99503571D02*
X246469285Y-99503571D01*
X246397857Y-100217857D01*
X246469285Y-100146428D01*
X246612142Y-100075000D01*
X246969285Y-100075000D01*
X247112142Y-100146428D01*
X247183571Y-100217857D01*
X247255000Y-100360714D01*
X247255000Y-100717857D01*
X247183571Y-100860714D01*
X247112142Y-100932142D01*
X246969285Y-101003571D01*
X246612142Y-101003571D01*
X246469285Y-100932142D01*
X246397857Y-100860714D01*
X227112142Y-102767857D02*
X226612142Y-102767857D01*
X226612142Y-103553571D02*
X226612142Y-102053571D01*
X227326428Y-102053571D01*
X227897857Y-103553571D02*
X227897857Y-102553571D01*
X227897857Y-102839285D02*
X227969285Y-102696428D01*
X228040714Y-102625000D01*
X228183571Y-102553571D01*
X228326428Y-102553571D01*
X229040714Y-103553571D02*
X228897857Y-103482142D01*
X228826428Y-103410714D01*
X228755000Y-103267857D01*
X228755000Y-102839285D01*
X228826428Y-102696428D01*
X228897857Y-102625000D01*
X229040714Y-102553571D01*
X229255000Y-102553571D01*
X229397857Y-102625000D01*
X229469285Y-102696428D01*
X229540714Y-102839285D01*
X229540714Y-103267857D01*
X229469285Y-103410714D01*
X229397857Y-103482142D01*
X229255000Y-103553571D01*
X229040714Y-103553571D01*
X230183571Y-102553571D02*
X230183571Y-103553571D01*
X230183571Y-102696428D02*
X230255000Y-102625000D01*
X230397857Y-102553571D01*
X230612142Y-102553571D01*
X230755000Y-102625000D01*
X230826428Y-102767857D01*
X230826428Y-103553571D01*
X231326428Y-102553571D02*
X231897857Y-102553571D01*
X231540714Y-102053571D02*
X231540714Y-103339285D01*
X231612142Y-103482142D01*
X231755000Y-103553571D01*
X231897857Y-103553571D01*
X234040714Y-102767857D02*
X233540714Y-102767857D01*
X233540714Y-103553571D02*
X233540714Y-102053571D01*
X234255000Y-102053571D01*
X235469285Y-103553571D02*
X235469285Y-102767857D01*
X235397857Y-102625000D01*
X235255000Y-102553571D01*
X234969285Y-102553571D01*
X234826428Y-102625000D01*
X235469285Y-103482142D02*
X235326428Y-103553571D01*
X234969285Y-103553571D01*
X234826428Y-103482142D01*
X234755000Y-103339285D01*
X234755000Y-103196428D01*
X234826428Y-103053571D01*
X234969285Y-102982142D01*
X235326428Y-102982142D01*
X235469285Y-102910714D01*
X236183571Y-103553571D02*
X236183571Y-102053571D01*
X236183571Y-102625000D02*
X236326428Y-102553571D01*
X236612142Y-102553571D01*
X236755000Y-102625000D01*
X236826428Y-102696428D01*
X236897857Y-102839285D01*
X236897857Y-103267857D01*
X236826428Y-103410714D01*
X236755000Y-103482142D01*
X236612142Y-103553571D01*
X236326428Y-103553571D01*
X236183571Y-103482142D01*
X237540714Y-103553571D02*
X237540714Y-102553571D01*
X237540714Y-102839285D02*
X237612142Y-102696428D01*
X237683571Y-102625000D01*
X237826428Y-102553571D01*
X237969285Y-102553571D01*
X238469285Y-103553571D02*
X238469285Y-102553571D01*
X238469285Y-102053571D02*
X238397857Y-102125000D01*
X238469285Y-102196428D01*
X238540714Y-102125000D01*
X238469285Y-102053571D01*
X238469285Y-102196428D01*
X239826428Y-103482142D02*
X239683571Y-103553571D01*
X239397857Y-103553571D01*
X239255000Y-103482142D01*
X239183571Y-103410714D01*
X239112142Y-103267857D01*
X239112142Y-102839285D01*
X239183571Y-102696428D01*
X239255000Y-102625000D01*
X239397857Y-102553571D01*
X239683571Y-102553571D01*
X239826428Y-102625000D01*
X241112142Y-103553571D02*
X241112142Y-102767857D01*
X241040714Y-102625000D01*
X240897857Y-102553571D01*
X240612142Y-102553571D01*
X240469285Y-102625000D01*
X241112142Y-103482142D02*
X240969285Y-103553571D01*
X240612142Y-103553571D01*
X240469285Y-103482142D01*
X240397857Y-103339285D01*
X240397857Y-103196428D01*
X240469285Y-103053571D01*
X240612142Y-102982142D01*
X240969285Y-102982142D01*
X241112142Y-102910714D01*
X241612142Y-102553571D02*
X242183571Y-102553571D01*
X241826428Y-102053571D02*
X241826428Y-103339285D01*
X241897857Y-103482142D01*
X242040714Y-103553571D01*
X242183571Y-103553571D01*
X242683571Y-103553571D02*
X242683571Y-102553571D01*
X242683571Y-102053571D02*
X242612142Y-102125000D01*
X242683571Y-102196428D01*
X242755000Y-102125000D01*
X242683571Y-102053571D01*
X242683571Y-102196428D01*
X243612142Y-103553571D02*
X243469285Y-103482142D01*
X243397857Y-103410714D01*
X243326428Y-103267857D01*
X243326428Y-102839285D01*
X243397857Y-102696428D01*
X243469285Y-102625000D01*
X243612142Y-102553571D01*
X243826428Y-102553571D01*
X243969285Y-102625000D01*
X244040714Y-102696428D01*
X244112142Y-102839285D01*
X244112142Y-103267857D01*
X244040714Y-103410714D01*
X243969285Y-103482142D01*
X243826428Y-103553571D01*
X243612142Y-103553571D01*
X244755000Y-102553571D02*
X244755000Y-103553571D01*
X244755000Y-102696428D02*
X244826428Y-102625000D01*
X244969285Y-102553571D01*
X245183571Y-102553571D01*
X245326428Y-102625000D01*
X245397857Y-102767857D01*
X245397857Y-103553571D01*
X247255000Y-103553571D02*
X247255000Y-102053571D01*
X247612142Y-102053571D01*
X247826428Y-102125000D01*
X247969285Y-102267857D01*
X248040714Y-102410714D01*
X248112142Y-102696428D01*
X248112142Y-102910714D01*
X248040714Y-103196428D01*
X247969285Y-103339285D01*
X247826428Y-103482142D01*
X247612142Y-103553571D01*
X247255000Y-103553571D01*
X248755000Y-103553571D02*
X248755000Y-102553571D01*
X248755000Y-102839285D02*
X248826428Y-102696428D01*
X248897857Y-102625000D01*
X249040714Y-102553571D01*
X249183571Y-102553571D01*
X250326428Y-103553571D02*
X250326428Y-102767857D01*
X250255000Y-102625000D01*
X250112142Y-102553571D01*
X249826428Y-102553571D01*
X249683571Y-102625000D01*
X250326428Y-103482142D02*
X250183571Y-103553571D01*
X249826428Y-103553571D01*
X249683571Y-103482142D01*
X249612142Y-103339285D01*
X249612142Y-103196428D01*
X249683571Y-103053571D01*
X249826428Y-102982142D01*
X250183571Y-102982142D01*
X250326428Y-102910714D01*
X250897857Y-102553571D02*
X251183571Y-103553571D01*
X251469285Y-102839285D01*
X251755000Y-103553571D01*
X252040714Y-102553571D01*
X252612142Y-103553571D02*
X252612142Y-102553571D01*
X252612142Y-102053571D02*
X252540714Y-102125000D01*
X252612142Y-102196428D01*
X252683571Y-102125000D01*
X252612142Y-102053571D01*
X252612142Y-102196428D01*
X253326428Y-102553571D02*
X253326428Y-103553571D01*
X253326428Y-102696428D02*
X253397857Y-102625000D01*
X253540714Y-102553571D01*
X253755000Y-102553571D01*
X253897857Y-102625000D01*
X253969285Y-102767857D01*
X253969285Y-103553571D01*
X255326428Y-102553571D02*
X255326428Y-103767857D01*
X255255000Y-103910714D01*
X255183571Y-103982142D01*
X255040714Y-104053571D01*
X254826428Y-104053571D01*
X254683571Y-103982142D01*
X255326428Y-103482142D02*
X255183571Y-103553571D01*
X254897857Y-103553571D01*
X254755000Y-103482142D01*
X254683571Y-103410714D01*
X254612142Y-103267857D01*
X254612142Y-102839285D01*
X254683571Y-102696428D01*
X254755000Y-102625000D01*
X254897857Y-102553571D01*
X255183571Y-102553571D01*
X255326428Y-102625000D01*
D10*
X175067000Y-100890600D02*
X172617000Y-100890600D01*
X175637000Y-101440600D02*
X175637000Y-102290600D01*
X175067000Y-100890600D02*
X175637000Y-101440600D01*
X175637000Y-102290600D02*
X172597000Y-102290600D01*
X172597000Y-100890600D02*
X172597000Y-102290600D01*
X169235200Y-99842600D02*
X166785200Y-99842600D01*
X169805200Y-100392600D02*
X169805200Y-101242600D01*
X169235200Y-99842600D02*
X169805200Y-100392600D01*
X169805200Y-101242600D02*
X166765200Y-101242600D01*
X166765200Y-99842600D02*
X166765200Y-101242600D01*
X149871000Y-96531000D02*
X149221000Y-97181000D01*
X148071000Y-97181000D02*
X149221000Y-97181000D01*
X149871000Y-96531000D02*
X149871000Y-94081000D01*
X148071000Y-94081000D02*
X149871000Y-94081000D01*
X148071000Y-97181000D02*
X148071000Y-94081000D01*
X143648000Y-96531000D02*
X142998000Y-97181000D01*
X141848000Y-97181000D02*
X142998000Y-97181000D01*
X143648000Y-96531000D02*
X143648000Y-94081000D01*
X141848000Y-94081000D02*
X143648000Y-94081000D01*
X141848000Y-97181000D02*
X141848000Y-94081000D01*
X181472000Y-102500000D02*
X180822000Y-101850000D01*
X180822000Y-100700000D02*
X180822000Y-101850000D01*
X181472000Y-102500000D02*
X183922000Y-102500000D01*
X183922000Y-100700000D02*
X183922000Y-102500000D01*
X180822000Y-100700000D02*
X183922000Y-100700000D01*
X189970000Y-107435000D02*
X189335000Y-108070000D01*
X189970000Y-95370000D02*
X189970000Y-107435000D01*
X187430000Y-95370000D02*
X189970000Y-95370000D01*
X187430000Y-108070000D02*
X187430000Y-95370000D01*
X189335000Y-108070000D02*
X187430000Y-108070000D01*
D11*
X151283761Y-110374876D02*
X151331380Y-110232019D01*
X151331380Y-109993923D01*
X151283761Y-109898685D01*
X151236142Y-109851066D01*
X151140904Y-109803447D01*
X151045666Y-109803447D01*
X150950428Y-109851066D01*
X150902809Y-109898685D01*
X150855190Y-109993923D01*
X150807571Y-110184400D01*
X150759952Y-110279638D01*
X150712333Y-110327257D01*
X150617095Y-110374876D01*
X150521857Y-110374876D01*
X150426619Y-110327257D01*
X150379000Y-110279638D01*
X150331380Y-110184400D01*
X150331380Y-109946304D01*
X150379000Y-109803447D01*
X151331380Y-108851066D02*
X151331380Y-109422495D01*
X151331380Y-109136780D02*
X150331380Y-109136780D01*
X150474238Y-109232019D01*
X150569476Y-109327257D01*
X150617095Y-109422495D01*
X151045666Y-108470114D02*
X151045666Y-107993923D01*
X151331380Y-108565352D02*
X150331380Y-108232019D01*
X151331380Y-107898685D01*
X168304761Y-109690476D02*
X168352380Y-109547619D01*
X168352380Y-109309523D01*
X168304761Y-109214285D01*
X168257142Y-109166666D01*
X168161904Y-109119047D01*
X168066666Y-109119047D01*
X167971428Y-109166666D01*
X167923809Y-109214285D01*
X167876190Y-109309523D01*
X167828571Y-109500000D01*
X167780952Y-109595238D01*
X167733333Y-109642857D01*
X167638095Y-109690476D01*
X167542857Y-109690476D01*
X167447619Y-109642857D01*
X167400000Y-109595238D01*
X167352380Y-109500000D01*
X167352380Y-109261904D01*
X167400000Y-109119047D01*
X168352380Y-108166666D02*
X168352380Y-108738095D01*
X168352380Y-108452380D02*
X167352380Y-108452380D01*
X167495238Y-108547619D01*
X167590476Y-108642857D01*
X167638095Y-108738095D01*
X168066666Y-107785714D02*
X168066666Y-107309523D01*
X168352380Y-107880952D02*
X167352380Y-107547619D01*
X168352380Y-107214285D01*
X187004761Y-90090476D02*
X187052380Y-89947619D01*
X187052380Y-89709523D01*
X187004761Y-89614285D01*
X186957142Y-89566666D01*
X186861904Y-89519047D01*
X186766666Y-89519047D01*
X186671428Y-89566666D01*
X186623809Y-89614285D01*
X186576190Y-89709523D01*
X186528571Y-89900000D01*
X186480952Y-89995238D01*
X186433333Y-90042857D01*
X186338095Y-90090476D01*
X186242857Y-90090476D01*
X186147619Y-90042857D01*
X186100000Y-89995238D01*
X186052380Y-89900000D01*
X186052380Y-89661904D01*
X186100000Y-89519047D01*
X187052380Y-88566666D02*
X187052380Y-89138095D01*
X187052380Y-88852380D02*
X186052380Y-88852380D01*
X186195238Y-88947619D01*
X186290476Y-89042857D01*
X186338095Y-89138095D01*
X186766666Y-88185714D02*
X186766666Y-87709523D01*
X187052380Y-88280952D02*
X186052380Y-87947619D01*
X187052380Y-87614285D01*
X192831980Y-79170066D02*
X192831980Y-79741495D01*
X192831980Y-79455780D02*
X191831980Y-79455780D01*
X191974838Y-79551019D01*
X192070076Y-79646257D01*
X192117695Y-79741495D01*
X191831980Y-78551019D02*
X191831980Y-78455780D01*
X191879600Y-78360542D01*
X191927219Y-78312923D01*
X192022457Y-78265304D01*
X192212933Y-78217685D01*
X192451028Y-78217685D01*
X192641504Y-78265304D01*
X192736742Y-78312923D01*
X192784361Y-78360542D01*
X192831980Y-78455780D01*
X192831980Y-78551019D01*
X192784361Y-78646257D01*
X192736742Y-78693876D01*
X192641504Y-78741495D01*
X192451028Y-78789114D01*
X192212933Y-78789114D01*
X192022457Y-78741495D01*
X191927219Y-78693876D01*
X191879600Y-78646257D01*
X191831980Y-78551019D01*
X191831980Y-77598638D02*
X191831980Y-77503400D01*
X191879600Y-77408161D01*
X191927219Y-77360542D01*
X192022457Y-77312923D01*
X192212933Y-77265304D01*
X192451028Y-77265304D01*
X192641504Y-77312923D01*
X192736742Y-77360542D01*
X192784361Y-77408161D01*
X192831980Y-77503400D01*
X192831980Y-77598638D01*
X192784361Y-77693876D01*
X192736742Y-77741495D01*
X192641504Y-77789114D01*
X192451028Y-77836733D01*
X192212933Y-77836733D01*
X192022457Y-77789114D01*
X191927219Y-77741495D01*
X191879600Y-77693876D01*
X191831980Y-77598638D01*
X192831980Y-76836733D02*
X191831980Y-76836733D01*
X192831980Y-76265304D02*
X192260552Y-76693876D01*
X191831980Y-76265304D02*
X192403409Y-76836733D01*
X184399180Y-92784466D02*
X184399180Y-93355895D01*
X184399180Y-93070180D02*
X183399180Y-93070180D01*
X183542038Y-93165419D01*
X183637276Y-93260657D01*
X183684895Y-93355895D01*
X183399180Y-92165419D02*
X183399180Y-92070180D01*
X183446800Y-91974942D01*
X183494419Y-91927323D01*
X183589657Y-91879704D01*
X183780133Y-91832085D01*
X184018228Y-91832085D01*
X184208704Y-91879704D01*
X184303942Y-91927323D01*
X184351561Y-91974942D01*
X184399180Y-92070180D01*
X184399180Y-92165419D01*
X184351561Y-92260657D01*
X184303942Y-92308276D01*
X184208704Y-92355895D01*
X184018228Y-92403514D01*
X183780133Y-92403514D01*
X183589657Y-92355895D01*
X183494419Y-92308276D01*
X183446800Y-92260657D01*
X183399180Y-92165419D01*
X183399180Y-91213038D02*
X183399180Y-91117800D01*
X183446800Y-91022561D01*
X183494419Y-90974942D01*
X183589657Y-90927323D01*
X183780133Y-90879704D01*
X184018228Y-90879704D01*
X184208704Y-90927323D01*
X184303942Y-90974942D01*
X184351561Y-91022561D01*
X184399180Y-91117800D01*
X184399180Y-91213038D01*
X184351561Y-91308276D01*
X184303942Y-91355895D01*
X184208704Y-91403514D01*
X184018228Y-91451133D01*
X183780133Y-91451133D01*
X183589657Y-91403514D01*
X183494419Y-91355895D01*
X183446800Y-91308276D01*
X183399180Y-91213038D01*
X184399180Y-90451133D02*
X183399180Y-90451133D01*
X184399180Y-89879704D02*
X183827752Y-90308276D01*
X183399180Y-89879704D02*
X183970609Y-90451133D01*
X171545571Y-104423933D02*
X171593190Y-104281076D01*
X171640809Y-104233457D01*
X171736047Y-104185838D01*
X171878904Y-104185838D01*
X171974142Y-104233457D01*
X172021761Y-104281076D01*
X172069380Y-104376314D01*
X172069380Y-104757266D01*
X171069380Y-104757266D01*
X171069380Y-104423933D01*
X171117000Y-104328695D01*
X171164619Y-104281076D01*
X171259857Y-104233457D01*
X171355095Y-104233457D01*
X171450333Y-104281076D01*
X171497952Y-104328695D01*
X171545571Y-104423933D01*
X171545571Y-104757266D01*
X172021761Y-103804885D02*
X172069380Y-103662028D01*
X172069380Y-103423933D01*
X172021761Y-103328695D01*
X171974142Y-103281076D01*
X171878904Y-103233457D01*
X171783666Y-103233457D01*
X171688428Y-103281076D01*
X171640809Y-103328695D01*
X171593190Y-103423933D01*
X171545571Y-103614409D01*
X171497952Y-103709647D01*
X171450333Y-103757266D01*
X171355095Y-103804885D01*
X171259857Y-103804885D01*
X171164619Y-103757266D01*
X171117000Y-103709647D01*
X171069380Y-103614409D01*
X171069380Y-103376314D01*
X171117000Y-103233457D01*
X172021761Y-102852504D02*
X172069380Y-102709647D01*
X172069380Y-102471552D01*
X172021761Y-102376314D01*
X171974142Y-102328695D01*
X171878904Y-102281076D01*
X171783666Y-102281076D01*
X171688428Y-102328695D01*
X171640809Y-102376314D01*
X171593190Y-102471552D01*
X171545571Y-102662028D01*
X171497952Y-102757266D01*
X171450333Y-102804885D01*
X171355095Y-102852504D01*
X171259857Y-102852504D01*
X171164619Y-102804885D01*
X171117000Y-102757266D01*
X171069380Y-102662028D01*
X171069380Y-102423933D01*
X171117000Y-102281076D01*
X171497952Y-101709647D02*
X171450333Y-101804885D01*
X171402714Y-101852504D01*
X171307476Y-101900123D01*
X171259857Y-101900123D01*
X171164619Y-101852504D01*
X171117000Y-101804885D01*
X171069380Y-101709647D01*
X171069380Y-101519171D01*
X171117000Y-101423933D01*
X171164619Y-101376314D01*
X171259857Y-101328695D01*
X171307476Y-101328695D01*
X171402714Y-101376314D01*
X171450333Y-101423933D01*
X171497952Y-101519171D01*
X171497952Y-101709647D01*
X171545571Y-101804885D01*
X171593190Y-101852504D01*
X171688428Y-101900123D01*
X171878904Y-101900123D01*
X171974142Y-101852504D01*
X172021761Y-101804885D01*
X172069380Y-101709647D01*
X172069380Y-101519171D01*
X172021761Y-101423933D01*
X171974142Y-101376314D01*
X171878904Y-101328695D01*
X171688428Y-101328695D01*
X171593190Y-101376314D01*
X171545571Y-101423933D01*
X171497952Y-101519171D01*
X171069380Y-100709647D02*
X171069380Y-100614409D01*
X171117000Y-100519171D01*
X171164619Y-100471552D01*
X171259857Y-100423933D01*
X171450333Y-100376314D01*
X171688428Y-100376314D01*
X171878904Y-100423933D01*
X171974142Y-100471552D01*
X172021761Y-100519171D01*
X172069380Y-100614409D01*
X172069380Y-100709647D01*
X172021761Y-100804885D01*
X171974142Y-100852504D01*
X171878904Y-100900123D01*
X171688428Y-100947742D01*
X171450333Y-100947742D01*
X171259857Y-100900123D01*
X171164619Y-100852504D01*
X171117000Y-100804885D01*
X171069380Y-100709647D01*
X171069380Y-99519171D02*
X171069380Y-99709647D01*
X171117000Y-99804885D01*
X171164619Y-99852504D01*
X171307476Y-99947742D01*
X171497952Y-99995361D01*
X171878904Y-99995361D01*
X171974142Y-99947742D01*
X172021761Y-99900123D01*
X172069380Y-99804885D01*
X172069380Y-99614409D01*
X172021761Y-99519171D01*
X171974142Y-99471552D01*
X171878904Y-99423933D01*
X171640809Y-99423933D01*
X171545571Y-99471552D01*
X171497952Y-99519171D01*
X171450333Y-99614409D01*
X171450333Y-99804885D01*
X171497952Y-99900123D01*
X171545571Y-99947742D01*
X171640809Y-99995361D01*
X172069380Y-98995361D02*
X171069380Y-98995361D01*
X172069380Y-98423933D01*
X171069380Y-98423933D01*
D14*
X174069380Y-101864409D02*
X174021761Y-101840600D01*
X173974142Y-101792980D01*
X173902714Y-101721552D01*
X173855095Y-101697742D01*
X173807476Y-101697742D01*
X173831285Y-101816790D02*
X173783666Y-101792980D01*
X173736047Y-101745361D01*
X173712238Y-101650123D01*
X173712238Y-101483457D01*
X173736047Y-101388219D01*
X173783666Y-101340600D01*
X173831285Y-101316790D01*
X173926523Y-101316790D01*
X173974142Y-101340600D01*
X174021761Y-101388219D01*
X174045571Y-101483457D01*
X174045571Y-101650123D01*
X174021761Y-101745361D01*
X173974142Y-101792980D01*
X173926523Y-101816790D01*
X173831285Y-101816790D01*
X174474142Y-101483457D02*
X174474142Y-101816790D01*
X174355095Y-101292980D02*
X174236047Y-101650123D01*
X174545571Y-101650123D01*
D11*
X165713771Y-103375933D02*
X165761390Y-103233076D01*
X165809009Y-103185457D01*
X165904247Y-103137838D01*
X166047104Y-103137838D01*
X166142342Y-103185457D01*
X166189961Y-103233076D01*
X166237580Y-103328314D01*
X166237580Y-103709266D01*
X165237580Y-103709266D01*
X165237580Y-103375933D01*
X165285200Y-103280695D01*
X165332819Y-103233076D01*
X165428057Y-103185457D01*
X165523295Y-103185457D01*
X165618533Y-103233076D01*
X165666152Y-103280695D01*
X165713771Y-103375933D01*
X165713771Y-103709266D01*
X166189961Y-102756885D02*
X166237580Y-102614028D01*
X166237580Y-102375933D01*
X166189961Y-102280695D01*
X166142342Y-102233076D01*
X166047104Y-102185457D01*
X165951866Y-102185457D01*
X165856628Y-102233076D01*
X165809009Y-102280695D01*
X165761390Y-102375933D01*
X165713771Y-102566409D01*
X165666152Y-102661647D01*
X165618533Y-102709266D01*
X165523295Y-102756885D01*
X165428057Y-102756885D01*
X165332819Y-102709266D01*
X165285200Y-102661647D01*
X165237580Y-102566409D01*
X165237580Y-102328314D01*
X165285200Y-102185457D01*
X166189961Y-101804504D02*
X166237580Y-101661647D01*
X166237580Y-101423552D01*
X166189961Y-101328314D01*
X166142342Y-101280695D01*
X166047104Y-101233076D01*
X165951866Y-101233076D01*
X165856628Y-101280695D01*
X165809009Y-101328314D01*
X165761390Y-101423552D01*
X165713771Y-101614028D01*
X165666152Y-101709266D01*
X165618533Y-101756885D01*
X165523295Y-101804504D01*
X165428057Y-101804504D01*
X165332819Y-101756885D01*
X165285200Y-101709266D01*
X165237580Y-101614028D01*
X165237580Y-101375933D01*
X165285200Y-101233076D01*
X165666152Y-100661647D02*
X165618533Y-100756885D01*
X165570914Y-100804504D01*
X165475676Y-100852123D01*
X165428057Y-100852123D01*
X165332819Y-100804504D01*
X165285200Y-100756885D01*
X165237580Y-100661647D01*
X165237580Y-100471171D01*
X165285200Y-100375933D01*
X165332819Y-100328314D01*
X165428057Y-100280695D01*
X165475676Y-100280695D01*
X165570914Y-100328314D01*
X165618533Y-100375933D01*
X165666152Y-100471171D01*
X165666152Y-100661647D01*
X165713771Y-100756885D01*
X165761390Y-100804504D01*
X165856628Y-100852123D01*
X166047104Y-100852123D01*
X166142342Y-100804504D01*
X166189961Y-100756885D01*
X166237580Y-100661647D01*
X166237580Y-100471171D01*
X166189961Y-100375933D01*
X166142342Y-100328314D01*
X166047104Y-100280695D01*
X165856628Y-100280695D01*
X165761390Y-100328314D01*
X165713771Y-100375933D01*
X165666152Y-100471171D01*
X165237580Y-99661647D02*
X165237580Y-99566409D01*
X165285200Y-99471171D01*
X165332819Y-99423552D01*
X165428057Y-99375933D01*
X165618533Y-99328314D01*
X165856628Y-99328314D01*
X166047104Y-99375933D01*
X166142342Y-99423552D01*
X166189961Y-99471171D01*
X166237580Y-99566409D01*
X166237580Y-99661647D01*
X166189961Y-99756885D01*
X166142342Y-99804504D01*
X166047104Y-99852123D01*
X165856628Y-99899742D01*
X165618533Y-99899742D01*
X165428057Y-99852123D01*
X165332819Y-99804504D01*
X165285200Y-99756885D01*
X165237580Y-99661647D01*
X165237580Y-98471171D02*
X165237580Y-98661647D01*
X165285200Y-98756885D01*
X165332819Y-98804504D01*
X165475676Y-98899742D01*
X165666152Y-98947361D01*
X166047104Y-98947361D01*
X166142342Y-98899742D01*
X166189961Y-98852123D01*
X166237580Y-98756885D01*
X166237580Y-98566409D01*
X166189961Y-98471171D01*
X166142342Y-98423552D01*
X166047104Y-98375933D01*
X165809009Y-98375933D01*
X165713771Y-98423552D01*
X165666152Y-98471171D01*
X165618533Y-98566409D01*
X165618533Y-98756885D01*
X165666152Y-98852123D01*
X165713771Y-98899742D01*
X165809009Y-98947361D01*
X166237580Y-97947361D02*
X165237580Y-97947361D01*
X166237580Y-97375933D01*
X165237580Y-97375933D01*
D14*
X168237580Y-100816409D02*
X168189961Y-100792600D01*
X168142342Y-100744980D01*
X168070914Y-100673552D01*
X168023295Y-100649742D01*
X167975676Y-100649742D01*
X167999485Y-100768790D02*
X167951866Y-100744980D01*
X167904247Y-100697361D01*
X167880438Y-100602123D01*
X167880438Y-100435457D01*
X167904247Y-100340219D01*
X167951866Y-100292600D01*
X167999485Y-100268790D01*
X168094723Y-100268790D01*
X168142342Y-100292600D01*
X168189961Y-100340219D01*
X168213771Y-100435457D01*
X168213771Y-100602123D01*
X168189961Y-100697361D01*
X168142342Y-100744980D01*
X168094723Y-100768790D01*
X167999485Y-100768790D01*
X168380438Y-100268790D02*
X168689961Y-100268790D01*
X168523295Y-100459266D01*
X168594723Y-100459266D01*
X168642342Y-100483076D01*
X168666152Y-100506885D01*
X168689961Y-100554504D01*
X168689961Y-100673552D01*
X168666152Y-100721171D01*
X168642342Y-100744980D01*
X168594723Y-100768790D01*
X168451866Y-100768790D01*
X168404247Y-100744980D01*
X168380438Y-100721171D01*
D11*
X193238380Y-94646476D02*
X192238380Y-94646476D01*
X192238380Y-94408380D01*
X192286000Y-94265523D01*
X192381238Y-94170285D01*
X192476476Y-94122666D01*
X192666952Y-94075047D01*
X192809809Y-94075047D01*
X193000285Y-94122666D01*
X193095523Y-94170285D01*
X193190761Y-94265523D01*
X193238380Y-94408380D01*
X193238380Y-94646476D01*
X193238380Y-93646476D02*
X192571714Y-93646476D01*
X192238380Y-93646476D02*
X192286000Y-93694095D01*
X192333619Y-93646476D01*
X192286000Y-93598857D01*
X192238380Y-93646476D01*
X192333619Y-93646476D01*
X192571714Y-92741714D02*
X193381238Y-92741714D01*
X193476476Y-92789333D01*
X193524095Y-92836952D01*
X193571714Y-92932190D01*
X193571714Y-93075047D01*
X193524095Y-93170285D01*
X193190761Y-92741714D02*
X193238380Y-92836952D01*
X193238380Y-93027428D01*
X193190761Y-93122666D01*
X193143142Y-93170285D01*
X193047904Y-93217904D01*
X192762190Y-93217904D01*
X192666952Y-93170285D01*
X192619333Y-93122666D01*
X192571714Y-93027428D01*
X192571714Y-92836952D01*
X192619333Y-92741714D01*
X193238380Y-92265523D02*
X192571714Y-92265523D01*
X192238380Y-92265523D02*
X192286000Y-92313142D01*
X192333619Y-92265523D01*
X192286000Y-92217904D01*
X192238380Y-92265523D01*
X192333619Y-92265523D01*
X192571714Y-91932190D02*
X192571714Y-91551238D01*
X192238380Y-91789333D02*
X193095523Y-91789333D01*
X193190761Y-91741714D01*
X193238380Y-91646476D01*
X193238380Y-91551238D01*
X193238380Y-90789333D02*
X192714571Y-90789333D01*
X192619333Y-90836952D01*
X192571714Y-90932190D01*
X192571714Y-91122666D01*
X192619333Y-91217904D01*
X193190761Y-90789333D02*
X193238380Y-90884571D01*
X193238380Y-91122666D01*
X193190761Y-91217904D01*
X193095523Y-91265523D01*
X193000285Y-91265523D01*
X192905047Y-91217904D01*
X192857428Y-91122666D01*
X192857428Y-90884571D01*
X192809809Y-90789333D01*
X193238380Y-90170285D02*
X193190761Y-90265523D01*
X193095523Y-90313142D01*
X192238380Y-90313142D01*
X138231809Y-115260380D02*
X138231809Y-114260380D01*
X138612761Y-114260380D01*
X138708000Y-114308000D01*
X138755619Y-114355619D01*
X138803238Y-114450857D01*
X138803238Y-114593714D01*
X138755619Y-114688952D01*
X138708000Y-114736571D01*
X138612761Y-114784190D01*
X138231809Y-114784190D01*
X139374666Y-115260380D02*
X139279428Y-115212761D01*
X139231809Y-115165142D01*
X139184190Y-115069904D01*
X139184190Y-114784190D01*
X139231809Y-114688952D01*
X139279428Y-114641333D01*
X139374666Y-114593714D01*
X139517523Y-114593714D01*
X139612761Y-114641333D01*
X139660380Y-114688952D01*
X139708000Y-114784190D01*
X139708000Y-115069904D01*
X139660380Y-115165142D01*
X139612761Y-115212761D01*
X139517523Y-115260380D01*
X139374666Y-115260380D01*
X140041333Y-114593714D02*
X140231809Y-115260380D01*
X140422285Y-114784190D01*
X140612761Y-115260380D01*
X140803238Y-114593714D01*
X141565142Y-115212761D02*
X141469904Y-115260380D01*
X141279428Y-115260380D01*
X141184190Y-115212761D01*
X141136571Y-115117523D01*
X141136571Y-114736571D01*
X141184190Y-114641333D01*
X141279428Y-114593714D01*
X141469904Y-114593714D01*
X141565142Y-114641333D01*
X141612761Y-114736571D01*
X141612761Y-114831809D01*
X141136571Y-114927047D01*
X142041333Y-115260380D02*
X142041333Y-114593714D01*
X142041333Y-114784190D02*
X142088952Y-114688952D01*
X142136571Y-114641333D01*
X142231809Y-114593714D01*
X142327047Y-114593714D01*
X160758476Y-114974666D02*
X161234666Y-114974666D01*
X160663238Y-115260380D02*
X160996571Y-114260380D01*
X161329904Y-115260380D01*
X161663238Y-114593714D02*
X161663238Y-115260380D01*
X161663238Y-114688952D02*
X161710857Y-114641333D01*
X161806095Y-114593714D01*
X161948952Y-114593714D01*
X162044190Y-114641333D01*
X162091809Y-114736571D01*
X162091809Y-115260380D01*
X162996571Y-115260380D02*
X162996571Y-114736571D01*
X162948952Y-114641333D01*
X162853714Y-114593714D01*
X162663238Y-114593714D01*
X162568000Y-114641333D01*
X162996571Y-115212761D02*
X162901333Y-115260380D01*
X162663238Y-115260380D01*
X162568000Y-115212761D01*
X162520380Y-115117523D01*
X162520380Y-115022285D01*
X162568000Y-114927047D01*
X162663238Y-114879428D01*
X162901333Y-114879428D01*
X162996571Y-114831809D01*
X163615619Y-115260380D02*
X163520380Y-115212761D01*
X163472761Y-115117523D01*
X163472761Y-114260380D01*
X164139428Y-115260380D02*
X164044190Y-115212761D01*
X163996571Y-115165142D01*
X163948952Y-115069904D01*
X163948952Y-114784190D01*
X163996571Y-114688952D01*
X164044190Y-114641333D01*
X164139428Y-114593714D01*
X164282285Y-114593714D01*
X164377523Y-114641333D01*
X164425142Y-114688952D01*
X164472761Y-114784190D01*
X164472761Y-115069904D01*
X164425142Y-115165142D01*
X164377523Y-115212761D01*
X164282285Y-115260380D01*
X164139428Y-115260380D01*
X165329904Y-114593714D02*
X165329904Y-115403238D01*
X165282285Y-115498476D01*
X165234666Y-115546095D01*
X165139428Y-115593714D01*
X164996571Y-115593714D01*
X164901333Y-115546095D01*
X165329904Y-115212761D02*
X165234666Y-115260380D01*
X165044190Y-115260380D01*
X164948952Y-115212761D01*
X164901333Y-115165142D01*
X164853714Y-115069904D01*
X164853714Y-114784190D01*
X164901333Y-114688952D01*
X164948952Y-114641333D01*
X165044190Y-114593714D01*
X165234666Y-114593714D01*
X165329904Y-114641333D01*
X183618476Y-114974666D02*
X184094666Y-114974666D01*
X183523238Y-115260380D02*
X183856571Y-114260380D01*
X184189904Y-115260380D01*
X184523238Y-114593714D02*
X184523238Y-115260380D01*
X184523238Y-114688952D02*
X184570857Y-114641333D01*
X184666095Y-114593714D01*
X184808952Y-114593714D01*
X184904190Y-114641333D01*
X184951809Y-114736571D01*
X184951809Y-115260380D01*
X185856571Y-115260380D02*
X185856571Y-114736571D01*
X185808952Y-114641333D01*
X185713714Y-114593714D01*
X185523238Y-114593714D01*
X185428000Y-114641333D01*
X185856571Y-115212761D02*
X185761333Y-115260380D01*
X185523238Y-115260380D01*
X185428000Y-115212761D01*
X185380380Y-115117523D01*
X185380380Y-115022285D01*
X185428000Y-114927047D01*
X185523238Y-114879428D01*
X185761333Y-114879428D01*
X185856571Y-114831809D01*
X186475619Y-115260380D02*
X186380380Y-115212761D01*
X186332761Y-115117523D01*
X186332761Y-114260380D01*
X186999428Y-115260380D02*
X186904190Y-115212761D01*
X186856571Y-115165142D01*
X186808952Y-115069904D01*
X186808952Y-114784190D01*
X186856571Y-114688952D01*
X186904190Y-114641333D01*
X186999428Y-114593714D01*
X187142285Y-114593714D01*
X187237523Y-114641333D01*
X187285142Y-114688952D01*
X187332761Y-114784190D01*
X187332761Y-115069904D01*
X187285142Y-115165142D01*
X187237523Y-115212761D01*
X187142285Y-115260380D01*
X186999428Y-115260380D01*
X188189904Y-114593714D02*
X188189904Y-115403238D01*
X188142285Y-115498476D01*
X188094666Y-115546095D01*
X187999428Y-115593714D01*
X187856571Y-115593714D01*
X187761333Y-115546095D01*
X188189904Y-115212761D02*
X188094666Y-115260380D01*
X187904190Y-115260380D01*
X187808952Y-115212761D01*
X187761333Y-115165142D01*
X187713714Y-115069904D01*
X187713714Y-114784190D01*
X187761333Y-114688952D01*
X187808952Y-114641333D01*
X187904190Y-114593714D01*
X188094666Y-114593714D01*
X188189904Y-114641333D01*
X132199238Y-75636380D02*
X132199238Y-74636380D01*
X132580190Y-74636380D01*
X132675428Y-74684000D01*
X132723047Y-74731619D01*
X132770666Y-74826857D01*
X132770666Y-74969714D01*
X132723047Y-75064952D01*
X132675428Y-75112571D01*
X132580190Y-75160190D01*
X132199238Y-75160190D01*
X133104000Y-74636380D02*
X133342095Y-75636380D01*
X133532571Y-74922095D01*
X133723047Y-75636380D01*
X133961142Y-74636380D01*
X134342095Y-75636380D02*
X134342095Y-74636380D01*
X134675428Y-75350666D01*
X135008761Y-74636380D01*
X135008761Y-75636380D01*
X152011238Y-74112380D02*
X152011238Y-73112380D01*
X152392190Y-73112380D01*
X152487428Y-73160000D01*
X152535047Y-73207619D01*
X152582666Y-73302857D01*
X152582666Y-73445714D01*
X152535047Y-73540952D01*
X152487428Y-73588571D01*
X152392190Y-73636190D01*
X152011238Y-73636190D01*
X152916000Y-73112380D02*
X153154095Y-74112380D01*
X153344571Y-73398095D01*
X153535047Y-74112380D01*
X153773142Y-73112380D01*
X154154095Y-74112380D02*
X154154095Y-73112380D01*
X154487428Y-73826666D01*
X154820761Y-73112380D01*
X154820761Y-74112380D01*
X175919428Y-75287142D02*
X175871809Y-75334761D01*
X175728952Y-75382380D01*
X175633714Y-75382380D01*
X175490857Y-75334761D01*
X175395619Y-75239523D01*
X175348000Y-75144285D01*
X175300380Y-74953809D01*
X175300380Y-74810952D01*
X175348000Y-74620476D01*
X175395619Y-74525238D01*
X175490857Y-74430000D01*
X175633714Y-74382380D01*
X175728952Y-74382380D01*
X175871809Y-74430000D01*
X175919428Y-74477619D01*
X176490857Y-75382380D02*
X176395619Y-75334761D01*
X176348000Y-75287142D01*
X176300380Y-75191904D01*
X176300380Y-74906190D01*
X176348000Y-74810952D01*
X176395619Y-74763333D01*
X176490857Y-74715714D01*
X176633714Y-74715714D01*
X176728952Y-74763333D01*
X176776571Y-74810952D01*
X176824190Y-74906190D01*
X176824190Y-75191904D01*
X176776571Y-75287142D01*
X176728952Y-75334761D01*
X176633714Y-75382380D01*
X176490857Y-75382380D01*
X177252761Y-75382380D02*
X177252761Y-74715714D01*
X177252761Y-74810952D02*
X177300380Y-74763333D01*
X177395619Y-74715714D01*
X177538476Y-74715714D01*
X177633714Y-74763333D01*
X177681333Y-74858571D01*
X177681333Y-75382380D01*
X177681333Y-74858571D02*
X177728952Y-74763333D01*
X177824190Y-74715714D01*
X177967047Y-74715714D01*
X178062285Y-74763333D01*
X178109904Y-74858571D01*
X178109904Y-75382380D01*
X178586095Y-75382380D02*
X178586095Y-74715714D01*
X178586095Y-74810952D02*
X178633714Y-74763333D01*
X178728952Y-74715714D01*
X178871809Y-74715714D01*
X178967047Y-74763333D01*
X179014666Y-74858571D01*
X179014666Y-75382380D01*
X179014666Y-74858571D02*
X179062285Y-74763333D01*
X179157523Y-74715714D01*
X179300380Y-74715714D01*
X179395619Y-74763333D01*
X179443238Y-74858571D01*
X179443238Y-75382380D01*
X180348000Y-74715714D02*
X180348000Y-75382380D01*
X179919428Y-74715714D02*
X179919428Y-75239523D01*
X179967047Y-75334761D01*
X180062285Y-75382380D01*
X180205142Y-75382380D01*
X180300380Y-75334761D01*
X180348000Y-75287142D01*
X180824190Y-74715714D02*
X180824190Y-75382380D01*
X180824190Y-74810952D02*
X180871809Y-74763333D01*
X180967047Y-74715714D01*
X181109904Y-74715714D01*
X181205142Y-74763333D01*
X181252761Y-74858571D01*
X181252761Y-75382380D01*
X181728952Y-75382380D02*
X181728952Y-74715714D01*
X181728952Y-74382380D02*
X181681333Y-74430000D01*
X181728952Y-74477619D01*
X181776571Y-74430000D01*
X181728952Y-74382380D01*
X181728952Y-74477619D01*
X182633714Y-75334761D02*
X182538476Y-75382380D01*
X182348000Y-75382380D01*
X182252761Y-75334761D01*
X182205142Y-75287142D01*
X182157523Y-75191904D01*
X182157523Y-74906190D01*
X182205142Y-74810952D01*
X182252761Y-74763333D01*
X182348000Y-74715714D01*
X182538476Y-74715714D01*
X182633714Y-74763333D01*
X183490857Y-75382380D02*
X183490857Y-74858571D01*
X183443238Y-74763333D01*
X183348000Y-74715714D01*
X183157523Y-74715714D01*
X183062285Y-74763333D01*
X183490857Y-75334761D02*
X183395619Y-75382380D01*
X183157523Y-75382380D01*
X183062285Y-75334761D01*
X183014666Y-75239523D01*
X183014666Y-75144285D01*
X183062285Y-75049047D01*
X183157523Y-75001428D01*
X183395619Y-75001428D01*
X183490857Y-74953809D01*
X183824190Y-74715714D02*
X184205142Y-74715714D01*
X183967047Y-74382380D02*
X183967047Y-75239523D01*
X184014666Y-75334761D01*
X184109904Y-75382380D01*
X184205142Y-75382380D01*
X184538476Y-75382380D02*
X184538476Y-74715714D01*
X184538476Y-74382380D02*
X184490857Y-74430000D01*
X184538476Y-74477619D01*
X184586095Y-74430000D01*
X184538476Y-74382380D01*
X184538476Y-74477619D01*
X185157523Y-75382380D02*
X185062285Y-75334761D01*
X185014666Y-75287142D01*
X184967047Y-75191904D01*
X184967047Y-74906190D01*
X185014666Y-74810952D01*
X185062285Y-74763333D01*
X185157523Y-74715714D01*
X185300380Y-74715714D01*
X185395619Y-74763333D01*
X185443238Y-74810952D01*
X185490857Y-74906190D01*
X185490857Y-75191904D01*
X185443238Y-75287142D01*
X185395619Y-75334761D01*
X185300380Y-75382380D01*
X185157523Y-75382380D01*
X185919428Y-74715714D02*
X185919428Y-75382380D01*
X185919428Y-74810952D02*
X185967047Y-74763333D01*
X186062285Y-74715714D01*
X186205142Y-74715714D01*
X186300380Y-74763333D01*
X186348000Y-74858571D01*
X186348000Y-75382380D01*
X143947190Y-93135761D02*
X144090047Y-93183380D01*
X144328142Y-93183380D01*
X144423380Y-93135761D01*
X144471000Y-93088142D01*
X144518619Y-92992904D01*
X144518619Y-92897666D01*
X144471000Y-92802428D01*
X144423380Y-92754809D01*
X144328142Y-92707190D01*
X144137666Y-92659571D01*
X144042428Y-92611952D01*
X143994809Y-92564333D01*
X143947190Y-92469095D01*
X143947190Y-92373857D01*
X143994809Y-92278619D01*
X144042428Y-92231000D01*
X144137666Y-92183380D01*
X144375761Y-92183380D01*
X144518619Y-92231000D01*
X144947190Y-93183380D02*
X144947190Y-92183380D01*
X145518619Y-93183380D01*
X145518619Y-92183380D01*
X145899571Y-92183380D02*
X146566238Y-92183380D01*
X146137666Y-93183380D01*
X147375761Y-92516714D02*
X147375761Y-93183380D01*
X147137666Y-92135761D02*
X146899571Y-92850047D01*
X147518619Y-92850047D01*
X148375761Y-93183380D02*
X147899571Y-93183380D01*
X147899571Y-92183380D01*
X148566238Y-92183380D02*
X148899571Y-93183380D01*
X149232904Y-92183380D01*
X150137666Y-93088142D02*
X150090047Y-93135761D01*
X149947190Y-93183380D01*
X149851952Y-93183380D01*
X149709095Y-93135761D01*
X149613857Y-93040523D01*
X149566238Y-92945285D01*
X149518619Y-92754809D01*
X149518619Y-92611952D01*
X149566238Y-92421476D01*
X149613857Y-92326238D01*
X149709095Y-92231000D01*
X149851952Y-92183380D01*
X149947190Y-92183380D01*
X150090047Y-92231000D01*
X150137666Y-92278619D01*
X150518619Y-92278619D02*
X150566238Y-92231000D01*
X150661476Y-92183380D01*
X150899571Y-92183380D01*
X150994809Y-92231000D01*
X151042428Y-92278619D01*
X151090047Y-92373857D01*
X151090047Y-92469095D01*
X151042428Y-92611952D01*
X150471000Y-93183380D01*
X151090047Y-93183380D01*
X152042428Y-92231000D02*
X151947190Y-92183380D01*
X151804333Y-92183380D01*
X151661476Y-92231000D01*
X151566238Y-92326238D01*
X151518619Y-92421476D01*
X151471000Y-92611952D01*
X151471000Y-92754809D01*
X151518619Y-92945285D01*
X151566238Y-93040523D01*
X151661476Y-93135761D01*
X151804333Y-93183380D01*
X151899571Y-93183380D01*
X152042428Y-93135761D01*
X152090047Y-93088142D01*
X152090047Y-92754809D01*
X151899571Y-92754809D01*
X153042428Y-93183380D02*
X152471000Y-93183380D01*
X152756714Y-93183380D02*
X152756714Y-92183380D01*
X152661476Y-92326238D01*
X152566238Y-92421476D01*
X152471000Y-92469095D01*
X153375761Y-92183380D02*
X154042428Y-92183380D01*
X153613857Y-93183380D01*
D14*
X148697190Y-96011952D02*
X149101952Y-96011952D01*
X149149571Y-95988142D01*
X149173380Y-95964333D01*
X149197190Y-95916714D01*
X149197190Y-95821476D01*
X149173380Y-95773857D01*
X149149571Y-95750047D01*
X149101952Y-95726238D01*
X148697190Y-95726238D01*
X148697190Y-95535761D02*
X148697190Y-95226238D01*
X148887666Y-95392904D01*
X148887666Y-95321476D01*
X148911476Y-95273857D01*
X148935285Y-95250047D01*
X148982904Y-95226238D01*
X149101952Y-95226238D01*
X149149571Y-95250047D01*
X149173380Y-95273857D01*
X149197190Y-95321476D01*
X149197190Y-95464333D01*
X149173380Y-95511952D01*
X149149571Y-95535761D01*
D11*
X140748142Y-80716380D02*
X140748142Y-79716380D01*
X141081476Y-80430666D01*
X141414809Y-79716380D01*
X141414809Y-80716380D01*
X141843380Y-80430666D02*
X142319571Y-80430666D01*
X141748142Y-80716380D02*
X142081476Y-79716380D01*
X142414809Y-80716380D01*
X142652904Y-79716380D02*
X143319571Y-80716380D01*
X143319571Y-79716380D02*
X142652904Y-80716380D01*
X144129095Y-80049714D02*
X144129095Y-80716380D01*
X143891000Y-79668761D02*
X143652904Y-80383047D01*
X144271952Y-80383047D01*
X145081476Y-79716380D02*
X144891000Y-79716380D01*
X144795761Y-79764000D01*
X144748142Y-79811619D01*
X144652904Y-79954476D01*
X144605285Y-80144952D01*
X144605285Y-80525904D01*
X144652904Y-80621142D01*
X144700523Y-80668761D01*
X144795761Y-80716380D01*
X144986238Y-80716380D01*
X145081476Y-80668761D01*
X145129095Y-80621142D01*
X145176714Y-80525904D01*
X145176714Y-80287809D01*
X145129095Y-80192571D01*
X145081476Y-80144952D01*
X144986238Y-80097333D01*
X144795761Y-80097333D01*
X144700523Y-80144952D01*
X144652904Y-80192571D01*
X144605285Y-80287809D01*
X146129095Y-80716380D02*
X145557666Y-80716380D01*
X145843380Y-80716380D02*
X145843380Y-79716380D01*
X145748142Y-79859238D01*
X145652904Y-79954476D01*
X145557666Y-80002095D01*
X146700523Y-80144952D02*
X146605285Y-80097333D01*
X146557666Y-80049714D01*
X146510047Y-79954476D01*
X146510047Y-79906857D01*
X146557666Y-79811619D01*
X146605285Y-79764000D01*
X146700523Y-79716380D01*
X146891000Y-79716380D01*
X146986238Y-79764000D01*
X147033857Y-79811619D01*
X147081476Y-79906857D01*
X147081476Y-79954476D01*
X147033857Y-80049714D01*
X146986238Y-80097333D01*
X146891000Y-80144952D01*
X146700523Y-80144952D01*
X146605285Y-80192571D01*
X146557666Y-80240190D01*
X146510047Y-80335428D01*
X146510047Y-80525904D01*
X146557666Y-80621142D01*
X146605285Y-80668761D01*
X146700523Y-80716380D01*
X146891000Y-80716380D01*
X146986238Y-80668761D01*
X147033857Y-80621142D01*
X147081476Y-80525904D01*
X147081476Y-80335428D01*
X147033857Y-80240190D01*
X146986238Y-80192571D01*
X146891000Y-80144952D01*
X170593142Y-87828380D02*
X170593142Y-86828380D01*
X170926476Y-87542666D01*
X171259809Y-86828380D01*
X171259809Y-87828380D01*
X171688380Y-87542666D02*
X172164571Y-87542666D01*
X171593142Y-87828380D02*
X171926476Y-86828380D01*
X172259809Y-87828380D01*
X172497904Y-86828380D02*
X173164571Y-87828380D01*
X173164571Y-86828380D02*
X172497904Y-87828380D01*
X173974095Y-87161714D02*
X173974095Y-87828380D01*
X173736000Y-86780761D02*
X173497904Y-87495047D01*
X174116952Y-87495047D01*
X174926476Y-86828380D02*
X174736000Y-86828380D01*
X174640761Y-86876000D01*
X174593142Y-86923619D01*
X174497904Y-87066476D01*
X174450285Y-87256952D01*
X174450285Y-87637904D01*
X174497904Y-87733142D01*
X174545523Y-87780761D01*
X174640761Y-87828380D01*
X174831238Y-87828380D01*
X174926476Y-87780761D01*
X174974095Y-87733142D01*
X175021714Y-87637904D01*
X175021714Y-87399809D01*
X174974095Y-87304571D01*
X174926476Y-87256952D01*
X174831238Y-87209333D01*
X174640761Y-87209333D01*
X174545523Y-87256952D01*
X174497904Y-87304571D01*
X174450285Y-87399809D01*
X175974095Y-87828380D02*
X175402666Y-87828380D01*
X175688380Y-87828380D02*
X175688380Y-86828380D01*
X175593142Y-86971238D01*
X175497904Y-87066476D01*
X175402666Y-87114095D01*
X176831238Y-87161714D02*
X176831238Y-87828380D01*
X176593142Y-86780761D02*
X176355047Y-87495047D01*
X176974095Y-87495047D01*
X155099142Y-87701380D02*
X155099142Y-86701380D01*
X155432476Y-87415666D01*
X155765809Y-86701380D01*
X155765809Y-87701380D01*
X156194380Y-87415666D02*
X156670571Y-87415666D01*
X156099142Y-87701380D02*
X156432476Y-86701380D01*
X156765809Y-87701380D01*
X157003904Y-86701380D02*
X157670571Y-87701380D01*
X157670571Y-86701380D02*
X157003904Y-87701380D01*
X158480095Y-87034714D02*
X158480095Y-87701380D01*
X158242000Y-86653761D02*
X158003904Y-87368047D01*
X158622952Y-87368047D01*
X159432476Y-86701380D02*
X159242000Y-86701380D01*
X159146761Y-86749000D01*
X159099142Y-86796619D01*
X159003904Y-86939476D01*
X158956285Y-87129952D01*
X158956285Y-87510904D01*
X159003904Y-87606142D01*
X159051523Y-87653761D01*
X159146761Y-87701380D01*
X159337238Y-87701380D01*
X159432476Y-87653761D01*
X159480095Y-87606142D01*
X159527714Y-87510904D01*
X159527714Y-87272809D01*
X159480095Y-87177571D01*
X159432476Y-87129952D01*
X159337238Y-87082333D01*
X159146761Y-87082333D01*
X159051523Y-87129952D01*
X159003904Y-87177571D01*
X158956285Y-87272809D01*
X160480095Y-87701380D02*
X159908666Y-87701380D01*
X160194380Y-87701380D02*
X160194380Y-86701380D01*
X160099142Y-86844238D01*
X160003904Y-86939476D01*
X159908666Y-86987095D01*
X161337238Y-87034714D02*
X161337238Y-87701380D01*
X161099142Y-86653761D02*
X160861047Y-87368047D01*
X161480095Y-87368047D01*
X147645380Y-89050666D02*
X147645380Y-89622095D01*
X147645380Y-89336380D02*
X146645380Y-89336380D01*
X146788238Y-89431619D01*
X146883476Y-89526857D01*
X146931095Y-89622095D01*
X146645380Y-88431619D02*
X146645380Y-88336380D01*
X146693000Y-88241142D01*
X146740619Y-88193523D01*
X146835857Y-88145904D01*
X147026333Y-88098285D01*
X147264428Y-88098285D01*
X147454904Y-88145904D01*
X147550142Y-88193523D01*
X147597761Y-88241142D01*
X147645380Y-88336380D01*
X147645380Y-88431619D01*
X147597761Y-88526857D01*
X147550142Y-88574476D01*
X147454904Y-88622095D01*
X147264428Y-88669714D01*
X147026333Y-88669714D01*
X146835857Y-88622095D01*
X146740619Y-88574476D01*
X146693000Y-88526857D01*
X146645380Y-88431619D01*
X146645380Y-87479238D02*
X146645380Y-87384000D01*
X146693000Y-87288761D01*
X146740619Y-87241142D01*
X146835857Y-87193523D01*
X147026333Y-87145904D01*
X147264428Y-87145904D01*
X147454904Y-87193523D01*
X147550142Y-87241142D01*
X147597761Y-87288761D01*
X147645380Y-87384000D01*
X147645380Y-87479238D01*
X147597761Y-87574476D01*
X147550142Y-87622095D01*
X147454904Y-87669714D01*
X147264428Y-87717333D01*
X147026333Y-87717333D01*
X146835857Y-87669714D01*
X146740619Y-87622095D01*
X146693000Y-87574476D01*
X146645380Y-87479238D01*
X147645380Y-86717333D02*
X146645380Y-86717333D01*
X147645380Y-86145904D02*
X147073952Y-86574476D01*
X146645380Y-86145904D02*
X147216809Y-86717333D01*
X136850523Y-87066380D02*
X136279095Y-87066380D01*
X136564809Y-87066380D02*
X136564809Y-86066380D01*
X136469571Y-86209238D01*
X136374333Y-86304476D01*
X136279095Y-86352095D01*
X137469571Y-86066380D02*
X137564809Y-86066380D01*
X137660047Y-86114000D01*
X137707666Y-86161619D01*
X137755285Y-86256857D01*
X137802904Y-86447333D01*
X137802904Y-86685428D01*
X137755285Y-86875904D01*
X137707666Y-86971142D01*
X137660047Y-87018761D01*
X137564809Y-87066380D01*
X137469571Y-87066380D01*
X137374333Y-87018761D01*
X137326714Y-86971142D01*
X137279095Y-86875904D01*
X137231476Y-86685428D01*
X137231476Y-86447333D01*
X137279095Y-86256857D01*
X137326714Y-86161619D01*
X137374333Y-86114000D01*
X137469571Y-86066380D01*
X138231476Y-87066380D02*
X138231476Y-86066380D01*
X138802904Y-87066380D02*
X138374333Y-86494952D01*
X138802904Y-86066380D02*
X138231476Y-86637809D01*
X185110380Y-78668476D02*
X185110380Y-79239904D01*
X185110380Y-78954190D02*
X184110380Y-78954190D01*
X184253238Y-79049428D01*
X184348476Y-79144666D01*
X184396095Y-79239904D01*
X184110380Y-78049428D02*
X184110380Y-77954190D01*
X184158000Y-77858952D01*
X184205619Y-77811333D01*
X184300857Y-77763714D01*
X184491333Y-77716095D01*
X184729428Y-77716095D01*
X184919904Y-77763714D01*
X185015142Y-77811333D01*
X185062761Y-77858952D01*
X185110380Y-77954190D01*
X185110380Y-78049428D01*
X185062761Y-78144666D01*
X185015142Y-78192285D01*
X184919904Y-78239904D01*
X184729428Y-78287523D01*
X184491333Y-78287523D01*
X184300857Y-78239904D01*
X184205619Y-78192285D01*
X184158000Y-78144666D01*
X184110380Y-78049428D01*
X185110380Y-77287523D02*
X184110380Y-77287523D01*
X185110380Y-76716095D02*
X184538952Y-77144666D01*
X184110380Y-76716095D02*
X184681809Y-77287523D01*
X180808380Y-78954190D02*
X180808380Y-79430380D01*
X181284571Y-79478000D01*
X181236952Y-79430380D01*
X181189333Y-79335142D01*
X181189333Y-79097047D01*
X181236952Y-79001809D01*
X181284571Y-78954190D01*
X181379809Y-78906571D01*
X181617904Y-78906571D01*
X181713142Y-78954190D01*
X181760761Y-79001809D01*
X181808380Y-79097047D01*
X181808380Y-79335142D01*
X181760761Y-79430380D01*
X181713142Y-79478000D01*
X181713142Y-78478000D02*
X181760761Y-78430380D01*
X181808380Y-78478000D01*
X181760761Y-78525619D01*
X181713142Y-78478000D01*
X181808380Y-78478000D01*
X181808380Y-77478000D02*
X181808380Y-78049428D01*
X181808380Y-77763714D02*
X180808380Y-77763714D01*
X180951238Y-77858952D01*
X181046476Y-77954190D01*
X181094095Y-78049428D01*
X181808380Y-77049428D02*
X180808380Y-77049428D01*
X181808380Y-76478000D02*
X181236952Y-76906571D01*
X180808380Y-76478000D02*
X181379809Y-77049428D01*
X155138380Y-94797476D02*
X155138380Y-95368904D01*
X155138380Y-95083190D02*
X154138380Y-95083190D01*
X154281238Y-95178428D01*
X154376476Y-95273666D01*
X154424095Y-95368904D01*
X154138380Y-94178428D02*
X154138380Y-94083190D01*
X154186000Y-93987952D01*
X154233619Y-93940333D01*
X154328857Y-93892714D01*
X154519333Y-93845095D01*
X154757428Y-93845095D01*
X154947904Y-93892714D01*
X155043142Y-93940333D01*
X155090761Y-93987952D01*
X155138380Y-94083190D01*
X155138380Y-94178428D01*
X155090761Y-94273666D01*
X155043142Y-94321285D01*
X154947904Y-94368904D01*
X154757428Y-94416523D01*
X154519333Y-94416523D01*
X154328857Y-94368904D01*
X154233619Y-94321285D01*
X154186000Y-94273666D01*
X154138380Y-94178428D01*
X155138380Y-93416523D02*
X154138380Y-93416523D01*
X155138380Y-92845095D02*
X154566952Y-93273666D01*
X154138380Y-92845095D02*
X154709809Y-93416523D01*
X161504380Y-79335190D02*
X161504380Y-79811380D01*
X161980571Y-79859000D01*
X161932952Y-79811380D01*
X161885333Y-79716142D01*
X161885333Y-79478047D01*
X161932952Y-79382809D01*
X161980571Y-79335190D01*
X162075809Y-79287571D01*
X162313904Y-79287571D01*
X162409142Y-79335190D01*
X162456761Y-79382809D01*
X162504380Y-79478047D01*
X162504380Y-79716142D01*
X162456761Y-79811380D01*
X162409142Y-79859000D01*
X162409142Y-78859000D02*
X162456761Y-78811380D01*
X162504380Y-78859000D01*
X162456761Y-78906619D01*
X162409142Y-78859000D01*
X162504380Y-78859000D01*
X162504380Y-77859000D02*
X162504380Y-78430428D01*
X162504380Y-78144714D02*
X161504380Y-78144714D01*
X161647238Y-78239952D01*
X161742476Y-78335190D01*
X161790095Y-78430428D01*
X162504380Y-77430428D02*
X161504380Y-77430428D01*
X162504380Y-76859000D02*
X161932952Y-77287571D01*
X161504380Y-76859000D02*
X162075809Y-77430428D01*
X187539380Y-78874809D02*
X187539380Y-79065285D01*
X187587000Y-79160523D01*
X187634619Y-79208142D01*
X187777476Y-79303380D01*
X187967952Y-79351000D01*
X188348904Y-79351000D01*
X188444142Y-79303380D01*
X188491761Y-79255761D01*
X188539380Y-79160523D01*
X188539380Y-78970047D01*
X188491761Y-78874809D01*
X188444142Y-78827190D01*
X188348904Y-78779571D01*
X188110809Y-78779571D01*
X188015571Y-78827190D01*
X187967952Y-78874809D01*
X187920333Y-78970047D01*
X187920333Y-79160523D01*
X187967952Y-79255761D01*
X188015571Y-79303380D01*
X188110809Y-79351000D01*
X188444142Y-78351000D02*
X188491761Y-78303380D01*
X188539380Y-78351000D01*
X188491761Y-78398619D01*
X188444142Y-78351000D01*
X188539380Y-78351000D01*
X187967952Y-77731952D02*
X187920333Y-77827190D01*
X187872714Y-77874809D01*
X187777476Y-77922428D01*
X187729857Y-77922428D01*
X187634619Y-77874809D01*
X187587000Y-77827190D01*
X187539380Y-77731952D01*
X187539380Y-77541476D01*
X187587000Y-77446238D01*
X187634619Y-77398619D01*
X187729857Y-77351000D01*
X187777476Y-77351000D01*
X187872714Y-77398619D01*
X187920333Y-77446238D01*
X187967952Y-77541476D01*
X187967952Y-77731952D01*
X188015571Y-77827190D01*
X188063190Y-77874809D01*
X188158428Y-77922428D01*
X188348904Y-77922428D01*
X188444142Y-77874809D01*
X188491761Y-77827190D01*
X188539380Y-77731952D01*
X188539380Y-77541476D01*
X188491761Y-77446238D01*
X188444142Y-77398619D01*
X188348904Y-77351000D01*
X188158428Y-77351000D01*
X188063190Y-77398619D01*
X188015571Y-77446238D01*
X187967952Y-77541476D01*
X188539380Y-76922428D02*
X187539380Y-76922428D01*
X188539380Y-76351000D02*
X187967952Y-76779571D01*
X187539380Y-76351000D02*
X188110809Y-76922428D01*
X158456380Y-95130809D02*
X158456380Y-95321285D01*
X158504000Y-95416523D01*
X158551619Y-95464142D01*
X158694476Y-95559380D01*
X158884952Y-95607000D01*
X159265904Y-95607000D01*
X159361142Y-95559380D01*
X159408761Y-95511761D01*
X159456380Y-95416523D01*
X159456380Y-95226047D01*
X159408761Y-95130809D01*
X159361142Y-95083190D01*
X159265904Y-95035571D01*
X159027809Y-95035571D01*
X158932571Y-95083190D01*
X158884952Y-95130809D01*
X158837333Y-95226047D01*
X158837333Y-95416523D01*
X158884952Y-95511761D01*
X158932571Y-95559380D01*
X159027809Y-95607000D01*
X159361142Y-94607000D02*
X159408761Y-94559380D01*
X159456380Y-94607000D01*
X159408761Y-94654619D01*
X159361142Y-94607000D01*
X159456380Y-94607000D01*
X158884952Y-93987952D02*
X158837333Y-94083190D01*
X158789714Y-94130809D01*
X158694476Y-94178428D01*
X158646857Y-94178428D01*
X158551619Y-94130809D01*
X158504000Y-94083190D01*
X158456380Y-93987952D01*
X158456380Y-93797476D01*
X158504000Y-93702238D01*
X158551619Y-93654619D01*
X158646857Y-93607000D01*
X158694476Y-93607000D01*
X158789714Y-93654619D01*
X158837333Y-93702238D01*
X158884952Y-93797476D01*
X158884952Y-93987952D01*
X158932571Y-94083190D01*
X158980190Y-94130809D01*
X159075428Y-94178428D01*
X159265904Y-94178428D01*
X159361142Y-94130809D01*
X159408761Y-94083190D01*
X159456380Y-93987952D01*
X159456380Y-93797476D01*
X159408761Y-93702238D01*
X159361142Y-93654619D01*
X159265904Y-93607000D01*
X159075428Y-93607000D01*
X158980190Y-93654619D01*
X158932571Y-93702238D01*
X158884952Y-93797476D01*
X159456380Y-93178428D02*
X158456380Y-93178428D01*
X159456380Y-92607000D02*
X158884952Y-93035571D01*
X158456380Y-92607000D02*
X159027809Y-93178428D01*
X143327380Y-88701476D02*
X143327380Y-89272904D01*
X143327380Y-88987190D02*
X142327380Y-88987190D01*
X142470238Y-89082428D01*
X142565476Y-89177666D01*
X142613095Y-89272904D01*
X142327380Y-88082428D02*
X142327380Y-87987190D01*
X142375000Y-87891952D01*
X142422619Y-87844333D01*
X142517857Y-87796714D01*
X142708333Y-87749095D01*
X142946428Y-87749095D01*
X143136904Y-87796714D01*
X143232142Y-87844333D01*
X143279761Y-87891952D01*
X143327380Y-87987190D01*
X143327380Y-88082428D01*
X143279761Y-88177666D01*
X143232142Y-88225285D01*
X143136904Y-88272904D01*
X142946428Y-88320523D01*
X142708333Y-88320523D01*
X142517857Y-88272904D01*
X142422619Y-88225285D01*
X142375000Y-88177666D01*
X142327380Y-88082428D01*
X143327380Y-87320523D02*
X142327380Y-87320523D01*
X143327380Y-86749095D02*
X142755952Y-87177666D01*
X142327380Y-86749095D02*
X142898809Y-87320523D01*
X177490380Y-79271666D02*
X177490380Y-79843095D01*
X177490380Y-79557380D02*
X176490380Y-79557380D01*
X176633238Y-79652619D01*
X176728476Y-79747857D01*
X176776095Y-79843095D01*
X176490380Y-78652619D02*
X176490380Y-78557380D01*
X176538000Y-78462142D01*
X176585619Y-78414523D01*
X176680857Y-78366904D01*
X176871333Y-78319285D01*
X177109428Y-78319285D01*
X177299904Y-78366904D01*
X177395142Y-78414523D01*
X177442761Y-78462142D01*
X177490380Y-78557380D01*
X177490380Y-78652619D01*
X177442761Y-78747857D01*
X177395142Y-78795476D01*
X177299904Y-78843095D01*
X177109428Y-78890714D01*
X176871333Y-78890714D01*
X176680857Y-78843095D01*
X176585619Y-78795476D01*
X176538000Y-78747857D01*
X176490380Y-78652619D01*
X176490380Y-77700238D02*
X176490380Y-77605000D01*
X176538000Y-77509761D01*
X176585619Y-77462142D01*
X176680857Y-77414523D01*
X176871333Y-77366904D01*
X177109428Y-77366904D01*
X177299904Y-77414523D01*
X177395142Y-77462142D01*
X177442761Y-77509761D01*
X177490380Y-77605000D01*
X177490380Y-77700238D01*
X177442761Y-77795476D01*
X177395142Y-77843095D01*
X177299904Y-77890714D01*
X177109428Y-77938333D01*
X176871333Y-77938333D01*
X176680857Y-77890714D01*
X176585619Y-77843095D01*
X176538000Y-77795476D01*
X176490380Y-77700238D01*
X177490380Y-76938333D02*
X176490380Y-76938333D01*
X177490380Y-76366904D02*
X176918952Y-76795476D01*
X176490380Y-76366904D02*
X177061809Y-76938333D01*
X157932380Y-79525666D02*
X157932380Y-80097095D01*
X157932380Y-79811380D02*
X156932380Y-79811380D01*
X157075238Y-79906619D01*
X157170476Y-80001857D01*
X157218095Y-80097095D01*
X156932380Y-78906619D02*
X156932380Y-78811380D01*
X156980000Y-78716142D01*
X157027619Y-78668523D01*
X157122857Y-78620904D01*
X157313333Y-78573285D01*
X157551428Y-78573285D01*
X157741904Y-78620904D01*
X157837142Y-78668523D01*
X157884761Y-78716142D01*
X157932380Y-78811380D01*
X157932380Y-78906619D01*
X157884761Y-79001857D01*
X157837142Y-79049476D01*
X157741904Y-79097095D01*
X157551428Y-79144714D01*
X157313333Y-79144714D01*
X157122857Y-79097095D01*
X157027619Y-79049476D01*
X156980000Y-79001857D01*
X156932380Y-78906619D01*
X156932380Y-77954238D02*
X156932380Y-77859000D01*
X156980000Y-77763761D01*
X157027619Y-77716142D01*
X157122857Y-77668523D01*
X157313333Y-77620904D01*
X157551428Y-77620904D01*
X157741904Y-77668523D01*
X157837142Y-77716142D01*
X157884761Y-77763761D01*
X157932380Y-77859000D01*
X157932380Y-77954238D01*
X157884761Y-78049476D01*
X157837142Y-78097095D01*
X157741904Y-78144714D01*
X157551428Y-78192333D01*
X157313333Y-78192333D01*
X157122857Y-78144714D01*
X157027619Y-78097095D01*
X156980000Y-78049476D01*
X156932380Y-77954238D01*
X157932380Y-77192333D02*
X156932380Y-77192333D01*
X157932380Y-76620904D02*
X157360952Y-77049476D01*
X156932380Y-76620904D02*
X157503809Y-77192333D01*
X122680761Y-94625952D02*
X122728380Y-94483095D01*
X122728380Y-94245000D01*
X122680761Y-94149761D01*
X122633142Y-94102142D01*
X122537904Y-94054523D01*
X122442666Y-94054523D01*
X122347428Y-94102142D01*
X122299809Y-94149761D01*
X122252190Y-94245000D01*
X122204571Y-94435476D01*
X122156952Y-94530714D01*
X122109333Y-94578333D01*
X122014095Y-94625952D01*
X121918857Y-94625952D01*
X121823619Y-94578333D01*
X121776000Y-94530714D01*
X121728380Y-94435476D01*
X121728380Y-94197380D01*
X121776000Y-94054523D01*
X122728380Y-93625952D02*
X121728380Y-93625952D01*
X121728380Y-93387857D01*
X121776000Y-93245000D01*
X121871238Y-93149761D01*
X121966476Y-93102142D01*
X122156952Y-93054523D01*
X122299809Y-93054523D01*
X122490285Y-93102142D01*
X122585523Y-93149761D01*
X122680761Y-93245000D01*
X122728380Y-93387857D01*
X122728380Y-93625952D01*
X122823619Y-92864047D02*
X122823619Y-92102142D01*
X122633142Y-91292619D02*
X122680761Y-91340238D01*
X122728380Y-91483095D01*
X122728380Y-91578333D01*
X122680761Y-91721190D01*
X122585523Y-91816428D01*
X122490285Y-91864047D01*
X122299809Y-91911666D01*
X122156952Y-91911666D01*
X121966476Y-91864047D01*
X121871238Y-91816428D01*
X121776000Y-91721190D01*
X121728380Y-91578333D01*
X121728380Y-91483095D01*
X121776000Y-91340238D01*
X121823619Y-91292619D01*
X122728380Y-90435476D02*
X122204571Y-90435476D01*
X122109333Y-90483095D01*
X122061714Y-90578333D01*
X122061714Y-90768809D01*
X122109333Y-90864047D01*
X122680761Y-90435476D02*
X122728380Y-90530714D01*
X122728380Y-90768809D01*
X122680761Y-90864047D01*
X122585523Y-90911666D01*
X122490285Y-90911666D01*
X122395047Y-90864047D01*
X122347428Y-90768809D01*
X122347428Y-90530714D01*
X122299809Y-90435476D01*
X122728380Y-89959285D02*
X122061714Y-89959285D01*
X122252190Y-89959285D02*
X122156952Y-89911666D01*
X122109333Y-89864047D01*
X122061714Y-89768809D01*
X122061714Y-89673571D01*
X122728380Y-88911666D02*
X121728380Y-88911666D01*
X122680761Y-88911666D02*
X122728380Y-89006904D01*
X122728380Y-89197380D01*
X122680761Y-89292619D01*
X122633142Y-89340238D01*
X122537904Y-89387857D01*
X122252190Y-89387857D01*
X122156952Y-89340238D01*
X122109333Y-89292619D01*
X122061714Y-89197380D01*
X122061714Y-89006904D01*
X122109333Y-88911666D01*
X135707523Y-96083380D02*
X135136095Y-96083380D01*
X135421809Y-96083380D02*
X135421809Y-95083380D01*
X135326571Y-95226238D01*
X135231333Y-95321476D01*
X135136095Y-95369095D01*
X136326571Y-95083380D02*
X136421809Y-95083380D01*
X136517047Y-95131000D01*
X136564666Y-95178619D01*
X136612285Y-95273857D01*
X136659904Y-95464333D01*
X136659904Y-95702428D01*
X136612285Y-95892904D01*
X136564666Y-95988142D01*
X136517047Y-96035761D01*
X136421809Y-96083380D01*
X136326571Y-96083380D01*
X136231333Y-96035761D01*
X136183714Y-95988142D01*
X136136095Y-95892904D01*
X136088476Y-95702428D01*
X136088476Y-95464333D01*
X136136095Y-95273857D01*
X136183714Y-95178619D01*
X136231333Y-95131000D01*
X136326571Y-95083380D01*
X137088476Y-96083380D02*
X137088476Y-95083380D01*
X137659904Y-96083380D02*
X137231333Y-95511952D01*
X137659904Y-95083380D02*
X137088476Y-95654809D01*
X152979380Y-103020666D02*
X152979380Y-103592095D01*
X152979380Y-103306380D02*
X151979380Y-103306380D01*
X152122238Y-103401619D01*
X152217476Y-103496857D01*
X152265095Y-103592095D01*
X151979380Y-102401619D02*
X151979380Y-102306380D01*
X152027000Y-102211142D01*
X152074619Y-102163523D01*
X152169857Y-102115904D01*
X152360333Y-102068285D01*
X152598428Y-102068285D01*
X152788904Y-102115904D01*
X152884142Y-102163523D01*
X152931761Y-102211142D01*
X152979380Y-102306380D01*
X152979380Y-102401619D01*
X152931761Y-102496857D01*
X152884142Y-102544476D01*
X152788904Y-102592095D01*
X152598428Y-102639714D01*
X152360333Y-102639714D01*
X152169857Y-102592095D01*
X152074619Y-102544476D01*
X152027000Y-102496857D01*
X151979380Y-102401619D01*
X151979380Y-101449238D02*
X151979380Y-101354000D01*
X152027000Y-101258761D01*
X152074619Y-101211142D01*
X152169857Y-101163523D01*
X152360333Y-101115904D01*
X152598428Y-101115904D01*
X152788904Y-101163523D01*
X152884142Y-101211142D01*
X152931761Y-101258761D01*
X152979380Y-101354000D01*
X152979380Y-101449238D01*
X152931761Y-101544476D01*
X152884142Y-101592095D01*
X152788904Y-101639714D01*
X152598428Y-101687333D01*
X152360333Y-101687333D01*
X152169857Y-101639714D01*
X152074619Y-101592095D01*
X152027000Y-101544476D01*
X151979380Y-101449238D01*
X152979380Y-100687333D02*
X151979380Y-100687333D01*
X152979380Y-100115904D02*
X152407952Y-100544476D01*
X151979380Y-100115904D02*
X152550809Y-100687333D01*
X137724190Y-93135761D02*
X137867047Y-93183380D01*
X138105142Y-93183380D01*
X138200380Y-93135761D01*
X138248000Y-93088142D01*
X138295619Y-92992904D01*
X138295619Y-92897666D01*
X138248000Y-92802428D01*
X138200380Y-92754809D01*
X138105142Y-92707190D01*
X137914666Y-92659571D01*
X137819428Y-92611952D01*
X137771809Y-92564333D01*
X137724190Y-92469095D01*
X137724190Y-92373857D01*
X137771809Y-92278619D01*
X137819428Y-92231000D01*
X137914666Y-92183380D01*
X138152761Y-92183380D01*
X138295619Y-92231000D01*
X138724190Y-93183380D02*
X138724190Y-92183380D01*
X139295619Y-93183380D01*
X139295619Y-92183380D01*
X139676571Y-92183380D02*
X140343238Y-92183380D01*
X139914666Y-93183380D01*
X141152761Y-92516714D02*
X141152761Y-93183380D01*
X140914666Y-92135761D02*
X140676571Y-92850047D01*
X141295619Y-92850047D01*
X142152761Y-93183380D02*
X141676571Y-93183380D01*
X141676571Y-92183380D01*
X142343238Y-92183380D02*
X142676571Y-93183380D01*
X143009904Y-92183380D01*
X143914666Y-93088142D02*
X143867047Y-93135761D01*
X143724190Y-93183380D01*
X143628952Y-93183380D01*
X143486095Y-93135761D01*
X143390857Y-93040523D01*
X143343238Y-92945285D01*
X143295619Y-92754809D01*
X143295619Y-92611952D01*
X143343238Y-92421476D01*
X143390857Y-92326238D01*
X143486095Y-92231000D01*
X143628952Y-92183380D01*
X143724190Y-92183380D01*
X143867047Y-92231000D01*
X143914666Y-92278619D01*
X144295619Y-92278619D02*
X144343238Y-92231000D01*
X144438476Y-92183380D01*
X144676571Y-92183380D01*
X144771809Y-92231000D01*
X144819428Y-92278619D01*
X144867047Y-92373857D01*
X144867047Y-92469095D01*
X144819428Y-92611952D01*
X144248000Y-93183380D01*
X144867047Y-93183380D01*
X145819428Y-92231000D02*
X145724190Y-92183380D01*
X145581333Y-92183380D01*
X145438476Y-92231000D01*
X145343238Y-92326238D01*
X145295619Y-92421476D01*
X145248000Y-92611952D01*
X145248000Y-92754809D01*
X145295619Y-92945285D01*
X145343238Y-93040523D01*
X145438476Y-93135761D01*
X145581333Y-93183380D01*
X145676571Y-93183380D01*
X145819428Y-93135761D01*
X145867047Y-93088142D01*
X145867047Y-92754809D01*
X145676571Y-92754809D01*
X146819428Y-93183380D02*
X146248000Y-93183380D01*
X146533714Y-93183380D02*
X146533714Y-92183380D01*
X146438476Y-92326238D01*
X146343238Y-92421476D01*
X146248000Y-92469095D01*
X147152761Y-92183380D02*
X147819428Y-92183380D01*
X147390857Y-93183380D01*
D14*
X142474190Y-96011952D02*
X142878952Y-96011952D01*
X142926571Y-95988142D01*
X142950380Y-95964333D01*
X142974190Y-95916714D01*
X142974190Y-95821476D01*
X142950380Y-95773857D01*
X142926571Y-95750047D01*
X142878952Y-95726238D01*
X142474190Y-95726238D01*
X142474190Y-95250047D02*
X142474190Y-95488142D01*
X142712285Y-95511952D01*
X142688476Y-95488142D01*
X142664666Y-95440523D01*
X142664666Y-95321476D01*
X142688476Y-95273857D01*
X142712285Y-95250047D01*
X142759904Y-95226238D01*
X142878952Y-95226238D01*
X142926571Y-95250047D01*
X142950380Y-95273857D01*
X142974190Y-95321476D01*
X142974190Y-95440523D01*
X142950380Y-95488142D01*
X142926571Y-95511952D01*
D11*
X178601666Y-111878571D02*
X178601666Y-111402380D01*
X178887380Y-111973809D02*
X177887380Y-111640476D01*
X178887380Y-111307142D01*
X177887380Y-111116666D02*
X177887380Y-110545238D01*
X178887380Y-110830952D02*
X177887380Y-110830952D01*
X178363571Y-110211904D02*
X178363571Y-109878571D01*
X178887380Y-109735714D02*
X178887380Y-110211904D01*
X177887380Y-110211904D01*
X177887380Y-109735714D01*
X178792142Y-108735714D02*
X178839761Y-108783333D01*
X178887380Y-108926190D01*
X178887380Y-109021428D01*
X178839761Y-109164285D01*
X178744523Y-109259523D01*
X178649285Y-109307142D01*
X178458809Y-109354761D01*
X178315952Y-109354761D01*
X178125476Y-109307142D01*
X178030238Y-109259523D01*
X177935000Y-109164285D01*
X177887380Y-109021428D01*
X177887380Y-108926190D01*
X177935000Y-108783333D01*
X177982619Y-108735714D01*
X178792142Y-107735714D02*
X178839761Y-107783333D01*
X178887380Y-107926190D01*
X178887380Y-108021428D01*
X178839761Y-108164285D01*
X178744523Y-108259523D01*
X178649285Y-108307142D01*
X178458809Y-108354761D01*
X178315952Y-108354761D01*
X178125476Y-108307142D01*
X178030238Y-108259523D01*
X177935000Y-108164285D01*
X177887380Y-108021428D01*
X177887380Y-107926190D01*
X177935000Y-107783333D01*
X177982619Y-107735714D01*
X177887380Y-106830952D02*
X177887380Y-107307142D01*
X178363571Y-107354761D01*
X178315952Y-107307142D01*
X178268333Y-107211904D01*
X178268333Y-106973809D01*
X178315952Y-106878571D01*
X178363571Y-106830952D01*
X178458809Y-106783333D01*
X178696904Y-106783333D01*
X178792142Y-106830952D01*
X178839761Y-106878571D01*
X178887380Y-106973809D01*
X178887380Y-107211904D01*
X178839761Y-107307142D01*
X178792142Y-107354761D01*
X177887380Y-106164285D02*
X177887380Y-106069047D01*
X177935000Y-105973809D01*
X177982619Y-105926190D01*
X178077857Y-105878571D01*
X178268333Y-105830952D01*
X178506428Y-105830952D01*
X178696904Y-105878571D01*
X178792142Y-105926190D01*
X178839761Y-105973809D01*
X178887380Y-106069047D01*
X178887380Y-106164285D01*
X178839761Y-106259523D01*
X178792142Y-106307142D01*
X178696904Y-106354761D01*
X178506428Y-106402380D01*
X178268333Y-106402380D01*
X178077857Y-106354761D01*
X177982619Y-106307142D01*
X177935000Y-106259523D01*
X177887380Y-106164285D01*
X178315952Y-105259523D02*
X178268333Y-105354761D01*
X178220714Y-105402380D01*
X178125476Y-105450000D01*
X178077857Y-105450000D01*
X177982619Y-105402380D01*
X177935000Y-105354761D01*
X177887380Y-105259523D01*
X177887380Y-105069047D01*
X177935000Y-104973809D01*
X177982619Y-104926190D01*
X178077857Y-104878571D01*
X178125476Y-104878571D01*
X178220714Y-104926190D01*
X178268333Y-104973809D01*
X178315952Y-105069047D01*
X178315952Y-105259523D01*
X178363571Y-105354761D01*
X178411190Y-105402380D01*
X178506428Y-105450000D01*
X178696904Y-105450000D01*
X178792142Y-105402380D01*
X178839761Y-105354761D01*
X178887380Y-105259523D01*
X178887380Y-105069047D01*
X178839761Y-104973809D01*
X178792142Y-104926190D01*
X178696904Y-104878571D01*
X178506428Y-104878571D01*
X178411190Y-104926190D01*
X178363571Y-104973809D01*
X178315952Y-105069047D01*
X178601666Y-104497619D02*
X178601666Y-104021428D01*
X178887380Y-104592857D02*
X177887380Y-104259523D01*
X178887380Y-103926190D01*
X185724380Y-107814285D02*
X184724380Y-107814285D01*
X184724380Y-107576190D01*
X184772000Y-107433333D01*
X184867238Y-107338095D01*
X184962476Y-107290476D01*
X185152952Y-107242857D01*
X185295809Y-107242857D01*
X185486285Y-107290476D01*
X185581523Y-107338095D01*
X185676761Y-107433333D01*
X185724380Y-107576190D01*
X185724380Y-107814285D01*
X184724380Y-106957142D02*
X184724380Y-106385714D01*
X185724380Y-106671428D02*
X184724380Y-106671428D01*
X184819619Y-106100000D02*
X184772000Y-106052380D01*
X184724380Y-105957142D01*
X184724380Y-105719047D01*
X184772000Y-105623809D01*
X184819619Y-105576190D01*
X184914857Y-105528571D01*
X185010095Y-105528571D01*
X185152952Y-105576190D01*
X185724380Y-106147619D01*
X185724380Y-105528571D01*
X184724380Y-104909523D02*
X184724380Y-104814285D01*
X184772000Y-104719047D01*
X184819619Y-104671428D01*
X184914857Y-104623809D01*
X185105333Y-104576190D01*
X185343428Y-104576190D01*
X185533904Y-104623809D01*
X185629142Y-104671428D01*
X185676761Y-104719047D01*
X185724380Y-104814285D01*
X185724380Y-104909523D01*
X185676761Y-105004761D01*
X185629142Y-105052380D01*
X185533904Y-105100000D01*
X185343428Y-105147619D01*
X185105333Y-105147619D01*
X184914857Y-105100000D01*
X184819619Y-105052380D01*
X184772000Y-105004761D01*
X184724380Y-104909523D01*
X185057714Y-103719047D02*
X185724380Y-103719047D01*
X184676761Y-103957142D02*
X185391047Y-104195238D01*
X185391047Y-103576190D01*
X184819619Y-103242857D02*
X184772000Y-103195238D01*
X184724380Y-103100000D01*
X184724380Y-102861904D01*
X184772000Y-102766666D01*
X184819619Y-102719047D01*
X184914857Y-102671428D01*
X185010095Y-102671428D01*
X185152952Y-102719047D01*
X185724380Y-103290476D01*
X185724380Y-102671428D01*
X185343428Y-102242857D02*
X185343428Y-101480952D01*
X184724380Y-100814285D02*
X184724380Y-100719047D01*
X184772000Y-100623809D01*
X184819619Y-100576190D01*
X184914857Y-100528571D01*
X185105333Y-100480952D01*
X185343428Y-100480952D01*
X185533904Y-100528571D01*
X185629142Y-100576190D01*
X185676761Y-100623809D01*
X185724380Y-100719047D01*
X185724380Y-100814285D01*
X185676761Y-100909523D01*
X185629142Y-100957142D01*
X185533904Y-101004761D01*
X185343428Y-101052380D01*
X185105333Y-101052380D01*
X184914857Y-101004761D01*
X184819619Y-100957142D01*
X184772000Y-100909523D01*
X184724380Y-100814285D01*
X185057714Y-99623809D02*
X185724380Y-99623809D01*
X184676761Y-99861904D02*
X185391047Y-100100000D01*
X185391047Y-99480952D01*
X185676761Y-99147619D02*
X185724380Y-99004761D01*
X185724380Y-98766666D01*
X185676761Y-98671428D01*
X185629142Y-98623809D01*
X185533904Y-98576190D01*
X185438666Y-98576190D01*
X185343428Y-98623809D01*
X185295809Y-98671428D01*
X185248190Y-98766666D01*
X185200571Y-98957142D01*
X185152952Y-99052380D01*
X185105333Y-99100000D01*
X185010095Y-99147619D01*
X184914857Y-99147619D01*
X184819619Y-99100000D01*
X184772000Y-99052380D01*
X184724380Y-98957142D01*
X184724380Y-98719047D01*
X184772000Y-98576190D01*
X184724380Y-97957142D02*
X184724380Y-97766666D01*
X184772000Y-97671428D01*
X184867238Y-97576190D01*
X185057714Y-97528571D01*
X185391047Y-97528571D01*
X185581523Y-97576190D01*
X185676761Y-97671428D01*
X185724380Y-97766666D01*
X185724380Y-97957142D01*
X185676761Y-98052380D01*
X185581523Y-98147619D01*
X185391047Y-98195238D01*
X185057714Y-98195238D01*
X184867238Y-98147619D01*
X184772000Y-98052380D01*
X184724380Y-97957142D01*
X185343428Y-97100000D02*
X185343428Y-96338095D01*
X184724380Y-95957142D02*
X184724380Y-95290476D01*
X185724380Y-95719047D01*
D14*
X181991047Y-101326190D02*
X181991047Y-101730952D01*
X182014857Y-101778571D01*
X182038666Y-101802380D01*
X182086285Y-101826190D01*
X182181523Y-101826190D01*
X182229142Y-101802380D01*
X182252952Y-101778571D01*
X182276761Y-101730952D01*
X182276761Y-101326190D01*
X182467238Y-101326190D02*
X182800571Y-101326190D01*
X182586285Y-101826190D01*
D11*
X188409523Y-111252380D02*
X187838095Y-111252380D01*
X188123809Y-111252380D02*
X188123809Y-110252380D01*
X188028571Y-110395238D01*
X187933333Y-110490476D01*
X187838095Y-110538095D01*
X189028571Y-110252380D02*
X189123809Y-110252380D01*
X189219047Y-110300000D01*
X189266666Y-110347619D01*
X189314285Y-110442857D01*
X189361904Y-110633333D01*
X189361904Y-110871428D01*
X189314285Y-111061904D01*
X189266666Y-111157142D01*
X189219047Y-111204761D01*
X189123809Y-111252380D01*
X189028571Y-111252380D01*
X188933333Y-111204761D01*
X188885714Y-111157142D01*
X188838095Y-111061904D01*
X188790476Y-110871428D01*
X188790476Y-110633333D01*
X188838095Y-110442857D01*
X188885714Y-110347619D01*
X188933333Y-110300000D01*
X189028571Y-110252380D01*
X189790476Y-111252380D02*
X189790476Y-110252380D01*
X190361904Y-111252380D02*
X189933333Y-110680952D01*
X190361904Y-110252380D02*
X189790476Y-110823809D01*
X174163123Y-95295980D02*
X173591695Y-95295980D01*
X173877409Y-95295980D02*
X173877409Y-94295980D01*
X173782171Y-94438838D01*
X173686933Y-94534076D01*
X173591695Y-94581695D01*
X174782171Y-94295980D02*
X174877409Y-94295980D01*
X174972647Y-94343600D01*
X175020266Y-94391219D01*
X175067885Y-94486457D01*
X175115504Y-94676933D01*
X175115504Y-94915028D01*
X175067885Y-95105504D01*
X175020266Y-95200742D01*
X174972647Y-95248361D01*
X174877409Y-95295980D01*
X174782171Y-95295980D01*
X174686933Y-95248361D01*
X174639314Y-95200742D01*
X174591695Y-95105504D01*
X174544076Y-94915028D01*
X174544076Y-94676933D01*
X174591695Y-94486457D01*
X174639314Y-94391219D01*
X174686933Y-94343600D01*
X174782171Y-94295980D01*
X175544076Y-95295980D02*
X175544076Y-94295980D01*
X176115504Y-95295980D02*
X175686933Y-94724552D01*
X176115504Y-94295980D02*
X175544076Y-94867409D01*
X146893114Y-115622342D02*
X146940733Y-115669961D01*
X146893114Y-115717580D01*
X146845495Y-115669961D01*
X146893114Y-115622342D01*
X146893114Y-115717580D01*
X147893114Y-115717580D02*
X147321685Y-115717580D01*
X147607400Y-115717580D02*
X147607400Y-114717580D01*
X147512161Y-114860438D01*
X147416923Y-114955676D01*
X147321685Y-115003295D01*
X148750257Y-115050914D02*
X148750257Y-115717580D01*
X148321685Y-115050914D02*
X148321685Y-115574723D01*
X148369304Y-115669961D01*
X148464542Y-115717580D01*
X148607400Y-115717580D01*
X148702638Y-115669961D01*
X148750257Y-115622342D01*
X149083590Y-115050914D02*
X149464542Y-115050914D01*
X149226447Y-115717580D02*
X149226447Y-114860438D01*
X149274066Y-114765200D01*
X149369304Y-114717580D01*
X149464542Y-114717580D01*
X146607400Y-111542580D02*
X146416923Y-111542580D01*
X146321685Y-111590200D01*
X146274066Y-111637819D01*
X146178828Y-111780676D01*
X146131209Y-111971152D01*
X146131209Y-112352104D01*
X146178828Y-112447342D01*
X146226447Y-112494961D01*
X146321685Y-112542580D01*
X146512161Y-112542580D01*
X146607400Y-112494961D01*
X146655019Y-112447342D01*
X146702638Y-112352104D01*
X146702638Y-112114009D01*
X146655019Y-112018771D01*
X146607400Y-111971152D01*
X146512161Y-111923533D01*
X146321685Y-111923533D01*
X146226447Y-111971152D01*
X146178828Y-112018771D01*
X146131209Y-112114009D01*
X147131209Y-112447342D02*
X147178828Y-112494961D01*
X147131209Y-112542580D01*
X147083590Y-112494961D01*
X147131209Y-112447342D01*
X147131209Y-112542580D01*
X147750257Y-111971152D02*
X147655019Y-111923533D01*
X147607400Y-111875914D01*
X147559780Y-111780676D01*
X147559780Y-111733057D01*
X147607400Y-111637819D01*
X147655019Y-111590200D01*
X147750257Y-111542580D01*
X147940733Y-111542580D01*
X148035971Y-111590200D01*
X148083590Y-111637819D01*
X148131209Y-111733057D01*
X148131209Y-111780676D01*
X148083590Y-111875914D01*
X148035971Y-111923533D01*
X147940733Y-111971152D01*
X147750257Y-111971152D01*
X147655019Y-112018771D01*
X147607400Y-112066390D01*
X147559780Y-112161628D01*
X147559780Y-112352104D01*
X147607400Y-112447342D01*
X147655019Y-112494961D01*
X147750257Y-112542580D01*
X147940733Y-112542580D01*
X148035971Y-112494961D01*
X148083590Y-112447342D01*
X148131209Y-112352104D01*
X148131209Y-112161628D01*
X148083590Y-112066390D01*
X148035971Y-112018771D01*
X147940733Y-111971152D01*
X149083590Y-112542580D02*
X148512161Y-112542580D01*
X148797876Y-112542580D02*
X148797876Y-111542580D01*
X148702638Y-111685438D01*
X148607400Y-111780676D01*
X148512161Y-111828295D01*
X149512161Y-112542580D02*
X149512161Y-111542580D01*
X150083590Y-112542580D02*
X149655019Y-111971152D01*
X150083590Y-111542580D02*
X149512161Y-112114009D01*
X152966990Y-114717580D02*
X153586038Y-114717580D01*
X153252704Y-115098533D01*
X153395561Y-115098533D01*
X153490800Y-115146152D01*
X153538419Y-115193771D01*
X153586038Y-115289009D01*
X153586038Y-115527104D01*
X153538419Y-115622342D01*
X153490800Y-115669961D01*
X153395561Y-115717580D01*
X153109847Y-115717580D01*
X153014609Y-115669961D01*
X152966990Y-115622342D01*
X154014609Y-115622342D02*
X154062228Y-115669961D01*
X154014609Y-115717580D01*
X153966990Y-115669961D01*
X154014609Y-115622342D01*
X154014609Y-115717580D01*
X154919371Y-114717580D02*
X154728895Y-114717580D01*
X154633657Y-114765200D01*
X154586038Y-114812819D01*
X154490800Y-114955676D01*
X154443180Y-115146152D01*
X154443180Y-115527104D01*
X154490800Y-115622342D01*
X154538419Y-115669961D01*
X154633657Y-115717580D01*
X154824133Y-115717580D01*
X154919371Y-115669961D01*
X154966990Y-115622342D01*
X155014609Y-115527104D01*
X155014609Y-115289009D01*
X154966990Y-115193771D01*
X154919371Y-115146152D01*
X154824133Y-115098533D01*
X154633657Y-115098533D01*
X154538419Y-115146152D01*
X154490800Y-115193771D01*
X154443180Y-115289009D01*
X155919371Y-114717580D02*
X155443180Y-114717580D01*
X155395561Y-115193771D01*
X155443180Y-115146152D01*
X155538419Y-115098533D01*
X155776514Y-115098533D01*
X155871752Y-115146152D01*
X155919371Y-115193771D01*
X155966990Y-115289009D01*
X155966990Y-115527104D01*
X155919371Y-115622342D01*
X155871752Y-115669961D01*
X155776514Y-115717580D01*
X155538419Y-115717580D01*
X155443180Y-115669961D01*
X155395561Y-115622342D01*
X156395561Y-115717580D02*
X156395561Y-114717580D01*
X156966990Y-115717580D02*
X156538419Y-115146152D01*
X156966990Y-114717580D02*
X156395561Y-115289009D01*
X184961904Y-94667142D02*
X184914285Y-94714761D01*
X184771428Y-94762380D01*
X184676190Y-94762380D01*
X184533333Y-94714761D01*
X184438095Y-94619523D01*
X184390476Y-94524285D01*
X184342857Y-94333809D01*
X184342857Y-94190952D01*
X184390476Y-94000476D01*
X184438095Y-93905238D01*
X184533333Y-93810000D01*
X184676190Y-93762380D01*
X184771428Y-93762380D01*
X184914285Y-93810000D01*
X184961904Y-93857619D01*
X185533333Y-94762380D02*
X185438095Y-94714761D01*
X185390476Y-94667142D01*
X185342857Y-94571904D01*
X185342857Y-94286190D01*
X185390476Y-94190952D01*
X185438095Y-94143333D01*
X185533333Y-94095714D01*
X185676190Y-94095714D01*
X185771428Y-94143333D01*
X185819047Y-94190952D01*
X185866666Y-94286190D01*
X185866666Y-94571904D01*
X185819047Y-94667142D01*
X185771428Y-94714761D01*
X185676190Y-94762380D01*
X185533333Y-94762380D01*
X186295238Y-94095714D02*
X186295238Y-94762380D01*
X186295238Y-94190952D02*
X186342857Y-94143333D01*
X186438095Y-94095714D01*
X186580952Y-94095714D01*
X186676190Y-94143333D01*
X186723809Y-94238571D01*
X186723809Y-94762380D01*
X187200000Y-94095714D02*
X187200000Y-94762380D01*
X187200000Y-94190952D02*
X187247619Y-94143333D01*
X187342857Y-94095714D01*
X187485714Y-94095714D01*
X187580952Y-94143333D01*
X187628571Y-94238571D01*
X187628571Y-94762380D01*
X187866666Y-94857619D02*
X188628571Y-94857619D01*
X189057142Y-93762380D02*
X189152380Y-93762380D01*
X189247619Y-93810000D01*
X189295238Y-93857619D01*
X189342857Y-93952857D01*
X189390476Y-94143333D01*
X189390476Y-94381428D01*
X189342857Y-94571904D01*
X189295238Y-94667142D01*
X189247619Y-94714761D01*
X189152380Y-94762380D01*
X189057142Y-94762380D01*
X188961904Y-94714761D01*
X188914285Y-94667142D01*
X188866666Y-94571904D01*
X188819047Y-94381428D01*
X188819047Y-94143333D01*
X188866666Y-93952857D01*
X188914285Y-93857619D01*
X188961904Y-93810000D01*
X189057142Y-93762380D01*
X190342857Y-94762380D02*
X189771428Y-94762380D01*
X190057142Y-94762380D02*
X190057142Y-93762380D01*
X189961904Y-93905238D01*
X189866666Y-94000476D01*
X189771428Y-94048095D01*
X190676190Y-94762380D02*
X191200000Y-94095714D01*
X190676190Y-94095714D02*
X191200000Y-94762380D01*
X191771428Y-93762380D02*
X191866666Y-93762380D01*
X191961904Y-93810000D01*
X192009523Y-93857619D01*
X192057142Y-93952857D01*
X192104761Y-94143333D01*
X192104761Y-94381428D01*
X192057142Y-94571904D01*
X192009523Y-94667142D01*
X191961904Y-94714761D01*
X191866666Y-94762380D01*
X191771428Y-94762380D01*
X191676190Y-94714761D01*
X191628571Y-94667142D01*
X191580952Y-94571904D01*
X191533333Y-94381428D01*
X191533333Y-94143333D01*
X191580952Y-93952857D01*
X191628571Y-93857619D01*
X191676190Y-93810000D01*
X191771428Y-93762380D01*
X193009523Y-93762380D02*
X192533333Y-93762380D01*
X192485714Y-94238571D01*
X192533333Y-94190952D01*
X192628571Y-94143333D01*
X192866666Y-94143333D01*
X192961904Y-94190952D01*
X193009523Y-94238571D01*
X193057142Y-94333809D01*
X193057142Y-94571904D01*
X193009523Y-94667142D01*
X192961904Y-94714761D01*
X192866666Y-94762380D01*
X192628571Y-94762380D01*
X192533333Y-94714761D01*
X192485714Y-94667142D01*
X188152380Y-102053333D02*
X188866666Y-102053333D01*
X189009523Y-102100952D01*
X189104761Y-102196190D01*
X189152380Y-102339047D01*
X189152380Y-102434285D01*
X189152380Y-101053333D02*
X189152380Y-101624761D01*
X189152380Y-101339047D02*
X188152380Y-101339047D01*
X188295238Y-101434285D01*
X188390476Y-101529523D01*
X188438095Y-101624761D01*
X188085714Y-114457142D02*
X188133333Y-114504761D01*
X188085714Y-114552380D01*
X188038095Y-114504761D01*
X188085714Y-114457142D01*
X188085714Y-114552380D01*
X189085714Y-114552380D02*
X188514285Y-114552380D01*
X188800000Y-114552380D02*
X188800000Y-113552380D01*
X188704761Y-113695238D01*
X188609523Y-113790476D01*
X188514285Y-113838095D01*
X189942857Y-113885714D02*
X189942857Y-114552380D01*
X189514285Y-113885714D02*
X189514285Y-114409523D01*
X189561904Y-114504761D01*
X189657142Y-114552380D01*
X189800000Y-114552380D01*
X189895238Y-114504761D01*
X189942857Y-114457142D01*
X190276190Y-113885714D02*
X190657142Y-113885714D01*
X190419047Y-114552380D02*
X190419047Y-113695238D01*
X190466666Y-113600000D01*
X190561904Y-113552380D01*
X190657142Y-113552380D01*
M02*
