%FSLAX45Y45*%
G04 Gerber Fmt 4.5, Leading zero omitted, Abs format (unit mm)*
G04 Created by KiCad (PCBNEW (5.1.10)-1) date 2021-05-21 10:06:27*
%MOMM*%
%LPD*%
G01*
G04 APERTURE LIST*
%TA.AperFunction,Profile*%
%ADD10C,0.150000*%
%TD*%
%ADD11C,0.200000*%
%ADD12C,0.300000*%
G04 APERTURE END LIST*
D10*
X19177000Y-12192000D02*
X10287000Y-12192000D01*
X19177000Y-8382000D02*
X19177000Y-12192000D01*
X10287000Y-8382000D02*
X19177000Y-8382000D01*
X10287000Y-12192000D02*
X10287000Y-8382000D01*
D11*
X11121178Y-10669482D02*
X11159278Y-10707582D01*
X11159278Y-10669482D02*
X11121178Y-10707582D01*
X11658600Y-10299700D02*
X11696700Y-10337800D01*
X11696700Y-10299700D02*
X11658600Y-10337800D01*
X11951970Y-10082530D02*
X11990070Y-10120630D01*
X11990070Y-10082530D02*
X11951970Y-10120630D01*
X12490450Y-10979150D02*
X12528550Y-11017250D01*
X12528550Y-10979150D02*
X12490450Y-11017250D01*
X13684250Y-10699750D02*
X13722350Y-10737850D01*
X13722350Y-10699750D02*
X13684250Y-10737850D01*
X13697450Y-10940550D02*
X13735550Y-10978650D01*
X13735550Y-10940550D02*
X13697450Y-10978650D01*
X13747750Y-9759950D02*
X13785850Y-9798050D01*
X13785850Y-9759950D02*
X13747750Y-9798050D01*
X13887450Y-10242550D02*
X13925550Y-10280650D01*
X13925550Y-10242550D02*
X13887450Y-10280650D01*
X13963650Y-11131550D02*
X14001750Y-11169650D01*
X14001750Y-11131550D02*
X13963650Y-11169650D01*
X14319250Y-10674350D02*
X14357350Y-10712450D01*
X14357350Y-10674350D02*
X14319250Y-10712450D01*
X14674850Y-11233150D02*
X14712950Y-11271250D01*
X14712950Y-11233150D02*
X14674850Y-11271250D01*
X14712950Y-10229850D02*
X14751050Y-10267950D01*
X14751050Y-10229850D02*
X14712950Y-10267950D01*
X14776450Y-11029950D02*
X14814550Y-11068050D01*
X14814550Y-11029950D02*
X14776450Y-11068050D01*
X15157450Y-10953750D02*
X15195550Y-10991850D01*
X15195550Y-10953750D02*
X15157450Y-10991850D01*
X15208250Y-11537950D02*
X15246350Y-11576050D01*
X15246350Y-11537950D02*
X15208250Y-11576050D01*
X15271900Y-11258400D02*
X15310000Y-11296500D01*
X15310000Y-11258400D02*
X15271900Y-11296500D01*
X15373350Y-11537950D02*
X15411450Y-11576050D01*
X15411450Y-11537950D02*
X15373350Y-11576050D01*
X15424150Y-11730990D02*
X15462250Y-11769090D01*
X15462250Y-11730990D02*
X15424150Y-11769090D01*
X15487650Y-9734550D02*
X15525750Y-9772650D01*
X15525750Y-9734550D02*
X15487650Y-9772650D01*
X15563850Y-9963150D02*
X15601950Y-10001250D01*
X15601950Y-9963150D02*
X15563850Y-10001250D01*
X15792447Y-10674350D02*
X15830547Y-10712450D01*
X15830547Y-10674350D02*
X15792447Y-10712450D01*
X15868650Y-9912350D02*
X15906750Y-9950450D01*
X15906750Y-9912350D02*
X15868650Y-9950450D01*
X16021050Y-11360150D02*
X16059150Y-11398250D01*
X16059150Y-11360150D02*
X16021050Y-11398250D01*
X16030697Y-10353797D02*
X16068797Y-10391897D01*
X16068797Y-10353797D02*
X16030697Y-10391897D01*
X16122650Y-9404350D02*
X16160750Y-9442450D01*
X16160750Y-9404350D02*
X16122650Y-9442450D01*
X16122650Y-10775950D02*
X16160750Y-10814050D01*
X16160750Y-10775950D02*
X16122650Y-10814050D01*
X16198850Y-9302750D02*
X16236950Y-9340850D01*
X16236950Y-9302750D02*
X16198850Y-9340850D01*
X16205200Y-10648950D02*
X16243300Y-10687050D01*
X16243300Y-10648950D02*
X16205200Y-10687050D01*
X16325850Y-10344150D02*
X16363950Y-10382250D01*
X16363950Y-10344150D02*
X16325850Y-10382250D01*
X16333470Y-11934190D02*
X16371570Y-11972290D01*
X16371570Y-11934190D02*
X16333470Y-11972290D01*
X16376650Y-9810750D02*
X16414750Y-9848850D01*
X16414750Y-9810750D02*
X16376650Y-9848850D01*
X16376650Y-11309350D02*
X16414750Y-11347450D01*
X16414750Y-11309350D02*
X16376650Y-11347450D01*
X16643350Y-11880850D02*
X16681450Y-11918950D01*
X16681450Y-11880850D02*
X16643350Y-11918950D01*
X16681450Y-10013950D02*
X16719550Y-10052050D01*
X16719550Y-10013950D02*
X16681450Y-10052050D01*
X16846550Y-11360150D02*
X16884650Y-11398250D01*
X16884650Y-11360150D02*
X16846550Y-11398250D01*
X17138650Y-10344150D02*
X17176750Y-10382250D01*
X17176750Y-10344150D02*
X17138650Y-10382250D01*
X17354550Y-11118850D02*
X17392650Y-11156950D01*
X17392650Y-11118850D02*
X17354550Y-11156950D01*
X17494250Y-9188450D02*
X17532350Y-9226550D01*
X17532350Y-9188450D02*
X17494250Y-9226550D01*
X17519650Y-10115550D02*
X17557750Y-10153650D01*
X17557750Y-10115550D02*
X17519650Y-10153650D01*
X17532350Y-9404350D02*
X17570450Y-9442450D01*
X17570450Y-9404350D02*
X17532350Y-9442450D01*
X17608550Y-10191750D02*
X17646650Y-10229850D01*
X17646650Y-10191750D02*
X17608550Y-10229850D01*
X17608550Y-11436350D02*
X17646650Y-11474450D01*
X17646650Y-11436350D02*
X17608550Y-11474450D01*
X17760950Y-11245850D02*
X17799050Y-11283950D01*
X17799050Y-11245850D02*
X17760950Y-11283950D01*
X17849850Y-10471150D02*
X17887950Y-10509250D01*
X17887950Y-10471150D02*
X17849850Y-10509250D01*
X17976850Y-10039350D02*
X18014950Y-10077450D01*
X18014950Y-10039350D02*
X17976850Y-10077450D01*
X18192750Y-10712450D02*
X18230850Y-10750550D01*
X18230850Y-10712450D02*
X18192750Y-10750550D01*
X18319750Y-11118850D02*
X18357850Y-11156950D01*
X18357850Y-11118850D02*
X18319750Y-11156950D01*
X18332450Y-10318751D02*
X18370550Y-10356851D01*
X18370550Y-10318751D02*
X18332450Y-10356851D01*
X18434050Y-10407650D02*
X18472150Y-10445750D01*
X18472150Y-10407650D02*
X18434050Y-10445750D01*
X10708000Y-11404600D02*
G75*
G03*
X10708000Y-11404600I-40000J0D01*
G01*
X10962000Y-11404600D02*
G75*
G03*
X10962000Y-11404600I-40000J0D01*
G01*
X11216000Y-11404600D02*
G75*
G03*
X11216000Y-11404600I-40000J0D01*
G01*
X11470000Y-11404600D02*
G75*
G03*
X11470000Y-11404600I-40000J0D01*
G01*
X11724000Y-9372600D02*
G75*
G03*
X11724000Y-9372600I-40000J0D01*
G01*
X11724000Y-11404600D02*
G75*
G03*
X11724000Y-11404600I-40000J0D01*
G01*
X11978000Y-9372600D02*
G75*
G03*
X11978000Y-9372600I-40000J0D01*
G01*
X11978000Y-11404600D02*
G75*
G03*
X11978000Y-11404600I-40000J0D01*
G01*
X12232000Y-9372600D02*
G75*
G03*
X12232000Y-9372600I-40000J0D01*
G01*
X12232000Y-11404600D02*
G75*
G03*
X12232000Y-11404600I-40000J0D01*
G01*
X12486000Y-9372600D02*
G75*
G03*
X12486000Y-9372600I-40000J0D01*
G01*
X12486000Y-11404600D02*
G75*
G03*
X12486000Y-11404600I-40000J0D01*
G01*
X12740000Y-9372600D02*
G75*
G03*
X12740000Y-9372600I-40000J0D01*
G01*
X12740000Y-11404600D02*
G75*
G03*
X12740000Y-11404600I-40000J0D01*
G01*
X12994000Y-9372600D02*
G75*
G03*
X12994000Y-9372600I-40000J0D01*
G01*
X12994000Y-11404600D02*
G75*
G03*
X12994000Y-11404600I-40000J0D01*
G01*
X13248000Y-9372600D02*
G75*
G03*
X13248000Y-9372600I-40000J0D01*
G01*
X13248000Y-11404600D02*
G75*
G03*
X13248000Y-11404600I-40000J0D01*
G01*
X13502000Y-9372600D02*
G75*
G03*
X13502000Y-9372600I-40000J0D01*
G01*
X13502000Y-11404600D02*
G75*
G03*
X13502000Y-11404600I-40000J0D01*
G01*
X13756000Y-9372600D02*
G75*
G03*
X13756000Y-9372600I-40000J0D01*
G01*
X13756000Y-11404600D02*
G75*
G03*
X13756000Y-11404600I-40000J0D01*
G01*
X14010000Y-9372600D02*
G75*
G03*
X14010000Y-9372600I-40000J0D01*
G01*
X14010000Y-11404600D02*
G75*
G03*
X14010000Y-11404600I-40000J0D01*
G01*
X14264000Y-9372600D02*
G75*
G03*
X14264000Y-9372600I-40000J0D01*
G01*
X14264000Y-11404600D02*
G75*
G03*
X14264000Y-11404600I-40000J0D01*
G01*
X14518000Y-9372600D02*
G75*
G03*
X14518000Y-9372600I-40000J0D01*
G01*
X14518000Y-11404600D02*
G75*
G03*
X14518000Y-11404600I-40000J0D01*
G01*
X18732500Y-9678200D02*
X18732500Y-9778200D01*
X18682500Y-9728200D02*
X18782500Y-9728200D01*
X18732500Y-9932200D02*
X18732500Y-10032200D01*
X18682500Y-9982200D02*
X18782500Y-9982200D01*
X18732500Y-10186200D02*
X18732500Y-10286200D01*
X18682500Y-10236200D02*
X18782500Y-10236200D01*
X18732500Y-10440200D02*
X18732500Y-10540200D01*
X18682500Y-10490200D02*
X18782500Y-10490200D01*
X18732500Y-10694200D02*
X18732500Y-10794200D01*
X18682500Y-10744200D02*
X18782500Y-10744200D01*
D12*
X10565928Y-12665214D02*
X10565928Y-12365214D01*
X10637357Y-12365214D01*
X10680214Y-12379500D01*
X10708786Y-12408071D01*
X10723071Y-12436643D01*
X10737357Y-12493786D01*
X10737357Y-12536643D01*
X10723071Y-12593786D01*
X10708786Y-12622357D01*
X10680214Y-12650929D01*
X10637357Y-12665214D01*
X10565928Y-12665214D01*
X10865928Y-12665214D02*
X10865928Y-12465214D01*
X10865928Y-12522357D02*
X10880214Y-12493786D01*
X10894500Y-12479500D01*
X10923071Y-12465214D01*
X10951643Y-12465214D01*
X11051643Y-12665214D02*
X11051643Y-12465214D01*
X11051643Y-12365214D02*
X11037357Y-12379500D01*
X11051643Y-12393786D01*
X11065928Y-12379500D01*
X11051643Y-12365214D01*
X11051643Y-12393786D01*
X11237357Y-12665214D02*
X11208786Y-12650929D01*
X11194500Y-12622357D01*
X11194500Y-12365214D01*
X11394500Y-12665214D02*
X11365928Y-12650929D01*
X11351643Y-12622357D01*
X11351643Y-12365214D01*
X11737357Y-12665214D02*
X11737357Y-12365214D01*
X11837357Y-12579500D01*
X11937357Y-12365214D01*
X11937357Y-12665214D01*
X12208786Y-12665214D02*
X12208786Y-12508071D01*
X12194500Y-12479500D01*
X12165928Y-12465214D01*
X12108786Y-12465214D01*
X12080214Y-12479500D01*
X12208786Y-12650929D02*
X12180214Y-12665214D01*
X12108786Y-12665214D01*
X12080214Y-12650929D01*
X12065928Y-12622357D01*
X12065928Y-12593786D01*
X12080214Y-12565214D01*
X12108786Y-12550929D01*
X12180214Y-12550929D01*
X12208786Y-12536643D01*
X12351643Y-12465214D02*
X12351643Y-12765214D01*
X12351643Y-12479500D02*
X12380214Y-12465214D01*
X12437357Y-12465214D01*
X12465928Y-12479500D01*
X12480214Y-12493786D01*
X12494500Y-12522357D01*
X12494500Y-12608071D01*
X12480214Y-12636643D01*
X12465928Y-12650929D01*
X12437357Y-12665214D01*
X12380214Y-12665214D01*
X12351643Y-12650929D01*
X12623071Y-12636643D02*
X12637357Y-12650929D01*
X12623071Y-12665214D01*
X12608786Y-12650929D01*
X12623071Y-12636643D01*
X12623071Y-12665214D01*
X12623071Y-12479500D02*
X12637357Y-12493786D01*
X12623071Y-12508071D01*
X12608786Y-12493786D01*
X12623071Y-12479500D01*
X12623071Y-12508071D01*
X10241400Y-13140450D02*
X10279500Y-13178550D01*
X10279500Y-13140450D02*
X10241400Y-13178550D01*
X10623071Y-12995214D02*
X10651643Y-12995214D01*
X10680214Y-13009500D01*
X10694500Y-13023786D01*
X10708786Y-13052357D01*
X10723071Y-13109500D01*
X10723071Y-13180929D01*
X10708786Y-13238071D01*
X10694500Y-13266643D01*
X10680214Y-13280929D01*
X10651643Y-13295214D01*
X10623071Y-13295214D01*
X10594500Y-13280929D01*
X10580214Y-13266643D01*
X10565928Y-13238071D01*
X10551643Y-13180929D01*
X10551643Y-13109500D01*
X10565928Y-13052357D01*
X10580214Y-13023786D01*
X10594500Y-13009500D01*
X10623071Y-12995214D01*
X10851643Y-13266643D02*
X10865928Y-13280929D01*
X10851643Y-13295214D01*
X10837357Y-13280929D01*
X10851643Y-13266643D01*
X10851643Y-13295214D01*
X10965928Y-12995214D02*
X11151643Y-12995214D01*
X11051643Y-13109500D01*
X11094500Y-13109500D01*
X11123071Y-13123786D01*
X11137357Y-13138071D01*
X11151643Y-13166643D01*
X11151643Y-13238071D01*
X11137357Y-13266643D01*
X11123071Y-13280929D01*
X11094500Y-13295214D01*
X11008786Y-13295214D01*
X10980214Y-13280929D01*
X10965928Y-13266643D01*
X11323071Y-13123786D02*
X11294500Y-13109500D01*
X11280214Y-13095214D01*
X11265928Y-13066643D01*
X11265928Y-13052357D01*
X11280214Y-13023786D01*
X11294500Y-13009500D01*
X11323071Y-12995214D01*
X11380214Y-12995214D01*
X11408786Y-13009500D01*
X11423071Y-13023786D01*
X11437357Y-13052357D01*
X11437357Y-13066643D01*
X11423071Y-13095214D01*
X11408786Y-13109500D01*
X11380214Y-13123786D01*
X11323071Y-13123786D01*
X11294500Y-13138071D01*
X11280214Y-13152357D01*
X11265928Y-13180929D01*
X11265928Y-13238071D01*
X11280214Y-13266643D01*
X11294500Y-13280929D01*
X11323071Y-13295214D01*
X11380214Y-13295214D01*
X11408786Y-13280929D01*
X11423071Y-13266643D01*
X11437357Y-13238071D01*
X11437357Y-13180929D01*
X11423071Y-13152357D01*
X11408786Y-13138071D01*
X11380214Y-13123786D01*
X11723071Y-13295214D02*
X11551643Y-13295214D01*
X11637357Y-13295214D02*
X11637357Y-12995214D01*
X11608786Y-13038071D01*
X11580214Y-13066643D01*
X11551643Y-13080929D01*
X11851643Y-13295214D02*
X11851643Y-13095214D01*
X11851643Y-13123786D02*
X11865928Y-13109500D01*
X11894500Y-13095214D01*
X11937357Y-13095214D01*
X11965928Y-13109500D01*
X11980214Y-13138071D01*
X11980214Y-13295214D01*
X11980214Y-13138071D02*
X11994500Y-13109500D01*
X12023071Y-13095214D01*
X12065928Y-13095214D01*
X12094500Y-13109500D01*
X12108786Y-13138071D01*
X12108786Y-13295214D01*
X12251643Y-13295214D02*
X12251643Y-13095214D01*
X12251643Y-13123786D02*
X12265928Y-13109500D01*
X12294500Y-13095214D01*
X12337357Y-13095214D01*
X12365928Y-13109500D01*
X12380214Y-13138071D01*
X12380214Y-13295214D01*
X12380214Y-13138071D02*
X12394500Y-13109500D01*
X12423071Y-13095214D01*
X12465928Y-13095214D01*
X12494500Y-13109500D01*
X12508786Y-13138071D01*
X12508786Y-13295214D01*
X13094500Y-12980929D02*
X12837357Y-13366643D01*
X13480214Y-12995214D02*
X13508786Y-12995214D01*
X13537357Y-13009500D01*
X13551643Y-13023786D01*
X13565928Y-13052357D01*
X13580214Y-13109500D01*
X13580214Y-13180929D01*
X13565928Y-13238071D01*
X13551643Y-13266643D01*
X13537357Y-13280929D01*
X13508786Y-13295214D01*
X13480214Y-13295214D01*
X13451643Y-13280929D01*
X13437357Y-13266643D01*
X13423071Y-13238071D01*
X13408786Y-13180929D01*
X13408786Y-13109500D01*
X13423071Y-13052357D01*
X13437357Y-13023786D01*
X13451643Y-13009500D01*
X13480214Y-12995214D01*
X13708786Y-13266643D02*
X13723071Y-13280929D01*
X13708786Y-13295214D01*
X13694500Y-13280929D01*
X13708786Y-13266643D01*
X13708786Y-13295214D01*
X13908786Y-12995214D02*
X13937357Y-12995214D01*
X13965928Y-13009500D01*
X13980214Y-13023786D01*
X13994500Y-13052357D01*
X14008786Y-13109500D01*
X14008786Y-13180929D01*
X13994500Y-13238071D01*
X13980214Y-13266643D01*
X13965928Y-13280929D01*
X13937357Y-13295214D01*
X13908786Y-13295214D01*
X13880214Y-13280929D01*
X13865928Y-13266643D01*
X13851643Y-13238071D01*
X13837357Y-13180929D01*
X13837357Y-13109500D01*
X13851643Y-13052357D01*
X13865928Y-13023786D01*
X13880214Y-13009500D01*
X13908786Y-12995214D01*
X14294500Y-13295214D02*
X14123071Y-13295214D01*
X14208786Y-13295214D02*
X14208786Y-12995214D01*
X14180214Y-13038071D01*
X14151643Y-13066643D01*
X14123071Y-13080929D01*
X14565928Y-12995214D02*
X14423071Y-12995214D01*
X14408786Y-13138071D01*
X14423071Y-13123786D01*
X14451643Y-13109500D01*
X14523071Y-13109500D01*
X14551643Y-13123786D01*
X14565928Y-13138071D01*
X14580214Y-13166643D01*
X14580214Y-13238071D01*
X14565928Y-13266643D01*
X14551643Y-13280929D01*
X14523071Y-13295214D01*
X14451643Y-13295214D01*
X14423071Y-13280929D01*
X14408786Y-13266643D01*
X14765928Y-12995214D02*
X14794500Y-12995214D01*
X14823071Y-13009500D01*
X14837357Y-13023786D01*
X14851643Y-13052357D01*
X14865928Y-13109500D01*
X14865928Y-13180929D01*
X14851643Y-13238071D01*
X14837357Y-13266643D01*
X14823071Y-13280929D01*
X14794500Y-13295214D01*
X14765928Y-13295214D01*
X14737357Y-13280929D01*
X14723071Y-13266643D01*
X14708786Y-13238071D01*
X14694500Y-13180929D01*
X14694500Y-13109500D01*
X14708786Y-13052357D01*
X14723071Y-13023786D01*
X14737357Y-13009500D01*
X14765928Y-12995214D01*
X14980214Y-12995214D02*
X14980214Y-13052357D01*
X15094500Y-12995214D02*
X15094500Y-13052357D01*
X15537357Y-13409500D02*
X15523071Y-13395214D01*
X15494500Y-13352357D01*
X15480214Y-13323786D01*
X15465928Y-13280929D01*
X15451643Y-13209500D01*
X15451643Y-13152357D01*
X15465928Y-13080929D01*
X15480214Y-13038071D01*
X15494500Y-13009500D01*
X15523071Y-12966643D01*
X15537357Y-12952357D01*
X15780214Y-13095214D02*
X15780214Y-13295214D01*
X15708786Y-12980929D02*
X15637357Y-13195214D01*
X15823071Y-13195214D01*
X15951643Y-13295214D02*
X16008786Y-13295214D01*
X16037357Y-13280929D01*
X16051643Y-13266643D01*
X16080214Y-13223786D01*
X16094500Y-13166643D01*
X16094500Y-13052357D01*
X16080214Y-13023786D01*
X16065928Y-13009500D01*
X16037357Y-12995214D01*
X15980214Y-12995214D01*
X15951643Y-13009500D01*
X15937357Y-13023786D01*
X15923071Y-13052357D01*
X15923071Y-13123786D01*
X15937357Y-13152357D01*
X15951643Y-13166643D01*
X15980214Y-13180929D01*
X16037357Y-13180929D01*
X16065928Y-13166643D01*
X16080214Y-13152357D01*
X16094500Y-13123786D01*
X16451643Y-13295214D02*
X16451643Y-12995214D01*
X16580214Y-13295214D02*
X16580214Y-13138071D01*
X16565928Y-13109500D01*
X16537357Y-13095214D01*
X16494500Y-13095214D01*
X16465928Y-13109500D01*
X16451643Y-13123786D01*
X16765928Y-13295214D02*
X16737357Y-13280929D01*
X16723071Y-13266643D01*
X16708786Y-13238071D01*
X16708786Y-13152357D01*
X16723071Y-13123786D01*
X16737357Y-13109500D01*
X16765928Y-13095214D01*
X16808786Y-13095214D01*
X16837357Y-13109500D01*
X16851643Y-13123786D01*
X16865928Y-13152357D01*
X16865928Y-13238071D01*
X16851643Y-13266643D01*
X16837357Y-13280929D01*
X16808786Y-13295214D01*
X16765928Y-13295214D01*
X17037357Y-13295214D02*
X17008786Y-13280929D01*
X16994500Y-13252357D01*
X16994500Y-12995214D01*
X17265928Y-13280929D02*
X17237357Y-13295214D01*
X17180214Y-13295214D01*
X17151643Y-13280929D01*
X17137357Y-13252357D01*
X17137357Y-13138071D01*
X17151643Y-13109500D01*
X17180214Y-13095214D01*
X17237357Y-13095214D01*
X17265928Y-13109500D01*
X17280214Y-13138071D01*
X17280214Y-13166643D01*
X17137357Y-13195214D01*
X17394500Y-13280929D02*
X17423071Y-13295214D01*
X17480214Y-13295214D01*
X17508786Y-13280929D01*
X17523071Y-13252357D01*
X17523071Y-13238071D01*
X17508786Y-13209500D01*
X17480214Y-13195214D01*
X17437357Y-13195214D01*
X17408786Y-13180929D01*
X17394500Y-13152357D01*
X17394500Y-13138071D01*
X17408786Y-13109500D01*
X17437357Y-13095214D01*
X17480214Y-13095214D01*
X17508786Y-13109500D01*
X17623071Y-13409500D02*
X17637357Y-13395214D01*
X17665928Y-13352357D01*
X17680214Y-13323786D01*
X17694500Y-13280929D01*
X17708786Y-13209500D01*
X17708786Y-13152357D01*
X17694500Y-13080929D01*
X17680214Y-13038071D01*
X17665928Y-13009500D01*
X17637357Y-12966643D01*
X17623071Y-12952357D01*
X10279500Y-13555500D02*
G75*
G03*
X10279500Y-13555500I-40000J0D01*
G01*
X10623071Y-13391214D02*
X10651643Y-13391214D01*
X10680214Y-13405500D01*
X10694500Y-13419786D01*
X10708786Y-13448357D01*
X10723071Y-13505500D01*
X10723071Y-13576929D01*
X10708786Y-13634071D01*
X10694500Y-13662643D01*
X10680214Y-13676929D01*
X10651643Y-13691214D01*
X10623071Y-13691214D01*
X10594500Y-13676929D01*
X10580214Y-13662643D01*
X10565928Y-13634071D01*
X10551643Y-13576929D01*
X10551643Y-13505500D01*
X10565928Y-13448357D01*
X10580214Y-13419786D01*
X10594500Y-13405500D01*
X10623071Y-13391214D01*
X10851643Y-13662643D02*
X10865928Y-13676929D01*
X10851643Y-13691214D01*
X10837357Y-13676929D01*
X10851643Y-13662643D01*
X10851643Y-13691214D01*
X11037357Y-13519786D02*
X11008786Y-13505500D01*
X10994500Y-13491214D01*
X10980214Y-13462643D01*
X10980214Y-13448357D01*
X10994500Y-13419786D01*
X11008786Y-13405500D01*
X11037357Y-13391214D01*
X11094500Y-13391214D01*
X11123071Y-13405500D01*
X11137357Y-13419786D01*
X11151643Y-13448357D01*
X11151643Y-13462643D01*
X11137357Y-13491214D01*
X11123071Y-13505500D01*
X11094500Y-13519786D01*
X11037357Y-13519786D01*
X11008786Y-13534071D01*
X10994500Y-13548357D01*
X10980214Y-13576929D01*
X10980214Y-13634071D01*
X10994500Y-13662643D01*
X11008786Y-13676929D01*
X11037357Y-13691214D01*
X11094500Y-13691214D01*
X11123071Y-13676929D01*
X11137357Y-13662643D01*
X11151643Y-13634071D01*
X11151643Y-13576929D01*
X11137357Y-13548357D01*
X11123071Y-13534071D01*
X11094500Y-13519786D01*
X11337357Y-13391214D02*
X11365928Y-13391214D01*
X11394500Y-13405500D01*
X11408786Y-13419786D01*
X11423071Y-13448357D01*
X11437357Y-13505500D01*
X11437357Y-13576929D01*
X11423071Y-13634071D01*
X11408786Y-13662643D01*
X11394500Y-13676929D01*
X11365928Y-13691214D01*
X11337357Y-13691214D01*
X11308786Y-13676929D01*
X11294500Y-13662643D01*
X11280214Y-13634071D01*
X11265928Y-13576929D01*
X11265928Y-13505500D01*
X11280214Y-13448357D01*
X11294500Y-13419786D01*
X11308786Y-13405500D01*
X11337357Y-13391214D01*
X11623071Y-13391214D02*
X11651643Y-13391214D01*
X11680214Y-13405500D01*
X11694500Y-13419786D01*
X11708786Y-13448357D01*
X11723071Y-13505500D01*
X11723071Y-13576929D01*
X11708786Y-13634071D01*
X11694500Y-13662643D01*
X11680214Y-13676929D01*
X11651643Y-13691214D01*
X11623071Y-13691214D01*
X11594500Y-13676929D01*
X11580214Y-13662643D01*
X11565928Y-13634071D01*
X11551643Y-13576929D01*
X11551643Y-13505500D01*
X11565928Y-13448357D01*
X11580214Y-13419786D01*
X11594500Y-13405500D01*
X11623071Y-13391214D01*
X11851643Y-13691214D02*
X11851643Y-13491214D01*
X11851643Y-13519786D02*
X11865928Y-13505500D01*
X11894500Y-13491214D01*
X11937357Y-13491214D01*
X11965928Y-13505500D01*
X11980214Y-13534071D01*
X11980214Y-13691214D01*
X11980214Y-13534071D02*
X11994500Y-13505500D01*
X12023071Y-13491214D01*
X12065928Y-13491214D01*
X12094500Y-13505500D01*
X12108786Y-13534071D01*
X12108786Y-13691214D01*
X12251643Y-13691214D02*
X12251643Y-13491214D01*
X12251643Y-13519786D02*
X12265928Y-13505500D01*
X12294500Y-13491214D01*
X12337357Y-13491214D01*
X12365928Y-13505500D01*
X12380214Y-13534071D01*
X12380214Y-13691214D01*
X12380214Y-13534071D02*
X12394500Y-13505500D01*
X12423071Y-13491214D01*
X12465928Y-13491214D01*
X12494500Y-13505500D01*
X12508786Y-13534071D01*
X12508786Y-13691214D01*
X13094500Y-13376929D02*
X12837357Y-13762643D01*
X13480214Y-13391214D02*
X13508786Y-13391214D01*
X13537357Y-13405500D01*
X13551643Y-13419786D01*
X13565928Y-13448357D01*
X13580214Y-13505500D01*
X13580214Y-13576929D01*
X13565928Y-13634071D01*
X13551643Y-13662643D01*
X13537357Y-13676929D01*
X13508786Y-13691214D01*
X13480214Y-13691214D01*
X13451643Y-13676929D01*
X13437357Y-13662643D01*
X13423071Y-13634071D01*
X13408786Y-13576929D01*
X13408786Y-13505500D01*
X13423071Y-13448357D01*
X13437357Y-13419786D01*
X13451643Y-13405500D01*
X13480214Y-13391214D01*
X13708786Y-13662643D02*
X13723071Y-13676929D01*
X13708786Y-13691214D01*
X13694500Y-13676929D01*
X13708786Y-13662643D01*
X13708786Y-13691214D01*
X13908786Y-13391214D02*
X13937357Y-13391214D01*
X13965928Y-13405500D01*
X13980214Y-13419786D01*
X13994500Y-13448357D01*
X14008786Y-13505500D01*
X14008786Y-13576929D01*
X13994500Y-13634071D01*
X13980214Y-13662643D01*
X13965928Y-13676929D01*
X13937357Y-13691214D01*
X13908786Y-13691214D01*
X13880214Y-13676929D01*
X13865928Y-13662643D01*
X13851643Y-13634071D01*
X13837357Y-13576929D01*
X13837357Y-13505500D01*
X13851643Y-13448357D01*
X13865928Y-13419786D01*
X13880214Y-13405500D01*
X13908786Y-13391214D01*
X14108786Y-13391214D02*
X14294500Y-13391214D01*
X14194500Y-13505500D01*
X14237357Y-13505500D01*
X14265928Y-13519786D01*
X14280214Y-13534071D01*
X14294500Y-13562643D01*
X14294500Y-13634071D01*
X14280214Y-13662643D01*
X14265928Y-13676929D01*
X14237357Y-13691214D01*
X14151643Y-13691214D01*
X14123071Y-13676929D01*
X14108786Y-13662643D01*
X14580214Y-13691214D02*
X14408786Y-13691214D01*
X14494500Y-13691214D02*
X14494500Y-13391214D01*
X14465928Y-13434071D01*
X14437357Y-13462643D01*
X14408786Y-13476929D01*
X14851643Y-13391214D02*
X14708786Y-13391214D01*
X14694500Y-13534071D01*
X14708786Y-13519786D01*
X14737357Y-13505500D01*
X14808786Y-13505500D01*
X14837357Y-13519786D01*
X14851643Y-13534071D01*
X14865928Y-13562643D01*
X14865928Y-13634071D01*
X14851643Y-13662643D01*
X14837357Y-13676929D01*
X14808786Y-13691214D01*
X14737357Y-13691214D01*
X14708786Y-13676929D01*
X14694500Y-13662643D01*
X14980214Y-13391214D02*
X14980214Y-13448357D01*
X15094500Y-13391214D02*
X15094500Y-13448357D01*
X15537357Y-13805500D02*
X15523071Y-13791214D01*
X15494500Y-13748357D01*
X15480214Y-13719786D01*
X15465928Y-13676929D01*
X15451643Y-13605500D01*
X15451643Y-13548357D01*
X15465928Y-13476929D01*
X15480214Y-13434071D01*
X15494500Y-13405500D01*
X15523071Y-13362643D01*
X15537357Y-13348357D01*
X15637357Y-13419786D02*
X15651643Y-13405500D01*
X15680214Y-13391214D01*
X15751643Y-13391214D01*
X15780214Y-13405500D01*
X15794500Y-13419786D01*
X15808786Y-13448357D01*
X15808786Y-13476929D01*
X15794500Y-13519786D01*
X15623071Y-13691214D01*
X15808786Y-13691214D01*
X15980214Y-13519786D02*
X15951643Y-13505500D01*
X15937357Y-13491214D01*
X15923071Y-13462643D01*
X15923071Y-13448357D01*
X15937357Y-13419786D01*
X15951643Y-13405500D01*
X15980214Y-13391214D01*
X16037357Y-13391214D01*
X16065928Y-13405500D01*
X16080214Y-13419786D01*
X16094500Y-13448357D01*
X16094500Y-13462643D01*
X16080214Y-13491214D01*
X16065928Y-13505500D01*
X16037357Y-13519786D01*
X15980214Y-13519786D01*
X15951643Y-13534071D01*
X15937357Y-13548357D01*
X15923071Y-13576929D01*
X15923071Y-13634071D01*
X15937357Y-13662643D01*
X15951643Y-13676929D01*
X15980214Y-13691214D01*
X16037357Y-13691214D01*
X16065928Y-13676929D01*
X16080214Y-13662643D01*
X16094500Y-13634071D01*
X16094500Y-13576929D01*
X16080214Y-13548357D01*
X16065928Y-13534071D01*
X16037357Y-13519786D01*
X16451643Y-13691214D02*
X16451643Y-13391214D01*
X16580214Y-13691214D02*
X16580214Y-13534071D01*
X16565928Y-13505500D01*
X16537357Y-13491214D01*
X16494500Y-13491214D01*
X16465928Y-13505500D01*
X16451643Y-13519786D01*
X16765928Y-13691214D02*
X16737357Y-13676929D01*
X16723071Y-13662643D01*
X16708786Y-13634071D01*
X16708786Y-13548357D01*
X16723071Y-13519786D01*
X16737357Y-13505500D01*
X16765928Y-13491214D01*
X16808786Y-13491214D01*
X16837357Y-13505500D01*
X16851643Y-13519786D01*
X16865928Y-13548357D01*
X16865928Y-13634071D01*
X16851643Y-13662643D01*
X16837357Y-13676929D01*
X16808786Y-13691214D01*
X16765928Y-13691214D01*
X17037357Y-13691214D02*
X17008786Y-13676929D01*
X16994500Y-13648357D01*
X16994500Y-13391214D01*
X17265928Y-13676929D02*
X17237357Y-13691214D01*
X17180214Y-13691214D01*
X17151643Y-13676929D01*
X17137357Y-13648357D01*
X17137357Y-13534071D01*
X17151643Y-13505500D01*
X17180214Y-13491214D01*
X17237357Y-13491214D01*
X17265928Y-13505500D01*
X17280214Y-13534071D01*
X17280214Y-13562643D01*
X17137357Y-13591214D01*
X17394500Y-13676929D02*
X17423071Y-13691214D01*
X17480214Y-13691214D01*
X17508786Y-13676929D01*
X17523071Y-13648357D01*
X17523071Y-13634071D01*
X17508786Y-13605500D01*
X17480214Y-13591214D01*
X17437357Y-13591214D01*
X17408786Y-13576929D01*
X17394500Y-13548357D01*
X17394500Y-13534071D01*
X17408786Y-13505500D01*
X17437357Y-13491214D01*
X17480214Y-13491214D01*
X17508786Y-13505500D01*
X17623071Y-13805500D02*
X17637357Y-13791214D01*
X17665928Y-13748357D01*
X17680214Y-13719786D01*
X17694500Y-13676929D01*
X17708786Y-13605500D01*
X17708786Y-13548357D01*
X17694500Y-13476929D01*
X17680214Y-13434071D01*
X17665928Y-13405500D01*
X17637357Y-13362643D01*
X17623071Y-13348357D01*
X10229500Y-13901500D02*
X10229500Y-14001500D01*
X10179500Y-13951500D02*
X10279500Y-13951500D01*
X10723071Y-14087214D02*
X10551643Y-14087214D01*
X10637357Y-14087214D02*
X10637357Y-13787214D01*
X10608786Y-13830071D01*
X10580214Y-13858643D01*
X10551643Y-13872929D01*
X10851643Y-14058643D02*
X10865928Y-14072929D01*
X10851643Y-14087214D01*
X10837357Y-14072929D01*
X10851643Y-14058643D01*
X10851643Y-14087214D01*
X11051643Y-13787214D02*
X11080214Y-13787214D01*
X11108786Y-13801500D01*
X11123071Y-13815786D01*
X11137357Y-13844357D01*
X11151643Y-13901500D01*
X11151643Y-13972929D01*
X11137357Y-14030071D01*
X11123071Y-14058643D01*
X11108786Y-14072929D01*
X11080214Y-14087214D01*
X11051643Y-14087214D01*
X11023071Y-14072929D01*
X11008786Y-14058643D01*
X10994500Y-14030071D01*
X10980214Y-13972929D01*
X10980214Y-13901500D01*
X10994500Y-13844357D01*
X11008786Y-13815786D01*
X11023071Y-13801500D01*
X11051643Y-13787214D01*
X11337357Y-13787214D02*
X11365928Y-13787214D01*
X11394500Y-13801500D01*
X11408786Y-13815786D01*
X11423071Y-13844357D01*
X11437357Y-13901500D01*
X11437357Y-13972929D01*
X11423071Y-14030071D01*
X11408786Y-14058643D01*
X11394500Y-14072929D01*
X11365928Y-14087214D01*
X11337357Y-14087214D01*
X11308786Y-14072929D01*
X11294500Y-14058643D01*
X11280214Y-14030071D01*
X11265928Y-13972929D01*
X11265928Y-13901500D01*
X11280214Y-13844357D01*
X11294500Y-13815786D01*
X11308786Y-13801500D01*
X11337357Y-13787214D01*
X11623071Y-13787214D02*
X11651643Y-13787214D01*
X11680214Y-13801500D01*
X11694500Y-13815786D01*
X11708786Y-13844357D01*
X11723071Y-13901500D01*
X11723071Y-13972929D01*
X11708786Y-14030071D01*
X11694500Y-14058643D01*
X11680214Y-14072929D01*
X11651643Y-14087214D01*
X11623071Y-14087214D01*
X11594500Y-14072929D01*
X11580214Y-14058643D01*
X11565928Y-14030071D01*
X11551643Y-13972929D01*
X11551643Y-13901500D01*
X11565928Y-13844357D01*
X11580214Y-13815786D01*
X11594500Y-13801500D01*
X11623071Y-13787214D01*
X11851643Y-14087214D02*
X11851643Y-13887214D01*
X11851643Y-13915786D02*
X11865928Y-13901500D01*
X11894500Y-13887214D01*
X11937357Y-13887214D01*
X11965928Y-13901500D01*
X11980214Y-13930071D01*
X11980214Y-14087214D01*
X11980214Y-13930071D02*
X11994500Y-13901500D01*
X12023071Y-13887214D01*
X12065928Y-13887214D01*
X12094500Y-13901500D01*
X12108786Y-13930071D01*
X12108786Y-14087214D01*
X12251643Y-14087214D02*
X12251643Y-13887214D01*
X12251643Y-13915786D02*
X12265928Y-13901500D01*
X12294500Y-13887214D01*
X12337357Y-13887214D01*
X12365928Y-13901500D01*
X12380214Y-13930071D01*
X12380214Y-14087214D01*
X12380214Y-13930071D02*
X12394500Y-13901500D01*
X12423071Y-13887214D01*
X12465928Y-13887214D01*
X12494500Y-13901500D01*
X12508786Y-13930071D01*
X12508786Y-14087214D01*
X13094500Y-13772929D02*
X12837357Y-14158643D01*
X13480214Y-13787214D02*
X13508786Y-13787214D01*
X13537357Y-13801500D01*
X13551643Y-13815786D01*
X13565928Y-13844357D01*
X13580214Y-13901500D01*
X13580214Y-13972929D01*
X13565928Y-14030071D01*
X13551643Y-14058643D01*
X13537357Y-14072929D01*
X13508786Y-14087214D01*
X13480214Y-14087214D01*
X13451643Y-14072929D01*
X13437357Y-14058643D01*
X13423071Y-14030071D01*
X13408786Y-13972929D01*
X13408786Y-13901500D01*
X13423071Y-13844357D01*
X13437357Y-13815786D01*
X13451643Y-13801500D01*
X13480214Y-13787214D01*
X13708786Y-14058643D02*
X13723071Y-14072929D01*
X13708786Y-14087214D01*
X13694500Y-14072929D01*
X13708786Y-14058643D01*
X13708786Y-14087214D01*
X13908786Y-13787214D02*
X13937357Y-13787214D01*
X13965928Y-13801500D01*
X13980214Y-13815786D01*
X13994500Y-13844357D01*
X14008786Y-13901500D01*
X14008786Y-13972929D01*
X13994500Y-14030071D01*
X13980214Y-14058643D01*
X13965928Y-14072929D01*
X13937357Y-14087214D01*
X13908786Y-14087214D01*
X13880214Y-14072929D01*
X13865928Y-14058643D01*
X13851643Y-14030071D01*
X13837357Y-13972929D01*
X13837357Y-13901500D01*
X13851643Y-13844357D01*
X13865928Y-13815786D01*
X13880214Y-13801500D01*
X13908786Y-13787214D01*
X14108786Y-13787214D02*
X14294500Y-13787214D01*
X14194500Y-13901500D01*
X14237357Y-13901500D01*
X14265928Y-13915786D01*
X14280214Y-13930071D01*
X14294500Y-13958643D01*
X14294500Y-14030071D01*
X14280214Y-14058643D01*
X14265928Y-14072929D01*
X14237357Y-14087214D01*
X14151643Y-14087214D01*
X14123071Y-14072929D01*
X14108786Y-14058643D01*
X14437357Y-14087214D02*
X14494500Y-14087214D01*
X14523071Y-14072929D01*
X14537357Y-14058643D01*
X14565928Y-14015786D01*
X14580214Y-13958643D01*
X14580214Y-13844357D01*
X14565928Y-13815786D01*
X14551643Y-13801500D01*
X14523071Y-13787214D01*
X14465928Y-13787214D01*
X14437357Y-13801500D01*
X14423071Y-13815786D01*
X14408786Y-13844357D01*
X14408786Y-13915786D01*
X14423071Y-13944357D01*
X14437357Y-13958643D01*
X14465928Y-13972929D01*
X14523071Y-13972929D01*
X14551643Y-13958643D01*
X14565928Y-13944357D01*
X14580214Y-13915786D01*
X14837357Y-13887214D02*
X14837357Y-14087214D01*
X14765928Y-13772929D02*
X14694500Y-13987214D01*
X14880214Y-13987214D01*
X14980214Y-13787214D02*
X14980214Y-13844357D01*
X15094500Y-13787214D02*
X15094500Y-13844357D01*
X15537357Y-14201500D02*
X15523071Y-14187214D01*
X15494500Y-14144357D01*
X15480214Y-14115786D01*
X15465928Y-14072929D01*
X15451643Y-14001500D01*
X15451643Y-13944357D01*
X15465928Y-13872929D01*
X15480214Y-13830071D01*
X15494500Y-13801500D01*
X15523071Y-13758643D01*
X15537357Y-13744357D01*
X15794500Y-13787214D02*
X15651643Y-13787214D01*
X15637357Y-13930071D01*
X15651643Y-13915786D01*
X15680214Y-13901500D01*
X15751643Y-13901500D01*
X15780214Y-13915786D01*
X15794500Y-13930071D01*
X15808786Y-13958643D01*
X15808786Y-14030071D01*
X15794500Y-14058643D01*
X15780214Y-14072929D01*
X15751643Y-14087214D01*
X15680214Y-14087214D01*
X15651643Y-14072929D01*
X15637357Y-14058643D01*
X16165928Y-14087214D02*
X16165928Y-13787214D01*
X16294500Y-14087214D02*
X16294500Y-13930071D01*
X16280214Y-13901500D01*
X16251643Y-13887214D01*
X16208786Y-13887214D01*
X16180214Y-13901500D01*
X16165928Y-13915786D01*
X16480214Y-14087214D02*
X16451643Y-14072929D01*
X16437357Y-14058643D01*
X16423071Y-14030071D01*
X16423071Y-13944357D01*
X16437357Y-13915786D01*
X16451643Y-13901500D01*
X16480214Y-13887214D01*
X16523071Y-13887214D01*
X16551643Y-13901500D01*
X16565928Y-13915786D01*
X16580214Y-13944357D01*
X16580214Y-14030071D01*
X16565928Y-14058643D01*
X16551643Y-14072929D01*
X16523071Y-14087214D01*
X16480214Y-14087214D01*
X16751643Y-14087214D02*
X16723071Y-14072929D01*
X16708786Y-14044357D01*
X16708786Y-13787214D01*
X16980214Y-14072929D02*
X16951643Y-14087214D01*
X16894500Y-14087214D01*
X16865928Y-14072929D01*
X16851643Y-14044357D01*
X16851643Y-13930071D01*
X16865928Y-13901500D01*
X16894500Y-13887214D01*
X16951643Y-13887214D01*
X16980214Y-13901500D01*
X16994500Y-13930071D01*
X16994500Y-13958643D01*
X16851643Y-13987214D01*
X17108786Y-14072929D02*
X17137357Y-14087214D01*
X17194500Y-14087214D01*
X17223071Y-14072929D01*
X17237357Y-14044357D01*
X17237357Y-14030071D01*
X17223071Y-14001500D01*
X17194500Y-13987214D01*
X17151643Y-13987214D01*
X17123071Y-13972929D01*
X17108786Y-13944357D01*
X17108786Y-13930071D01*
X17123071Y-13901500D01*
X17151643Y-13887214D01*
X17194500Y-13887214D01*
X17223071Y-13901500D01*
X17337357Y-14201500D02*
X17351643Y-14187214D01*
X17380214Y-14144357D01*
X17394500Y-14115786D01*
X17408786Y-14072929D01*
X17423071Y-14001500D01*
X17423071Y-13944357D01*
X17408786Y-13872929D01*
X17394500Y-13830071D01*
X17380214Y-13801500D01*
X17351643Y-13758643D01*
X17337357Y-13744357D01*
M02*
