solid OpenSCAD_Model
  facet normal -1 0 0
    outer loop
      vertex 0 0 0
      vertex 0 10 1.5
      vertex 0 10 0
    endloop
  endfacet
  facet normal -1 -0 0
    outer loop
      vertex 0 10 1.5
      vertex 0 0 0
      vertex 0 0 1.5
    endloop
  endfacet
  facet normal 0 0 1
    outer loop
      vertex 24 10 1.5
      vertex 19.25 6.25 1.5
      vertex 24 0 1.5
    endloop
  endfacet
  facet normal 0 0 1
    outer loop
      vertex 24 10 1.5
      vertex 4.75 6.25 1.5
      vertex 19.25 6.25 1.5
    endloop
  endfacet
  facet normal 0 0 1
    outer loop
      vertex 4.75 6.25 1.5
      vertex 0 10 1.5
      vertex 4.75 3.75 1.5
    endloop
  endfacet
  facet normal -0 0 1
    outer loop
      vertex 0 10 1.5
      vertex 4.75 6.25 1.5
      vertex 24 10 1.5
    endloop
  endfacet
  facet normal -0 0 1
    outer loop
      vertex 19.25 3.75 1.5
      vertex 24 0 1.5
      vertex 19.25 6.25 1.5
    endloop
  endfacet
  facet normal -0 0 1
    outer loop
      vertex 4.75 3.75 1.5
      vertex 24 0 1.5
      vertex 19.25 3.75 1.5
    endloop
  endfacet
  facet normal 0 0 1
    outer loop
      vertex 4.75 3.75 1.5
      vertex 0 0 1.5
      vertex 24 0 1.5
    endloop
  endfacet
  facet normal 0 0 1
    outer loop
      vertex 0 0 1.5
      vertex 4.75 3.75 1.5
      vertex 0 10 1.5
    endloop
  endfacet
  facet normal 1 -0 0
    outer loop
      vertex 24 0 1.5
      vertex 24 10 0
      vertex 24 10 1.5
    endloop
  endfacet
  facet normal 1 0 0
    outer loop
      vertex 24 10 0
      vertex 24 0 1.5
      vertex 24 0 0
    endloop
  endfacet
  facet normal 0 0 -1
    outer loop
      vertex 24 0 0
      vertex 18.75 5 0
      vertex 24 10 0
    endloop
  endfacet
  facet normal 0 0 -1
    outer loop
      vertex 24 0 0
      vertex 18.6929 4.71299 0
      vertex 18.75 5 0
    endloop
  endfacet
  facet normal 0 0 -1
    outer loop
      vertex 24 0 0
      vertex 18.5303 4.46967 0
      vertex 18.6929 4.71299 0
    endloop
  endfacet
  facet normal 0 0 -1
    outer loop
      vertex 24 0 0
      vertex 18.287 4.30709 0
      vertex 18.5303 4.46967 0
    endloop
  endfacet
  facet normal 0 0 -1
    outer loop
      vertex 24 0 0
      vertex 18 4.25 0
      vertex 18.287 4.30709 0
    endloop
  endfacet
  facet normal 0 0 -1
    outer loop
      vertex 15 4.25 0
      vertex 18 4.25 0
      vertex 24 0 0
    endloop
  endfacet
  facet normal 0 0 -1
    outer loop
      vertex 18 4.25 0
      vertex 15 4.25 0
      vertex 17.713 4.30709 0
    endloop
  endfacet
  facet normal 0 0 -1
    outer loop
      vertex 17.3071 4.71299 0
      vertex 15.75 5 0
      vertex 17.25 5 0
    endloop
  endfacet
  facet normal 0 0 -1
    outer loop
      vertex 15.6929 4.71299 0
      vertex 17.3071 4.71299 0
      vertex 17.4697 4.46967 0
    endloop
  endfacet
  facet normal 0 0 -1
    outer loop
      vertex 17.713 4.30709 0
      vertex 15.287 4.30709 0
      vertex 17.4697 4.46967 0
    endloop
  endfacet
  facet normal 0 0 -1
    outer loop
      vertex 17.3071 4.71299 0
      vertex 15.6929 4.71299 0
      vertex 15.75 5 0
    endloop
  endfacet
  facet normal 0 0 -1
    outer loop
      vertex 17.4697 4.46967 0
      vertex 15.5303 4.46967 0
      vertex 15.6929 4.71299 0
    endloop
  endfacet
  facet normal -0 0 -1
    outer loop
      vertex 17.4697 4.46967 0
      vertex 15.287 4.30709 0
      vertex 15.5303 4.46967 0
    endloop
  endfacet
  facet normal -0 0 -1
    outer loop
      vertex 17.713 4.30709 0
      vertex 15 4.25 0
      vertex 15.287 4.30709 0
    endloop
  endfacet
  facet normal 0 0 -1
    outer loop
      vertex 12 4.25 0
      vertex 15 4.25 0
      vertex 24 0 0
    endloop
  endfacet
  facet normal 0 0 -1
    outer loop
      vertex 14.3071 4.71299 0
      vertex 12.75 5 0
      vertex 14.25 5 0
    endloop
  endfacet
  facet normal 0 0 -1
    outer loop
      vertex 12.6929 4.71299 0
      vertex 14.3071 4.71299 0
      vertex 14.4697 4.46967 0
    endloop
  endfacet
  facet normal 0 0 -1
    outer loop
      vertex 12.5303 4.46967 0
      vertex 14.4697 4.46967 0
      vertex 14.713 4.30709 0
    endloop
  endfacet
  facet normal 0 0 -1
    outer loop
      vertex 15 4.25 0
      vertex 12 4.25 0
      vertex 14.713 4.30709 0
    endloop
  endfacet
  facet normal 0 0 -1
    outer loop
      vertex 14.3071 4.71299 0
      vertex 12.6929 4.71299 0
      vertex 12.75 5 0
    endloop
  endfacet
  facet normal 0 0 -1
    outer loop
      vertex 14.4697 4.46967 0
      vertex 12.5303 4.46967 0
      vertex 12.6929 4.71299 0
    endloop
  endfacet
  facet normal 0 0 -1
    outer loop
      vertex 14.713 4.30709 0
      vertex 12.287 4.30709 0
      vertex 12.5303 4.46967 0
    endloop
  endfacet
  facet normal -0 0 -1
    outer loop
      vertex 14.713 4.30709 0
      vertex 12 4.25 0
      vertex 12.287 4.30709 0
    endloop
  endfacet
  facet normal 0 0 -1
    outer loop
      vertex 0 0 0
      vertex 12 4.25 0
      vertex 24 0 0
    endloop
  endfacet
  facet normal 0 0 -1
    outer loop
      vertex 11.3071 4.71299 0
      vertex 9.75 5 0
      vertex 11.25 5 0
    endloop
  endfacet
  facet normal 0 0 -1
    outer loop
      vertex 9.69291 4.71299 0
      vertex 11.3071 4.71299 0
      vertex 11.4697 4.46967 0
    endloop
  endfacet
  facet normal 0 0 -1
    outer loop
      vertex 9.53033 4.46967 0
      vertex 11.4697 4.46967 0
      vertex 11.713 4.30709 0
    endloop
  endfacet
  facet normal 0 0 -1
    outer loop
      vertex 11.3071 4.71299 0
      vertex 9.69291 4.71299 0
      vertex 9.75 5 0
    endloop
  endfacet
  facet normal 0 -0 -1
    outer loop
      vertex 9 4.25 0
      vertex 12 4.25 0
      vertex 0 0 0
    endloop
  endfacet
  facet normal 0 0 -1
    outer loop
      vertex 11.4697 4.46967 0
      vertex 9.53033 4.46967 0
      vertex 9.69291 4.71299 0
    endloop
  endfacet
  facet normal 0 0 -1
    outer loop
      vertex 11.713 4.30709 0
      vertex 9.28701 4.30709 0
      vertex 9.53033 4.46967 0
    endloop
  endfacet
  facet normal -0 0 -1
    outer loop
      vertex 11.713 4.30709 0
      vertex 9 4.25 0
      vertex 9.28701 4.30709 0
    endloop
  endfacet
  facet normal 0 0 -1
    outer loop
      vertex 12 4.25 0
      vertex 9 4.25 0
      vertex 11.713 4.30709 0
    endloop
  endfacet
  facet normal 0 0 -1
    outer loop
      vertex 8.30709 4.71299 0
      vertex 6.75 5 0
      vertex 8.25 5 0
    endloop
  endfacet
  facet normal 0 0 -1
    outer loop
      vertex 6.69291 4.71299 0
      vertex 8.30709 4.71299 0
      vertex 8.46967 4.46967 0
    endloop
  endfacet
  facet normal 0 0 -1
    outer loop
      vertex 6.53033 4.46967 0
      vertex 8.46967 4.46967 0
      vertex 8.71299 4.30709 0
    endloop
  endfacet
  facet normal 0 0 -1
    outer loop
      vertex 8.30709 4.71299 0
      vertex 6.69291 4.71299 0
      vertex 6.75 5 0
    endloop
  endfacet
  facet normal 0 -0 -1
    outer loop
      vertex 6 4.25 0
      vertex 9 4.25 0
      vertex 0 0 0
    endloop
  endfacet
  facet normal 0 0 -1
    outer loop
      vertex 8.46967 4.46967 0
      vertex 6.53033 4.46967 0
      vertex 6.69291 4.71299 0
    endloop
  endfacet
  facet normal 0 0 -1
    outer loop
      vertex 8.71299 4.30709 0
      vertex 6.28701 4.30709 0
      vertex 6.53033 4.46967 0
    endloop
  endfacet
  facet normal 0 0 -1
    outer loop
      vertex 9 4.25 0
      vertex 6 4.25 0
      vertex 8.71299 4.30709 0
    endloop
  endfacet
  facet normal -0 0 -1
    outer loop
      vertex 8.71299 4.30709 0
      vertex 6 4.25 0
      vertex 6.28701 4.30709 0
    endloop
  endfacet
  facet normal -0 0 -1
    outer loop
      vertex 5.30709 4.71299 0
      vertex 0 0 0
      vertex 5.25 5 0
    endloop
  endfacet
  facet normal -0 0 -1
    outer loop
      vertex 5.46967 4.46967 0
      vertex 0 0 0
      vertex 5.30709 4.71299 0
    endloop
  endfacet
  facet normal -0 0 -1
    outer loop
      vertex 5.71299 4.30709 0
      vertex 0 0 0
      vertex 5.46967 4.46967 0
    endloop
  endfacet
  facet normal -0 0 -1
    outer loop
      vertex 6 4.25 0
      vertex 0 0 0
      vertex 5.71299 4.30709 0
    endloop
  endfacet
  facet normal 0 0 -1
    outer loop
      vertex 18.6929 5.28701 0
      vertex 24 10 0
      vertex 18.75 5 0
    endloop
  endfacet
  facet normal 0 0 -1
    outer loop
      vertex 18.5303 5.53033 0
      vertex 24 10 0
      vertex 18.6929 5.28701 0
    endloop
  endfacet
  facet normal 0 0 -1
    outer loop
      vertex 18.287 5.69291 0
      vertex 24 10 0
      vertex 18.5303 5.53033 0
    endloop
  endfacet
  facet normal 0 0 -1
    outer loop
      vertex 18 5.75 0
      vertex 24 10 0
      vertex 18.287 5.69291 0
    endloop
  endfacet
  facet normal 0 0 -1
    outer loop
      vertex 15 5.75 0
      vertex 18 5.75 0
      vertex 17.713 5.69291 0
    endloop
  endfacet
  facet normal 0 0 -1
    outer loop
      vertex 15.287 5.69291 0
      vertex 17.713 5.69291 0
      vertex 17.4697 5.53033 0
    endloop
  endfacet
  facet normal 0 0 -1
    outer loop
      vertex 15.75 5 0
      vertex 17.3071 5.28701 0
      vertex 17.25 5 0
    endloop
  endfacet
  facet normal 0 0 -1
    outer loop
      vertex 15.6929 5.28701 0
      vertex 17.3071 5.28701 0
      vertex 15.75 5 0
    endloop
  endfacet
  facet normal 0 0 -1
    outer loop
      vertex 17.3071 5.28701 0
      vertex 15.6929 5.28701 0
      vertex 17.4697 5.53033 0
    endloop
  endfacet
  facet normal 0 0 -1
    outer loop
      vertex 15.5303 5.53033 0
      vertex 17.4697 5.53033 0
      vertex 15.6929 5.28701 0
    endloop
  endfacet
  facet normal 0 0 -1
    outer loop
      vertex 15.287 5.69291 0
      vertex 17.4697 5.53033 0
      vertex 15.5303 5.53033 0
    endloop
  endfacet
  facet normal 0 0 -1
    outer loop
      vertex 15 5.75 0
      vertex 17.713 5.69291 0
      vertex 15.287 5.69291 0
    endloop
  endfacet
  facet normal 0 0 -1
    outer loop
      vertex 18 5.75 0
      vertex 15 5.75 0
      vertex 24 10 0
    endloop
  endfacet
  facet normal 0 0 -1
    outer loop
      vertex 12 5.75 0
      vertex 15 5.75 0
      vertex 14.713 5.69291 0
    endloop
  endfacet
  facet normal 0 0 -1
    outer loop
      vertex 12.75 5 0
      vertex 14.3071 5.28701 0
      vertex 14.25 5 0
    endloop
  endfacet
  facet normal 0 0 -1
    outer loop
      vertex 12.6929 5.28701 0
      vertex 14.3071 5.28701 0
      vertex 12.75 5 0
    endloop
  endfacet
  facet normal 0 0 -1
    outer loop
      vertex 14.3071 5.28701 0
      vertex 12.6929 5.28701 0
      vertex 14.4697 5.53033 0
    endloop
  endfacet
  facet normal 0 0 -1
    outer loop
      vertex 12.5303 5.53033 0
      vertex 14.4697 5.53033 0
      vertex 12.6929 5.28701 0
    endloop
  endfacet
  facet normal 0 0 -1
    outer loop
      vertex 14.4697 5.53033 0
      vertex 12.5303 5.53033 0
      vertex 14.713 5.69291 0
    endloop
  endfacet
  facet normal 0 0 -1
    outer loop
      vertex 12.287 5.69291 0
      vertex 14.713 5.69291 0
      vertex 12.5303 5.53033 0
    endloop
  endfacet
  facet normal 0 0 -1
    outer loop
      vertex 12 5.75 0
      vertex 14.713 5.69291 0
      vertex 12.287 5.69291 0
    endloop
  endfacet
  facet normal 0 0 -1
    outer loop
      vertex 15 5.75 0
      vertex 12 5.75 0
      vertex 24 10 0
    endloop
  endfacet
  facet normal 0 0 -1
    outer loop
      vertex 9 5.75 0
      vertex 12 5.75 0
      vertex 11.713 5.69291 0
    endloop
  endfacet
  facet normal 0 0 -1
    outer loop
      vertex 9.75 5 0
      vertex 11.3071 5.28701 0
      vertex 11.25 5 0
    endloop
  endfacet
  facet normal 0 0 -1
    outer loop
      vertex 9.69291 5.28701 0
      vertex 11.3071 5.28701 0
      vertex 9.75 5 0
    endloop
  endfacet
  facet normal 0 0 -1
    outer loop
      vertex 11.3071 5.28701 0
      vertex 9.69291 5.28701 0
      vertex 11.4697 5.53033 0
    endloop
  endfacet
  facet normal 0 0 -1
    outer loop
      vertex 9.53033 5.53033 0
      vertex 11.4697 5.53033 0
      vertex 9.69291 5.28701 0
    endloop
  endfacet
  facet normal 0 0 -1
    outer loop
      vertex 11.4697 5.53033 0
      vertex 9.53033 5.53033 0
      vertex 11.713 5.69291 0
    endloop
  endfacet
  facet normal 0 0 -1
    outer loop
      vertex 9.28701 5.69291 0
      vertex 11.713 5.69291 0
      vertex 9.53033 5.53033 0
    endloop
  endfacet
  facet normal 0 0 -1
    outer loop
      vertex 9 5.75 0
      vertex 11.713 5.69291 0
      vertex 9.28701 5.69291 0
    endloop
  endfacet
  facet normal 0 0 -1
    outer loop
      vertex 12 5.75 0
      vertex 9 5.75 0
      vertex 0 10 0
    endloop
  endfacet
  facet normal 0 0 -1
    outer loop
      vertex 6 5.75 0
      vertex 9 5.75 0
      vertex 8.71299 5.69291 0
    endloop
  endfacet
  facet normal 0 0 -1
    outer loop
      vertex 6.75 5 0
      vertex 8.30709 5.28701 0
      vertex 8.25 5 0
    endloop
  endfacet
  facet normal 0 0 -1
    outer loop
      vertex 6.69291 5.28701 0
      vertex 8.30709 5.28701 0
      vertex 6.75 5 0
    endloop
  endfacet
  facet normal 0 0 -1
    outer loop
      vertex 8.30709 5.28701 0
      vertex 6.69291 5.28701 0
      vertex 8.46967 5.53033 0
    endloop
  endfacet
  facet normal 0 0 -1
    outer loop
      vertex 6.53033 5.53033 0
      vertex 8.46967 5.53033 0
      vertex 6.69291 5.28701 0
    endloop
  endfacet
  facet normal 0 0 -1
    outer loop
      vertex 8.46967 5.53033 0
      vertex 6.53033 5.53033 0
      vertex 8.71299 5.69291 0
    endloop
  endfacet
  facet normal 0 0 -1
    outer loop
      vertex 6.28701 5.69291 0
      vertex 8.71299 5.69291 0
      vertex 6.53033 5.53033 0
    endloop
  endfacet
  facet normal 0 0 -1
    outer loop
      vertex 6 5.75 0
      vertex 8.71299 5.69291 0
      vertex 6.28701 5.69291 0
    endloop
  endfacet
  facet normal 0 0 -1
    outer loop
      vertex 9 5.75 0
      vertex 6 5.75 0
      vertex 0 10 0
    endloop
  endfacet
  facet normal 0 0 -1
    outer loop
      vertex 0 10 0
      vertex 6 5.75 0
      vertex 5.71299 5.69291 0
    endloop
  endfacet
  facet normal 0 0 -1
    outer loop
      vertex 0 10 0
      vertex 5.25 5 0
      vertex 0 0 0
    endloop
  endfacet
  facet normal 0 0 -1
    outer loop
      vertex 5.25 5 0
      vertex 0 10 0
      vertex 5.30709 5.28701 0
    endloop
  endfacet
  facet normal 0 0 -1
    outer loop
      vertex 12 5.75 0
      vertex 0 10 0
      vertex 24 10 0
    endloop
  endfacet
  facet normal 0 0 -1
    outer loop
      vertex 5.46967 5.53033 0
      vertex 0 10 0
      vertex 5.71299 5.69291 0
    endloop
  endfacet
  facet normal 0 0 -1
    outer loop
      vertex 5.30709 5.28701 0
      vertex 0 10 0
      vertex 5.46967 5.53033 0
    endloop
  endfacet
  facet normal 0 -1 0
    outer loop
      vertex 0 0 0
      vertex 24 0 1.5
      vertex 0 0 1.5
    endloop
  endfacet
  facet normal 0 -1 -0
    outer loop
      vertex 24 0 1.5
      vertex 0 0 0
      vertex 24 0 0
    endloop
  endfacet
  facet normal 0 1 -0
    outer loop
      vertex 24 10 0
      vertex 0 10 1.5
      vertex 24 10 1.5
    endloop
  endfacet
  facet normal 0 1 0
    outer loop
      vertex 0 10 1.5
      vertex 24 10 0
      vertex 0 10 0
    endloop
  endfacet
  facet normal -1 0 0
    outer loop
      vertex 4.75 3.75 1.5
      vertex 4.75 6.25 3.5
      vertex 4.75 6.25 1.5
    endloop
  endfacet
  facet normal -1 -0 0
    outer loop
      vertex 4.75 6.25 3.5
      vertex 4.75 3.75 1.5
      vertex 4.75 3.75 3.5
    endloop
  endfacet
  facet normal 0 0 1
    outer loop
      vertex 19.25 6.25 3.5
      vertex 18.75 5 3.5
      vertex 19.25 3.75 3.5
    endloop
  endfacet
  facet normal 0 0 1
    outer loop
      vertex 19.25 6.25 3.5
      vertex 18.6929 5.28701 3.5
      vertex 18.75 5 3.5
    endloop
  endfacet
  facet normal 0 0 1
    outer loop
      vertex 19.25 6.25 3.5
      vertex 18.5303 5.53033 3.5
      vertex 18.6929 5.28701 3.5
    endloop
  endfacet
  facet normal 0 0 1
    outer loop
      vertex 19.25 6.25 3.5
      vertex 18.287 5.69291 3.5
      vertex 18.5303 5.53033 3.5
    endloop
  endfacet
  facet normal 0 0 1
    outer loop
      vertex 19.25 6.25 3.5
      vertex 18 5.75 3.5
      vertex 18.287 5.69291 3.5
    endloop
  endfacet
  facet normal 0 0 1
    outer loop
      vertex 19.25 6.25 3.5
      vertex 17.713 5.69291 3.5
      vertex 18 5.75 3.5
    endloop
  endfacet
  facet normal 0 0 1
    outer loop
      vertex 17.3071 5.28701 3.5
      vertex 15.75 5 3.5
      vertex 17.25 5 3.5
    endloop
  endfacet
  facet normal 0 0 1
    outer loop
      vertex 15.6929 5.28701 3.5
      vertex 17.3071 5.28701 3.5
      vertex 17.4697 5.53033 3.5
    endloop
  endfacet
  facet normal 0 0 1
    outer loop
      vertex 15.5303 5.53033 3.5
      vertex 17.4697 5.53033 3.5
      vertex 17.713 5.69291 3.5
    endloop
  endfacet
  facet normal 0 0 1
    outer loop
      vertex 15.287 5.69291 3.5
      vertex 17.713 5.69291 3.5
      vertex 19.25 6.25 3.5
    endloop
  endfacet
  facet normal 0 0 1
    outer loop
      vertex 17.3071 5.28701 3.5
      vertex 15.6929 5.28701 3.5
      vertex 15.75 5 3.5
    endloop
  endfacet
  facet normal 0 0 1
    outer loop
      vertex 17.4697 5.53033 3.5
      vertex 15.5303 5.53033 3.5
      vertex 15.6929 5.28701 3.5
    endloop
  endfacet
  facet normal 0 0 1
    outer loop
      vertex 17.713 5.69291 3.5
      vertex 15.287 5.69291 3.5
      vertex 15.5303 5.53033 3.5
    endloop
  endfacet
  facet normal 0 0 1
    outer loop
      vertex 19.25 6.25 3.5
      vertex 15 5.75 3.5
      vertex 15.287 5.69291 3.5
    endloop
  endfacet
  facet normal 0 0 1
    outer loop
      vertex 14.3071 5.28701 3.5
      vertex 12.75 5 3.5
      vertex 14.25 5 3.5
    endloop
  endfacet
  facet normal 0 0 1
    outer loop
      vertex 12.6929 5.28701 3.5
      vertex 14.3071 5.28701 3.5
      vertex 14.4697 5.53033 3.5
    endloop
  endfacet
  facet normal 0 0 1
    outer loop
      vertex 12.5303 5.53033 3.5
      vertex 14.4697 5.53033 3.5
      vertex 14.713 5.69291 3.5
    endloop
  endfacet
  facet normal 0 0 1
    outer loop
      vertex 14.3071 5.28701 3.5
      vertex 12.6929 5.28701 3.5
      vertex 12.75 5 3.5
    endloop
  endfacet
  facet normal 0 0 1
    outer loop
      vertex 14.4697 5.53033 3.5
      vertex 12.5303 5.53033 3.5
      vertex 12.6929 5.28701 3.5
    endloop
  endfacet
  facet normal 0 0 1
    outer loop
      vertex 12.287 5.69291 3.5
      vertex 14.713 5.69291 3.5
      vertex 15 5.75 3.5
    endloop
  endfacet
  facet normal 0 0 1
    outer loop
      vertex 12 5.75 3.5
      vertex 15 5.75 3.5
      vertex 19.25 6.25 3.5
    endloop
  endfacet
  facet normal 0 0 1
    outer loop
      vertex 14.713 5.69291 3.5
      vertex 12.287 5.69291 3.5
      vertex 12.5303 5.53033 3.5
    endloop
  endfacet
  facet normal 0 0 1
    outer loop
      vertex 15 5.75 3.5
      vertex 12 5.75 3.5
      vertex 12.287 5.69291 3.5
    endloop
  endfacet
  facet normal 0 0 1
    outer loop
      vertex 11.3071 5.28701 3.5
      vertex 9.75 5 3.5
      vertex 11.25 5 3.5
    endloop
  endfacet
  facet normal 0 0 1
    outer loop
      vertex 9.69291 5.28701 3.5
      vertex 11.3071 5.28701 3.5
      vertex 11.4697 5.53033 3.5
    endloop
  endfacet
  facet normal 0 0 1
    outer loop
      vertex 9.53033 5.53033 3.5
      vertex 11.4697 5.53033 3.5
      vertex 11.713 5.69291 3.5
    endloop
  endfacet
  facet normal 0 0 1
    outer loop
      vertex 11.3071 5.28701 3.5
      vertex 9.69291 5.28701 3.5
      vertex 9.75 5 3.5
    endloop
  endfacet
  facet normal 0 0 1
    outer loop
      vertex 11.4697 5.53033 3.5
      vertex 9.53033 5.53033 3.5
      vertex 9.69291 5.28701 3.5
    endloop
  endfacet
  facet normal 0 0 1
    outer loop
      vertex 9.28701 5.69291 3.5
      vertex 11.713 5.69291 3.5
      vertex 12 5.75 3.5
    endloop
  endfacet
  facet normal 0 0 1
    outer loop
      vertex 11.713 5.69291 3.5
      vertex 9.28701 5.69291 3.5
      vertex 9.53033 5.53033 3.5
    endloop
  endfacet
  facet normal -0 0 1
    outer loop
      vertex 4.75 6.25 3.5
      vertex 12 5.75 3.5
      vertex 19.25 6.25 3.5
    endloop
  endfacet
  facet normal 0 0 1
    outer loop
      vertex 12 5.75 3.5
      vertex 9 5.75 3.5
      vertex 9.28701 5.69291 3.5
    endloop
  endfacet
  facet normal 0 0 1
    outer loop
      vertex 8.30709 5.28701 3.5
      vertex 6.75 5 3.5
      vertex 8.25 5 3.5
    endloop
  endfacet
  facet normal 0 0 1
    outer loop
      vertex 6.69291 5.28701 3.5
      vertex 8.30709 5.28701 3.5
      vertex 8.46967 5.53033 3.5
    endloop
  endfacet
  facet normal 0 0 1
    outer loop
      vertex 6.53033 5.53033 3.5
      vertex 8.46967 5.53033 3.5
      vertex 8.71299 5.69291 3.5
    endloop
  endfacet
  facet normal 0 0 1
    outer loop
      vertex 8.30709 5.28701 3.5
      vertex 6.69291 5.28701 3.5
      vertex 6.75 5 3.5
    endloop
  endfacet
  facet normal 0 0 1
    outer loop
      vertex 8.46967 5.53033 3.5
      vertex 6.53033 5.53033 3.5
      vertex 6.69291 5.28701 3.5
    endloop
  endfacet
  facet normal 0 0 1
    outer loop
      vertex 4.75 6.25 3.5
      vertex 8.71299 5.69291 3.5
      vertex 9 5.75 3.5
    endloop
  endfacet
  facet normal 0 0 1
    outer loop
      vertex 8.71299 5.69291 3.5
      vertex 6.28701 5.69291 3.5
      vertex 6.53033 5.53033 3.5
    endloop
  endfacet
  facet normal 0 0 1
    outer loop
      vertex 12 5.75 3.5
      vertex 4.75 6.25 3.5
      vertex 9 5.75 3.5
    endloop
  endfacet
  facet normal 0 0 1
    outer loop
      vertex 8.71299 5.69291 3.5
      vertex 4.75 6.25 3.5
      vertex 6.28701 5.69291 3.5
    endloop
  endfacet
  facet normal 0 0 1
    outer loop
      vertex 5.30709 5.28701 3.5
      vertex 4.75 6.25 3.5
      vertex 5.25 5 3.5
    endloop
  endfacet
  facet normal 0 0 1
    outer loop
      vertex 5.46967 5.53033 3.5
      vertex 4.75 6.25 3.5
      vertex 5.30709 5.28701 3.5
    endloop
  endfacet
  facet normal 0 0 1
    outer loop
      vertex 5.71299 5.69291 3.5
      vertex 4.75 6.25 3.5
      vertex 5.46967 5.53033 3.5
    endloop
  endfacet
  facet normal 0 0 1
    outer loop
      vertex 6 5.75 3.5
      vertex 4.75 6.25 3.5
      vertex 5.71299 5.69291 3.5
    endloop
  endfacet
  facet normal 0 0 1
    outer loop
      vertex 6.28701 5.69291 3.5
      vertex 4.75 6.25 3.5
      vertex 6 5.75 3.5
    endloop
  endfacet
  facet normal -0 0 1
    outer loop
      vertex 18.6929 4.71299 3.5
      vertex 19.25 3.75 3.5
      vertex 18.75 5 3.5
    endloop
  endfacet
  facet normal -0 0 1
    outer loop
      vertex 18.5303 4.46967 3.5
      vertex 19.25 3.75 3.5
      vertex 18.6929 4.71299 3.5
    endloop
  endfacet
  facet normal -0 0 1
    outer loop
      vertex 18.287 4.30709 3.5
      vertex 19.25 3.75 3.5
      vertex 18.5303 4.46967 3.5
    endloop
  endfacet
  facet normal -0 0 1
    outer loop
      vertex 18 4.25 3.5
      vertex 19.25 3.75 3.5
      vertex 18.287 4.30709 3.5
    endloop
  endfacet
  facet normal 0 0 1
    outer loop
      vertex 17.713 4.30709 3.5
      vertex 19.25 3.75 3.5
      vertex 18 4.25 3.5
    endloop
  endfacet
  facet normal -0 0 1
    outer loop
      vertex 15.75 5 3.5
      vertex 17.3071 4.71299 3.5
      vertex 17.25 5 3.5
    endloop
  endfacet
  facet normal 0 0 1
    outer loop
      vertex 15.6929 4.71299 3.5
      vertex 17.3071 4.71299 3.5
      vertex 15.75 5 3.5
    endloop
  endfacet
  facet normal 0 0 1
    outer loop
      vertex 17.3071 4.71299 3.5
      vertex 15.6929 4.71299 3.5
      vertex 17.4697 4.46967 3.5
    endloop
  endfacet
  facet normal 0 0 1
    outer loop
      vertex 15.5303 4.46967 3.5
      vertex 17.4697 4.46967 3.5
      vertex 15.6929 4.71299 3.5
    endloop
  endfacet
  facet normal 0 0 1
    outer loop
      vertex 17.4697 4.46967 3.5
      vertex 15.5303 4.46967 3.5
      vertex 17.713 4.30709 3.5
    endloop
  endfacet
  facet normal 0 0 1
    outer loop
      vertex 15.287 4.30709 3.5
      vertex 17.713 4.30709 3.5
      vertex 15.5303 4.46967 3.5
    endloop
  endfacet
  facet normal 0 0 1
    outer loop
      vertex 17.713 4.30709 3.5
      vertex 15.287 4.30709 3.5
      vertex 19.25 3.75 3.5
    endloop
  endfacet
  facet normal -0 0 1
    outer loop
      vertex 15 4.25 3.5
      vertex 19.25 3.75 3.5
      vertex 15.287 4.30709 3.5
    endloop
  endfacet
  facet normal -0 0 1
    outer loop
      vertex 12.75 5 3.5
      vertex 14.3071 4.71299 3.5
      vertex 14.25 5 3.5
    endloop
  endfacet
  facet normal 0 0 1
    outer loop
      vertex 12.6929 4.71299 3.5
      vertex 14.3071 4.71299 3.5
      vertex 12.75 5 3.5
    endloop
  endfacet
  facet normal 0 0 1
    outer loop
      vertex 14.3071 4.71299 3.5
      vertex 12.6929 4.71299 3.5
      vertex 14.4697 4.46967 3.5
    endloop
  endfacet
  facet normal 0 0 1
    outer loop
      vertex 12.5303 4.46967 3.5
      vertex 14.4697 4.46967 3.5
      vertex 12.6929 4.71299 3.5
    endloop
  endfacet
  facet normal 0 0 1
    outer loop
      vertex 14.4697 4.46967 3.5
      vertex 12.5303 4.46967 3.5
      vertex 14.713 4.30709 3.5
    endloop
  endfacet
  facet normal 0 0 1
    outer loop
      vertex 12.287 4.30709 3.5
      vertex 14.713 4.30709 3.5
      vertex 12.5303 4.46967 3.5
    endloop
  endfacet
  facet normal 0 0 1
    outer loop
      vertex 14.713 4.30709 3.5
      vertex 12.287 4.30709 3.5
      vertex 15 4.25 3.5
    endloop
  endfacet
  facet normal 0 0 1
    outer loop
      vertex 12 4.25 3.5
      vertex 15 4.25 3.5
      vertex 12.287 4.30709 3.5
    endloop
  endfacet
  facet normal 0 0 1
    outer loop
      vertex 15 4.25 3.5
      vertex 12 4.25 3.5
      vertex 19.25 3.75 3.5
    endloop
  endfacet
  facet normal -0 0 1
    outer loop
      vertex 9.75 5 3.5
      vertex 11.3071 4.71299 3.5
      vertex 11.25 5 3.5
    endloop
  endfacet
  facet normal 0 0 1
    outer loop
      vertex 9.69291 4.71299 3.5
      vertex 11.3071 4.71299 3.5
      vertex 9.75 5 3.5
    endloop
  endfacet
  facet normal 0 0 1
    outer loop
      vertex 11.3071 4.71299 3.5
      vertex 9.69291 4.71299 3.5
      vertex 11.4697 4.46967 3.5
    endloop
  endfacet
  facet normal 0 0 1
    outer loop
      vertex 9.53033 4.46967 3.5
      vertex 11.4697 4.46967 3.5
      vertex 9.69291 4.71299 3.5
    endloop
  endfacet
  facet normal 0 0 1
    outer loop
      vertex 11.4697 4.46967 3.5
      vertex 9.53033 4.46967 3.5
      vertex 11.713 4.30709 3.5
    endloop
  endfacet
  facet normal 0 0 1
    outer loop
      vertex 9.28701 4.30709 3.5
      vertex 11.713 4.30709 3.5
      vertex 9.53033 4.46967 3.5
    endloop
  endfacet
  facet normal 0 0 1
    outer loop
      vertex 11.713 4.30709 3.5
      vertex 9.28701 4.30709 3.5
      vertex 12 4.25 3.5
    endloop
  endfacet
  facet normal 0 0 1
    outer loop
      vertex 9 4.25 3.5
      vertex 12 4.25 3.5
      vertex 9.28701 4.30709 3.5
    endloop
  endfacet
  facet normal 0 0 1
    outer loop
      vertex 4.75 3.75 3.5
      vertex 12 4.25 3.5
      vertex 9 4.25 3.5
    endloop
  endfacet
  facet normal -0 0 1
    outer loop
      vertex 6.75 5 3.5
      vertex 8.30709 4.71299 3.5
      vertex 8.25 5 3.5
    endloop
  endfacet
  facet normal 0 0 1
    outer loop
      vertex 6.69291 4.71299 3.5
      vertex 8.30709 4.71299 3.5
      vertex 6.75 5 3.5
    endloop
  endfacet
  facet normal 0 0 1
    outer loop
      vertex 8.30709 4.71299 3.5
      vertex 6.69291 4.71299 3.5
      vertex 8.46967 4.46967 3.5
    endloop
  endfacet
  facet normal 0 0 1
    outer loop
      vertex 6.53033 4.46967 3.5
      vertex 8.46967 4.46967 3.5
      vertex 6.69291 4.71299 3.5
    endloop
  endfacet
  facet normal 0 0 1
    outer loop
      vertex 8.46967 4.46967 3.5
      vertex 6.53033 4.46967 3.5
      vertex 8.71299 4.30709 3.5
    endloop
  endfacet
  facet normal 0 0 1
    outer loop
      vertex 6.28701 4.30709 3.5
      vertex 8.71299 4.30709 3.5
      vertex 6.53033 4.46967 3.5
    endloop
  endfacet
  facet normal 0 0 1
    outer loop
      vertex 4.75 3.75 3.5
      vertex 8.71299 4.30709 3.5
      vertex 6.28701 4.30709 3.5
    endloop
  endfacet
  facet normal 0 0 1
    outer loop
      vertex 8.71299 4.30709 3.5
      vertex 4.75 3.75 3.5
      vertex 9 4.25 3.5
    endloop
  endfacet
  facet normal 0 0 1
    outer loop
      vertex 4.75 3.75 3.5
      vertex 6.28701 4.30709 3.5
      vertex 6 4.25 3.5
    endloop
  endfacet
  facet normal 0 0 1
    outer loop
      vertex 4.75 3.75 3.5
      vertex 5.25 5 3.5
      vertex 4.75 6.25 3.5
    endloop
  endfacet
  facet normal 0 0 1
    outer loop
      vertex 12 4.25 3.5
      vertex 4.75 3.75 3.5
      vertex 19.25 3.75 3.5
    endloop
  endfacet
  facet normal 0 0 1
    outer loop
      vertex 5.71299 4.30709 3.5
      vertex 4.75 3.75 3.5
      vertex 6 4.25 3.5
    endloop
  endfacet
  facet normal 0 0 1
    outer loop
      vertex 5.46967 4.46967 3.5
      vertex 4.75 3.75 3.5
      vertex 5.71299 4.30709 3.5
    endloop
  endfacet
  facet normal 0 0 1
    outer loop
      vertex 5.30709 4.71299 3.5
      vertex 4.75 3.75 3.5
      vertex 5.46967 4.46967 3.5
    endloop
  endfacet
  facet normal 0 0 1
    outer loop
      vertex 5.25 5 3.5
      vertex 4.75 3.75 3.5
      vertex 5.30709 4.71299 3.5
    endloop
  endfacet
  facet normal 1 -0 0
    outer loop
      vertex 19.25 3.75 3.5
      vertex 19.25 6.25 1.5
      vertex 19.25 6.25 3.5
    endloop
  endfacet
  facet normal 1 0 0
    outer loop
      vertex 19.25 6.25 1.5
      vertex 19.25 3.75 3.5
      vertex 19.25 3.75 1.5
    endloop
  endfacet
  facet normal 0 -1 0
    outer loop
      vertex 4.75 3.75 1.5
      vertex 19.25 3.75 3.5
      vertex 4.75 3.75 3.5
    endloop
  endfacet
  facet normal 0 -1 -0
    outer loop
      vertex 19.25 3.75 3.5
      vertex 4.75 3.75 1.5
      vertex 19.25 3.75 1.5
    endloop
  endfacet
  facet normal 0 1 -0
    outer loop
      vertex 19.25 6.25 1.5
      vertex 4.75 6.25 3.5
      vertex 19.25 6.25 3.5
    endloop
  endfacet
  facet normal 0 1 0
    outer loop
      vertex 4.75 6.25 3.5
      vertex 19.25 6.25 1.5
      vertex 4.75 6.25 1.5
    endloop
  endfacet
  facet normal -0.980785 -0.195091 0
    outer loop
      vertex 6.75 5 0
      vertex 6.69291 5.28701 3.5
      vertex 6.69291 5.28701 0
    endloop
  endfacet
  facet normal -0.980785 -0.195091 0
    outer loop
      vertex 6.69291 5.28701 3.5
      vertex 6.75 5 0
      vertex 6.75 5 3.5
    endloop
  endfacet
  facet normal -0.195091 -0.980785 0
    outer loop
      vertex 6 5.75 0
      vertex 6.28701 5.69291 3.5
      vertex 6 5.75 3.5
    endloop
  endfacet
  facet normal -0.195091 -0.980785 -0
    outer loop
      vertex 6.28701 5.69291 3.5
      vertex 6 5.75 0
      vertex 6.28701 5.69291 0
    endloop
  endfacet
  facet normal 0.980785 0.195091 0
    outer loop
      vertex 5.30709 4.71299 3.5
      vertex 5.25 5 0
      vertex 5.25 5 3.5
    endloop
  endfacet
  facet normal 0.980785 0.195091 0
    outer loop
      vertex 5.25 5 0
      vertex 5.30709 4.71299 3.5
      vertex 5.30709 4.71299 0
    endloop
  endfacet
  facet normal -0.555567 0.831472 0
    outer loop
      vertex 6.53033 4.46967 0
      vertex 6.28701 4.30709 3.5
      vertex 6.53033 4.46967 3.5
    endloop
  endfacet
  facet normal -0.555567 0.831472 0
    outer loop
      vertex 6.28701 4.30709 3.5
      vertex 6.53033 4.46967 0
      vertex 6.28701 4.30709 0
    endloop
  endfacet
  facet normal -0.195091 0.980785 0
    outer loop
      vertex 6.28701 4.30709 0
      vertex 6 4.25 3.5
      vertex 6.28701 4.30709 3.5
    endloop
  endfacet
  facet normal -0.195091 0.980785 0
    outer loop
      vertex 6 4.25 3.5
      vertex 6.28701 4.30709 0
      vertex 6 4.25 0
    endloop
  endfacet
  facet normal -0.555567 -0.831472 0
    outer loop
      vertex 6.28701 5.69291 0
      vertex 6.53033 5.53033 3.5
      vertex 6.28701 5.69291 3.5
    endloop
  endfacet
  facet normal -0.555567 -0.831472 -0
    outer loop
      vertex 6.53033 5.53033 3.5
      vertex 6.28701 5.69291 0
      vertex 6.53033 5.53033 0
    endloop
  endfacet
  facet normal -0.831472 -0.555567 0
    outer loop
      vertex 6.69291 5.28701 0
      vertex 6.53033 5.53033 3.5
      vertex 6.53033 5.53033 0
    endloop
  endfacet
  facet normal -0.831472 -0.555567 0
    outer loop
      vertex 6.53033 5.53033 3.5
      vertex 6.69291 5.28701 0
      vertex 6.69291 5.28701 3.5
    endloop
  endfacet
  facet normal 0.195091 -0.980785 0
    outer loop
      vertex 5.71299 5.69291 0
      vertex 6 5.75 3.5
      vertex 5.71299 5.69291 3.5
    endloop
  endfacet
  facet normal 0.195091 -0.980785 0
    outer loop
      vertex 6 5.75 3.5
      vertex 5.71299 5.69291 0
      vertex 6 5.75 0
    endloop
  endfacet
  facet normal 0.555567 -0.831472 0
    outer loop
      vertex 5.46967 5.53033 0
      vertex 5.71299 5.69291 3.5
      vertex 5.46967 5.53033 3.5
    endloop
  endfacet
  facet normal 0.555567 -0.831472 0
    outer loop
      vertex 5.71299 5.69291 3.5
      vertex 5.46967 5.53033 0
      vertex 5.71299 5.69291 0
    endloop
  endfacet
  facet normal 0.831472 -0.555567 0
    outer loop
      vertex 5.30709 5.28701 3.5
      vertex 5.46967 5.53033 0
      vertex 5.46967 5.53033 3.5
    endloop
  endfacet
  facet normal 0.831472 -0.555567 0
    outer loop
      vertex 5.46967 5.53033 0
      vertex 5.30709 5.28701 3.5
      vertex 5.30709 5.28701 0
    endloop
  endfacet
  facet normal 0.831472 0.555567 0
    outer loop
      vertex 5.46967 4.46967 3.5
      vertex 5.30709 4.71299 0
      vertex 5.30709 4.71299 3.5
    endloop
  endfacet
  facet normal 0.831472 0.555567 0
    outer loop
      vertex 5.30709 4.71299 0
      vertex 5.46967 4.46967 3.5
      vertex 5.46967 4.46967 0
    endloop
  endfacet
  facet normal 0.195091 0.980785 -0
    outer loop
      vertex 6 4.25 0
      vertex 5.71299 4.30709 3.5
      vertex 6 4.25 3.5
    endloop
  endfacet
  facet normal 0.195091 0.980785 0
    outer loop
      vertex 5.71299 4.30709 3.5
      vertex 6 4.25 0
      vertex 5.71299 4.30709 0
    endloop
  endfacet
  facet normal 0.555567 0.831472 -0
    outer loop
      vertex 5.71299 4.30709 0
      vertex 5.46967 4.46967 3.5
      vertex 5.71299 4.30709 3.5
    endloop
  endfacet
  facet normal 0.555567 0.831472 0
    outer loop
      vertex 5.46967 4.46967 3.5
      vertex 5.71299 4.30709 0
      vertex 5.46967 4.46967 0
    endloop
  endfacet
  facet normal 0.980785 -0.195091 0
    outer loop
      vertex 5.25 5 3.5
      vertex 5.30709 5.28701 0
      vertex 5.30709 5.28701 3.5
    endloop
  endfacet
  facet normal 0.980785 -0.195091 0
    outer loop
      vertex 5.30709 5.28701 0
      vertex 5.25 5 3.5
      vertex 5.25 5 0
    endloop
  endfacet
  facet normal -0.831472 0.555567 0
    outer loop
      vertex 6.53033 4.46967 0
      vertex 6.69291 4.71299 3.5
      vertex 6.69291 4.71299 0
    endloop
  endfacet
  facet normal -0.831472 0.555567 0
    outer loop
      vertex 6.69291 4.71299 3.5
      vertex 6.53033 4.46967 0
      vertex 6.53033 4.46967 3.5
    endloop
  endfacet
  facet normal -0.980785 0.195091 0
    outer loop
      vertex 6.69291 4.71299 0
      vertex 6.75 5 3.5
      vertex 6.75 5 0
    endloop
  endfacet
  facet normal -0.980785 0.195091 0
    outer loop
      vertex 6.75 5 3.5
      vertex 6.69291 4.71299 0
      vertex 6.69291 4.71299 3.5
    endloop
  endfacet
  facet normal -0.980785 -0.195091 0
    outer loop
      vertex 9.75 5 0
      vertex 9.69291 5.28701 3.5
      vertex 9.69291 5.28701 0
    endloop
  endfacet
  facet normal -0.980785 -0.195091 0
    outer loop
      vertex 9.69291 5.28701 3.5
      vertex 9.75 5 0
      vertex 9.75 5 3.5
    endloop
  endfacet
  facet normal -0.195091 -0.980785 0
    outer loop
      vertex 9 5.75 0
      vertex 9.28701 5.69291 3.5
      vertex 9 5.75 3.5
    endloop
  endfacet
  facet normal -0.195091 -0.980785 -0
    outer loop
      vertex 9.28701 5.69291 3.5
      vertex 9 5.75 0
      vertex 9.28701 5.69291 0
    endloop
  endfacet
  facet normal 0.980785 0.195091 0
    outer loop
      vertex 8.30709 4.71299 3.5
      vertex 8.25 5 0
      vertex 8.25 5 3.5
    endloop
  endfacet
  facet normal 0.980785 0.195091 0
    outer loop
      vertex 8.25 5 0
      vertex 8.30709 4.71299 3.5
      vertex 8.30709 4.71299 0
    endloop
  endfacet
  facet normal -0.555567 0.831472 0
    outer loop
      vertex 9.53033 4.46967 0
      vertex 9.28701 4.30709 3.5
      vertex 9.53033 4.46967 3.5
    endloop
  endfacet
  facet normal -0.555567 0.831472 0
    outer loop
      vertex 9.28701 4.30709 3.5
      vertex 9.53033 4.46967 0
      vertex 9.28701 4.30709 0
    endloop
  endfacet
  facet normal -0.195091 0.980785 0
    outer loop
      vertex 9.28701 4.30709 0
      vertex 9 4.25 3.5
      vertex 9.28701 4.30709 3.5
    endloop
  endfacet
  facet normal -0.195091 0.980785 0
    outer loop
      vertex 9 4.25 3.5
      vertex 9.28701 4.30709 0
      vertex 9 4.25 0
    endloop
  endfacet
  facet normal -0.555567 -0.831472 0
    outer loop
      vertex 9.28701 5.69291 0
      vertex 9.53033 5.53033 3.5
      vertex 9.28701 5.69291 3.5
    endloop
  endfacet
  facet normal -0.555567 -0.831472 -0
    outer loop
      vertex 9.53033 5.53033 3.5
      vertex 9.28701 5.69291 0
      vertex 9.53033 5.53033 0
    endloop
  endfacet
  facet normal -0.831472 -0.555567 0
    outer loop
      vertex 9.69291 5.28701 0
      vertex 9.53033 5.53033 3.5
      vertex 9.53033 5.53033 0
    endloop
  endfacet
  facet normal -0.831472 -0.555567 0
    outer loop
      vertex 9.53033 5.53033 3.5
      vertex 9.69291 5.28701 0
      vertex 9.69291 5.28701 3.5
    endloop
  endfacet
  facet normal 0.195091 -0.980785 0
    outer loop
      vertex 8.71299 5.69291 0
      vertex 9 5.75 3.5
      vertex 8.71299 5.69291 3.5
    endloop
  endfacet
  facet normal 0.195091 -0.980785 0
    outer loop
      vertex 9 5.75 3.5
      vertex 8.71299 5.69291 0
      vertex 9 5.75 0
    endloop
  endfacet
  facet normal 0.555567 -0.831472 0
    outer loop
      vertex 8.46967 5.53033 0
      vertex 8.71299 5.69291 3.5
      vertex 8.46967 5.53033 3.5
    endloop
  endfacet
  facet normal 0.555567 -0.831472 0
    outer loop
      vertex 8.71299 5.69291 3.5
      vertex 8.46967 5.53033 0
      vertex 8.71299 5.69291 0
    endloop
  endfacet
  facet normal 0.831472 -0.555567 0
    outer loop
      vertex 8.30709 5.28701 3.5
      vertex 8.46967 5.53033 0
      vertex 8.46967 5.53033 3.5
    endloop
  endfacet
  facet normal 0.831472 -0.555567 0
    outer loop
      vertex 8.46967 5.53033 0
      vertex 8.30709 5.28701 3.5
      vertex 8.30709 5.28701 0
    endloop
  endfacet
  facet normal 0.831472 0.555567 0
    outer loop
      vertex 8.46967 4.46967 3.5
      vertex 8.30709 4.71299 0
      vertex 8.30709 4.71299 3.5
    endloop
  endfacet
  facet normal 0.831472 0.555567 0
    outer loop
      vertex 8.30709 4.71299 0
      vertex 8.46967 4.46967 3.5
      vertex 8.46967 4.46967 0
    endloop
  endfacet
  facet normal 0.195091 0.980785 -0
    outer loop
      vertex 9 4.25 0
      vertex 8.71299 4.30709 3.5
      vertex 9 4.25 3.5
    endloop
  endfacet
  facet normal 0.195091 0.980785 0
    outer loop
      vertex 8.71299 4.30709 3.5
      vertex 9 4.25 0
      vertex 8.71299 4.30709 0
    endloop
  endfacet
  facet normal 0.980785 -0.195091 0
    outer loop
      vertex 8.25 5 3.5
      vertex 8.30709 5.28701 0
      vertex 8.30709 5.28701 3.5
    endloop
  endfacet
  facet normal 0.980785 -0.195091 0
    outer loop
      vertex 8.30709 5.28701 0
      vertex 8.25 5 3.5
      vertex 8.25 5 0
    endloop
  endfacet
  facet normal -0.831472 0.555567 0
    outer loop
      vertex 9.53033 4.46967 0
      vertex 9.69291 4.71299 3.5
      vertex 9.69291 4.71299 0
    endloop
  endfacet
  facet normal -0.831472 0.555567 0
    outer loop
      vertex 9.69291 4.71299 3.5
      vertex 9.53033 4.46967 0
      vertex 9.53033 4.46967 3.5
    endloop
  endfacet
  facet normal -0.980785 0.195091 0
    outer loop
      vertex 9.69291 4.71299 0
      vertex 9.75 5 3.5
      vertex 9.75 5 0
    endloop
  endfacet
  facet normal -0.980785 0.195091 0
    outer loop
      vertex 9.75 5 3.5
      vertex 9.69291 4.71299 0
      vertex 9.69291 4.71299 3.5
    endloop
  endfacet
  facet normal 0.555567 0.831472 -0
    outer loop
      vertex 8.71299 4.30709 0
      vertex 8.46967 4.46967 3.5
      vertex 8.71299 4.30709 3.5
    endloop
  endfacet
  facet normal 0.555567 0.831472 0
    outer loop
      vertex 8.46967 4.46967 3.5
      vertex 8.71299 4.30709 0
      vertex 8.46967 4.46967 0
    endloop
  endfacet
  facet normal -0.980779 -0.195124 0
    outer loop
      vertex 12.75 5 0
      vertex 12.6929 5.28701 3.5
      vertex 12.6929 5.28701 0
    endloop
  endfacet
  facet normal -0.980779 -0.195124 0
    outer loop
      vertex 12.6929 5.28701 3.5
      vertex 12.75 5 0
      vertex 12.75 5 3.5
    endloop
  endfacet
  facet normal 0.195097 -0.980784 0
    outer loop
      vertex 11.713 5.69291 0
      vertex 12 5.75 3.5
      vertex 11.713 5.69291 3.5
    endloop
  endfacet
  facet normal 0.195097 -0.980784 0
    outer loop
      vertex 12 5.75 3.5
      vertex 11.713 5.69291 0
      vertex 12 5.75 0
    endloop
  endfacet
  facet normal -0.555599 0.83145 0
    outer loop
      vertex 12.5303 4.46967 0
      vertex 12.287 4.30709 3.5
      vertex 12.5303 4.46967 3.5
    endloop
  endfacet
  facet normal -0.555599 0.83145 0
    outer loop
      vertex 12.287 4.30709 3.5
      vertex 12.5303 4.46967 0
      vertex 12.287 4.30709 0
    endloop
  endfacet
  facet normal -0.555599 -0.83145 0
    outer loop
      vertex 12.287 5.69291 0
      vertex 12.5303 5.53033 3.5
      vertex 12.287 5.69291 3.5
    endloop
  endfacet
  facet normal -0.555599 -0.83145 -0
    outer loop
      vertex 12.5303 5.53033 3.5
      vertex 12.287 5.69291 0
      vertex 12.5303 5.53033 0
    endloop
  endfacet
  facet normal -0.83144 -0.555615 0
    outer loop
      vertex 12.6929 5.28701 0
      vertex 12.5303 5.53033 3.5
      vertex 12.5303 5.53033 0
    endloop
  endfacet
  facet normal -0.83144 -0.555615 0
    outer loop
      vertex 12.5303 5.53033 3.5
      vertex 12.6929 5.28701 0
      vertex 12.6929 5.28701 3.5
    endloop
  endfacet
  facet normal -0.195097 -0.980784 0
    outer loop
      vertex 12 5.75 0
      vertex 12.287 5.69291 3.5
      vertex 12 5.75 3.5
    endloop
  endfacet
  facet normal -0.195097 -0.980784 -0
    outer loop
      vertex 12.287 5.69291 3.5
      vertex 12 5.75 0
      vertex 12.287 5.69291 0
    endloop
  endfacet
  facet normal 0.83144 -0.555615 0
    outer loop
      vertex 11.3071 5.28701 3.5
      vertex 11.4697 5.53033 0
      vertex 11.4697 5.53033 3.5
    endloop
  endfacet
  facet normal 0.83144 -0.555615 0
    outer loop
      vertex 11.4697 5.53033 0
      vertex 11.3071 5.28701 3.5
      vertex 11.3071 5.28701 0
    endloop
  endfacet
  facet normal 0.980779 -0.195124 0
    outer loop
      vertex 11.25 5 3.5
      vertex 11.3071 5.28701 0
      vertex 11.3071 5.28701 3.5
    endloop
  endfacet
  facet normal 0.980779 -0.195124 0
    outer loop
      vertex 11.3071 5.28701 0
      vertex 11.25 5 3.5
      vertex 11.25 5 0
    endloop
  endfacet
  facet normal 0.555599 -0.83145 0
    outer loop
      vertex 11.4697 5.53033 0
      vertex 11.713 5.69291 3.5
      vertex 11.4697 5.53033 3.5
    endloop
  endfacet
  facet normal 0.555599 -0.83145 0
    outer loop
      vertex 11.713 5.69291 3.5
      vertex 11.4697 5.53033 0
      vertex 11.713 5.69291 0
    endloop
  endfacet
  facet normal 0.195097 0.980784 -0
    outer loop
      vertex 12 4.25 0
      vertex 11.713 4.30709 3.5
      vertex 12 4.25 3.5
    endloop
  endfacet
  facet normal 0.195097 0.980784 0
    outer loop
      vertex 11.713 4.30709 3.5
      vertex 12 4.25 0
      vertex 11.713 4.30709 0
    endloop
  endfacet
  facet normal 0.83144 0.555615 0
    outer loop
      vertex 11.4697 4.46967 3.5
      vertex 11.3071 4.71299 0
      vertex 11.3071 4.71299 3.5
    endloop
  endfacet
  facet normal 0.83144 0.555615 0
    outer loop
      vertex 11.3071 4.71299 0
      vertex 11.4697 4.46967 3.5
      vertex 11.4697 4.46967 0
    endloop
  endfacet
  facet normal 0.980779 0.195124 0
    outer loop
      vertex 11.3071 4.71299 3.5
      vertex 11.25 5 0
      vertex 11.25 5 3.5
    endloop
  endfacet
  facet normal 0.980779 0.195124 0
    outer loop
      vertex 11.25 5 0
      vertex 11.3071 4.71299 3.5
      vertex 11.3071 4.71299 0
    endloop
  endfacet
  facet normal -0.83144 0.555615 0
    outer loop
      vertex 12.5303 4.46967 0
      vertex 12.6929 4.71299 3.5
      vertex 12.6929 4.71299 0
    endloop
  endfacet
  facet normal -0.83144 0.555615 0
    outer loop
      vertex 12.6929 4.71299 3.5
      vertex 12.5303 4.46967 0
      vertex 12.5303 4.46967 3.5
    endloop
  endfacet
  facet normal -0.980779 0.195124 0
    outer loop
      vertex 12.6929 4.71299 0
      vertex 12.75 5 3.5
      vertex 12.75 5 0
    endloop
  endfacet
  facet normal -0.980779 0.195124 0
    outer loop
      vertex 12.75 5 3.5
      vertex 12.6929 4.71299 0
      vertex 12.6929 4.71299 3.5
    endloop
  endfacet
  facet normal -0.195097 0.980784 0
    outer loop
      vertex 12.287 4.30709 0
      vertex 12 4.25 3.5
      vertex 12.287 4.30709 3.5
    endloop
  endfacet
  facet normal -0.195097 0.980784 0
    outer loop
      vertex 12 4.25 3.5
      vertex 12.287 4.30709 0
      vertex 12 4.25 0
    endloop
  endfacet
  facet normal 0.555599 0.83145 -0
    outer loop
      vertex 11.713 4.30709 0
      vertex 11.4697 4.46967 3.5
      vertex 11.713 4.30709 3.5
    endloop
  endfacet
  facet normal 0.555599 0.83145 0
    outer loop
      vertex 11.4697 4.46967 3.5
      vertex 11.713 4.30709 0
      vertex 11.4697 4.46967 0
    endloop
  endfacet
  facet normal -0.980779 -0.195124 0
    outer loop
      vertex 15.75 5 0
      vertex 15.6929 5.28701 3.5
      vertex 15.6929 5.28701 0
    endloop
  endfacet
  facet normal -0.980779 -0.195124 0
    outer loop
      vertex 15.6929 5.28701 3.5
      vertex 15.75 5 0
      vertex 15.75 5 3.5
    endloop
  endfacet
  facet normal 0.195097 -0.980784 0
    outer loop
      vertex 14.713 5.69291 0
      vertex 15 5.75 3.5
      vertex 14.713 5.69291 3.5
    endloop
  endfacet
  facet normal 0.195097 -0.980784 0
    outer loop
      vertex 15 5.75 3.5
      vertex 14.713 5.69291 0
      vertex 15 5.75 0
    endloop
  endfacet
  facet normal -0.555599 0.83145 0
    outer loop
      vertex 15.5303 4.46967 0
      vertex 15.287 4.30709 3.5
      vertex 15.5303 4.46967 3.5
    endloop
  endfacet
  facet normal -0.555599 0.83145 0
    outer loop
      vertex 15.287 4.30709 3.5
      vertex 15.5303 4.46967 0
      vertex 15.287 4.30709 0
    endloop
  endfacet
  facet normal -0.555599 -0.83145 0
    outer loop
      vertex 15.287 5.69291 0
      vertex 15.5303 5.53033 3.5
      vertex 15.287 5.69291 3.5
    endloop
  endfacet
  facet normal -0.555599 -0.83145 -0
    outer loop
      vertex 15.5303 5.53033 3.5
      vertex 15.287 5.69291 0
      vertex 15.5303 5.53033 0
    endloop
  endfacet
  facet normal -0.83144 -0.555615 0
    outer loop
      vertex 15.6929 5.28701 0
      vertex 15.5303 5.53033 3.5
      vertex 15.5303 5.53033 0
    endloop
  endfacet
  facet normal -0.83144 -0.555615 0
    outer loop
      vertex 15.5303 5.53033 3.5
      vertex 15.6929 5.28701 0
      vertex 15.6929 5.28701 3.5
    endloop
  endfacet
  facet normal -0.195097 -0.980784 0
    outer loop
      vertex 15 5.75 0
      vertex 15.287 5.69291 3.5
      vertex 15 5.75 3.5
    endloop
  endfacet
  facet normal -0.195097 -0.980784 -0
    outer loop
      vertex 15.287 5.69291 3.5
      vertex 15 5.75 0
      vertex 15.287 5.69291 0
    endloop
  endfacet
  facet normal 0.83144 -0.555615 0
    outer loop
      vertex 14.3071 5.28701 3.5
      vertex 14.4697 5.53033 0
      vertex 14.4697 5.53033 3.5
    endloop
  endfacet
  facet normal 0.83144 -0.555615 0
    outer loop
      vertex 14.4697 5.53033 0
      vertex 14.3071 5.28701 3.5
      vertex 14.3071 5.28701 0
    endloop
  endfacet
  facet normal 0.980779 -0.195124 0
    outer loop
      vertex 14.25 5 3.5
      vertex 14.3071 5.28701 0
      vertex 14.3071 5.28701 3.5
    endloop
  endfacet
  facet normal 0.980779 -0.195124 0
    outer loop
      vertex 14.3071 5.28701 0
      vertex 14.25 5 3.5
      vertex 14.25 5 0
    endloop
  endfacet
  facet normal 0.555599 -0.83145 0
    outer loop
      vertex 14.4697 5.53033 0
      vertex 14.713 5.69291 3.5
      vertex 14.4697 5.53033 3.5
    endloop
  endfacet
  facet normal 0.555599 -0.83145 0
    outer loop
      vertex 14.713 5.69291 3.5
      vertex 14.4697 5.53033 0
      vertex 14.713 5.69291 0
    endloop
  endfacet
  facet normal 0.195097 0.980784 -0
    outer loop
      vertex 15 4.25 0
      vertex 14.713 4.30709 3.5
      vertex 15 4.25 3.5
    endloop
  endfacet
  facet normal 0.195097 0.980784 0
    outer loop
      vertex 14.713 4.30709 3.5
      vertex 15 4.25 0
      vertex 14.713 4.30709 0
    endloop
  endfacet
  facet normal 0.83144 0.555615 0
    outer loop
      vertex 14.4697 4.46967 3.5
      vertex 14.3071 4.71299 0
      vertex 14.3071 4.71299 3.5
    endloop
  endfacet
  facet normal 0.83144 0.555615 0
    outer loop
      vertex 14.3071 4.71299 0
      vertex 14.4697 4.46967 3.5
      vertex 14.4697 4.46967 0
    endloop
  endfacet
  facet normal 0.980779 0.195124 0
    outer loop
      vertex 14.3071 4.71299 3.5
      vertex 14.25 5 0
      vertex 14.25 5 3.5
    endloop
  endfacet
  facet normal 0.980779 0.195124 0
    outer loop
      vertex 14.25 5 0
      vertex 14.3071 4.71299 3.5
      vertex 14.3071 4.71299 0
    endloop
  endfacet
  facet normal -0.83144 0.555615 0
    outer loop
      vertex 15.5303 4.46967 0
      vertex 15.6929 4.71299 3.5
      vertex 15.6929 4.71299 0
    endloop
  endfacet
  facet normal -0.83144 0.555615 0
    outer loop
      vertex 15.6929 4.71299 3.5
      vertex 15.5303 4.46967 0
      vertex 15.5303 4.46967 3.5
    endloop
  endfacet
  facet normal -0.980779 0.195124 0
    outer loop
      vertex 15.6929 4.71299 0
      vertex 15.75 5 3.5
      vertex 15.75 5 0
    endloop
  endfacet
  facet normal -0.980779 0.195124 0
    outer loop
      vertex 15.75 5 3.5
      vertex 15.6929 4.71299 0
      vertex 15.6929 4.71299 3.5
    endloop
  endfacet
  facet normal -0.195097 0.980784 0
    outer loop
      vertex 15.287 4.30709 0
      vertex 15 4.25 3.5
      vertex 15.287 4.30709 3.5
    endloop
  endfacet
  facet normal -0.195097 0.980784 0
    outer loop
      vertex 15 4.25 3.5
      vertex 15.287 4.30709 0
      vertex 15 4.25 0
    endloop
  endfacet
  facet normal 0.555599 0.83145 -0
    outer loop
      vertex 14.713 4.30709 0
      vertex 14.4697 4.46967 3.5
      vertex 14.713 4.30709 3.5
    endloop
  endfacet
  facet normal 0.555599 0.83145 0
    outer loop
      vertex 14.4697 4.46967 3.5
      vertex 14.713 4.30709 0
      vertex 14.4697 4.46967 0
    endloop
  endfacet
  facet normal -0.980779 -0.195124 0
    outer loop
      vertex 18.75 5 0
      vertex 18.6929 5.28701 3.5
      vertex 18.6929 5.28701 0
    endloop
  endfacet
  facet normal -0.980779 -0.195124 0
    outer loop
      vertex 18.6929 5.28701 3.5
      vertex 18.75 5 0
      vertex 18.75 5 3.5
    endloop
  endfacet
  facet normal 0.195097 -0.980784 0
    outer loop
      vertex 17.713 5.69291 0
      vertex 18 5.75 3.5
      vertex 17.713 5.69291 3.5
    endloop
  endfacet
  facet normal 0.195097 -0.980784 0
    outer loop
      vertex 18 5.75 3.5
      vertex 17.713 5.69291 0
      vertex 18 5.75 0
    endloop
  endfacet
  facet normal -0.555599 -0.83145 0
    outer loop
      vertex 18.287 5.69291 0
      vertex 18.5303 5.53033 3.5
      vertex 18.287 5.69291 3.5
    endloop
  endfacet
  facet normal -0.555599 -0.83145 -0
    outer loop
      vertex 18.5303 5.53033 3.5
      vertex 18.287 5.69291 0
      vertex 18.5303 5.53033 0
    endloop
  endfacet
  facet normal -0.83144 -0.555615 0
    outer loop
      vertex 18.6929 5.28701 0
      vertex 18.5303 5.53033 3.5
      vertex 18.5303 5.53033 0
    endloop
  endfacet
  facet normal -0.83144 -0.555615 0
    outer loop
      vertex 18.5303 5.53033 3.5
      vertex 18.6929 5.28701 0
      vertex 18.6929 5.28701 3.5
    endloop
  endfacet
  facet normal -0.195097 -0.980784 0
    outer loop
      vertex 18 5.75 0
      vertex 18.287 5.69291 3.5
      vertex 18 5.75 3.5
    endloop
  endfacet
  facet normal -0.195097 -0.980784 -0
    outer loop
      vertex 18.287 5.69291 3.5
      vertex 18 5.75 0
      vertex 18.287 5.69291 0
    endloop
  endfacet
  facet normal 0.83144 -0.555615 0
    outer loop
      vertex 17.3071 5.28701 3.5
      vertex 17.4697 5.53033 0
      vertex 17.4697 5.53033 3.5
    endloop
  endfacet
  facet normal 0.83144 -0.555615 0
    outer loop
      vertex 17.4697 5.53033 0
      vertex 17.3071 5.28701 3.5
      vertex 17.3071 5.28701 0
    endloop
  endfacet
  facet normal 0.980779 -0.195124 0
    outer loop
      vertex 17.25 5 3.5
      vertex 17.3071 5.28701 0
      vertex 17.3071 5.28701 3.5
    endloop
  endfacet
  facet normal 0.980779 -0.195124 0
    outer loop
      vertex 17.3071 5.28701 0
      vertex 17.25 5 3.5
      vertex 17.25 5 0
    endloop
  endfacet
  facet normal 0.555599 -0.83145 0
    outer loop
      vertex 17.4697 5.53033 0
      vertex 17.713 5.69291 3.5
      vertex 17.4697 5.53033 3.5
    endloop
  endfacet
  facet normal 0.555599 -0.83145 0
    outer loop
      vertex 17.713 5.69291 3.5
      vertex 17.4697 5.53033 0
      vertex 17.713 5.69291 0
    endloop
  endfacet
  facet normal -0.980779 0.195124 0
    outer loop
      vertex 18.6929 4.71299 0
      vertex 18.75 5 3.5
      vertex 18.75 5 0
    endloop
  endfacet
  facet normal -0.980779 0.195124 0
    outer loop
      vertex 18.75 5 3.5
      vertex 18.6929 4.71299 0
      vertex 18.6929 4.71299 3.5
    endloop
  endfacet
  facet normal 0.195097 0.980784 -0
    outer loop
      vertex 18 4.25 0
      vertex 17.713 4.30709 3.5
      vertex 18 4.25 3.5
    endloop
  endfacet
  facet normal 0.195097 0.980784 0
    outer loop
      vertex 17.713 4.30709 3.5
      vertex 18 4.25 0
      vertex 17.713 4.30709 0
    endloop
  endfacet
  facet normal 0.83144 0.555615 0
    outer loop
      vertex 17.4697 4.46967 3.5
      vertex 17.3071 4.71299 0
      vertex 17.3071 4.71299 3.5
    endloop
  endfacet
  facet normal 0.83144 0.555615 0
    outer loop
      vertex 17.3071 4.71299 0
      vertex 17.4697 4.46967 3.5
      vertex 17.4697 4.46967 0
    endloop
  endfacet
  facet normal 0.980779 0.195124 0
    outer loop
      vertex 17.3071 4.71299 3.5
      vertex 17.25 5 0
      vertex 17.25 5 3.5
    endloop
  endfacet
  facet normal 0.980779 0.195124 0
    outer loop
      vertex 17.25 5 0
      vertex 17.3071 4.71299 3.5
      vertex 17.3071 4.71299 0
    endloop
  endfacet
  facet normal -0.83144 0.555615 0
    outer loop
      vertex 18.5303 4.46967 0
      vertex 18.6929 4.71299 3.5
      vertex 18.6929 4.71299 0
    endloop
  endfacet
  facet normal -0.83144 0.555615 0
    outer loop
      vertex 18.6929 4.71299 3.5
      vertex 18.5303 4.46967 0
      vertex 18.5303 4.46967 3.5
    endloop
  endfacet
  facet normal -0.555599 0.83145 0
    outer loop
      vertex 18.5303 4.46967 0
      vertex 18.287 4.30709 3.5
      vertex 18.5303 4.46967 3.5
    endloop
  endfacet
  facet normal -0.555599 0.83145 0
    outer loop
      vertex 18.287 4.30709 3.5
      vertex 18.5303 4.46967 0
      vertex 18.287 4.30709 0
    endloop
  endfacet
  facet normal -0.195097 0.980784 0
    outer loop
      vertex 18.287 4.30709 0
      vertex 18 4.25 3.5
      vertex 18.287 4.30709 3.5
    endloop
  endfacet
  facet normal -0.195097 0.980784 0
    outer loop
      vertex 18 4.25 3.5
      vertex 18.287 4.30709 0
      vertex 18 4.25 0
    endloop
  endfacet
  facet normal 0.555599 0.83145 -0
    outer loop
      vertex 17.713 4.30709 0
      vertex 17.4697 4.46967 3.5
      vertex 17.713 4.30709 3.5
    endloop
  endfacet
  facet normal 0.555599 0.83145 0
    outer loop
      vertex 17.4697 4.46967 3.5
      vertex 17.713 4.30709 0
      vertex 17.4697 4.46967 0
    endloop
  endfacet
endsolid OpenSCAD_Model
