solid OpenSCAD_Model
  facet normal -1 0 0
    outer loop
      vertex 30 0 0
      vertex 30 104 6
      vertex 30 104 0
    endloop
  endfacet
  facet normal -1 -0 0
    outer loop
      vertex 30 104 6
      vertex 30 0 0
      vertex 30 0 6
    endloop
  endfacet
  facet normal 0 0 1
    outer loop
      vertex 49.2 104 6
      vertex 37.2 95 6
      vertex 49.2 95 6
    endloop
  endfacet
  facet normal 0 0 1
    outer loop
      vertex 37.2 95 6
      vertex 30 104 6
      vertex 37.2 70 6
    endloop
  endfacet
  facet normal -0 0 1
    outer loop
      vertex 30 104 6
      vertex 37.2 95 6
      vertex 49.2 104 6
    endloop
  endfacet
  facet normal 0 0 1
    outer loop
      vertex 67.2 70 6
      vertex 74.4 104 6
      vertex 67.2 95 6
    endloop
  endfacet
  facet normal -0 0 1
    outer loop
      vertex 55.2 104 6
      vertex 67.2 95 6
      vertex 74.4 104 6
    endloop
  endfacet
  facet normal 0 0 1
    outer loop
      vertex 67.2 95 6
      vertex 55.2 104 6
      vertex 55.2 95 6
    endloop
  endfacet
  facet normal 0 0 1
    outer loop
      vertex 74.4 104 6
      vertex 67.2 70 6
      vertex 74.4 0 6
    endloop
  endfacet
  facet normal -0 0 1
    outer loop
      vertex 37.2 70 6
      vertex 74.4 0 6
      vertex 67.2 70 6
    endloop
  endfacet
  facet normal 0 0 1
    outer loop
      vertex 37.2 70 6
      vertex 30 0 6
      vertex 74.4 0 6
    endloop
  endfacet
  facet normal 0 0 1
    outer loop
      vertex 30 0 6
      vertex 37.2 70 6
      vertex 30 104 6
    endloop
  endfacet
  facet normal 1 -0 0
    outer loop
      vertex 74.4 0 6
      vertex 74.4 104 0
      vertex 74.4 104 6
    endloop
  endfacet
  facet normal 1 0 0
    outer loop
      vertex 74.4 104 0
      vertex 74.4 0 6
      vertex 74.4 0 0
    endloop
  endfacet
  facet normal 0 0 -1
    outer loop
      vertex 74.4 0 0
      vertex 67.2 70 0
      vertex 74.4 104 0
    endloop
  endfacet
  facet normal 0 0 -1
    outer loop
      vertex 74.4 0 0
      vertex 37.2 70 0
      vertex 67.2 70 0
    endloop
  endfacet
  facet normal 0 0 -1
    outer loop
      vertex 30 104 0
      vertex 37.2 70 0
      vertex 30 0 0
    endloop
  endfacet
  facet normal 0 0 -1
    outer loop
      vertex 30 0 0
      vertex 37.2 70 0
      vertex 74.4 0 0
    endloop
  endfacet
  facet normal 0 0 -1
    outer loop
      vertex 67.2 95 0
      vertex 74.4 104 0
      vertex 67.2 70 0
    endloop
  endfacet
  facet normal 0 0 -1
    outer loop
      vertex 55.2 104 0
      vertex 67.2 95 0
      vertex 55.2 95 0
    endloop
  endfacet
  facet normal 0 0 -1
    outer loop
      vertex 67.2 95 0
      vertex 55.2 104 0
      vertex 74.4 104 0
    endloop
  endfacet
  facet normal 0 0 -1
    outer loop
      vertex 37.2 95 0
      vertex 49.2 104 0
      vertex 49.2 95 0
    endloop
  endfacet
  facet normal 0 0 -1
    outer loop
      vertex 37.2 95 0
      vertex 30 104 0
      vertex 49.2 104 0
    endloop
  endfacet
  facet normal 0 0 -1
    outer loop
      vertex 37.2 70 0
      vertex 30 104 0
      vertex 37.2 95 0
    endloop
  endfacet
  facet normal 0 -1 0
    outer loop
      vertex 30 0 0
      vertex 74.4 0 6
      vertex 30 0 6
    endloop
  endfacet
  facet normal 0 -1 -0
    outer loop
      vertex 74.4 0 6
      vertex 30 0 0
      vertex 74.4 0 0
    endloop
  endfacet
  facet normal 0 1 -0
    outer loop
      vertex 74.4 104 0
      vertex 55.2 104 6
      vertex 74.4 104 6
    endloop
  endfacet
  facet normal 0 1 0
    outer loop
      vertex 55.2 104 6
      vertex 74.4 104 0
      vertex 55.2 104 0
    endloop
  endfacet
  facet normal 0 1 -0
    outer loop
      vertex 49.2 104 0
      vertex 30 104 6
      vertex 49.2 104 6
    endloop
  endfacet
  facet normal 0 1 0
    outer loop
      vertex 30 104 6
      vertex 49.2 104 0
      vertex 30 104 0
    endloop
  endfacet
  facet normal 1 -0 0
    outer loop
      vertex 37.2 70 6
      vertex 37.2 95 0
      vertex 37.2 95 6
    endloop
  endfacet
  facet normal 1 0 0
    outer loop
      vertex 37.2 95 0
      vertex 37.2 70 6
      vertex 37.2 70 0
    endloop
  endfacet
  facet normal -1 0 0
    outer loop
      vertex 67.2 70 0
      vertex 67.2 95 6
      vertex 67.2 95 0
    endloop
  endfacet
  facet normal -1 -0 0
    outer loop
      vertex 67.2 95 6
      vertex 67.2 70 0
      vertex 67.2 70 6
    endloop
  endfacet
  facet normal 0 -1 0
    outer loop
      vertex 37.2 95 0
      vertex 49.2 95 6
      vertex 37.2 95 6
    endloop
  endfacet
  facet normal 0 -1 -0
    outer loop
      vertex 49.2 95 6
      vertex 37.2 95 0
      vertex 49.2 95 0
    endloop
  endfacet
  facet normal 0 -1 0
    outer loop
      vertex 55.2 95 0
      vertex 67.2 95 6
      vertex 55.2 95 6
    endloop
  endfacet
  facet normal 0 -1 -0
    outer loop
      vertex 67.2 95 6
      vertex 55.2 95 0
      vertex 67.2 95 0
    endloop
  endfacet
  facet normal 0 1 -0
    outer loop
      vertex 67.2 70 0
      vertex 37.2 70 6
      vertex 67.2 70 6
    endloop
  endfacet
  facet normal 0 1 0
    outer loop
      vertex 37.2 70 6
      vertex 67.2 70 0
      vertex 37.2 70 0
    endloop
  endfacet
  facet normal 1 -0 0
    outer loop
      vertex 49.2 95 6
      vertex 49.2 104 0
      vertex 49.2 104 6
    endloop
  endfacet
  facet normal 1 0 0
    outer loop
      vertex 49.2 104 0
      vertex 49.2 95 6
      vertex 49.2 95 0
    endloop
  endfacet
  facet normal -1 0 0
    outer loop
      vertex 55.2 95 0
      vertex 55.2 104 6
      vertex 55.2 104 0
    endloop
  endfacet
  facet normal -1 -0 0
    outer loop
      vertex 55.2 104 6
      vertex 55.2 95 0
      vertex 55.2 95 6
    endloop
  endfacet
endsolid OpenSCAD_Model
