%FSLAX45Y45*%
G04 Gerber Fmt 4.5, Leading zero omitted, Abs format (unit mm)*
G04 Created by KiCad (PCBNEW (5.1.4)-1) date 2020-05-01 18:49:42*
%MOMM*%
%LPD*%
G04 APERTURE LIST*
%ADD10C,0.150000*%
%ADD11C,0.200000*%
%ADD12C,0.300000*%
G04 APERTURE END LIST*
D10*
X20243800Y-12166600D02*
X10337800Y-12166600D01*
X20243800Y-12039600D02*
X20243800Y-12166600D01*
X20497800Y-11785600D02*
X20243800Y-12039600D01*
X20497800Y-8356600D02*
X20497800Y-11785600D01*
X20243800Y-8102600D02*
X20497800Y-8356600D01*
X20243800Y-7086600D02*
X20243800Y-8102600D01*
X19989800Y-6832600D02*
X20243800Y-7086600D01*
X10337800Y-6832600D02*
X19989800Y-6832600D01*
X10337800Y-12166600D02*
X10337800Y-6832600D01*
D11*
X10622600Y-8009500D02*
X10772600Y-8159500D01*
X10772600Y-8009500D02*
X10622600Y-8159500D01*
X10622600Y-10429500D02*
X10772600Y-10579500D01*
X10772600Y-10429500D02*
X10622600Y-10579500D01*
D12*
X10616728Y-12639814D02*
X10616728Y-12339814D01*
X10688157Y-12339814D01*
X10731014Y-12354100D01*
X10759586Y-12382671D01*
X10773871Y-12411243D01*
X10788157Y-12468386D01*
X10788157Y-12511243D01*
X10773871Y-12568386D01*
X10759586Y-12596957D01*
X10731014Y-12625529D01*
X10688157Y-12639814D01*
X10616728Y-12639814D01*
X10916728Y-12639814D02*
X10916728Y-12439814D01*
X10916728Y-12496957D02*
X10931014Y-12468386D01*
X10945300Y-12454100D01*
X10973871Y-12439814D01*
X11002443Y-12439814D01*
X11102443Y-12639814D02*
X11102443Y-12439814D01*
X11102443Y-12339814D02*
X11088157Y-12354100D01*
X11102443Y-12368386D01*
X11116728Y-12354100D01*
X11102443Y-12339814D01*
X11102443Y-12368386D01*
X11288157Y-12639814D02*
X11259586Y-12625529D01*
X11245300Y-12596957D01*
X11245300Y-12339814D01*
X11445300Y-12639814D02*
X11416728Y-12625529D01*
X11402443Y-12596957D01*
X11402443Y-12339814D01*
X11788157Y-12639814D02*
X11788157Y-12339814D01*
X11888157Y-12554100D01*
X11988157Y-12339814D01*
X11988157Y-12639814D01*
X12259586Y-12639814D02*
X12259586Y-12482671D01*
X12245300Y-12454100D01*
X12216728Y-12439814D01*
X12159586Y-12439814D01*
X12131014Y-12454100D01*
X12259586Y-12625529D02*
X12231014Y-12639814D01*
X12159586Y-12639814D01*
X12131014Y-12625529D01*
X12116728Y-12596957D01*
X12116728Y-12568386D01*
X12131014Y-12539814D01*
X12159586Y-12525529D01*
X12231014Y-12525529D01*
X12259586Y-12511243D01*
X12402443Y-12439814D02*
X12402443Y-12739814D01*
X12402443Y-12454100D02*
X12431014Y-12439814D01*
X12488157Y-12439814D01*
X12516728Y-12454100D01*
X12531014Y-12468386D01*
X12545300Y-12496957D01*
X12545300Y-12582671D01*
X12531014Y-12611243D01*
X12516728Y-12625529D01*
X12488157Y-12639814D01*
X12431014Y-12639814D01*
X12402443Y-12625529D01*
X12673871Y-12611243D02*
X12688157Y-12625529D01*
X12673871Y-12639814D01*
X12659586Y-12625529D01*
X12673871Y-12611243D01*
X12673871Y-12639814D01*
X12673871Y-12454100D02*
X12688157Y-12468386D01*
X12673871Y-12482671D01*
X12659586Y-12468386D01*
X12673871Y-12454100D01*
X12673871Y-12482671D01*
X10180300Y-13059100D02*
X10330300Y-13209100D01*
X10330300Y-13059100D02*
X10180300Y-13209100D01*
X10773871Y-13269814D02*
X10602443Y-13269814D01*
X10688157Y-13269814D02*
X10688157Y-12969814D01*
X10659586Y-13012671D01*
X10631014Y-13041243D01*
X10602443Y-13055529D01*
X10902443Y-13241243D02*
X10916728Y-13255529D01*
X10902443Y-13269814D01*
X10888157Y-13255529D01*
X10902443Y-13241243D01*
X10902443Y-13269814D01*
X11188157Y-12969814D02*
X11045300Y-12969814D01*
X11031014Y-13112671D01*
X11045300Y-13098386D01*
X11073871Y-13084100D01*
X11145300Y-13084100D01*
X11173871Y-13098386D01*
X11188157Y-13112671D01*
X11202443Y-13141243D01*
X11202443Y-13212671D01*
X11188157Y-13241243D01*
X11173871Y-13255529D01*
X11145300Y-13269814D01*
X11073871Y-13269814D01*
X11045300Y-13255529D01*
X11031014Y-13241243D01*
X11388157Y-12969814D02*
X11416728Y-12969814D01*
X11445300Y-12984100D01*
X11459586Y-12998386D01*
X11473871Y-13026957D01*
X11488157Y-13084100D01*
X11488157Y-13155529D01*
X11473871Y-13212671D01*
X11459586Y-13241243D01*
X11445300Y-13255529D01*
X11416728Y-13269814D01*
X11388157Y-13269814D01*
X11359586Y-13255529D01*
X11345300Y-13241243D01*
X11331014Y-13212671D01*
X11316728Y-13155529D01*
X11316728Y-13084100D01*
X11331014Y-13026957D01*
X11345300Y-12998386D01*
X11359586Y-12984100D01*
X11388157Y-12969814D01*
X11616728Y-13269814D02*
X11616728Y-13069814D01*
X11616728Y-13098386D02*
X11631014Y-13084100D01*
X11659586Y-13069814D01*
X11702443Y-13069814D01*
X11731014Y-13084100D01*
X11745300Y-13112671D01*
X11745300Y-13269814D01*
X11745300Y-13112671D02*
X11759586Y-13084100D01*
X11788157Y-13069814D01*
X11831014Y-13069814D01*
X11859586Y-13084100D01*
X11873871Y-13112671D01*
X11873871Y-13269814D01*
X12016728Y-13269814D02*
X12016728Y-13069814D01*
X12016728Y-13098386D02*
X12031014Y-13084100D01*
X12059586Y-13069814D01*
X12102443Y-13069814D01*
X12131014Y-13084100D01*
X12145300Y-13112671D01*
X12145300Y-13269814D01*
X12145300Y-13112671D02*
X12159586Y-13084100D01*
X12188157Y-13069814D01*
X12231014Y-13069814D01*
X12259586Y-13084100D01*
X12273871Y-13112671D01*
X12273871Y-13269814D01*
X12859586Y-12955529D02*
X12602443Y-13341243D01*
X13245300Y-12969814D02*
X13273871Y-12969814D01*
X13302443Y-12984100D01*
X13316728Y-12998386D01*
X13331014Y-13026957D01*
X13345300Y-13084100D01*
X13345300Y-13155529D01*
X13331014Y-13212671D01*
X13316728Y-13241243D01*
X13302443Y-13255529D01*
X13273871Y-13269814D01*
X13245300Y-13269814D01*
X13216728Y-13255529D01*
X13202443Y-13241243D01*
X13188157Y-13212671D01*
X13173871Y-13155529D01*
X13173871Y-13084100D01*
X13188157Y-13026957D01*
X13202443Y-12998386D01*
X13216728Y-12984100D01*
X13245300Y-12969814D01*
X13473871Y-13241243D02*
X13488157Y-13255529D01*
X13473871Y-13269814D01*
X13459586Y-13255529D01*
X13473871Y-13241243D01*
X13473871Y-13269814D01*
X13673871Y-12969814D02*
X13702443Y-12969814D01*
X13731014Y-12984100D01*
X13745300Y-12998386D01*
X13759586Y-13026957D01*
X13773871Y-13084100D01*
X13773871Y-13155529D01*
X13759586Y-13212671D01*
X13745300Y-13241243D01*
X13731014Y-13255529D01*
X13702443Y-13269814D01*
X13673871Y-13269814D01*
X13645300Y-13255529D01*
X13631014Y-13241243D01*
X13616728Y-13212671D01*
X13602443Y-13155529D01*
X13602443Y-13084100D01*
X13616728Y-13026957D01*
X13631014Y-12998386D01*
X13645300Y-12984100D01*
X13673871Y-12969814D01*
X14045300Y-12969814D02*
X13902443Y-12969814D01*
X13888157Y-13112671D01*
X13902443Y-13098386D01*
X13931014Y-13084100D01*
X14002443Y-13084100D01*
X14031014Y-13098386D01*
X14045300Y-13112671D01*
X14059586Y-13141243D01*
X14059586Y-13212671D01*
X14045300Y-13241243D01*
X14031014Y-13255529D01*
X14002443Y-13269814D01*
X13931014Y-13269814D01*
X13902443Y-13255529D01*
X13888157Y-13241243D01*
X14202443Y-13269814D02*
X14259586Y-13269814D01*
X14288157Y-13255529D01*
X14302443Y-13241243D01*
X14331014Y-13198386D01*
X14345300Y-13141243D01*
X14345300Y-13026957D01*
X14331014Y-12998386D01*
X14316728Y-12984100D01*
X14288157Y-12969814D01*
X14231014Y-12969814D01*
X14202443Y-12984100D01*
X14188157Y-12998386D01*
X14173871Y-13026957D01*
X14173871Y-13098386D01*
X14188157Y-13126957D01*
X14202443Y-13141243D01*
X14231014Y-13155529D01*
X14288157Y-13155529D01*
X14316728Y-13141243D01*
X14331014Y-13126957D01*
X14345300Y-13098386D01*
X14459586Y-12969814D02*
X14459586Y-13026957D01*
X14573871Y-12969814D02*
X14573871Y-13026957D01*
X15016728Y-13384100D02*
X15002443Y-13369814D01*
X14973871Y-13326957D01*
X14959586Y-13298386D01*
X14945300Y-13255529D01*
X14931014Y-13184100D01*
X14931014Y-13126957D01*
X14945300Y-13055529D01*
X14959586Y-13012671D01*
X14973871Y-12984100D01*
X15002443Y-12941243D01*
X15016728Y-12926957D01*
X15116728Y-12998386D02*
X15131014Y-12984100D01*
X15159586Y-12969814D01*
X15231014Y-12969814D01*
X15259586Y-12984100D01*
X15273871Y-12998386D01*
X15288157Y-13026957D01*
X15288157Y-13055529D01*
X15273871Y-13098386D01*
X15102443Y-13269814D01*
X15288157Y-13269814D01*
X15645300Y-13269814D02*
X15645300Y-12969814D01*
X15773871Y-13269814D02*
X15773871Y-13112671D01*
X15759586Y-13084100D01*
X15731014Y-13069814D01*
X15688157Y-13069814D01*
X15659586Y-13084100D01*
X15645300Y-13098386D01*
X15959586Y-13269814D02*
X15931014Y-13255529D01*
X15916728Y-13241243D01*
X15902443Y-13212671D01*
X15902443Y-13126957D01*
X15916728Y-13098386D01*
X15931014Y-13084100D01*
X15959586Y-13069814D01*
X16002443Y-13069814D01*
X16031014Y-13084100D01*
X16045300Y-13098386D01*
X16059586Y-13126957D01*
X16059586Y-13212671D01*
X16045300Y-13241243D01*
X16031014Y-13255529D01*
X16002443Y-13269814D01*
X15959586Y-13269814D01*
X16231014Y-13269814D02*
X16202443Y-13255529D01*
X16188157Y-13226957D01*
X16188157Y-12969814D01*
X16459586Y-13255529D02*
X16431014Y-13269814D01*
X16373871Y-13269814D01*
X16345300Y-13255529D01*
X16331014Y-13226957D01*
X16331014Y-13112671D01*
X16345300Y-13084100D01*
X16373871Y-13069814D01*
X16431014Y-13069814D01*
X16459586Y-13084100D01*
X16473871Y-13112671D01*
X16473871Y-13141243D01*
X16331014Y-13169814D01*
X16588157Y-13255529D02*
X16616728Y-13269814D01*
X16673871Y-13269814D01*
X16702443Y-13255529D01*
X16716728Y-13226957D01*
X16716728Y-13212671D01*
X16702443Y-13184100D01*
X16673871Y-13169814D01*
X16631014Y-13169814D01*
X16602443Y-13155529D01*
X16588157Y-13126957D01*
X16588157Y-13112671D01*
X16602443Y-13084100D01*
X16631014Y-13069814D01*
X16673871Y-13069814D01*
X16702443Y-13084100D01*
X16816728Y-13384100D02*
X16831014Y-13369814D01*
X16859586Y-13326957D01*
X16873871Y-13298386D01*
X16888157Y-13255529D01*
X16902443Y-13184100D01*
X16902443Y-13126957D01*
X16888157Y-13055529D01*
X16873871Y-13012671D01*
X16859586Y-12984100D01*
X16831014Y-12941243D01*
X16816728Y-12926957D01*
X17359586Y-13384100D02*
X17345300Y-13369814D01*
X17316728Y-13326957D01*
X17302443Y-13298386D01*
X17288157Y-13255529D01*
X17273871Y-13184100D01*
X17273871Y-13126957D01*
X17288157Y-13055529D01*
X17302443Y-13012671D01*
X17316728Y-12984100D01*
X17345300Y-12941243D01*
X17359586Y-12926957D01*
X17473871Y-13069814D02*
X17473871Y-13269814D01*
X17473871Y-13098386D02*
X17488157Y-13084100D01*
X17516728Y-13069814D01*
X17559586Y-13069814D01*
X17588157Y-13084100D01*
X17602443Y-13112671D01*
X17602443Y-13269814D01*
X17788157Y-13269814D02*
X17759586Y-13255529D01*
X17745300Y-13241243D01*
X17731014Y-13212671D01*
X17731014Y-13126957D01*
X17745300Y-13098386D01*
X17759586Y-13084100D01*
X17788157Y-13069814D01*
X17831014Y-13069814D01*
X17859586Y-13084100D01*
X17873871Y-13098386D01*
X17888157Y-13126957D01*
X17888157Y-13212671D01*
X17873871Y-13241243D01*
X17859586Y-13255529D01*
X17831014Y-13269814D01*
X17788157Y-13269814D01*
X17973871Y-13069814D02*
X18088157Y-13069814D01*
X18016728Y-12969814D02*
X18016728Y-13226957D01*
X18031014Y-13255529D01*
X18059586Y-13269814D01*
X18088157Y-13269814D01*
X18416728Y-13069814D02*
X18416728Y-13369814D01*
X18416728Y-13084100D02*
X18445300Y-13069814D01*
X18502443Y-13069814D01*
X18531014Y-13084100D01*
X18545300Y-13098386D01*
X18559586Y-13126957D01*
X18559586Y-13212671D01*
X18545300Y-13241243D01*
X18531014Y-13255529D01*
X18502443Y-13269814D01*
X18445300Y-13269814D01*
X18416728Y-13255529D01*
X18731014Y-13269814D02*
X18702443Y-13255529D01*
X18688157Y-13226957D01*
X18688157Y-12969814D01*
X18973871Y-13269814D02*
X18973871Y-13112671D01*
X18959586Y-13084100D01*
X18931014Y-13069814D01*
X18873871Y-13069814D01*
X18845300Y-13084100D01*
X18973871Y-13255529D02*
X18945300Y-13269814D01*
X18873871Y-13269814D01*
X18845300Y-13255529D01*
X18831014Y-13226957D01*
X18831014Y-13198386D01*
X18845300Y-13169814D01*
X18873871Y-13155529D01*
X18945300Y-13155529D01*
X18973871Y-13141243D01*
X19073871Y-13069814D02*
X19188157Y-13069814D01*
X19116728Y-12969814D02*
X19116728Y-13226957D01*
X19131014Y-13255529D01*
X19159586Y-13269814D01*
X19188157Y-13269814D01*
X19402443Y-13255529D02*
X19373871Y-13269814D01*
X19316728Y-13269814D01*
X19288157Y-13255529D01*
X19273871Y-13226957D01*
X19273871Y-13112671D01*
X19288157Y-13084100D01*
X19316728Y-13069814D01*
X19373871Y-13069814D01*
X19402443Y-13084100D01*
X19416728Y-13112671D01*
X19416728Y-13141243D01*
X19273871Y-13169814D01*
X19673871Y-13269814D02*
X19673871Y-12969814D01*
X19673871Y-13255529D02*
X19645300Y-13269814D01*
X19588157Y-13269814D01*
X19559586Y-13255529D01*
X19545300Y-13241243D01*
X19531014Y-13212671D01*
X19531014Y-13126957D01*
X19545300Y-13098386D01*
X19559586Y-13084100D01*
X19588157Y-13069814D01*
X19645300Y-13069814D01*
X19673871Y-13084100D01*
X19788157Y-13384100D02*
X19802443Y-13369814D01*
X19831014Y-13326957D01*
X19845300Y-13298386D01*
X19859586Y-13255529D01*
X19873871Y-13184100D01*
X19873871Y-13126957D01*
X19859586Y-13055529D01*
X19845300Y-13012671D01*
X19831014Y-12984100D01*
X19802443Y-12941243D01*
X19788157Y-12926957D01*
M02*
