G04 #@! TF.GenerationSoftware,KiCad,Pcbnew,(5.1.4)-1*
G04 #@! TF.CreationDate,2020-05-01T18:49:37-04:00*
G04 #@! TF.ProjectId,IO Board,494f2042-6f61-4726-942e-6b696361645f,2.3*
G04 #@! TF.SameCoordinates,Original*
G04 #@! TF.FileFunction,Legend,Top*
G04 #@! TF.FilePolarity,Positive*
%FSLAX46Y46*%
G04 Gerber Fmt 4.6, Leading zero omitted, Abs format (unit mm)*
G04 Created by KiCad (PCBNEW (5.1.4)-1) date 2020-05-01 18:49:37*
%MOMM*%
%LPD*%
G04 APERTURE LIST*
%ADD10C,0.100000*%
%ADD11C,0.150000*%
%ADD12C,0.300000*%
%ADD13C,0.400000*%
%ADD14C,0.200000*%
%ADD15C,0.120000*%
%ADD16R,2.150000X2.200000*%
%ADD17R,2.032000X1.524000*%
%ADD18R,0.800000X0.900000*%
%ADD19C,1.727200*%
%ADD20O,1.727200X1.727200*%
%ADD21O,1.727200X2.032000*%
%ADD22R,1.060000X0.650000*%
%ADD23R,0.508000X1.143000*%
%ADD24R,1.524000X2.032000*%
%ADD25R,1.500000X1.000000*%
%ADD26R,2.200000X1.200000*%
%ADD27C,1.500000*%
%ADD28R,1.143000X0.508000*%
%ADD29R,0.650000X1.060000*%
%ADD30O,1.700000X1.700000*%
%ADD31R,1.700000X1.700000*%
G04 APERTURE END LIST*
D10*
D11*
X159400000Y-171900000D02*
X159400000Y-203900000D01*
X267400000Y-203900000D01*
X267400000Y-171900000D01*
X159400000Y-171900000D01*
D10*
D11*
X10000000Y-10000000D02*
X10000000Y-205900000D01*
X269400000Y-205900000D01*
X269400000Y-10000000D01*
X10000000Y-10000000D01*
D10*
D11*
X12000000Y-12000000D02*
X12000000Y-203900000D01*
X267400000Y-203900000D01*
X267400000Y-12000000D01*
X12000000Y-12000000D01*
D10*
D11*
X60000000Y-12000000D02*
X60000000Y-10000000D01*
D10*
D11*
X110000000Y-12000000D02*
X110000000Y-10000000D01*
D10*
D11*
X160000000Y-12000000D02*
X160000000Y-10000000D01*
D10*
D11*
X210000000Y-12000000D02*
X210000000Y-10000000D01*
D10*
D11*
X260000000Y-12000000D02*
X260000000Y-10000000D01*
D10*
D11*
X36065476Y-11588095D02*
X35322619Y-11588095D01*
X35694047Y-11588095D02*
X35694047Y-10288095D01*
X35570238Y-10473809D01*
X35446428Y-10597619D01*
X35322619Y-10659523D01*
D10*
D11*
X85322619Y-10411904D02*
X85384523Y-10350000D01*
X85508333Y-10288095D01*
X85817857Y-10288095D01*
X85941666Y-10350000D01*
X86003571Y-10411904D01*
X86065476Y-10535714D01*
X86065476Y-10659523D01*
X86003571Y-10845238D01*
X85260714Y-11588095D01*
X86065476Y-11588095D01*
D10*
D11*
X135260714Y-10288095D02*
X136065476Y-10288095D01*
X135632142Y-10783333D01*
X135817857Y-10783333D01*
X135941666Y-10845238D01*
X136003571Y-10907142D01*
X136065476Y-11030952D01*
X136065476Y-11340476D01*
X136003571Y-11464285D01*
X135941666Y-11526190D01*
X135817857Y-11588095D01*
X135446428Y-11588095D01*
X135322619Y-11526190D01*
X135260714Y-11464285D01*
D10*
D11*
X185941666Y-10721428D02*
X185941666Y-11588095D01*
X185632142Y-10226190D02*
X185322619Y-11154761D01*
X186127380Y-11154761D01*
D10*
D11*
X236003571Y-10288095D02*
X235384523Y-10288095D01*
X235322619Y-10907142D01*
X235384523Y-10845238D01*
X235508333Y-10783333D01*
X235817857Y-10783333D01*
X235941666Y-10845238D01*
X236003571Y-10907142D01*
X236065476Y-11030952D01*
X236065476Y-11340476D01*
X236003571Y-11464285D01*
X235941666Y-11526190D01*
X235817857Y-11588095D01*
X235508333Y-11588095D01*
X235384523Y-11526190D01*
X235322619Y-11464285D01*
D10*
D11*
X60000000Y-203900000D02*
X60000000Y-205900000D01*
D10*
D11*
X110000000Y-203900000D02*
X110000000Y-205900000D01*
D10*
D11*
X160000000Y-203900000D02*
X160000000Y-205900000D01*
D10*
D11*
X210000000Y-203900000D02*
X210000000Y-205900000D01*
D10*
D11*
X260000000Y-203900000D02*
X260000000Y-205900000D01*
D10*
D11*
X36065476Y-205488095D02*
X35322619Y-205488095D01*
X35694047Y-205488095D02*
X35694047Y-204188095D01*
X35570238Y-204373809D01*
X35446428Y-204497619D01*
X35322619Y-204559523D01*
D10*
D11*
X85322619Y-204311904D02*
X85384523Y-204250000D01*
X85508333Y-204188095D01*
X85817857Y-204188095D01*
X85941666Y-204250000D01*
X86003571Y-204311904D01*
X86065476Y-204435714D01*
X86065476Y-204559523D01*
X86003571Y-204745238D01*
X85260714Y-205488095D01*
X86065476Y-205488095D01*
D10*
D11*
X135260714Y-204188095D02*
X136065476Y-204188095D01*
X135632142Y-204683333D01*
X135817857Y-204683333D01*
X135941666Y-204745238D01*
X136003571Y-204807142D01*
X136065476Y-204930952D01*
X136065476Y-205240476D01*
X136003571Y-205364285D01*
X135941666Y-205426190D01*
X135817857Y-205488095D01*
X135446428Y-205488095D01*
X135322619Y-205426190D01*
X135260714Y-205364285D01*
D10*
D11*
X185941666Y-204621428D02*
X185941666Y-205488095D01*
X185632142Y-204126190D02*
X185322619Y-205054761D01*
X186127380Y-205054761D01*
D10*
D11*
X236003571Y-204188095D02*
X235384523Y-204188095D01*
X235322619Y-204807142D01*
X235384523Y-204745238D01*
X235508333Y-204683333D01*
X235817857Y-204683333D01*
X235941666Y-204745238D01*
X236003571Y-204807142D01*
X236065476Y-204930952D01*
X236065476Y-205240476D01*
X236003571Y-205364285D01*
X235941666Y-205426190D01*
X235817857Y-205488095D01*
X235508333Y-205488095D01*
X235384523Y-205426190D01*
X235322619Y-205364285D01*
D10*
D11*
X10000000Y-60000000D02*
X12000000Y-60000000D01*
D10*
D11*
X10000000Y-110000000D02*
X12000000Y-110000000D01*
D10*
D11*
X10000000Y-160000000D02*
X12000000Y-160000000D01*
D10*
D11*
X10690476Y-35216666D02*
X11309523Y-35216666D01*
X10566666Y-35588095D02*
X11000000Y-34288095D01*
X11433333Y-35588095D01*
D10*
D11*
X11092857Y-84907142D02*
X11278571Y-84969047D01*
X11340476Y-85030952D01*
X11402380Y-85154761D01*
X11402380Y-85340476D01*
X11340476Y-85464285D01*
X11278571Y-85526190D01*
X11154761Y-85588095D01*
X10659523Y-85588095D01*
X10659523Y-84288095D01*
X11092857Y-84288095D01*
X11216666Y-84350000D01*
X11278571Y-84411904D01*
X11340476Y-84535714D01*
X11340476Y-84659523D01*
X11278571Y-84783333D01*
X11216666Y-84845238D01*
X11092857Y-84907142D01*
X10659523Y-84907142D01*
D10*
D11*
X11402380Y-135464285D02*
X11340476Y-135526190D01*
X11154761Y-135588095D01*
X11030952Y-135588095D01*
X10845238Y-135526190D01*
X10721428Y-135402380D01*
X10659523Y-135278571D01*
X10597619Y-135030952D01*
X10597619Y-134845238D01*
X10659523Y-134597619D01*
X10721428Y-134473809D01*
X10845238Y-134350000D01*
X11030952Y-134288095D01*
X11154761Y-134288095D01*
X11340476Y-134350000D01*
X11402380Y-134411904D01*
D10*
D11*
X10659523Y-185588095D02*
X10659523Y-184288095D01*
X10969047Y-184288095D01*
X11154761Y-184350000D01*
X11278571Y-184473809D01*
X11340476Y-184597619D01*
X11402380Y-184845238D01*
X11402380Y-185030952D01*
X11340476Y-185278571D01*
X11278571Y-185402380D01*
X11154761Y-185526190D01*
X10969047Y-185588095D01*
X10659523Y-185588095D01*
D10*
D11*
X269400000Y-60000000D02*
X267400000Y-60000000D01*
D10*
D11*
X269400000Y-110000000D02*
X267400000Y-110000000D01*
D10*
D11*
X269400000Y-160000000D02*
X267400000Y-160000000D01*
D10*
D11*
X268090476Y-35216666D02*
X268709523Y-35216666D01*
X267966666Y-35588095D02*
X268400000Y-34288095D01*
X268833333Y-35588095D01*
D10*
D11*
X268492857Y-84907142D02*
X268678571Y-84969047D01*
X268740476Y-85030952D01*
X268802380Y-85154761D01*
X268802380Y-85340476D01*
X268740476Y-85464285D01*
X268678571Y-85526190D01*
X268554761Y-85588095D01*
X268059523Y-85588095D01*
X268059523Y-84288095D01*
X268492857Y-84288095D01*
X268616666Y-84350000D01*
X268678571Y-84411904D01*
X268740476Y-84535714D01*
X268740476Y-84659523D01*
X268678571Y-84783333D01*
X268616666Y-84845238D01*
X268492857Y-84907142D01*
X268059523Y-84907142D01*
D10*
D11*
X268802380Y-135464285D02*
X268740476Y-135526190D01*
X268554761Y-135588095D01*
X268430952Y-135588095D01*
X268245238Y-135526190D01*
X268121428Y-135402380D01*
X268059523Y-135278571D01*
X267997619Y-135030952D01*
X267997619Y-134845238D01*
X268059523Y-134597619D01*
X268121428Y-134473809D01*
X268245238Y-134350000D01*
X268430952Y-134288095D01*
X268554761Y-134288095D01*
X268740476Y-134350000D01*
X268802380Y-134411904D01*
D10*
D11*
X268059523Y-185588095D02*
X268059523Y-184288095D01*
X268369047Y-184288095D01*
X268554761Y-184350000D01*
X268678571Y-184473809D01*
X268740476Y-184597619D01*
X268802380Y-184845238D01*
X268802380Y-185030952D01*
X268740476Y-185278571D01*
X268678571Y-185402380D01*
X268554761Y-185526190D01*
X268369047Y-185588095D01*
X268059523Y-185588095D01*
D10*
D11*
X182832142Y-199678571D02*
X182832142Y-198178571D01*
X183189285Y-198178571D01*
X183403571Y-198250000D01*
X183546428Y-198392857D01*
X183617857Y-198535714D01*
X183689285Y-198821428D01*
X183689285Y-199035714D01*
X183617857Y-199321428D01*
X183546428Y-199464285D01*
X183403571Y-199607142D01*
X183189285Y-199678571D01*
X182832142Y-199678571D01*
X184975000Y-199678571D02*
X184975000Y-198892857D01*
X184903571Y-198750000D01*
X184760714Y-198678571D01*
X184475000Y-198678571D01*
X184332142Y-198750000D01*
X184975000Y-199607142D02*
X184832142Y-199678571D01*
X184475000Y-199678571D01*
X184332142Y-199607142D01*
X184260714Y-199464285D01*
X184260714Y-199321428D01*
X184332142Y-199178571D01*
X184475000Y-199107142D01*
X184832142Y-199107142D01*
X184975000Y-199035714D01*
X185475000Y-198678571D02*
X186046428Y-198678571D01*
X185689285Y-198178571D02*
X185689285Y-199464285D01*
X185760714Y-199607142D01*
X185903571Y-199678571D01*
X186046428Y-199678571D01*
X187117857Y-199607142D02*
X186975000Y-199678571D01*
X186689285Y-199678571D01*
X186546428Y-199607142D01*
X186475000Y-199464285D01*
X186475000Y-198892857D01*
X186546428Y-198750000D01*
X186689285Y-198678571D01*
X186975000Y-198678571D01*
X187117857Y-198750000D01*
X187189285Y-198892857D01*
X187189285Y-199035714D01*
X186475000Y-199178571D01*
X187832142Y-199535714D02*
X187903571Y-199607142D01*
X187832142Y-199678571D01*
X187760714Y-199607142D01*
X187832142Y-199535714D01*
X187832142Y-199678571D01*
X187832142Y-198750000D02*
X187903571Y-198821428D01*
X187832142Y-198892857D01*
X187760714Y-198821428D01*
X187832142Y-198750000D01*
X187832142Y-198892857D01*
X189617857Y-198321428D02*
X189689285Y-198250000D01*
X189832142Y-198178571D01*
X190189285Y-198178571D01*
X190332142Y-198250000D01*
X190403571Y-198321428D01*
X190475000Y-198464285D01*
X190475000Y-198607142D01*
X190403571Y-198821428D01*
X189546428Y-199678571D01*
X190475000Y-199678571D01*
X191403571Y-198178571D02*
X191546428Y-198178571D01*
X191689285Y-198250000D01*
X191760714Y-198321428D01*
X191832142Y-198464285D01*
X191903571Y-198750000D01*
X191903571Y-199107142D01*
X191832142Y-199392857D01*
X191760714Y-199535714D01*
X191689285Y-199607142D01*
X191546428Y-199678571D01*
X191403571Y-199678571D01*
X191260714Y-199607142D01*
X191189285Y-199535714D01*
X191117857Y-199392857D01*
X191046428Y-199107142D01*
X191046428Y-198750000D01*
X191117857Y-198464285D01*
X191189285Y-198321428D01*
X191260714Y-198250000D01*
X191403571Y-198178571D01*
X192475000Y-198321428D02*
X192546428Y-198250000D01*
X192689285Y-198178571D01*
X193046428Y-198178571D01*
X193189285Y-198250000D01*
X193260714Y-198321428D01*
X193332142Y-198464285D01*
X193332142Y-198607142D01*
X193260714Y-198821428D01*
X192403571Y-199678571D01*
X193332142Y-199678571D01*
X194260714Y-198178571D02*
X194403571Y-198178571D01*
X194546428Y-198250000D01*
X194617857Y-198321428D01*
X194689285Y-198464285D01*
X194760714Y-198750000D01*
X194760714Y-199107142D01*
X194689285Y-199392857D01*
X194617857Y-199535714D01*
X194546428Y-199607142D01*
X194403571Y-199678571D01*
X194260714Y-199678571D01*
X194117857Y-199607142D01*
X194046428Y-199535714D01*
X193975000Y-199392857D01*
X193903571Y-199107142D01*
X193903571Y-198750000D01*
X193975000Y-198464285D01*
X194046428Y-198321428D01*
X194117857Y-198250000D01*
X194260714Y-198178571D01*
X195403571Y-199107142D02*
X196546428Y-199107142D01*
X197546428Y-198178571D02*
X197689285Y-198178571D01*
X197832142Y-198250000D01*
X197903571Y-198321428D01*
X197975000Y-198464285D01*
X198046428Y-198750000D01*
X198046428Y-199107142D01*
X197975000Y-199392857D01*
X197903571Y-199535714D01*
X197832142Y-199607142D01*
X197689285Y-199678571D01*
X197546428Y-199678571D01*
X197403571Y-199607142D01*
X197332142Y-199535714D01*
X197260714Y-199392857D01*
X197189285Y-199107142D01*
X197189285Y-198750000D01*
X197260714Y-198464285D01*
X197332142Y-198321428D01*
X197403571Y-198250000D01*
X197546428Y-198178571D01*
X199332142Y-198678571D02*
X199332142Y-199678571D01*
X198975000Y-198107142D02*
X198617857Y-199178571D01*
X199546428Y-199178571D01*
X200117857Y-199107142D02*
X201260714Y-199107142D01*
X201903571Y-198321428D02*
X201975000Y-198250000D01*
X202117857Y-198178571D01*
X202475000Y-198178571D01*
X202617857Y-198250000D01*
X202689285Y-198321428D01*
X202760714Y-198464285D01*
X202760714Y-198607142D01*
X202689285Y-198821428D01*
X201832142Y-199678571D01*
X202760714Y-199678571D01*
X203260714Y-198178571D02*
X204260714Y-198178571D01*
X203617857Y-199678571D01*
D10*
D11*
X159400000Y-200400000D02*
X267400000Y-200400000D01*
D10*
D11*
X160832142Y-202478571D02*
X160832142Y-200978571D01*
X161689285Y-202478571D02*
X161046428Y-201621428D01*
X161689285Y-200978571D02*
X160832142Y-201835714D01*
X162332142Y-202478571D02*
X162332142Y-201478571D01*
X162332142Y-200978571D02*
X162260714Y-201050000D01*
X162332142Y-201121428D01*
X162403571Y-201050000D01*
X162332142Y-200978571D01*
X162332142Y-201121428D01*
X163903571Y-202335714D02*
X163832142Y-202407142D01*
X163617857Y-202478571D01*
X163475000Y-202478571D01*
X163260714Y-202407142D01*
X163117857Y-202264285D01*
X163046428Y-202121428D01*
X162975000Y-201835714D01*
X162975000Y-201621428D01*
X163046428Y-201335714D01*
X163117857Y-201192857D01*
X163260714Y-201050000D01*
X163475000Y-200978571D01*
X163617857Y-200978571D01*
X163832142Y-201050000D01*
X163903571Y-201121428D01*
X165189285Y-202478571D02*
X165189285Y-201692857D01*
X165117857Y-201550000D01*
X164975000Y-201478571D01*
X164689285Y-201478571D01*
X164546428Y-201550000D01*
X165189285Y-202407142D02*
X165046428Y-202478571D01*
X164689285Y-202478571D01*
X164546428Y-202407142D01*
X164475000Y-202264285D01*
X164475000Y-202121428D01*
X164546428Y-201978571D01*
X164689285Y-201907142D01*
X165046428Y-201907142D01*
X165189285Y-201835714D01*
X166546428Y-202478571D02*
X166546428Y-200978571D01*
X166546428Y-202407142D02*
X166403571Y-202478571D01*
X166117857Y-202478571D01*
X165975000Y-202407142D01*
X165903571Y-202335714D01*
X165832142Y-202192857D01*
X165832142Y-201764285D01*
X165903571Y-201621428D01*
X165975000Y-201550000D01*
X166117857Y-201478571D01*
X166403571Y-201478571D01*
X166546428Y-201550000D01*
X168403571Y-201692857D02*
X168903571Y-201692857D01*
X169117857Y-202478571D02*
X168403571Y-202478571D01*
X168403571Y-200978571D01*
X169117857Y-200978571D01*
X169760714Y-202335714D02*
X169832142Y-202407142D01*
X169760714Y-202478571D01*
X169689285Y-202407142D01*
X169760714Y-202335714D01*
X169760714Y-202478571D01*
X170475000Y-202478571D02*
X170475000Y-200978571D01*
X170832142Y-200978571D01*
X171046428Y-201050000D01*
X171189285Y-201192857D01*
X171260714Y-201335714D01*
X171332142Y-201621428D01*
X171332142Y-201835714D01*
X171260714Y-202121428D01*
X171189285Y-202264285D01*
X171046428Y-202407142D01*
X170832142Y-202478571D01*
X170475000Y-202478571D01*
X171975000Y-202335714D02*
X172046428Y-202407142D01*
X171975000Y-202478571D01*
X171903571Y-202407142D01*
X171975000Y-202335714D01*
X171975000Y-202478571D01*
X172617857Y-202050000D02*
X173332142Y-202050000D01*
X172475000Y-202478571D02*
X172975000Y-200978571D01*
X173475000Y-202478571D01*
X173975000Y-202335714D02*
X174046428Y-202407142D01*
X173975000Y-202478571D01*
X173903571Y-202407142D01*
X173975000Y-202335714D01*
X173975000Y-202478571D01*
X176975000Y-202478571D02*
X176975000Y-200978571D01*
X177117857Y-201907142D02*
X177546428Y-202478571D01*
X177546428Y-201478571D02*
X176975000Y-202050000D01*
X178189285Y-202478571D02*
X178189285Y-201478571D01*
X178189285Y-200978571D02*
X178117857Y-201050000D01*
X178189285Y-201121428D01*
X178260714Y-201050000D01*
X178189285Y-200978571D01*
X178189285Y-201121428D01*
X179546428Y-202407142D02*
X179403571Y-202478571D01*
X179117857Y-202478571D01*
X178975000Y-202407142D01*
X178903571Y-202335714D01*
X178832142Y-202192857D01*
X178832142Y-201764285D01*
X178903571Y-201621428D01*
X178975000Y-201550000D01*
X179117857Y-201478571D01*
X179403571Y-201478571D01*
X179546428Y-201550000D01*
X180832142Y-202478571D02*
X180832142Y-201692857D01*
X180760714Y-201550000D01*
X180617857Y-201478571D01*
X180332142Y-201478571D01*
X180189285Y-201550000D01*
X180832142Y-202407142D02*
X180689285Y-202478571D01*
X180332142Y-202478571D01*
X180189285Y-202407142D01*
X180117857Y-202264285D01*
X180117857Y-202121428D01*
X180189285Y-201978571D01*
X180332142Y-201907142D01*
X180689285Y-201907142D01*
X180832142Y-201835714D01*
X182189285Y-202478571D02*
X182189285Y-200978571D01*
X182189285Y-202407142D02*
X182046428Y-202478571D01*
X181760714Y-202478571D01*
X181617857Y-202407142D01*
X181546428Y-202335714D01*
X181475000Y-202192857D01*
X181475000Y-201764285D01*
X181546428Y-201621428D01*
X181617857Y-201550000D01*
X181760714Y-201478571D01*
X182046428Y-201478571D01*
X182189285Y-201550000D01*
X184475000Y-203050000D02*
X184403571Y-202978571D01*
X184260714Y-202764285D01*
X184189285Y-202621428D01*
X184117857Y-202407142D01*
X184046428Y-202050000D01*
X184046428Y-201764285D01*
X184117857Y-201407142D01*
X184189285Y-201192857D01*
X184260714Y-201050000D01*
X184403571Y-200835714D01*
X184475000Y-200764285D01*
X185760714Y-200978571D02*
X185046428Y-200978571D01*
X184975000Y-201692857D01*
X185046428Y-201621428D01*
X185189285Y-201550000D01*
X185546428Y-201550000D01*
X185689285Y-201621428D01*
X185760714Y-201692857D01*
X185832142Y-201835714D01*
X185832142Y-202192857D01*
X185760714Y-202335714D01*
X185689285Y-202407142D01*
X185546428Y-202478571D01*
X185189285Y-202478571D01*
X185046428Y-202407142D01*
X184975000Y-202335714D01*
X186475000Y-202335714D02*
X186546428Y-202407142D01*
X186475000Y-202478571D01*
X186403571Y-202407142D01*
X186475000Y-202335714D01*
X186475000Y-202478571D01*
X187975000Y-202478571D02*
X187117857Y-202478571D01*
X187546428Y-202478571D02*
X187546428Y-200978571D01*
X187403571Y-201192857D01*
X187260714Y-201335714D01*
X187117857Y-201407142D01*
X188617857Y-202335714D02*
X188689285Y-202407142D01*
X188617857Y-202478571D01*
X188546428Y-202407142D01*
X188617857Y-202335714D01*
X188617857Y-202478571D01*
X189975000Y-201478571D02*
X189975000Y-202478571D01*
X189617857Y-200907142D02*
X189260714Y-201978571D01*
X190189285Y-201978571D01*
X190617857Y-203050000D02*
X190689285Y-202978571D01*
X190832142Y-202764285D01*
X190903571Y-202621428D01*
X190975000Y-202407142D01*
X191046428Y-202050000D01*
X191046428Y-201764285D01*
X190975000Y-201407142D01*
X190903571Y-201192857D01*
X190832142Y-201050000D01*
X190689285Y-200835714D01*
X190617857Y-200764285D01*
X191760714Y-201907142D02*
X192903571Y-201907142D01*
X194403571Y-202478571D02*
X193546428Y-202478571D01*
X193975000Y-202478571D02*
X193975000Y-200978571D01*
X193832142Y-201192857D01*
X193689285Y-201335714D01*
X193546428Y-201407142D01*
D10*
D11*
X159400000Y-197400000D02*
X267400000Y-197400000D01*
D10*
D12*
X246809285Y-199678571D02*
X246309285Y-198964285D01*
X245952142Y-199678571D02*
X245952142Y-198178571D01*
X246523571Y-198178571D01*
X246666428Y-198250000D01*
X246737857Y-198321428D01*
X246809285Y-198464285D01*
X246809285Y-198678571D01*
X246737857Y-198821428D01*
X246666428Y-198892857D01*
X246523571Y-198964285D01*
X245952142Y-198964285D01*
X248023571Y-199607142D02*
X247880714Y-199678571D01*
X247595000Y-199678571D01*
X247452142Y-199607142D01*
X247380714Y-199464285D01*
X247380714Y-198892857D01*
X247452142Y-198750000D01*
X247595000Y-198678571D01*
X247880714Y-198678571D01*
X248023571Y-198750000D01*
X248095000Y-198892857D01*
X248095000Y-199035714D01*
X247380714Y-199178571D01*
X248595000Y-198678571D02*
X248952142Y-199678571D01*
X249309285Y-198678571D01*
X249880714Y-199535714D02*
X249952142Y-199607142D01*
X249880714Y-199678571D01*
X249809285Y-199607142D01*
X249880714Y-199535714D01*
X249880714Y-199678571D01*
X249880714Y-198750000D02*
X249952142Y-198821428D01*
X249880714Y-198892857D01*
X249809285Y-198821428D01*
X249880714Y-198750000D01*
X249880714Y-198892857D01*
X251666428Y-198321428D02*
X251737857Y-198250000D01*
X251880714Y-198178571D01*
X252237857Y-198178571D01*
X252380714Y-198250000D01*
X252452142Y-198321428D01*
X252523571Y-198464285D01*
X252523571Y-198607142D01*
X252452142Y-198821428D01*
X251595000Y-199678571D01*
X252523571Y-199678571D01*
X253166428Y-199535714D02*
X253237857Y-199607142D01*
X253166428Y-199678571D01*
X253095000Y-199607142D01*
X253166428Y-199535714D01*
X253166428Y-199678571D01*
X253737857Y-198178571D02*
X254666428Y-198178571D01*
X254166428Y-198750000D01*
X254380714Y-198750000D01*
X254523571Y-198821428D01*
X254595000Y-198892857D01*
X254666428Y-199035714D01*
X254666428Y-199392857D01*
X254595000Y-199535714D01*
X254523571Y-199607142D01*
X254380714Y-199678571D01*
X253952142Y-199678571D01*
X253809285Y-199607142D01*
X253737857Y-199535714D01*
D10*
D11*
X160760714Y-199607142D02*
X160975000Y-199678571D01*
X161332142Y-199678571D01*
X161475000Y-199607142D01*
X161546428Y-199535714D01*
X161617857Y-199392857D01*
X161617857Y-199250000D01*
X161546428Y-199107142D01*
X161475000Y-199035714D01*
X161332142Y-198964285D01*
X161046428Y-198892857D01*
X160903571Y-198821428D01*
X160832142Y-198750000D01*
X160760714Y-198607142D01*
X160760714Y-198464285D01*
X160832142Y-198321428D01*
X160903571Y-198250000D01*
X161046428Y-198178571D01*
X161403571Y-198178571D01*
X161617857Y-198250000D01*
X162260714Y-199678571D02*
X162260714Y-198678571D01*
X162260714Y-198178571D02*
X162189285Y-198250000D01*
X162260714Y-198321428D01*
X162332142Y-198250000D01*
X162260714Y-198178571D01*
X162260714Y-198321428D01*
X162832142Y-198678571D02*
X163617857Y-198678571D01*
X162832142Y-199678571D01*
X163617857Y-199678571D01*
X164760714Y-199607142D02*
X164617857Y-199678571D01*
X164332142Y-199678571D01*
X164189285Y-199607142D01*
X164117857Y-199464285D01*
X164117857Y-198892857D01*
X164189285Y-198750000D01*
X164332142Y-198678571D01*
X164617857Y-198678571D01*
X164760714Y-198750000D01*
X164832142Y-198892857D01*
X164832142Y-199035714D01*
X164117857Y-199178571D01*
X165475000Y-199535714D02*
X165546428Y-199607142D01*
X165475000Y-199678571D01*
X165403571Y-199607142D01*
X165475000Y-199535714D01*
X165475000Y-199678571D01*
X165475000Y-198750000D02*
X165546428Y-198821428D01*
X165475000Y-198892857D01*
X165403571Y-198821428D01*
X165475000Y-198750000D01*
X165475000Y-198892857D01*
X167332142Y-198178571D02*
X167332142Y-199392857D01*
X167403571Y-199535714D01*
X167475000Y-199607142D01*
X167617857Y-199678571D01*
X167903571Y-199678571D01*
X168046428Y-199607142D01*
X168117857Y-199535714D01*
X168189285Y-199392857D01*
X168189285Y-198178571D01*
X168832142Y-199607142D02*
X169046428Y-199678571D01*
X169403571Y-199678571D01*
X169546428Y-199607142D01*
X169617857Y-199535714D01*
X169689285Y-199392857D01*
X169689285Y-199250000D01*
X169617857Y-199107142D01*
X169546428Y-199035714D01*
X169403571Y-198964285D01*
X169117857Y-198892857D01*
X168975000Y-198821428D01*
X168903571Y-198750000D01*
X168832142Y-198607142D01*
X168832142Y-198464285D01*
X168903571Y-198321428D01*
X168975000Y-198250000D01*
X169117857Y-198178571D01*
X169475000Y-198178571D01*
X169689285Y-198250000D01*
X171046428Y-199678571D02*
X170332142Y-199678571D01*
X170332142Y-198178571D01*
X172117857Y-199607142D02*
X171975000Y-199678571D01*
X171689285Y-199678571D01*
X171546428Y-199607142D01*
X171475000Y-199464285D01*
X171475000Y-198892857D01*
X171546428Y-198750000D01*
X171689285Y-198678571D01*
X171975000Y-198678571D01*
X172117857Y-198750000D01*
X172189285Y-198892857D01*
X172189285Y-199035714D01*
X171475000Y-199178571D01*
X172617857Y-198678571D02*
X173189285Y-198678571D01*
X172832142Y-198178571D02*
X172832142Y-199464285D01*
X172903571Y-199607142D01*
X173046428Y-199678571D01*
X173189285Y-199678571D01*
X173475000Y-198678571D02*
X174046428Y-198678571D01*
X173689285Y-198178571D02*
X173689285Y-199464285D01*
X173760714Y-199607142D01*
X173903571Y-199678571D01*
X174046428Y-199678571D01*
X175117857Y-199607142D02*
X174975000Y-199678571D01*
X174689285Y-199678571D01*
X174546428Y-199607142D01*
X174475000Y-199464285D01*
X174475000Y-198892857D01*
X174546428Y-198750000D01*
X174689285Y-198678571D01*
X174975000Y-198678571D01*
X175117857Y-198750000D01*
X175189285Y-198892857D01*
X175189285Y-199035714D01*
X174475000Y-199178571D01*
X175832142Y-199678571D02*
X175832142Y-198678571D01*
X175832142Y-198964285D02*
X175903571Y-198821428D01*
X175975000Y-198750000D01*
X176117857Y-198678571D01*
X176260714Y-198678571D01*
D10*
D11*
X245832142Y-202478571D02*
X245832142Y-200978571D01*
X247189285Y-202478571D02*
X247189285Y-200978571D01*
X247189285Y-202407142D02*
X247046428Y-202478571D01*
X246760714Y-202478571D01*
X246617857Y-202407142D01*
X246546428Y-202335714D01*
X246475000Y-202192857D01*
X246475000Y-201764285D01*
X246546428Y-201621428D01*
X246617857Y-201550000D01*
X246760714Y-201478571D01*
X247046428Y-201478571D01*
X247189285Y-201550000D01*
X247903571Y-202335714D02*
X247975000Y-202407142D01*
X247903571Y-202478571D01*
X247832142Y-202407142D01*
X247903571Y-202335714D01*
X247903571Y-202478571D01*
X247903571Y-201550000D02*
X247975000Y-201621428D01*
X247903571Y-201692857D01*
X247832142Y-201621428D01*
X247903571Y-201550000D01*
X247903571Y-201692857D01*
X250546428Y-202478571D02*
X249689285Y-202478571D01*
X250117857Y-202478571D02*
X250117857Y-200978571D01*
X249975000Y-201192857D01*
X249832142Y-201335714D01*
X249689285Y-201407142D01*
X252260714Y-200907142D02*
X250975000Y-202835714D01*
X253546428Y-202478571D02*
X252689285Y-202478571D01*
X253117857Y-202478571D02*
X253117857Y-200978571D01*
X252975000Y-201192857D01*
X252832142Y-201335714D01*
X252689285Y-201407142D01*
D10*
D11*
X159400000Y-193400000D02*
X267400000Y-193400000D01*
D10*
D13*
X161112380Y-194104761D02*
X162255238Y-194104761D01*
X161433809Y-196104761D02*
X161683809Y-194104761D01*
X162671904Y-196104761D02*
X162838571Y-194771428D01*
X162921904Y-194104761D02*
X162814761Y-194200000D01*
X162898095Y-194295238D01*
X163005238Y-194200000D01*
X162921904Y-194104761D01*
X162898095Y-194295238D01*
X163505238Y-194771428D02*
X164267142Y-194771428D01*
X163874285Y-194104761D02*
X163660000Y-195819047D01*
X163731428Y-196009523D01*
X163910000Y-196104761D01*
X164100476Y-196104761D01*
X165052857Y-196104761D02*
X164874285Y-196009523D01*
X164802857Y-195819047D01*
X165017142Y-194104761D01*
X166588571Y-196009523D02*
X166386190Y-196104761D01*
X166005238Y-196104761D01*
X165826666Y-196009523D01*
X165755238Y-195819047D01*
X165850476Y-195057142D01*
X165969523Y-194866666D01*
X166171904Y-194771428D01*
X166552857Y-194771428D01*
X166731428Y-194866666D01*
X166802857Y-195057142D01*
X166779047Y-195247619D01*
X165802857Y-195438095D01*
X167552857Y-195914285D02*
X167636190Y-196009523D01*
X167529047Y-196104761D01*
X167445714Y-196009523D01*
X167552857Y-195914285D01*
X167529047Y-196104761D01*
X167683809Y-194866666D02*
X167767142Y-194961904D01*
X167660000Y-195057142D01*
X167576666Y-194961904D01*
X167683809Y-194866666D01*
X167660000Y-195057142D01*
X170005238Y-196104761D02*
X170255238Y-194104761D01*
X172648095Y-194009523D02*
X170612380Y-196580952D01*
X173683809Y-194104761D02*
X174064761Y-194104761D01*
X174243333Y-194200000D01*
X174410000Y-194390476D01*
X174457619Y-194771428D01*
X174374285Y-195438095D01*
X174231428Y-195819047D01*
X174017142Y-196009523D01*
X173814761Y-196104761D01*
X173433809Y-196104761D01*
X173255238Y-196009523D01*
X173088571Y-195819047D01*
X173040952Y-195438095D01*
X173124285Y-194771428D01*
X173267142Y-194390476D01*
X173481428Y-194200000D01*
X173683809Y-194104761D01*
X177469523Y-195057142D02*
X177743333Y-195152380D01*
X177826666Y-195247619D01*
X177898095Y-195438095D01*
X177862380Y-195723809D01*
X177743333Y-195914285D01*
X177636190Y-196009523D01*
X177433809Y-196104761D01*
X176671904Y-196104761D01*
X176921904Y-194104761D01*
X177588571Y-194104761D01*
X177767142Y-194200000D01*
X177850476Y-194295238D01*
X177921904Y-194485714D01*
X177898095Y-194676190D01*
X177779047Y-194866666D01*
X177671904Y-194961904D01*
X177469523Y-195057142D01*
X176802857Y-195057142D01*
X178957619Y-196104761D02*
X178779047Y-196009523D01*
X178695714Y-195914285D01*
X178624285Y-195723809D01*
X178695714Y-195152380D01*
X178814761Y-194961904D01*
X178921904Y-194866666D01*
X179124285Y-194771428D01*
X179410000Y-194771428D01*
X179588571Y-194866666D01*
X179671904Y-194961904D01*
X179743333Y-195152380D01*
X179671904Y-195723809D01*
X179552857Y-195914285D01*
X179445714Y-196009523D01*
X179243333Y-196104761D01*
X178957619Y-196104761D01*
X181338571Y-196104761D02*
X181469523Y-195057142D01*
X181398095Y-194866666D01*
X181219523Y-194771428D01*
X180838571Y-194771428D01*
X180636190Y-194866666D01*
X181350476Y-196009523D02*
X181148095Y-196104761D01*
X180671904Y-196104761D01*
X180493333Y-196009523D01*
X180421904Y-195819047D01*
X180445714Y-195628571D01*
X180564761Y-195438095D01*
X180767142Y-195342857D01*
X181243333Y-195342857D01*
X181445714Y-195247619D01*
X182290952Y-196104761D02*
X182457619Y-194771428D01*
X182410000Y-195152380D02*
X182529047Y-194961904D01*
X182636190Y-194866666D01*
X182838571Y-194771428D01*
X183029047Y-194771428D01*
X184386190Y-196104761D02*
X184636190Y-194104761D01*
X184398095Y-196009523D02*
X184195714Y-196104761D01*
X183814761Y-196104761D01*
X183636190Y-196009523D01*
X183552857Y-195914285D01*
X183481428Y-195723809D01*
X183552857Y-195152380D01*
X183671904Y-194961904D01*
X183779047Y-194866666D01*
X183981428Y-194771428D01*
X184362380Y-194771428D01*
X184540952Y-194866666D01*
X187814761Y-196104761D02*
X186862380Y-196104761D01*
X187112380Y-194104761D01*
X189338571Y-196104761D02*
X189469523Y-195057142D01*
X189398095Y-194866666D01*
X189219523Y-194771428D01*
X188838571Y-194771428D01*
X188636190Y-194866666D01*
X189350476Y-196009523D02*
X189148095Y-196104761D01*
X188671904Y-196104761D01*
X188493333Y-196009523D01*
X188421904Y-195819047D01*
X188445714Y-195628571D01*
X188564761Y-195438095D01*
X188767142Y-195342857D01*
X189243333Y-195342857D01*
X189445714Y-195247619D01*
X190267142Y-194771428D02*
X190576666Y-196104761D01*
X191219523Y-194771428D02*
X190576666Y-196104761D01*
X190326666Y-196580952D01*
X190219523Y-196676190D01*
X190017142Y-196771428D01*
X192100476Y-196104761D02*
X191921904Y-196009523D01*
X191838571Y-195914285D01*
X191767142Y-195723809D01*
X191838571Y-195152380D01*
X191957619Y-194961904D01*
X192064761Y-194866666D01*
X192267142Y-194771428D01*
X192552857Y-194771428D01*
X192731428Y-194866666D01*
X192814761Y-194961904D01*
X192886190Y-195152380D01*
X192814761Y-195723809D01*
X192695714Y-195914285D01*
X192588571Y-196009523D01*
X192386190Y-196104761D01*
X192100476Y-196104761D01*
X194648095Y-194771428D02*
X194481428Y-196104761D01*
X193790952Y-194771428D02*
X193660000Y-195819047D01*
X193731428Y-196009523D01*
X193910000Y-196104761D01*
X194195714Y-196104761D01*
X194398095Y-196009523D01*
X194505238Y-195914285D01*
X195314761Y-194771428D02*
X196076666Y-194771428D01*
X195683809Y-194104761D02*
X195469523Y-195819047D01*
X195540952Y-196009523D01*
X195719523Y-196104761D01*
X195910000Y-196104761D01*
D10*
D11*
X161332142Y-191492857D02*
X160832142Y-191492857D01*
X160832142Y-192278571D02*
X160832142Y-190778571D01*
X161546428Y-190778571D01*
X162117857Y-192278571D02*
X162117857Y-191278571D01*
X162117857Y-190778571D02*
X162046428Y-190850000D01*
X162117857Y-190921428D01*
X162189285Y-190850000D01*
X162117857Y-190778571D01*
X162117857Y-190921428D01*
X163046428Y-192278571D02*
X162903571Y-192207142D01*
X162832142Y-192064285D01*
X162832142Y-190778571D01*
X164189285Y-192207142D02*
X164046428Y-192278571D01*
X163760714Y-192278571D01*
X163617857Y-192207142D01*
X163546428Y-192064285D01*
X163546428Y-191492857D01*
X163617857Y-191350000D01*
X163760714Y-191278571D01*
X164046428Y-191278571D01*
X164189285Y-191350000D01*
X164260714Y-191492857D01*
X164260714Y-191635714D01*
X163546428Y-191778571D01*
X164903571Y-192135714D02*
X164975000Y-192207142D01*
X164903571Y-192278571D01*
X164832142Y-192207142D01*
X164903571Y-192135714D01*
X164903571Y-192278571D01*
X164903571Y-191350000D02*
X164975000Y-191421428D01*
X164903571Y-191492857D01*
X164832142Y-191421428D01*
X164903571Y-191350000D01*
X164903571Y-191492857D01*
X166760714Y-192278571D02*
X166760714Y-190778571D01*
X167760714Y-190778571D02*
X168046428Y-190778571D01*
X168189285Y-190850000D01*
X168332142Y-190992857D01*
X168403571Y-191278571D01*
X168403571Y-191778571D01*
X168332142Y-192064285D01*
X168189285Y-192207142D01*
X168046428Y-192278571D01*
X167760714Y-192278571D01*
X167617857Y-192207142D01*
X167475000Y-192064285D01*
X167403571Y-191778571D01*
X167403571Y-191278571D01*
X167475000Y-190992857D01*
X167617857Y-190850000D01*
X167760714Y-190778571D01*
X170689285Y-191492857D02*
X170903571Y-191564285D01*
X170975000Y-191635714D01*
X171046428Y-191778571D01*
X171046428Y-191992857D01*
X170975000Y-192135714D01*
X170903571Y-192207142D01*
X170760714Y-192278571D01*
X170189285Y-192278571D01*
X170189285Y-190778571D01*
X170689285Y-190778571D01*
X170832142Y-190850000D01*
X170903571Y-190921428D01*
X170975000Y-191064285D01*
X170975000Y-191207142D01*
X170903571Y-191350000D01*
X170832142Y-191421428D01*
X170689285Y-191492857D01*
X170189285Y-191492857D01*
X171903571Y-192278571D02*
X171760714Y-192207142D01*
X171689285Y-192135714D01*
X171617857Y-191992857D01*
X171617857Y-191564285D01*
X171689285Y-191421428D01*
X171760714Y-191350000D01*
X171903571Y-191278571D01*
X172117857Y-191278571D01*
X172260714Y-191350000D01*
X172332142Y-191421428D01*
X172403571Y-191564285D01*
X172403571Y-191992857D01*
X172332142Y-192135714D01*
X172260714Y-192207142D01*
X172117857Y-192278571D01*
X171903571Y-192278571D01*
X173689285Y-192278571D02*
X173689285Y-191492857D01*
X173617857Y-191350000D01*
X173475000Y-191278571D01*
X173189285Y-191278571D01*
X173046428Y-191350000D01*
X173689285Y-192207142D02*
X173546428Y-192278571D01*
X173189285Y-192278571D01*
X173046428Y-192207142D01*
X172975000Y-192064285D01*
X172975000Y-191921428D01*
X173046428Y-191778571D01*
X173189285Y-191707142D01*
X173546428Y-191707142D01*
X173689285Y-191635714D01*
X174403571Y-192278571D02*
X174403571Y-191278571D01*
X174403571Y-191564285D02*
X174475000Y-191421428D01*
X174546428Y-191350000D01*
X174689285Y-191278571D01*
X174832142Y-191278571D01*
X175975000Y-192278571D02*
X175975000Y-190778571D01*
X175975000Y-192207142D02*
X175832142Y-192278571D01*
X175546428Y-192278571D01*
X175403571Y-192207142D01*
X175332142Y-192135714D01*
X175260714Y-191992857D01*
X175260714Y-191564285D01*
X175332142Y-191421428D01*
X175403571Y-191350000D01*
X175546428Y-191278571D01*
X175832142Y-191278571D01*
X175975000Y-191350000D01*
X176689285Y-192135714D02*
X176760714Y-192207142D01*
X176689285Y-192278571D01*
X176617857Y-192207142D01*
X176689285Y-192135714D01*
X176689285Y-192278571D01*
X177403571Y-192278571D02*
X177403571Y-190778571D01*
X177546428Y-191707142D02*
X177975000Y-192278571D01*
X177975000Y-191278571D02*
X177403571Y-191850000D01*
X178617857Y-192278571D02*
X178617857Y-191278571D01*
X178617857Y-190778571D02*
X178546428Y-190850000D01*
X178617857Y-190921428D01*
X178689285Y-190850000D01*
X178617857Y-190778571D01*
X178617857Y-190921428D01*
X179975000Y-192207142D02*
X179832142Y-192278571D01*
X179546428Y-192278571D01*
X179403571Y-192207142D01*
X179332142Y-192135714D01*
X179260714Y-191992857D01*
X179260714Y-191564285D01*
X179332142Y-191421428D01*
X179403571Y-191350000D01*
X179546428Y-191278571D01*
X179832142Y-191278571D01*
X179975000Y-191350000D01*
X181260714Y-192278571D02*
X181260714Y-191492857D01*
X181189285Y-191350000D01*
X181046428Y-191278571D01*
X180760714Y-191278571D01*
X180617857Y-191350000D01*
X181260714Y-192207142D02*
X181117857Y-192278571D01*
X180760714Y-192278571D01*
X180617857Y-192207142D01*
X180546428Y-192064285D01*
X180546428Y-191921428D01*
X180617857Y-191778571D01*
X180760714Y-191707142D01*
X181117857Y-191707142D01*
X181260714Y-191635714D01*
X182617857Y-192278571D02*
X182617857Y-190778571D01*
X182617857Y-192207142D02*
X182475000Y-192278571D01*
X182189285Y-192278571D01*
X182046428Y-192207142D01*
X181975000Y-192135714D01*
X181903571Y-191992857D01*
X181903571Y-191564285D01*
X181975000Y-191421428D01*
X182046428Y-191350000D01*
X182189285Y-191278571D01*
X182475000Y-191278571D01*
X182617857Y-191350000D01*
X182975000Y-192421428D02*
X184117857Y-192421428D01*
X184475000Y-191278571D02*
X184475000Y-192778571D01*
X184475000Y-191350000D02*
X184617857Y-191278571D01*
X184903571Y-191278571D01*
X185046428Y-191350000D01*
X185117857Y-191421428D01*
X185189285Y-191564285D01*
X185189285Y-191992857D01*
X185117857Y-192135714D01*
X185046428Y-192207142D01*
X184903571Y-192278571D01*
X184617857Y-192278571D01*
X184475000Y-192207142D01*
X186475000Y-192207142D02*
X186332142Y-192278571D01*
X186046428Y-192278571D01*
X185903571Y-192207142D01*
X185832142Y-192135714D01*
X185760714Y-191992857D01*
X185760714Y-191564285D01*
X185832142Y-191421428D01*
X185903571Y-191350000D01*
X186046428Y-191278571D01*
X186332142Y-191278571D01*
X186475000Y-191350000D01*
X187117857Y-192278571D02*
X187117857Y-190778571D01*
X187117857Y-191350000D02*
X187260714Y-191278571D01*
X187546428Y-191278571D01*
X187689285Y-191350000D01*
X187760714Y-191421428D01*
X187832142Y-191564285D01*
X187832142Y-191992857D01*
X187760714Y-192135714D01*
X187689285Y-192207142D01*
X187546428Y-192278571D01*
X187260714Y-192278571D01*
X187117857Y-192207142D01*
D10*
D11*
X159400000Y-187400000D02*
X267400000Y-187400000D01*
D10*
D11*
X160760714Y-189507142D02*
X160975000Y-189578571D01*
X161332142Y-189578571D01*
X161475000Y-189507142D01*
X161546428Y-189435714D01*
X161617857Y-189292857D01*
X161617857Y-189150000D01*
X161546428Y-189007142D01*
X161475000Y-188935714D01*
X161332142Y-188864285D01*
X161046428Y-188792857D01*
X160903571Y-188721428D01*
X160832142Y-188650000D01*
X160760714Y-188507142D01*
X160760714Y-188364285D01*
X160832142Y-188221428D01*
X160903571Y-188150000D01*
X161046428Y-188078571D01*
X161403571Y-188078571D01*
X161617857Y-188150000D01*
X162260714Y-189578571D02*
X162260714Y-188078571D01*
X162903571Y-189578571D02*
X162903571Y-188792857D01*
X162832142Y-188650000D01*
X162689285Y-188578571D01*
X162475000Y-188578571D01*
X162332142Y-188650000D01*
X162260714Y-188721428D01*
X164189285Y-189507142D02*
X164046428Y-189578571D01*
X163760714Y-189578571D01*
X163617857Y-189507142D01*
X163546428Y-189364285D01*
X163546428Y-188792857D01*
X163617857Y-188650000D01*
X163760714Y-188578571D01*
X164046428Y-188578571D01*
X164189285Y-188650000D01*
X164260714Y-188792857D01*
X164260714Y-188935714D01*
X163546428Y-189078571D01*
X165475000Y-189507142D02*
X165332142Y-189578571D01*
X165046428Y-189578571D01*
X164903571Y-189507142D01*
X164832142Y-189364285D01*
X164832142Y-188792857D01*
X164903571Y-188650000D01*
X165046428Y-188578571D01*
X165332142Y-188578571D01*
X165475000Y-188650000D01*
X165546428Y-188792857D01*
X165546428Y-188935714D01*
X164832142Y-189078571D01*
X165975000Y-188578571D02*
X166546428Y-188578571D01*
X166189285Y-188078571D02*
X166189285Y-189364285D01*
X166260714Y-189507142D01*
X166403571Y-189578571D01*
X166546428Y-189578571D01*
X167046428Y-189435714D02*
X167117857Y-189507142D01*
X167046428Y-189578571D01*
X166975000Y-189507142D01*
X167046428Y-189435714D01*
X167046428Y-189578571D01*
X167046428Y-188650000D02*
X167117857Y-188721428D01*
X167046428Y-188792857D01*
X166975000Y-188721428D01*
X167046428Y-188650000D01*
X167046428Y-188792857D01*
D10*
D11*
X179400000Y-197400000D02*
X179400000Y-200400000D01*
D10*
D11*
X243400000Y-197400000D02*
X243400000Y-203900000D01*
D12*
X226612142Y-85763571D02*
X226612142Y-84263571D01*
X228397857Y-84192142D02*
X227112142Y-86120714D01*
X229183571Y-84263571D02*
X229469285Y-84263571D01*
X229612142Y-84335000D01*
X229755000Y-84477857D01*
X229826428Y-84763571D01*
X229826428Y-85263571D01*
X229755000Y-85549285D01*
X229612142Y-85692142D01*
X229469285Y-85763571D01*
X229183571Y-85763571D01*
X229040714Y-85692142D01*
X228897857Y-85549285D01*
X228826428Y-85263571D01*
X228826428Y-84763571D01*
X228897857Y-84477857D01*
X229040714Y-84335000D01*
X229183571Y-84263571D01*
X232112142Y-84977857D02*
X232326428Y-85049285D01*
X232397857Y-85120714D01*
X232469285Y-85263571D01*
X232469285Y-85477857D01*
X232397857Y-85620714D01*
X232326428Y-85692142D01*
X232183571Y-85763571D01*
X231612142Y-85763571D01*
X231612142Y-84263571D01*
X232112142Y-84263571D01*
X232255000Y-84335000D01*
X232326428Y-84406428D01*
X232397857Y-84549285D01*
X232397857Y-84692142D01*
X232326428Y-84835000D01*
X232255000Y-84906428D01*
X232112142Y-84977857D01*
X231612142Y-84977857D01*
X233326428Y-85763571D02*
X233183571Y-85692142D01*
X233112142Y-85620714D01*
X233040714Y-85477857D01*
X233040714Y-85049285D01*
X233112142Y-84906428D01*
X233183571Y-84835000D01*
X233326428Y-84763571D01*
X233540714Y-84763571D01*
X233683571Y-84835000D01*
X233755000Y-84906428D01*
X233826428Y-85049285D01*
X233826428Y-85477857D01*
X233755000Y-85620714D01*
X233683571Y-85692142D01*
X233540714Y-85763571D01*
X233326428Y-85763571D01*
X235112142Y-85763571D02*
X235112142Y-84977857D01*
X235040714Y-84835000D01*
X234897857Y-84763571D01*
X234612142Y-84763571D01*
X234469285Y-84835000D01*
X235112142Y-85692142D02*
X234969285Y-85763571D01*
X234612142Y-85763571D01*
X234469285Y-85692142D01*
X234397857Y-85549285D01*
X234397857Y-85406428D01*
X234469285Y-85263571D01*
X234612142Y-85192142D01*
X234969285Y-85192142D01*
X235112142Y-85120714D01*
X235826428Y-85763571D02*
X235826428Y-84763571D01*
X235826428Y-85049285D02*
X235897857Y-84906428D01*
X235969285Y-84835000D01*
X236112142Y-84763571D01*
X236255000Y-84763571D01*
X237397857Y-85763571D02*
X237397857Y-84263571D01*
X237397857Y-85692142D02*
X237255000Y-85763571D01*
X236969285Y-85763571D01*
X236826428Y-85692142D01*
X236755000Y-85620714D01*
X236683571Y-85477857D01*
X236683571Y-85049285D01*
X236755000Y-84906428D01*
X236826428Y-84835000D01*
X236969285Y-84763571D01*
X237255000Y-84763571D01*
X237397857Y-84835000D01*
X240112142Y-85763571D02*
X239612142Y-85049285D01*
X239255000Y-85763571D02*
X239255000Y-84263571D01*
X239826428Y-84263571D01*
X239969285Y-84335000D01*
X240040714Y-84406428D01*
X240112142Y-84549285D01*
X240112142Y-84763571D01*
X240040714Y-84906428D01*
X239969285Y-84977857D01*
X239826428Y-85049285D01*
X239255000Y-85049285D01*
X241326428Y-85692142D02*
X241183571Y-85763571D01*
X240897857Y-85763571D01*
X240755000Y-85692142D01*
X240683571Y-85549285D01*
X240683571Y-84977857D01*
X240755000Y-84835000D01*
X240897857Y-84763571D01*
X241183571Y-84763571D01*
X241326428Y-84835000D01*
X241397857Y-84977857D01*
X241397857Y-85120714D01*
X240683571Y-85263571D01*
X241897857Y-84763571D02*
X242255000Y-85763571D01*
X242612142Y-84763571D01*
X244255000Y-84406428D02*
X244326428Y-84335000D01*
X244469285Y-84263571D01*
X244826428Y-84263571D01*
X244969285Y-84335000D01*
X245040714Y-84406428D01*
X245112142Y-84549285D01*
X245112142Y-84692142D01*
X245040714Y-84906428D01*
X244183571Y-85763571D01*
X245112142Y-85763571D01*
X245755000Y-85620714D02*
X245826428Y-85692142D01*
X245755000Y-85763571D01*
X245683571Y-85692142D01*
X245755000Y-85620714D01*
X245755000Y-85763571D01*
X247112142Y-84763571D02*
X247112142Y-85763571D01*
X246755000Y-84192142D02*
X246397857Y-85263571D01*
X247326428Y-85263571D01*
X226397857Y-86813571D02*
X227255000Y-86813571D01*
X226826428Y-88313571D02*
X226826428Y-86813571D01*
X227969285Y-88313571D02*
X227826428Y-88242142D01*
X227755000Y-88170714D01*
X227683571Y-88027857D01*
X227683571Y-87599285D01*
X227755000Y-87456428D01*
X227826428Y-87385000D01*
X227969285Y-87313571D01*
X228183571Y-87313571D01*
X228326428Y-87385000D01*
X228397857Y-87456428D01*
X228469285Y-87599285D01*
X228469285Y-88027857D01*
X228397857Y-88170714D01*
X228326428Y-88242142D01*
X228183571Y-88313571D01*
X227969285Y-88313571D01*
X229112142Y-87313571D02*
X229112142Y-88813571D01*
X229112142Y-87385000D02*
X229255000Y-87313571D01*
X229540714Y-87313571D01*
X229683571Y-87385000D01*
X229755000Y-87456428D01*
X229826428Y-87599285D01*
X229826428Y-88027857D01*
X229755000Y-88170714D01*
X229683571Y-88242142D01*
X229540714Y-88313571D01*
X229255000Y-88313571D01*
X229112142Y-88242142D01*
X231540714Y-88242142D02*
X231755000Y-88313571D01*
X232112142Y-88313571D01*
X232255000Y-88242142D01*
X232326428Y-88170714D01*
X232397857Y-88027857D01*
X232397857Y-87885000D01*
X232326428Y-87742142D01*
X232255000Y-87670714D01*
X232112142Y-87599285D01*
X231826428Y-87527857D01*
X231683571Y-87456428D01*
X231612142Y-87385000D01*
X231540714Y-87242142D01*
X231540714Y-87099285D01*
X231612142Y-86956428D01*
X231683571Y-86885000D01*
X231826428Y-86813571D01*
X232183571Y-86813571D01*
X232397857Y-86885000D01*
X233040714Y-88313571D02*
X233040714Y-87313571D01*
X233040714Y-86813571D02*
X232969285Y-86885000D01*
X233040714Y-86956428D01*
X233112142Y-86885000D01*
X233040714Y-86813571D01*
X233040714Y-86956428D01*
X234397857Y-88313571D02*
X234397857Y-86813571D01*
X234397857Y-88242142D02*
X234255000Y-88313571D01*
X233969285Y-88313571D01*
X233826428Y-88242142D01*
X233755000Y-88170714D01*
X233683571Y-88027857D01*
X233683571Y-87599285D01*
X233755000Y-87456428D01*
X233826428Y-87385000D01*
X233969285Y-87313571D01*
X234255000Y-87313571D01*
X234397857Y-87385000D01*
X235683571Y-88242142D02*
X235540714Y-88313571D01*
X235255000Y-88313571D01*
X235112142Y-88242142D01*
X235040714Y-88099285D01*
X235040714Y-87527857D01*
X235112142Y-87385000D01*
X235255000Y-87313571D01*
X235540714Y-87313571D01*
X235683571Y-87385000D01*
X235755000Y-87527857D01*
X235755000Y-87670714D01*
X235040714Y-87813571D01*
X237469285Y-88242142D02*
X237683571Y-88313571D01*
X238040714Y-88313571D01*
X238183571Y-88242142D01*
X238255000Y-88170714D01*
X238326428Y-88027857D01*
X238326428Y-87885000D01*
X238255000Y-87742142D01*
X238183571Y-87670714D01*
X238040714Y-87599285D01*
X237755000Y-87527857D01*
X237612142Y-87456428D01*
X237540714Y-87385000D01*
X237469285Y-87242142D01*
X237469285Y-87099285D01*
X237540714Y-86956428D01*
X237612142Y-86885000D01*
X237755000Y-86813571D01*
X238112142Y-86813571D01*
X238326428Y-86885000D01*
X238969285Y-88313571D02*
X238969285Y-87313571D01*
X238969285Y-86813571D02*
X238897857Y-86885000D01*
X238969285Y-86956428D01*
X239040714Y-86885000D01*
X238969285Y-86813571D01*
X238969285Y-86956428D01*
X239897857Y-88313571D02*
X239755000Y-88242142D01*
X239683571Y-88099285D01*
X239683571Y-86813571D01*
X240469285Y-88313571D02*
X240469285Y-86813571D01*
X240612142Y-87742142D02*
X241040714Y-88313571D01*
X241040714Y-87313571D02*
X240469285Y-87885000D01*
X241612142Y-88242142D02*
X241755000Y-88313571D01*
X242040714Y-88313571D01*
X242183571Y-88242142D01*
X242255000Y-88099285D01*
X242255000Y-88027857D01*
X242183571Y-87885000D01*
X242040714Y-87813571D01*
X241826428Y-87813571D01*
X241683571Y-87742142D01*
X241612142Y-87599285D01*
X241612142Y-87527857D01*
X241683571Y-87385000D01*
X241826428Y-87313571D01*
X242040714Y-87313571D01*
X242183571Y-87385000D01*
X243540714Y-88242142D02*
X243397857Y-88313571D01*
X243112142Y-88313571D01*
X242969285Y-88242142D01*
X242897857Y-88170714D01*
X242826428Y-88027857D01*
X242826428Y-87599285D01*
X242897857Y-87456428D01*
X242969285Y-87385000D01*
X243112142Y-87313571D01*
X243397857Y-87313571D01*
X243540714Y-87385000D01*
X244183571Y-88313571D02*
X244183571Y-87313571D01*
X244183571Y-87599285D02*
X244255000Y-87456428D01*
X244326428Y-87385000D01*
X244469285Y-87313571D01*
X244612142Y-87313571D01*
X245683571Y-88242142D02*
X245540714Y-88313571D01*
X245255000Y-88313571D01*
X245112142Y-88242142D01*
X245040714Y-88099285D01*
X245040714Y-87527857D01*
X245112142Y-87385000D01*
X245255000Y-87313571D01*
X245540714Y-87313571D01*
X245683571Y-87385000D01*
X245755000Y-87527857D01*
X245755000Y-87670714D01*
X245040714Y-87813571D01*
X246969285Y-88242142D02*
X246826428Y-88313571D01*
X246540714Y-88313571D01*
X246397857Y-88242142D01*
X246326428Y-88099285D01*
X246326428Y-87527857D01*
X246397857Y-87385000D01*
X246540714Y-87313571D01*
X246826428Y-87313571D01*
X246969285Y-87385000D01*
X247040714Y-87527857D01*
X247040714Y-87670714D01*
X246326428Y-87813571D01*
X247683571Y-87313571D02*
X247683571Y-88313571D01*
X247683571Y-87456428D02*
X247755000Y-87385000D01*
X247897857Y-87313571D01*
X248112142Y-87313571D01*
X248255000Y-87385000D01*
X248326428Y-87527857D01*
X248326428Y-88313571D01*
X119139285Y-112364057D02*
X119353571Y-112435485D01*
X119425000Y-112506914D01*
X119496428Y-112649771D01*
X119496428Y-112864057D01*
X119425000Y-113006914D01*
X119353571Y-113078342D01*
X119210714Y-113149771D01*
X118639285Y-113149771D01*
X118639285Y-111649771D01*
X119139285Y-111649771D01*
X119282142Y-111721200D01*
X119353571Y-111792628D01*
X119425000Y-111935485D01*
X119425000Y-112078342D01*
X119353571Y-112221200D01*
X119282142Y-112292628D01*
X119139285Y-112364057D01*
X118639285Y-112364057D01*
X120782142Y-113149771D02*
X120782142Y-112364057D01*
X120710714Y-112221200D01*
X120567857Y-112149771D01*
X120282142Y-112149771D01*
X120139285Y-112221200D01*
X120782142Y-113078342D02*
X120639285Y-113149771D01*
X120282142Y-113149771D01*
X120139285Y-113078342D01*
X120067857Y-112935485D01*
X120067857Y-112792628D01*
X120139285Y-112649771D01*
X120282142Y-112578342D01*
X120639285Y-112578342D01*
X120782142Y-112506914D01*
X121282142Y-112149771D02*
X121853571Y-112149771D01*
X121496428Y-111649771D02*
X121496428Y-112935485D01*
X121567857Y-113078342D01*
X121710714Y-113149771D01*
X121853571Y-113149771D01*
X122139285Y-112149771D02*
X122710714Y-112149771D01*
X122353571Y-111649771D02*
X122353571Y-112935485D01*
X122425000Y-113078342D01*
X122567857Y-113149771D01*
X122710714Y-113149771D01*
X123210714Y-113149771D02*
X123210714Y-111649771D01*
X123782142Y-111649771D01*
X123925000Y-111721200D01*
X123996428Y-111792628D01*
X124067857Y-111935485D01*
X124067857Y-112149771D01*
X123996428Y-112292628D01*
X123925000Y-112364057D01*
X123782142Y-112435485D01*
X123210714Y-112435485D01*
X124710714Y-113149771D02*
X124710714Y-112149771D01*
X124710714Y-112435485D02*
X124782142Y-112292628D01*
X124853571Y-112221200D01*
X124996428Y-112149771D01*
X125139285Y-112149771D01*
X125853571Y-113149771D02*
X125710714Y-113078342D01*
X125639285Y-113006914D01*
X125567857Y-112864057D01*
X125567857Y-112435485D01*
X125639285Y-112292628D01*
X125710714Y-112221200D01*
X125853571Y-112149771D01*
X126067857Y-112149771D01*
X126210714Y-112221200D01*
X126282142Y-112292628D01*
X126353571Y-112435485D01*
X126353571Y-112864057D01*
X126282142Y-113006914D01*
X126210714Y-113078342D01*
X126067857Y-113149771D01*
X125853571Y-113149771D01*
X127639285Y-112149771D02*
X127639285Y-113364057D01*
X127567857Y-113506914D01*
X127496428Y-113578342D01*
X127353571Y-113649771D01*
X127139285Y-113649771D01*
X126996428Y-113578342D01*
X127639285Y-113078342D02*
X127496428Y-113149771D01*
X127210714Y-113149771D01*
X127067857Y-113078342D01*
X126996428Y-113006914D01*
X126925000Y-112864057D01*
X126925000Y-112435485D01*
X126996428Y-112292628D01*
X127067857Y-112221200D01*
X127210714Y-112149771D01*
X127496428Y-112149771D01*
X127639285Y-112221200D01*
X129425000Y-113078342D02*
X129639285Y-113149771D01*
X129996428Y-113149771D01*
X130139285Y-113078342D01*
X130210714Y-113006914D01*
X130282142Y-112864057D01*
X130282142Y-112721200D01*
X130210714Y-112578342D01*
X130139285Y-112506914D01*
X129996428Y-112435485D01*
X129710714Y-112364057D01*
X129567857Y-112292628D01*
X129496428Y-112221200D01*
X129425000Y-112078342D01*
X129425000Y-111935485D01*
X129496428Y-111792628D01*
X129567857Y-111721200D01*
X129710714Y-111649771D01*
X130067857Y-111649771D01*
X130282142Y-111721200D01*
X130925000Y-113149771D02*
X130925000Y-111649771D01*
X131567857Y-113149771D02*
X131567857Y-112364057D01*
X131496428Y-112221200D01*
X131353571Y-112149771D01*
X131139285Y-112149771D01*
X130996428Y-112221200D01*
X130925000Y-112292628D01*
X132282142Y-113149771D02*
X132282142Y-112149771D01*
X132282142Y-111649771D02*
X132210714Y-111721200D01*
X132282142Y-111792628D01*
X132353571Y-111721200D01*
X132282142Y-111649771D01*
X132282142Y-111792628D01*
X133567857Y-113078342D02*
X133425000Y-113149771D01*
X133139285Y-113149771D01*
X132996428Y-113078342D01*
X132925000Y-112935485D01*
X132925000Y-112364057D01*
X132996428Y-112221200D01*
X133139285Y-112149771D01*
X133425000Y-112149771D01*
X133567857Y-112221200D01*
X133639285Y-112364057D01*
X133639285Y-112506914D01*
X132925000Y-112649771D01*
X134496428Y-113149771D02*
X134353571Y-113078342D01*
X134282142Y-112935485D01*
X134282142Y-111649771D01*
X135710714Y-113149771D02*
X135710714Y-111649771D01*
X135710714Y-113078342D02*
X135567857Y-113149771D01*
X135282142Y-113149771D01*
X135139285Y-113078342D01*
X135067857Y-113006914D01*
X134996428Y-112864057D01*
X134996428Y-112435485D01*
X135067857Y-112292628D01*
X135139285Y-112221200D01*
X135282142Y-112149771D01*
X135567857Y-112149771D01*
X135710714Y-112221200D01*
X137353571Y-111649771D02*
X137853571Y-113149771D01*
X138353571Y-111649771D01*
X138782142Y-111792628D02*
X138853571Y-111721200D01*
X138996428Y-111649771D01*
X139353571Y-111649771D01*
X139496428Y-111721200D01*
X139567857Y-111792628D01*
X139639285Y-111935485D01*
X139639285Y-112078342D01*
X139567857Y-112292628D01*
X138710714Y-113149771D01*
X139639285Y-113149771D01*
X140282142Y-113006914D02*
X140353571Y-113078342D01*
X140282142Y-113149771D01*
X140210714Y-113078342D01*
X140282142Y-113006914D01*
X140282142Y-113149771D01*
X141639285Y-112149771D02*
X141639285Y-113149771D01*
X141282142Y-111578342D02*
X140925000Y-112649771D01*
X141853571Y-112649771D01*
D11*
X191711785Y-96485714D02*
X191940357Y-96561904D01*
X192016547Y-96638095D01*
X192092738Y-96790476D01*
X192092738Y-97019047D01*
X192016547Y-97171428D01*
X191940357Y-97247619D01*
X191787976Y-97323809D01*
X191178452Y-97323809D01*
X191178452Y-95723809D01*
X191711785Y-95723809D01*
X191864166Y-95800000D01*
X191940357Y-95876190D01*
X192016547Y-96028571D01*
X192016547Y-96180952D01*
X191940357Y-96333333D01*
X191864166Y-96409523D01*
X191711785Y-96485714D01*
X191178452Y-96485714D01*
X192778452Y-96714285D02*
X193997500Y-96714285D01*
X193387976Y-97323809D02*
X193387976Y-96104761D01*
X192092738Y-99721428D02*
X192016547Y-99797619D01*
X191787976Y-99873809D01*
X191635595Y-99873809D01*
X191407023Y-99797619D01*
X191254642Y-99645238D01*
X191178452Y-99492857D01*
X191102261Y-99188095D01*
X191102261Y-98959523D01*
X191178452Y-98654761D01*
X191254642Y-98502380D01*
X191407023Y-98350000D01*
X191635595Y-98273809D01*
X191787976Y-98273809D01*
X192016547Y-98350000D01*
X192092738Y-98426190D01*
X193540357Y-99873809D02*
X192778452Y-99873809D01*
X192778452Y-98273809D01*
X191178452Y-102423809D02*
X191178452Y-100823809D01*
X191559404Y-100823809D01*
X191787976Y-100900000D01*
X191940357Y-101052380D01*
X192016547Y-101204761D01*
X192092738Y-101509523D01*
X192092738Y-101738095D01*
X192016547Y-102042857D01*
X191940357Y-102195238D01*
X191787976Y-102347619D01*
X191559404Y-102423809D01*
X191178452Y-102423809D01*
X192702261Y-101966666D02*
X193464166Y-101966666D01*
X192549880Y-102423809D02*
X193083214Y-100823809D01*
X193616547Y-102423809D01*
X192016547Y-103450000D02*
X191864166Y-103373809D01*
X191635595Y-103373809D01*
X191407023Y-103450000D01*
X191254642Y-103602380D01*
X191178452Y-103754761D01*
X191102261Y-104059523D01*
X191102261Y-104288095D01*
X191178452Y-104592857D01*
X191254642Y-104745238D01*
X191407023Y-104897619D01*
X191635595Y-104973809D01*
X191787976Y-104973809D01*
X192016547Y-104897619D01*
X192092738Y-104821428D01*
X192092738Y-104288095D01*
X191787976Y-104288095D01*
X192778452Y-104973809D02*
X192778452Y-103373809D01*
X193692738Y-104973809D01*
X193692738Y-103373809D01*
X190949880Y-105923809D02*
X191864166Y-105923809D01*
X191407023Y-107523809D02*
X191407023Y-105923809D01*
X192397500Y-107523809D02*
X192397500Y-105923809D01*
X192397500Y-106685714D02*
X193311785Y-106685714D01*
X193311785Y-107523809D02*
X193311785Y-105923809D01*
X131770380Y-116300285D02*
X131770380Y-116871714D01*
X131770380Y-116586000D02*
X130770380Y-116586000D01*
X130913238Y-116681238D01*
X131008476Y-116776476D01*
X131056095Y-116871714D01*
D14*
X152000000Y-111900000D02*
X152350000Y-111900000D01*
X152000000Y-106500000D02*
X152350000Y-106500000D01*
X155600000Y-111900000D02*
X155200000Y-111900000D01*
X155600000Y-106500000D02*
X155200000Y-106500000D01*
X153941420Y-105250000D02*
G75*
G03X153941420Y-105250000I-141420J0D01*
G01*
X152000000Y-106500000D02*
X152000000Y-111900000D01*
X155600000Y-106500000D02*
X155600000Y-111900000D01*
X169700000Y-110800000D02*
X170050000Y-110800000D01*
X169700000Y-105400000D02*
X170050000Y-105400000D01*
X173300000Y-110800000D02*
X172900000Y-110800000D01*
X173300000Y-105400000D02*
X172900000Y-105400000D01*
X171641420Y-104150000D02*
G75*
G03X171641420Y-104150000I-141420J0D01*
G01*
X169700000Y-105400000D02*
X169700000Y-110800000D01*
X173300000Y-105400000D02*
X173300000Y-110800000D01*
X188400000Y-91200000D02*
X188750000Y-91200000D01*
X188400000Y-85800000D02*
X188750000Y-85800000D01*
X192000000Y-91200000D02*
X191600000Y-91200000D01*
X192000000Y-85800000D02*
X191600000Y-85800000D01*
X190341420Y-84550000D02*
G75*
G03X190341420Y-84550000I-141420J0D01*
G01*
X188400000Y-85800000D02*
X188400000Y-91200000D01*
X192000000Y-85800000D02*
X192000000Y-91200000D01*
D11*
X191236600Y-80543400D02*
X191236600Y-80797400D01*
X191236600Y-80797400D02*
X193522600Y-80797400D01*
X193522600Y-80797400D02*
X193522600Y-80543400D01*
X191236600Y-80543400D02*
X193522600Y-80543400D01*
X193522600Y-80543400D02*
X193522600Y-78892400D01*
X191236600Y-77114400D02*
X191236600Y-75463400D01*
X191236600Y-75463400D02*
X193522600Y-75463400D01*
X193522600Y-75463400D02*
X193522600Y-77114400D01*
X191236600Y-78892400D02*
X191236600Y-80543400D01*
X185089800Y-89077800D02*
X185089800Y-88823800D01*
X185089800Y-88823800D02*
X182803800Y-88823800D01*
X182803800Y-88823800D02*
X182803800Y-89077800D01*
X185089800Y-89077800D02*
X182803800Y-89077800D01*
X182803800Y-89077800D02*
X182803800Y-90728800D01*
X185089800Y-92506800D02*
X185089800Y-94157800D01*
X185089800Y-94157800D02*
X182803800Y-94157800D01*
X182803800Y-94157800D02*
X182803800Y-92506800D01*
X185089800Y-90728800D02*
X185089800Y-89077800D01*
D15*
X172537000Y-102350600D02*
X173467000Y-102350600D01*
X175697000Y-102350600D02*
X174767000Y-102350600D01*
X175697000Y-102350600D02*
X175697000Y-100190600D01*
X172537000Y-102350600D02*
X172537000Y-100890600D01*
X166705200Y-101302600D02*
X167635200Y-101302600D01*
X169865200Y-101302600D02*
X168935200Y-101302600D01*
X169865200Y-101302600D02*
X169865200Y-99142600D01*
X166705200Y-101302600D02*
X166705200Y-99842600D01*
D11*
X201168000Y-115316000D02*
X201168000Y-69596000D01*
X196088000Y-69596000D02*
X196088000Y-112776000D01*
X201168000Y-69596000D02*
X196088000Y-69596000D01*
X201168000Y-115316000D02*
X198628000Y-115316000D01*
X195808000Y-114046000D02*
X195808000Y-115596000D01*
X198628000Y-115316000D02*
X198628000Y-112776000D01*
X198628000Y-112776000D02*
X196088000Y-112776000D01*
X195808000Y-115596000D02*
X197358000Y-115596000D01*
X132588000Y-120396000D02*
X150368000Y-120396000D01*
X150368000Y-120396000D02*
X150368000Y-117856000D01*
X150368000Y-117856000D02*
X132588000Y-117856000D01*
X129768000Y-120676000D02*
X131318000Y-120676000D01*
X132588000Y-120396000D02*
X132588000Y-117856000D01*
X131318000Y-117576000D02*
X129768000Y-117576000D01*
X129768000Y-117576000D02*
X129768000Y-120676000D01*
X155448000Y-120396000D02*
X173228000Y-120396000D01*
X173228000Y-120396000D02*
X173228000Y-117856000D01*
X173228000Y-117856000D02*
X155448000Y-117856000D01*
X152628000Y-120676000D02*
X154178000Y-120676000D01*
X155448000Y-120396000D02*
X155448000Y-117856000D01*
X154178000Y-117576000D02*
X152628000Y-117576000D01*
X152628000Y-117576000D02*
X152628000Y-120676000D01*
X178308000Y-120396000D02*
X196088000Y-120396000D01*
X196088000Y-120396000D02*
X196088000Y-117856000D01*
X196088000Y-117856000D02*
X178308000Y-117856000D01*
X175488000Y-120676000D02*
X177038000Y-120676000D01*
X178308000Y-120396000D02*
X178308000Y-117856000D01*
X177038000Y-117576000D02*
X175488000Y-117576000D01*
X175488000Y-117576000D02*
X175488000Y-120676000D01*
X123444000Y-72136000D02*
X146304000Y-72136000D01*
X146304000Y-72136000D02*
X146304000Y-69596000D01*
X146304000Y-69596000D02*
X123444000Y-69596000D01*
X120624000Y-72416000D02*
X122174000Y-72416000D01*
X123444000Y-72136000D02*
X123444000Y-69596000D01*
X122174000Y-69316000D02*
X120624000Y-69316000D01*
X120624000Y-69316000D02*
X120624000Y-72416000D01*
X150368000Y-72136000D02*
X168148000Y-72136000D01*
X168148000Y-72136000D02*
X168148000Y-69596000D01*
X168148000Y-69596000D02*
X150368000Y-69596000D01*
X147548000Y-72416000D02*
X149098000Y-72416000D01*
X150368000Y-72136000D02*
X150368000Y-69596000D01*
X149098000Y-69316000D02*
X147548000Y-69316000D01*
X147548000Y-69316000D02*
X147548000Y-72416000D01*
X173228000Y-72136000D02*
X191008000Y-72136000D01*
X191008000Y-72136000D02*
X191008000Y-69596000D01*
X191008000Y-69596000D02*
X173228000Y-69596000D01*
X170408000Y-72416000D02*
X171958000Y-72416000D01*
X173228000Y-72136000D02*
X173228000Y-69596000D01*
X171958000Y-69316000D02*
X170408000Y-69316000D01*
X170408000Y-69316000D02*
X170408000Y-72416000D01*
D15*
X149871000Y-94021000D02*
X148071000Y-94021000D01*
X148071000Y-97241000D02*
X150521000Y-97241000D01*
D11*
X138811000Y-78994000D02*
X139573000Y-78994000D01*
X139573000Y-78994000D02*
X139573000Y-80518000D01*
X139573000Y-80518000D02*
X138811000Y-80518000D01*
X149987000Y-77470000D02*
X149987000Y-82042000D01*
X149987000Y-82042000D02*
X138811000Y-82042000D01*
X138811000Y-82042000D02*
X138811000Y-77470000D01*
X138811000Y-77470000D02*
X149987000Y-77470000D01*
X178816000Y-83820000D02*
X178816000Y-88646000D01*
X178816000Y-88646000D02*
X168656000Y-88646000D01*
X168656000Y-88646000D02*
X168656000Y-83820000D01*
X168656000Y-83820000D02*
X178816000Y-83820000D01*
X168656000Y-85598000D02*
X169291000Y-85598000D01*
X169291000Y-85598000D02*
X169291000Y-86868000D01*
X169291000Y-86868000D02*
X168656000Y-86868000D01*
X163322000Y-83693000D02*
X163322000Y-88519000D01*
X163322000Y-88519000D02*
X153162000Y-88519000D01*
X153162000Y-88519000D02*
X153162000Y-83693000D01*
X153162000Y-83693000D02*
X163322000Y-83693000D01*
X153162000Y-85471000D02*
X153797000Y-85471000D01*
X153797000Y-85471000D02*
X153797000Y-86741000D01*
X153797000Y-86741000D02*
X153162000Y-86741000D01*
X146050000Y-90424000D02*
X146050000Y-90678000D01*
X146050000Y-90678000D02*
X148336000Y-90678000D01*
X148336000Y-90678000D02*
X148336000Y-90424000D01*
X146050000Y-90424000D02*
X148336000Y-90424000D01*
X148336000Y-90424000D02*
X148336000Y-88773000D01*
X146050000Y-86995000D02*
X146050000Y-85344000D01*
X146050000Y-85344000D02*
X148336000Y-85344000D01*
X148336000Y-85344000D02*
X148336000Y-86995000D01*
X146050000Y-88773000D02*
X146050000Y-90424000D01*
X140081000Y-87757000D02*
X140335000Y-87757000D01*
X140335000Y-87757000D02*
X140335000Y-85471000D01*
X140335000Y-85471000D02*
X140081000Y-85471000D01*
X140081000Y-87757000D02*
X140081000Y-85471000D01*
X140081000Y-85471000D02*
X138430000Y-85471000D01*
X136652000Y-87757000D02*
X135001000Y-87757000D01*
X135001000Y-87757000D02*
X135001000Y-85471000D01*
X135001000Y-85471000D02*
X136652000Y-85471000D01*
X138430000Y-87757000D02*
X140081000Y-87757000D01*
X185801000Y-75438000D02*
X185801000Y-75184000D01*
X185801000Y-75184000D02*
X183515000Y-75184000D01*
X183515000Y-75184000D02*
X183515000Y-75438000D01*
X185801000Y-75438000D02*
X183515000Y-75438000D01*
X183515000Y-75438000D02*
X183515000Y-77089000D01*
X185801000Y-78867000D02*
X185801000Y-80518000D01*
X185801000Y-80518000D02*
X183515000Y-80518000D01*
X183515000Y-80518000D02*
X183515000Y-78867000D01*
X185801000Y-77089000D02*
X185801000Y-75438000D01*
X182499000Y-75438000D02*
X182499000Y-75184000D01*
X182499000Y-75184000D02*
X180213000Y-75184000D01*
X180213000Y-75184000D02*
X180213000Y-75438000D01*
X182499000Y-75438000D02*
X180213000Y-75438000D01*
X180213000Y-75438000D02*
X180213000Y-77089000D01*
X182499000Y-78867000D02*
X182499000Y-80518000D01*
X182499000Y-80518000D02*
X180213000Y-80518000D01*
X180213000Y-80518000D02*
X180213000Y-78867000D01*
X182499000Y-77089000D02*
X182499000Y-75438000D01*
X153543000Y-96647000D02*
X153543000Y-96901000D01*
X153543000Y-96901000D02*
X155829000Y-96901000D01*
X155829000Y-96901000D02*
X155829000Y-96647000D01*
X153543000Y-96647000D02*
X155829000Y-96647000D01*
X155829000Y-96647000D02*
X155829000Y-94996000D01*
X153543000Y-93218000D02*
X153543000Y-91567000D01*
X153543000Y-91567000D02*
X155829000Y-91567000D01*
X155829000Y-91567000D02*
X155829000Y-93218000D01*
X153543000Y-94996000D02*
X153543000Y-96647000D01*
X163195000Y-75819000D02*
X163195000Y-75565000D01*
X163195000Y-75565000D02*
X160909000Y-75565000D01*
X160909000Y-75565000D02*
X160909000Y-75819000D01*
X163195000Y-75819000D02*
X160909000Y-75819000D01*
X160909000Y-75819000D02*
X160909000Y-77470000D01*
X163195000Y-79248000D02*
X163195000Y-80899000D01*
X163195000Y-80899000D02*
X160909000Y-80899000D01*
X160909000Y-80899000D02*
X160909000Y-79248000D01*
X163195000Y-77470000D02*
X163195000Y-75819000D01*
X189230000Y-75311000D02*
X189230000Y-75057000D01*
X189230000Y-75057000D02*
X186944000Y-75057000D01*
X186944000Y-75057000D02*
X186944000Y-75311000D01*
X189230000Y-75311000D02*
X186944000Y-75311000D01*
X186944000Y-75311000D02*
X186944000Y-76962000D01*
X189230000Y-78740000D02*
X189230000Y-80391000D01*
X189230000Y-80391000D02*
X186944000Y-80391000D01*
X186944000Y-80391000D02*
X186944000Y-78740000D01*
X189230000Y-76962000D02*
X189230000Y-75311000D01*
X157861000Y-96647000D02*
X157861000Y-96901000D01*
X157861000Y-96901000D02*
X160147000Y-96901000D01*
X160147000Y-96901000D02*
X160147000Y-96647000D01*
X157861000Y-96647000D02*
X160147000Y-96647000D01*
X160147000Y-96647000D02*
X160147000Y-94996000D01*
X157861000Y-93218000D02*
X157861000Y-91567000D01*
X157861000Y-91567000D02*
X160147000Y-91567000D01*
X160147000Y-91567000D02*
X160147000Y-93218000D01*
X157861000Y-94996000D02*
X157861000Y-96647000D01*
X144018000Y-85471000D02*
X144018000Y-85217000D01*
X144018000Y-85217000D02*
X141732000Y-85217000D01*
X141732000Y-85217000D02*
X141732000Y-85471000D01*
X144018000Y-85471000D02*
X141732000Y-85471000D01*
X141732000Y-85471000D02*
X141732000Y-87122000D01*
X144018000Y-88900000D02*
X144018000Y-90551000D01*
X144018000Y-90551000D02*
X141732000Y-90551000D01*
X141732000Y-90551000D02*
X141732000Y-88900000D01*
X144018000Y-87122000D02*
X144018000Y-85471000D01*
X178181000Y-75565000D02*
X178181000Y-75311000D01*
X178181000Y-75311000D02*
X175895000Y-75311000D01*
X175895000Y-75311000D02*
X175895000Y-75565000D01*
X178181000Y-75565000D02*
X175895000Y-75565000D01*
X175895000Y-75565000D02*
X175895000Y-77216000D01*
X178181000Y-78994000D02*
X178181000Y-80645000D01*
X178181000Y-80645000D02*
X175895000Y-80645000D01*
X175895000Y-80645000D02*
X175895000Y-78994000D01*
X178181000Y-77216000D02*
X178181000Y-75565000D01*
X158623000Y-75819000D02*
X158623000Y-75565000D01*
X158623000Y-75565000D02*
X156337000Y-75565000D01*
X156337000Y-75565000D02*
X156337000Y-75819000D01*
X158623000Y-75819000D02*
X156337000Y-75819000D01*
X156337000Y-75819000D02*
X156337000Y-77470000D01*
X158623000Y-79248000D02*
X158623000Y-80899000D01*
X158623000Y-80899000D02*
X156337000Y-80899000D01*
X156337000Y-80899000D02*
X156337000Y-79248000D01*
X158623000Y-77470000D02*
X158623000Y-75819000D01*
D15*
X131276000Y-100845000D02*
X131276000Y-101345000D01*
X131276000Y-98345000D02*
X131276000Y-98845000D01*
X131276000Y-90845000D02*
X131276000Y-91345000D01*
X131276000Y-88345000D02*
X131276000Y-88845000D01*
X131276000Y-85945000D02*
X131276000Y-86345000D01*
X131276000Y-80845000D02*
X131276000Y-82245000D01*
X110676000Y-78945000D02*
X131276000Y-78945000D01*
X111876000Y-107845000D02*
X131276000Y-107845000D01*
X131276000Y-107845000D02*
X131276000Y-103345000D01*
X101476000Y-107845000D02*
X101476000Y-78945000D01*
X101476000Y-78945000D02*
X107476000Y-78945000D01*
X101476000Y-107845000D02*
X108676000Y-107845000D01*
D11*
X138938000Y-96774000D02*
X139192000Y-96774000D01*
X139192000Y-96774000D02*
X139192000Y-94488000D01*
X139192000Y-94488000D02*
X138938000Y-94488000D01*
X138938000Y-96774000D02*
X138938000Y-94488000D01*
X138938000Y-94488000D02*
X137287000Y-94488000D01*
X135509000Y-96774000D02*
X133858000Y-96774000D01*
X133858000Y-96774000D02*
X133858000Y-94488000D01*
X133858000Y-94488000D02*
X135509000Y-94488000D01*
X137287000Y-96774000D02*
X138938000Y-96774000D01*
X151384000Y-104394000D02*
X151384000Y-104648000D01*
X151384000Y-104648000D02*
X153670000Y-104648000D01*
X153670000Y-104648000D02*
X153670000Y-104394000D01*
X151384000Y-104394000D02*
X153670000Y-104394000D01*
X153670000Y-104394000D02*
X153670000Y-102743000D01*
X151384000Y-100965000D02*
X151384000Y-99314000D01*
X151384000Y-99314000D02*
X153670000Y-99314000D01*
X153670000Y-99314000D02*
X153670000Y-100965000D01*
X151384000Y-102743000D02*
X151384000Y-104394000D01*
D15*
X143648000Y-94021000D02*
X141848000Y-94021000D01*
X141848000Y-97241000D02*
X144298000Y-97241000D01*
D11*
X181991000Y-105410000D02*
X181991000Y-110490000D01*
X181991000Y-110490000D02*
X177419000Y-110490000D01*
X177419000Y-110490000D02*
X177419000Y-105410000D01*
X177419000Y-105410000D02*
X181991000Y-105410000D01*
X180467000Y-105410000D02*
X180467000Y-105918000D01*
X180467000Y-105918000D02*
X179197000Y-105918000D01*
X179197000Y-105918000D02*
X179197000Y-105410000D01*
D15*
X183982000Y-102500000D02*
X183982000Y-100700000D01*
X180762000Y-100700000D02*
X180762000Y-103150000D01*
D11*
X189989000Y-111943000D02*
X191640000Y-111943000D01*
X186560000Y-109657000D02*
X188211000Y-109657000D01*
X186560000Y-111943000D02*
X186560000Y-109657000D01*
X188211000Y-111943000D02*
X186560000Y-111943000D01*
X191640000Y-109657000D02*
X189989000Y-109657000D01*
X191640000Y-111943000D02*
X191640000Y-109657000D01*
X191894000Y-109657000D02*
X191640000Y-109657000D01*
X191894000Y-111943000D02*
X191894000Y-109657000D01*
X191640000Y-111943000D02*
X191894000Y-111943000D01*
X177393600Y-95986600D02*
X177647600Y-95986600D01*
X177647600Y-95986600D02*
X177647600Y-93700600D01*
X177647600Y-93700600D02*
X177393600Y-93700600D01*
X177393600Y-95986600D02*
X177393600Y-93700600D01*
X177393600Y-93700600D02*
X175742600Y-93700600D01*
X173964600Y-95986600D02*
X172313600Y-95986600D01*
X172313600Y-95986600D02*
X172313600Y-93700600D01*
X172313600Y-93700600D02*
X173964600Y-93700600D01*
X175742600Y-95986600D02*
X177393600Y-95986600D01*
X148996400Y-116408200D02*
X150647400Y-116408200D01*
X145567400Y-114122200D02*
X147218400Y-114122200D01*
X145567400Y-116408200D02*
X145567400Y-114122200D01*
X147218400Y-116408200D02*
X145567400Y-116408200D01*
X150647400Y-114122200D02*
X148996400Y-114122200D01*
X150647400Y-116408200D02*
X150647400Y-114122200D01*
X150901400Y-114122200D02*
X150647400Y-114122200D01*
X150901400Y-116408200D02*
X150901400Y-114122200D01*
X150647400Y-116408200D02*
X150901400Y-116408200D01*
X150647400Y-113233200D02*
X150901400Y-113233200D01*
X150901400Y-113233200D02*
X150901400Y-110947200D01*
X150901400Y-110947200D02*
X150647400Y-110947200D01*
X150647400Y-113233200D02*
X150647400Y-110947200D01*
X150647400Y-110947200D02*
X148996400Y-110947200D01*
X147218400Y-113233200D02*
X145567400Y-113233200D01*
X145567400Y-113233200D02*
X145567400Y-110947200D01*
X145567400Y-110947200D02*
X147218400Y-110947200D01*
X148996400Y-113233200D02*
X150647400Y-113233200D01*
X154101800Y-114122200D02*
X152450800Y-114122200D01*
X157530800Y-116408200D02*
X155879800Y-116408200D01*
X157530800Y-114122200D02*
X157530800Y-116408200D01*
X155879800Y-114122200D02*
X157530800Y-114122200D01*
X152450800Y-116408200D02*
X154101800Y-116408200D01*
X152450800Y-114122200D02*
X152450800Y-116408200D01*
X152196800Y-116408200D02*
X152450800Y-116408200D01*
X152196800Y-114122200D02*
X152196800Y-116408200D01*
X152450800Y-114122200D02*
X152196800Y-114122200D01*
D15*
X190030000Y-108130000D02*
X188700000Y-108130000D01*
X190030000Y-106800000D02*
X190030000Y-108130000D01*
X190030000Y-105530000D02*
X187370000Y-105530000D01*
X187370000Y-105530000D02*
X187370000Y-95310000D01*
X190030000Y-105530000D02*
X190030000Y-95310000D01*
X190030000Y-95310000D02*
X187370000Y-95310000D01*
D11*
X188411000Y-112957000D02*
X186760000Y-112957000D01*
X191840000Y-115243000D02*
X190189000Y-115243000D01*
X191840000Y-112957000D02*
X191840000Y-115243000D01*
X190189000Y-112957000D02*
X191840000Y-112957000D01*
X186760000Y-115243000D02*
X188411000Y-115243000D01*
X186760000Y-112957000D02*
X186760000Y-115243000D01*
X186506000Y-115243000D02*
X186760000Y-115243000D01*
X186506000Y-112957000D02*
X186506000Y-115243000D01*
X186760000Y-112957000D02*
X186506000Y-112957000D01*
X156567104Y-111567180D02*
X156567104Y-110567180D01*
X156805200Y-110567180D01*
X156948057Y-110614800D01*
X157043295Y-110710038D01*
X157090914Y-110805276D01*
X157138533Y-110995752D01*
X157138533Y-111138609D01*
X157090914Y-111329085D01*
X157043295Y-111424323D01*
X156948057Y-111519561D01*
X156805200Y-111567180D01*
X156567104Y-111567180D01*
X157471866Y-110567180D02*
X158090914Y-110567180D01*
X157757580Y-110948133D01*
X157900438Y-110948133D01*
X157995676Y-110995752D01*
X158043295Y-111043371D01*
X158090914Y-111138609D01*
X158090914Y-111376704D01*
X158043295Y-111471942D01*
X157995676Y-111519561D01*
X157900438Y-111567180D01*
X157614723Y-111567180D01*
X157519485Y-111519561D01*
X157471866Y-111471942D01*
X174061904Y-108552380D02*
X174061904Y-107552380D01*
X174300000Y-107552380D01*
X174442857Y-107600000D01*
X174538095Y-107695238D01*
X174585714Y-107790476D01*
X174633333Y-107980952D01*
X174633333Y-108123809D01*
X174585714Y-108314285D01*
X174538095Y-108409523D01*
X174442857Y-108504761D01*
X174300000Y-108552380D01*
X174061904Y-108552380D01*
X175490476Y-107885714D02*
X175490476Y-108552380D01*
X175252380Y-107504761D02*
X175014285Y-108219047D01*
X175633333Y-108219047D01*
X189487304Y-93330980D02*
X189487304Y-92330980D01*
X189725400Y-92330980D01*
X189868257Y-92378600D01*
X189963495Y-92473838D01*
X190011114Y-92569076D01*
X190058733Y-92759552D01*
X190058733Y-92902409D01*
X190011114Y-93092885D01*
X189963495Y-93188123D01*
X189868257Y-93283361D01*
X189725400Y-93330980D01*
X189487304Y-93330980D01*
X191011114Y-93330980D02*
X190439685Y-93330980D01*
X190725400Y-93330980D02*
X190725400Y-92330980D01*
X190630161Y-92473838D01*
X190534923Y-92569076D01*
X190439685Y-92616695D01*
X191711342Y-82240380D02*
X191378009Y-81764190D01*
X191139914Y-82240380D02*
X191139914Y-81240380D01*
X191520866Y-81240380D01*
X191616104Y-81288000D01*
X191663723Y-81335619D01*
X191711342Y-81430857D01*
X191711342Y-81573714D01*
X191663723Y-81668952D01*
X191616104Y-81716571D01*
X191520866Y-81764190D01*
X191139914Y-81764190D01*
X192663723Y-82240380D02*
X192092295Y-82240380D01*
X192378009Y-82240380D02*
X192378009Y-81240380D01*
X192282771Y-81383238D01*
X192187533Y-81478476D01*
X192092295Y-81526095D01*
X193568485Y-81240380D02*
X193092295Y-81240380D01*
X193044676Y-81716571D01*
X193092295Y-81668952D01*
X193187533Y-81621333D01*
X193425628Y-81621333D01*
X193520866Y-81668952D01*
X193568485Y-81716571D01*
X193616104Y-81811809D01*
X193616104Y-82049904D01*
X193568485Y-82145142D01*
X193520866Y-82192761D01*
X193425628Y-82240380D01*
X193187533Y-82240380D01*
X193092295Y-82192761D01*
X193044676Y-82145142D01*
X186123342Y-93949780D02*
X185790009Y-93473590D01*
X185551914Y-93949780D02*
X185551914Y-92949780D01*
X185932866Y-92949780D01*
X186028104Y-92997400D01*
X186075723Y-93045019D01*
X186123342Y-93140257D01*
X186123342Y-93283114D01*
X186075723Y-93378352D01*
X186028104Y-93425971D01*
X185932866Y-93473590D01*
X185551914Y-93473590D01*
X187075723Y-93949780D02*
X186504295Y-93949780D01*
X186790009Y-93949780D02*
X186790009Y-92949780D01*
X186694771Y-93092638D01*
X186599533Y-93187876D01*
X186504295Y-93235495D01*
X187409057Y-92949780D02*
X188028104Y-92949780D01*
X187694771Y-93330733D01*
X187837628Y-93330733D01*
X187932866Y-93378352D01*
X187980485Y-93425971D01*
X188028104Y-93521209D01*
X188028104Y-93759304D01*
X187980485Y-93854542D01*
X187932866Y-93902161D01*
X187837628Y-93949780D01*
X187551914Y-93949780D01*
X187456676Y-93902161D01*
X187409057Y-93854542D01*
X176764961Y-101157019D02*
X176669723Y-101109400D01*
X176574485Y-101014161D01*
X176431628Y-100871304D01*
X176336390Y-100823685D01*
X176241152Y-100823685D01*
X176288771Y-101061780D02*
X176193533Y-101014161D01*
X176098295Y-100918923D01*
X176050676Y-100728447D01*
X176050676Y-100395114D01*
X176098295Y-100204638D01*
X176193533Y-100109400D01*
X176288771Y-100061780D01*
X176479247Y-100061780D01*
X176574485Y-100109400D01*
X176669723Y-100204638D01*
X176717342Y-100395114D01*
X176717342Y-100728447D01*
X176669723Y-100918923D01*
X176574485Y-101014161D01*
X176479247Y-101061780D01*
X176288771Y-101061780D01*
X177574485Y-100395114D02*
X177574485Y-101061780D01*
X177336390Y-100014161D02*
X177098295Y-100728447D01*
X177717342Y-100728447D01*
X165436561Y-100801419D02*
X165341323Y-100753800D01*
X165246085Y-100658561D01*
X165103228Y-100515704D01*
X165007990Y-100468085D01*
X164912752Y-100468085D01*
X164960371Y-100706180D02*
X164865133Y-100658561D01*
X164769895Y-100563323D01*
X164722276Y-100372847D01*
X164722276Y-100039514D01*
X164769895Y-99849038D01*
X164865133Y-99753800D01*
X164960371Y-99706180D01*
X165150847Y-99706180D01*
X165246085Y-99753800D01*
X165341323Y-99849038D01*
X165388942Y-100039514D01*
X165388942Y-100372847D01*
X165341323Y-100563323D01*
X165246085Y-100658561D01*
X165150847Y-100706180D01*
X164960371Y-100706180D01*
X165722276Y-99706180D02*
X166341323Y-99706180D01*
X166007990Y-100087133D01*
X166150847Y-100087133D01*
X166246085Y-100134752D01*
X166293704Y-100182371D01*
X166341323Y-100277609D01*
X166341323Y-100515704D01*
X166293704Y-100610942D01*
X166246085Y-100658561D01*
X166150847Y-100706180D01*
X165865133Y-100706180D01*
X165769895Y-100658561D01*
X165722276Y-100610942D01*
X195016380Y-93194095D02*
X194016380Y-93194095D01*
X194016380Y-92813142D01*
X194064000Y-92717904D01*
X194111619Y-92670285D01*
X194206857Y-92622666D01*
X194349714Y-92622666D01*
X194444952Y-92670285D01*
X194492571Y-92717904D01*
X194540190Y-92813142D01*
X194540190Y-93194095D01*
X195016380Y-91670285D02*
X195016380Y-92241714D01*
X195016380Y-91956000D02*
X194016380Y-91956000D01*
X194159238Y-92051238D01*
X194254476Y-92146476D01*
X194302095Y-92241714D01*
X139469904Y-116784380D02*
X139469904Y-115784380D01*
X139850857Y-115784380D01*
X139946095Y-115832000D01*
X139993714Y-115879619D01*
X140041333Y-115974857D01*
X140041333Y-116117714D01*
X139993714Y-116212952D01*
X139946095Y-116260571D01*
X139850857Y-116308190D01*
X139469904Y-116308190D01*
X140422285Y-115879619D02*
X140469904Y-115832000D01*
X140565142Y-115784380D01*
X140803238Y-115784380D01*
X140898476Y-115832000D01*
X140946095Y-115879619D01*
X140993714Y-115974857D01*
X140993714Y-116070095D01*
X140946095Y-116212952D01*
X140374666Y-116784380D01*
X140993714Y-116784380D01*
X162329904Y-117038380D02*
X162329904Y-116038380D01*
X162710857Y-116038380D01*
X162806095Y-116086000D01*
X162853714Y-116133619D01*
X162901333Y-116228857D01*
X162901333Y-116371714D01*
X162853714Y-116466952D01*
X162806095Y-116514571D01*
X162710857Y-116562190D01*
X162329904Y-116562190D01*
X163234666Y-116038380D02*
X163853714Y-116038380D01*
X163520380Y-116419333D01*
X163663238Y-116419333D01*
X163758476Y-116466952D01*
X163806095Y-116514571D01*
X163853714Y-116609809D01*
X163853714Y-116847904D01*
X163806095Y-116943142D01*
X163758476Y-116990761D01*
X163663238Y-117038380D01*
X163377523Y-117038380D01*
X163282285Y-116990761D01*
X163234666Y-116943142D01*
X185189904Y-116784380D02*
X185189904Y-115784380D01*
X185570857Y-115784380D01*
X185666095Y-115832000D01*
X185713714Y-115879619D01*
X185761333Y-115974857D01*
X185761333Y-116117714D01*
X185713714Y-116212952D01*
X185666095Y-116260571D01*
X185570857Y-116308190D01*
X185189904Y-116308190D01*
X186618476Y-116117714D02*
X186618476Y-116784380D01*
X186380380Y-115736761D02*
X186142285Y-116451047D01*
X186761333Y-116451047D01*
X132865904Y-74112380D02*
X132865904Y-73112380D01*
X133246857Y-73112380D01*
X133342095Y-73160000D01*
X133389714Y-73207619D01*
X133437333Y-73302857D01*
X133437333Y-73445714D01*
X133389714Y-73540952D01*
X133342095Y-73588571D01*
X133246857Y-73636190D01*
X132865904Y-73636190D01*
X134342095Y-73112380D02*
X133865904Y-73112380D01*
X133818285Y-73588571D01*
X133865904Y-73540952D01*
X133961142Y-73493333D01*
X134199238Y-73493333D01*
X134294476Y-73540952D01*
X134342095Y-73588571D01*
X134389714Y-73683809D01*
X134389714Y-73921904D01*
X134342095Y-74017142D01*
X134294476Y-74064761D01*
X134199238Y-74112380D01*
X133961142Y-74112380D01*
X133865904Y-74064761D01*
X133818285Y-74017142D01*
X157249904Y-74112380D02*
X157249904Y-73112380D01*
X157630857Y-73112380D01*
X157726095Y-73160000D01*
X157773714Y-73207619D01*
X157821333Y-73302857D01*
X157821333Y-73445714D01*
X157773714Y-73540952D01*
X157726095Y-73588571D01*
X157630857Y-73636190D01*
X157249904Y-73636190D01*
X158678476Y-73112380D02*
X158488000Y-73112380D01*
X158392761Y-73160000D01*
X158345142Y-73207619D01*
X158249904Y-73350476D01*
X158202285Y-73540952D01*
X158202285Y-73921904D01*
X158249904Y-74017142D01*
X158297523Y-74064761D01*
X158392761Y-74112380D01*
X158583238Y-74112380D01*
X158678476Y-74064761D01*
X158726095Y-74017142D01*
X158773714Y-73921904D01*
X158773714Y-73683809D01*
X158726095Y-73588571D01*
X158678476Y-73540952D01*
X158583238Y-73493333D01*
X158392761Y-73493333D01*
X158297523Y-73540952D01*
X158249904Y-73588571D01*
X158202285Y-73683809D01*
X191870104Y-71546980D02*
X191870104Y-70546980D01*
X192251057Y-70546980D01*
X192346295Y-70594600D01*
X192393914Y-70642219D01*
X192441533Y-70737457D01*
X192441533Y-70880314D01*
X192393914Y-70975552D01*
X192346295Y-71023171D01*
X192251057Y-71070790D01*
X191870104Y-71070790D01*
X192774866Y-70546980D02*
X193441533Y-70546980D01*
X193012961Y-71546980D01*
X148209095Y-97983380D02*
X148209095Y-98792904D01*
X148256714Y-98888142D01*
X148304333Y-98935761D01*
X148399571Y-98983380D01*
X148590047Y-98983380D01*
X148685285Y-98935761D01*
X148732904Y-98888142D01*
X148780523Y-98792904D01*
X148780523Y-97983380D01*
X149161476Y-97983380D02*
X149780523Y-97983380D01*
X149447190Y-98364333D01*
X149590047Y-98364333D01*
X149685285Y-98411952D01*
X149732904Y-98459571D01*
X149780523Y-98554809D01*
X149780523Y-98792904D01*
X149732904Y-98888142D01*
X149685285Y-98935761D01*
X149590047Y-98983380D01*
X149304333Y-98983380D01*
X149209095Y-98935761D01*
X149161476Y-98888142D01*
X141732095Y-74001380D02*
X141732095Y-74810904D01*
X141779714Y-74906142D01*
X141827333Y-74953761D01*
X141922571Y-75001380D01*
X142113047Y-75001380D01*
X142208285Y-74953761D01*
X142255904Y-74906142D01*
X142303523Y-74810904D01*
X142303523Y-74001380D01*
X143208285Y-74334714D02*
X143208285Y-75001380D01*
X142970190Y-73953761D02*
X142732095Y-74668047D01*
X143351142Y-74668047D01*
X179705095Y-83272380D02*
X179705095Y-84081904D01*
X179752714Y-84177142D01*
X179800333Y-84224761D01*
X179895571Y-84272380D01*
X180086047Y-84272380D01*
X180181285Y-84224761D01*
X180228904Y-84177142D01*
X180276523Y-84081904D01*
X180276523Y-83272380D01*
X181276523Y-84272380D02*
X180705095Y-84272380D01*
X180990809Y-84272380D02*
X180990809Y-83272380D01*
X180895571Y-83415238D01*
X180800333Y-83510476D01*
X180705095Y-83558095D01*
X150876095Y-85177380D02*
X150876095Y-85986904D01*
X150923714Y-86082142D01*
X150971333Y-86129761D01*
X151066571Y-86177380D01*
X151257047Y-86177380D01*
X151352285Y-86129761D01*
X151399904Y-86082142D01*
X151447523Y-85986904D01*
X151447523Y-85177380D01*
X151876095Y-85272619D02*
X151923714Y-85225000D01*
X152018952Y-85177380D01*
X152257047Y-85177380D01*
X152352285Y-85225000D01*
X152399904Y-85272619D01*
X152447523Y-85367857D01*
X152447523Y-85463095D01*
X152399904Y-85605952D01*
X151828476Y-86177380D01*
X152447523Y-86177380D01*
X149312333Y-88717380D02*
X148979000Y-88241190D01*
X148740904Y-88717380D02*
X148740904Y-87717380D01*
X149121857Y-87717380D01*
X149217095Y-87765000D01*
X149264714Y-87812619D01*
X149312333Y-87907857D01*
X149312333Y-88050714D01*
X149264714Y-88145952D01*
X149217095Y-88193571D01*
X149121857Y-88241190D01*
X148740904Y-88241190D01*
X150264714Y-88717380D02*
X149693285Y-88717380D01*
X149979000Y-88717380D02*
X149979000Y-87717380D01*
X149883761Y-87860238D01*
X149788523Y-87955476D01*
X149693285Y-88003095D01*
X137323533Y-84983580D02*
X136990200Y-84507390D01*
X136752104Y-84983580D02*
X136752104Y-83983580D01*
X137133057Y-83983580D01*
X137228295Y-84031200D01*
X137275914Y-84078819D01*
X137323533Y-84174057D01*
X137323533Y-84316914D01*
X137275914Y-84412152D01*
X137228295Y-84459771D01*
X137133057Y-84507390D01*
X136752104Y-84507390D01*
X138180676Y-84316914D02*
X138180676Y-84983580D01*
X137942580Y-83935961D02*
X137704485Y-84650247D01*
X138323533Y-84650247D01*
X184389733Y-74823580D02*
X184056400Y-74347390D01*
X183818304Y-74823580D02*
X183818304Y-73823580D01*
X184199257Y-73823580D01*
X184294495Y-73871200D01*
X184342114Y-73918819D01*
X184389733Y-74014057D01*
X184389733Y-74156914D01*
X184342114Y-74252152D01*
X184294495Y-74299771D01*
X184199257Y-74347390D01*
X183818304Y-74347390D01*
X185294495Y-73823580D02*
X184818304Y-73823580D01*
X184770685Y-74299771D01*
X184818304Y-74252152D01*
X184913542Y-74204533D01*
X185151638Y-74204533D01*
X185246876Y-74252152D01*
X185294495Y-74299771D01*
X185342114Y-74395009D01*
X185342114Y-74633104D01*
X185294495Y-74728342D01*
X185246876Y-74775961D01*
X185151638Y-74823580D01*
X184913542Y-74823580D01*
X184818304Y-74775961D01*
X184770685Y-74728342D01*
X181138533Y-74823580D02*
X180805200Y-74347390D01*
X180567104Y-74823580D02*
X180567104Y-73823580D01*
X180948057Y-73823580D01*
X181043295Y-73871200D01*
X181090914Y-73918819D01*
X181138533Y-74014057D01*
X181138533Y-74156914D01*
X181090914Y-74252152D01*
X181043295Y-74299771D01*
X180948057Y-74347390D01*
X180567104Y-74347390D01*
X181995676Y-73823580D02*
X181805200Y-73823580D01*
X181709961Y-73871200D01*
X181662342Y-73918819D01*
X181567104Y-74061676D01*
X181519485Y-74252152D01*
X181519485Y-74633104D01*
X181567104Y-74728342D01*
X181614723Y-74775961D01*
X181709961Y-74823580D01*
X181900438Y-74823580D01*
X181995676Y-74775961D01*
X182043295Y-74728342D01*
X182090914Y-74633104D01*
X182090914Y-74395009D01*
X182043295Y-74299771D01*
X181995676Y-74252152D01*
X181900438Y-74204533D01*
X181709961Y-74204533D01*
X181614723Y-74252152D01*
X181567104Y-74299771D01*
X181519485Y-74395009D01*
X156652933Y-94686380D02*
X156319600Y-94210190D01*
X156081504Y-94686380D02*
X156081504Y-93686380D01*
X156462457Y-93686380D01*
X156557695Y-93734000D01*
X156605314Y-93781619D01*
X156652933Y-93876857D01*
X156652933Y-94019714D01*
X156605314Y-94114952D01*
X156557695Y-94162571D01*
X156462457Y-94210190D01*
X156081504Y-94210190D01*
X156986266Y-93686380D02*
X157652933Y-93686380D01*
X157224361Y-94686380D01*
X161885333Y-75128380D02*
X161552000Y-74652190D01*
X161313904Y-75128380D02*
X161313904Y-74128380D01*
X161694857Y-74128380D01*
X161790095Y-74176000D01*
X161837714Y-74223619D01*
X161885333Y-74318857D01*
X161885333Y-74461714D01*
X161837714Y-74556952D01*
X161790095Y-74604571D01*
X161694857Y-74652190D01*
X161313904Y-74652190D01*
X162456761Y-74556952D02*
X162361523Y-74509333D01*
X162313904Y-74461714D01*
X162266285Y-74366476D01*
X162266285Y-74318857D01*
X162313904Y-74223619D01*
X162361523Y-74176000D01*
X162456761Y-74128380D01*
X162647238Y-74128380D01*
X162742476Y-74176000D01*
X162790095Y-74223619D01*
X162837714Y-74318857D01*
X162837714Y-74366476D01*
X162790095Y-74461714D01*
X162742476Y-74509333D01*
X162647238Y-74556952D01*
X162456761Y-74556952D01*
X162361523Y-74604571D01*
X162313904Y-74652190D01*
X162266285Y-74747428D01*
X162266285Y-74937904D01*
X162313904Y-75033142D01*
X162361523Y-75080761D01*
X162456761Y-75128380D01*
X162647238Y-75128380D01*
X162742476Y-75080761D01*
X162790095Y-75033142D01*
X162837714Y-74937904D01*
X162837714Y-74747428D01*
X162790095Y-74652190D01*
X162742476Y-74604571D01*
X162647238Y-74556952D01*
X187894933Y-74696580D02*
X187561600Y-74220390D01*
X187323504Y-74696580D02*
X187323504Y-73696580D01*
X187704457Y-73696580D01*
X187799695Y-73744200D01*
X187847314Y-73791819D01*
X187894933Y-73887057D01*
X187894933Y-74029914D01*
X187847314Y-74125152D01*
X187799695Y-74172771D01*
X187704457Y-74220390D01*
X187323504Y-74220390D01*
X188371123Y-74696580D02*
X188561600Y-74696580D01*
X188656838Y-74648961D01*
X188704457Y-74601342D01*
X188799695Y-74458485D01*
X188847314Y-74268009D01*
X188847314Y-73887057D01*
X188799695Y-73791819D01*
X188752076Y-73744200D01*
X188656838Y-73696580D01*
X188466361Y-73696580D01*
X188371123Y-73744200D01*
X188323504Y-73791819D01*
X188275885Y-73887057D01*
X188275885Y-74125152D01*
X188323504Y-74220390D01*
X188371123Y-74268009D01*
X188466361Y-74315628D01*
X188656838Y-74315628D01*
X188752076Y-74268009D01*
X188799695Y-74220390D01*
X188847314Y-74125152D01*
X161282142Y-94559380D02*
X160948809Y-94083190D01*
X160710714Y-94559380D02*
X160710714Y-93559380D01*
X161091666Y-93559380D01*
X161186904Y-93607000D01*
X161234523Y-93654619D01*
X161282142Y-93749857D01*
X161282142Y-93892714D01*
X161234523Y-93987952D01*
X161186904Y-94035571D01*
X161091666Y-94083190D01*
X160710714Y-94083190D01*
X162234523Y-94559380D02*
X161663095Y-94559380D01*
X161948809Y-94559380D02*
X161948809Y-93559380D01*
X161853571Y-93702238D01*
X161758333Y-93797476D01*
X161663095Y-93845095D01*
X162853571Y-93559380D02*
X162948809Y-93559380D01*
X163044047Y-93607000D01*
X163091666Y-93654619D01*
X163139285Y-93749857D01*
X163186904Y-93940333D01*
X163186904Y-94178428D01*
X163139285Y-94368904D01*
X163091666Y-94464142D01*
X163044047Y-94511761D01*
X162948809Y-94559380D01*
X162853571Y-94559380D01*
X162758333Y-94511761D01*
X162710714Y-94464142D01*
X162663095Y-94368904D01*
X162615476Y-94178428D01*
X162615476Y-93940333D01*
X162663095Y-93749857D01*
X162710714Y-93654619D01*
X162758333Y-93607000D01*
X162853571Y-93559380D01*
X139539742Y-90393780D02*
X139206409Y-89917590D01*
X138968314Y-90393780D02*
X138968314Y-89393780D01*
X139349266Y-89393780D01*
X139444504Y-89441400D01*
X139492123Y-89489019D01*
X139539742Y-89584257D01*
X139539742Y-89727114D01*
X139492123Y-89822352D01*
X139444504Y-89869971D01*
X139349266Y-89917590D01*
X138968314Y-89917590D01*
X140492123Y-90393780D02*
X139920695Y-90393780D01*
X140206409Y-90393780D02*
X140206409Y-89393780D01*
X140111171Y-89536638D01*
X140015933Y-89631876D01*
X139920695Y-89679495D01*
X141444504Y-90393780D02*
X140873076Y-90393780D01*
X141158790Y-90393780D02*
X141158790Y-89393780D01*
X141063552Y-89536638D01*
X140968314Y-89631876D01*
X140873076Y-89679495D01*
X176318942Y-74848980D02*
X175985609Y-74372790D01*
X175747514Y-74848980D02*
X175747514Y-73848980D01*
X176128466Y-73848980D01*
X176223704Y-73896600D01*
X176271323Y-73944219D01*
X176318942Y-74039457D01*
X176318942Y-74182314D01*
X176271323Y-74277552D01*
X176223704Y-74325171D01*
X176128466Y-74372790D01*
X175747514Y-74372790D01*
X177271323Y-74848980D02*
X176699895Y-74848980D01*
X176985609Y-74848980D02*
X176985609Y-73848980D01*
X176890371Y-73991838D01*
X176795133Y-74087076D01*
X176699895Y-74134695D01*
X177842752Y-74277552D02*
X177747514Y-74229933D01*
X177699895Y-74182314D01*
X177652276Y-74087076D01*
X177652276Y-74039457D01*
X177699895Y-73944219D01*
X177747514Y-73896600D01*
X177842752Y-73848980D01*
X178033228Y-73848980D01*
X178128466Y-73896600D01*
X178176085Y-73944219D01*
X178223704Y-74039457D01*
X178223704Y-74087076D01*
X178176085Y-74182314D01*
X178128466Y-74229933D01*
X178033228Y-74277552D01*
X177842752Y-74277552D01*
X177747514Y-74325171D01*
X177699895Y-74372790D01*
X177652276Y-74468028D01*
X177652276Y-74658504D01*
X177699895Y-74753742D01*
X177747514Y-74801361D01*
X177842752Y-74848980D01*
X178033228Y-74848980D01*
X178128466Y-74801361D01*
X178176085Y-74753742D01*
X178223704Y-74658504D01*
X178223704Y-74468028D01*
X178176085Y-74372790D01*
X178128466Y-74325171D01*
X178033228Y-74277552D01*
X153916142Y-77541380D02*
X153582809Y-77065190D01*
X153344714Y-77541380D02*
X153344714Y-76541380D01*
X153725666Y-76541380D01*
X153820904Y-76589000D01*
X153868523Y-76636619D01*
X153916142Y-76731857D01*
X153916142Y-76874714D01*
X153868523Y-76969952D01*
X153820904Y-77017571D01*
X153725666Y-77065190D01*
X153344714Y-77065190D01*
X154868523Y-77541380D02*
X154297095Y-77541380D01*
X154582809Y-77541380D02*
X154582809Y-76541380D01*
X154487571Y-76684238D01*
X154392333Y-76779476D01*
X154297095Y-76827095D01*
X155344714Y-77541380D02*
X155535190Y-77541380D01*
X155630428Y-77493761D01*
X155678047Y-77446142D01*
X155773285Y-77303285D01*
X155820904Y-77112809D01*
X155820904Y-76731857D01*
X155773285Y-76636619D01*
X155725666Y-76589000D01*
X155630428Y-76541380D01*
X155439952Y-76541380D01*
X155344714Y-76589000D01*
X155297095Y-76636619D01*
X155249476Y-76731857D01*
X155249476Y-76969952D01*
X155297095Y-77065190D01*
X155344714Y-77112809D01*
X155439952Y-77160428D01*
X155630428Y-77160428D01*
X155725666Y-77112809D01*
X155773285Y-77065190D01*
X155820904Y-76969952D01*
X119046666Y-109180380D02*
X119046666Y-109894666D01*
X118999047Y-110037523D01*
X118903809Y-110132761D01*
X118760952Y-110180380D01*
X118665714Y-110180380D01*
X119475238Y-109275619D02*
X119522857Y-109228000D01*
X119618095Y-109180380D01*
X119856190Y-109180380D01*
X119951428Y-109228000D01*
X119999047Y-109275619D01*
X120046666Y-109370857D01*
X120046666Y-109466095D01*
X119999047Y-109608952D01*
X119427619Y-110180380D01*
X120046666Y-110180380D01*
X135882142Y-98369380D02*
X135548809Y-97893190D01*
X135310714Y-98369380D02*
X135310714Y-97369380D01*
X135691666Y-97369380D01*
X135786904Y-97417000D01*
X135834523Y-97464619D01*
X135882142Y-97559857D01*
X135882142Y-97702714D01*
X135834523Y-97797952D01*
X135786904Y-97845571D01*
X135691666Y-97893190D01*
X135310714Y-97893190D01*
X136263095Y-97464619D02*
X136310714Y-97417000D01*
X136405952Y-97369380D01*
X136644047Y-97369380D01*
X136739285Y-97417000D01*
X136786904Y-97464619D01*
X136834523Y-97559857D01*
X136834523Y-97655095D01*
X136786904Y-97797952D01*
X136215476Y-98369380D01*
X136834523Y-98369380D01*
X137453571Y-97369380D02*
X137548809Y-97369380D01*
X137644047Y-97417000D01*
X137691666Y-97464619D01*
X137739285Y-97559857D01*
X137786904Y-97750333D01*
X137786904Y-97988428D01*
X137739285Y-98178904D01*
X137691666Y-98274142D01*
X137644047Y-98321761D01*
X137548809Y-98369380D01*
X137453571Y-98369380D01*
X137358333Y-98321761D01*
X137310714Y-98274142D01*
X137263095Y-98178904D01*
X137215476Y-97988428D01*
X137215476Y-97750333D01*
X137263095Y-97559857D01*
X137310714Y-97464619D01*
X137358333Y-97417000D01*
X137453571Y-97369380D01*
X154551142Y-102433380D02*
X154217809Y-101957190D01*
X153979714Y-102433380D02*
X153979714Y-101433380D01*
X154360666Y-101433380D01*
X154455904Y-101481000D01*
X154503523Y-101528619D01*
X154551142Y-101623857D01*
X154551142Y-101766714D01*
X154503523Y-101861952D01*
X154455904Y-101909571D01*
X154360666Y-101957190D01*
X153979714Y-101957190D01*
X154932095Y-101528619D02*
X154979714Y-101481000D01*
X155074952Y-101433380D01*
X155313047Y-101433380D01*
X155408285Y-101481000D01*
X155455904Y-101528619D01*
X155503523Y-101623857D01*
X155503523Y-101719095D01*
X155455904Y-101861952D01*
X154884476Y-102433380D01*
X155503523Y-102433380D01*
X156455904Y-102433380D02*
X155884476Y-102433380D01*
X156170190Y-102433380D02*
X156170190Y-101433380D01*
X156074952Y-101576238D01*
X155979714Y-101671476D01*
X155884476Y-101719095D01*
X140843095Y-98004380D02*
X140843095Y-98813904D01*
X140890714Y-98909142D01*
X140938333Y-98956761D01*
X141033571Y-99004380D01*
X141224047Y-99004380D01*
X141319285Y-98956761D01*
X141366904Y-98909142D01*
X141414523Y-98813904D01*
X141414523Y-98004380D01*
X142366904Y-98004380D02*
X141890714Y-98004380D01*
X141843095Y-98480571D01*
X141890714Y-98432952D01*
X141985952Y-98385333D01*
X142224047Y-98385333D01*
X142319285Y-98432952D01*
X142366904Y-98480571D01*
X142414523Y-98575809D01*
X142414523Y-98813904D01*
X142366904Y-98909142D01*
X142319285Y-98956761D01*
X142224047Y-99004380D01*
X141985952Y-99004380D01*
X141890714Y-98956761D01*
X141843095Y-98909142D01*
X175514095Y-103719380D02*
X175514095Y-104528904D01*
X175561714Y-104624142D01*
X175609333Y-104671761D01*
X175704571Y-104719380D01*
X175895047Y-104719380D01*
X175990285Y-104671761D01*
X176037904Y-104624142D01*
X176085523Y-104528904D01*
X176085523Y-103719380D01*
X176990285Y-103719380D02*
X176799809Y-103719380D01*
X176704571Y-103767000D01*
X176656952Y-103814619D01*
X176561714Y-103957476D01*
X176514095Y-104147952D01*
X176514095Y-104528904D01*
X176561714Y-104624142D01*
X176609333Y-104671761D01*
X176704571Y-104719380D01*
X176895047Y-104719380D01*
X176990285Y-104671761D01*
X177037904Y-104624142D01*
X177085523Y-104528904D01*
X177085523Y-104290809D01*
X177037904Y-104195571D01*
X176990285Y-104147952D01*
X176895047Y-104100333D01*
X176704571Y-104100333D01*
X176609333Y-104147952D01*
X176561714Y-104195571D01*
X176514095Y-104290809D01*
X178562095Y-102195380D02*
X178562095Y-103004904D01*
X178609714Y-103100142D01*
X178657333Y-103147761D01*
X178752571Y-103195380D01*
X178943047Y-103195380D01*
X179038285Y-103147761D01*
X179085904Y-103100142D01*
X179133523Y-103004904D01*
X179133523Y-102195380D01*
X179514476Y-102195380D02*
X180181142Y-102195380D01*
X179752571Y-103195380D01*
X192933333Y-112052380D02*
X192600000Y-111576190D01*
X192361904Y-112052380D02*
X192361904Y-111052380D01*
X192742857Y-111052380D01*
X192838095Y-111100000D01*
X192885714Y-111147619D01*
X192933333Y-111242857D01*
X192933333Y-111385714D01*
X192885714Y-111480952D01*
X192838095Y-111528571D01*
X192742857Y-111576190D01*
X192361904Y-111576190D01*
X193266666Y-111052380D02*
X193885714Y-111052380D01*
X193552380Y-111433333D01*
X193695238Y-111433333D01*
X193790476Y-111480952D01*
X193838095Y-111528571D01*
X193885714Y-111623809D01*
X193885714Y-111861904D01*
X193838095Y-111957142D01*
X193790476Y-112004761D01*
X193695238Y-112052380D01*
X193409523Y-112052380D01*
X193314285Y-112004761D01*
X193266666Y-111957142D01*
X173956742Y-92984580D02*
X173623409Y-92508390D01*
X173385314Y-92984580D02*
X173385314Y-91984580D01*
X173766266Y-91984580D01*
X173861504Y-92032200D01*
X173909123Y-92079819D01*
X173956742Y-92175057D01*
X173956742Y-92317914D01*
X173909123Y-92413152D01*
X173861504Y-92460771D01*
X173766266Y-92508390D01*
X173385314Y-92508390D01*
X174909123Y-92984580D02*
X174337695Y-92984580D01*
X174623409Y-92984580D02*
X174623409Y-91984580D01*
X174528171Y-92127438D01*
X174432933Y-92222676D01*
X174337695Y-92270295D01*
X175290076Y-92079819D02*
X175337695Y-92032200D01*
X175432933Y-91984580D01*
X175671028Y-91984580D01*
X175766266Y-92032200D01*
X175813885Y-92079819D01*
X175861504Y-92175057D01*
X175861504Y-92270295D01*
X175813885Y-92413152D01*
X175242457Y-92984580D01*
X175861504Y-92984580D01*
X144079933Y-115901742D02*
X144032314Y-115949361D01*
X143889457Y-115996980D01*
X143794219Y-115996980D01*
X143651361Y-115949361D01*
X143556123Y-115854123D01*
X143508504Y-115758885D01*
X143460885Y-115568409D01*
X143460885Y-115425552D01*
X143508504Y-115235076D01*
X143556123Y-115139838D01*
X143651361Y-115044600D01*
X143794219Y-114996980D01*
X143889457Y-114996980D01*
X144032314Y-115044600D01*
X144079933Y-115092219D01*
X144651361Y-115425552D02*
X144556123Y-115377933D01*
X144508504Y-115330314D01*
X144460885Y-115235076D01*
X144460885Y-115187457D01*
X144508504Y-115092219D01*
X144556123Y-115044600D01*
X144651361Y-114996980D01*
X144841838Y-114996980D01*
X144937076Y-115044600D01*
X144984695Y-115092219D01*
X145032314Y-115187457D01*
X145032314Y-115235076D01*
X144984695Y-115330314D01*
X144937076Y-115377933D01*
X144841838Y-115425552D01*
X144651361Y-115425552D01*
X144556123Y-115473171D01*
X144508504Y-115520790D01*
X144460885Y-115616028D01*
X144460885Y-115806504D01*
X144508504Y-115901742D01*
X144556123Y-115949361D01*
X144651361Y-115996980D01*
X144841838Y-115996980D01*
X144937076Y-115949361D01*
X144984695Y-115901742D01*
X145032314Y-115806504D01*
X145032314Y-115616028D01*
X144984695Y-115520790D01*
X144937076Y-115473171D01*
X144841838Y-115425552D01*
X147362942Y-110358180D02*
X147029609Y-109881990D01*
X146791514Y-110358180D02*
X146791514Y-109358180D01*
X147172466Y-109358180D01*
X147267704Y-109405800D01*
X147315323Y-109453419D01*
X147362942Y-109548657D01*
X147362942Y-109691514D01*
X147315323Y-109786752D01*
X147267704Y-109834371D01*
X147172466Y-109881990D01*
X146791514Y-109881990D01*
X148315323Y-110358180D02*
X147743895Y-110358180D01*
X148029609Y-110358180D02*
X148029609Y-109358180D01*
X147934371Y-109501038D01*
X147839133Y-109596276D01*
X147743895Y-109643895D01*
X148648657Y-109358180D02*
X149315323Y-109358180D01*
X148886752Y-110358180D01*
X158589742Y-115742980D02*
X158256409Y-115266790D01*
X158018314Y-115742980D02*
X158018314Y-114742980D01*
X158399266Y-114742980D01*
X158494504Y-114790600D01*
X158542123Y-114838219D01*
X158589742Y-114933457D01*
X158589742Y-115076314D01*
X158542123Y-115171552D01*
X158494504Y-115219171D01*
X158399266Y-115266790D01*
X158018314Y-115266790D01*
X158970695Y-114838219D02*
X159018314Y-114790600D01*
X159113552Y-114742980D01*
X159351647Y-114742980D01*
X159446885Y-114790600D01*
X159494504Y-114838219D01*
X159542123Y-114933457D01*
X159542123Y-115028695D01*
X159494504Y-115171552D01*
X158923076Y-115742980D01*
X159542123Y-115742980D01*
X159923076Y-114838219D02*
X159970695Y-114790600D01*
X160065933Y-114742980D01*
X160304028Y-114742980D01*
X160399266Y-114790600D01*
X160446885Y-114838219D01*
X160494504Y-114933457D01*
X160494504Y-115028695D01*
X160446885Y-115171552D01*
X159875457Y-115742980D01*
X160494504Y-115742980D01*
X188366666Y-108582380D02*
X188366666Y-109296666D01*
X188319047Y-109439523D01*
X188223809Y-109534761D01*
X188080952Y-109582380D01*
X187985714Y-109582380D01*
X189366666Y-109582380D02*
X188795238Y-109582380D01*
X189080952Y-109582380D02*
X189080952Y-108582380D01*
X188985714Y-108725238D01*
X188890476Y-108820476D01*
X188795238Y-108868095D01*
X191533333Y-116557142D02*
X191485714Y-116604761D01*
X191342857Y-116652380D01*
X191247619Y-116652380D01*
X191104761Y-116604761D01*
X191009523Y-116509523D01*
X190961904Y-116414285D01*
X190914285Y-116223809D01*
X190914285Y-116080952D01*
X190961904Y-115890476D01*
X191009523Y-115795238D01*
X191104761Y-115700000D01*
X191247619Y-115652380D01*
X191342857Y-115652380D01*
X191485714Y-115700000D01*
X191533333Y-115747619D01*
X192009523Y-116652380D02*
X192200000Y-116652380D01*
X192295238Y-116604761D01*
X192342857Y-116557142D01*
X192438095Y-116414285D01*
X192485714Y-116223809D01*
X192485714Y-115842857D01*
X192438095Y-115747619D01*
X192390476Y-115700000D01*
X192295238Y-115652380D01*
X192104761Y-115652380D01*
X192009523Y-115700000D01*
X191961904Y-115747619D01*
X191914285Y-115842857D01*
X191914285Y-116080952D01*
X191961904Y-116176190D01*
X192009523Y-116223809D01*
X192104761Y-116271428D01*
X192295238Y-116271428D01*
X192390476Y-116223809D01*
X192438095Y-116176190D01*
X192485714Y-116080952D01*
%LPC*%
D12*
X226612142Y-71793571D02*
X226612142Y-70293571D01*
X228397857Y-70222142D02*
X227112142Y-72150714D01*
X229183571Y-70293571D02*
X229469285Y-70293571D01*
X229612142Y-70365000D01*
X229755000Y-70507857D01*
X229826428Y-70793571D01*
X229826428Y-71293571D01*
X229755000Y-71579285D01*
X229612142Y-71722142D01*
X229469285Y-71793571D01*
X229183571Y-71793571D01*
X229040714Y-71722142D01*
X228897857Y-71579285D01*
X228826428Y-71293571D01*
X228826428Y-70793571D01*
X228897857Y-70507857D01*
X229040714Y-70365000D01*
X229183571Y-70293571D01*
X232112142Y-71007857D02*
X232326428Y-71079285D01*
X232397857Y-71150714D01*
X232469285Y-71293571D01*
X232469285Y-71507857D01*
X232397857Y-71650714D01*
X232326428Y-71722142D01*
X232183571Y-71793571D01*
X231612142Y-71793571D01*
X231612142Y-70293571D01*
X232112142Y-70293571D01*
X232255000Y-70365000D01*
X232326428Y-70436428D01*
X232397857Y-70579285D01*
X232397857Y-70722142D01*
X232326428Y-70865000D01*
X232255000Y-70936428D01*
X232112142Y-71007857D01*
X231612142Y-71007857D01*
X233326428Y-71793571D02*
X233183571Y-71722142D01*
X233112142Y-71650714D01*
X233040714Y-71507857D01*
X233040714Y-71079285D01*
X233112142Y-70936428D01*
X233183571Y-70865000D01*
X233326428Y-70793571D01*
X233540714Y-70793571D01*
X233683571Y-70865000D01*
X233755000Y-70936428D01*
X233826428Y-71079285D01*
X233826428Y-71507857D01*
X233755000Y-71650714D01*
X233683571Y-71722142D01*
X233540714Y-71793571D01*
X233326428Y-71793571D01*
X235112142Y-71793571D02*
X235112142Y-71007857D01*
X235040714Y-70865000D01*
X234897857Y-70793571D01*
X234612142Y-70793571D01*
X234469285Y-70865000D01*
X235112142Y-71722142D02*
X234969285Y-71793571D01*
X234612142Y-71793571D01*
X234469285Y-71722142D01*
X234397857Y-71579285D01*
X234397857Y-71436428D01*
X234469285Y-71293571D01*
X234612142Y-71222142D01*
X234969285Y-71222142D01*
X235112142Y-71150714D01*
X235826428Y-71793571D02*
X235826428Y-70793571D01*
X235826428Y-71079285D02*
X235897857Y-70936428D01*
X235969285Y-70865000D01*
X236112142Y-70793571D01*
X236255000Y-70793571D01*
X237397857Y-71793571D02*
X237397857Y-70293571D01*
X237397857Y-71722142D02*
X237255000Y-71793571D01*
X236969285Y-71793571D01*
X236826428Y-71722142D01*
X236755000Y-71650714D01*
X236683571Y-71507857D01*
X236683571Y-71079285D01*
X236755000Y-70936428D01*
X236826428Y-70865000D01*
X236969285Y-70793571D01*
X237255000Y-70793571D01*
X237397857Y-70865000D01*
X240112142Y-71793571D02*
X239612142Y-71079285D01*
X239255000Y-71793571D02*
X239255000Y-70293571D01*
X239826428Y-70293571D01*
X239969285Y-70365000D01*
X240040714Y-70436428D01*
X240112142Y-70579285D01*
X240112142Y-70793571D01*
X240040714Y-70936428D01*
X239969285Y-71007857D01*
X239826428Y-71079285D01*
X239255000Y-71079285D01*
X241326428Y-71722142D02*
X241183571Y-71793571D01*
X240897857Y-71793571D01*
X240755000Y-71722142D01*
X240683571Y-71579285D01*
X240683571Y-71007857D01*
X240755000Y-70865000D01*
X240897857Y-70793571D01*
X241183571Y-70793571D01*
X241326428Y-70865000D01*
X241397857Y-71007857D01*
X241397857Y-71150714D01*
X240683571Y-71293571D01*
X241897857Y-70793571D02*
X242255000Y-71793571D01*
X242612142Y-70793571D01*
X244255000Y-70436428D02*
X244326428Y-70365000D01*
X244469285Y-70293571D01*
X244826428Y-70293571D01*
X244969285Y-70365000D01*
X245040714Y-70436428D01*
X245112142Y-70579285D01*
X245112142Y-70722142D01*
X245040714Y-70936428D01*
X244183571Y-71793571D01*
X245112142Y-71793571D01*
X245755000Y-71650714D02*
X245826428Y-71722142D01*
X245755000Y-71793571D01*
X245683571Y-71722142D01*
X245755000Y-71650714D01*
X245755000Y-71793571D01*
X247112142Y-70793571D02*
X247112142Y-71793571D01*
X246755000Y-70222142D02*
X246397857Y-71293571D01*
X247326428Y-71293571D01*
X227112142Y-73557857D02*
X226612142Y-73557857D01*
X226612142Y-74343571D02*
X226612142Y-72843571D01*
X227326428Y-72843571D01*
X227897857Y-74343571D02*
X227897857Y-73343571D01*
X227897857Y-73629285D02*
X227969285Y-73486428D01*
X228040714Y-73415000D01*
X228183571Y-73343571D01*
X228326428Y-73343571D01*
X229040714Y-74343571D02*
X228897857Y-74272142D01*
X228826428Y-74200714D01*
X228755000Y-74057857D01*
X228755000Y-73629285D01*
X228826428Y-73486428D01*
X228897857Y-73415000D01*
X229040714Y-73343571D01*
X229255000Y-73343571D01*
X229397857Y-73415000D01*
X229469285Y-73486428D01*
X229540714Y-73629285D01*
X229540714Y-74057857D01*
X229469285Y-74200714D01*
X229397857Y-74272142D01*
X229255000Y-74343571D01*
X229040714Y-74343571D01*
X230183571Y-73343571D02*
X230183571Y-74343571D01*
X230183571Y-73486428D02*
X230255000Y-73415000D01*
X230397857Y-73343571D01*
X230612142Y-73343571D01*
X230755000Y-73415000D01*
X230826428Y-73557857D01*
X230826428Y-74343571D01*
X231326428Y-73343571D02*
X231897857Y-73343571D01*
X231540714Y-72843571D02*
X231540714Y-74129285D01*
X231612142Y-74272142D01*
X231755000Y-74343571D01*
X231897857Y-74343571D01*
X233469285Y-74272142D02*
X233683571Y-74343571D01*
X234040714Y-74343571D01*
X234183571Y-74272142D01*
X234255000Y-74200714D01*
X234326428Y-74057857D01*
X234326428Y-73915000D01*
X234255000Y-73772142D01*
X234183571Y-73700714D01*
X234040714Y-73629285D01*
X233755000Y-73557857D01*
X233612142Y-73486428D01*
X233540714Y-73415000D01*
X233469285Y-73272142D01*
X233469285Y-73129285D01*
X233540714Y-72986428D01*
X233612142Y-72915000D01*
X233755000Y-72843571D01*
X234112142Y-72843571D01*
X234326428Y-72915000D01*
X234969285Y-74343571D02*
X234969285Y-73343571D01*
X234969285Y-72843571D02*
X234897857Y-72915000D01*
X234969285Y-72986428D01*
X235040714Y-72915000D01*
X234969285Y-72843571D01*
X234969285Y-72986428D01*
X236326428Y-74343571D02*
X236326428Y-72843571D01*
X236326428Y-74272142D02*
X236183571Y-74343571D01*
X235897857Y-74343571D01*
X235755000Y-74272142D01*
X235683571Y-74200714D01*
X235612142Y-74057857D01*
X235612142Y-73629285D01*
X235683571Y-73486428D01*
X235755000Y-73415000D01*
X235897857Y-73343571D01*
X236183571Y-73343571D01*
X236326428Y-73415000D01*
X237612142Y-74272142D02*
X237469285Y-74343571D01*
X237183571Y-74343571D01*
X237040714Y-74272142D01*
X236969285Y-74129285D01*
X236969285Y-73557857D01*
X237040714Y-73415000D01*
X237183571Y-73343571D01*
X237469285Y-73343571D01*
X237612142Y-73415000D01*
X237683571Y-73557857D01*
X237683571Y-73700714D01*
X236969285Y-73843571D01*
X239397857Y-74272142D02*
X239612142Y-74343571D01*
X239969285Y-74343571D01*
X240112142Y-74272142D01*
X240183571Y-74200714D01*
X240255000Y-74057857D01*
X240255000Y-73915000D01*
X240183571Y-73772142D01*
X240112142Y-73700714D01*
X239969285Y-73629285D01*
X239683571Y-73557857D01*
X239540714Y-73486428D01*
X239469285Y-73415000D01*
X239397857Y-73272142D01*
X239397857Y-73129285D01*
X239469285Y-72986428D01*
X239540714Y-72915000D01*
X239683571Y-72843571D01*
X240040714Y-72843571D01*
X240255000Y-72915000D01*
X241112142Y-74343571D02*
X240969285Y-74272142D01*
X240897857Y-74200714D01*
X240826428Y-74057857D01*
X240826428Y-73629285D01*
X240897857Y-73486428D01*
X240969285Y-73415000D01*
X241112142Y-73343571D01*
X241326428Y-73343571D01*
X241469285Y-73415000D01*
X241540714Y-73486428D01*
X241612142Y-73629285D01*
X241612142Y-74057857D01*
X241540714Y-74200714D01*
X241469285Y-74272142D01*
X241326428Y-74343571D01*
X241112142Y-74343571D01*
X242469285Y-74343571D02*
X242326428Y-74272142D01*
X242255000Y-74129285D01*
X242255000Y-72843571D01*
X243683571Y-74343571D02*
X243683571Y-72843571D01*
X243683571Y-74272142D02*
X243540714Y-74343571D01*
X243255000Y-74343571D01*
X243112142Y-74272142D01*
X243040714Y-74200714D01*
X242969285Y-74057857D01*
X242969285Y-73629285D01*
X243040714Y-73486428D01*
X243112142Y-73415000D01*
X243255000Y-73343571D01*
X243540714Y-73343571D01*
X243683571Y-73415000D01*
X244969285Y-74272142D02*
X244826428Y-74343571D01*
X244540714Y-74343571D01*
X244397857Y-74272142D01*
X244326428Y-74129285D01*
X244326428Y-73557857D01*
X244397857Y-73415000D01*
X244540714Y-73343571D01*
X244826428Y-73343571D01*
X244969285Y-73415000D01*
X245040714Y-73557857D01*
X245040714Y-73700714D01*
X244326428Y-73843571D01*
X245683571Y-74343571D02*
X245683571Y-73343571D01*
X245683571Y-73629285D02*
X245755000Y-73486428D01*
X245826428Y-73415000D01*
X245969285Y-73343571D01*
X246112142Y-73343571D01*
X247755000Y-74343571D02*
X247755000Y-72843571D01*
X248255000Y-73915000D01*
X248755000Y-72843571D01*
X248755000Y-74343571D01*
X250112142Y-74343571D02*
X250112142Y-73557857D01*
X250040714Y-73415000D01*
X249897857Y-73343571D01*
X249612142Y-73343571D01*
X249469285Y-73415000D01*
X250112142Y-74272142D02*
X249969285Y-74343571D01*
X249612142Y-74343571D01*
X249469285Y-74272142D01*
X249397857Y-74129285D01*
X249397857Y-73986428D01*
X249469285Y-73843571D01*
X249612142Y-73772142D01*
X249969285Y-73772142D01*
X250112142Y-73700714D01*
X250755000Y-74272142D02*
X250897857Y-74343571D01*
X251183571Y-74343571D01*
X251326428Y-74272142D01*
X251397857Y-74129285D01*
X251397857Y-74057857D01*
X251326428Y-73915000D01*
X251183571Y-73843571D01*
X250969285Y-73843571D01*
X250826428Y-73772142D01*
X250755000Y-73629285D01*
X250755000Y-73557857D01*
X250826428Y-73415000D01*
X250969285Y-73343571D01*
X251183571Y-73343571D01*
X251326428Y-73415000D01*
X252040714Y-74343571D02*
X252040714Y-72843571D01*
X252183571Y-73772142D02*
X252612142Y-74343571D01*
X252612142Y-73343571D02*
X252040714Y-73915000D01*
D16*
X153800000Y-111400000D03*
X153800000Y-107000000D03*
X171500000Y-110300000D03*
X171500000Y-105900000D03*
X190200000Y-90700000D03*
X190200000Y-86300000D03*
D17*
X192379600Y-79654400D03*
X192379600Y-76352400D03*
X183946800Y-89966800D03*
X183946800Y-93268800D03*
D18*
X175067000Y-100590600D03*
X173167000Y-100590600D03*
X174117000Y-102590600D03*
X169235200Y-99542600D03*
X167335200Y-99542600D03*
X168285200Y-101542600D03*
D19*
X197358000Y-114046000D03*
D20*
X199898000Y-114046000D03*
X197358000Y-111506000D03*
X199898000Y-111506000D03*
X197358000Y-108966000D03*
X199898000Y-108966000D03*
X197358000Y-106426000D03*
X199898000Y-106426000D03*
X197358000Y-103886000D03*
X199898000Y-103886000D03*
X197358000Y-101346000D03*
X199898000Y-101346000D03*
X197358000Y-98806000D03*
X199898000Y-98806000D03*
X197358000Y-96266000D03*
X199898000Y-96266000D03*
X197358000Y-93726000D03*
X199898000Y-93726000D03*
X197358000Y-91186000D03*
X199898000Y-91186000D03*
X197358000Y-88646000D03*
X199898000Y-88646000D03*
X197358000Y-86106000D03*
X199898000Y-86106000D03*
X197358000Y-83566000D03*
X199898000Y-83566000D03*
X197358000Y-81026000D03*
X199898000Y-81026000D03*
X197358000Y-78486000D03*
X199898000Y-78486000D03*
X197358000Y-75946000D03*
X199898000Y-75946000D03*
X197358000Y-73406000D03*
X199898000Y-73406000D03*
X197358000Y-70866000D03*
X199898000Y-70866000D03*
D21*
X131318000Y-119126000D03*
X133858000Y-119126000D03*
X136398000Y-119126000D03*
X138938000Y-119126000D03*
X141478000Y-119126000D03*
X144018000Y-119126000D03*
X146558000Y-119126000D03*
X149098000Y-119126000D03*
X154178000Y-119126000D03*
X156718000Y-119126000D03*
X159258000Y-119126000D03*
X161798000Y-119126000D03*
X164338000Y-119126000D03*
X166878000Y-119126000D03*
X169418000Y-119126000D03*
X171958000Y-119126000D03*
X177038000Y-119126000D03*
X179578000Y-119126000D03*
X182118000Y-119126000D03*
X184658000Y-119126000D03*
X187198000Y-119126000D03*
X189738000Y-119126000D03*
X192278000Y-119126000D03*
X194818000Y-119126000D03*
X122174000Y-70866000D03*
X124714000Y-70866000D03*
X127254000Y-70866000D03*
X129794000Y-70866000D03*
X132334000Y-70866000D03*
X134874000Y-70866000D03*
X137414000Y-70866000D03*
X139954000Y-70866000D03*
X142494000Y-70866000D03*
X145034000Y-70866000D03*
X149098000Y-70866000D03*
X151638000Y-70866000D03*
X154178000Y-70866000D03*
X156718000Y-70866000D03*
X159258000Y-70866000D03*
X161798000Y-70866000D03*
X164338000Y-70866000D03*
X166878000Y-70866000D03*
X171958000Y-70866000D03*
X174498000Y-70866000D03*
X177038000Y-70866000D03*
X179578000Y-70866000D03*
X182118000Y-70866000D03*
X184658000Y-70866000D03*
X187198000Y-70866000D03*
X189738000Y-70866000D03*
D22*
X150071000Y-96581000D03*
X150071000Y-95631000D03*
X150071000Y-94681000D03*
X147871000Y-94681000D03*
X147871000Y-96581000D03*
X147871000Y-95631000D03*
D23*
X139954000Y-76581000D03*
X142494000Y-76581000D03*
X143764000Y-76581000D03*
X145034000Y-76581000D03*
X146304000Y-76581000D03*
X147574000Y-76581000D03*
X148844000Y-76581000D03*
X148844000Y-82931000D03*
X147574000Y-82931000D03*
X146304000Y-82931000D03*
X145034000Y-82931000D03*
X143764000Y-82931000D03*
X142494000Y-82931000D03*
X141224000Y-82931000D03*
X139954000Y-82931000D03*
X141224000Y-76581000D03*
X169926000Y-89408000D03*
X171196000Y-89408000D03*
X172466000Y-89408000D03*
X173736000Y-89408000D03*
X175006000Y-89408000D03*
X176276000Y-89408000D03*
X177546000Y-89408000D03*
X177546000Y-83058000D03*
X176276000Y-83058000D03*
X173736000Y-83058000D03*
X172466000Y-83058000D03*
X171196000Y-83058000D03*
X169926000Y-83058000D03*
X175006000Y-83058000D03*
X154432000Y-89281000D03*
X155702000Y-89281000D03*
X156972000Y-89281000D03*
X158242000Y-89281000D03*
X159512000Y-89281000D03*
X160782000Y-89281000D03*
X162052000Y-89281000D03*
X162052000Y-82931000D03*
X160782000Y-82931000D03*
X158242000Y-82931000D03*
X156972000Y-82931000D03*
X155702000Y-82931000D03*
X154432000Y-82931000D03*
X159512000Y-82931000D03*
D17*
X147193000Y-89535000D03*
X147193000Y-86233000D03*
D24*
X139192000Y-86614000D03*
X135890000Y-86614000D03*
D17*
X184658000Y-76327000D03*
X184658000Y-79629000D03*
X181356000Y-76327000D03*
X181356000Y-79629000D03*
X154686000Y-95758000D03*
X154686000Y-92456000D03*
X162052000Y-76708000D03*
X162052000Y-80010000D03*
X188087000Y-76200000D03*
X188087000Y-79502000D03*
X159004000Y-95758000D03*
X159004000Y-92456000D03*
X142875000Y-86360000D03*
X142875000Y-89662000D03*
X177038000Y-76454000D03*
X177038000Y-79756000D03*
X157480000Y-76708000D03*
X157480000Y-80010000D03*
D25*
X131276000Y-99815000D03*
X131276000Y-97315000D03*
X131276000Y-94015000D03*
X131276000Y-92315000D03*
X131276000Y-89815000D03*
X131276000Y-87315000D03*
X131276000Y-84895000D03*
X131276000Y-83195000D03*
X131276000Y-102315000D03*
X131276000Y-95665000D03*
X131276000Y-79845000D03*
D26*
X110276000Y-107345000D03*
X109076000Y-79345000D03*
D27*
X106976000Y-105045000D03*
X106976000Y-80845000D03*
D24*
X138049000Y-95631000D03*
X134747000Y-95631000D03*
D17*
X152527000Y-103505000D03*
X152527000Y-100203000D03*
D22*
X143848000Y-96581000D03*
X143848000Y-95631000D03*
X143848000Y-94681000D03*
X141648000Y-94681000D03*
X141648000Y-96581000D03*
X141648000Y-95631000D03*
D28*
X182880000Y-106045000D03*
X182880000Y-107315000D03*
X182880000Y-108585000D03*
X182880000Y-109855000D03*
X176530000Y-109855000D03*
X176530000Y-108585000D03*
X176530000Y-107315000D03*
X176530000Y-106045000D03*
D29*
X181422000Y-102700000D03*
X182372000Y-102700000D03*
X183322000Y-102700000D03*
X183322000Y-100500000D03*
X181422000Y-100500000D03*
X182372000Y-100500000D03*
D24*
X187449000Y-110800000D03*
X190751000Y-110800000D03*
X176504600Y-94843600D03*
X173202600Y-94843600D03*
X146456400Y-115265200D03*
X149758400Y-115265200D03*
X149758400Y-112090200D03*
X146456400Y-112090200D03*
X156641800Y-115265200D03*
X153339800Y-115265200D03*
D30*
X188700000Y-96640000D03*
X188700000Y-99180000D03*
X188700000Y-101720000D03*
X188700000Y-104260000D03*
D31*
X188700000Y-106800000D03*
D24*
X190951000Y-114100000D03*
X187649000Y-114100000D03*
M02*
