G04 #@! TF.GenerationSoftware,KiCad,Pcbnew,(5.1.4)-1*
G04 #@! TF.CreationDate,2020-05-01T18:49:37-04:00*
G04 #@! TF.ProjectId,IO Board,494f2042-6f61-4726-942e-6b696361645f,2.3*
G04 #@! TF.SameCoordinates,Original*
G04 #@! TF.FileFunction,Copper,L1,Top*
G04 #@! TF.FilePolarity,Positive*
%FSLAX46Y46*%
G04 Gerber Fmt 4.6, Leading zero omitted, Abs format (unit mm)*
G04 Created by KiCad (PCBNEW (5.1.4)-1) date 2020-05-01 18:49:37*
%MOMM*%
%LPD*%
G04 APERTURE LIST*
%ADD10C,0.100000*%
%ADD11C,0.150000*%
%ADD12C,0.300000*%
%ADD13C,0.400000*%
%ADD14R,2.150000X2.200000*%
%ADD15R,2.032000X1.524000*%
%ADD16R,0.800000X0.900000*%
%ADD17C,1.727200*%
%ADD18O,1.727200X1.727200*%
%ADD19O,1.727200X2.032000*%
%ADD20R,1.060000X0.650000*%
%ADD21R,0.508000X1.143000*%
%ADD22R,1.524000X2.032000*%
%ADD23R,1.500000X1.000000*%
%ADD24R,2.200000X1.200000*%
%ADD25R,1.143000X0.508000*%
%ADD26R,0.650000X1.060000*%
%ADD27O,1.700000X1.700000*%
%ADD28R,1.700000X1.700000*%
%ADD29C,0.889000*%
%ADD30C,0.508000*%
%ADD31C,0.254000*%
G04 APERTURE END LIST*
D10*
D11*
X159400000Y-171900000D02*
X159400000Y-203900000D01*
X267400000Y-203900000D01*
X267400000Y-171900000D01*
X159400000Y-171900000D01*
D10*
D11*
X10000000Y-10000000D02*
X10000000Y-205900000D01*
X269400000Y-205900000D01*
X269400000Y-10000000D01*
X10000000Y-10000000D01*
D10*
D11*
X12000000Y-12000000D02*
X12000000Y-203900000D01*
X267400000Y-203900000D01*
X267400000Y-12000000D01*
X12000000Y-12000000D01*
D10*
D11*
X60000000Y-12000000D02*
X60000000Y-10000000D01*
D10*
D11*
X110000000Y-12000000D02*
X110000000Y-10000000D01*
D10*
D11*
X160000000Y-12000000D02*
X160000000Y-10000000D01*
D10*
D11*
X210000000Y-12000000D02*
X210000000Y-10000000D01*
D10*
D11*
X260000000Y-12000000D02*
X260000000Y-10000000D01*
D10*
D11*
X36065476Y-11588095D02*
X35322619Y-11588095D01*
X35694047Y-11588095D02*
X35694047Y-10288095D01*
X35570238Y-10473809D01*
X35446428Y-10597619D01*
X35322619Y-10659523D01*
D10*
D11*
X85322619Y-10411904D02*
X85384523Y-10350000D01*
X85508333Y-10288095D01*
X85817857Y-10288095D01*
X85941666Y-10350000D01*
X86003571Y-10411904D01*
X86065476Y-10535714D01*
X86065476Y-10659523D01*
X86003571Y-10845238D01*
X85260714Y-11588095D01*
X86065476Y-11588095D01*
D10*
D11*
X135260714Y-10288095D02*
X136065476Y-10288095D01*
X135632142Y-10783333D01*
X135817857Y-10783333D01*
X135941666Y-10845238D01*
X136003571Y-10907142D01*
X136065476Y-11030952D01*
X136065476Y-11340476D01*
X136003571Y-11464285D01*
X135941666Y-11526190D01*
X135817857Y-11588095D01*
X135446428Y-11588095D01*
X135322619Y-11526190D01*
X135260714Y-11464285D01*
D10*
D11*
X185941666Y-10721428D02*
X185941666Y-11588095D01*
X185632142Y-10226190D02*
X185322619Y-11154761D01*
X186127380Y-11154761D01*
D10*
D11*
X236003571Y-10288095D02*
X235384523Y-10288095D01*
X235322619Y-10907142D01*
X235384523Y-10845238D01*
X235508333Y-10783333D01*
X235817857Y-10783333D01*
X235941666Y-10845238D01*
X236003571Y-10907142D01*
X236065476Y-11030952D01*
X236065476Y-11340476D01*
X236003571Y-11464285D01*
X235941666Y-11526190D01*
X235817857Y-11588095D01*
X235508333Y-11588095D01*
X235384523Y-11526190D01*
X235322619Y-11464285D01*
D10*
D11*
X60000000Y-203900000D02*
X60000000Y-205900000D01*
D10*
D11*
X110000000Y-203900000D02*
X110000000Y-205900000D01*
D10*
D11*
X160000000Y-203900000D02*
X160000000Y-205900000D01*
D10*
D11*
X210000000Y-203900000D02*
X210000000Y-205900000D01*
D10*
D11*
X260000000Y-203900000D02*
X260000000Y-205900000D01*
D10*
D11*
X36065476Y-205488095D02*
X35322619Y-205488095D01*
X35694047Y-205488095D02*
X35694047Y-204188095D01*
X35570238Y-204373809D01*
X35446428Y-204497619D01*
X35322619Y-204559523D01*
D10*
D11*
X85322619Y-204311904D02*
X85384523Y-204250000D01*
X85508333Y-204188095D01*
X85817857Y-204188095D01*
X85941666Y-204250000D01*
X86003571Y-204311904D01*
X86065476Y-204435714D01*
X86065476Y-204559523D01*
X86003571Y-204745238D01*
X85260714Y-205488095D01*
X86065476Y-205488095D01*
D10*
D11*
X135260714Y-204188095D02*
X136065476Y-204188095D01*
X135632142Y-204683333D01*
X135817857Y-204683333D01*
X135941666Y-204745238D01*
X136003571Y-204807142D01*
X136065476Y-204930952D01*
X136065476Y-205240476D01*
X136003571Y-205364285D01*
X135941666Y-205426190D01*
X135817857Y-205488095D01*
X135446428Y-205488095D01*
X135322619Y-205426190D01*
X135260714Y-205364285D01*
D10*
D11*
X185941666Y-204621428D02*
X185941666Y-205488095D01*
X185632142Y-204126190D02*
X185322619Y-205054761D01*
X186127380Y-205054761D01*
D10*
D11*
X236003571Y-204188095D02*
X235384523Y-204188095D01*
X235322619Y-204807142D01*
X235384523Y-204745238D01*
X235508333Y-204683333D01*
X235817857Y-204683333D01*
X235941666Y-204745238D01*
X236003571Y-204807142D01*
X236065476Y-204930952D01*
X236065476Y-205240476D01*
X236003571Y-205364285D01*
X235941666Y-205426190D01*
X235817857Y-205488095D01*
X235508333Y-205488095D01*
X235384523Y-205426190D01*
X235322619Y-205364285D01*
D10*
D11*
X10000000Y-60000000D02*
X12000000Y-60000000D01*
D10*
D11*
X10000000Y-110000000D02*
X12000000Y-110000000D01*
D10*
D11*
X10000000Y-160000000D02*
X12000000Y-160000000D01*
D10*
D11*
X10690476Y-35216666D02*
X11309523Y-35216666D01*
X10566666Y-35588095D02*
X11000000Y-34288095D01*
X11433333Y-35588095D01*
D10*
D11*
X11092857Y-84907142D02*
X11278571Y-84969047D01*
X11340476Y-85030952D01*
X11402380Y-85154761D01*
X11402380Y-85340476D01*
X11340476Y-85464285D01*
X11278571Y-85526190D01*
X11154761Y-85588095D01*
X10659523Y-85588095D01*
X10659523Y-84288095D01*
X11092857Y-84288095D01*
X11216666Y-84350000D01*
X11278571Y-84411904D01*
X11340476Y-84535714D01*
X11340476Y-84659523D01*
X11278571Y-84783333D01*
X11216666Y-84845238D01*
X11092857Y-84907142D01*
X10659523Y-84907142D01*
D10*
D11*
X11402380Y-135464285D02*
X11340476Y-135526190D01*
X11154761Y-135588095D01*
X11030952Y-135588095D01*
X10845238Y-135526190D01*
X10721428Y-135402380D01*
X10659523Y-135278571D01*
X10597619Y-135030952D01*
X10597619Y-134845238D01*
X10659523Y-134597619D01*
X10721428Y-134473809D01*
X10845238Y-134350000D01*
X11030952Y-134288095D01*
X11154761Y-134288095D01*
X11340476Y-134350000D01*
X11402380Y-134411904D01*
D10*
D11*
X10659523Y-185588095D02*
X10659523Y-184288095D01*
X10969047Y-184288095D01*
X11154761Y-184350000D01*
X11278571Y-184473809D01*
X11340476Y-184597619D01*
X11402380Y-184845238D01*
X11402380Y-185030952D01*
X11340476Y-185278571D01*
X11278571Y-185402380D01*
X11154761Y-185526190D01*
X10969047Y-185588095D01*
X10659523Y-185588095D01*
D10*
D11*
X269400000Y-60000000D02*
X267400000Y-60000000D01*
D10*
D11*
X269400000Y-110000000D02*
X267400000Y-110000000D01*
D10*
D11*
X269400000Y-160000000D02*
X267400000Y-160000000D01*
D10*
D11*
X268090476Y-35216666D02*
X268709523Y-35216666D01*
X267966666Y-35588095D02*
X268400000Y-34288095D01*
X268833333Y-35588095D01*
D10*
D11*
X268492857Y-84907142D02*
X268678571Y-84969047D01*
X268740476Y-85030952D01*
X268802380Y-85154761D01*
X268802380Y-85340476D01*
X268740476Y-85464285D01*
X268678571Y-85526190D01*
X268554761Y-85588095D01*
X268059523Y-85588095D01*
X268059523Y-84288095D01*
X268492857Y-84288095D01*
X268616666Y-84350000D01*
X268678571Y-84411904D01*
X268740476Y-84535714D01*
X268740476Y-84659523D01*
X268678571Y-84783333D01*
X268616666Y-84845238D01*
X268492857Y-84907142D01*
X268059523Y-84907142D01*
D10*
D11*
X268802380Y-135464285D02*
X268740476Y-135526190D01*
X268554761Y-135588095D01*
X268430952Y-135588095D01*
X268245238Y-135526190D01*
X268121428Y-135402380D01*
X268059523Y-135278571D01*
X267997619Y-135030952D01*
X267997619Y-134845238D01*
X268059523Y-134597619D01*
X268121428Y-134473809D01*
X268245238Y-134350000D01*
X268430952Y-134288095D01*
X268554761Y-134288095D01*
X268740476Y-134350000D01*
X268802380Y-134411904D01*
D10*
D11*
X268059523Y-185588095D02*
X268059523Y-184288095D01*
X268369047Y-184288095D01*
X268554761Y-184350000D01*
X268678571Y-184473809D01*
X268740476Y-184597619D01*
X268802380Y-184845238D01*
X268802380Y-185030952D01*
X268740476Y-185278571D01*
X268678571Y-185402380D01*
X268554761Y-185526190D01*
X268369047Y-185588095D01*
X268059523Y-185588095D01*
D10*
D11*
X182832142Y-199678571D02*
X182832142Y-198178571D01*
X183189285Y-198178571D01*
X183403571Y-198250000D01*
X183546428Y-198392857D01*
X183617857Y-198535714D01*
X183689285Y-198821428D01*
X183689285Y-199035714D01*
X183617857Y-199321428D01*
X183546428Y-199464285D01*
X183403571Y-199607142D01*
X183189285Y-199678571D01*
X182832142Y-199678571D01*
X184975000Y-199678571D02*
X184975000Y-198892857D01*
X184903571Y-198750000D01*
X184760714Y-198678571D01*
X184475000Y-198678571D01*
X184332142Y-198750000D01*
X184975000Y-199607142D02*
X184832142Y-199678571D01*
X184475000Y-199678571D01*
X184332142Y-199607142D01*
X184260714Y-199464285D01*
X184260714Y-199321428D01*
X184332142Y-199178571D01*
X184475000Y-199107142D01*
X184832142Y-199107142D01*
X184975000Y-199035714D01*
X185475000Y-198678571D02*
X186046428Y-198678571D01*
X185689285Y-198178571D02*
X185689285Y-199464285D01*
X185760714Y-199607142D01*
X185903571Y-199678571D01*
X186046428Y-199678571D01*
X187117857Y-199607142D02*
X186975000Y-199678571D01*
X186689285Y-199678571D01*
X186546428Y-199607142D01*
X186475000Y-199464285D01*
X186475000Y-198892857D01*
X186546428Y-198750000D01*
X186689285Y-198678571D01*
X186975000Y-198678571D01*
X187117857Y-198750000D01*
X187189285Y-198892857D01*
X187189285Y-199035714D01*
X186475000Y-199178571D01*
X187832142Y-199535714D02*
X187903571Y-199607142D01*
X187832142Y-199678571D01*
X187760714Y-199607142D01*
X187832142Y-199535714D01*
X187832142Y-199678571D01*
X187832142Y-198750000D02*
X187903571Y-198821428D01*
X187832142Y-198892857D01*
X187760714Y-198821428D01*
X187832142Y-198750000D01*
X187832142Y-198892857D01*
X189617857Y-198321428D02*
X189689285Y-198250000D01*
X189832142Y-198178571D01*
X190189285Y-198178571D01*
X190332142Y-198250000D01*
X190403571Y-198321428D01*
X190475000Y-198464285D01*
X190475000Y-198607142D01*
X190403571Y-198821428D01*
X189546428Y-199678571D01*
X190475000Y-199678571D01*
X191403571Y-198178571D02*
X191546428Y-198178571D01*
X191689285Y-198250000D01*
X191760714Y-198321428D01*
X191832142Y-198464285D01*
X191903571Y-198750000D01*
X191903571Y-199107142D01*
X191832142Y-199392857D01*
X191760714Y-199535714D01*
X191689285Y-199607142D01*
X191546428Y-199678571D01*
X191403571Y-199678571D01*
X191260714Y-199607142D01*
X191189285Y-199535714D01*
X191117857Y-199392857D01*
X191046428Y-199107142D01*
X191046428Y-198750000D01*
X191117857Y-198464285D01*
X191189285Y-198321428D01*
X191260714Y-198250000D01*
X191403571Y-198178571D01*
X192475000Y-198321428D02*
X192546428Y-198250000D01*
X192689285Y-198178571D01*
X193046428Y-198178571D01*
X193189285Y-198250000D01*
X193260714Y-198321428D01*
X193332142Y-198464285D01*
X193332142Y-198607142D01*
X193260714Y-198821428D01*
X192403571Y-199678571D01*
X193332142Y-199678571D01*
X194260714Y-198178571D02*
X194403571Y-198178571D01*
X194546428Y-198250000D01*
X194617857Y-198321428D01*
X194689285Y-198464285D01*
X194760714Y-198750000D01*
X194760714Y-199107142D01*
X194689285Y-199392857D01*
X194617857Y-199535714D01*
X194546428Y-199607142D01*
X194403571Y-199678571D01*
X194260714Y-199678571D01*
X194117857Y-199607142D01*
X194046428Y-199535714D01*
X193975000Y-199392857D01*
X193903571Y-199107142D01*
X193903571Y-198750000D01*
X193975000Y-198464285D01*
X194046428Y-198321428D01*
X194117857Y-198250000D01*
X194260714Y-198178571D01*
X195403571Y-199107142D02*
X196546428Y-199107142D01*
X197546428Y-198178571D02*
X197689285Y-198178571D01*
X197832142Y-198250000D01*
X197903571Y-198321428D01*
X197975000Y-198464285D01*
X198046428Y-198750000D01*
X198046428Y-199107142D01*
X197975000Y-199392857D01*
X197903571Y-199535714D01*
X197832142Y-199607142D01*
X197689285Y-199678571D01*
X197546428Y-199678571D01*
X197403571Y-199607142D01*
X197332142Y-199535714D01*
X197260714Y-199392857D01*
X197189285Y-199107142D01*
X197189285Y-198750000D01*
X197260714Y-198464285D01*
X197332142Y-198321428D01*
X197403571Y-198250000D01*
X197546428Y-198178571D01*
X199332142Y-198678571D02*
X199332142Y-199678571D01*
X198975000Y-198107142D02*
X198617857Y-199178571D01*
X199546428Y-199178571D01*
X200117857Y-199107142D02*
X201260714Y-199107142D01*
X201903571Y-198321428D02*
X201975000Y-198250000D01*
X202117857Y-198178571D01*
X202475000Y-198178571D01*
X202617857Y-198250000D01*
X202689285Y-198321428D01*
X202760714Y-198464285D01*
X202760714Y-198607142D01*
X202689285Y-198821428D01*
X201832142Y-199678571D01*
X202760714Y-199678571D01*
X203260714Y-198178571D02*
X204260714Y-198178571D01*
X203617857Y-199678571D01*
D10*
D11*
X159400000Y-200400000D02*
X267400000Y-200400000D01*
D10*
D11*
X160832142Y-202478571D02*
X160832142Y-200978571D01*
X161689285Y-202478571D02*
X161046428Y-201621428D01*
X161689285Y-200978571D02*
X160832142Y-201835714D01*
X162332142Y-202478571D02*
X162332142Y-201478571D01*
X162332142Y-200978571D02*
X162260714Y-201050000D01*
X162332142Y-201121428D01*
X162403571Y-201050000D01*
X162332142Y-200978571D01*
X162332142Y-201121428D01*
X163903571Y-202335714D02*
X163832142Y-202407142D01*
X163617857Y-202478571D01*
X163475000Y-202478571D01*
X163260714Y-202407142D01*
X163117857Y-202264285D01*
X163046428Y-202121428D01*
X162975000Y-201835714D01*
X162975000Y-201621428D01*
X163046428Y-201335714D01*
X163117857Y-201192857D01*
X163260714Y-201050000D01*
X163475000Y-200978571D01*
X163617857Y-200978571D01*
X163832142Y-201050000D01*
X163903571Y-201121428D01*
X165189285Y-202478571D02*
X165189285Y-201692857D01*
X165117857Y-201550000D01*
X164975000Y-201478571D01*
X164689285Y-201478571D01*
X164546428Y-201550000D01*
X165189285Y-202407142D02*
X165046428Y-202478571D01*
X164689285Y-202478571D01*
X164546428Y-202407142D01*
X164475000Y-202264285D01*
X164475000Y-202121428D01*
X164546428Y-201978571D01*
X164689285Y-201907142D01*
X165046428Y-201907142D01*
X165189285Y-201835714D01*
X166546428Y-202478571D02*
X166546428Y-200978571D01*
X166546428Y-202407142D02*
X166403571Y-202478571D01*
X166117857Y-202478571D01*
X165975000Y-202407142D01*
X165903571Y-202335714D01*
X165832142Y-202192857D01*
X165832142Y-201764285D01*
X165903571Y-201621428D01*
X165975000Y-201550000D01*
X166117857Y-201478571D01*
X166403571Y-201478571D01*
X166546428Y-201550000D01*
X168403571Y-201692857D02*
X168903571Y-201692857D01*
X169117857Y-202478571D02*
X168403571Y-202478571D01*
X168403571Y-200978571D01*
X169117857Y-200978571D01*
X169760714Y-202335714D02*
X169832142Y-202407142D01*
X169760714Y-202478571D01*
X169689285Y-202407142D01*
X169760714Y-202335714D01*
X169760714Y-202478571D01*
X170475000Y-202478571D02*
X170475000Y-200978571D01*
X170832142Y-200978571D01*
X171046428Y-201050000D01*
X171189285Y-201192857D01*
X171260714Y-201335714D01*
X171332142Y-201621428D01*
X171332142Y-201835714D01*
X171260714Y-202121428D01*
X171189285Y-202264285D01*
X171046428Y-202407142D01*
X170832142Y-202478571D01*
X170475000Y-202478571D01*
X171975000Y-202335714D02*
X172046428Y-202407142D01*
X171975000Y-202478571D01*
X171903571Y-202407142D01*
X171975000Y-202335714D01*
X171975000Y-202478571D01*
X172617857Y-202050000D02*
X173332142Y-202050000D01*
X172475000Y-202478571D02*
X172975000Y-200978571D01*
X173475000Y-202478571D01*
X173975000Y-202335714D02*
X174046428Y-202407142D01*
X173975000Y-202478571D01*
X173903571Y-202407142D01*
X173975000Y-202335714D01*
X173975000Y-202478571D01*
X176975000Y-202478571D02*
X176975000Y-200978571D01*
X177117857Y-201907142D02*
X177546428Y-202478571D01*
X177546428Y-201478571D02*
X176975000Y-202050000D01*
X178189285Y-202478571D02*
X178189285Y-201478571D01*
X178189285Y-200978571D02*
X178117857Y-201050000D01*
X178189285Y-201121428D01*
X178260714Y-201050000D01*
X178189285Y-200978571D01*
X178189285Y-201121428D01*
X179546428Y-202407142D02*
X179403571Y-202478571D01*
X179117857Y-202478571D01*
X178975000Y-202407142D01*
X178903571Y-202335714D01*
X178832142Y-202192857D01*
X178832142Y-201764285D01*
X178903571Y-201621428D01*
X178975000Y-201550000D01*
X179117857Y-201478571D01*
X179403571Y-201478571D01*
X179546428Y-201550000D01*
X180832142Y-202478571D02*
X180832142Y-201692857D01*
X180760714Y-201550000D01*
X180617857Y-201478571D01*
X180332142Y-201478571D01*
X180189285Y-201550000D01*
X180832142Y-202407142D02*
X180689285Y-202478571D01*
X180332142Y-202478571D01*
X180189285Y-202407142D01*
X180117857Y-202264285D01*
X180117857Y-202121428D01*
X180189285Y-201978571D01*
X180332142Y-201907142D01*
X180689285Y-201907142D01*
X180832142Y-201835714D01*
X182189285Y-202478571D02*
X182189285Y-200978571D01*
X182189285Y-202407142D02*
X182046428Y-202478571D01*
X181760714Y-202478571D01*
X181617857Y-202407142D01*
X181546428Y-202335714D01*
X181475000Y-202192857D01*
X181475000Y-201764285D01*
X181546428Y-201621428D01*
X181617857Y-201550000D01*
X181760714Y-201478571D01*
X182046428Y-201478571D01*
X182189285Y-201550000D01*
X184475000Y-203050000D02*
X184403571Y-202978571D01*
X184260714Y-202764285D01*
X184189285Y-202621428D01*
X184117857Y-202407142D01*
X184046428Y-202050000D01*
X184046428Y-201764285D01*
X184117857Y-201407142D01*
X184189285Y-201192857D01*
X184260714Y-201050000D01*
X184403571Y-200835714D01*
X184475000Y-200764285D01*
X185760714Y-200978571D02*
X185046428Y-200978571D01*
X184975000Y-201692857D01*
X185046428Y-201621428D01*
X185189285Y-201550000D01*
X185546428Y-201550000D01*
X185689285Y-201621428D01*
X185760714Y-201692857D01*
X185832142Y-201835714D01*
X185832142Y-202192857D01*
X185760714Y-202335714D01*
X185689285Y-202407142D01*
X185546428Y-202478571D01*
X185189285Y-202478571D01*
X185046428Y-202407142D01*
X184975000Y-202335714D01*
X186475000Y-202335714D02*
X186546428Y-202407142D01*
X186475000Y-202478571D01*
X186403571Y-202407142D01*
X186475000Y-202335714D01*
X186475000Y-202478571D01*
X187975000Y-202478571D02*
X187117857Y-202478571D01*
X187546428Y-202478571D02*
X187546428Y-200978571D01*
X187403571Y-201192857D01*
X187260714Y-201335714D01*
X187117857Y-201407142D01*
X188617857Y-202335714D02*
X188689285Y-202407142D01*
X188617857Y-202478571D01*
X188546428Y-202407142D01*
X188617857Y-202335714D01*
X188617857Y-202478571D01*
X189975000Y-201478571D02*
X189975000Y-202478571D01*
X189617857Y-200907142D02*
X189260714Y-201978571D01*
X190189285Y-201978571D01*
X190617857Y-203050000D02*
X190689285Y-202978571D01*
X190832142Y-202764285D01*
X190903571Y-202621428D01*
X190975000Y-202407142D01*
X191046428Y-202050000D01*
X191046428Y-201764285D01*
X190975000Y-201407142D01*
X190903571Y-201192857D01*
X190832142Y-201050000D01*
X190689285Y-200835714D01*
X190617857Y-200764285D01*
X191760714Y-201907142D02*
X192903571Y-201907142D01*
X194403571Y-202478571D02*
X193546428Y-202478571D01*
X193975000Y-202478571D02*
X193975000Y-200978571D01*
X193832142Y-201192857D01*
X193689285Y-201335714D01*
X193546428Y-201407142D01*
D10*
D11*
X159400000Y-197400000D02*
X267400000Y-197400000D01*
D10*
D12*
X246809285Y-199678571D02*
X246309285Y-198964285D01*
X245952142Y-199678571D02*
X245952142Y-198178571D01*
X246523571Y-198178571D01*
X246666428Y-198250000D01*
X246737857Y-198321428D01*
X246809285Y-198464285D01*
X246809285Y-198678571D01*
X246737857Y-198821428D01*
X246666428Y-198892857D01*
X246523571Y-198964285D01*
X245952142Y-198964285D01*
X248023571Y-199607142D02*
X247880714Y-199678571D01*
X247595000Y-199678571D01*
X247452142Y-199607142D01*
X247380714Y-199464285D01*
X247380714Y-198892857D01*
X247452142Y-198750000D01*
X247595000Y-198678571D01*
X247880714Y-198678571D01*
X248023571Y-198750000D01*
X248095000Y-198892857D01*
X248095000Y-199035714D01*
X247380714Y-199178571D01*
X248595000Y-198678571D02*
X248952142Y-199678571D01*
X249309285Y-198678571D01*
X249880714Y-199535714D02*
X249952142Y-199607142D01*
X249880714Y-199678571D01*
X249809285Y-199607142D01*
X249880714Y-199535714D01*
X249880714Y-199678571D01*
X249880714Y-198750000D02*
X249952142Y-198821428D01*
X249880714Y-198892857D01*
X249809285Y-198821428D01*
X249880714Y-198750000D01*
X249880714Y-198892857D01*
X251666428Y-198321428D02*
X251737857Y-198250000D01*
X251880714Y-198178571D01*
X252237857Y-198178571D01*
X252380714Y-198250000D01*
X252452142Y-198321428D01*
X252523571Y-198464285D01*
X252523571Y-198607142D01*
X252452142Y-198821428D01*
X251595000Y-199678571D01*
X252523571Y-199678571D01*
X253166428Y-199535714D02*
X253237857Y-199607142D01*
X253166428Y-199678571D01*
X253095000Y-199607142D01*
X253166428Y-199535714D01*
X253166428Y-199678571D01*
X253737857Y-198178571D02*
X254666428Y-198178571D01*
X254166428Y-198750000D01*
X254380714Y-198750000D01*
X254523571Y-198821428D01*
X254595000Y-198892857D01*
X254666428Y-199035714D01*
X254666428Y-199392857D01*
X254595000Y-199535714D01*
X254523571Y-199607142D01*
X254380714Y-199678571D01*
X253952142Y-199678571D01*
X253809285Y-199607142D01*
X253737857Y-199535714D01*
D10*
D11*
X160760714Y-199607142D02*
X160975000Y-199678571D01*
X161332142Y-199678571D01*
X161475000Y-199607142D01*
X161546428Y-199535714D01*
X161617857Y-199392857D01*
X161617857Y-199250000D01*
X161546428Y-199107142D01*
X161475000Y-199035714D01*
X161332142Y-198964285D01*
X161046428Y-198892857D01*
X160903571Y-198821428D01*
X160832142Y-198750000D01*
X160760714Y-198607142D01*
X160760714Y-198464285D01*
X160832142Y-198321428D01*
X160903571Y-198250000D01*
X161046428Y-198178571D01*
X161403571Y-198178571D01*
X161617857Y-198250000D01*
X162260714Y-199678571D02*
X162260714Y-198678571D01*
X162260714Y-198178571D02*
X162189285Y-198250000D01*
X162260714Y-198321428D01*
X162332142Y-198250000D01*
X162260714Y-198178571D01*
X162260714Y-198321428D01*
X162832142Y-198678571D02*
X163617857Y-198678571D01*
X162832142Y-199678571D01*
X163617857Y-199678571D01*
X164760714Y-199607142D02*
X164617857Y-199678571D01*
X164332142Y-199678571D01*
X164189285Y-199607142D01*
X164117857Y-199464285D01*
X164117857Y-198892857D01*
X164189285Y-198750000D01*
X164332142Y-198678571D01*
X164617857Y-198678571D01*
X164760714Y-198750000D01*
X164832142Y-198892857D01*
X164832142Y-199035714D01*
X164117857Y-199178571D01*
X165475000Y-199535714D02*
X165546428Y-199607142D01*
X165475000Y-199678571D01*
X165403571Y-199607142D01*
X165475000Y-199535714D01*
X165475000Y-199678571D01*
X165475000Y-198750000D02*
X165546428Y-198821428D01*
X165475000Y-198892857D01*
X165403571Y-198821428D01*
X165475000Y-198750000D01*
X165475000Y-198892857D01*
X167332142Y-198178571D02*
X167332142Y-199392857D01*
X167403571Y-199535714D01*
X167475000Y-199607142D01*
X167617857Y-199678571D01*
X167903571Y-199678571D01*
X168046428Y-199607142D01*
X168117857Y-199535714D01*
X168189285Y-199392857D01*
X168189285Y-198178571D01*
X168832142Y-199607142D02*
X169046428Y-199678571D01*
X169403571Y-199678571D01*
X169546428Y-199607142D01*
X169617857Y-199535714D01*
X169689285Y-199392857D01*
X169689285Y-199250000D01*
X169617857Y-199107142D01*
X169546428Y-199035714D01*
X169403571Y-198964285D01*
X169117857Y-198892857D01*
X168975000Y-198821428D01*
X168903571Y-198750000D01*
X168832142Y-198607142D01*
X168832142Y-198464285D01*
X168903571Y-198321428D01*
X168975000Y-198250000D01*
X169117857Y-198178571D01*
X169475000Y-198178571D01*
X169689285Y-198250000D01*
X171046428Y-199678571D02*
X170332142Y-199678571D01*
X170332142Y-198178571D01*
X172117857Y-199607142D02*
X171975000Y-199678571D01*
X171689285Y-199678571D01*
X171546428Y-199607142D01*
X171475000Y-199464285D01*
X171475000Y-198892857D01*
X171546428Y-198750000D01*
X171689285Y-198678571D01*
X171975000Y-198678571D01*
X172117857Y-198750000D01*
X172189285Y-198892857D01*
X172189285Y-199035714D01*
X171475000Y-199178571D01*
X172617857Y-198678571D02*
X173189285Y-198678571D01*
X172832142Y-198178571D02*
X172832142Y-199464285D01*
X172903571Y-199607142D01*
X173046428Y-199678571D01*
X173189285Y-199678571D01*
X173475000Y-198678571D02*
X174046428Y-198678571D01*
X173689285Y-198178571D02*
X173689285Y-199464285D01*
X173760714Y-199607142D01*
X173903571Y-199678571D01*
X174046428Y-199678571D01*
X175117857Y-199607142D02*
X174975000Y-199678571D01*
X174689285Y-199678571D01*
X174546428Y-199607142D01*
X174475000Y-199464285D01*
X174475000Y-198892857D01*
X174546428Y-198750000D01*
X174689285Y-198678571D01*
X174975000Y-198678571D01*
X175117857Y-198750000D01*
X175189285Y-198892857D01*
X175189285Y-199035714D01*
X174475000Y-199178571D01*
X175832142Y-199678571D02*
X175832142Y-198678571D01*
X175832142Y-198964285D02*
X175903571Y-198821428D01*
X175975000Y-198750000D01*
X176117857Y-198678571D01*
X176260714Y-198678571D01*
D10*
D11*
X245832142Y-202478571D02*
X245832142Y-200978571D01*
X247189285Y-202478571D02*
X247189285Y-200978571D01*
X247189285Y-202407142D02*
X247046428Y-202478571D01*
X246760714Y-202478571D01*
X246617857Y-202407142D01*
X246546428Y-202335714D01*
X246475000Y-202192857D01*
X246475000Y-201764285D01*
X246546428Y-201621428D01*
X246617857Y-201550000D01*
X246760714Y-201478571D01*
X247046428Y-201478571D01*
X247189285Y-201550000D01*
X247903571Y-202335714D02*
X247975000Y-202407142D01*
X247903571Y-202478571D01*
X247832142Y-202407142D01*
X247903571Y-202335714D01*
X247903571Y-202478571D01*
X247903571Y-201550000D02*
X247975000Y-201621428D01*
X247903571Y-201692857D01*
X247832142Y-201621428D01*
X247903571Y-201550000D01*
X247903571Y-201692857D01*
X250546428Y-202478571D02*
X249689285Y-202478571D01*
X250117857Y-202478571D02*
X250117857Y-200978571D01*
X249975000Y-201192857D01*
X249832142Y-201335714D01*
X249689285Y-201407142D01*
X252260714Y-200907142D02*
X250975000Y-202835714D01*
X253546428Y-202478571D02*
X252689285Y-202478571D01*
X253117857Y-202478571D02*
X253117857Y-200978571D01*
X252975000Y-201192857D01*
X252832142Y-201335714D01*
X252689285Y-201407142D01*
D10*
D11*
X159400000Y-193400000D02*
X267400000Y-193400000D01*
D10*
D13*
X161112380Y-194104761D02*
X162255238Y-194104761D01*
X161433809Y-196104761D02*
X161683809Y-194104761D01*
X162671904Y-196104761D02*
X162838571Y-194771428D01*
X162921904Y-194104761D02*
X162814761Y-194200000D01*
X162898095Y-194295238D01*
X163005238Y-194200000D01*
X162921904Y-194104761D01*
X162898095Y-194295238D01*
X163505238Y-194771428D02*
X164267142Y-194771428D01*
X163874285Y-194104761D02*
X163660000Y-195819047D01*
X163731428Y-196009523D01*
X163910000Y-196104761D01*
X164100476Y-196104761D01*
X165052857Y-196104761D02*
X164874285Y-196009523D01*
X164802857Y-195819047D01*
X165017142Y-194104761D01*
X166588571Y-196009523D02*
X166386190Y-196104761D01*
X166005238Y-196104761D01*
X165826666Y-196009523D01*
X165755238Y-195819047D01*
X165850476Y-195057142D01*
X165969523Y-194866666D01*
X166171904Y-194771428D01*
X166552857Y-194771428D01*
X166731428Y-194866666D01*
X166802857Y-195057142D01*
X166779047Y-195247619D01*
X165802857Y-195438095D01*
X167552857Y-195914285D02*
X167636190Y-196009523D01*
X167529047Y-196104761D01*
X167445714Y-196009523D01*
X167552857Y-195914285D01*
X167529047Y-196104761D01*
X167683809Y-194866666D02*
X167767142Y-194961904D01*
X167660000Y-195057142D01*
X167576666Y-194961904D01*
X167683809Y-194866666D01*
X167660000Y-195057142D01*
X170005238Y-196104761D02*
X170255238Y-194104761D01*
X172648095Y-194009523D02*
X170612380Y-196580952D01*
X173683809Y-194104761D02*
X174064761Y-194104761D01*
X174243333Y-194200000D01*
X174410000Y-194390476D01*
X174457619Y-194771428D01*
X174374285Y-195438095D01*
X174231428Y-195819047D01*
X174017142Y-196009523D01*
X173814761Y-196104761D01*
X173433809Y-196104761D01*
X173255238Y-196009523D01*
X173088571Y-195819047D01*
X173040952Y-195438095D01*
X173124285Y-194771428D01*
X173267142Y-194390476D01*
X173481428Y-194200000D01*
X173683809Y-194104761D01*
X177469523Y-195057142D02*
X177743333Y-195152380D01*
X177826666Y-195247619D01*
X177898095Y-195438095D01*
X177862380Y-195723809D01*
X177743333Y-195914285D01*
X177636190Y-196009523D01*
X177433809Y-196104761D01*
X176671904Y-196104761D01*
X176921904Y-194104761D01*
X177588571Y-194104761D01*
X177767142Y-194200000D01*
X177850476Y-194295238D01*
X177921904Y-194485714D01*
X177898095Y-194676190D01*
X177779047Y-194866666D01*
X177671904Y-194961904D01*
X177469523Y-195057142D01*
X176802857Y-195057142D01*
X178957619Y-196104761D02*
X178779047Y-196009523D01*
X178695714Y-195914285D01*
X178624285Y-195723809D01*
X178695714Y-195152380D01*
X178814761Y-194961904D01*
X178921904Y-194866666D01*
X179124285Y-194771428D01*
X179410000Y-194771428D01*
X179588571Y-194866666D01*
X179671904Y-194961904D01*
X179743333Y-195152380D01*
X179671904Y-195723809D01*
X179552857Y-195914285D01*
X179445714Y-196009523D01*
X179243333Y-196104761D01*
X178957619Y-196104761D01*
X181338571Y-196104761D02*
X181469523Y-195057142D01*
X181398095Y-194866666D01*
X181219523Y-194771428D01*
X180838571Y-194771428D01*
X180636190Y-194866666D01*
X181350476Y-196009523D02*
X181148095Y-196104761D01*
X180671904Y-196104761D01*
X180493333Y-196009523D01*
X180421904Y-195819047D01*
X180445714Y-195628571D01*
X180564761Y-195438095D01*
X180767142Y-195342857D01*
X181243333Y-195342857D01*
X181445714Y-195247619D01*
X182290952Y-196104761D02*
X182457619Y-194771428D01*
X182410000Y-195152380D02*
X182529047Y-194961904D01*
X182636190Y-194866666D01*
X182838571Y-194771428D01*
X183029047Y-194771428D01*
X184386190Y-196104761D02*
X184636190Y-194104761D01*
X184398095Y-196009523D02*
X184195714Y-196104761D01*
X183814761Y-196104761D01*
X183636190Y-196009523D01*
X183552857Y-195914285D01*
X183481428Y-195723809D01*
X183552857Y-195152380D01*
X183671904Y-194961904D01*
X183779047Y-194866666D01*
X183981428Y-194771428D01*
X184362380Y-194771428D01*
X184540952Y-194866666D01*
X187814761Y-196104761D02*
X186862380Y-196104761D01*
X187112380Y-194104761D01*
X189338571Y-196104761D02*
X189469523Y-195057142D01*
X189398095Y-194866666D01*
X189219523Y-194771428D01*
X188838571Y-194771428D01*
X188636190Y-194866666D01*
X189350476Y-196009523D02*
X189148095Y-196104761D01*
X188671904Y-196104761D01*
X188493333Y-196009523D01*
X188421904Y-195819047D01*
X188445714Y-195628571D01*
X188564761Y-195438095D01*
X188767142Y-195342857D01*
X189243333Y-195342857D01*
X189445714Y-195247619D01*
X190267142Y-194771428D02*
X190576666Y-196104761D01*
X191219523Y-194771428D02*
X190576666Y-196104761D01*
X190326666Y-196580952D01*
X190219523Y-196676190D01*
X190017142Y-196771428D01*
X192100476Y-196104761D02*
X191921904Y-196009523D01*
X191838571Y-195914285D01*
X191767142Y-195723809D01*
X191838571Y-195152380D01*
X191957619Y-194961904D01*
X192064761Y-194866666D01*
X192267142Y-194771428D01*
X192552857Y-194771428D01*
X192731428Y-194866666D01*
X192814761Y-194961904D01*
X192886190Y-195152380D01*
X192814761Y-195723809D01*
X192695714Y-195914285D01*
X192588571Y-196009523D01*
X192386190Y-196104761D01*
X192100476Y-196104761D01*
X194648095Y-194771428D02*
X194481428Y-196104761D01*
X193790952Y-194771428D02*
X193660000Y-195819047D01*
X193731428Y-196009523D01*
X193910000Y-196104761D01*
X194195714Y-196104761D01*
X194398095Y-196009523D01*
X194505238Y-195914285D01*
X195314761Y-194771428D02*
X196076666Y-194771428D01*
X195683809Y-194104761D02*
X195469523Y-195819047D01*
X195540952Y-196009523D01*
X195719523Y-196104761D01*
X195910000Y-196104761D01*
D10*
D11*
X161332142Y-191492857D02*
X160832142Y-191492857D01*
X160832142Y-192278571D02*
X160832142Y-190778571D01*
X161546428Y-190778571D01*
X162117857Y-192278571D02*
X162117857Y-191278571D01*
X162117857Y-190778571D02*
X162046428Y-190850000D01*
X162117857Y-190921428D01*
X162189285Y-190850000D01*
X162117857Y-190778571D01*
X162117857Y-190921428D01*
X163046428Y-192278571D02*
X162903571Y-192207142D01*
X162832142Y-192064285D01*
X162832142Y-190778571D01*
X164189285Y-192207142D02*
X164046428Y-192278571D01*
X163760714Y-192278571D01*
X163617857Y-192207142D01*
X163546428Y-192064285D01*
X163546428Y-191492857D01*
X163617857Y-191350000D01*
X163760714Y-191278571D01*
X164046428Y-191278571D01*
X164189285Y-191350000D01*
X164260714Y-191492857D01*
X164260714Y-191635714D01*
X163546428Y-191778571D01*
X164903571Y-192135714D02*
X164975000Y-192207142D01*
X164903571Y-192278571D01*
X164832142Y-192207142D01*
X164903571Y-192135714D01*
X164903571Y-192278571D01*
X164903571Y-191350000D02*
X164975000Y-191421428D01*
X164903571Y-191492857D01*
X164832142Y-191421428D01*
X164903571Y-191350000D01*
X164903571Y-191492857D01*
X166760714Y-192278571D02*
X166760714Y-190778571D01*
X167760714Y-190778571D02*
X168046428Y-190778571D01*
X168189285Y-190850000D01*
X168332142Y-190992857D01*
X168403571Y-191278571D01*
X168403571Y-191778571D01*
X168332142Y-192064285D01*
X168189285Y-192207142D01*
X168046428Y-192278571D01*
X167760714Y-192278571D01*
X167617857Y-192207142D01*
X167475000Y-192064285D01*
X167403571Y-191778571D01*
X167403571Y-191278571D01*
X167475000Y-190992857D01*
X167617857Y-190850000D01*
X167760714Y-190778571D01*
X170689285Y-191492857D02*
X170903571Y-191564285D01*
X170975000Y-191635714D01*
X171046428Y-191778571D01*
X171046428Y-191992857D01*
X170975000Y-192135714D01*
X170903571Y-192207142D01*
X170760714Y-192278571D01*
X170189285Y-192278571D01*
X170189285Y-190778571D01*
X170689285Y-190778571D01*
X170832142Y-190850000D01*
X170903571Y-190921428D01*
X170975000Y-191064285D01*
X170975000Y-191207142D01*
X170903571Y-191350000D01*
X170832142Y-191421428D01*
X170689285Y-191492857D01*
X170189285Y-191492857D01*
X171903571Y-192278571D02*
X171760714Y-192207142D01*
X171689285Y-192135714D01*
X171617857Y-191992857D01*
X171617857Y-191564285D01*
X171689285Y-191421428D01*
X171760714Y-191350000D01*
X171903571Y-191278571D01*
X172117857Y-191278571D01*
X172260714Y-191350000D01*
X172332142Y-191421428D01*
X172403571Y-191564285D01*
X172403571Y-191992857D01*
X172332142Y-192135714D01*
X172260714Y-192207142D01*
X172117857Y-192278571D01*
X171903571Y-192278571D01*
X173689285Y-192278571D02*
X173689285Y-191492857D01*
X173617857Y-191350000D01*
X173475000Y-191278571D01*
X173189285Y-191278571D01*
X173046428Y-191350000D01*
X173689285Y-192207142D02*
X173546428Y-192278571D01*
X173189285Y-192278571D01*
X173046428Y-192207142D01*
X172975000Y-192064285D01*
X172975000Y-191921428D01*
X173046428Y-191778571D01*
X173189285Y-191707142D01*
X173546428Y-191707142D01*
X173689285Y-191635714D01*
X174403571Y-192278571D02*
X174403571Y-191278571D01*
X174403571Y-191564285D02*
X174475000Y-191421428D01*
X174546428Y-191350000D01*
X174689285Y-191278571D01*
X174832142Y-191278571D01*
X175975000Y-192278571D02*
X175975000Y-190778571D01*
X175975000Y-192207142D02*
X175832142Y-192278571D01*
X175546428Y-192278571D01*
X175403571Y-192207142D01*
X175332142Y-192135714D01*
X175260714Y-191992857D01*
X175260714Y-191564285D01*
X175332142Y-191421428D01*
X175403571Y-191350000D01*
X175546428Y-191278571D01*
X175832142Y-191278571D01*
X175975000Y-191350000D01*
X176689285Y-192135714D02*
X176760714Y-192207142D01*
X176689285Y-192278571D01*
X176617857Y-192207142D01*
X176689285Y-192135714D01*
X176689285Y-192278571D01*
X177403571Y-192278571D02*
X177403571Y-190778571D01*
X177546428Y-191707142D02*
X177975000Y-192278571D01*
X177975000Y-191278571D02*
X177403571Y-191850000D01*
X178617857Y-192278571D02*
X178617857Y-191278571D01*
X178617857Y-190778571D02*
X178546428Y-190850000D01*
X178617857Y-190921428D01*
X178689285Y-190850000D01*
X178617857Y-190778571D01*
X178617857Y-190921428D01*
X179975000Y-192207142D02*
X179832142Y-192278571D01*
X179546428Y-192278571D01*
X179403571Y-192207142D01*
X179332142Y-192135714D01*
X179260714Y-191992857D01*
X179260714Y-191564285D01*
X179332142Y-191421428D01*
X179403571Y-191350000D01*
X179546428Y-191278571D01*
X179832142Y-191278571D01*
X179975000Y-191350000D01*
X181260714Y-192278571D02*
X181260714Y-191492857D01*
X181189285Y-191350000D01*
X181046428Y-191278571D01*
X180760714Y-191278571D01*
X180617857Y-191350000D01*
X181260714Y-192207142D02*
X181117857Y-192278571D01*
X180760714Y-192278571D01*
X180617857Y-192207142D01*
X180546428Y-192064285D01*
X180546428Y-191921428D01*
X180617857Y-191778571D01*
X180760714Y-191707142D01*
X181117857Y-191707142D01*
X181260714Y-191635714D01*
X182617857Y-192278571D02*
X182617857Y-190778571D01*
X182617857Y-192207142D02*
X182475000Y-192278571D01*
X182189285Y-192278571D01*
X182046428Y-192207142D01*
X181975000Y-192135714D01*
X181903571Y-191992857D01*
X181903571Y-191564285D01*
X181975000Y-191421428D01*
X182046428Y-191350000D01*
X182189285Y-191278571D01*
X182475000Y-191278571D01*
X182617857Y-191350000D01*
X182975000Y-192421428D02*
X184117857Y-192421428D01*
X184475000Y-191278571D02*
X184475000Y-192778571D01*
X184475000Y-191350000D02*
X184617857Y-191278571D01*
X184903571Y-191278571D01*
X185046428Y-191350000D01*
X185117857Y-191421428D01*
X185189285Y-191564285D01*
X185189285Y-191992857D01*
X185117857Y-192135714D01*
X185046428Y-192207142D01*
X184903571Y-192278571D01*
X184617857Y-192278571D01*
X184475000Y-192207142D01*
X186475000Y-192207142D02*
X186332142Y-192278571D01*
X186046428Y-192278571D01*
X185903571Y-192207142D01*
X185832142Y-192135714D01*
X185760714Y-191992857D01*
X185760714Y-191564285D01*
X185832142Y-191421428D01*
X185903571Y-191350000D01*
X186046428Y-191278571D01*
X186332142Y-191278571D01*
X186475000Y-191350000D01*
X187117857Y-192278571D02*
X187117857Y-190778571D01*
X187117857Y-191350000D02*
X187260714Y-191278571D01*
X187546428Y-191278571D01*
X187689285Y-191350000D01*
X187760714Y-191421428D01*
X187832142Y-191564285D01*
X187832142Y-191992857D01*
X187760714Y-192135714D01*
X187689285Y-192207142D01*
X187546428Y-192278571D01*
X187260714Y-192278571D01*
X187117857Y-192207142D01*
D10*
D11*
X159400000Y-187400000D02*
X267400000Y-187400000D01*
D10*
D11*
X160760714Y-189507142D02*
X160975000Y-189578571D01*
X161332142Y-189578571D01*
X161475000Y-189507142D01*
X161546428Y-189435714D01*
X161617857Y-189292857D01*
X161617857Y-189150000D01*
X161546428Y-189007142D01*
X161475000Y-188935714D01*
X161332142Y-188864285D01*
X161046428Y-188792857D01*
X160903571Y-188721428D01*
X160832142Y-188650000D01*
X160760714Y-188507142D01*
X160760714Y-188364285D01*
X160832142Y-188221428D01*
X160903571Y-188150000D01*
X161046428Y-188078571D01*
X161403571Y-188078571D01*
X161617857Y-188150000D01*
X162260714Y-189578571D02*
X162260714Y-188078571D01*
X162903571Y-189578571D02*
X162903571Y-188792857D01*
X162832142Y-188650000D01*
X162689285Y-188578571D01*
X162475000Y-188578571D01*
X162332142Y-188650000D01*
X162260714Y-188721428D01*
X164189285Y-189507142D02*
X164046428Y-189578571D01*
X163760714Y-189578571D01*
X163617857Y-189507142D01*
X163546428Y-189364285D01*
X163546428Y-188792857D01*
X163617857Y-188650000D01*
X163760714Y-188578571D01*
X164046428Y-188578571D01*
X164189285Y-188650000D01*
X164260714Y-188792857D01*
X164260714Y-188935714D01*
X163546428Y-189078571D01*
X165475000Y-189507142D02*
X165332142Y-189578571D01*
X165046428Y-189578571D01*
X164903571Y-189507142D01*
X164832142Y-189364285D01*
X164832142Y-188792857D01*
X164903571Y-188650000D01*
X165046428Y-188578571D01*
X165332142Y-188578571D01*
X165475000Y-188650000D01*
X165546428Y-188792857D01*
X165546428Y-188935714D01*
X164832142Y-189078571D01*
X165975000Y-188578571D02*
X166546428Y-188578571D01*
X166189285Y-188078571D02*
X166189285Y-189364285D01*
X166260714Y-189507142D01*
X166403571Y-189578571D01*
X166546428Y-189578571D01*
X167046428Y-189435714D02*
X167117857Y-189507142D01*
X167046428Y-189578571D01*
X166975000Y-189507142D01*
X167046428Y-189435714D01*
X167046428Y-189578571D01*
X167046428Y-188650000D02*
X167117857Y-188721428D01*
X167046428Y-188792857D01*
X166975000Y-188721428D01*
X167046428Y-188650000D01*
X167046428Y-188792857D01*
D10*
D11*
X179400000Y-197400000D02*
X179400000Y-200400000D01*
D10*
D11*
X243400000Y-197400000D02*
X243400000Y-203900000D01*
D12*
X226612142Y-43853571D02*
X226612142Y-42353571D01*
X228397857Y-42282142D02*
X227112142Y-44210714D01*
X229183571Y-42353571D02*
X229469285Y-42353571D01*
X229612142Y-42425000D01*
X229755000Y-42567857D01*
X229826428Y-42853571D01*
X229826428Y-43353571D01*
X229755000Y-43639285D01*
X229612142Y-43782142D01*
X229469285Y-43853571D01*
X229183571Y-43853571D01*
X229040714Y-43782142D01*
X228897857Y-43639285D01*
X228826428Y-43353571D01*
X228826428Y-42853571D01*
X228897857Y-42567857D01*
X229040714Y-42425000D01*
X229183571Y-42353571D01*
X232112142Y-43067857D02*
X232326428Y-43139285D01*
X232397857Y-43210714D01*
X232469285Y-43353571D01*
X232469285Y-43567857D01*
X232397857Y-43710714D01*
X232326428Y-43782142D01*
X232183571Y-43853571D01*
X231612142Y-43853571D01*
X231612142Y-42353571D01*
X232112142Y-42353571D01*
X232255000Y-42425000D01*
X232326428Y-42496428D01*
X232397857Y-42639285D01*
X232397857Y-42782142D01*
X232326428Y-42925000D01*
X232255000Y-42996428D01*
X232112142Y-43067857D01*
X231612142Y-43067857D01*
X233326428Y-43853571D02*
X233183571Y-43782142D01*
X233112142Y-43710714D01*
X233040714Y-43567857D01*
X233040714Y-43139285D01*
X233112142Y-42996428D01*
X233183571Y-42925000D01*
X233326428Y-42853571D01*
X233540714Y-42853571D01*
X233683571Y-42925000D01*
X233755000Y-42996428D01*
X233826428Y-43139285D01*
X233826428Y-43567857D01*
X233755000Y-43710714D01*
X233683571Y-43782142D01*
X233540714Y-43853571D01*
X233326428Y-43853571D01*
X235112142Y-43853571D02*
X235112142Y-43067857D01*
X235040714Y-42925000D01*
X234897857Y-42853571D01*
X234612142Y-42853571D01*
X234469285Y-42925000D01*
X235112142Y-43782142D02*
X234969285Y-43853571D01*
X234612142Y-43853571D01*
X234469285Y-43782142D01*
X234397857Y-43639285D01*
X234397857Y-43496428D01*
X234469285Y-43353571D01*
X234612142Y-43282142D01*
X234969285Y-43282142D01*
X235112142Y-43210714D01*
X235826428Y-43853571D02*
X235826428Y-42853571D01*
X235826428Y-43139285D02*
X235897857Y-42996428D01*
X235969285Y-42925000D01*
X236112142Y-42853571D01*
X236255000Y-42853571D01*
X237397857Y-43853571D02*
X237397857Y-42353571D01*
X237397857Y-43782142D02*
X237255000Y-43853571D01*
X236969285Y-43853571D01*
X236826428Y-43782142D01*
X236755000Y-43710714D01*
X236683571Y-43567857D01*
X236683571Y-43139285D01*
X236755000Y-42996428D01*
X236826428Y-42925000D01*
X236969285Y-42853571D01*
X237255000Y-42853571D01*
X237397857Y-42925000D01*
X240112142Y-43853571D02*
X239612142Y-43139285D01*
X239255000Y-43853571D02*
X239255000Y-42353571D01*
X239826428Y-42353571D01*
X239969285Y-42425000D01*
X240040714Y-42496428D01*
X240112142Y-42639285D01*
X240112142Y-42853571D01*
X240040714Y-42996428D01*
X239969285Y-43067857D01*
X239826428Y-43139285D01*
X239255000Y-43139285D01*
X241326428Y-43782142D02*
X241183571Y-43853571D01*
X240897857Y-43853571D01*
X240755000Y-43782142D01*
X240683571Y-43639285D01*
X240683571Y-43067857D01*
X240755000Y-42925000D01*
X240897857Y-42853571D01*
X241183571Y-42853571D01*
X241326428Y-42925000D01*
X241397857Y-43067857D01*
X241397857Y-43210714D01*
X240683571Y-43353571D01*
X241897857Y-42853571D02*
X242255000Y-43853571D01*
X242612142Y-42853571D01*
X244255000Y-42496428D02*
X244326428Y-42425000D01*
X244469285Y-42353571D01*
X244826428Y-42353571D01*
X244969285Y-42425000D01*
X245040714Y-42496428D01*
X245112142Y-42639285D01*
X245112142Y-42782142D01*
X245040714Y-42996428D01*
X244183571Y-43853571D01*
X245112142Y-43853571D01*
X245755000Y-43710714D02*
X245826428Y-43782142D01*
X245755000Y-43853571D01*
X245683571Y-43782142D01*
X245755000Y-43710714D01*
X245755000Y-43853571D01*
X247112142Y-42853571D02*
X247112142Y-43853571D01*
X246755000Y-42282142D02*
X246397857Y-43353571D01*
X247326428Y-43353571D01*
X226397857Y-44903571D02*
X227255000Y-44903571D01*
X226826428Y-46403571D02*
X226826428Y-44903571D01*
X227969285Y-46403571D02*
X227826428Y-46332142D01*
X227755000Y-46260714D01*
X227683571Y-46117857D01*
X227683571Y-45689285D01*
X227755000Y-45546428D01*
X227826428Y-45475000D01*
X227969285Y-45403571D01*
X228183571Y-45403571D01*
X228326428Y-45475000D01*
X228397857Y-45546428D01*
X228469285Y-45689285D01*
X228469285Y-46117857D01*
X228397857Y-46260714D01*
X228326428Y-46332142D01*
X228183571Y-46403571D01*
X227969285Y-46403571D01*
X229112142Y-45403571D02*
X229112142Y-46903571D01*
X229112142Y-45475000D02*
X229255000Y-45403571D01*
X229540714Y-45403571D01*
X229683571Y-45475000D01*
X229755000Y-45546428D01*
X229826428Y-45689285D01*
X229826428Y-46117857D01*
X229755000Y-46260714D01*
X229683571Y-46332142D01*
X229540714Y-46403571D01*
X229255000Y-46403571D01*
X229112142Y-46332142D01*
X232326428Y-46403571D02*
X231612142Y-46403571D01*
X231612142Y-44903571D01*
X233469285Y-46403571D02*
X233469285Y-45617857D01*
X233397857Y-45475000D01*
X233255000Y-45403571D01*
X232969285Y-45403571D01*
X232826428Y-45475000D01*
X233469285Y-46332142D02*
X233326428Y-46403571D01*
X232969285Y-46403571D01*
X232826428Y-46332142D01*
X232755000Y-46189285D01*
X232755000Y-46046428D01*
X232826428Y-45903571D01*
X232969285Y-45832142D01*
X233326428Y-45832142D01*
X233469285Y-45760714D01*
X234040714Y-45403571D02*
X234397857Y-46403571D01*
X234755000Y-45403571D02*
X234397857Y-46403571D01*
X234255000Y-46760714D01*
X234183571Y-46832142D01*
X234040714Y-46903571D01*
X235897857Y-46332142D02*
X235755000Y-46403571D01*
X235469285Y-46403571D01*
X235326428Y-46332142D01*
X235255000Y-46189285D01*
X235255000Y-45617857D01*
X235326428Y-45475000D01*
X235469285Y-45403571D01*
X235755000Y-45403571D01*
X235897857Y-45475000D01*
X235969285Y-45617857D01*
X235969285Y-45760714D01*
X235255000Y-45903571D01*
X236612142Y-46403571D02*
X236612142Y-45403571D01*
X236612142Y-45689285D02*
X236683571Y-45546428D01*
X236755000Y-45475000D01*
X236897857Y-45403571D01*
X237040714Y-45403571D01*
X239540714Y-46260714D02*
X239469285Y-46332142D01*
X239255000Y-46403571D01*
X239112142Y-46403571D01*
X238897857Y-46332142D01*
X238755000Y-46189285D01*
X238683571Y-46046428D01*
X238612142Y-45760714D01*
X238612142Y-45546428D01*
X238683571Y-45260714D01*
X238755000Y-45117857D01*
X238897857Y-44975000D01*
X239112142Y-44903571D01*
X239255000Y-44903571D01*
X239469285Y-44975000D01*
X239540714Y-45046428D01*
X240397857Y-46403571D02*
X240255000Y-46332142D01*
X240183571Y-46260714D01*
X240112142Y-46117857D01*
X240112142Y-45689285D01*
X240183571Y-45546428D01*
X240255000Y-45475000D01*
X240397857Y-45403571D01*
X240612142Y-45403571D01*
X240755000Y-45475000D01*
X240826428Y-45546428D01*
X240897857Y-45689285D01*
X240897857Y-46117857D01*
X240826428Y-46260714D01*
X240755000Y-46332142D01*
X240612142Y-46403571D01*
X240397857Y-46403571D01*
X241540714Y-45403571D02*
X241540714Y-46903571D01*
X241540714Y-45475000D02*
X241683571Y-45403571D01*
X241969285Y-45403571D01*
X242112142Y-45475000D01*
X242183571Y-45546428D01*
X242255000Y-45689285D01*
X242255000Y-46117857D01*
X242183571Y-46260714D01*
X242112142Y-46332142D01*
X241969285Y-46403571D01*
X241683571Y-46403571D01*
X241540714Y-46332142D01*
X242897857Y-45403571D02*
X242897857Y-46903571D01*
X242897857Y-45475000D02*
X243040714Y-45403571D01*
X243326428Y-45403571D01*
X243469285Y-45475000D01*
X243540714Y-45546428D01*
X243612142Y-45689285D01*
X243612142Y-46117857D01*
X243540714Y-46260714D01*
X243469285Y-46332142D01*
X243326428Y-46403571D01*
X243040714Y-46403571D01*
X242897857Y-46332142D01*
X244826428Y-46332142D02*
X244683571Y-46403571D01*
X244397857Y-46403571D01*
X244255000Y-46332142D01*
X244183571Y-46189285D01*
X244183571Y-45617857D01*
X244255000Y-45475000D01*
X244397857Y-45403571D01*
X244683571Y-45403571D01*
X244826428Y-45475000D01*
X244897857Y-45617857D01*
X244897857Y-45760714D01*
X244183571Y-45903571D01*
X245540714Y-46403571D02*
X245540714Y-45403571D01*
X245540714Y-45689285D02*
X245612142Y-45546428D01*
X245683571Y-45475000D01*
X245826428Y-45403571D01*
X245969285Y-45403571D01*
D14*
X153800000Y-111400000D03*
X153800000Y-107000000D03*
X171500000Y-110300000D03*
X171500000Y-105900000D03*
X190200000Y-90700000D03*
X190200000Y-86300000D03*
D15*
X192379600Y-79654400D03*
X192379600Y-76352400D03*
X183946800Y-89966800D03*
X183946800Y-93268800D03*
D16*
X175067000Y-100590600D03*
X173167000Y-100590600D03*
X174117000Y-102590600D03*
X169235200Y-99542600D03*
X167335200Y-99542600D03*
X168285200Y-101542600D03*
D17*
X197358000Y-114046000D03*
D18*
X199898000Y-114046000D03*
X197358000Y-111506000D03*
X199898000Y-111506000D03*
X197358000Y-108966000D03*
X199898000Y-108966000D03*
X197358000Y-106426000D03*
X199898000Y-106426000D03*
X197358000Y-103886000D03*
X199898000Y-103886000D03*
X197358000Y-101346000D03*
X199898000Y-101346000D03*
X197358000Y-98806000D03*
X199898000Y-98806000D03*
X197358000Y-96266000D03*
X199898000Y-96266000D03*
X197358000Y-93726000D03*
X199898000Y-93726000D03*
X197358000Y-91186000D03*
X199898000Y-91186000D03*
X197358000Y-88646000D03*
X199898000Y-88646000D03*
X197358000Y-86106000D03*
X199898000Y-86106000D03*
X197358000Y-83566000D03*
X199898000Y-83566000D03*
X197358000Y-81026000D03*
X199898000Y-81026000D03*
X197358000Y-78486000D03*
X199898000Y-78486000D03*
X197358000Y-75946000D03*
X199898000Y-75946000D03*
X197358000Y-73406000D03*
X199898000Y-73406000D03*
X197358000Y-70866000D03*
X199898000Y-70866000D03*
D19*
X131318000Y-119126000D03*
X133858000Y-119126000D03*
X136398000Y-119126000D03*
X138938000Y-119126000D03*
X141478000Y-119126000D03*
X144018000Y-119126000D03*
X146558000Y-119126000D03*
X149098000Y-119126000D03*
X154178000Y-119126000D03*
X156718000Y-119126000D03*
X159258000Y-119126000D03*
X161798000Y-119126000D03*
X164338000Y-119126000D03*
X166878000Y-119126000D03*
X169418000Y-119126000D03*
X171958000Y-119126000D03*
X177038000Y-119126000D03*
X179578000Y-119126000D03*
X182118000Y-119126000D03*
X184658000Y-119126000D03*
X187198000Y-119126000D03*
X189738000Y-119126000D03*
X192278000Y-119126000D03*
X194818000Y-119126000D03*
X122174000Y-70866000D03*
X124714000Y-70866000D03*
X127254000Y-70866000D03*
X129794000Y-70866000D03*
X132334000Y-70866000D03*
X134874000Y-70866000D03*
X137414000Y-70866000D03*
X139954000Y-70866000D03*
X142494000Y-70866000D03*
X145034000Y-70866000D03*
X149098000Y-70866000D03*
X151638000Y-70866000D03*
X154178000Y-70866000D03*
X156718000Y-70866000D03*
X159258000Y-70866000D03*
X161798000Y-70866000D03*
X164338000Y-70866000D03*
X166878000Y-70866000D03*
X171958000Y-70866000D03*
X174498000Y-70866000D03*
X177038000Y-70866000D03*
X179578000Y-70866000D03*
X182118000Y-70866000D03*
X184658000Y-70866000D03*
X187198000Y-70866000D03*
X189738000Y-70866000D03*
D20*
X150071000Y-96581000D03*
X150071000Y-95631000D03*
X150071000Y-94681000D03*
X147871000Y-94681000D03*
X147871000Y-96581000D03*
X147871000Y-95631000D03*
D21*
X139954000Y-76581000D03*
X142494000Y-76581000D03*
X143764000Y-76581000D03*
X145034000Y-76581000D03*
X146304000Y-76581000D03*
X147574000Y-76581000D03*
X148844000Y-76581000D03*
X148844000Y-82931000D03*
X147574000Y-82931000D03*
X146304000Y-82931000D03*
X145034000Y-82931000D03*
X143764000Y-82931000D03*
X142494000Y-82931000D03*
X141224000Y-82931000D03*
X139954000Y-82931000D03*
X141224000Y-76581000D03*
X169926000Y-89408000D03*
X171196000Y-89408000D03*
X172466000Y-89408000D03*
X173736000Y-89408000D03*
X175006000Y-89408000D03*
X176276000Y-89408000D03*
X177546000Y-89408000D03*
X177546000Y-83058000D03*
X176276000Y-83058000D03*
X173736000Y-83058000D03*
X172466000Y-83058000D03*
X171196000Y-83058000D03*
X169926000Y-83058000D03*
X175006000Y-83058000D03*
X154432000Y-89281000D03*
X155702000Y-89281000D03*
X156972000Y-89281000D03*
X158242000Y-89281000D03*
X159512000Y-89281000D03*
X160782000Y-89281000D03*
X162052000Y-89281000D03*
X162052000Y-82931000D03*
X160782000Y-82931000D03*
X158242000Y-82931000D03*
X156972000Y-82931000D03*
X155702000Y-82931000D03*
X154432000Y-82931000D03*
X159512000Y-82931000D03*
D15*
X147193000Y-89535000D03*
X147193000Y-86233000D03*
D22*
X139192000Y-86614000D03*
X135890000Y-86614000D03*
D15*
X184658000Y-76327000D03*
X184658000Y-79629000D03*
X181356000Y-76327000D03*
X181356000Y-79629000D03*
X154686000Y-95758000D03*
X154686000Y-92456000D03*
X162052000Y-76708000D03*
X162052000Y-80010000D03*
X188087000Y-76200000D03*
X188087000Y-79502000D03*
X159004000Y-95758000D03*
X159004000Y-92456000D03*
X142875000Y-86360000D03*
X142875000Y-89662000D03*
X177038000Y-76454000D03*
X177038000Y-79756000D03*
X157480000Y-76708000D03*
X157480000Y-80010000D03*
D23*
X131276000Y-99815000D03*
X131276000Y-97315000D03*
X131276000Y-94015000D03*
X131276000Y-92315000D03*
X131276000Y-89815000D03*
X131276000Y-87315000D03*
X131276000Y-84895000D03*
X131276000Y-83195000D03*
X131276000Y-102315000D03*
X131276000Y-95665000D03*
X131276000Y-79845000D03*
D24*
X110276000Y-107345000D03*
X109076000Y-79345000D03*
D22*
X138049000Y-95631000D03*
X134747000Y-95631000D03*
D15*
X152527000Y-103505000D03*
X152527000Y-100203000D03*
D20*
X143848000Y-96581000D03*
X143848000Y-95631000D03*
X143848000Y-94681000D03*
X141648000Y-94681000D03*
X141648000Y-96581000D03*
X141648000Y-95631000D03*
D25*
X182880000Y-106045000D03*
X182880000Y-107315000D03*
X182880000Y-108585000D03*
X182880000Y-109855000D03*
X176530000Y-109855000D03*
X176530000Y-108585000D03*
X176530000Y-107315000D03*
X176530000Y-106045000D03*
D26*
X181422000Y-102700000D03*
X182372000Y-102700000D03*
X183322000Y-102700000D03*
X183322000Y-100500000D03*
X181422000Y-100500000D03*
X182372000Y-100500000D03*
D22*
X187449000Y-110800000D03*
X190751000Y-110800000D03*
X176504600Y-94843600D03*
X173202600Y-94843600D03*
X146456400Y-115265200D03*
X149758400Y-115265200D03*
X149758400Y-112090200D03*
X146456400Y-112090200D03*
X156641800Y-115265200D03*
X153339800Y-115265200D03*
D27*
X188700000Y-96640000D03*
X188700000Y-99180000D03*
X188700000Y-101720000D03*
X188700000Y-104260000D03*
D28*
X188700000Y-106800000D03*
D22*
X190951000Y-114100000D03*
X187649000Y-114100000D03*
D29*
X179070000Y-90170000D03*
X128651000Y-94742000D03*
X111887000Y-104013000D03*
X110363000Y-81788000D03*
X155321000Y-78359000D03*
X150241000Y-84074000D03*
X182499000Y-104648000D03*
X143891000Y-92329000D03*
X151892000Y-95504000D03*
X128270000Y-87630000D03*
X180212517Y-92099917D03*
X193243200Y-73888600D03*
X174523404Y-110388400D03*
X172516800Y-99060000D03*
X167640000Y-98323400D03*
X162560000Y-87630000D03*
X155448000Y-104521000D03*
X164211000Y-78359000D03*
X169291000Y-80899000D03*
X174752000Y-75565000D03*
X149606000Y-89662000D03*
X140589000Y-74676000D03*
X156337000Y-74295000D03*
X179070000Y-104140000D03*
X124002800Y-79552800D03*
X169748200Y-103174800D03*
X186690000Y-86639400D03*
X182485166Y-97560025D03*
X153797000Y-81026000D03*
X148971000Y-93218000D03*
X151384000Y-89916000D03*
X142494000Y-78994000D03*
X145034000Y-81153000D03*
X162356800Y-110744000D03*
X175336200Y-104597200D03*
X183616600Y-96621600D03*
X165353998Y-108762800D03*
X185267600Y-102819200D03*
X162407600Y-94767400D03*
X184327800Y-109270800D03*
X184480200Y-106578400D03*
X156133800Y-84632800D03*
X165252400Y-85039200D03*
X182100000Y-111400000D03*
X164084000Y-111125000D03*
X166497000Y-109982000D03*
X169799000Y-91440000D03*
X184200800Y-81584800D03*
X172466000Y-91440000D03*
X186969400Y-83159598D03*
X173736000Y-79756000D03*
X171196000Y-80645000D03*
X161035998Y-84632800D03*
X164820600Y-82321400D03*
X151257000Y-93218000D03*
X168275000Y-90093800D03*
X134239000Y-89916000D03*
X139700000Y-93345000D03*
X122301000Y-84836000D03*
X140843000Y-109220000D03*
X161036000Y-109474000D03*
X145669000Y-97409000D03*
X170256200Y-115138200D03*
X143510000Y-98552000D03*
X140462000Y-91821000D03*
X146304000Y-93472000D03*
X136398000Y-92837000D03*
X128270000Y-92202000D03*
X142494000Y-80772000D03*
X170500000Y-87000000D03*
X144018000Y-78359000D03*
X156362400Y-86410800D03*
X187640000Y-90058200D03*
X186867800Y-81559400D03*
X178384200Y-84404200D03*
X169265600Y-97536000D03*
X179704998Y-86893400D03*
X166598600Y-90424000D03*
X185896200Y-91008200D03*
X156565600Y-110540800D03*
X167106600Y-103301800D03*
X168884600Y-110617000D03*
X177800000Y-110900000D03*
X182900000Y-112500000D03*
X175056800Y-98831400D03*
D30*
X146431000Y-118999000D02*
X146558000Y-119126000D01*
X177546000Y-89408000D02*
X178308000Y-89408000D01*
X178308000Y-89408000D02*
X179070000Y-90170000D01*
X131276000Y-94015000D02*
X129378000Y-94015000D01*
X129378000Y-94015000D02*
X128651000Y-94742000D01*
X110276000Y-107345000D02*
X110276000Y-105624000D01*
X110276000Y-105624000D02*
X111887000Y-104013000D01*
X109076000Y-79345000D02*
X109076000Y-80501000D01*
X109076000Y-80501000D02*
X110363000Y-81788000D01*
X148844000Y-82931000D02*
X149098000Y-82931000D01*
X149098000Y-82931000D02*
X150241000Y-84074000D01*
X143891000Y-92329000D02*
X143891000Y-90678000D01*
X143891000Y-90678000D02*
X142875000Y-89662000D01*
X182372000Y-102700000D02*
X182372000Y-104521000D01*
X182372000Y-104521000D02*
X182499000Y-104648000D01*
X143848000Y-95631000D02*
X142748000Y-95631000D01*
X142748000Y-93472000D02*
X143891000Y-92329000D01*
X142748000Y-95631000D02*
X142748000Y-93472000D01*
X151765000Y-95631000D02*
X150071000Y-95631000D01*
X151892000Y-95504000D02*
X151765000Y-95631000D01*
X128585000Y-87315000D02*
X131276000Y-87315000D01*
X128270000Y-87630000D02*
X128585000Y-87315000D01*
X109076000Y-79345000D02*
X109076000Y-79866000D01*
X183946800Y-93268800D02*
X181381400Y-93268800D01*
X181381400Y-93268800D02*
X180212517Y-92099917D01*
X146558000Y-115366800D02*
X146456400Y-115265200D01*
X146558000Y-119126000D02*
X146558000Y-115366800D01*
X146456400Y-115265200D02*
X146456400Y-112090200D01*
X192379600Y-76352400D02*
X192379600Y-74752200D01*
X192379600Y-74752200D02*
X193243200Y-73888600D01*
X174967903Y-109943901D02*
X174523404Y-110388400D01*
X175056804Y-109855000D02*
X174967903Y-109943901D01*
X176530000Y-109855000D02*
X175056804Y-109855000D01*
X173167000Y-100590600D02*
X173167000Y-99710200D01*
X173167000Y-99710200D02*
X172516800Y-99060000D01*
X167335200Y-99542600D02*
X167335200Y-98628200D01*
X167335200Y-98628200D02*
X167640000Y-98323400D01*
X162052000Y-88138000D02*
X162560000Y-87630000D01*
X162052000Y-89281000D02*
X162052000Y-88138000D01*
X197304000Y-114100000D02*
X197358000Y-114046000D01*
X190951000Y-114100000D02*
X197304000Y-114100000D01*
X152527000Y-103505000D02*
X154432000Y-103505000D01*
X154432000Y-103505000D02*
X155448000Y-104521000D01*
X169926000Y-83058000D02*
X169926000Y-81534000D01*
X169926000Y-81534000D02*
X169291000Y-80899000D01*
X177038000Y-76454000D02*
X175641000Y-76454000D01*
X175641000Y-76454000D02*
X174752000Y-75565000D01*
X147193000Y-89535000D02*
X149479000Y-89535000D01*
X149479000Y-89535000D02*
X149606000Y-89662000D01*
X141224000Y-76581000D02*
X141224000Y-75311000D01*
X141224000Y-75311000D02*
X140589000Y-74676000D01*
X157480000Y-75438000D02*
X156337000Y-74295000D01*
X157480000Y-76708000D02*
X157480000Y-75438000D01*
X182880000Y-106045000D02*
X180975000Y-106045000D01*
X180975000Y-106045000D02*
X179070000Y-104140000D01*
X141224000Y-82931000D02*
X141224000Y-76581000D01*
X188536000Y-86354200D02*
X188250800Y-86639400D01*
X190119000Y-86354200D02*
X188536000Y-86354200D01*
X188250800Y-86639400D02*
X186690000Y-86639400D01*
X171399200Y-104825800D02*
X169748200Y-103174800D01*
X171399200Y-105927800D02*
X171399200Y-104825800D01*
X153822400Y-106146600D02*
X155448000Y-104521000D01*
X153822400Y-107156800D02*
X153822400Y-106146600D01*
X182372000Y-97673191D02*
X182485166Y-97560025D01*
X182372000Y-100500000D02*
X182372000Y-97673191D01*
X154432000Y-82931000D02*
X154432000Y-81661000D01*
X154432000Y-81661000D02*
X153797000Y-81026000D01*
X139954000Y-75311000D02*
X140589000Y-74676000D01*
X139954000Y-76581000D02*
X139954000Y-75311000D01*
D31*
X148717000Y-93835000D02*
X147871000Y-94681000D01*
X148717000Y-93472000D02*
X148717000Y-93835000D01*
X148971000Y-93218000D02*
X148717000Y-93472000D01*
X151828499Y-89471501D02*
X151384000Y-89916000D01*
X155790899Y-85509101D02*
X151828499Y-89471501D01*
X157251399Y-85509101D02*
X155790899Y-85509101D01*
X159512000Y-82931000D02*
X159512000Y-83248500D01*
X159512000Y-83248500D02*
X157251399Y-85509101D01*
X145034000Y-71018400D02*
X145034000Y-70866000D01*
X148659600Y-74644000D02*
X145034000Y-71018400D01*
X148659600Y-75571100D02*
X148659600Y-74644000D01*
X148844000Y-75755500D02*
X148659600Y-75571100D01*
X148844000Y-76581000D02*
X148844000Y-75755500D01*
X147574000Y-76581000D02*
X147574000Y-75438000D01*
X144526000Y-72898000D02*
X142494000Y-70866000D01*
X145034000Y-72898000D02*
X144526000Y-72898000D01*
X147574000Y-75438000D02*
X145034000Y-72898000D01*
X146304000Y-82931000D02*
X146304000Y-85344000D01*
X146304000Y-85344000D02*
X147193000Y-86233000D01*
X149098000Y-70866000D02*
X149098000Y-73279000D01*
X146304000Y-81407000D02*
X146304000Y-82931000D01*
X147066000Y-80645000D02*
X146304000Y-81407000D01*
X149352000Y-80645000D02*
X147066000Y-80645000D01*
X151638000Y-78359000D02*
X149352000Y-80645000D01*
X151638000Y-75819000D02*
X151638000Y-78359000D01*
X149098000Y-73279000D02*
X151638000Y-75819000D01*
X145034000Y-82931000D02*
X145034000Y-81153000D01*
X142494000Y-78994000D02*
X142494000Y-76581000D01*
X162356800Y-110744000D02*
X159766000Y-110744000D01*
X159766000Y-110744000D02*
X156641800Y-113868200D01*
X156641800Y-113868200D02*
X156641800Y-115265200D01*
X179433400Y-100500000D02*
X175780699Y-104152701D01*
X175780699Y-104152701D02*
X175336200Y-104597200D01*
X181422000Y-100500000D02*
X179433400Y-100500000D01*
X181422000Y-100500000D02*
X181422000Y-97019167D01*
X181422000Y-97019167D02*
X181819567Y-96621600D01*
X181819567Y-96621600D02*
X182987983Y-96621600D01*
X182987983Y-96621600D02*
X183616600Y-96621600D01*
X152781000Y-92710000D02*
X152781000Y-96189802D01*
X145034000Y-82931000D02*
X145034000Y-91313000D01*
X164909499Y-108318301D02*
X165353998Y-108762800D01*
X145034000Y-91313000D02*
X145669000Y-91948000D01*
X145669000Y-91948000D02*
X152019000Y-91948000D01*
X152019000Y-91948000D02*
X152781000Y-92710000D01*
X152781000Y-96189802D02*
X164909499Y-108318301D01*
X183322000Y-100873600D02*
X183322000Y-100500000D01*
X185267600Y-102819200D02*
X183322000Y-100873600D01*
X173202600Y-94843600D02*
X162483800Y-94843600D01*
X162483800Y-94843600D02*
X162407600Y-94767400D01*
X182880000Y-108585000D02*
X183197500Y-108585000D01*
X182880000Y-108585000D02*
X183642000Y-108585000D01*
X183642000Y-108585000D02*
X184327800Y-109270800D01*
X184480200Y-109118400D02*
X184327800Y-109270800D01*
X184480200Y-106578400D02*
X184480200Y-109118400D01*
X173202600Y-96062800D02*
X173202600Y-94843600D01*
X174828200Y-97688400D02*
X173202600Y-96062800D01*
X179425600Y-97688400D02*
X174828200Y-97688400D01*
X183322000Y-99716000D02*
X184785000Y-98253000D01*
X184785000Y-98253000D02*
X184785000Y-96266000D01*
X184785000Y-96266000D02*
X184124600Y-95605600D01*
X183322000Y-100500000D02*
X183322000Y-99716000D01*
X184124600Y-95605600D02*
X181508400Y-95605600D01*
X181508400Y-95605600D02*
X179425600Y-97688400D01*
X158242000Y-83248500D02*
X156857700Y-84632800D01*
X156857700Y-84632800D02*
X156762417Y-84632800D01*
X158242000Y-82931000D02*
X158242000Y-83248500D01*
X156762417Y-84632800D02*
X156133800Y-84632800D01*
X165252400Y-85667817D02*
X165252400Y-85039200D01*
X172072300Y-85039200D02*
X165881017Y-85039200D01*
X173736000Y-83375500D02*
X172072300Y-85039200D01*
X165881017Y-85039200D02*
X165252400Y-85039200D01*
X162407600Y-94767400D02*
X165252400Y-91922600D01*
X165252400Y-91922600D02*
X165252400Y-85667817D01*
X173736000Y-83058000D02*
X173736000Y-83375500D01*
X159258000Y-118973600D02*
X159258000Y-119126000D01*
X182100000Y-111400000D02*
X179089017Y-116100000D01*
X162400000Y-116100000D02*
X159258000Y-118973600D01*
X179089017Y-116100000D02*
X162400000Y-116100000D01*
X156718000Y-118491000D02*
X156718000Y-119126000D01*
X164084000Y-111125000D02*
X156718000Y-118491000D01*
X168323801Y-111808801D02*
X166497000Y-109982000D01*
X180100699Y-111808801D02*
X168323801Y-111808801D01*
X182880000Y-109855000D02*
X182054500Y-109855000D01*
X182054500Y-109855000D02*
X180100699Y-111808801D01*
X183322000Y-103484000D02*
X183322000Y-102700000D01*
X185369200Y-105531200D02*
X183322000Y-103484000D01*
X185369200Y-109855000D02*
X185369200Y-105531200D01*
X183705500Y-110363000D02*
X184861200Y-110363000D01*
X183197500Y-109855000D02*
X183705500Y-110363000D01*
X185356498Y-109867702D02*
X185369200Y-109855000D01*
X184861200Y-110363000D02*
X185356498Y-109867702D01*
X182880000Y-109855000D02*
X183197500Y-109855000D01*
X154686000Y-95758000D02*
X159004000Y-95758000D01*
X166281099Y-109137482D02*
X166281099Y-104051099D01*
X166497000Y-109353383D02*
X166281099Y-109137482D01*
X166497000Y-109982000D02*
X166497000Y-109353383D01*
X159004000Y-96774000D02*
X159004000Y-95758000D01*
X166281099Y-104051099D02*
X159004000Y-96774000D01*
X159258000Y-95758000D02*
X164045898Y-90970102D01*
X159004000Y-95758000D02*
X159258000Y-95758000D01*
X164045898Y-90970102D02*
X164045898Y-84696302D01*
X164045898Y-84696302D02*
X166000000Y-82800000D01*
X163781742Y-76708000D02*
X162052000Y-76708000D01*
X166000000Y-82800000D02*
X166000000Y-78400000D01*
X166000000Y-78400000D02*
X163781742Y-76708000D01*
X162052000Y-74848000D02*
X162052000Y-76708000D01*
X162986000Y-73914000D02*
X162052000Y-74848000D01*
X185420000Y-73914000D02*
X162986000Y-73914000D01*
X187198000Y-70866000D02*
X187198000Y-72136000D01*
X187198000Y-72136000D02*
X185420000Y-73914000D01*
X186433000Y-110800000D02*
X187449000Y-110800000D01*
X183317000Y-110800000D02*
X186433000Y-110800000D01*
X182880000Y-110363000D02*
X183317000Y-110800000D01*
X182880000Y-109855000D02*
X182880000Y-110363000D01*
X169926000Y-89408000D02*
X169926000Y-91313000D01*
X169926000Y-91313000D02*
X169799000Y-91440000D01*
X184645299Y-81140301D02*
X184200800Y-81584800D01*
X184658000Y-81127600D02*
X184645299Y-81140301D01*
X184658000Y-79629000D02*
X184658000Y-81127600D01*
X172466000Y-89408000D02*
X172466000Y-91440000D01*
X188087000Y-82041998D02*
X187413899Y-82715099D01*
X187413899Y-82715099D02*
X186969400Y-83159598D01*
X188087000Y-79502000D02*
X188087000Y-82041998D01*
X195628800Y-87835200D02*
X188739198Y-87835200D01*
X197358000Y-86106000D02*
X195628800Y-87835200D01*
X175006000Y-89090500D02*
X175006000Y-89408000D01*
X176339520Y-87756980D02*
X175006000Y-89090500D01*
X180443020Y-87756980D02*
X176339520Y-87756980D01*
X188739198Y-87835200D02*
X188432376Y-87528380D01*
X180671620Y-87528380D02*
X180443020Y-87756980D01*
X188432376Y-87528380D02*
X180671620Y-87528380D01*
X188528773Y-88343211D02*
X188221951Y-88036389D01*
X176276000Y-89090500D02*
X176276000Y-89408000D01*
X177101509Y-88264991D02*
X176276000Y-89090500D01*
X195833897Y-88343211D02*
X188528773Y-88343211D01*
X197358000Y-88646000D02*
X196136686Y-88646000D01*
X196136686Y-88646000D02*
X195833897Y-88343211D01*
X182390177Y-88036389D02*
X188221951Y-88036389D01*
X182161575Y-88264991D02*
X182390177Y-88036389D01*
X177101509Y-88264991D02*
X182161575Y-88264991D01*
X177546000Y-83058000D02*
X179324000Y-83058000D01*
X181356000Y-81026000D02*
X181356000Y-79629000D01*
X179324000Y-83058000D02*
X181356000Y-81026000D01*
X177038000Y-79756000D02*
X173736000Y-79756000D01*
X172466000Y-81026000D02*
X173736000Y-79756000D01*
X172466000Y-83058000D02*
X172466000Y-81026000D01*
X171196000Y-80645000D02*
X171196000Y-83058000D01*
X154432000Y-89281000D02*
X154432000Y-92202000D01*
X154432000Y-92202000D02*
X154686000Y-92456000D01*
X156972000Y-89281000D02*
X156972000Y-90424000D01*
X156972000Y-90424000D02*
X159004000Y-92456000D01*
X159512000Y-86156798D02*
X160591499Y-85077299D01*
X159512000Y-89281000D02*
X159512000Y-86156798D01*
X160591499Y-85077299D02*
X161035998Y-84632800D01*
X160782000Y-89281000D02*
X160782000Y-86360000D01*
X164376101Y-82765899D02*
X164820600Y-82321400D01*
X160782000Y-86360000D02*
X164376101Y-82765899D01*
X162052000Y-80010000D02*
X162052000Y-82931000D01*
X156718000Y-70866000D02*
X156718000Y-71374000D01*
X156718000Y-71374000D02*
X159766000Y-74422000D01*
X159766000Y-74422000D02*
X159766000Y-79375000D01*
X159766000Y-79375000D02*
X159131000Y-80010000D01*
X159131000Y-80010000D02*
X157480000Y-80010000D01*
X157480000Y-80010000D02*
X157480000Y-81153000D01*
X156972000Y-81661000D02*
X156972000Y-82931000D01*
X157480000Y-81153000D02*
X156972000Y-81661000D01*
X155702000Y-82931000D02*
X155702000Y-80772000D01*
X153670000Y-78740000D02*
X153670000Y-71374000D01*
X155702000Y-80772000D02*
X153670000Y-78740000D01*
X153670000Y-71374000D02*
X154178000Y-70866000D01*
X150071000Y-94681000D02*
X150071000Y-94404000D01*
X150071000Y-94404000D02*
X151257000Y-93218000D01*
X175006000Y-83058000D02*
X175006000Y-81788000D01*
X179959000Y-76327000D02*
X181356000Y-76327000D01*
X179324000Y-76962000D02*
X179959000Y-76327000D01*
X179324000Y-80899000D02*
X179324000Y-76962000D01*
X178689000Y-81534000D02*
X179324000Y-80899000D01*
X175260000Y-81534000D02*
X178689000Y-81534000D01*
X175006000Y-81788000D02*
X175260000Y-81534000D01*
X184658000Y-76327000D02*
X181356000Y-76327000D01*
X188087000Y-76200000D02*
X184785000Y-76200000D01*
X184785000Y-76200000D02*
X184658000Y-76327000D01*
X189738000Y-70866000D02*
X189738000Y-74549000D01*
X189738000Y-74549000D02*
X188087000Y-76200000D01*
X175006000Y-83375500D02*
X172656500Y-85725000D01*
X175006000Y-83058000D02*
X175006000Y-83375500D01*
X167830501Y-89649301D02*
X168275000Y-90093800D01*
X172656500Y-85725000D02*
X167487600Y-85725000D01*
X167487600Y-85725000D02*
X166547800Y-86664800D01*
X166547800Y-86664800D02*
X166547800Y-88366600D01*
X166547800Y-88366600D02*
X167830501Y-89649301D01*
X143764000Y-82931000D02*
X143764000Y-85471000D01*
X143764000Y-85471000D02*
X142875000Y-86360000D01*
X143764000Y-82931000D02*
X143764000Y-80645000D01*
X146304000Y-78105000D02*
X146304000Y-76581000D01*
X143764000Y-80645000D02*
X146304000Y-78105000D01*
X143891000Y-83058000D02*
X143764000Y-82931000D01*
X147871000Y-96581000D02*
X147767000Y-96581000D01*
X147767000Y-96581000D02*
X144533000Y-99815000D01*
X144533000Y-99815000D02*
X131276000Y-99815000D01*
X141648000Y-96581000D02*
X141163000Y-96581000D01*
X141163000Y-96581000D02*
X139573000Y-98171000D01*
X139573000Y-98171000D02*
X132132000Y-98171000D01*
X132132000Y-98171000D02*
X131276000Y-97315000D01*
X141648000Y-94681000D02*
X141036000Y-94681000D01*
X134138000Y-89815000D02*
X131276000Y-89815000D01*
X134239000Y-89916000D02*
X134138000Y-89815000D01*
X141036000Y-94681000D02*
X139700000Y-93345000D01*
X122360000Y-84895000D02*
X131276000Y-84895000D01*
X122301000Y-84836000D02*
X122360000Y-84895000D01*
X160782000Y-109220000D02*
X140843000Y-109220000D01*
X161036000Y-109474000D02*
X160782000Y-109220000D01*
X134747000Y-95631000D02*
X134747000Y-92075000D01*
X137541000Y-89281000D02*
X137541000Y-70993000D01*
X134747000Y-92075000D02*
X137541000Y-89281000D01*
X137541000Y-70993000D02*
X137414000Y-70866000D01*
X134747000Y-95631000D02*
X131310000Y-95631000D01*
X131310000Y-95631000D02*
X131276000Y-95665000D01*
X131276000Y-79845000D02*
X134074000Y-79845000D01*
X135890000Y-81661000D02*
X135890000Y-86614000D01*
X134074000Y-79845000D02*
X135890000Y-81661000D01*
X134874000Y-70866000D02*
X134874000Y-76247000D01*
X134874000Y-76247000D02*
X131276000Y-79845000D01*
X143848000Y-94681000D02*
X144973000Y-94681000D01*
X145669000Y-95377000D02*
X145669000Y-97409000D01*
X144973000Y-94681000D02*
X145669000Y-95377000D01*
X152527000Y-100203000D02*
X152527000Y-99037000D01*
X152527000Y-99037000D02*
X150071000Y-96581000D01*
X155321000Y-100203000D02*
X152527000Y-100203000D01*
X170256200Y-115138200D02*
X155321000Y-100203000D01*
X143848000Y-96581000D02*
X143848000Y-98214000D01*
X143848000Y-98214000D02*
X143510000Y-98552000D01*
D30*
X139446000Y-90805000D02*
X138938000Y-90805000D01*
X140462000Y-91821000D02*
X139446000Y-90805000D01*
X147871000Y-95631000D02*
X146685000Y-95631000D01*
X146264829Y-94864325D02*
X146304000Y-93472000D01*
X146685000Y-95631000D02*
X146264829Y-94864325D01*
X136398000Y-92837000D02*
X138049000Y-92837000D01*
X128383000Y-92315000D02*
X131276000Y-92315000D01*
X128270000Y-92202000D02*
X128383000Y-92315000D01*
X138049000Y-95631000D02*
X141648000Y-95631000D01*
X138049000Y-95631000D02*
X138049000Y-92837000D01*
X138049000Y-92837000D02*
X138049000Y-91694000D01*
X138049000Y-91694000D02*
X138938000Y-90805000D01*
X138938000Y-90805000D02*
X139192000Y-90551000D01*
X139192000Y-90551000D02*
X139192000Y-86614000D01*
X139192000Y-86614000D02*
X139192000Y-83693000D01*
X139192000Y-83693000D02*
X139954000Y-82931000D01*
X128143000Y-92202000D02*
X128270000Y-92202000D01*
X138938000Y-106338000D02*
X136613000Y-104013000D01*
X136613000Y-104013000D02*
X128016000Y-104013000D01*
X126238000Y-102235000D02*
X126238000Y-94107000D01*
X128016000Y-104013000D02*
X126238000Y-102235000D01*
X126238000Y-94107000D02*
X128143000Y-92202000D01*
X138938000Y-106338000D02*
X138938000Y-119126000D01*
X139954000Y-79375000D02*
X139954000Y-82931000D01*
X145034000Y-75057000D02*
X143129000Y-73152000D01*
X145034000Y-76581000D02*
X145034000Y-75057000D01*
X143129000Y-73152000D02*
X138811000Y-73152000D01*
X138811000Y-73152000D02*
X138303000Y-73660000D01*
X138303000Y-73660000D02*
X138303000Y-77724000D01*
X138303000Y-77724000D02*
X139954000Y-79375000D01*
D31*
X142494000Y-82931000D02*
X142494000Y-80772000D01*
X173736000Y-86741000D02*
X173736000Y-89408000D01*
X173736000Y-86461600D02*
X173736000Y-86741000D01*
X176276000Y-83058000D02*
X176276000Y-83921600D01*
X176276000Y-83921600D02*
X173736000Y-86461600D01*
X173710600Y-86893400D02*
X173736000Y-86868000D01*
X171196000Y-87696000D02*
X170500000Y-87000000D01*
X171196000Y-89408000D02*
X171196000Y-87696000D01*
X171196000Y-89090500D02*
X171196000Y-89408000D01*
X171831001Y-88455499D02*
X171196000Y-89090500D01*
X173144501Y-88455499D02*
X171831001Y-88455499D01*
X173736000Y-89408000D02*
X173736000Y-88836000D01*
X173736000Y-88836000D02*
X173144501Y-88455499D01*
X143764000Y-76581000D02*
X143764000Y-78105000D01*
X143764000Y-78105000D02*
X144018000Y-78359000D01*
X160782000Y-83248500D02*
X157619700Y-86410800D01*
X157619700Y-86410800D02*
X156991017Y-86410800D01*
X155702000Y-89281000D02*
X155702000Y-87071200D01*
X155702000Y-87071200D02*
X155917901Y-86855299D01*
X156991017Y-86410800D02*
X156362400Y-86410800D01*
X160782000Y-82931000D02*
X160782000Y-83248500D01*
X155917901Y-86855299D02*
X156362400Y-86410800D01*
X158242000Y-88290400D02*
X156362400Y-86410800D01*
X158242000Y-89281000D02*
X158242000Y-88290400D01*
X190751000Y-108087124D02*
X190751000Y-110800000D01*
X196494401Y-102343723D02*
X190751000Y-108087124D01*
X197358000Y-101346000D02*
X196494401Y-102209599D01*
X196494401Y-102209599D02*
X196494401Y-102343723D01*
X176504600Y-94640400D02*
X176504600Y-94843600D01*
X182600600Y-88544400D02*
X176504600Y-94640400D01*
X188011526Y-88544400D02*
X182600600Y-88544400D01*
X188318347Y-88851221D02*
X188011526Y-88544400D01*
X191076824Y-88851222D02*
X188318347Y-88851221D01*
X191922400Y-89696798D02*
X191076824Y-88851222D01*
X191922400Y-91160600D02*
X191922400Y-89696798D01*
X191947800Y-91160600D02*
X191922400Y-91160600D01*
X197053200Y-96266000D02*
X191947800Y-91160600D01*
X197358000Y-96266000D02*
X197053200Y-96266000D01*
X197358000Y-98806000D02*
X196799200Y-98806000D01*
X184038200Y-90058200D02*
X183946800Y-89966800D01*
X187640000Y-90058200D02*
X184038200Y-90058200D01*
X186867800Y-81559400D02*
X184023000Y-84404200D01*
X184023000Y-84404200D02*
X178384200Y-84404200D01*
X196367400Y-75946000D02*
X197358000Y-75946000D01*
X192379600Y-79654400D02*
X192659000Y-79654400D01*
X192659000Y-79654400D02*
X196367400Y-75946000D01*
X169265600Y-99512200D02*
X169235200Y-99542600D01*
X169265600Y-97536000D02*
X169265600Y-99512200D01*
X192125600Y-79654400D02*
X184886600Y-86893400D01*
X184886600Y-86893400D02*
X179704998Y-86893400D01*
X192379600Y-79654400D02*
X192125600Y-79654400D01*
X186055000Y-97270000D02*
X187870400Y-99085400D01*
X186055000Y-95580200D02*
X186055000Y-97270000D01*
X185470800Y-94996000D02*
X186055000Y-95580200D01*
X180848000Y-94996000D02*
X185470800Y-94996000D01*
X166598600Y-90424000D02*
X169291000Y-93116400D01*
X187870400Y-99085400D02*
X188620400Y-99085400D01*
X174752000Y-93421200D02*
X174752000Y-96266000D01*
X174447200Y-93116400D02*
X174752000Y-93421200D01*
X174752000Y-96266000D02*
X175361600Y-96875600D01*
X178968400Y-96875600D02*
X180848000Y-94996000D01*
X169291000Y-93116400D02*
X174447200Y-93116400D01*
X175361600Y-96875600D02*
X178968400Y-96875600D01*
X153365200Y-119126000D02*
X154178000Y-119126000D01*
X149758400Y-115519200D02*
X153365200Y-119126000D01*
X149758400Y-115265200D02*
X149758400Y-115519200D01*
X149758400Y-115265200D02*
X153339800Y-115265200D01*
X149758400Y-113995200D02*
X149758400Y-112090200D01*
X149758400Y-115265200D02*
X149758400Y-113995200D01*
X188315600Y-91008200D02*
X185896200Y-91008200D01*
X190119000Y-90754200D02*
X188569600Y-90754200D01*
X188569600Y-90754200D02*
X188315600Y-91008200D01*
X153822400Y-111556800D02*
X155549600Y-111556800D01*
X155549600Y-111556800D02*
X156565600Y-110540800D01*
X168285200Y-101542600D02*
X168285200Y-102123200D01*
X168285200Y-102123200D02*
X167106600Y-103301800D01*
X170070200Y-110327800D02*
X169781000Y-110617000D01*
X171399200Y-110327800D02*
X170070200Y-110327800D01*
X169781000Y-110617000D02*
X168884600Y-110617000D01*
X172728200Y-110327800D02*
X171399200Y-110327800D01*
X174117000Y-108939000D02*
X172728200Y-110327800D01*
X174117000Y-102590600D02*
X174117000Y-108939000D01*
X177800000Y-104188258D02*
X177800000Y-110900000D01*
X181422000Y-102700000D02*
X179288258Y-102700000D01*
X179288258Y-102700000D02*
X177800000Y-104188258D01*
X184500000Y-114100000D02*
X182900000Y-112500000D01*
X187649000Y-114100000D02*
X184500000Y-114100000D01*
X187649000Y-114354000D02*
X187649000Y-114100000D01*
X186200000Y-115803000D02*
X187649000Y-114354000D01*
X185200000Y-116700000D02*
X186200000Y-115803000D01*
X164071600Y-116700000D02*
X185200000Y-116700000D01*
X161798000Y-119126000D02*
X161798000Y-118973600D01*
X161798000Y-118973600D02*
X164071600Y-116700000D01*
X175067000Y-98841600D02*
X175056800Y-98831400D01*
X175067000Y-100590600D02*
X175067000Y-98841600D01*
M02*
