G04 #@! TF.FileFunction,Copper,L1,Top,Signal*
%FSLAX46Y46*%
G04 Gerber Fmt 4.6, Leading zero omitted, Abs format (unit mm)*
G04 Created by KiCad (PCBNEW 4.0.6) date 11/29/17 13:30:51*
%MOMM*%
%LPD*%
G01*
G04 APERTURE LIST*
%ADD10C,0.100000*%
%ADD11C,0.300000*%
%ADD12C,1.727200*%
%ADD13O,1.727200X1.727200*%
%ADD14O,1.727200X2.032000*%
%ADD15R,1.060000X0.650000*%
%ADD16R,0.508000X1.143000*%
%ADD17R,2.030000X1.730000*%
%ADD18O,2.030000X1.730000*%
%ADD19R,2.032000X1.524000*%
%ADD20R,1.524000X2.032000*%
%ADD21R,1.500000X1.000000*%
%ADD22R,2.200000X1.200000*%
%ADD23R,1.143000X0.508000*%
%ADD24R,0.650000X1.060000*%
%ADD25C,0.889000*%
%ADD26C,0.508000*%
%ADD27C,0.254000*%
G04 APERTURE END LIST*
D10*
D11*
X226417143Y-43853571D02*
X226417143Y-42353571D01*
X228202857Y-42282143D02*
X226917143Y-44210714D01*
X228988572Y-42353571D02*
X229274286Y-42353571D01*
X229417144Y-42425000D01*
X229560001Y-42567857D01*
X229631429Y-42853571D01*
X229631429Y-43353571D01*
X229560001Y-43639286D01*
X229417144Y-43782143D01*
X229274286Y-43853571D01*
X228988572Y-43853571D01*
X228845715Y-43782143D01*
X228702858Y-43639286D01*
X228631429Y-43353571D01*
X228631429Y-42853571D01*
X228702858Y-42567857D01*
X228845715Y-42425000D01*
X228988572Y-42353571D01*
X231917144Y-43067857D02*
X232131430Y-43139286D01*
X232202858Y-43210714D01*
X232274287Y-43353571D01*
X232274287Y-43567857D01*
X232202858Y-43710714D01*
X232131430Y-43782143D01*
X231988572Y-43853571D01*
X231417144Y-43853571D01*
X231417144Y-42353571D01*
X231917144Y-42353571D01*
X232060001Y-42425000D01*
X232131430Y-42496429D01*
X232202858Y-42639286D01*
X232202858Y-42782143D01*
X232131430Y-42925000D01*
X232060001Y-42996429D01*
X231917144Y-43067857D01*
X231417144Y-43067857D01*
X233131430Y-43853571D02*
X232988572Y-43782143D01*
X232917144Y-43710714D01*
X232845715Y-43567857D01*
X232845715Y-43139286D01*
X232917144Y-42996429D01*
X232988572Y-42925000D01*
X233131430Y-42853571D01*
X233345715Y-42853571D01*
X233488572Y-42925000D01*
X233560001Y-42996429D01*
X233631430Y-43139286D01*
X233631430Y-43567857D01*
X233560001Y-43710714D01*
X233488572Y-43782143D01*
X233345715Y-43853571D01*
X233131430Y-43853571D01*
X234917144Y-43853571D02*
X234917144Y-43067857D01*
X234845715Y-42925000D01*
X234702858Y-42853571D01*
X234417144Y-42853571D01*
X234274287Y-42925000D01*
X234917144Y-43782143D02*
X234774287Y-43853571D01*
X234417144Y-43853571D01*
X234274287Y-43782143D01*
X234202858Y-43639286D01*
X234202858Y-43496429D01*
X234274287Y-43353571D01*
X234417144Y-43282143D01*
X234774287Y-43282143D01*
X234917144Y-43210714D01*
X235631430Y-43853571D02*
X235631430Y-42853571D01*
X235631430Y-43139286D02*
X235702858Y-42996429D01*
X235774287Y-42925000D01*
X235917144Y-42853571D01*
X236060001Y-42853571D01*
X237202858Y-43853571D02*
X237202858Y-42353571D01*
X237202858Y-43782143D02*
X237060001Y-43853571D01*
X236774287Y-43853571D01*
X236631429Y-43782143D01*
X236560001Y-43710714D01*
X236488572Y-43567857D01*
X236488572Y-43139286D01*
X236560001Y-42996429D01*
X236631429Y-42925000D01*
X236774287Y-42853571D01*
X237060001Y-42853571D01*
X237202858Y-42925000D01*
X239917144Y-43853571D02*
X239417144Y-43139286D01*
X239060001Y-43853571D02*
X239060001Y-42353571D01*
X239631429Y-42353571D01*
X239774287Y-42425000D01*
X239845715Y-42496429D01*
X239917144Y-42639286D01*
X239917144Y-42853571D01*
X239845715Y-42996429D01*
X239774287Y-43067857D01*
X239631429Y-43139286D01*
X239060001Y-43139286D01*
X241131429Y-43782143D02*
X240988572Y-43853571D01*
X240702858Y-43853571D01*
X240560001Y-43782143D01*
X240488572Y-43639286D01*
X240488572Y-43067857D01*
X240560001Y-42925000D01*
X240702858Y-42853571D01*
X240988572Y-42853571D01*
X241131429Y-42925000D01*
X241202858Y-43067857D01*
X241202858Y-43210714D01*
X240488572Y-43353571D01*
X241702858Y-42853571D02*
X242060001Y-43853571D01*
X242417143Y-42853571D01*
X244917143Y-43853571D02*
X244060000Y-43853571D01*
X244488572Y-43853571D02*
X244488572Y-42353571D01*
X244345715Y-42567857D01*
X244202857Y-42710714D01*
X244060000Y-42782143D01*
X245560000Y-43710714D02*
X245631428Y-43782143D01*
X245560000Y-43853571D01*
X245488571Y-43782143D01*
X245560000Y-43710714D01*
X245560000Y-43853571D01*
X246560000Y-42353571D02*
X246702857Y-42353571D01*
X246845714Y-42425000D01*
X246917143Y-42496429D01*
X246988572Y-42639286D01*
X247060000Y-42925000D01*
X247060000Y-43282143D01*
X246988572Y-43567857D01*
X246917143Y-43710714D01*
X246845714Y-43782143D01*
X246702857Y-43853571D01*
X246560000Y-43853571D01*
X246417143Y-43782143D01*
X246345714Y-43710714D01*
X246274286Y-43567857D01*
X246202857Y-43282143D01*
X246202857Y-42925000D01*
X246274286Y-42639286D01*
X246345714Y-42496429D01*
X246417143Y-42425000D01*
X246560000Y-42353571D01*
X226202857Y-44903571D02*
X227060000Y-44903571D01*
X226631429Y-46403571D02*
X226631429Y-44903571D01*
X227774286Y-46403571D02*
X227631428Y-46332143D01*
X227560000Y-46260714D01*
X227488571Y-46117857D01*
X227488571Y-45689286D01*
X227560000Y-45546429D01*
X227631428Y-45475000D01*
X227774286Y-45403571D01*
X227988571Y-45403571D01*
X228131428Y-45475000D01*
X228202857Y-45546429D01*
X228274286Y-45689286D01*
X228274286Y-46117857D01*
X228202857Y-46260714D01*
X228131428Y-46332143D01*
X227988571Y-46403571D01*
X227774286Y-46403571D01*
X228917143Y-45403571D02*
X228917143Y-46903571D01*
X228917143Y-45475000D02*
X229060000Y-45403571D01*
X229345714Y-45403571D01*
X229488571Y-45475000D01*
X229560000Y-45546429D01*
X229631429Y-45689286D01*
X229631429Y-46117857D01*
X229560000Y-46260714D01*
X229488571Y-46332143D01*
X229345714Y-46403571D01*
X229060000Y-46403571D01*
X228917143Y-46332143D01*
X232131429Y-46403571D02*
X231417143Y-46403571D01*
X231417143Y-44903571D01*
X233274286Y-46403571D02*
X233274286Y-45617857D01*
X233202857Y-45475000D01*
X233060000Y-45403571D01*
X232774286Y-45403571D01*
X232631429Y-45475000D01*
X233274286Y-46332143D02*
X233131429Y-46403571D01*
X232774286Y-46403571D01*
X232631429Y-46332143D01*
X232560000Y-46189286D01*
X232560000Y-46046429D01*
X232631429Y-45903571D01*
X232774286Y-45832143D01*
X233131429Y-45832143D01*
X233274286Y-45760714D01*
X233845715Y-45403571D02*
X234202858Y-46403571D01*
X234560000Y-45403571D02*
X234202858Y-46403571D01*
X234060000Y-46760714D01*
X233988572Y-46832143D01*
X233845715Y-46903571D01*
X235702857Y-46332143D02*
X235560000Y-46403571D01*
X235274286Y-46403571D01*
X235131429Y-46332143D01*
X235060000Y-46189286D01*
X235060000Y-45617857D01*
X235131429Y-45475000D01*
X235274286Y-45403571D01*
X235560000Y-45403571D01*
X235702857Y-45475000D01*
X235774286Y-45617857D01*
X235774286Y-45760714D01*
X235060000Y-45903571D01*
X236417143Y-46403571D02*
X236417143Y-45403571D01*
X236417143Y-45689286D02*
X236488571Y-45546429D01*
X236560000Y-45475000D01*
X236702857Y-45403571D01*
X236845714Y-45403571D01*
X239345714Y-46260714D02*
X239274285Y-46332143D01*
X239059999Y-46403571D01*
X238917142Y-46403571D01*
X238702857Y-46332143D01*
X238559999Y-46189286D01*
X238488571Y-46046429D01*
X238417142Y-45760714D01*
X238417142Y-45546429D01*
X238488571Y-45260714D01*
X238559999Y-45117857D01*
X238702857Y-44975000D01*
X238917142Y-44903571D01*
X239059999Y-44903571D01*
X239274285Y-44975000D01*
X239345714Y-45046429D01*
X240202857Y-46403571D02*
X240059999Y-46332143D01*
X239988571Y-46260714D01*
X239917142Y-46117857D01*
X239917142Y-45689286D01*
X239988571Y-45546429D01*
X240059999Y-45475000D01*
X240202857Y-45403571D01*
X240417142Y-45403571D01*
X240559999Y-45475000D01*
X240631428Y-45546429D01*
X240702857Y-45689286D01*
X240702857Y-46117857D01*
X240631428Y-46260714D01*
X240559999Y-46332143D01*
X240417142Y-46403571D01*
X240202857Y-46403571D01*
X241345714Y-45403571D02*
X241345714Y-46903571D01*
X241345714Y-45475000D02*
X241488571Y-45403571D01*
X241774285Y-45403571D01*
X241917142Y-45475000D01*
X241988571Y-45546429D01*
X242060000Y-45689286D01*
X242060000Y-46117857D01*
X241988571Y-46260714D01*
X241917142Y-46332143D01*
X241774285Y-46403571D01*
X241488571Y-46403571D01*
X241345714Y-46332143D01*
X242702857Y-45403571D02*
X242702857Y-46903571D01*
X242702857Y-45475000D02*
X242845714Y-45403571D01*
X243131428Y-45403571D01*
X243274285Y-45475000D01*
X243345714Y-45546429D01*
X243417143Y-45689286D01*
X243417143Y-46117857D01*
X243345714Y-46260714D01*
X243274285Y-46332143D01*
X243131428Y-46403571D01*
X242845714Y-46403571D01*
X242702857Y-46332143D01*
X244631428Y-46332143D02*
X244488571Y-46403571D01*
X244202857Y-46403571D01*
X244060000Y-46332143D01*
X243988571Y-46189286D01*
X243988571Y-45617857D01*
X244060000Y-45475000D01*
X244202857Y-45403571D01*
X244488571Y-45403571D01*
X244631428Y-45475000D01*
X244702857Y-45617857D01*
X244702857Y-45760714D01*
X243988571Y-45903571D01*
X245345714Y-46403571D02*
X245345714Y-45403571D01*
X245345714Y-45689286D02*
X245417142Y-45546429D01*
X245488571Y-45475000D01*
X245631428Y-45403571D01*
X245774285Y-45403571D01*
D12*
X197358000Y-114046000D03*
D13*
X199898000Y-114046000D03*
X197358000Y-111506000D03*
X199898000Y-111506000D03*
X197358000Y-108966000D03*
X199898000Y-108966000D03*
X197358000Y-106426000D03*
X199898000Y-106426000D03*
X197358000Y-103886000D03*
X199898000Y-103886000D03*
X197358000Y-101346000D03*
X199898000Y-101346000D03*
X197358000Y-98806000D03*
X199898000Y-98806000D03*
X197358000Y-96266000D03*
X199898000Y-96266000D03*
X197358000Y-93726000D03*
X199898000Y-93726000D03*
X197358000Y-91186000D03*
X199898000Y-91186000D03*
X197358000Y-88646000D03*
X199898000Y-88646000D03*
X197358000Y-86106000D03*
X199898000Y-86106000D03*
X197358000Y-83566000D03*
X199898000Y-83566000D03*
X197358000Y-81026000D03*
X199898000Y-81026000D03*
X197358000Y-78486000D03*
X199898000Y-78486000D03*
X197358000Y-75946000D03*
X199898000Y-75946000D03*
X197358000Y-73406000D03*
X199898000Y-73406000D03*
X197358000Y-70866000D03*
X199898000Y-70866000D03*
D14*
X131318000Y-119126000D03*
X133858000Y-119126000D03*
X136398000Y-119126000D03*
X138938000Y-119126000D03*
X141478000Y-119126000D03*
X144018000Y-119126000D03*
X146558000Y-119126000D03*
X149098000Y-119126000D03*
X154178000Y-119126000D03*
X156718000Y-119126000D03*
X159258000Y-119126000D03*
X161798000Y-119126000D03*
X164338000Y-119126000D03*
X166878000Y-119126000D03*
X169418000Y-119126000D03*
X171958000Y-119126000D03*
X177038000Y-119126000D03*
X179578000Y-119126000D03*
X182118000Y-119126000D03*
X184658000Y-119126000D03*
X187198000Y-119126000D03*
X189738000Y-119126000D03*
X192278000Y-119126000D03*
X194818000Y-119126000D03*
X122174000Y-70866000D03*
X124714000Y-70866000D03*
X127254000Y-70866000D03*
X129794000Y-70866000D03*
X132334000Y-70866000D03*
X134874000Y-70866000D03*
X137414000Y-70866000D03*
X139954000Y-70866000D03*
X142494000Y-70866000D03*
X145034000Y-70866000D03*
X149098000Y-70866000D03*
X151638000Y-70866000D03*
X154178000Y-70866000D03*
X156718000Y-70866000D03*
X159258000Y-70866000D03*
X161798000Y-70866000D03*
X164338000Y-70866000D03*
X166878000Y-70866000D03*
X171958000Y-70866000D03*
X174498000Y-70866000D03*
X177038000Y-70866000D03*
X179578000Y-70866000D03*
X182118000Y-70866000D03*
X184658000Y-70866000D03*
X187198000Y-70866000D03*
X189738000Y-70866000D03*
D15*
X150071000Y-96581000D03*
X150071000Y-95631000D03*
X150071000Y-94681000D03*
X147871000Y-94681000D03*
X147871000Y-96581000D03*
X147871000Y-95631000D03*
D16*
X139954000Y-76581000D03*
X142494000Y-76581000D03*
X143764000Y-76581000D03*
X145034000Y-76581000D03*
X146304000Y-76581000D03*
X147574000Y-76581000D03*
X148844000Y-76581000D03*
X148844000Y-82931000D03*
X147574000Y-82931000D03*
X146304000Y-82931000D03*
X145034000Y-82931000D03*
X143764000Y-82931000D03*
X142494000Y-82931000D03*
X141224000Y-82931000D03*
X139954000Y-82931000D03*
X141224000Y-76581000D03*
X169926000Y-89408000D03*
X171196000Y-89408000D03*
X172466000Y-89408000D03*
X173736000Y-89408000D03*
X175006000Y-89408000D03*
X176276000Y-89408000D03*
X177546000Y-89408000D03*
X177546000Y-83058000D03*
X176276000Y-83058000D03*
X173736000Y-83058000D03*
X172466000Y-83058000D03*
X171196000Y-83058000D03*
X169926000Y-83058000D03*
X175006000Y-83058000D03*
X154432000Y-89281000D03*
X155702000Y-89281000D03*
X156972000Y-89281000D03*
X158242000Y-89281000D03*
X159512000Y-89281000D03*
X160782000Y-89281000D03*
X162052000Y-89281000D03*
X162052000Y-82931000D03*
X160782000Y-82931000D03*
X158242000Y-82931000D03*
X156972000Y-82931000D03*
X155702000Y-82931000D03*
X154432000Y-82931000D03*
X159512000Y-82931000D03*
D17*
X189992000Y-99314000D03*
D18*
X189992000Y-101854000D03*
X189992000Y-104394000D03*
X189992000Y-106934000D03*
D19*
X147193000Y-89535000D03*
X147193000Y-86233000D03*
D20*
X139192000Y-86614000D03*
X135890000Y-86614000D03*
D19*
X184658000Y-76327000D03*
X184658000Y-79629000D03*
X181356000Y-76327000D03*
X181356000Y-79629000D03*
X154686000Y-95758000D03*
X154686000Y-92456000D03*
X162052000Y-76708000D03*
X162052000Y-80010000D03*
X188087000Y-76200000D03*
X188087000Y-79502000D03*
X159004000Y-95758000D03*
X159004000Y-92456000D03*
X142875000Y-86360000D03*
X142875000Y-89662000D03*
X177038000Y-76454000D03*
X177038000Y-79756000D03*
X157480000Y-76708000D03*
X157480000Y-80010000D03*
D21*
X131276000Y-99815000D03*
X131276000Y-97315000D03*
X131276000Y-94015000D03*
X131276000Y-92315000D03*
X131276000Y-89815000D03*
X131276000Y-87315000D03*
X131276000Y-84895000D03*
X131276000Y-83195000D03*
X131276000Y-102315000D03*
X131276000Y-95665000D03*
X131276000Y-79845000D03*
D22*
X110276000Y-107345000D03*
X109076000Y-79345000D03*
D20*
X138049000Y-95631000D03*
X134747000Y-95631000D03*
D19*
X152527000Y-103505000D03*
X152527000Y-100203000D03*
D15*
X143848000Y-96581000D03*
X143848000Y-95631000D03*
X143848000Y-94681000D03*
X141648000Y-94681000D03*
X141648000Y-96581000D03*
X141648000Y-95631000D03*
D23*
X182880000Y-106045000D03*
X182880000Y-107315000D03*
X182880000Y-108585000D03*
X182880000Y-109855000D03*
X176530000Y-109855000D03*
X176530000Y-108585000D03*
X176530000Y-107315000D03*
X176530000Y-106045000D03*
D24*
X181422000Y-102700000D03*
X182372000Y-102700000D03*
X183322000Y-102700000D03*
X183322000Y-100500000D03*
X181422000Y-100500000D03*
X182372000Y-100500000D03*
D25*
X179070000Y-90170000D03*
X128651000Y-94742000D03*
X111887000Y-104013000D03*
X110363000Y-81788000D03*
X155321000Y-78359000D03*
X150241000Y-84074000D03*
X162560000Y-87630000D03*
X182499000Y-104648000D03*
X173990000Y-110363000D03*
X143891000Y-92329000D03*
X151892000Y-95504000D03*
X128270000Y-87630000D03*
X155448000Y-104521000D03*
X164211000Y-78359000D03*
X169291000Y-80899000D03*
X174752000Y-75565000D03*
X149606000Y-89662000D03*
X153797000Y-81026000D03*
X140589000Y-74676000D03*
X156337000Y-74295000D03*
X182499000Y-97536000D03*
X179070000Y-104140000D03*
X148971000Y-93218000D03*
X151384000Y-89916000D03*
X167386000Y-107315000D03*
X142494000Y-78994000D03*
X145034000Y-81153000D03*
X163957000Y-110744000D03*
X179578000Y-99187000D03*
X185293000Y-101854000D03*
X176403000Y-100711000D03*
X166243000Y-85090000D03*
X157607000Y-84582000D03*
X184785000Y-108712000D03*
X184785000Y-110617000D03*
X184658000Y-82296000D03*
X169799000Y-91440000D03*
X188087000Y-82423000D03*
X172466000Y-91440000D03*
X173736000Y-79756000D03*
X171196000Y-80645000D03*
X160147000Y-85725000D03*
X161544000Y-84582000D03*
X151257000Y-93218000D03*
X167386000Y-90932000D03*
X134239000Y-89916000D03*
X139700000Y-93345000D03*
X122301000Y-84836000D03*
X140843000Y-109220000D03*
X161036000Y-109474000D03*
X145669000Y-97409000D03*
X143510000Y-98552000D03*
X140462000Y-91821000D03*
X146304000Y-93472000D03*
X136398000Y-92837000D03*
X128270000Y-92202000D03*
X171196000Y-87503000D03*
X142494000Y-80772000D03*
X155956000Y-86233000D03*
X144018000Y-78359000D03*
D26*
X177546000Y-89408000D02*
X178308000Y-89408000D01*
X178308000Y-89408000D02*
X179070000Y-90170000D01*
X131276000Y-94015000D02*
X129378000Y-94015000D01*
X129378000Y-94015000D02*
X128651000Y-94742000D01*
X110276000Y-107345000D02*
X110276000Y-105624000D01*
X110276000Y-105624000D02*
X111887000Y-104013000D01*
X109076000Y-79345000D02*
X109076000Y-80501000D01*
X109076000Y-80501000D02*
X110363000Y-81788000D01*
X148844000Y-82931000D02*
X149098000Y-82931000D01*
X149098000Y-82931000D02*
X150241000Y-84074000D01*
X162052000Y-88138000D02*
X162560000Y-87630000D01*
X162052000Y-89281000D02*
X162052000Y-88138000D01*
X143891000Y-92329000D02*
X143891000Y-90678000D01*
X143891000Y-90678000D02*
X142875000Y-89662000D01*
X182372000Y-102700000D02*
X182372000Y-104521000D01*
X182372000Y-104521000D02*
X182499000Y-104648000D01*
X174498000Y-109855000D02*
X176530000Y-109855000D01*
X173990000Y-110363000D02*
X174498000Y-109855000D01*
X143848000Y-95631000D02*
X142748000Y-95631000D01*
X142748000Y-93472000D02*
X143891000Y-92329000D01*
X142748000Y-95631000D02*
X142748000Y-93472000D01*
X151765000Y-95631000D02*
X150071000Y-95631000D01*
X151892000Y-95504000D02*
X151765000Y-95631000D01*
X128585000Y-87315000D02*
X131276000Y-87315000D01*
X128270000Y-87630000D02*
X128585000Y-87315000D01*
X109076000Y-79345000D02*
X109076000Y-79866000D01*
X152527000Y-103505000D02*
X154432000Y-103505000D01*
X154432000Y-103505000D02*
X155448000Y-104521000D01*
X169926000Y-83058000D02*
X169926000Y-81534000D01*
X169926000Y-81534000D02*
X169291000Y-80899000D01*
X177038000Y-76454000D02*
X175641000Y-76454000D01*
X175641000Y-76454000D02*
X174752000Y-75565000D01*
X147193000Y-89535000D02*
X149479000Y-89535000D01*
X149479000Y-89535000D02*
X149606000Y-89662000D01*
X154432000Y-82931000D02*
X154432000Y-81661000D01*
X154432000Y-81661000D02*
X153797000Y-81026000D01*
X141224000Y-76581000D02*
X141224000Y-75311000D01*
X141224000Y-75311000D02*
X140589000Y-74676000D01*
X157480000Y-75438000D02*
X156337000Y-74295000D01*
X157480000Y-76708000D02*
X157480000Y-75438000D01*
X182372000Y-97663000D02*
X182372000Y-100500000D01*
X182499000Y-97536000D02*
X182372000Y-97663000D01*
X182880000Y-106045000D02*
X180975000Y-106045000D01*
X180975000Y-106045000D02*
X179070000Y-104140000D01*
X139954000Y-76581000D02*
X141224000Y-76581000D01*
X141224000Y-82931000D02*
X141224000Y-76581000D01*
D27*
X155321000Y-85090000D02*
X153035000Y-85090000D01*
X148717000Y-93835000D02*
X147871000Y-94681000D01*
X148717000Y-93472000D02*
X148717000Y-93835000D01*
X148971000Y-93218000D02*
X148717000Y-93472000D01*
X151384000Y-86741000D02*
X151384000Y-89916000D01*
X153035000Y-85090000D02*
X151384000Y-86741000D01*
X159512000Y-82931000D02*
X159512000Y-83947000D01*
X156464000Y-85090000D02*
X155321000Y-85090000D01*
X155321000Y-85090000D02*
X155194000Y-85090000D01*
X156845000Y-85471000D02*
X156464000Y-85090000D01*
X157988000Y-85471000D02*
X156845000Y-85471000D01*
X159512000Y-83947000D02*
X157988000Y-85471000D01*
X145034000Y-70866000D02*
X147828000Y-73660000D01*
X148844000Y-74930000D02*
X148844000Y-76581000D01*
X147828000Y-73914000D02*
X148844000Y-74930000D01*
X147828000Y-73660000D02*
X147828000Y-73914000D01*
X147574000Y-76581000D02*
X147574000Y-75438000D01*
X144526000Y-72898000D02*
X142494000Y-70866000D01*
X145034000Y-72898000D02*
X144526000Y-72898000D01*
X147574000Y-75438000D02*
X145034000Y-72898000D01*
X146304000Y-82931000D02*
X146304000Y-85344000D01*
X146304000Y-85344000D02*
X147193000Y-86233000D01*
X149098000Y-70866000D02*
X149098000Y-73279000D01*
X146304000Y-81407000D02*
X146304000Y-82931000D01*
X147066000Y-80645000D02*
X146304000Y-81407000D01*
X149352000Y-80645000D02*
X147066000Y-80645000D01*
X151638000Y-78359000D02*
X149352000Y-80645000D01*
X151638000Y-75819000D02*
X151638000Y-78359000D01*
X149098000Y-73279000D02*
X151638000Y-75819000D01*
X145034000Y-82931000D02*
X145034000Y-91313000D01*
X159004000Y-98933000D02*
X167386000Y-107315000D01*
X154559000Y-98933000D02*
X159004000Y-98933000D01*
X152781000Y-97155000D02*
X154559000Y-98933000D01*
X152781000Y-92710000D02*
X152781000Y-97155000D01*
X152019000Y-91948000D02*
X152781000Y-92710000D01*
X145669000Y-91948000D02*
X152019000Y-91948000D01*
X145034000Y-91313000D02*
X145669000Y-91948000D01*
X145034000Y-82931000D02*
X145034000Y-81153000D01*
X142494000Y-78994000D02*
X142494000Y-76581000D01*
X154178000Y-119126000D02*
X154178000Y-116332000D01*
X154178000Y-116332000D02*
X159766000Y-110744000D01*
X159766000Y-110744000D02*
X163957000Y-110744000D01*
X180891000Y-100500000D02*
X181422000Y-100500000D01*
X179578000Y-99187000D02*
X180891000Y-100500000D01*
X181422000Y-100500000D02*
X181422000Y-96200000D01*
X186690000Y-96012000D02*
X189992000Y-99314000D01*
X181610000Y-96012000D02*
X186690000Y-96012000D01*
X181422000Y-96200000D02*
X181610000Y-96012000D01*
X166243000Y-85090000D02*
X166243000Y-91948000D01*
X175006000Y-100711000D02*
X176403000Y-100711000D01*
X166243000Y-91948000D02*
X175006000Y-100711000D01*
X158242000Y-82931000D02*
X157734000Y-84455000D01*
X173736000Y-84074000D02*
X173736000Y-83058000D01*
X173482000Y-84328000D02*
X173736000Y-84074000D01*
X167005000Y-84328000D02*
X173482000Y-84328000D01*
X166243000Y-85090000D02*
X167005000Y-84328000D01*
X157734000Y-84455000D02*
X157607000Y-84582000D01*
X182880000Y-108585000D02*
X184658000Y-108585000D01*
X184658000Y-108585000D02*
X184785000Y-108712000D01*
X189992000Y-101854000D02*
X185293000Y-101854000D01*
X185293000Y-101854000D02*
X184676000Y-101854000D01*
X184676000Y-101854000D02*
X183322000Y-100500000D01*
X183322000Y-102700000D02*
X183322000Y-101788000D01*
X183261000Y-101854000D02*
X183261000Y-101727000D01*
X183261000Y-101849000D02*
X183261000Y-101854000D01*
X183322000Y-101788000D02*
X183261000Y-101849000D01*
X182880000Y-109855000D02*
X184023000Y-109855000D01*
X184023000Y-109855000D02*
X184785000Y-110617000D01*
X187198000Y-70866000D02*
X187198000Y-72517000D01*
X168021000Y-73406000D02*
X164719000Y-76708000D01*
X186309000Y-73406000D02*
X168021000Y-73406000D01*
X187198000Y-72517000D02*
X186309000Y-73406000D01*
X159004000Y-95758000D02*
X164338000Y-95758000D01*
X164719000Y-76708000D02*
X162052000Y-76708000D01*
X165227000Y-77216000D02*
X164719000Y-76708000D01*
X165227000Y-94869000D02*
X165227000Y-77216000D01*
X164338000Y-95758000D02*
X165227000Y-94869000D01*
X159004000Y-95758000D02*
X154686000Y-95758000D01*
X189992000Y-104394000D02*
X186182000Y-104394000D01*
X164846000Y-101600000D02*
X159004000Y-95758000D01*
X183134000Y-101600000D02*
X164846000Y-101600000D01*
X184234000Y-102700000D02*
X183261000Y-101727000D01*
X183261000Y-101727000D02*
X183134000Y-101600000D01*
X184488000Y-102700000D02*
X184234000Y-102700000D01*
X186182000Y-104394000D02*
X184488000Y-102700000D01*
X169926000Y-89408000D02*
X169926000Y-91313000D01*
X184658000Y-82296000D02*
X184658000Y-79629000D01*
X169926000Y-91313000D02*
X169799000Y-91440000D01*
X172466000Y-89408000D02*
X172466000Y-91440000D01*
X188087000Y-82423000D02*
X188087000Y-79502000D01*
X197358000Y-86106000D02*
X176276000Y-86106000D01*
X175006000Y-87376000D02*
X175006000Y-89408000D01*
X176276000Y-86106000D02*
X175006000Y-87376000D01*
X197358000Y-88646000D02*
X180975000Y-88646000D01*
X176276000Y-88011000D02*
X176276000Y-89408000D01*
X176784000Y-87503000D02*
X176276000Y-88011000D01*
X179832000Y-87503000D02*
X176784000Y-87503000D01*
X180975000Y-88646000D02*
X179832000Y-87503000D01*
X177546000Y-83058000D02*
X179324000Y-83058000D01*
X181356000Y-81026000D02*
X181356000Y-79629000D01*
X179324000Y-83058000D02*
X181356000Y-81026000D01*
X177038000Y-79756000D02*
X173736000Y-79756000D01*
X172466000Y-81026000D02*
X172466000Y-83058000D01*
X173736000Y-79756000D02*
X172466000Y-81026000D01*
X171196000Y-80645000D02*
X171196000Y-83058000D01*
X154432000Y-89281000D02*
X154432000Y-92202000D01*
X154432000Y-92202000D02*
X154686000Y-92456000D01*
X156972000Y-89281000D02*
X156972000Y-90424000D01*
X156972000Y-90424000D02*
X159004000Y-92456000D01*
X159512000Y-86360000D02*
X160147000Y-85725000D01*
X159512000Y-86360000D02*
X159512000Y-89281000D01*
X160782000Y-89281000D02*
X160782000Y-87376000D01*
X160782000Y-87376000D02*
X161544000Y-84582000D01*
X162052000Y-80010000D02*
X162052000Y-82931000D01*
X156718000Y-70866000D02*
X156718000Y-71374000D01*
X156718000Y-71374000D02*
X159766000Y-74422000D01*
X159766000Y-74422000D02*
X159766000Y-79375000D01*
X159766000Y-79375000D02*
X159131000Y-80010000D01*
X159131000Y-80010000D02*
X157480000Y-80010000D01*
X157480000Y-80010000D02*
X157480000Y-81153000D01*
X156972000Y-81661000D02*
X156972000Y-82931000D01*
X157480000Y-81153000D02*
X156972000Y-81661000D01*
X155702000Y-82931000D02*
X155702000Y-80772000D01*
X153670000Y-78740000D02*
X153670000Y-71374000D01*
X155702000Y-80772000D02*
X153670000Y-78740000D01*
X153670000Y-71374000D02*
X154178000Y-70866000D01*
X150071000Y-94681000D02*
X150071000Y-94404000D01*
X150071000Y-94404000D02*
X151257000Y-93218000D01*
X167386000Y-90932000D02*
X167386000Y-90043000D01*
X167386000Y-90043000D02*
X167386000Y-85852000D01*
X167386000Y-85852000D02*
X168275000Y-84963000D01*
X168275000Y-84963000D02*
X173990000Y-84963000D01*
X173990000Y-84963000D02*
X175006000Y-83947000D01*
X175006000Y-83947000D02*
X175006000Y-83058000D01*
X175006000Y-83058000D02*
X175006000Y-81788000D01*
X179959000Y-76327000D02*
X181356000Y-76327000D01*
X179324000Y-76962000D02*
X179959000Y-76327000D01*
X179324000Y-80899000D02*
X179324000Y-76962000D01*
X178689000Y-81534000D02*
X179324000Y-80899000D01*
X175260000Y-81534000D02*
X178689000Y-81534000D01*
X175006000Y-81788000D02*
X175260000Y-81534000D01*
X184658000Y-76327000D02*
X181356000Y-76327000D01*
X188087000Y-76200000D02*
X184785000Y-76200000D01*
X184785000Y-76200000D02*
X184658000Y-76327000D01*
X189738000Y-70866000D02*
X189738000Y-74549000D01*
X189738000Y-74549000D02*
X188087000Y-76200000D01*
X143764000Y-82931000D02*
X143764000Y-85471000D01*
X143764000Y-85471000D02*
X142875000Y-86360000D01*
X143764000Y-82931000D02*
X143764000Y-80645000D01*
X146304000Y-78105000D02*
X146304000Y-76581000D01*
X143764000Y-80645000D02*
X146304000Y-78105000D01*
X143891000Y-83058000D02*
X143764000Y-82931000D01*
X147871000Y-96581000D02*
X147767000Y-96581000D01*
X147767000Y-96581000D02*
X144533000Y-99815000D01*
X144533000Y-99815000D02*
X131276000Y-99815000D01*
X141648000Y-96581000D02*
X141163000Y-96581000D01*
X141163000Y-96581000D02*
X139573000Y-98171000D01*
X139573000Y-98171000D02*
X132132000Y-98171000D01*
X132132000Y-98171000D02*
X131276000Y-97315000D01*
X141648000Y-94681000D02*
X141036000Y-94681000D01*
X134138000Y-89815000D02*
X131276000Y-89815000D01*
X134239000Y-89916000D02*
X134138000Y-89815000D01*
X141036000Y-94681000D02*
X139700000Y-93345000D01*
X122360000Y-84895000D02*
X131276000Y-84895000D01*
X122301000Y-84836000D02*
X122360000Y-84895000D01*
X160782000Y-109220000D02*
X140843000Y-109220000D01*
X161036000Y-109474000D02*
X160782000Y-109220000D01*
X134747000Y-95631000D02*
X134747000Y-92075000D01*
X137541000Y-89281000D02*
X137541000Y-70993000D01*
X134747000Y-92075000D02*
X137541000Y-89281000D01*
X137541000Y-70993000D02*
X137414000Y-70866000D01*
X134747000Y-95631000D02*
X131310000Y-95631000D01*
X131310000Y-95631000D02*
X131276000Y-95665000D01*
X131276000Y-79845000D02*
X134074000Y-79845000D01*
X135890000Y-81661000D02*
X135890000Y-86614000D01*
X134074000Y-79845000D02*
X135890000Y-81661000D01*
X134874000Y-70866000D02*
X134874000Y-76247000D01*
X134874000Y-76247000D02*
X131276000Y-79845000D01*
X143848000Y-94681000D02*
X144973000Y-94681000D01*
X145669000Y-95377000D02*
X145669000Y-97409000D01*
X144973000Y-94681000D02*
X145669000Y-95377000D01*
X152527000Y-100203000D02*
X152527000Y-99037000D01*
X152527000Y-99037000D02*
X150071000Y-96581000D01*
X199898000Y-111506000D02*
X198628000Y-112776000D01*
X155321000Y-100203000D02*
X152527000Y-100203000D01*
X167894000Y-112776000D02*
X155321000Y-100203000D01*
X198628000Y-112776000D02*
X167894000Y-112776000D01*
X143848000Y-96581000D02*
X143848000Y-98214000D01*
X143848000Y-98214000D02*
X143510000Y-98552000D01*
D26*
X139192000Y-83693000D02*
X139192000Y-78613000D01*
X145034000Y-75057000D02*
X145034000Y-76581000D01*
X143129000Y-73152000D02*
X145034000Y-75057000D01*
X138811000Y-73152000D02*
X143129000Y-73152000D01*
X138303000Y-73660000D02*
X138811000Y-73152000D01*
X138303000Y-77724000D02*
X138303000Y-73660000D01*
X139192000Y-78613000D02*
X138303000Y-77724000D01*
X139446000Y-90805000D02*
X138938000Y-90805000D01*
X140462000Y-91821000D02*
X139446000Y-90805000D01*
X147871000Y-95631000D02*
X146685000Y-95631000D01*
X146264829Y-94864325D02*
X146304000Y-93472000D01*
X146685000Y-95631000D02*
X146264829Y-94864325D01*
X136398000Y-92837000D02*
X138049000Y-92837000D01*
X128270000Y-92202000D02*
X128143000Y-92202000D01*
X128016000Y-104013000D02*
X138938000Y-104013000D01*
X126238000Y-102235000D02*
X128016000Y-104013000D01*
X126238000Y-94107000D02*
X126238000Y-102235000D01*
X128143000Y-92202000D02*
X126238000Y-94107000D01*
X128383000Y-92315000D02*
X131276000Y-92315000D01*
X128270000Y-92202000D02*
X128383000Y-92315000D01*
X138938000Y-119126000D02*
X138938000Y-104013000D01*
X138049000Y-95631000D02*
X141648000Y-95631000D01*
X138049000Y-95631000D02*
X138049000Y-92837000D01*
X138049000Y-92837000D02*
X138049000Y-91694000D01*
X138049000Y-91694000D02*
X138938000Y-90805000D01*
X138938000Y-90805000D02*
X139192000Y-90551000D01*
X139192000Y-90551000D02*
X139192000Y-86614000D01*
X139192000Y-86614000D02*
X139192000Y-83693000D01*
X139192000Y-83693000D02*
X139954000Y-82931000D01*
D27*
X142494000Y-82931000D02*
X142494000Y-80772000D01*
X173736000Y-86741000D02*
X171831000Y-86741000D01*
X171196000Y-87376000D02*
X171196000Y-87503000D01*
X171196000Y-87503000D02*
X171196000Y-89408000D01*
X171831000Y-86741000D02*
X171196000Y-87376000D01*
X176276000Y-83058000D02*
X176276000Y-84201000D01*
X173736000Y-86741000D02*
X173736000Y-89408000D01*
X176276000Y-84201000D02*
X173736000Y-86741000D01*
X143764000Y-76581000D02*
X143764000Y-78105000D01*
X143764000Y-78105000D02*
X144018000Y-78359000D01*
X158242000Y-86106000D02*
X156083000Y-86106000D01*
X155702000Y-86487000D02*
X155702000Y-89281000D01*
X156083000Y-86106000D02*
X155956000Y-86233000D01*
X155956000Y-86233000D02*
X155702000Y-86487000D01*
X160782000Y-82931000D02*
X160782000Y-83566000D01*
X158242000Y-86106000D02*
X158242000Y-89281000D01*
X160782000Y-83566000D02*
X158242000Y-86106000D01*
M02*
