G04 #@! TF.FileFunction,Copper,L3,Inr,Plane*
%FSLAX46Y46*%
G04 Gerber Fmt 4.6, Leading zero omitted, Abs format (unit mm)*
G04 Created by KiCad (PCBNEW 4.0.6) date 11/29/17 13:30:51*
%MOMM*%
%LPD*%
G01*
G04 APERTURE LIST*
%ADD10C,0.100000*%
%ADD11C,0.300000*%
%ADD12C,1.727200*%
%ADD13O,1.727200X1.727200*%
%ADD14O,1.727200X2.032000*%
%ADD15R,2.030000X1.730000*%
%ADD16O,2.030000X1.730000*%
%ADD17C,0.889000*%
%ADD18C,0.254000*%
G04 APERTURE END LIST*
D10*
D11*
X226417143Y-59093571D02*
X226417143Y-57593571D01*
X228202857Y-57522143D02*
X226917143Y-59450714D01*
X228988572Y-57593571D02*
X229274286Y-57593571D01*
X229417144Y-57665000D01*
X229560001Y-57807857D01*
X229631429Y-58093571D01*
X229631429Y-58593571D01*
X229560001Y-58879286D01*
X229417144Y-59022143D01*
X229274286Y-59093571D01*
X228988572Y-59093571D01*
X228845715Y-59022143D01*
X228702858Y-58879286D01*
X228631429Y-58593571D01*
X228631429Y-58093571D01*
X228702858Y-57807857D01*
X228845715Y-57665000D01*
X228988572Y-57593571D01*
X231917144Y-58307857D02*
X232131430Y-58379286D01*
X232202858Y-58450714D01*
X232274287Y-58593571D01*
X232274287Y-58807857D01*
X232202858Y-58950714D01*
X232131430Y-59022143D01*
X231988572Y-59093571D01*
X231417144Y-59093571D01*
X231417144Y-57593571D01*
X231917144Y-57593571D01*
X232060001Y-57665000D01*
X232131430Y-57736429D01*
X232202858Y-57879286D01*
X232202858Y-58022143D01*
X232131430Y-58165000D01*
X232060001Y-58236429D01*
X231917144Y-58307857D01*
X231417144Y-58307857D01*
X233131430Y-59093571D02*
X232988572Y-59022143D01*
X232917144Y-58950714D01*
X232845715Y-58807857D01*
X232845715Y-58379286D01*
X232917144Y-58236429D01*
X232988572Y-58165000D01*
X233131430Y-58093571D01*
X233345715Y-58093571D01*
X233488572Y-58165000D01*
X233560001Y-58236429D01*
X233631430Y-58379286D01*
X233631430Y-58807857D01*
X233560001Y-58950714D01*
X233488572Y-59022143D01*
X233345715Y-59093571D01*
X233131430Y-59093571D01*
X234917144Y-59093571D02*
X234917144Y-58307857D01*
X234845715Y-58165000D01*
X234702858Y-58093571D01*
X234417144Y-58093571D01*
X234274287Y-58165000D01*
X234917144Y-59022143D02*
X234774287Y-59093571D01*
X234417144Y-59093571D01*
X234274287Y-59022143D01*
X234202858Y-58879286D01*
X234202858Y-58736429D01*
X234274287Y-58593571D01*
X234417144Y-58522143D01*
X234774287Y-58522143D01*
X234917144Y-58450714D01*
X235631430Y-59093571D02*
X235631430Y-58093571D01*
X235631430Y-58379286D02*
X235702858Y-58236429D01*
X235774287Y-58165000D01*
X235917144Y-58093571D01*
X236060001Y-58093571D01*
X237202858Y-59093571D02*
X237202858Y-57593571D01*
X237202858Y-59022143D02*
X237060001Y-59093571D01*
X236774287Y-59093571D01*
X236631429Y-59022143D01*
X236560001Y-58950714D01*
X236488572Y-58807857D01*
X236488572Y-58379286D01*
X236560001Y-58236429D01*
X236631429Y-58165000D01*
X236774287Y-58093571D01*
X237060001Y-58093571D01*
X237202858Y-58165000D01*
X239917144Y-59093571D02*
X239417144Y-58379286D01*
X239060001Y-59093571D02*
X239060001Y-57593571D01*
X239631429Y-57593571D01*
X239774287Y-57665000D01*
X239845715Y-57736429D01*
X239917144Y-57879286D01*
X239917144Y-58093571D01*
X239845715Y-58236429D01*
X239774287Y-58307857D01*
X239631429Y-58379286D01*
X239060001Y-58379286D01*
X241131429Y-59022143D02*
X240988572Y-59093571D01*
X240702858Y-59093571D01*
X240560001Y-59022143D01*
X240488572Y-58879286D01*
X240488572Y-58307857D01*
X240560001Y-58165000D01*
X240702858Y-58093571D01*
X240988572Y-58093571D01*
X241131429Y-58165000D01*
X241202858Y-58307857D01*
X241202858Y-58450714D01*
X240488572Y-58593571D01*
X241702858Y-58093571D02*
X242060001Y-59093571D01*
X242417143Y-58093571D01*
X244917143Y-59093571D02*
X244060000Y-59093571D01*
X244488572Y-59093571D02*
X244488572Y-57593571D01*
X244345715Y-57807857D01*
X244202857Y-57950714D01*
X244060000Y-58022143D01*
X245560000Y-58950714D02*
X245631428Y-59022143D01*
X245560000Y-59093571D01*
X245488571Y-59022143D01*
X245560000Y-58950714D01*
X245560000Y-59093571D01*
X246560000Y-57593571D02*
X246702857Y-57593571D01*
X246845714Y-57665000D01*
X246917143Y-57736429D01*
X246988572Y-57879286D01*
X247060000Y-58165000D01*
X247060000Y-58522143D01*
X246988572Y-58807857D01*
X246917143Y-58950714D01*
X246845714Y-59022143D01*
X246702857Y-59093571D01*
X246560000Y-59093571D01*
X246417143Y-59022143D01*
X246345714Y-58950714D01*
X246274286Y-58807857D01*
X246202857Y-58522143D01*
X246202857Y-58165000D01*
X246274286Y-57879286D01*
X246345714Y-57736429D01*
X246417143Y-57665000D01*
X246560000Y-57593571D01*
X226417143Y-61643571D02*
X226417143Y-60143571D01*
X227131429Y-60643571D02*
X227131429Y-61643571D01*
X227131429Y-60786429D02*
X227202857Y-60715000D01*
X227345715Y-60643571D01*
X227560000Y-60643571D01*
X227702857Y-60715000D01*
X227774286Y-60857857D01*
X227774286Y-61643571D01*
X228488572Y-60643571D02*
X228488572Y-61643571D01*
X228488572Y-60786429D02*
X228560000Y-60715000D01*
X228702858Y-60643571D01*
X228917143Y-60643571D01*
X229060000Y-60715000D01*
X229131429Y-60857857D01*
X229131429Y-61643571D01*
X230417143Y-61572143D02*
X230274286Y-61643571D01*
X229988572Y-61643571D01*
X229845715Y-61572143D01*
X229774286Y-61429286D01*
X229774286Y-60857857D01*
X229845715Y-60715000D01*
X229988572Y-60643571D01*
X230274286Y-60643571D01*
X230417143Y-60715000D01*
X230488572Y-60857857D01*
X230488572Y-61000714D01*
X229774286Y-61143571D01*
X231131429Y-61643571D02*
X231131429Y-60643571D01*
X231131429Y-60929286D02*
X231202857Y-60786429D01*
X231274286Y-60715000D01*
X231417143Y-60643571D01*
X231560000Y-60643571D01*
X233131428Y-60286429D02*
X233202857Y-60215000D01*
X233345714Y-60143571D01*
X233702857Y-60143571D01*
X233845714Y-60215000D01*
X233917143Y-60286429D01*
X233988571Y-60429286D01*
X233988571Y-60572143D01*
X233917143Y-60786429D01*
X233060000Y-61643571D01*
X233988571Y-61643571D01*
X236488571Y-61643571D02*
X235774285Y-61643571D01*
X235774285Y-60143571D01*
X237631428Y-61643571D02*
X237631428Y-60857857D01*
X237559999Y-60715000D01*
X237417142Y-60643571D01*
X237131428Y-60643571D01*
X236988571Y-60715000D01*
X237631428Y-61572143D02*
X237488571Y-61643571D01*
X237131428Y-61643571D01*
X236988571Y-61572143D01*
X236917142Y-61429286D01*
X236917142Y-61286429D01*
X236988571Y-61143571D01*
X237131428Y-61072143D01*
X237488571Y-61072143D01*
X237631428Y-61000714D01*
X238202857Y-60643571D02*
X238560000Y-61643571D01*
X238917142Y-60643571D02*
X238560000Y-61643571D01*
X238417142Y-62000714D01*
X238345714Y-62072143D01*
X238202857Y-62143571D01*
X240059999Y-61572143D02*
X239917142Y-61643571D01*
X239631428Y-61643571D01*
X239488571Y-61572143D01*
X239417142Y-61429286D01*
X239417142Y-60857857D01*
X239488571Y-60715000D01*
X239631428Y-60643571D01*
X239917142Y-60643571D01*
X240059999Y-60715000D01*
X240131428Y-60857857D01*
X240131428Y-61000714D01*
X239417142Y-61143571D01*
X240774285Y-61643571D02*
X240774285Y-60643571D01*
X240774285Y-60929286D02*
X240845713Y-60786429D01*
X240917142Y-60715000D01*
X241059999Y-60643571D01*
X241202856Y-60643571D01*
X243702856Y-61500714D02*
X243631427Y-61572143D01*
X243417141Y-61643571D01*
X243274284Y-61643571D01*
X243059999Y-61572143D01*
X242917141Y-61429286D01*
X242845713Y-61286429D01*
X242774284Y-61000714D01*
X242774284Y-60786429D01*
X242845713Y-60500714D01*
X242917141Y-60357857D01*
X243059999Y-60215000D01*
X243274284Y-60143571D01*
X243417141Y-60143571D01*
X243631427Y-60215000D01*
X243702856Y-60286429D01*
X244559999Y-61643571D02*
X244417141Y-61572143D01*
X244345713Y-61500714D01*
X244274284Y-61357857D01*
X244274284Y-60929286D01*
X244345713Y-60786429D01*
X244417141Y-60715000D01*
X244559999Y-60643571D01*
X244774284Y-60643571D01*
X244917141Y-60715000D01*
X244988570Y-60786429D01*
X245059999Y-60929286D01*
X245059999Y-61357857D01*
X244988570Y-61500714D01*
X244917141Y-61572143D01*
X244774284Y-61643571D01*
X244559999Y-61643571D01*
X245702856Y-60643571D02*
X245702856Y-62143571D01*
X245702856Y-60715000D02*
X245845713Y-60643571D01*
X246131427Y-60643571D01*
X246274284Y-60715000D01*
X246345713Y-60786429D01*
X246417142Y-60929286D01*
X246417142Y-61357857D01*
X246345713Y-61500714D01*
X246274284Y-61572143D01*
X246131427Y-61643571D01*
X245845713Y-61643571D01*
X245702856Y-61572143D01*
X247059999Y-60643571D02*
X247059999Y-62143571D01*
X247059999Y-60715000D02*
X247202856Y-60643571D01*
X247488570Y-60643571D01*
X247631427Y-60715000D01*
X247702856Y-60786429D01*
X247774285Y-60929286D01*
X247774285Y-61357857D01*
X247702856Y-61500714D01*
X247631427Y-61572143D01*
X247488570Y-61643571D01*
X247202856Y-61643571D01*
X247059999Y-61572143D01*
X248988570Y-61572143D02*
X248845713Y-61643571D01*
X248559999Y-61643571D01*
X248417142Y-61572143D01*
X248345713Y-61429286D01*
X248345713Y-60857857D01*
X248417142Y-60715000D01*
X248559999Y-60643571D01*
X248845713Y-60643571D01*
X248988570Y-60715000D01*
X249059999Y-60857857D01*
X249059999Y-61000714D01*
X248345713Y-61143571D01*
X249702856Y-61643571D02*
X249702856Y-60643571D01*
X249702856Y-60929286D02*
X249774284Y-60786429D01*
X249845713Y-60715000D01*
X249988570Y-60643571D01*
X250131427Y-60643571D01*
D12*
X197358000Y-114046000D03*
D13*
X199898000Y-114046000D03*
X197358000Y-111506000D03*
X199898000Y-111506000D03*
X197358000Y-108966000D03*
X199898000Y-108966000D03*
X197358000Y-106426000D03*
X199898000Y-106426000D03*
X197358000Y-103886000D03*
X199898000Y-103886000D03*
X197358000Y-101346000D03*
X199898000Y-101346000D03*
X197358000Y-98806000D03*
X199898000Y-98806000D03*
X197358000Y-96266000D03*
X199898000Y-96266000D03*
X197358000Y-93726000D03*
X199898000Y-93726000D03*
X197358000Y-91186000D03*
X199898000Y-91186000D03*
X197358000Y-88646000D03*
X199898000Y-88646000D03*
X197358000Y-86106000D03*
X199898000Y-86106000D03*
X197358000Y-83566000D03*
X199898000Y-83566000D03*
X197358000Y-81026000D03*
X199898000Y-81026000D03*
X197358000Y-78486000D03*
X199898000Y-78486000D03*
X197358000Y-75946000D03*
X199898000Y-75946000D03*
X197358000Y-73406000D03*
X199898000Y-73406000D03*
X197358000Y-70866000D03*
X199898000Y-70866000D03*
D14*
X131318000Y-119126000D03*
X133858000Y-119126000D03*
X136398000Y-119126000D03*
X138938000Y-119126000D03*
X141478000Y-119126000D03*
X144018000Y-119126000D03*
X146558000Y-119126000D03*
X149098000Y-119126000D03*
X154178000Y-119126000D03*
X156718000Y-119126000D03*
X159258000Y-119126000D03*
X161798000Y-119126000D03*
X164338000Y-119126000D03*
X166878000Y-119126000D03*
X169418000Y-119126000D03*
X171958000Y-119126000D03*
X177038000Y-119126000D03*
X179578000Y-119126000D03*
X182118000Y-119126000D03*
X184658000Y-119126000D03*
X187198000Y-119126000D03*
X189738000Y-119126000D03*
X192278000Y-119126000D03*
X194818000Y-119126000D03*
X122174000Y-70866000D03*
X124714000Y-70866000D03*
X127254000Y-70866000D03*
X129794000Y-70866000D03*
X132334000Y-70866000D03*
X134874000Y-70866000D03*
X137414000Y-70866000D03*
X139954000Y-70866000D03*
X142494000Y-70866000D03*
X145034000Y-70866000D03*
X149098000Y-70866000D03*
X151638000Y-70866000D03*
X154178000Y-70866000D03*
X156718000Y-70866000D03*
X159258000Y-70866000D03*
X161798000Y-70866000D03*
X164338000Y-70866000D03*
X166878000Y-70866000D03*
X171958000Y-70866000D03*
X174498000Y-70866000D03*
X177038000Y-70866000D03*
X179578000Y-70866000D03*
X182118000Y-70866000D03*
X184658000Y-70866000D03*
X187198000Y-70866000D03*
X189738000Y-70866000D03*
D15*
X189992000Y-99314000D03*
D16*
X189992000Y-101854000D03*
X189992000Y-104394000D03*
X189992000Y-106934000D03*
D17*
X179070000Y-90170000D03*
X128651000Y-94742000D03*
X111887000Y-104013000D03*
X110363000Y-81788000D03*
X155321000Y-78359000D03*
X150241000Y-84074000D03*
X162560000Y-87630000D03*
X182499000Y-104648000D03*
X173990000Y-110363000D03*
X143891000Y-92329000D03*
X151892000Y-95504000D03*
X128270000Y-87630000D03*
X155448000Y-104521000D03*
X164211000Y-78359000D03*
X169291000Y-80899000D03*
X174752000Y-75565000D03*
X149606000Y-89662000D03*
X153797000Y-81026000D03*
X140589000Y-74676000D03*
X156337000Y-74295000D03*
X182499000Y-97536000D03*
X179070000Y-104140000D03*
X148971000Y-93218000D03*
X151384000Y-89916000D03*
X167386000Y-107315000D03*
X142494000Y-78994000D03*
X145034000Y-81153000D03*
X163957000Y-110744000D03*
X179578000Y-99187000D03*
X185293000Y-101854000D03*
X176403000Y-100711000D03*
X166243000Y-85090000D03*
X157607000Y-84582000D03*
X184785000Y-108712000D03*
X184785000Y-110617000D03*
X184658000Y-82296000D03*
X169799000Y-91440000D03*
X188087000Y-82423000D03*
X172466000Y-91440000D03*
X173736000Y-79756000D03*
X171196000Y-80645000D03*
X160147000Y-85725000D03*
X161544000Y-84582000D03*
X151257000Y-93218000D03*
X167386000Y-90932000D03*
X134239000Y-89916000D03*
X139700000Y-93345000D03*
X122301000Y-84836000D03*
X140843000Y-109220000D03*
X161036000Y-109474000D03*
X145669000Y-97409000D03*
X143510000Y-98552000D03*
X140462000Y-91821000D03*
X146304000Y-93472000D03*
X136398000Y-92837000D03*
X128270000Y-92202000D03*
X171196000Y-87503000D03*
X142494000Y-80772000D03*
X155956000Y-86233000D03*
X144018000Y-78359000D03*
D18*
G36*
X120675400Y-70681255D02*
X120675400Y-71050745D01*
X120789474Y-71624234D01*
X121114330Y-72110415D01*
X121600511Y-72435271D01*
X122174000Y-72549345D01*
X122747489Y-72435271D01*
X123233670Y-72110415D01*
X123444000Y-71795634D01*
X123654330Y-72110415D01*
X124140511Y-72435271D01*
X124714000Y-72549345D01*
X125287489Y-72435271D01*
X125773670Y-72110415D01*
X125984000Y-71795634D01*
X126194330Y-72110415D01*
X126680511Y-72435271D01*
X127254000Y-72549345D01*
X127827489Y-72435271D01*
X128313670Y-72110415D01*
X128520461Y-71800931D01*
X128891964Y-72216732D01*
X129419209Y-72470709D01*
X129434974Y-72473358D01*
X129667000Y-72352217D01*
X129667000Y-70993000D01*
X129647000Y-70993000D01*
X129647000Y-70739000D01*
X129667000Y-70739000D01*
X129667000Y-70719000D01*
X129921000Y-70719000D01*
X129921000Y-70739000D01*
X129941000Y-70739000D01*
X129941000Y-70993000D01*
X129921000Y-70993000D01*
X129921000Y-72352217D01*
X130153026Y-72473358D01*
X130168791Y-72470709D01*
X130696036Y-72216732D01*
X131067539Y-71800931D01*
X131274330Y-72110415D01*
X131760511Y-72435271D01*
X132334000Y-72549345D01*
X132907489Y-72435271D01*
X133393670Y-72110415D01*
X133604000Y-71795634D01*
X133814330Y-72110415D01*
X134300511Y-72435271D01*
X134874000Y-72549345D01*
X135447489Y-72435271D01*
X135933670Y-72110415D01*
X136144000Y-71795634D01*
X136354330Y-72110415D01*
X136840511Y-72435271D01*
X137414000Y-72549345D01*
X137987489Y-72435271D01*
X138473670Y-72110415D01*
X138684000Y-71795634D01*
X138894330Y-72110415D01*
X139380511Y-72435271D01*
X139954000Y-72549345D01*
X140527489Y-72435271D01*
X141013670Y-72110415D01*
X141224000Y-71795634D01*
X141434330Y-72110415D01*
X141920511Y-72435271D01*
X142494000Y-72549345D01*
X143067489Y-72435271D01*
X143553670Y-72110415D01*
X143764000Y-71795634D01*
X143974330Y-72110415D01*
X144460511Y-72435271D01*
X145034000Y-72549345D01*
X145607489Y-72435271D01*
X146093670Y-72110415D01*
X146418526Y-71624234D01*
X146532600Y-71050745D01*
X146532600Y-70681255D01*
X146443039Y-70231000D01*
X147688961Y-70231000D01*
X147599400Y-70681255D01*
X147599400Y-71050745D01*
X147713474Y-71624234D01*
X148038330Y-72110415D01*
X148524511Y-72435271D01*
X149098000Y-72549345D01*
X149671489Y-72435271D01*
X150157670Y-72110415D01*
X150368000Y-71795634D01*
X150578330Y-72110415D01*
X151064511Y-72435271D01*
X151638000Y-72549345D01*
X152211489Y-72435271D01*
X152697670Y-72110415D01*
X152908000Y-71795634D01*
X153118330Y-72110415D01*
X153604511Y-72435271D01*
X154178000Y-72549345D01*
X154751489Y-72435271D01*
X155237670Y-72110415D01*
X155448000Y-71795634D01*
X155658330Y-72110415D01*
X156144511Y-72435271D01*
X156718000Y-72549345D01*
X157291489Y-72435271D01*
X157777670Y-72110415D01*
X157988000Y-71795634D01*
X158198330Y-72110415D01*
X158684511Y-72435271D01*
X159258000Y-72549345D01*
X159831489Y-72435271D01*
X160317670Y-72110415D01*
X160528000Y-71795634D01*
X160738330Y-72110415D01*
X161224511Y-72435271D01*
X161798000Y-72549345D01*
X162371489Y-72435271D01*
X162857670Y-72110415D01*
X163068000Y-71795634D01*
X163278330Y-72110415D01*
X163764511Y-72435271D01*
X164338000Y-72549345D01*
X164911489Y-72435271D01*
X165397670Y-72110415D01*
X165608000Y-71795634D01*
X165818330Y-72110415D01*
X166304511Y-72435271D01*
X166878000Y-72549345D01*
X167451489Y-72435271D01*
X167937670Y-72110415D01*
X168262526Y-71624234D01*
X168376600Y-71050745D01*
X168376600Y-70681255D01*
X168287039Y-70231000D01*
X170548961Y-70231000D01*
X170459400Y-70681255D01*
X170459400Y-71050745D01*
X170573474Y-71624234D01*
X170898330Y-72110415D01*
X171384511Y-72435271D01*
X171958000Y-72549345D01*
X172531489Y-72435271D01*
X173017670Y-72110415D01*
X173228000Y-71795634D01*
X173438330Y-72110415D01*
X173924511Y-72435271D01*
X174498000Y-72549345D01*
X175071489Y-72435271D01*
X175557670Y-72110415D01*
X175768000Y-71795634D01*
X175978330Y-72110415D01*
X176464511Y-72435271D01*
X177038000Y-72549345D01*
X177611489Y-72435271D01*
X178097670Y-72110415D01*
X178308000Y-71795634D01*
X178518330Y-72110415D01*
X179004511Y-72435271D01*
X179578000Y-72549345D01*
X180151489Y-72435271D01*
X180637670Y-72110415D01*
X180848000Y-71795634D01*
X181058330Y-72110415D01*
X181544511Y-72435271D01*
X182118000Y-72549345D01*
X182691489Y-72435271D01*
X183177670Y-72110415D01*
X183388000Y-71795634D01*
X183598330Y-72110415D01*
X184084511Y-72435271D01*
X184658000Y-72549345D01*
X185231489Y-72435271D01*
X185717670Y-72110415D01*
X185928000Y-71795634D01*
X186138330Y-72110415D01*
X186624511Y-72435271D01*
X187198000Y-72549345D01*
X187771489Y-72435271D01*
X188257670Y-72110415D01*
X188468000Y-71795634D01*
X188678330Y-72110415D01*
X189164511Y-72435271D01*
X189738000Y-72549345D01*
X190311489Y-72435271D01*
X190797670Y-72110415D01*
X191122526Y-71624234D01*
X191236600Y-71050745D01*
X191236600Y-70681255D01*
X191147039Y-70231000D01*
X195994957Y-70231000D01*
X195973474Y-70263152D01*
X195859400Y-70836641D01*
X195859400Y-70895359D01*
X195973474Y-71468848D01*
X196298330Y-71955029D01*
X196569172Y-72136000D01*
X196298330Y-72316971D01*
X195973474Y-72803152D01*
X195859400Y-73376641D01*
X195859400Y-73435359D01*
X195973474Y-74008848D01*
X196298330Y-74495029D01*
X196569172Y-74676000D01*
X196298330Y-74856971D01*
X195973474Y-75343152D01*
X195859400Y-75916641D01*
X195859400Y-75975359D01*
X195973474Y-76548848D01*
X196298330Y-77035029D01*
X196569172Y-77216000D01*
X196298330Y-77396971D01*
X195973474Y-77883152D01*
X195859400Y-78456641D01*
X195859400Y-78515359D01*
X195973474Y-79088848D01*
X196298330Y-79575029D01*
X196569172Y-79756000D01*
X196298330Y-79936971D01*
X195973474Y-80423152D01*
X195859400Y-80996641D01*
X195859400Y-81055359D01*
X195973474Y-81628848D01*
X196298330Y-82115029D01*
X196569172Y-82296000D01*
X196298330Y-82476971D01*
X195973474Y-82963152D01*
X195859400Y-83536641D01*
X195859400Y-83595359D01*
X195973474Y-84168848D01*
X196298330Y-84655029D01*
X196569172Y-84836000D01*
X196298330Y-85016971D01*
X195973474Y-85503152D01*
X195859400Y-86076641D01*
X195859400Y-86135359D01*
X195973474Y-86708848D01*
X196298330Y-87195029D01*
X196569172Y-87376000D01*
X196298330Y-87556971D01*
X195973474Y-88043152D01*
X195859400Y-88616641D01*
X195859400Y-88675359D01*
X195973474Y-89248848D01*
X196298330Y-89735029D01*
X196569172Y-89916000D01*
X196298330Y-90096971D01*
X195973474Y-90583152D01*
X195859400Y-91156641D01*
X195859400Y-91215359D01*
X195973474Y-91788848D01*
X196298330Y-92275029D01*
X196569172Y-92456000D01*
X196298330Y-92636971D01*
X195973474Y-93123152D01*
X195859400Y-93696641D01*
X195859400Y-93755359D01*
X195973474Y-94328848D01*
X196298330Y-94815029D01*
X196569172Y-94996000D01*
X196298330Y-95176971D01*
X195973474Y-95663152D01*
X195859400Y-96236641D01*
X195859400Y-96295359D01*
X195973474Y-96868848D01*
X196298330Y-97355029D01*
X196569172Y-97536000D01*
X196298330Y-97716971D01*
X195973474Y-98203152D01*
X195859400Y-98776641D01*
X195859400Y-98835359D01*
X195973474Y-99408848D01*
X196298330Y-99895029D01*
X196569172Y-100076000D01*
X196298330Y-100256971D01*
X195973474Y-100743152D01*
X195859400Y-101316641D01*
X195859400Y-101375359D01*
X195973474Y-101948848D01*
X196298330Y-102435029D01*
X196569172Y-102616000D01*
X196298330Y-102796971D01*
X195973474Y-103283152D01*
X195859400Y-103856641D01*
X195859400Y-103915359D01*
X195973474Y-104488848D01*
X196298330Y-104975029D01*
X196569172Y-105156000D01*
X196298330Y-105336971D01*
X195973474Y-105823152D01*
X195859400Y-106396641D01*
X195859400Y-106455359D01*
X195973474Y-107028848D01*
X196298330Y-107515029D01*
X196569172Y-107696000D01*
X196298330Y-107876971D01*
X195973474Y-108363152D01*
X195859400Y-108936641D01*
X195859400Y-108995359D01*
X195973474Y-109568848D01*
X196298330Y-110055029D01*
X196569172Y-110236000D01*
X196298330Y-110416971D01*
X195973474Y-110903152D01*
X195859400Y-111476641D01*
X195859400Y-111535359D01*
X195973474Y-112108848D01*
X196298330Y-112595029D01*
X196556620Y-112767613D01*
X196483800Y-112992195D01*
X197358000Y-113866395D01*
X198232200Y-112992195D01*
X198159380Y-112767613D01*
X198417670Y-112595029D01*
X198628000Y-112280248D01*
X198838330Y-112595029D01*
X199109161Y-112775992D01*
X198691179Y-113157510D01*
X198648510Y-113248551D01*
X198411805Y-113171800D01*
X197537605Y-114046000D01*
X198411805Y-114920200D01*
X198648510Y-114843449D01*
X198691179Y-114934490D01*
X199123053Y-115328688D01*
X199538974Y-115500958D01*
X199771000Y-115379817D01*
X199771000Y-114173000D01*
X200025000Y-114173000D01*
X200025000Y-115379817D01*
X200257026Y-115500958D01*
X200672947Y-115328688D01*
X201104821Y-114934490D01*
X201352968Y-114405027D01*
X201232469Y-114173000D01*
X200025000Y-114173000D01*
X199771000Y-114173000D01*
X199751000Y-114173000D01*
X199751000Y-113919000D01*
X199771000Y-113919000D01*
X199771000Y-113899000D01*
X200025000Y-113899000D01*
X200025000Y-113919000D01*
X201232469Y-113919000D01*
X201352968Y-113686973D01*
X201104821Y-113157510D01*
X200686839Y-112775992D01*
X200957670Y-112595029D01*
X201282526Y-112108848D01*
X201396600Y-111535359D01*
X201396600Y-111476641D01*
X201282526Y-110903152D01*
X200957670Y-110416971D01*
X200686828Y-110236000D01*
X200957670Y-110055029D01*
X201282526Y-109568848D01*
X201396600Y-108995359D01*
X201396600Y-108936641D01*
X201282526Y-108363152D01*
X200957670Y-107876971D01*
X200686828Y-107696000D01*
X200957670Y-107515029D01*
X201282526Y-107028848D01*
X201396600Y-106455359D01*
X201396600Y-106396641D01*
X201282526Y-105823152D01*
X200957670Y-105336971D01*
X200686828Y-105156000D01*
X200957670Y-104975029D01*
X201282526Y-104488848D01*
X201396600Y-103915359D01*
X201396600Y-103856641D01*
X201282526Y-103283152D01*
X200957670Y-102796971D01*
X200686828Y-102616000D01*
X200957670Y-102435029D01*
X201282526Y-101948848D01*
X201396600Y-101375359D01*
X201396600Y-101316641D01*
X201282526Y-100743152D01*
X200957670Y-100256971D01*
X200686828Y-100076000D01*
X200957670Y-99895029D01*
X201282526Y-99408848D01*
X201396600Y-98835359D01*
X201396600Y-98776641D01*
X201282526Y-98203152D01*
X200957670Y-97716971D01*
X200686828Y-97536000D01*
X200957670Y-97355029D01*
X201282526Y-96868848D01*
X201396600Y-96295359D01*
X201396600Y-96236641D01*
X201282526Y-95663152D01*
X200957670Y-95176971D01*
X200686828Y-94996000D01*
X200957670Y-94815029D01*
X201282526Y-94328848D01*
X201396600Y-93755359D01*
X201396600Y-93696641D01*
X201282526Y-93123152D01*
X200957670Y-92636971D01*
X200686828Y-92456000D01*
X200957670Y-92275029D01*
X201282526Y-91788848D01*
X201396600Y-91215359D01*
X201396600Y-91156641D01*
X201282526Y-90583152D01*
X200957670Y-90096971D01*
X200686828Y-89916000D01*
X200957670Y-89735029D01*
X201282526Y-89248848D01*
X201396600Y-88675359D01*
X201396600Y-88616641D01*
X201282526Y-88043152D01*
X200957670Y-87556971D01*
X200686828Y-87376000D01*
X200957670Y-87195029D01*
X201282526Y-86708848D01*
X201396600Y-86135359D01*
X201396600Y-86076641D01*
X201282526Y-85503152D01*
X200957670Y-85016971D01*
X200686828Y-84836000D01*
X200957670Y-84655029D01*
X201282526Y-84168848D01*
X201396600Y-83595359D01*
X201396600Y-83536641D01*
X201282526Y-82963152D01*
X200957670Y-82476971D01*
X200686828Y-82296000D01*
X200957670Y-82115029D01*
X201041000Y-81990317D01*
X201041000Y-82296000D01*
X201051006Y-82345410D01*
X201073602Y-82380959D01*
X203327000Y-84884735D01*
X203327000Y-117165270D01*
X200229467Y-120015000D01*
X196115151Y-120015000D01*
X196202526Y-119884234D01*
X196316600Y-119310745D01*
X196316600Y-118941255D01*
X196202526Y-118367766D01*
X195877670Y-117881585D01*
X195391489Y-117556729D01*
X194818000Y-117442655D01*
X194244511Y-117556729D01*
X193758330Y-117881585D01*
X193548000Y-118196366D01*
X193337670Y-117881585D01*
X192851489Y-117556729D01*
X192278000Y-117442655D01*
X191704511Y-117556729D01*
X191218330Y-117881585D01*
X191008000Y-118196366D01*
X190797670Y-117881585D01*
X190311489Y-117556729D01*
X189738000Y-117442655D01*
X189164511Y-117556729D01*
X188678330Y-117881585D01*
X188468000Y-118196366D01*
X188257670Y-117881585D01*
X187771489Y-117556729D01*
X187198000Y-117442655D01*
X186624511Y-117556729D01*
X186138330Y-117881585D01*
X185928000Y-118196366D01*
X185717670Y-117881585D01*
X185231489Y-117556729D01*
X184658000Y-117442655D01*
X184084511Y-117556729D01*
X183598330Y-117881585D01*
X183388000Y-118196366D01*
X183177670Y-117881585D01*
X182691489Y-117556729D01*
X182118000Y-117442655D01*
X181544511Y-117556729D01*
X181058330Y-117881585D01*
X180848000Y-118196366D01*
X180637670Y-117881585D01*
X180151489Y-117556729D01*
X179578000Y-117442655D01*
X179004511Y-117556729D01*
X178518330Y-117881585D01*
X178308000Y-118196366D01*
X178097670Y-117881585D01*
X177611489Y-117556729D01*
X177038000Y-117442655D01*
X176464511Y-117556729D01*
X175978330Y-117881585D01*
X175653474Y-118367766D01*
X175539400Y-118941255D01*
X175539400Y-119310745D01*
X175653474Y-119884234D01*
X175740849Y-120015000D01*
X173255151Y-120015000D01*
X173342526Y-119884234D01*
X173456600Y-119310745D01*
X173456600Y-118941255D01*
X173342526Y-118367766D01*
X173017670Y-117881585D01*
X172531489Y-117556729D01*
X171958000Y-117442655D01*
X171384511Y-117556729D01*
X170898330Y-117881585D01*
X170688000Y-118196366D01*
X170477670Y-117881585D01*
X169991489Y-117556729D01*
X169418000Y-117442655D01*
X168844511Y-117556729D01*
X168358330Y-117881585D01*
X168148000Y-118196366D01*
X167937670Y-117881585D01*
X167451489Y-117556729D01*
X166878000Y-117442655D01*
X166304511Y-117556729D01*
X165818330Y-117881585D01*
X165608000Y-118196366D01*
X165397670Y-117881585D01*
X164911489Y-117556729D01*
X164338000Y-117442655D01*
X163764511Y-117556729D01*
X163278330Y-117881585D01*
X163068000Y-118196366D01*
X162857670Y-117881585D01*
X162371489Y-117556729D01*
X161798000Y-117442655D01*
X161224511Y-117556729D01*
X160738330Y-117881585D01*
X160528000Y-118196366D01*
X160317670Y-117881585D01*
X159831489Y-117556729D01*
X159258000Y-117442655D01*
X158684511Y-117556729D01*
X158198330Y-117881585D01*
X157988000Y-118196366D01*
X157777670Y-117881585D01*
X157291489Y-117556729D01*
X156718000Y-117442655D01*
X156144511Y-117556729D01*
X155658330Y-117881585D01*
X155448000Y-118196366D01*
X155237670Y-117881585D01*
X154751489Y-117556729D01*
X154178000Y-117442655D01*
X153604511Y-117556729D01*
X153118330Y-117881585D01*
X152793474Y-118367766D01*
X152679400Y-118941255D01*
X152679400Y-119310745D01*
X152793474Y-119884234D01*
X152880849Y-120015000D01*
X150395151Y-120015000D01*
X150482526Y-119884234D01*
X150596600Y-119310745D01*
X150596600Y-118941255D01*
X150482526Y-118367766D01*
X150157670Y-117881585D01*
X149671489Y-117556729D01*
X149098000Y-117442655D01*
X148524511Y-117556729D01*
X148038330Y-117881585D01*
X147831539Y-118191069D01*
X147460036Y-117775268D01*
X146932791Y-117521291D01*
X146917026Y-117518642D01*
X146685000Y-117639783D01*
X146685000Y-118999000D01*
X146705000Y-118999000D01*
X146705000Y-119253000D01*
X146685000Y-119253000D01*
X146685000Y-119273000D01*
X146431000Y-119273000D01*
X146431000Y-119253000D01*
X144145000Y-119253000D01*
X144145000Y-119273000D01*
X143891000Y-119273000D01*
X143891000Y-119253000D01*
X143871000Y-119253000D01*
X143871000Y-118999000D01*
X143891000Y-118999000D01*
X143891000Y-117639783D01*
X144145000Y-117639783D01*
X144145000Y-118999000D01*
X146431000Y-118999000D01*
X146431000Y-117639783D01*
X146198974Y-117518642D01*
X146183209Y-117521291D01*
X145655964Y-117775268D01*
X145288000Y-118187108D01*
X144920036Y-117775268D01*
X144392791Y-117521291D01*
X144377026Y-117518642D01*
X144145000Y-117639783D01*
X143891000Y-117639783D01*
X143658974Y-117518642D01*
X143643209Y-117521291D01*
X143115964Y-117775268D01*
X142744461Y-118191069D01*
X142537670Y-117881585D01*
X142051489Y-117556729D01*
X141478000Y-117442655D01*
X140904511Y-117556729D01*
X140418330Y-117881585D01*
X140208000Y-118196366D01*
X139997670Y-117881585D01*
X139511489Y-117556729D01*
X138938000Y-117442655D01*
X138364511Y-117556729D01*
X137878330Y-117881585D01*
X137668000Y-118196366D01*
X137457670Y-117881585D01*
X136971489Y-117556729D01*
X136398000Y-117442655D01*
X135824511Y-117556729D01*
X135338330Y-117881585D01*
X135128000Y-118196366D01*
X134917670Y-117881585D01*
X134431489Y-117556729D01*
X133858000Y-117442655D01*
X133284511Y-117556729D01*
X132798330Y-117881585D01*
X132588000Y-118196366D01*
X132377670Y-117881585D01*
X131891489Y-117556729D01*
X131318000Y-117442655D01*
X130744511Y-117556729D01*
X130258330Y-117881585D01*
X129933474Y-118367766D01*
X129819400Y-118941255D01*
X129819400Y-119310745D01*
X129933474Y-119884234D01*
X130020849Y-120015000D01*
X105283000Y-120015000D01*
X105283000Y-115099805D01*
X196483800Y-115099805D01*
X196565741Y-115352516D01*
X197126030Y-115556248D01*
X197721635Y-115530058D01*
X198150259Y-115352516D01*
X198232200Y-115099805D01*
X197358000Y-114225605D01*
X196483800Y-115099805D01*
X105283000Y-115099805D01*
X105283000Y-113814030D01*
X195847752Y-113814030D01*
X195873942Y-114409635D01*
X196051484Y-114838259D01*
X196304195Y-114920200D01*
X197178395Y-114046000D01*
X196304195Y-113171800D01*
X196051484Y-113253741D01*
X195847752Y-113814030D01*
X105283000Y-113814030D01*
X105283000Y-110957784D01*
X162877313Y-110957784D01*
X163041311Y-111354689D01*
X163344714Y-111658622D01*
X163741332Y-111823313D01*
X164170784Y-111823687D01*
X164567689Y-111659689D01*
X164871622Y-111356286D01*
X165036313Y-110959668D01*
X165036687Y-110530216D01*
X164872689Y-110133311D01*
X164569286Y-109829378D01*
X164172668Y-109664687D01*
X163743216Y-109664313D01*
X163346311Y-109828311D01*
X163042378Y-110131714D01*
X162877687Y-110528332D01*
X162877313Y-110957784D01*
X105283000Y-110957784D01*
X105283000Y-109433784D01*
X139763313Y-109433784D01*
X139927311Y-109830689D01*
X140230714Y-110134622D01*
X140627332Y-110299313D01*
X141056784Y-110299687D01*
X141453689Y-110135689D01*
X141757622Y-109832286D01*
X141817624Y-109687784D01*
X159956313Y-109687784D01*
X160120311Y-110084689D01*
X160423714Y-110388622D01*
X160820332Y-110553313D01*
X161249784Y-110553687D01*
X161646689Y-110389689D01*
X161950622Y-110086286D01*
X162115313Y-109689668D01*
X162115687Y-109260216D01*
X161977503Y-108925784D01*
X183705313Y-108925784D01*
X183869311Y-109322689D01*
X184172714Y-109626622D01*
X184263668Y-109664389D01*
X184174311Y-109701311D01*
X183870378Y-110004714D01*
X183705687Y-110401332D01*
X183705313Y-110830784D01*
X183869311Y-111227689D01*
X184172714Y-111531622D01*
X184569332Y-111696313D01*
X184998784Y-111696687D01*
X185395689Y-111532689D01*
X185699622Y-111229286D01*
X185864313Y-110832668D01*
X185864687Y-110403216D01*
X185700689Y-110006311D01*
X185397286Y-109702378D01*
X185306332Y-109664611D01*
X185395689Y-109627689D01*
X185699622Y-109324286D01*
X185864313Y-108927668D01*
X185864687Y-108498216D01*
X185700689Y-108101311D01*
X185397286Y-107797378D01*
X185000668Y-107632687D01*
X184571216Y-107632313D01*
X184174311Y-107796311D01*
X183870378Y-108099714D01*
X183705687Y-108496332D01*
X183705313Y-108925784D01*
X161977503Y-108925784D01*
X161951689Y-108863311D01*
X161648286Y-108559378D01*
X161251668Y-108394687D01*
X160822216Y-108394313D01*
X160425311Y-108558311D01*
X160121378Y-108861714D01*
X159956687Y-109258332D01*
X159956313Y-109687784D01*
X141817624Y-109687784D01*
X141922313Y-109435668D01*
X141922687Y-109006216D01*
X141758689Y-108609311D01*
X141455286Y-108305378D01*
X141058668Y-108140687D01*
X140629216Y-108140313D01*
X140232311Y-108304311D01*
X139928378Y-108607714D01*
X139763687Y-109004332D01*
X139763313Y-109433784D01*
X105283000Y-109433784D01*
X105283000Y-107528784D01*
X166306313Y-107528784D01*
X166470311Y-107925689D01*
X166773714Y-108229622D01*
X167170332Y-108394313D01*
X167599784Y-108394687D01*
X167996689Y-108230689D01*
X168300622Y-107927286D01*
X168465313Y-107530668D01*
X168465519Y-107293246D01*
X188385654Y-107293246D01*
X188387869Y-107306760D01*
X188641207Y-107834857D01*
X189077355Y-108225807D01*
X189629913Y-108420091D01*
X189865000Y-108276222D01*
X189865000Y-107061000D01*
X190119000Y-107061000D01*
X190119000Y-108276222D01*
X190354087Y-108420091D01*
X190906645Y-108225807D01*
X191342793Y-107834857D01*
X191596131Y-107306760D01*
X191598346Y-107293246D01*
X191477224Y-107061000D01*
X190119000Y-107061000D01*
X189865000Y-107061000D01*
X188506776Y-107061000D01*
X188385654Y-107293246D01*
X168465519Y-107293246D01*
X168465687Y-107101216D01*
X168301689Y-106704311D01*
X167998286Y-106400378D01*
X167601668Y-106235687D01*
X167172216Y-106235313D01*
X166775311Y-106399311D01*
X166471378Y-106702714D01*
X166306687Y-107099332D01*
X166306313Y-107528784D01*
X105283000Y-107528784D01*
X105283000Y-105319285D01*
X105590760Y-105319285D01*
X105801169Y-105828515D01*
X106190436Y-106218461D01*
X106699298Y-106429759D01*
X107250285Y-106430240D01*
X107759515Y-106219831D01*
X108149461Y-105830564D01*
X108360759Y-105321702D01*
X108361240Y-104770715D01*
X108346394Y-104734784D01*
X154368313Y-104734784D01*
X154532311Y-105131689D01*
X154835714Y-105435622D01*
X155232332Y-105600313D01*
X155661784Y-105600687D01*
X156058689Y-105436689D01*
X156362622Y-105133286D01*
X156527313Y-104736668D01*
X156527646Y-104353784D01*
X177990313Y-104353784D01*
X178154311Y-104750689D01*
X178457714Y-105054622D01*
X178854332Y-105219313D01*
X179283784Y-105219687D01*
X179680689Y-105055689D01*
X179984622Y-104752286D01*
X180149313Y-104355668D01*
X180149687Y-103926216D01*
X179985689Y-103529311D01*
X179682286Y-103225378D01*
X179285668Y-103060687D01*
X178856216Y-103060313D01*
X178459311Y-103224311D01*
X178155378Y-103527714D01*
X177990687Y-103924332D01*
X177990313Y-104353784D01*
X156527646Y-104353784D01*
X156527687Y-104307216D01*
X156363689Y-103910311D01*
X156060286Y-103606378D01*
X155663668Y-103441687D01*
X155234216Y-103441313D01*
X154837311Y-103605311D01*
X154533378Y-103908714D01*
X154368687Y-104305332D01*
X154368313Y-104734784D01*
X108346394Y-104734784D01*
X108150831Y-104261485D01*
X107761564Y-103871539D01*
X107252702Y-103660241D01*
X106701715Y-103659760D01*
X106192485Y-103870169D01*
X105802539Y-104259436D01*
X105591241Y-104768298D01*
X105590760Y-105319285D01*
X105283000Y-105319285D01*
X105283000Y-102067784D01*
X184213313Y-102067784D01*
X184377311Y-102464689D01*
X184680714Y-102768622D01*
X185077332Y-102933313D01*
X185506784Y-102933687D01*
X185903689Y-102769689D01*
X186207622Y-102466286D01*
X186372313Y-102069668D01*
X186372500Y-101854000D01*
X188309675Y-101854000D01*
X188423856Y-102428025D01*
X188749015Y-102914660D01*
X189062315Y-103124000D01*
X188749015Y-103333340D01*
X188423856Y-103819975D01*
X188309675Y-104394000D01*
X188423856Y-104968025D01*
X188749015Y-105454660D01*
X189056993Y-105660445D01*
X188641207Y-106033143D01*
X188387869Y-106561240D01*
X188385654Y-106574754D01*
X188506776Y-106807000D01*
X189865000Y-106807000D01*
X189865000Y-106787000D01*
X190119000Y-106787000D01*
X190119000Y-106807000D01*
X191477224Y-106807000D01*
X191598346Y-106574754D01*
X191596131Y-106561240D01*
X191342793Y-106033143D01*
X190927007Y-105660445D01*
X191234985Y-105454660D01*
X191355852Y-105273769D01*
X191479875Y-105398009D01*
X191915255Y-105578794D01*
X192386677Y-105579206D01*
X192822372Y-105399180D01*
X193156009Y-105066125D01*
X193336794Y-104630745D01*
X193337206Y-104159323D01*
X193157180Y-103723628D01*
X192824125Y-103389991D01*
X192388745Y-103209206D01*
X191917323Y-103208794D01*
X191481628Y-103388820D01*
X191355911Y-103514318D01*
X191234985Y-103333340D01*
X190921685Y-103124000D01*
X191234985Y-102914660D01*
X191560144Y-102428025D01*
X191674325Y-101854000D01*
X191560144Y-101279975D01*
X191234985Y-100793340D01*
X191223543Y-100785695D01*
X191242317Y-100782162D01*
X191458441Y-100643090D01*
X191603431Y-100430890D01*
X191654440Y-100179000D01*
X191654440Y-98449000D01*
X191610162Y-98213683D01*
X191471090Y-97997559D01*
X191258890Y-97852569D01*
X191007000Y-97801560D01*
X188977000Y-97801560D01*
X188741683Y-97845838D01*
X188525559Y-97984910D01*
X188380569Y-98197110D01*
X188329560Y-98449000D01*
X188329560Y-100179000D01*
X188373838Y-100414317D01*
X188512910Y-100630441D01*
X188725110Y-100775431D01*
X188764024Y-100783311D01*
X188749015Y-100793340D01*
X188423856Y-101279975D01*
X188309675Y-101854000D01*
X186372500Y-101854000D01*
X186372687Y-101640216D01*
X186208689Y-101243311D01*
X185905286Y-100939378D01*
X185508668Y-100774687D01*
X185079216Y-100774313D01*
X184682311Y-100938311D01*
X184378378Y-101241714D01*
X184213687Y-101638332D01*
X184213313Y-102067784D01*
X105283000Y-102067784D01*
X105283000Y-100924784D01*
X175323313Y-100924784D01*
X175487311Y-101321689D01*
X175790714Y-101625622D01*
X176187332Y-101790313D01*
X176616784Y-101790687D01*
X177013689Y-101626689D01*
X177317622Y-101323286D01*
X177482313Y-100926668D01*
X177482687Y-100497216D01*
X177318689Y-100100311D01*
X177015286Y-99796378D01*
X176618668Y-99631687D01*
X176189216Y-99631313D01*
X175792311Y-99795311D01*
X175488378Y-100098714D01*
X175323687Y-100495332D01*
X175323313Y-100924784D01*
X105283000Y-100924784D01*
X105283000Y-98765784D01*
X142430313Y-98765784D01*
X142594311Y-99162689D01*
X142897714Y-99466622D01*
X143294332Y-99631313D01*
X143723784Y-99631687D01*
X144120689Y-99467689D01*
X144187710Y-99400784D01*
X178498313Y-99400784D01*
X178662311Y-99797689D01*
X178965714Y-100101622D01*
X179362332Y-100266313D01*
X179791784Y-100266687D01*
X180188689Y-100102689D01*
X180492622Y-99799286D01*
X180657313Y-99402668D01*
X180657687Y-98973216D01*
X180493689Y-98576311D01*
X180190286Y-98272378D01*
X179793668Y-98107687D01*
X179364216Y-98107313D01*
X178967311Y-98271311D01*
X178663378Y-98574714D01*
X178498687Y-98971332D01*
X178498313Y-99400784D01*
X144187710Y-99400784D01*
X144424622Y-99164286D01*
X144589313Y-98767668D01*
X144589687Y-98338216D01*
X144425689Y-97941311D01*
X144122286Y-97637378D01*
X144087140Y-97622784D01*
X144589313Y-97622784D01*
X144753311Y-98019689D01*
X145056714Y-98323622D01*
X145453332Y-98488313D01*
X145882784Y-98488687D01*
X146279689Y-98324689D01*
X146583622Y-98021286D01*
X146696360Y-97749784D01*
X181419313Y-97749784D01*
X181583311Y-98146689D01*
X181886714Y-98450622D01*
X182283332Y-98615313D01*
X182712784Y-98615687D01*
X183109689Y-98451689D01*
X183413622Y-98148286D01*
X183578313Y-97751668D01*
X183578687Y-97322216D01*
X183414689Y-96925311D01*
X183111286Y-96621378D01*
X182714668Y-96456687D01*
X182285216Y-96456313D01*
X181888311Y-96620311D01*
X181584378Y-96923714D01*
X181419687Y-97320332D01*
X181419313Y-97749784D01*
X146696360Y-97749784D01*
X146748313Y-97624668D01*
X146748687Y-97195216D01*
X146584689Y-96798311D01*
X146281286Y-96494378D01*
X145884668Y-96329687D01*
X145455216Y-96329313D01*
X145058311Y-96493311D01*
X144754378Y-96796714D01*
X144589687Y-97193332D01*
X144589313Y-97622784D01*
X144087140Y-97622784D01*
X143725668Y-97472687D01*
X143296216Y-97472313D01*
X142899311Y-97636311D01*
X142595378Y-97939714D01*
X142430687Y-98336332D01*
X142430313Y-98765784D01*
X105283000Y-98765784D01*
X105283000Y-92415784D01*
X127190313Y-92415784D01*
X127354311Y-92812689D01*
X127657714Y-93116622D01*
X128054332Y-93281313D01*
X128483784Y-93281687D01*
X128880689Y-93117689D01*
X128947710Y-93050784D01*
X135318313Y-93050784D01*
X135482311Y-93447689D01*
X135785714Y-93751622D01*
X136182332Y-93916313D01*
X136611784Y-93916687D01*
X137008689Y-93752689D01*
X137202932Y-93558784D01*
X138620313Y-93558784D01*
X138784311Y-93955689D01*
X139087714Y-94259622D01*
X139484332Y-94424313D01*
X139913784Y-94424687D01*
X140310689Y-94260689D01*
X140614622Y-93957286D01*
X140727360Y-93685784D01*
X145224313Y-93685784D01*
X145388311Y-94082689D01*
X145691714Y-94386622D01*
X146088332Y-94551313D01*
X146517784Y-94551687D01*
X146914689Y-94387689D01*
X147218622Y-94084286D01*
X147383313Y-93687668D01*
X147383535Y-93431784D01*
X147891313Y-93431784D01*
X148055311Y-93828689D01*
X148358714Y-94132622D01*
X148755332Y-94297313D01*
X149184784Y-94297687D01*
X149581689Y-94133689D01*
X149885622Y-93830286D01*
X150050313Y-93433668D01*
X150050314Y-93431784D01*
X150177313Y-93431784D01*
X150341311Y-93828689D01*
X150644714Y-94132622D01*
X151041332Y-94297313D01*
X151470784Y-94297687D01*
X151867689Y-94133689D01*
X152171622Y-93830286D01*
X152336313Y-93433668D01*
X152336687Y-93004216D01*
X152172689Y-92607311D01*
X151869286Y-92303378D01*
X151472668Y-92138687D01*
X151043216Y-92138313D01*
X150646311Y-92302311D01*
X150342378Y-92605714D01*
X150177687Y-93002332D01*
X150177313Y-93431784D01*
X150050314Y-93431784D01*
X150050687Y-93004216D01*
X149886689Y-92607311D01*
X149583286Y-92303378D01*
X149186668Y-92138687D01*
X148757216Y-92138313D01*
X148360311Y-92302311D01*
X148056378Y-92605714D01*
X147891687Y-93002332D01*
X147891313Y-93431784D01*
X147383535Y-93431784D01*
X147383687Y-93258216D01*
X147219689Y-92861311D01*
X146916286Y-92557378D01*
X146519668Y-92392687D01*
X146090216Y-92392313D01*
X145693311Y-92556311D01*
X145389378Y-92859714D01*
X145224687Y-93256332D01*
X145224313Y-93685784D01*
X140727360Y-93685784D01*
X140779313Y-93560668D01*
X140779687Y-93131216D01*
X140683173Y-92897634D01*
X141072689Y-92736689D01*
X141376622Y-92433286D01*
X141541313Y-92036668D01*
X141541687Y-91607216D01*
X141377689Y-91210311D01*
X141313275Y-91145784D01*
X166306313Y-91145784D01*
X166470311Y-91542689D01*
X166773714Y-91846622D01*
X167170332Y-92011313D01*
X167599784Y-92011687D01*
X167996689Y-91847689D01*
X168190932Y-91653784D01*
X168719313Y-91653784D01*
X168883311Y-92050689D01*
X169186714Y-92354622D01*
X169583332Y-92519313D01*
X170012784Y-92519687D01*
X170409689Y-92355689D01*
X170713622Y-92052286D01*
X170878313Y-91655668D01*
X170878314Y-91653784D01*
X171386313Y-91653784D01*
X171550311Y-92050689D01*
X171853714Y-92354622D01*
X172250332Y-92519313D01*
X172679784Y-92519687D01*
X173076689Y-92355689D01*
X173380622Y-92052286D01*
X173545313Y-91655668D01*
X173545687Y-91226216D01*
X173381689Y-90829311D01*
X173078286Y-90525378D01*
X172681668Y-90360687D01*
X172252216Y-90360313D01*
X171855311Y-90524311D01*
X171551378Y-90827714D01*
X171386687Y-91224332D01*
X171386313Y-91653784D01*
X170878314Y-91653784D01*
X170878687Y-91226216D01*
X170714689Y-90829311D01*
X170411286Y-90525378D01*
X170014668Y-90360687D01*
X169585216Y-90360313D01*
X169188311Y-90524311D01*
X168884378Y-90827714D01*
X168719687Y-91224332D01*
X168719313Y-91653784D01*
X168190932Y-91653784D01*
X168300622Y-91544286D01*
X168465313Y-91147668D01*
X168465687Y-90718216D01*
X168301689Y-90321311D01*
X167998286Y-90017378D01*
X167601668Y-89852687D01*
X167172216Y-89852313D01*
X166775311Y-90016311D01*
X166471378Y-90319714D01*
X166306687Y-90716332D01*
X166306313Y-91145784D01*
X141313275Y-91145784D01*
X141074286Y-90906378D01*
X140677668Y-90741687D01*
X140248216Y-90741313D01*
X139851311Y-90905311D01*
X139547378Y-91208714D01*
X139382687Y-91605332D01*
X139382313Y-92034784D01*
X139478827Y-92268366D01*
X139089311Y-92429311D01*
X138785378Y-92732714D01*
X138620687Y-93129332D01*
X138620313Y-93558784D01*
X137202932Y-93558784D01*
X137312622Y-93449286D01*
X137477313Y-93052668D01*
X137477687Y-92623216D01*
X137313689Y-92226311D01*
X137010286Y-91922378D01*
X136613668Y-91757687D01*
X136184216Y-91757313D01*
X135787311Y-91921311D01*
X135483378Y-92224714D01*
X135318687Y-92621332D01*
X135318313Y-93050784D01*
X128947710Y-93050784D01*
X129184622Y-92814286D01*
X129349313Y-92417668D01*
X129349687Y-91988216D01*
X129185689Y-91591311D01*
X128882286Y-91287378D01*
X128485668Y-91122687D01*
X128056216Y-91122313D01*
X127659311Y-91286311D01*
X127355378Y-91589714D01*
X127190687Y-91986332D01*
X127190313Y-92415784D01*
X105283000Y-92415784D01*
X105283000Y-90129784D01*
X133159313Y-90129784D01*
X133323311Y-90526689D01*
X133626714Y-90830622D01*
X134023332Y-90995313D01*
X134452784Y-90995687D01*
X134849689Y-90831689D01*
X135153622Y-90528286D01*
X135318313Y-90131668D01*
X135318535Y-89875784D01*
X148526313Y-89875784D01*
X148690311Y-90272689D01*
X148993714Y-90576622D01*
X149390332Y-90741313D01*
X149819784Y-90741687D01*
X150216689Y-90577689D01*
X150409751Y-90384964D01*
X150468311Y-90526689D01*
X150771714Y-90830622D01*
X151168332Y-90995313D01*
X151597784Y-90995687D01*
X151994689Y-90831689D01*
X152298622Y-90528286D01*
X152463313Y-90131668D01*
X152463687Y-89702216D01*
X152299689Y-89305311D01*
X151996286Y-89001378D01*
X151599668Y-88836687D01*
X151170216Y-88836313D01*
X150773311Y-89000311D01*
X150580249Y-89193036D01*
X150521689Y-89051311D01*
X150218286Y-88747378D01*
X149821668Y-88582687D01*
X149392216Y-88582313D01*
X148995311Y-88746311D01*
X148691378Y-89049714D01*
X148526687Y-89446332D01*
X148526313Y-89875784D01*
X135318535Y-89875784D01*
X135318687Y-89702216D01*
X135154689Y-89305311D01*
X134851286Y-89001378D01*
X134454668Y-88836687D01*
X134025216Y-88836313D01*
X133628311Y-89000311D01*
X133324378Y-89303714D01*
X133159687Y-89700332D01*
X133159313Y-90129784D01*
X105283000Y-90129784D01*
X105283000Y-87716784D01*
X170116313Y-87716784D01*
X170280311Y-88113689D01*
X170583714Y-88417622D01*
X170980332Y-88582313D01*
X171409784Y-88582687D01*
X171806689Y-88418689D01*
X172110622Y-88115286D01*
X172275313Y-87718668D01*
X172275687Y-87289216D01*
X172111689Y-86892311D01*
X171808286Y-86588378D01*
X171411668Y-86423687D01*
X170982216Y-86423313D01*
X170585311Y-86587311D01*
X170281378Y-86890714D01*
X170116687Y-87287332D01*
X170116313Y-87716784D01*
X105283000Y-87716784D01*
X105283000Y-86446784D01*
X154876313Y-86446784D01*
X155040311Y-86843689D01*
X155343714Y-87147622D01*
X155740332Y-87312313D01*
X156169784Y-87312687D01*
X156566689Y-87148689D01*
X156870622Y-86845286D01*
X157035313Y-86448668D01*
X157035687Y-86019216D01*
X157002454Y-85938784D01*
X159067313Y-85938784D01*
X159231311Y-86335689D01*
X159534714Y-86639622D01*
X159931332Y-86804313D01*
X160360784Y-86804687D01*
X160757689Y-86640689D01*
X161061622Y-86337286D01*
X161226313Y-85940668D01*
X161226593Y-85619067D01*
X161328332Y-85661313D01*
X161757784Y-85661687D01*
X162154689Y-85497689D01*
X162348932Y-85303784D01*
X165163313Y-85303784D01*
X165327311Y-85700689D01*
X165630714Y-86004622D01*
X166027332Y-86169313D01*
X166456784Y-86169687D01*
X166853689Y-86005689D01*
X167157622Y-85702286D01*
X167322313Y-85305668D01*
X167322687Y-84876216D01*
X167158689Y-84479311D01*
X166855286Y-84175378D01*
X166458668Y-84010687D01*
X166029216Y-84010313D01*
X165632311Y-84174311D01*
X165328378Y-84477714D01*
X165163687Y-84874332D01*
X165163313Y-85303784D01*
X162348932Y-85303784D01*
X162458622Y-85194286D01*
X162623313Y-84797668D01*
X162623687Y-84368216D01*
X162459689Y-83971311D01*
X162156286Y-83667378D01*
X161759668Y-83502687D01*
X161330216Y-83502313D01*
X160933311Y-83666311D01*
X160629378Y-83969714D01*
X160464687Y-84366332D01*
X160464407Y-84687933D01*
X160362668Y-84645687D01*
X159933216Y-84645313D01*
X159536311Y-84809311D01*
X159232378Y-85112714D01*
X159067687Y-85509332D01*
X159067313Y-85938784D01*
X157002454Y-85938784D01*
X156871689Y-85622311D01*
X156568286Y-85318378D01*
X156171668Y-85153687D01*
X155742216Y-85153313D01*
X155345311Y-85317311D01*
X155041378Y-85620714D01*
X154876687Y-86017332D01*
X154876313Y-86446784D01*
X105283000Y-86446784D01*
X105283000Y-85049784D01*
X121221313Y-85049784D01*
X121385311Y-85446689D01*
X121688714Y-85750622D01*
X122085332Y-85915313D01*
X122514784Y-85915687D01*
X122911689Y-85751689D01*
X123215622Y-85448286D01*
X123380313Y-85051668D01*
X123380535Y-84795784D01*
X156527313Y-84795784D01*
X156691311Y-85192689D01*
X156994714Y-85496622D01*
X157391332Y-85661313D01*
X157820784Y-85661687D01*
X158217689Y-85497689D01*
X158521622Y-85194286D01*
X158686313Y-84797668D01*
X158686687Y-84368216D01*
X158522689Y-83971311D01*
X158219286Y-83667378D01*
X157822668Y-83502687D01*
X157393216Y-83502313D01*
X156996311Y-83666311D01*
X156692378Y-83969714D01*
X156527687Y-84366332D01*
X156527313Y-84795784D01*
X123380535Y-84795784D01*
X123380687Y-84622216D01*
X123216689Y-84225311D01*
X122913286Y-83921378D01*
X122516668Y-83756687D01*
X122087216Y-83756313D01*
X121690311Y-83920311D01*
X121386378Y-84223714D01*
X121221687Y-84620332D01*
X121221313Y-85049784D01*
X105283000Y-85049784D01*
X105283000Y-82509784D01*
X183578313Y-82509784D01*
X183742311Y-82906689D01*
X184045714Y-83210622D01*
X184442332Y-83375313D01*
X184871784Y-83375687D01*
X185268689Y-83211689D01*
X185572622Y-82908286D01*
X185685360Y-82636784D01*
X187007313Y-82636784D01*
X187171311Y-83033689D01*
X187474714Y-83337622D01*
X187871332Y-83502313D01*
X188300784Y-83502687D01*
X188697689Y-83338689D01*
X189001622Y-83035286D01*
X189166313Y-82638668D01*
X189166687Y-82209216D01*
X189002689Y-81812311D01*
X188699286Y-81508378D01*
X188302668Y-81343687D01*
X187873216Y-81343313D01*
X187476311Y-81507311D01*
X187172378Y-81810714D01*
X187007687Y-82207332D01*
X187007313Y-82636784D01*
X185685360Y-82636784D01*
X185737313Y-82511668D01*
X185737687Y-82082216D01*
X185573689Y-81685311D01*
X185270286Y-81381378D01*
X184873668Y-81216687D01*
X184444216Y-81216313D01*
X184047311Y-81380311D01*
X183743378Y-81683714D01*
X183578687Y-82080332D01*
X183578313Y-82509784D01*
X105283000Y-82509784D01*
X105283000Y-81119285D01*
X105590760Y-81119285D01*
X105801169Y-81628515D01*
X106190436Y-82018461D01*
X106699298Y-82229759D01*
X107250285Y-82230240D01*
X107759515Y-82019831D01*
X108149461Y-81630564D01*
X108360759Y-81121702D01*
X108361240Y-80570715D01*
X108150831Y-80061485D01*
X107761564Y-79671539D01*
X107252702Y-79460241D01*
X106701715Y-79459760D01*
X106192485Y-79670169D01*
X105802539Y-80059436D01*
X105591241Y-80568298D01*
X105590760Y-81119285D01*
X105283000Y-81119285D01*
X105283000Y-79207784D01*
X141414313Y-79207784D01*
X141578311Y-79604689D01*
X141856356Y-79883219D01*
X141579378Y-80159714D01*
X141414687Y-80556332D01*
X141414313Y-80985784D01*
X141578311Y-81382689D01*
X141881714Y-81686622D01*
X142278332Y-81851313D01*
X142707784Y-81851687D01*
X143104689Y-81687689D01*
X143408622Y-81384286D01*
X143415889Y-81366784D01*
X143954313Y-81366784D01*
X144118311Y-81763689D01*
X144421714Y-82067622D01*
X144818332Y-82232313D01*
X145247784Y-82232687D01*
X145644689Y-82068689D01*
X145948622Y-81765286D01*
X146113313Y-81368668D01*
X146113425Y-81239784D01*
X152717313Y-81239784D01*
X152881311Y-81636689D01*
X153184714Y-81940622D01*
X153581332Y-82105313D01*
X154010784Y-82105687D01*
X154407689Y-81941689D01*
X154711622Y-81638286D01*
X154876313Y-81241668D01*
X154876425Y-81112784D01*
X168211313Y-81112784D01*
X168375311Y-81509689D01*
X168678714Y-81813622D01*
X169075332Y-81978313D01*
X169504784Y-81978687D01*
X169901689Y-81814689D01*
X170205622Y-81511286D01*
X170302518Y-81277935D01*
X170583714Y-81559622D01*
X170980332Y-81724313D01*
X171409784Y-81724687D01*
X171806689Y-81560689D01*
X172110622Y-81257286D01*
X172275313Y-80860668D01*
X172275687Y-80431216D01*
X172111689Y-80034311D01*
X172047275Y-79969784D01*
X172656313Y-79969784D01*
X172820311Y-80366689D01*
X173123714Y-80670622D01*
X173520332Y-80835313D01*
X173949784Y-80835687D01*
X174346689Y-80671689D01*
X174650622Y-80368286D01*
X174815313Y-79971668D01*
X174815687Y-79542216D01*
X174651689Y-79145311D01*
X174348286Y-78841378D01*
X173951668Y-78676687D01*
X173522216Y-78676313D01*
X173125311Y-78840311D01*
X172821378Y-79143714D01*
X172656687Y-79540332D01*
X172656313Y-79969784D01*
X172047275Y-79969784D01*
X171808286Y-79730378D01*
X171411668Y-79565687D01*
X170982216Y-79565313D01*
X170585311Y-79729311D01*
X170281378Y-80032714D01*
X170184482Y-80266065D01*
X169903286Y-79984378D01*
X169506668Y-79819687D01*
X169077216Y-79819313D01*
X168680311Y-79983311D01*
X168376378Y-80286714D01*
X168211687Y-80683332D01*
X168211313Y-81112784D01*
X154876425Y-81112784D01*
X154876687Y-80812216D01*
X154712689Y-80415311D01*
X154409286Y-80111378D01*
X154012668Y-79946687D01*
X153583216Y-79946313D01*
X153186311Y-80110311D01*
X152882378Y-80413714D01*
X152717687Y-80810332D01*
X152717313Y-81239784D01*
X146113425Y-81239784D01*
X146113687Y-80939216D01*
X145949689Y-80542311D01*
X145646286Y-80238378D01*
X145249668Y-80073687D01*
X144820216Y-80073313D01*
X144423311Y-80237311D01*
X144119378Y-80540714D01*
X143954687Y-80937332D01*
X143954313Y-81366784D01*
X143415889Y-81366784D01*
X143573313Y-80987668D01*
X143573687Y-80558216D01*
X143409689Y-80161311D01*
X143131644Y-79882781D01*
X143408622Y-79606286D01*
X143526014Y-79323575D01*
X143802332Y-79438313D01*
X144231784Y-79438687D01*
X144628689Y-79274689D01*
X144932622Y-78971286D01*
X145097313Y-78574668D01*
X145097314Y-78572784D01*
X163131313Y-78572784D01*
X163295311Y-78969689D01*
X163598714Y-79273622D01*
X163995332Y-79438313D01*
X164424784Y-79438687D01*
X164821689Y-79274689D01*
X165125622Y-78971286D01*
X165290313Y-78574668D01*
X165290687Y-78145216D01*
X165126689Y-77748311D01*
X164823286Y-77444378D01*
X164426668Y-77279687D01*
X163997216Y-77279313D01*
X163600311Y-77443311D01*
X163296378Y-77746714D01*
X163131687Y-78143332D01*
X163131313Y-78572784D01*
X145097314Y-78572784D01*
X145097687Y-78145216D01*
X144933689Y-77748311D01*
X144630286Y-77444378D01*
X144233668Y-77279687D01*
X143804216Y-77279313D01*
X143407311Y-77443311D01*
X143103378Y-77746714D01*
X142985986Y-78029425D01*
X142709668Y-77914687D01*
X142280216Y-77914313D01*
X141883311Y-78078311D01*
X141579378Y-78381714D01*
X141414687Y-78778332D01*
X141414313Y-79207784D01*
X105283000Y-79207784D01*
X105283000Y-75778784D01*
X173672313Y-75778784D01*
X173836311Y-76175689D01*
X174139714Y-76479622D01*
X174536332Y-76644313D01*
X174965784Y-76644687D01*
X175362689Y-76480689D01*
X175666622Y-76177286D01*
X175831313Y-75780668D01*
X175831687Y-75351216D01*
X175667689Y-74954311D01*
X175364286Y-74650378D01*
X174967668Y-74485687D01*
X174538216Y-74485313D01*
X174141311Y-74649311D01*
X173837378Y-74952714D01*
X173672687Y-75349332D01*
X173672313Y-75778784D01*
X105283000Y-75778784D01*
X105283000Y-74889784D01*
X139509313Y-74889784D01*
X139673311Y-75286689D01*
X139976714Y-75590622D01*
X140373332Y-75755313D01*
X140802784Y-75755687D01*
X141199689Y-75591689D01*
X141503622Y-75288286D01*
X141668313Y-74891668D01*
X141668646Y-74508784D01*
X155257313Y-74508784D01*
X155421311Y-74905689D01*
X155724714Y-75209622D01*
X156121332Y-75374313D01*
X156550784Y-75374687D01*
X156947689Y-75210689D01*
X157251622Y-74907286D01*
X157416313Y-74510668D01*
X157416687Y-74081216D01*
X157252689Y-73684311D01*
X156949286Y-73380378D01*
X156552668Y-73215687D01*
X156123216Y-73215313D01*
X155726311Y-73379311D01*
X155422378Y-73682714D01*
X155257687Y-74079332D01*
X155257313Y-74508784D01*
X141668646Y-74508784D01*
X141668687Y-74462216D01*
X141504689Y-74065311D01*
X141201286Y-73761378D01*
X140804668Y-73596687D01*
X140375216Y-73596313D01*
X139978311Y-73760311D01*
X139674378Y-74063714D01*
X139509687Y-74460332D01*
X139509313Y-74889784D01*
X105283000Y-74889784D01*
X105283000Y-70231000D01*
X120764961Y-70231000D01*
X120675400Y-70681255D01*
X120675400Y-70681255D01*
G37*
X120675400Y-70681255D02*
X120675400Y-71050745D01*
X120789474Y-71624234D01*
X121114330Y-72110415D01*
X121600511Y-72435271D01*
X122174000Y-72549345D01*
X122747489Y-72435271D01*
X123233670Y-72110415D01*
X123444000Y-71795634D01*
X123654330Y-72110415D01*
X124140511Y-72435271D01*
X124714000Y-72549345D01*
X125287489Y-72435271D01*
X125773670Y-72110415D01*
X125984000Y-71795634D01*
X126194330Y-72110415D01*
X126680511Y-72435271D01*
X127254000Y-72549345D01*
X127827489Y-72435271D01*
X128313670Y-72110415D01*
X128520461Y-71800931D01*
X128891964Y-72216732D01*
X129419209Y-72470709D01*
X129434974Y-72473358D01*
X129667000Y-72352217D01*
X129667000Y-70993000D01*
X129647000Y-70993000D01*
X129647000Y-70739000D01*
X129667000Y-70739000D01*
X129667000Y-70719000D01*
X129921000Y-70719000D01*
X129921000Y-70739000D01*
X129941000Y-70739000D01*
X129941000Y-70993000D01*
X129921000Y-70993000D01*
X129921000Y-72352217D01*
X130153026Y-72473358D01*
X130168791Y-72470709D01*
X130696036Y-72216732D01*
X131067539Y-71800931D01*
X131274330Y-72110415D01*
X131760511Y-72435271D01*
X132334000Y-72549345D01*
X132907489Y-72435271D01*
X133393670Y-72110415D01*
X133604000Y-71795634D01*
X133814330Y-72110415D01*
X134300511Y-72435271D01*
X134874000Y-72549345D01*
X135447489Y-72435271D01*
X135933670Y-72110415D01*
X136144000Y-71795634D01*
X136354330Y-72110415D01*
X136840511Y-72435271D01*
X137414000Y-72549345D01*
X137987489Y-72435271D01*
X138473670Y-72110415D01*
X138684000Y-71795634D01*
X138894330Y-72110415D01*
X139380511Y-72435271D01*
X139954000Y-72549345D01*
X140527489Y-72435271D01*
X141013670Y-72110415D01*
X141224000Y-71795634D01*
X141434330Y-72110415D01*
X141920511Y-72435271D01*
X142494000Y-72549345D01*
X143067489Y-72435271D01*
X143553670Y-72110415D01*
X143764000Y-71795634D01*
X143974330Y-72110415D01*
X144460511Y-72435271D01*
X145034000Y-72549345D01*
X145607489Y-72435271D01*
X146093670Y-72110415D01*
X146418526Y-71624234D01*
X146532600Y-71050745D01*
X146532600Y-70681255D01*
X146443039Y-70231000D01*
X147688961Y-70231000D01*
X147599400Y-70681255D01*
X147599400Y-71050745D01*
X147713474Y-71624234D01*
X148038330Y-72110415D01*
X148524511Y-72435271D01*
X149098000Y-72549345D01*
X149671489Y-72435271D01*
X150157670Y-72110415D01*
X150368000Y-71795634D01*
X150578330Y-72110415D01*
X151064511Y-72435271D01*
X151638000Y-72549345D01*
X152211489Y-72435271D01*
X152697670Y-72110415D01*
X152908000Y-71795634D01*
X153118330Y-72110415D01*
X153604511Y-72435271D01*
X154178000Y-72549345D01*
X154751489Y-72435271D01*
X155237670Y-72110415D01*
X155448000Y-71795634D01*
X155658330Y-72110415D01*
X156144511Y-72435271D01*
X156718000Y-72549345D01*
X157291489Y-72435271D01*
X157777670Y-72110415D01*
X157988000Y-71795634D01*
X158198330Y-72110415D01*
X158684511Y-72435271D01*
X159258000Y-72549345D01*
X159831489Y-72435271D01*
X160317670Y-72110415D01*
X160528000Y-71795634D01*
X160738330Y-72110415D01*
X161224511Y-72435271D01*
X161798000Y-72549345D01*
X162371489Y-72435271D01*
X162857670Y-72110415D01*
X163068000Y-71795634D01*
X163278330Y-72110415D01*
X163764511Y-72435271D01*
X164338000Y-72549345D01*
X164911489Y-72435271D01*
X165397670Y-72110415D01*
X165608000Y-71795634D01*
X165818330Y-72110415D01*
X166304511Y-72435271D01*
X166878000Y-72549345D01*
X167451489Y-72435271D01*
X167937670Y-72110415D01*
X168262526Y-71624234D01*
X168376600Y-71050745D01*
X168376600Y-70681255D01*
X168287039Y-70231000D01*
X170548961Y-70231000D01*
X170459400Y-70681255D01*
X170459400Y-71050745D01*
X170573474Y-71624234D01*
X170898330Y-72110415D01*
X171384511Y-72435271D01*
X171958000Y-72549345D01*
X172531489Y-72435271D01*
X173017670Y-72110415D01*
X173228000Y-71795634D01*
X173438330Y-72110415D01*
X173924511Y-72435271D01*
X174498000Y-72549345D01*
X175071489Y-72435271D01*
X175557670Y-72110415D01*
X175768000Y-71795634D01*
X175978330Y-72110415D01*
X176464511Y-72435271D01*
X177038000Y-72549345D01*
X177611489Y-72435271D01*
X178097670Y-72110415D01*
X178308000Y-71795634D01*
X178518330Y-72110415D01*
X179004511Y-72435271D01*
X179578000Y-72549345D01*
X180151489Y-72435271D01*
X180637670Y-72110415D01*
X180848000Y-71795634D01*
X181058330Y-72110415D01*
X181544511Y-72435271D01*
X182118000Y-72549345D01*
X182691489Y-72435271D01*
X183177670Y-72110415D01*
X183388000Y-71795634D01*
X183598330Y-72110415D01*
X184084511Y-72435271D01*
X184658000Y-72549345D01*
X185231489Y-72435271D01*
X185717670Y-72110415D01*
X185928000Y-71795634D01*
X186138330Y-72110415D01*
X186624511Y-72435271D01*
X187198000Y-72549345D01*
X187771489Y-72435271D01*
X188257670Y-72110415D01*
X188468000Y-71795634D01*
X188678330Y-72110415D01*
X189164511Y-72435271D01*
X189738000Y-72549345D01*
X190311489Y-72435271D01*
X190797670Y-72110415D01*
X191122526Y-71624234D01*
X191236600Y-71050745D01*
X191236600Y-70681255D01*
X191147039Y-70231000D01*
X195994957Y-70231000D01*
X195973474Y-70263152D01*
X195859400Y-70836641D01*
X195859400Y-70895359D01*
X195973474Y-71468848D01*
X196298330Y-71955029D01*
X196569172Y-72136000D01*
X196298330Y-72316971D01*
X195973474Y-72803152D01*
X195859400Y-73376641D01*
X195859400Y-73435359D01*
X195973474Y-74008848D01*
X196298330Y-74495029D01*
X196569172Y-74676000D01*
X196298330Y-74856971D01*
X195973474Y-75343152D01*
X195859400Y-75916641D01*
X195859400Y-75975359D01*
X195973474Y-76548848D01*
X196298330Y-77035029D01*
X196569172Y-77216000D01*
X196298330Y-77396971D01*
X195973474Y-77883152D01*
X195859400Y-78456641D01*
X195859400Y-78515359D01*
X195973474Y-79088848D01*
X196298330Y-79575029D01*
X196569172Y-79756000D01*
X196298330Y-79936971D01*
X195973474Y-80423152D01*
X195859400Y-80996641D01*
X195859400Y-81055359D01*
X195973474Y-81628848D01*
X196298330Y-82115029D01*
X196569172Y-82296000D01*
X196298330Y-82476971D01*
X195973474Y-82963152D01*
X195859400Y-83536641D01*
X195859400Y-83595359D01*
X195973474Y-84168848D01*
X196298330Y-84655029D01*
X196569172Y-84836000D01*
X196298330Y-85016971D01*
X195973474Y-85503152D01*
X195859400Y-86076641D01*
X195859400Y-86135359D01*
X195973474Y-86708848D01*
X196298330Y-87195029D01*
X196569172Y-87376000D01*
X196298330Y-87556971D01*
X195973474Y-88043152D01*
X195859400Y-88616641D01*
X195859400Y-88675359D01*
X195973474Y-89248848D01*
X196298330Y-89735029D01*
X196569172Y-89916000D01*
X196298330Y-90096971D01*
X195973474Y-90583152D01*
X195859400Y-91156641D01*
X195859400Y-91215359D01*
X195973474Y-91788848D01*
X196298330Y-92275029D01*
X196569172Y-92456000D01*
X196298330Y-92636971D01*
X195973474Y-93123152D01*
X195859400Y-93696641D01*
X195859400Y-93755359D01*
X195973474Y-94328848D01*
X196298330Y-94815029D01*
X196569172Y-94996000D01*
X196298330Y-95176971D01*
X195973474Y-95663152D01*
X195859400Y-96236641D01*
X195859400Y-96295359D01*
X195973474Y-96868848D01*
X196298330Y-97355029D01*
X196569172Y-97536000D01*
X196298330Y-97716971D01*
X195973474Y-98203152D01*
X195859400Y-98776641D01*
X195859400Y-98835359D01*
X195973474Y-99408848D01*
X196298330Y-99895029D01*
X196569172Y-100076000D01*
X196298330Y-100256971D01*
X195973474Y-100743152D01*
X195859400Y-101316641D01*
X195859400Y-101375359D01*
X195973474Y-101948848D01*
X196298330Y-102435029D01*
X196569172Y-102616000D01*
X196298330Y-102796971D01*
X195973474Y-103283152D01*
X195859400Y-103856641D01*
X195859400Y-103915359D01*
X195973474Y-104488848D01*
X196298330Y-104975029D01*
X196569172Y-105156000D01*
X196298330Y-105336971D01*
X195973474Y-105823152D01*
X195859400Y-106396641D01*
X195859400Y-106455359D01*
X195973474Y-107028848D01*
X196298330Y-107515029D01*
X196569172Y-107696000D01*
X196298330Y-107876971D01*
X195973474Y-108363152D01*
X195859400Y-108936641D01*
X195859400Y-108995359D01*
X195973474Y-109568848D01*
X196298330Y-110055029D01*
X196569172Y-110236000D01*
X196298330Y-110416971D01*
X195973474Y-110903152D01*
X195859400Y-111476641D01*
X195859400Y-111535359D01*
X195973474Y-112108848D01*
X196298330Y-112595029D01*
X196556620Y-112767613D01*
X196483800Y-112992195D01*
X197358000Y-113866395D01*
X198232200Y-112992195D01*
X198159380Y-112767613D01*
X198417670Y-112595029D01*
X198628000Y-112280248D01*
X198838330Y-112595029D01*
X199109161Y-112775992D01*
X198691179Y-113157510D01*
X198648510Y-113248551D01*
X198411805Y-113171800D01*
X197537605Y-114046000D01*
X198411805Y-114920200D01*
X198648510Y-114843449D01*
X198691179Y-114934490D01*
X199123053Y-115328688D01*
X199538974Y-115500958D01*
X199771000Y-115379817D01*
X199771000Y-114173000D01*
X200025000Y-114173000D01*
X200025000Y-115379817D01*
X200257026Y-115500958D01*
X200672947Y-115328688D01*
X201104821Y-114934490D01*
X201352968Y-114405027D01*
X201232469Y-114173000D01*
X200025000Y-114173000D01*
X199771000Y-114173000D01*
X199751000Y-114173000D01*
X199751000Y-113919000D01*
X199771000Y-113919000D01*
X199771000Y-113899000D01*
X200025000Y-113899000D01*
X200025000Y-113919000D01*
X201232469Y-113919000D01*
X201352968Y-113686973D01*
X201104821Y-113157510D01*
X200686839Y-112775992D01*
X200957670Y-112595029D01*
X201282526Y-112108848D01*
X201396600Y-111535359D01*
X201396600Y-111476641D01*
X201282526Y-110903152D01*
X200957670Y-110416971D01*
X200686828Y-110236000D01*
X200957670Y-110055029D01*
X201282526Y-109568848D01*
X201396600Y-108995359D01*
X201396600Y-108936641D01*
X201282526Y-108363152D01*
X200957670Y-107876971D01*
X200686828Y-107696000D01*
X200957670Y-107515029D01*
X201282526Y-107028848D01*
X201396600Y-106455359D01*
X201396600Y-106396641D01*
X201282526Y-105823152D01*
X200957670Y-105336971D01*
X200686828Y-105156000D01*
X200957670Y-104975029D01*
X201282526Y-104488848D01*
X201396600Y-103915359D01*
X201396600Y-103856641D01*
X201282526Y-103283152D01*
X200957670Y-102796971D01*
X200686828Y-102616000D01*
X200957670Y-102435029D01*
X201282526Y-101948848D01*
X201396600Y-101375359D01*
X201396600Y-101316641D01*
X201282526Y-100743152D01*
X200957670Y-100256971D01*
X200686828Y-100076000D01*
X200957670Y-99895029D01*
X201282526Y-99408848D01*
X201396600Y-98835359D01*
X201396600Y-98776641D01*
X201282526Y-98203152D01*
X200957670Y-97716971D01*
X200686828Y-97536000D01*
X200957670Y-97355029D01*
X201282526Y-96868848D01*
X201396600Y-96295359D01*
X201396600Y-96236641D01*
X201282526Y-95663152D01*
X200957670Y-95176971D01*
X200686828Y-94996000D01*
X200957670Y-94815029D01*
X201282526Y-94328848D01*
X201396600Y-93755359D01*
X201396600Y-93696641D01*
X201282526Y-93123152D01*
X200957670Y-92636971D01*
X200686828Y-92456000D01*
X200957670Y-92275029D01*
X201282526Y-91788848D01*
X201396600Y-91215359D01*
X201396600Y-91156641D01*
X201282526Y-90583152D01*
X200957670Y-90096971D01*
X200686828Y-89916000D01*
X200957670Y-89735029D01*
X201282526Y-89248848D01*
X201396600Y-88675359D01*
X201396600Y-88616641D01*
X201282526Y-88043152D01*
X200957670Y-87556971D01*
X200686828Y-87376000D01*
X200957670Y-87195029D01*
X201282526Y-86708848D01*
X201396600Y-86135359D01*
X201396600Y-86076641D01*
X201282526Y-85503152D01*
X200957670Y-85016971D01*
X200686828Y-84836000D01*
X200957670Y-84655029D01*
X201282526Y-84168848D01*
X201396600Y-83595359D01*
X201396600Y-83536641D01*
X201282526Y-82963152D01*
X200957670Y-82476971D01*
X200686828Y-82296000D01*
X200957670Y-82115029D01*
X201041000Y-81990317D01*
X201041000Y-82296000D01*
X201051006Y-82345410D01*
X201073602Y-82380959D01*
X203327000Y-84884735D01*
X203327000Y-117165270D01*
X200229467Y-120015000D01*
X196115151Y-120015000D01*
X196202526Y-119884234D01*
X196316600Y-119310745D01*
X196316600Y-118941255D01*
X196202526Y-118367766D01*
X195877670Y-117881585D01*
X195391489Y-117556729D01*
X194818000Y-117442655D01*
X194244511Y-117556729D01*
X193758330Y-117881585D01*
X193548000Y-118196366D01*
X193337670Y-117881585D01*
X192851489Y-117556729D01*
X192278000Y-117442655D01*
X191704511Y-117556729D01*
X191218330Y-117881585D01*
X191008000Y-118196366D01*
X190797670Y-117881585D01*
X190311489Y-117556729D01*
X189738000Y-117442655D01*
X189164511Y-117556729D01*
X188678330Y-117881585D01*
X188468000Y-118196366D01*
X188257670Y-117881585D01*
X187771489Y-117556729D01*
X187198000Y-117442655D01*
X186624511Y-117556729D01*
X186138330Y-117881585D01*
X185928000Y-118196366D01*
X185717670Y-117881585D01*
X185231489Y-117556729D01*
X184658000Y-117442655D01*
X184084511Y-117556729D01*
X183598330Y-117881585D01*
X183388000Y-118196366D01*
X183177670Y-117881585D01*
X182691489Y-117556729D01*
X182118000Y-117442655D01*
X181544511Y-117556729D01*
X181058330Y-117881585D01*
X180848000Y-118196366D01*
X180637670Y-117881585D01*
X180151489Y-117556729D01*
X179578000Y-117442655D01*
X179004511Y-117556729D01*
X178518330Y-117881585D01*
X178308000Y-118196366D01*
X178097670Y-117881585D01*
X177611489Y-117556729D01*
X177038000Y-117442655D01*
X176464511Y-117556729D01*
X175978330Y-117881585D01*
X175653474Y-118367766D01*
X175539400Y-118941255D01*
X175539400Y-119310745D01*
X175653474Y-119884234D01*
X175740849Y-120015000D01*
X173255151Y-120015000D01*
X173342526Y-119884234D01*
X173456600Y-119310745D01*
X173456600Y-118941255D01*
X173342526Y-118367766D01*
X173017670Y-117881585D01*
X172531489Y-117556729D01*
X171958000Y-117442655D01*
X171384511Y-117556729D01*
X170898330Y-117881585D01*
X170688000Y-118196366D01*
X170477670Y-117881585D01*
X169991489Y-117556729D01*
X169418000Y-117442655D01*
X168844511Y-117556729D01*
X168358330Y-117881585D01*
X168148000Y-118196366D01*
X167937670Y-117881585D01*
X167451489Y-117556729D01*
X166878000Y-117442655D01*
X166304511Y-117556729D01*
X165818330Y-117881585D01*
X165608000Y-118196366D01*
X165397670Y-117881585D01*
X164911489Y-117556729D01*
X164338000Y-117442655D01*
X163764511Y-117556729D01*
X163278330Y-117881585D01*
X163068000Y-118196366D01*
X162857670Y-117881585D01*
X162371489Y-117556729D01*
X161798000Y-117442655D01*
X161224511Y-117556729D01*
X160738330Y-117881585D01*
X160528000Y-118196366D01*
X160317670Y-117881585D01*
X159831489Y-117556729D01*
X159258000Y-117442655D01*
X158684511Y-117556729D01*
X158198330Y-117881585D01*
X157988000Y-118196366D01*
X157777670Y-117881585D01*
X157291489Y-117556729D01*
X156718000Y-117442655D01*
X156144511Y-117556729D01*
X155658330Y-117881585D01*
X155448000Y-118196366D01*
X155237670Y-117881585D01*
X154751489Y-117556729D01*
X154178000Y-117442655D01*
X153604511Y-117556729D01*
X153118330Y-117881585D01*
X152793474Y-118367766D01*
X152679400Y-118941255D01*
X152679400Y-119310745D01*
X152793474Y-119884234D01*
X152880849Y-120015000D01*
X150395151Y-120015000D01*
X150482526Y-119884234D01*
X150596600Y-119310745D01*
X150596600Y-118941255D01*
X150482526Y-118367766D01*
X150157670Y-117881585D01*
X149671489Y-117556729D01*
X149098000Y-117442655D01*
X148524511Y-117556729D01*
X148038330Y-117881585D01*
X147831539Y-118191069D01*
X147460036Y-117775268D01*
X146932791Y-117521291D01*
X146917026Y-117518642D01*
X146685000Y-117639783D01*
X146685000Y-118999000D01*
X146705000Y-118999000D01*
X146705000Y-119253000D01*
X146685000Y-119253000D01*
X146685000Y-119273000D01*
X146431000Y-119273000D01*
X146431000Y-119253000D01*
X144145000Y-119253000D01*
X144145000Y-119273000D01*
X143891000Y-119273000D01*
X143891000Y-119253000D01*
X143871000Y-119253000D01*
X143871000Y-118999000D01*
X143891000Y-118999000D01*
X143891000Y-117639783D01*
X144145000Y-117639783D01*
X144145000Y-118999000D01*
X146431000Y-118999000D01*
X146431000Y-117639783D01*
X146198974Y-117518642D01*
X146183209Y-117521291D01*
X145655964Y-117775268D01*
X145288000Y-118187108D01*
X144920036Y-117775268D01*
X144392791Y-117521291D01*
X144377026Y-117518642D01*
X144145000Y-117639783D01*
X143891000Y-117639783D01*
X143658974Y-117518642D01*
X143643209Y-117521291D01*
X143115964Y-117775268D01*
X142744461Y-118191069D01*
X142537670Y-117881585D01*
X142051489Y-117556729D01*
X141478000Y-117442655D01*
X140904511Y-117556729D01*
X140418330Y-117881585D01*
X140208000Y-118196366D01*
X139997670Y-117881585D01*
X139511489Y-117556729D01*
X138938000Y-117442655D01*
X138364511Y-117556729D01*
X137878330Y-117881585D01*
X137668000Y-118196366D01*
X137457670Y-117881585D01*
X136971489Y-117556729D01*
X136398000Y-117442655D01*
X135824511Y-117556729D01*
X135338330Y-117881585D01*
X135128000Y-118196366D01*
X134917670Y-117881585D01*
X134431489Y-117556729D01*
X133858000Y-117442655D01*
X133284511Y-117556729D01*
X132798330Y-117881585D01*
X132588000Y-118196366D01*
X132377670Y-117881585D01*
X131891489Y-117556729D01*
X131318000Y-117442655D01*
X130744511Y-117556729D01*
X130258330Y-117881585D01*
X129933474Y-118367766D01*
X129819400Y-118941255D01*
X129819400Y-119310745D01*
X129933474Y-119884234D01*
X130020849Y-120015000D01*
X105283000Y-120015000D01*
X105283000Y-115099805D01*
X196483800Y-115099805D01*
X196565741Y-115352516D01*
X197126030Y-115556248D01*
X197721635Y-115530058D01*
X198150259Y-115352516D01*
X198232200Y-115099805D01*
X197358000Y-114225605D01*
X196483800Y-115099805D01*
X105283000Y-115099805D01*
X105283000Y-113814030D01*
X195847752Y-113814030D01*
X195873942Y-114409635D01*
X196051484Y-114838259D01*
X196304195Y-114920200D01*
X197178395Y-114046000D01*
X196304195Y-113171800D01*
X196051484Y-113253741D01*
X195847752Y-113814030D01*
X105283000Y-113814030D01*
X105283000Y-110957784D01*
X162877313Y-110957784D01*
X163041311Y-111354689D01*
X163344714Y-111658622D01*
X163741332Y-111823313D01*
X164170784Y-111823687D01*
X164567689Y-111659689D01*
X164871622Y-111356286D01*
X165036313Y-110959668D01*
X165036687Y-110530216D01*
X164872689Y-110133311D01*
X164569286Y-109829378D01*
X164172668Y-109664687D01*
X163743216Y-109664313D01*
X163346311Y-109828311D01*
X163042378Y-110131714D01*
X162877687Y-110528332D01*
X162877313Y-110957784D01*
X105283000Y-110957784D01*
X105283000Y-109433784D01*
X139763313Y-109433784D01*
X139927311Y-109830689D01*
X140230714Y-110134622D01*
X140627332Y-110299313D01*
X141056784Y-110299687D01*
X141453689Y-110135689D01*
X141757622Y-109832286D01*
X141817624Y-109687784D01*
X159956313Y-109687784D01*
X160120311Y-110084689D01*
X160423714Y-110388622D01*
X160820332Y-110553313D01*
X161249784Y-110553687D01*
X161646689Y-110389689D01*
X161950622Y-110086286D01*
X162115313Y-109689668D01*
X162115687Y-109260216D01*
X161977503Y-108925784D01*
X183705313Y-108925784D01*
X183869311Y-109322689D01*
X184172714Y-109626622D01*
X184263668Y-109664389D01*
X184174311Y-109701311D01*
X183870378Y-110004714D01*
X183705687Y-110401332D01*
X183705313Y-110830784D01*
X183869311Y-111227689D01*
X184172714Y-111531622D01*
X184569332Y-111696313D01*
X184998784Y-111696687D01*
X185395689Y-111532689D01*
X185699622Y-111229286D01*
X185864313Y-110832668D01*
X185864687Y-110403216D01*
X185700689Y-110006311D01*
X185397286Y-109702378D01*
X185306332Y-109664611D01*
X185395689Y-109627689D01*
X185699622Y-109324286D01*
X185864313Y-108927668D01*
X185864687Y-108498216D01*
X185700689Y-108101311D01*
X185397286Y-107797378D01*
X185000668Y-107632687D01*
X184571216Y-107632313D01*
X184174311Y-107796311D01*
X183870378Y-108099714D01*
X183705687Y-108496332D01*
X183705313Y-108925784D01*
X161977503Y-108925784D01*
X161951689Y-108863311D01*
X161648286Y-108559378D01*
X161251668Y-108394687D01*
X160822216Y-108394313D01*
X160425311Y-108558311D01*
X160121378Y-108861714D01*
X159956687Y-109258332D01*
X159956313Y-109687784D01*
X141817624Y-109687784D01*
X141922313Y-109435668D01*
X141922687Y-109006216D01*
X141758689Y-108609311D01*
X141455286Y-108305378D01*
X141058668Y-108140687D01*
X140629216Y-108140313D01*
X140232311Y-108304311D01*
X139928378Y-108607714D01*
X139763687Y-109004332D01*
X139763313Y-109433784D01*
X105283000Y-109433784D01*
X105283000Y-107528784D01*
X166306313Y-107528784D01*
X166470311Y-107925689D01*
X166773714Y-108229622D01*
X167170332Y-108394313D01*
X167599784Y-108394687D01*
X167996689Y-108230689D01*
X168300622Y-107927286D01*
X168465313Y-107530668D01*
X168465519Y-107293246D01*
X188385654Y-107293246D01*
X188387869Y-107306760D01*
X188641207Y-107834857D01*
X189077355Y-108225807D01*
X189629913Y-108420091D01*
X189865000Y-108276222D01*
X189865000Y-107061000D01*
X190119000Y-107061000D01*
X190119000Y-108276222D01*
X190354087Y-108420091D01*
X190906645Y-108225807D01*
X191342793Y-107834857D01*
X191596131Y-107306760D01*
X191598346Y-107293246D01*
X191477224Y-107061000D01*
X190119000Y-107061000D01*
X189865000Y-107061000D01*
X188506776Y-107061000D01*
X188385654Y-107293246D01*
X168465519Y-107293246D01*
X168465687Y-107101216D01*
X168301689Y-106704311D01*
X167998286Y-106400378D01*
X167601668Y-106235687D01*
X167172216Y-106235313D01*
X166775311Y-106399311D01*
X166471378Y-106702714D01*
X166306687Y-107099332D01*
X166306313Y-107528784D01*
X105283000Y-107528784D01*
X105283000Y-105319285D01*
X105590760Y-105319285D01*
X105801169Y-105828515D01*
X106190436Y-106218461D01*
X106699298Y-106429759D01*
X107250285Y-106430240D01*
X107759515Y-106219831D01*
X108149461Y-105830564D01*
X108360759Y-105321702D01*
X108361240Y-104770715D01*
X108346394Y-104734784D01*
X154368313Y-104734784D01*
X154532311Y-105131689D01*
X154835714Y-105435622D01*
X155232332Y-105600313D01*
X155661784Y-105600687D01*
X156058689Y-105436689D01*
X156362622Y-105133286D01*
X156527313Y-104736668D01*
X156527646Y-104353784D01*
X177990313Y-104353784D01*
X178154311Y-104750689D01*
X178457714Y-105054622D01*
X178854332Y-105219313D01*
X179283784Y-105219687D01*
X179680689Y-105055689D01*
X179984622Y-104752286D01*
X180149313Y-104355668D01*
X180149687Y-103926216D01*
X179985689Y-103529311D01*
X179682286Y-103225378D01*
X179285668Y-103060687D01*
X178856216Y-103060313D01*
X178459311Y-103224311D01*
X178155378Y-103527714D01*
X177990687Y-103924332D01*
X177990313Y-104353784D01*
X156527646Y-104353784D01*
X156527687Y-104307216D01*
X156363689Y-103910311D01*
X156060286Y-103606378D01*
X155663668Y-103441687D01*
X155234216Y-103441313D01*
X154837311Y-103605311D01*
X154533378Y-103908714D01*
X154368687Y-104305332D01*
X154368313Y-104734784D01*
X108346394Y-104734784D01*
X108150831Y-104261485D01*
X107761564Y-103871539D01*
X107252702Y-103660241D01*
X106701715Y-103659760D01*
X106192485Y-103870169D01*
X105802539Y-104259436D01*
X105591241Y-104768298D01*
X105590760Y-105319285D01*
X105283000Y-105319285D01*
X105283000Y-102067784D01*
X184213313Y-102067784D01*
X184377311Y-102464689D01*
X184680714Y-102768622D01*
X185077332Y-102933313D01*
X185506784Y-102933687D01*
X185903689Y-102769689D01*
X186207622Y-102466286D01*
X186372313Y-102069668D01*
X186372500Y-101854000D01*
X188309675Y-101854000D01*
X188423856Y-102428025D01*
X188749015Y-102914660D01*
X189062315Y-103124000D01*
X188749015Y-103333340D01*
X188423856Y-103819975D01*
X188309675Y-104394000D01*
X188423856Y-104968025D01*
X188749015Y-105454660D01*
X189056993Y-105660445D01*
X188641207Y-106033143D01*
X188387869Y-106561240D01*
X188385654Y-106574754D01*
X188506776Y-106807000D01*
X189865000Y-106807000D01*
X189865000Y-106787000D01*
X190119000Y-106787000D01*
X190119000Y-106807000D01*
X191477224Y-106807000D01*
X191598346Y-106574754D01*
X191596131Y-106561240D01*
X191342793Y-106033143D01*
X190927007Y-105660445D01*
X191234985Y-105454660D01*
X191355852Y-105273769D01*
X191479875Y-105398009D01*
X191915255Y-105578794D01*
X192386677Y-105579206D01*
X192822372Y-105399180D01*
X193156009Y-105066125D01*
X193336794Y-104630745D01*
X193337206Y-104159323D01*
X193157180Y-103723628D01*
X192824125Y-103389991D01*
X192388745Y-103209206D01*
X191917323Y-103208794D01*
X191481628Y-103388820D01*
X191355911Y-103514318D01*
X191234985Y-103333340D01*
X190921685Y-103124000D01*
X191234985Y-102914660D01*
X191560144Y-102428025D01*
X191674325Y-101854000D01*
X191560144Y-101279975D01*
X191234985Y-100793340D01*
X191223543Y-100785695D01*
X191242317Y-100782162D01*
X191458441Y-100643090D01*
X191603431Y-100430890D01*
X191654440Y-100179000D01*
X191654440Y-98449000D01*
X191610162Y-98213683D01*
X191471090Y-97997559D01*
X191258890Y-97852569D01*
X191007000Y-97801560D01*
X188977000Y-97801560D01*
X188741683Y-97845838D01*
X188525559Y-97984910D01*
X188380569Y-98197110D01*
X188329560Y-98449000D01*
X188329560Y-100179000D01*
X188373838Y-100414317D01*
X188512910Y-100630441D01*
X188725110Y-100775431D01*
X188764024Y-100783311D01*
X188749015Y-100793340D01*
X188423856Y-101279975D01*
X188309675Y-101854000D01*
X186372500Y-101854000D01*
X186372687Y-101640216D01*
X186208689Y-101243311D01*
X185905286Y-100939378D01*
X185508668Y-100774687D01*
X185079216Y-100774313D01*
X184682311Y-100938311D01*
X184378378Y-101241714D01*
X184213687Y-101638332D01*
X184213313Y-102067784D01*
X105283000Y-102067784D01*
X105283000Y-100924784D01*
X175323313Y-100924784D01*
X175487311Y-101321689D01*
X175790714Y-101625622D01*
X176187332Y-101790313D01*
X176616784Y-101790687D01*
X177013689Y-101626689D01*
X177317622Y-101323286D01*
X177482313Y-100926668D01*
X177482687Y-100497216D01*
X177318689Y-100100311D01*
X177015286Y-99796378D01*
X176618668Y-99631687D01*
X176189216Y-99631313D01*
X175792311Y-99795311D01*
X175488378Y-100098714D01*
X175323687Y-100495332D01*
X175323313Y-100924784D01*
X105283000Y-100924784D01*
X105283000Y-98765784D01*
X142430313Y-98765784D01*
X142594311Y-99162689D01*
X142897714Y-99466622D01*
X143294332Y-99631313D01*
X143723784Y-99631687D01*
X144120689Y-99467689D01*
X144187710Y-99400784D01*
X178498313Y-99400784D01*
X178662311Y-99797689D01*
X178965714Y-100101622D01*
X179362332Y-100266313D01*
X179791784Y-100266687D01*
X180188689Y-100102689D01*
X180492622Y-99799286D01*
X180657313Y-99402668D01*
X180657687Y-98973216D01*
X180493689Y-98576311D01*
X180190286Y-98272378D01*
X179793668Y-98107687D01*
X179364216Y-98107313D01*
X178967311Y-98271311D01*
X178663378Y-98574714D01*
X178498687Y-98971332D01*
X178498313Y-99400784D01*
X144187710Y-99400784D01*
X144424622Y-99164286D01*
X144589313Y-98767668D01*
X144589687Y-98338216D01*
X144425689Y-97941311D01*
X144122286Y-97637378D01*
X144087140Y-97622784D01*
X144589313Y-97622784D01*
X144753311Y-98019689D01*
X145056714Y-98323622D01*
X145453332Y-98488313D01*
X145882784Y-98488687D01*
X146279689Y-98324689D01*
X146583622Y-98021286D01*
X146696360Y-97749784D01*
X181419313Y-97749784D01*
X181583311Y-98146689D01*
X181886714Y-98450622D01*
X182283332Y-98615313D01*
X182712784Y-98615687D01*
X183109689Y-98451689D01*
X183413622Y-98148286D01*
X183578313Y-97751668D01*
X183578687Y-97322216D01*
X183414689Y-96925311D01*
X183111286Y-96621378D01*
X182714668Y-96456687D01*
X182285216Y-96456313D01*
X181888311Y-96620311D01*
X181584378Y-96923714D01*
X181419687Y-97320332D01*
X181419313Y-97749784D01*
X146696360Y-97749784D01*
X146748313Y-97624668D01*
X146748687Y-97195216D01*
X146584689Y-96798311D01*
X146281286Y-96494378D01*
X145884668Y-96329687D01*
X145455216Y-96329313D01*
X145058311Y-96493311D01*
X144754378Y-96796714D01*
X144589687Y-97193332D01*
X144589313Y-97622784D01*
X144087140Y-97622784D01*
X143725668Y-97472687D01*
X143296216Y-97472313D01*
X142899311Y-97636311D01*
X142595378Y-97939714D01*
X142430687Y-98336332D01*
X142430313Y-98765784D01*
X105283000Y-98765784D01*
X105283000Y-92415784D01*
X127190313Y-92415784D01*
X127354311Y-92812689D01*
X127657714Y-93116622D01*
X128054332Y-93281313D01*
X128483784Y-93281687D01*
X128880689Y-93117689D01*
X128947710Y-93050784D01*
X135318313Y-93050784D01*
X135482311Y-93447689D01*
X135785714Y-93751622D01*
X136182332Y-93916313D01*
X136611784Y-93916687D01*
X137008689Y-93752689D01*
X137202932Y-93558784D01*
X138620313Y-93558784D01*
X138784311Y-93955689D01*
X139087714Y-94259622D01*
X139484332Y-94424313D01*
X139913784Y-94424687D01*
X140310689Y-94260689D01*
X140614622Y-93957286D01*
X140727360Y-93685784D01*
X145224313Y-93685784D01*
X145388311Y-94082689D01*
X145691714Y-94386622D01*
X146088332Y-94551313D01*
X146517784Y-94551687D01*
X146914689Y-94387689D01*
X147218622Y-94084286D01*
X147383313Y-93687668D01*
X147383535Y-93431784D01*
X147891313Y-93431784D01*
X148055311Y-93828689D01*
X148358714Y-94132622D01*
X148755332Y-94297313D01*
X149184784Y-94297687D01*
X149581689Y-94133689D01*
X149885622Y-93830286D01*
X150050313Y-93433668D01*
X150050314Y-93431784D01*
X150177313Y-93431784D01*
X150341311Y-93828689D01*
X150644714Y-94132622D01*
X151041332Y-94297313D01*
X151470784Y-94297687D01*
X151867689Y-94133689D01*
X152171622Y-93830286D01*
X152336313Y-93433668D01*
X152336687Y-93004216D01*
X152172689Y-92607311D01*
X151869286Y-92303378D01*
X151472668Y-92138687D01*
X151043216Y-92138313D01*
X150646311Y-92302311D01*
X150342378Y-92605714D01*
X150177687Y-93002332D01*
X150177313Y-93431784D01*
X150050314Y-93431784D01*
X150050687Y-93004216D01*
X149886689Y-92607311D01*
X149583286Y-92303378D01*
X149186668Y-92138687D01*
X148757216Y-92138313D01*
X148360311Y-92302311D01*
X148056378Y-92605714D01*
X147891687Y-93002332D01*
X147891313Y-93431784D01*
X147383535Y-93431784D01*
X147383687Y-93258216D01*
X147219689Y-92861311D01*
X146916286Y-92557378D01*
X146519668Y-92392687D01*
X146090216Y-92392313D01*
X145693311Y-92556311D01*
X145389378Y-92859714D01*
X145224687Y-93256332D01*
X145224313Y-93685784D01*
X140727360Y-93685784D01*
X140779313Y-93560668D01*
X140779687Y-93131216D01*
X140683173Y-92897634D01*
X141072689Y-92736689D01*
X141376622Y-92433286D01*
X141541313Y-92036668D01*
X141541687Y-91607216D01*
X141377689Y-91210311D01*
X141313275Y-91145784D01*
X166306313Y-91145784D01*
X166470311Y-91542689D01*
X166773714Y-91846622D01*
X167170332Y-92011313D01*
X167599784Y-92011687D01*
X167996689Y-91847689D01*
X168190932Y-91653784D01*
X168719313Y-91653784D01*
X168883311Y-92050689D01*
X169186714Y-92354622D01*
X169583332Y-92519313D01*
X170012784Y-92519687D01*
X170409689Y-92355689D01*
X170713622Y-92052286D01*
X170878313Y-91655668D01*
X170878314Y-91653784D01*
X171386313Y-91653784D01*
X171550311Y-92050689D01*
X171853714Y-92354622D01*
X172250332Y-92519313D01*
X172679784Y-92519687D01*
X173076689Y-92355689D01*
X173380622Y-92052286D01*
X173545313Y-91655668D01*
X173545687Y-91226216D01*
X173381689Y-90829311D01*
X173078286Y-90525378D01*
X172681668Y-90360687D01*
X172252216Y-90360313D01*
X171855311Y-90524311D01*
X171551378Y-90827714D01*
X171386687Y-91224332D01*
X171386313Y-91653784D01*
X170878314Y-91653784D01*
X170878687Y-91226216D01*
X170714689Y-90829311D01*
X170411286Y-90525378D01*
X170014668Y-90360687D01*
X169585216Y-90360313D01*
X169188311Y-90524311D01*
X168884378Y-90827714D01*
X168719687Y-91224332D01*
X168719313Y-91653784D01*
X168190932Y-91653784D01*
X168300622Y-91544286D01*
X168465313Y-91147668D01*
X168465687Y-90718216D01*
X168301689Y-90321311D01*
X167998286Y-90017378D01*
X167601668Y-89852687D01*
X167172216Y-89852313D01*
X166775311Y-90016311D01*
X166471378Y-90319714D01*
X166306687Y-90716332D01*
X166306313Y-91145784D01*
X141313275Y-91145784D01*
X141074286Y-90906378D01*
X140677668Y-90741687D01*
X140248216Y-90741313D01*
X139851311Y-90905311D01*
X139547378Y-91208714D01*
X139382687Y-91605332D01*
X139382313Y-92034784D01*
X139478827Y-92268366D01*
X139089311Y-92429311D01*
X138785378Y-92732714D01*
X138620687Y-93129332D01*
X138620313Y-93558784D01*
X137202932Y-93558784D01*
X137312622Y-93449286D01*
X137477313Y-93052668D01*
X137477687Y-92623216D01*
X137313689Y-92226311D01*
X137010286Y-91922378D01*
X136613668Y-91757687D01*
X136184216Y-91757313D01*
X135787311Y-91921311D01*
X135483378Y-92224714D01*
X135318687Y-92621332D01*
X135318313Y-93050784D01*
X128947710Y-93050784D01*
X129184622Y-92814286D01*
X129349313Y-92417668D01*
X129349687Y-91988216D01*
X129185689Y-91591311D01*
X128882286Y-91287378D01*
X128485668Y-91122687D01*
X128056216Y-91122313D01*
X127659311Y-91286311D01*
X127355378Y-91589714D01*
X127190687Y-91986332D01*
X127190313Y-92415784D01*
X105283000Y-92415784D01*
X105283000Y-90129784D01*
X133159313Y-90129784D01*
X133323311Y-90526689D01*
X133626714Y-90830622D01*
X134023332Y-90995313D01*
X134452784Y-90995687D01*
X134849689Y-90831689D01*
X135153622Y-90528286D01*
X135318313Y-90131668D01*
X135318535Y-89875784D01*
X148526313Y-89875784D01*
X148690311Y-90272689D01*
X148993714Y-90576622D01*
X149390332Y-90741313D01*
X149819784Y-90741687D01*
X150216689Y-90577689D01*
X150409751Y-90384964D01*
X150468311Y-90526689D01*
X150771714Y-90830622D01*
X151168332Y-90995313D01*
X151597784Y-90995687D01*
X151994689Y-90831689D01*
X152298622Y-90528286D01*
X152463313Y-90131668D01*
X152463687Y-89702216D01*
X152299689Y-89305311D01*
X151996286Y-89001378D01*
X151599668Y-88836687D01*
X151170216Y-88836313D01*
X150773311Y-89000311D01*
X150580249Y-89193036D01*
X150521689Y-89051311D01*
X150218286Y-88747378D01*
X149821668Y-88582687D01*
X149392216Y-88582313D01*
X148995311Y-88746311D01*
X148691378Y-89049714D01*
X148526687Y-89446332D01*
X148526313Y-89875784D01*
X135318535Y-89875784D01*
X135318687Y-89702216D01*
X135154689Y-89305311D01*
X134851286Y-89001378D01*
X134454668Y-88836687D01*
X134025216Y-88836313D01*
X133628311Y-89000311D01*
X133324378Y-89303714D01*
X133159687Y-89700332D01*
X133159313Y-90129784D01*
X105283000Y-90129784D01*
X105283000Y-87716784D01*
X170116313Y-87716784D01*
X170280311Y-88113689D01*
X170583714Y-88417622D01*
X170980332Y-88582313D01*
X171409784Y-88582687D01*
X171806689Y-88418689D01*
X172110622Y-88115286D01*
X172275313Y-87718668D01*
X172275687Y-87289216D01*
X172111689Y-86892311D01*
X171808286Y-86588378D01*
X171411668Y-86423687D01*
X170982216Y-86423313D01*
X170585311Y-86587311D01*
X170281378Y-86890714D01*
X170116687Y-87287332D01*
X170116313Y-87716784D01*
X105283000Y-87716784D01*
X105283000Y-86446784D01*
X154876313Y-86446784D01*
X155040311Y-86843689D01*
X155343714Y-87147622D01*
X155740332Y-87312313D01*
X156169784Y-87312687D01*
X156566689Y-87148689D01*
X156870622Y-86845286D01*
X157035313Y-86448668D01*
X157035687Y-86019216D01*
X157002454Y-85938784D01*
X159067313Y-85938784D01*
X159231311Y-86335689D01*
X159534714Y-86639622D01*
X159931332Y-86804313D01*
X160360784Y-86804687D01*
X160757689Y-86640689D01*
X161061622Y-86337286D01*
X161226313Y-85940668D01*
X161226593Y-85619067D01*
X161328332Y-85661313D01*
X161757784Y-85661687D01*
X162154689Y-85497689D01*
X162348932Y-85303784D01*
X165163313Y-85303784D01*
X165327311Y-85700689D01*
X165630714Y-86004622D01*
X166027332Y-86169313D01*
X166456784Y-86169687D01*
X166853689Y-86005689D01*
X167157622Y-85702286D01*
X167322313Y-85305668D01*
X167322687Y-84876216D01*
X167158689Y-84479311D01*
X166855286Y-84175378D01*
X166458668Y-84010687D01*
X166029216Y-84010313D01*
X165632311Y-84174311D01*
X165328378Y-84477714D01*
X165163687Y-84874332D01*
X165163313Y-85303784D01*
X162348932Y-85303784D01*
X162458622Y-85194286D01*
X162623313Y-84797668D01*
X162623687Y-84368216D01*
X162459689Y-83971311D01*
X162156286Y-83667378D01*
X161759668Y-83502687D01*
X161330216Y-83502313D01*
X160933311Y-83666311D01*
X160629378Y-83969714D01*
X160464687Y-84366332D01*
X160464407Y-84687933D01*
X160362668Y-84645687D01*
X159933216Y-84645313D01*
X159536311Y-84809311D01*
X159232378Y-85112714D01*
X159067687Y-85509332D01*
X159067313Y-85938784D01*
X157002454Y-85938784D01*
X156871689Y-85622311D01*
X156568286Y-85318378D01*
X156171668Y-85153687D01*
X155742216Y-85153313D01*
X155345311Y-85317311D01*
X155041378Y-85620714D01*
X154876687Y-86017332D01*
X154876313Y-86446784D01*
X105283000Y-86446784D01*
X105283000Y-85049784D01*
X121221313Y-85049784D01*
X121385311Y-85446689D01*
X121688714Y-85750622D01*
X122085332Y-85915313D01*
X122514784Y-85915687D01*
X122911689Y-85751689D01*
X123215622Y-85448286D01*
X123380313Y-85051668D01*
X123380535Y-84795784D01*
X156527313Y-84795784D01*
X156691311Y-85192689D01*
X156994714Y-85496622D01*
X157391332Y-85661313D01*
X157820784Y-85661687D01*
X158217689Y-85497689D01*
X158521622Y-85194286D01*
X158686313Y-84797668D01*
X158686687Y-84368216D01*
X158522689Y-83971311D01*
X158219286Y-83667378D01*
X157822668Y-83502687D01*
X157393216Y-83502313D01*
X156996311Y-83666311D01*
X156692378Y-83969714D01*
X156527687Y-84366332D01*
X156527313Y-84795784D01*
X123380535Y-84795784D01*
X123380687Y-84622216D01*
X123216689Y-84225311D01*
X122913286Y-83921378D01*
X122516668Y-83756687D01*
X122087216Y-83756313D01*
X121690311Y-83920311D01*
X121386378Y-84223714D01*
X121221687Y-84620332D01*
X121221313Y-85049784D01*
X105283000Y-85049784D01*
X105283000Y-82509784D01*
X183578313Y-82509784D01*
X183742311Y-82906689D01*
X184045714Y-83210622D01*
X184442332Y-83375313D01*
X184871784Y-83375687D01*
X185268689Y-83211689D01*
X185572622Y-82908286D01*
X185685360Y-82636784D01*
X187007313Y-82636784D01*
X187171311Y-83033689D01*
X187474714Y-83337622D01*
X187871332Y-83502313D01*
X188300784Y-83502687D01*
X188697689Y-83338689D01*
X189001622Y-83035286D01*
X189166313Y-82638668D01*
X189166687Y-82209216D01*
X189002689Y-81812311D01*
X188699286Y-81508378D01*
X188302668Y-81343687D01*
X187873216Y-81343313D01*
X187476311Y-81507311D01*
X187172378Y-81810714D01*
X187007687Y-82207332D01*
X187007313Y-82636784D01*
X185685360Y-82636784D01*
X185737313Y-82511668D01*
X185737687Y-82082216D01*
X185573689Y-81685311D01*
X185270286Y-81381378D01*
X184873668Y-81216687D01*
X184444216Y-81216313D01*
X184047311Y-81380311D01*
X183743378Y-81683714D01*
X183578687Y-82080332D01*
X183578313Y-82509784D01*
X105283000Y-82509784D01*
X105283000Y-81119285D01*
X105590760Y-81119285D01*
X105801169Y-81628515D01*
X106190436Y-82018461D01*
X106699298Y-82229759D01*
X107250285Y-82230240D01*
X107759515Y-82019831D01*
X108149461Y-81630564D01*
X108360759Y-81121702D01*
X108361240Y-80570715D01*
X108150831Y-80061485D01*
X107761564Y-79671539D01*
X107252702Y-79460241D01*
X106701715Y-79459760D01*
X106192485Y-79670169D01*
X105802539Y-80059436D01*
X105591241Y-80568298D01*
X105590760Y-81119285D01*
X105283000Y-81119285D01*
X105283000Y-79207784D01*
X141414313Y-79207784D01*
X141578311Y-79604689D01*
X141856356Y-79883219D01*
X141579378Y-80159714D01*
X141414687Y-80556332D01*
X141414313Y-80985784D01*
X141578311Y-81382689D01*
X141881714Y-81686622D01*
X142278332Y-81851313D01*
X142707784Y-81851687D01*
X143104689Y-81687689D01*
X143408622Y-81384286D01*
X143415889Y-81366784D01*
X143954313Y-81366784D01*
X144118311Y-81763689D01*
X144421714Y-82067622D01*
X144818332Y-82232313D01*
X145247784Y-82232687D01*
X145644689Y-82068689D01*
X145948622Y-81765286D01*
X146113313Y-81368668D01*
X146113425Y-81239784D01*
X152717313Y-81239784D01*
X152881311Y-81636689D01*
X153184714Y-81940622D01*
X153581332Y-82105313D01*
X154010784Y-82105687D01*
X154407689Y-81941689D01*
X154711622Y-81638286D01*
X154876313Y-81241668D01*
X154876425Y-81112784D01*
X168211313Y-81112784D01*
X168375311Y-81509689D01*
X168678714Y-81813622D01*
X169075332Y-81978313D01*
X169504784Y-81978687D01*
X169901689Y-81814689D01*
X170205622Y-81511286D01*
X170302518Y-81277935D01*
X170583714Y-81559622D01*
X170980332Y-81724313D01*
X171409784Y-81724687D01*
X171806689Y-81560689D01*
X172110622Y-81257286D01*
X172275313Y-80860668D01*
X172275687Y-80431216D01*
X172111689Y-80034311D01*
X172047275Y-79969784D01*
X172656313Y-79969784D01*
X172820311Y-80366689D01*
X173123714Y-80670622D01*
X173520332Y-80835313D01*
X173949784Y-80835687D01*
X174346689Y-80671689D01*
X174650622Y-80368286D01*
X174815313Y-79971668D01*
X174815687Y-79542216D01*
X174651689Y-79145311D01*
X174348286Y-78841378D01*
X173951668Y-78676687D01*
X173522216Y-78676313D01*
X173125311Y-78840311D01*
X172821378Y-79143714D01*
X172656687Y-79540332D01*
X172656313Y-79969784D01*
X172047275Y-79969784D01*
X171808286Y-79730378D01*
X171411668Y-79565687D01*
X170982216Y-79565313D01*
X170585311Y-79729311D01*
X170281378Y-80032714D01*
X170184482Y-80266065D01*
X169903286Y-79984378D01*
X169506668Y-79819687D01*
X169077216Y-79819313D01*
X168680311Y-79983311D01*
X168376378Y-80286714D01*
X168211687Y-80683332D01*
X168211313Y-81112784D01*
X154876425Y-81112784D01*
X154876687Y-80812216D01*
X154712689Y-80415311D01*
X154409286Y-80111378D01*
X154012668Y-79946687D01*
X153583216Y-79946313D01*
X153186311Y-80110311D01*
X152882378Y-80413714D01*
X152717687Y-80810332D01*
X152717313Y-81239784D01*
X146113425Y-81239784D01*
X146113687Y-80939216D01*
X145949689Y-80542311D01*
X145646286Y-80238378D01*
X145249668Y-80073687D01*
X144820216Y-80073313D01*
X144423311Y-80237311D01*
X144119378Y-80540714D01*
X143954687Y-80937332D01*
X143954313Y-81366784D01*
X143415889Y-81366784D01*
X143573313Y-80987668D01*
X143573687Y-80558216D01*
X143409689Y-80161311D01*
X143131644Y-79882781D01*
X143408622Y-79606286D01*
X143526014Y-79323575D01*
X143802332Y-79438313D01*
X144231784Y-79438687D01*
X144628689Y-79274689D01*
X144932622Y-78971286D01*
X145097313Y-78574668D01*
X145097314Y-78572784D01*
X163131313Y-78572784D01*
X163295311Y-78969689D01*
X163598714Y-79273622D01*
X163995332Y-79438313D01*
X164424784Y-79438687D01*
X164821689Y-79274689D01*
X165125622Y-78971286D01*
X165290313Y-78574668D01*
X165290687Y-78145216D01*
X165126689Y-77748311D01*
X164823286Y-77444378D01*
X164426668Y-77279687D01*
X163997216Y-77279313D01*
X163600311Y-77443311D01*
X163296378Y-77746714D01*
X163131687Y-78143332D01*
X163131313Y-78572784D01*
X145097314Y-78572784D01*
X145097687Y-78145216D01*
X144933689Y-77748311D01*
X144630286Y-77444378D01*
X144233668Y-77279687D01*
X143804216Y-77279313D01*
X143407311Y-77443311D01*
X143103378Y-77746714D01*
X142985986Y-78029425D01*
X142709668Y-77914687D01*
X142280216Y-77914313D01*
X141883311Y-78078311D01*
X141579378Y-78381714D01*
X141414687Y-78778332D01*
X141414313Y-79207784D01*
X105283000Y-79207784D01*
X105283000Y-75778784D01*
X173672313Y-75778784D01*
X173836311Y-76175689D01*
X174139714Y-76479622D01*
X174536332Y-76644313D01*
X174965784Y-76644687D01*
X175362689Y-76480689D01*
X175666622Y-76177286D01*
X175831313Y-75780668D01*
X175831687Y-75351216D01*
X175667689Y-74954311D01*
X175364286Y-74650378D01*
X174967668Y-74485687D01*
X174538216Y-74485313D01*
X174141311Y-74649311D01*
X173837378Y-74952714D01*
X173672687Y-75349332D01*
X173672313Y-75778784D01*
X105283000Y-75778784D01*
X105283000Y-74889784D01*
X139509313Y-74889784D01*
X139673311Y-75286689D01*
X139976714Y-75590622D01*
X140373332Y-75755313D01*
X140802784Y-75755687D01*
X141199689Y-75591689D01*
X141503622Y-75288286D01*
X141668313Y-74891668D01*
X141668646Y-74508784D01*
X155257313Y-74508784D01*
X155421311Y-74905689D01*
X155724714Y-75209622D01*
X156121332Y-75374313D01*
X156550784Y-75374687D01*
X156947689Y-75210689D01*
X157251622Y-74907286D01*
X157416313Y-74510668D01*
X157416687Y-74081216D01*
X157252689Y-73684311D01*
X156949286Y-73380378D01*
X156552668Y-73215687D01*
X156123216Y-73215313D01*
X155726311Y-73379311D01*
X155422378Y-73682714D01*
X155257687Y-74079332D01*
X155257313Y-74508784D01*
X141668646Y-74508784D01*
X141668687Y-74462216D01*
X141504689Y-74065311D01*
X141201286Y-73761378D01*
X140804668Y-73596687D01*
X140375216Y-73596313D01*
X139978311Y-73760311D01*
X139674378Y-74063714D01*
X139509687Y-74460332D01*
X139509313Y-74889784D01*
X105283000Y-74889784D01*
X105283000Y-70231000D01*
X120764961Y-70231000D01*
X120675400Y-70681255D01*
M02*
