G04 #@! TF.FileFunction,Soldermask,Bot*
%FSLAX46Y46*%
G04 Gerber Fmt 4.6, Leading zero omitted, Abs format (unit mm)*
G04 Created by KiCad (PCBNEW 4.0.6) date 11/29/17 13:30:51*
%MOMM*%
%LPD*%
G01*
G04 APERTURE LIST*
%ADD10C,0.100000*%
%ADD11C,0.300000*%
%ADD12C,1.727200*%
%ADD13O,1.727200X1.727200*%
%ADD14O,1.727200X2.032000*%
%ADD15R,2.030000X1.730000*%
%ADD16O,2.030000X1.730000*%
%ADD17C,1.100000*%
%ADD18C,1.500000*%
%ADD19R,1.524000X2.032000*%
%ADD20R,2.032000X1.524000*%
G04 APERTURE END LIST*
D10*
D11*
X226417143Y-79413571D02*
X226417143Y-77913571D01*
X228202857Y-77842143D02*
X226917143Y-79770714D01*
X228988572Y-77913571D02*
X229274286Y-77913571D01*
X229417144Y-77985000D01*
X229560001Y-78127857D01*
X229631429Y-78413571D01*
X229631429Y-78913571D01*
X229560001Y-79199286D01*
X229417144Y-79342143D01*
X229274286Y-79413571D01*
X228988572Y-79413571D01*
X228845715Y-79342143D01*
X228702858Y-79199286D01*
X228631429Y-78913571D01*
X228631429Y-78413571D01*
X228702858Y-78127857D01*
X228845715Y-77985000D01*
X228988572Y-77913571D01*
X231917144Y-78627857D02*
X232131430Y-78699286D01*
X232202858Y-78770714D01*
X232274287Y-78913571D01*
X232274287Y-79127857D01*
X232202858Y-79270714D01*
X232131430Y-79342143D01*
X231988572Y-79413571D01*
X231417144Y-79413571D01*
X231417144Y-77913571D01*
X231917144Y-77913571D01*
X232060001Y-77985000D01*
X232131430Y-78056429D01*
X232202858Y-78199286D01*
X232202858Y-78342143D01*
X232131430Y-78485000D01*
X232060001Y-78556429D01*
X231917144Y-78627857D01*
X231417144Y-78627857D01*
X233131430Y-79413571D02*
X232988572Y-79342143D01*
X232917144Y-79270714D01*
X232845715Y-79127857D01*
X232845715Y-78699286D01*
X232917144Y-78556429D01*
X232988572Y-78485000D01*
X233131430Y-78413571D01*
X233345715Y-78413571D01*
X233488572Y-78485000D01*
X233560001Y-78556429D01*
X233631430Y-78699286D01*
X233631430Y-79127857D01*
X233560001Y-79270714D01*
X233488572Y-79342143D01*
X233345715Y-79413571D01*
X233131430Y-79413571D01*
X234917144Y-79413571D02*
X234917144Y-78627857D01*
X234845715Y-78485000D01*
X234702858Y-78413571D01*
X234417144Y-78413571D01*
X234274287Y-78485000D01*
X234917144Y-79342143D02*
X234774287Y-79413571D01*
X234417144Y-79413571D01*
X234274287Y-79342143D01*
X234202858Y-79199286D01*
X234202858Y-79056429D01*
X234274287Y-78913571D01*
X234417144Y-78842143D01*
X234774287Y-78842143D01*
X234917144Y-78770714D01*
X235631430Y-79413571D02*
X235631430Y-78413571D01*
X235631430Y-78699286D02*
X235702858Y-78556429D01*
X235774287Y-78485000D01*
X235917144Y-78413571D01*
X236060001Y-78413571D01*
X237202858Y-79413571D02*
X237202858Y-77913571D01*
X237202858Y-79342143D02*
X237060001Y-79413571D01*
X236774287Y-79413571D01*
X236631429Y-79342143D01*
X236560001Y-79270714D01*
X236488572Y-79127857D01*
X236488572Y-78699286D01*
X236560001Y-78556429D01*
X236631429Y-78485000D01*
X236774287Y-78413571D01*
X237060001Y-78413571D01*
X237202858Y-78485000D01*
X239917144Y-79413571D02*
X239417144Y-78699286D01*
X239060001Y-79413571D02*
X239060001Y-77913571D01*
X239631429Y-77913571D01*
X239774287Y-77985000D01*
X239845715Y-78056429D01*
X239917144Y-78199286D01*
X239917144Y-78413571D01*
X239845715Y-78556429D01*
X239774287Y-78627857D01*
X239631429Y-78699286D01*
X239060001Y-78699286D01*
X241131429Y-79342143D02*
X240988572Y-79413571D01*
X240702858Y-79413571D01*
X240560001Y-79342143D01*
X240488572Y-79199286D01*
X240488572Y-78627857D01*
X240560001Y-78485000D01*
X240702858Y-78413571D01*
X240988572Y-78413571D01*
X241131429Y-78485000D01*
X241202858Y-78627857D01*
X241202858Y-78770714D01*
X240488572Y-78913571D01*
X241702858Y-78413571D02*
X242060001Y-79413571D01*
X242417143Y-78413571D01*
X244917143Y-79413571D02*
X244060000Y-79413571D01*
X244488572Y-79413571D02*
X244488572Y-77913571D01*
X244345715Y-78127857D01*
X244202857Y-78270714D01*
X244060000Y-78342143D01*
X245560000Y-79270714D02*
X245631428Y-79342143D01*
X245560000Y-79413571D01*
X245488571Y-79342143D01*
X245560000Y-79270714D01*
X245560000Y-79413571D01*
X246560000Y-77913571D02*
X246702857Y-77913571D01*
X246845714Y-77985000D01*
X246917143Y-78056429D01*
X246988572Y-78199286D01*
X247060000Y-78485000D01*
X247060000Y-78842143D01*
X246988572Y-79127857D01*
X246917143Y-79270714D01*
X246845714Y-79342143D01*
X246702857Y-79413571D01*
X246560000Y-79413571D01*
X246417143Y-79342143D01*
X246345714Y-79270714D01*
X246274286Y-79127857D01*
X246202857Y-78842143D01*
X246202857Y-78485000D01*
X246274286Y-78199286D01*
X246345714Y-78056429D01*
X246417143Y-77985000D01*
X246560000Y-77913571D01*
X226917143Y-81177857D02*
X227131429Y-81249286D01*
X227202857Y-81320714D01*
X227274286Y-81463571D01*
X227274286Y-81677857D01*
X227202857Y-81820714D01*
X227131429Y-81892143D01*
X226988571Y-81963571D01*
X226417143Y-81963571D01*
X226417143Y-80463571D01*
X226917143Y-80463571D01*
X227060000Y-80535000D01*
X227131429Y-80606429D01*
X227202857Y-80749286D01*
X227202857Y-80892143D01*
X227131429Y-81035000D01*
X227060000Y-81106429D01*
X226917143Y-81177857D01*
X226417143Y-81177857D01*
X228131429Y-81963571D02*
X227988571Y-81892143D01*
X227917143Y-81820714D01*
X227845714Y-81677857D01*
X227845714Y-81249286D01*
X227917143Y-81106429D01*
X227988571Y-81035000D01*
X228131429Y-80963571D01*
X228345714Y-80963571D01*
X228488571Y-81035000D01*
X228560000Y-81106429D01*
X228631429Y-81249286D01*
X228631429Y-81677857D01*
X228560000Y-81820714D01*
X228488571Y-81892143D01*
X228345714Y-81963571D01*
X228131429Y-81963571D01*
X229060000Y-80963571D02*
X229631429Y-80963571D01*
X229274286Y-80463571D02*
X229274286Y-81749286D01*
X229345714Y-81892143D01*
X229488572Y-81963571D01*
X229631429Y-81963571D01*
X229917143Y-80963571D02*
X230488572Y-80963571D01*
X230131429Y-80463571D02*
X230131429Y-81749286D01*
X230202857Y-81892143D01*
X230345715Y-81963571D01*
X230488572Y-81963571D01*
X231202858Y-81963571D02*
X231060000Y-81892143D01*
X230988572Y-81820714D01*
X230917143Y-81677857D01*
X230917143Y-81249286D01*
X230988572Y-81106429D01*
X231060000Y-81035000D01*
X231202858Y-80963571D01*
X231417143Y-80963571D01*
X231560000Y-81035000D01*
X231631429Y-81106429D01*
X231702858Y-81249286D01*
X231702858Y-81677857D01*
X231631429Y-81820714D01*
X231560000Y-81892143D01*
X231417143Y-81963571D01*
X231202858Y-81963571D01*
X232345715Y-81963571D02*
X232345715Y-80963571D01*
X232345715Y-81106429D02*
X232417143Y-81035000D01*
X232560001Y-80963571D01*
X232774286Y-80963571D01*
X232917143Y-81035000D01*
X232988572Y-81177857D01*
X232988572Y-81963571D01*
X232988572Y-81177857D02*
X233060001Y-81035000D01*
X233202858Y-80963571D01*
X233417143Y-80963571D01*
X233560001Y-81035000D01*
X233631429Y-81177857D01*
X233631429Y-81963571D01*
X235417143Y-81892143D02*
X235631429Y-81963571D01*
X235988572Y-81963571D01*
X236131429Y-81892143D01*
X236202858Y-81820714D01*
X236274286Y-81677857D01*
X236274286Y-81535000D01*
X236202858Y-81392143D01*
X236131429Y-81320714D01*
X235988572Y-81249286D01*
X235702858Y-81177857D01*
X235560000Y-81106429D01*
X235488572Y-81035000D01*
X235417143Y-80892143D01*
X235417143Y-80749286D01*
X235488572Y-80606429D01*
X235560000Y-80535000D01*
X235702858Y-80463571D01*
X236060000Y-80463571D01*
X236274286Y-80535000D01*
X236917143Y-81963571D02*
X236917143Y-80963571D01*
X236917143Y-80463571D02*
X236845714Y-80535000D01*
X236917143Y-80606429D01*
X236988571Y-80535000D01*
X236917143Y-80463571D01*
X236917143Y-80606429D01*
X238274286Y-81963571D02*
X238274286Y-80463571D01*
X238274286Y-81892143D02*
X238131429Y-81963571D01*
X237845715Y-81963571D01*
X237702857Y-81892143D01*
X237631429Y-81820714D01*
X237560000Y-81677857D01*
X237560000Y-81249286D01*
X237631429Y-81106429D01*
X237702857Y-81035000D01*
X237845715Y-80963571D01*
X238131429Y-80963571D01*
X238274286Y-81035000D01*
X239560000Y-81892143D02*
X239417143Y-81963571D01*
X239131429Y-81963571D01*
X238988572Y-81892143D01*
X238917143Y-81749286D01*
X238917143Y-81177857D01*
X238988572Y-81035000D01*
X239131429Y-80963571D01*
X239417143Y-80963571D01*
X239560000Y-81035000D01*
X239631429Y-81177857D01*
X239631429Y-81320714D01*
X238917143Y-81463571D01*
X241345714Y-81892143D02*
X241560000Y-81963571D01*
X241917143Y-81963571D01*
X242060000Y-81892143D01*
X242131429Y-81820714D01*
X242202857Y-81677857D01*
X242202857Y-81535000D01*
X242131429Y-81392143D01*
X242060000Y-81320714D01*
X241917143Y-81249286D01*
X241631429Y-81177857D01*
X241488571Y-81106429D01*
X241417143Y-81035000D01*
X241345714Y-80892143D01*
X241345714Y-80749286D01*
X241417143Y-80606429D01*
X241488571Y-80535000D01*
X241631429Y-80463571D01*
X241988571Y-80463571D01*
X242202857Y-80535000D01*
X243060000Y-81963571D02*
X242917142Y-81892143D01*
X242845714Y-81820714D01*
X242774285Y-81677857D01*
X242774285Y-81249286D01*
X242845714Y-81106429D01*
X242917142Y-81035000D01*
X243060000Y-80963571D01*
X243274285Y-80963571D01*
X243417142Y-81035000D01*
X243488571Y-81106429D01*
X243560000Y-81249286D01*
X243560000Y-81677857D01*
X243488571Y-81820714D01*
X243417142Y-81892143D01*
X243274285Y-81963571D01*
X243060000Y-81963571D01*
X244417143Y-81963571D02*
X244274285Y-81892143D01*
X244202857Y-81749286D01*
X244202857Y-80463571D01*
X245631428Y-81963571D02*
X245631428Y-80463571D01*
X245631428Y-81892143D02*
X245488571Y-81963571D01*
X245202857Y-81963571D01*
X245059999Y-81892143D01*
X244988571Y-81820714D01*
X244917142Y-81677857D01*
X244917142Y-81249286D01*
X244988571Y-81106429D01*
X245059999Y-81035000D01*
X245202857Y-80963571D01*
X245488571Y-80963571D01*
X245631428Y-81035000D01*
X246917142Y-81892143D02*
X246774285Y-81963571D01*
X246488571Y-81963571D01*
X246345714Y-81892143D01*
X246274285Y-81749286D01*
X246274285Y-81177857D01*
X246345714Y-81035000D01*
X246488571Y-80963571D01*
X246774285Y-80963571D01*
X246917142Y-81035000D01*
X246988571Y-81177857D01*
X246988571Y-81320714D01*
X246274285Y-81463571D01*
X247631428Y-81963571D02*
X247631428Y-80963571D01*
X247631428Y-81249286D02*
X247702856Y-81106429D01*
X247774285Y-81035000D01*
X247917142Y-80963571D01*
X248059999Y-80963571D01*
X249702856Y-81963571D02*
X249702856Y-80463571D01*
X250202856Y-81535000D01*
X250702856Y-80463571D01*
X250702856Y-81963571D01*
X252059999Y-81963571D02*
X252059999Y-81177857D01*
X251988570Y-81035000D01*
X251845713Y-80963571D01*
X251559999Y-80963571D01*
X251417142Y-81035000D01*
X252059999Y-81892143D02*
X251917142Y-81963571D01*
X251559999Y-81963571D01*
X251417142Y-81892143D01*
X251345713Y-81749286D01*
X251345713Y-81606429D01*
X251417142Y-81463571D01*
X251559999Y-81392143D01*
X251917142Y-81392143D01*
X252059999Y-81320714D01*
X252702856Y-81892143D02*
X252845713Y-81963571D01*
X253131428Y-81963571D01*
X253274285Y-81892143D01*
X253345713Y-81749286D01*
X253345713Y-81677857D01*
X253274285Y-81535000D01*
X253131428Y-81463571D01*
X252917142Y-81463571D01*
X252774285Y-81392143D01*
X252702856Y-81249286D01*
X252702856Y-81177857D01*
X252774285Y-81035000D01*
X252917142Y-80963571D01*
X253131428Y-80963571D01*
X253274285Y-81035000D01*
X253988571Y-81963571D02*
X253988571Y-80463571D01*
X254131428Y-81392143D02*
X254559999Y-81963571D01*
X254559999Y-80963571D02*
X253988571Y-81535000D01*
D12*
X197358000Y-114046000D03*
D13*
X199898000Y-114046000D03*
X197358000Y-111506000D03*
X199898000Y-111506000D03*
X197358000Y-108966000D03*
X199898000Y-108966000D03*
X197358000Y-106426000D03*
X199898000Y-106426000D03*
X197358000Y-103886000D03*
X199898000Y-103886000D03*
X197358000Y-101346000D03*
X199898000Y-101346000D03*
X197358000Y-98806000D03*
X199898000Y-98806000D03*
X197358000Y-96266000D03*
X199898000Y-96266000D03*
X197358000Y-93726000D03*
X199898000Y-93726000D03*
X197358000Y-91186000D03*
X199898000Y-91186000D03*
X197358000Y-88646000D03*
X199898000Y-88646000D03*
X197358000Y-86106000D03*
X199898000Y-86106000D03*
X197358000Y-83566000D03*
X199898000Y-83566000D03*
X197358000Y-81026000D03*
X199898000Y-81026000D03*
X197358000Y-78486000D03*
X199898000Y-78486000D03*
X197358000Y-75946000D03*
X199898000Y-75946000D03*
X197358000Y-73406000D03*
X199898000Y-73406000D03*
X197358000Y-70866000D03*
X199898000Y-70866000D03*
D14*
X131318000Y-119126000D03*
X133858000Y-119126000D03*
X136398000Y-119126000D03*
X138938000Y-119126000D03*
X141478000Y-119126000D03*
X144018000Y-119126000D03*
X146558000Y-119126000D03*
X149098000Y-119126000D03*
X154178000Y-119126000D03*
X156718000Y-119126000D03*
X159258000Y-119126000D03*
X161798000Y-119126000D03*
X164338000Y-119126000D03*
X166878000Y-119126000D03*
X169418000Y-119126000D03*
X171958000Y-119126000D03*
X177038000Y-119126000D03*
X179578000Y-119126000D03*
X182118000Y-119126000D03*
X184658000Y-119126000D03*
X187198000Y-119126000D03*
X189738000Y-119126000D03*
X192278000Y-119126000D03*
X194818000Y-119126000D03*
X122174000Y-70866000D03*
X124714000Y-70866000D03*
X127254000Y-70866000D03*
X129794000Y-70866000D03*
X132334000Y-70866000D03*
X134874000Y-70866000D03*
X137414000Y-70866000D03*
X139954000Y-70866000D03*
X142494000Y-70866000D03*
X145034000Y-70866000D03*
X149098000Y-70866000D03*
X151638000Y-70866000D03*
X154178000Y-70866000D03*
X156718000Y-70866000D03*
X159258000Y-70866000D03*
X161798000Y-70866000D03*
X164338000Y-70866000D03*
X166878000Y-70866000D03*
X171958000Y-70866000D03*
X174498000Y-70866000D03*
X177038000Y-70866000D03*
X179578000Y-70866000D03*
X182118000Y-70866000D03*
X184658000Y-70866000D03*
X187198000Y-70866000D03*
X189738000Y-70866000D03*
D15*
X189992000Y-99314000D03*
D16*
X189992000Y-101854000D03*
X189992000Y-104394000D03*
X189992000Y-106934000D03*
D17*
X192152000Y-104394000D03*
D18*
X106976000Y-105045000D03*
X106976000Y-80845000D03*
D19*
X144272000Y-95504000D03*
X147574000Y-95504000D03*
D20*
X125603000Y-91567000D03*
X125603000Y-88265000D03*
D19*
X161417000Y-78359000D03*
X158115000Y-78359000D03*
D20*
X179832000Y-106426000D03*
X179832000Y-109728000D03*
X182499000Y-99695000D03*
X182499000Y-102997000D03*
M02*
