M48
;DRILL file {KiCad 4.0.6} date 11/29/17 13:30:56
;FORMAT={-:-/ absolute / inch / decimal}
FMAT,2
INCH,TZ
T1C0.015
T2C0.040
T3C0.040
%
G90
G05
M72
T1
X4.345Y-3.22
X4.405Y-4.095
X4.815Y-3.34
X5.05Y-3.45
X5.05Y-3.63
X5.065Y-3.73
X5.285Y-3.54
X5.37Y-3.655
X5.5Y-3.675
X5.53Y-3.615
X5.535Y-2.94
X5.545Y-4.3
X5.61Y-3.11
X5.61Y-3.18
X5.65Y-3.88
X5.665Y-3.635
X5.67Y-3.085
X5.71Y-3.195
X5.735Y-3.835
X5.76Y-3.68
X5.865Y-3.67
X5.89Y-3.53
X5.915Y-3.31
X5.955Y-3.67
X5.96Y-3.54
X5.98Y-3.76
X6.055Y-3.19
X6.115Y-3.085
X6.12Y-4.115
X6.14Y-3.395
X6.155Y-2.925
X6.205Y-3.33
X6.305Y-3.375
X6.34Y-4.31
X6.36Y-3.33
X6.4Y-3.45
X6.455Y-4.36
X6.465Y-3.085
X6.545Y-3.35
X6.59Y-3.58
X6.59Y-4.225
X6.665Y-3.185
X6.685Y-3.6
X6.74Y-3.175
X6.74Y-3.445
X6.79Y-3.6
X6.84Y-3.14
X6.85Y-4.345
X6.88Y-2.975
X6.945Y-3.965
X7.05Y-3.55
X7.05Y-4.1
X7.07Y-3.905
X7.185Y-3.84
X7.185Y-4.12
X7.27Y-3.24
X7.275Y-4.28
X7.275Y-4.355
X7.295Y-4.01
X7.405Y-3.245
T2
X4.81Y-2.79
X4.91Y-2.79
X5.01Y-2.79
X5.11Y-2.79
X5.17Y-4.69
X5.21Y-2.79
X5.27Y-4.69
X5.31Y-2.79
X5.37Y-4.69
X5.41Y-2.79
X5.47Y-4.69
X5.51Y-2.79
X5.57Y-4.69
X5.61Y-2.79
X5.67Y-4.69
X5.71Y-2.79
X5.77Y-4.69
X5.87Y-2.79
X5.87Y-4.69
X5.97Y-2.79
X6.07Y-2.79
X6.07Y-4.69
X6.17Y-2.79
X6.17Y-4.69
X6.27Y-2.79
X6.27Y-4.69
X6.37Y-2.79
X6.37Y-4.69
X6.47Y-2.79
X6.47Y-4.69
X6.57Y-2.79
X6.57Y-4.69
X6.67Y-4.69
X6.77Y-2.79
X6.77Y-4.69
X6.87Y-2.79
X6.97Y-2.79
X6.97Y-4.69
X7.07Y-2.79
X7.07Y-4.69
X7.17Y-2.79
X7.17Y-4.69
X7.27Y-2.79
X7.27Y-4.69
X7.37Y-2.79
X7.37Y-4.69
X7.47Y-2.79
X7.47Y-4.69
X7.57Y-4.69
X7.67Y-4.69
X7.77Y-2.79
X7.77Y-2.89
X7.77Y-2.99
X7.77Y-3.09
X7.77Y-3.19
X7.77Y-3.29
X7.77Y-3.39
X7.77Y-3.49
X7.77Y-3.59
X7.77Y-3.69
X7.77Y-3.79
X7.77Y-3.89
X7.77Y-3.99
X7.77Y-4.09
X7.77Y-4.19
X7.77Y-4.29
X7.77Y-4.39
X7.77Y-4.49
X7.87Y-2.79
X7.87Y-2.89
X7.87Y-2.99
X7.87Y-3.09
X7.87Y-3.19
X7.87Y-3.29
X7.87Y-3.39
X7.87Y-3.49
X7.87Y-3.59
X7.87Y-3.69
X7.87Y-3.79
X7.87Y-3.89
X7.87Y-3.99
X7.87Y-4.09
X7.87Y-4.19
X7.87Y-4.29
X7.87Y-4.39
X7.87Y-4.49
T3
X7.48Y-3.91
X7.48Y-4.01
X7.48Y-4.11
X7.48Y-4.21
T0
M30
