G04 #@! TF.FileFunction,Soldermask,Top*
%FSLAX46Y46*%
G04 Gerber Fmt 4.6, Leading zero omitted, Abs format (unit mm)*
G04 Created by KiCad (PCBNEW 4.0.6) date 11/29/17 13:30:51*
%MOMM*%
%LPD*%
G01*
G04 APERTURE LIST*
%ADD10C,0.100000*%
%ADD11C,0.300000*%
%ADD12C,1.727200*%
%ADD13O,1.727200X1.727200*%
%ADD14O,1.727200X2.032000*%
%ADD15R,1.060000X0.650000*%
%ADD16R,0.508000X1.143000*%
%ADD17R,2.030000X1.730000*%
%ADD18O,2.030000X1.730000*%
%ADD19C,1.100000*%
%ADD20R,2.032000X1.524000*%
%ADD21R,1.524000X2.032000*%
%ADD22R,1.500000X1.000000*%
%ADD23R,2.200000X1.200000*%
%ADD24C,1.500000*%
%ADD25R,1.143000X0.508000*%
%ADD26R,0.650000X1.060000*%
G04 APERTURE END LIST*
D10*
D11*
X226417143Y-71793571D02*
X226417143Y-70293571D01*
X228202857Y-70222143D02*
X226917143Y-72150714D01*
X228988572Y-70293571D02*
X229274286Y-70293571D01*
X229417144Y-70365000D01*
X229560001Y-70507857D01*
X229631429Y-70793571D01*
X229631429Y-71293571D01*
X229560001Y-71579286D01*
X229417144Y-71722143D01*
X229274286Y-71793571D01*
X228988572Y-71793571D01*
X228845715Y-71722143D01*
X228702858Y-71579286D01*
X228631429Y-71293571D01*
X228631429Y-70793571D01*
X228702858Y-70507857D01*
X228845715Y-70365000D01*
X228988572Y-70293571D01*
X231917144Y-71007857D02*
X232131430Y-71079286D01*
X232202858Y-71150714D01*
X232274287Y-71293571D01*
X232274287Y-71507857D01*
X232202858Y-71650714D01*
X232131430Y-71722143D01*
X231988572Y-71793571D01*
X231417144Y-71793571D01*
X231417144Y-70293571D01*
X231917144Y-70293571D01*
X232060001Y-70365000D01*
X232131430Y-70436429D01*
X232202858Y-70579286D01*
X232202858Y-70722143D01*
X232131430Y-70865000D01*
X232060001Y-70936429D01*
X231917144Y-71007857D01*
X231417144Y-71007857D01*
X233131430Y-71793571D02*
X232988572Y-71722143D01*
X232917144Y-71650714D01*
X232845715Y-71507857D01*
X232845715Y-71079286D01*
X232917144Y-70936429D01*
X232988572Y-70865000D01*
X233131430Y-70793571D01*
X233345715Y-70793571D01*
X233488572Y-70865000D01*
X233560001Y-70936429D01*
X233631430Y-71079286D01*
X233631430Y-71507857D01*
X233560001Y-71650714D01*
X233488572Y-71722143D01*
X233345715Y-71793571D01*
X233131430Y-71793571D01*
X234917144Y-71793571D02*
X234917144Y-71007857D01*
X234845715Y-70865000D01*
X234702858Y-70793571D01*
X234417144Y-70793571D01*
X234274287Y-70865000D01*
X234917144Y-71722143D02*
X234774287Y-71793571D01*
X234417144Y-71793571D01*
X234274287Y-71722143D01*
X234202858Y-71579286D01*
X234202858Y-71436429D01*
X234274287Y-71293571D01*
X234417144Y-71222143D01*
X234774287Y-71222143D01*
X234917144Y-71150714D01*
X235631430Y-71793571D02*
X235631430Y-70793571D01*
X235631430Y-71079286D02*
X235702858Y-70936429D01*
X235774287Y-70865000D01*
X235917144Y-70793571D01*
X236060001Y-70793571D01*
X237202858Y-71793571D02*
X237202858Y-70293571D01*
X237202858Y-71722143D02*
X237060001Y-71793571D01*
X236774287Y-71793571D01*
X236631429Y-71722143D01*
X236560001Y-71650714D01*
X236488572Y-71507857D01*
X236488572Y-71079286D01*
X236560001Y-70936429D01*
X236631429Y-70865000D01*
X236774287Y-70793571D01*
X237060001Y-70793571D01*
X237202858Y-70865000D01*
X239917144Y-71793571D02*
X239417144Y-71079286D01*
X239060001Y-71793571D02*
X239060001Y-70293571D01*
X239631429Y-70293571D01*
X239774287Y-70365000D01*
X239845715Y-70436429D01*
X239917144Y-70579286D01*
X239917144Y-70793571D01*
X239845715Y-70936429D01*
X239774287Y-71007857D01*
X239631429Y-71079286D01*
X239060001Y-71079286D01*
X241131429Y-71722143D02*
X240988572Y-71793571D01*
X240702858Y-71793571D01*
X240560001Y-71722143D01*
X240488572Y-71579286D01*
X240488572Y-71007857D01*
X240560001Y-70865000D01*
X240702858Y-70793571D01*
X240988572Y-70793571D01*
X241131429Y-70865000D01*
X241202858Y-71007857D01*
X241202858Y-71150714D01*
X240488572Y-71293571D01*
X241702858Y-70793571D02*
X242060001Y-71793571D01*
X242417143Y-70793571D01*
X244917143Y-71793571D02*
X244060000Y-71793571D01*
X244488572Y-71793571D02*
X244488572Y-70293571D01*
X244345715Y-70507857D01*
X244202857Y-70650714D01*
X244060000Y-70722143D01*
X245560000Y-71650714D02*
X245631428Y-71722143D01*
X245560000Y-71793571D01*
X245488571Y-71722143D01*
X245560000Y-71650714D01*
X245560000Y-71793571D01*
X246560000Y-70293571D02*
X246702857Y-70293571D01*
X246845714Y-70365000D01*
X246917143Y-70436429D01*
X246988572Y-70579286D01*
X247060000Y-70865000D01*
X247060000Y-71222143D01*
X246988572Y-71507857D01*
X246917143Y-71650714D01*
X246845714Y-71722143D01*
X246702857Y-71793571D01*
X246560000Y-71793571D01*
X246417143Y-71722143D01*
X246345714Y-71650714D01*
X246274286Y-71507857D01*
X246202857Y-71222143D01*
X246202857Y-70865000D01*
X246274286Y-70579286D01*
X246345714Y-70436429D01*
X246417143Y-70365000D01*
X246560000Y-70293571D01*
X226917143Y-73557857D02*
X226417143Y-73557857D01*
X226417143Y-74343571D02*
X226417143Y-72843571D01*
X227131429Y-72843571D01*
X227702857Y-74343571D02*
X227702857Y-73343571D01*
X227702857Y-73629286D02*
X227774285Y-73486429D01*
X227845714Y-73415000D01*
X227988571Y-73343571D01*
X228131428Y-73343571D01*
X228845714Y-74343571D02*
X228702856Y-74272143D01*
X228631428Y-74200714D01*
X228559999Y-74057857D01*
X228559999Y-73629286D01*
X228631428Y-73486429D01*
X228702856Y-73415000D01*
X228845714Y-73343571D01*
X229059999Y-73343571D01*
X229202856Y-73415000D01*
X229274285Y-73486429D01*
X229345714Y-73629286D01*
X229345714Y-74057857D01*
X229274285Y-74200714D01*
X229202856Y-74272143D01*
X229059999Y-74343571D01*
X228845714Y-74343571D01*
X229988571Y-73343571D02*
X229988571Y-74343571D01*
X229988571Y-73486429D02*
X230059999Y-73415000D01*
X230202857Y-73343571D01*
X230417142Y-73343571D01*
X230559999Y-73415000D01*
X230631428Y-73557857D01*
X230631428Y-74343571D01*
X231131428Y-73343571D02*
X231702857Y-73343571D01*
X231345714Y-72843571D02*
X231345714Y-74129286D01*
X231417142Y-74272143D01*
X231560000Y-74343571D01*
X231702857Y-74343571D01*
X233274285Y-74272143D02*
X233488571Y-74343571D01*
X233845714Y-74343571D01*
X233988571Y-74272143D01*
X234060000Y-74200714D01*
X234131428Y-74057857D01*
X234131428Y-73915000D01*
X234060000Y-73772143D01*
X233988571Y-73700714D01*
X233845714Y-73629286D01*
X233560000Y-73557857D01*
X233417142Y-73486429D01*
X233345714Y-73415000D01*
X233274285Y-73272143D01*
X233274285Y-73129286D01*
X233345714Y-72986429D01*
X233417142Y-72915000D01*
X233560000Y-72843571D01*
X233917142Y-72843571D01*
X234131428Y-72915000D01*
X234774285Y-74343571D02*
X234774285Y-73343571D01*
X234774285Y-72843571D02*
X234702856Y-72915000D01*
X234774285Y-72986429D01*
X234845713Y-72915000D01*
X234774285Y-72843571D01*
X234774285Y-72986429D01*
X236131428Y-74343571D02*
X236131428Y-72843571D01*
X236131428Y-74272143D02*
X235988571Y-74343571D01*
X235702857Y-74343571D01*
X235559999Y-74272143D01*
X235488571Y-74200714D01*
X235417142Y-74057857D01*
X235417142Y-73629286D01*
X235488571Y-73486429D01*
X235559999Y-73415000D01*
X235702857Y-73343571D01*
X235988571Y-73343571D01*
X236131428Y-73415000D01*
X237417142Y-74272143D02*
X237274285Y-74343571D01*
X236988571Y-74343571D01*
X236845714Y-74272143D01*
X236774285Y-74129286D01*
X236774285Y-73557857D01*
X236845714Y-73415000D01*
X236988571Y-73343571D01*
X237274285Y-73343571D01*
X237417142Y-73415000D01*
X237488571Y-73557857D01*
X237488571Y-73700714D01*
X236774285Y-73843571D01*
X239202856Y-74272143D02*
X239417142Y-74343571D01*
X239774285Y-74343571D01*
X239917142Y-74272143D01*
X239988571Y-74200714D01*
X240059999Y-74057857D01*
X240059999Y-73915000D01*
X239988571Y-73772143D01*
X239917142Y-73700714D01*
X239774285Y-73629286D01*
X239488571Y-73557857D01*
X239345713Y-73486429D01*
X239274285Y-73415000D01*
X239202856Y-73272143D01*
X239202856Y-73129286D01*
X239274285Y-72986429D01*
X239345713Y-72915000D01*
X239488571Y-72843571D01*
X239845713Y-72843571D01*
X240059999Y-72915000D01*
X240917142Y-74343571D02*
X240774284Y-74272143D01*
X240702856Y-74200714D01*
X240631427Y-74057857D01*
X240631427Y-73629286D01*
X240702856Y-73486429D01*
X240774284Y-73415000D01*
X240917142Y-73343571D01*
X241131427Y-73343571D01*
X241274284Y-73415000D01*
X241345713Y-73486429D01*
X241417142Y-73629286D01*
X241417142Y-74057857D01*
X241345713Y-74200714D01*
X241274284Y-74272143D01*
X241131427Y-74343571D01*
X240917142Y-74343571D01*
X242274285Y-74343571D02*
X242131427Y-74272143D01*
X242059999Y-74129286D01*
X242059999Y-72843571D01*
X243488570Y-74343571D02*
X243488570Y-72843571D01*
X243488570Y-74272143D02*
X243345713Y-74343571D01*
X243059999Y-74343571D01*
X242917141Y-74272143D01*
X242845713Y-74200714D01*
X242774284Y-74057857D01*
X242774284Y-73629286D01*
X242845713Y-73486429D01*
X242917141Y-73415000D01*
X243059999Y-73343571D01*
X243345713Y-73343571D01*
X243488570Y-73415000D01*
X244774284Y-74272143D02*
X244631427Y-74343571D01*
X244345713Y-74343571D01*
X244202856Y-74272143D01*
X244131427Y-74129286D01*
X244131427Y-73557857D01*
X244202856Y-73415000D01*
X244345713Y-73343571D01*
X244631427Y-73343571D01*
X244774284Y-73415000D01*
X244845713Y-73557857D01*
X244845713Y-73700714D01*
X244131427Y-73843571D01*
X245488570Y-74343571D02*
X245488570Y-73343571D01*
X245488570Y-73629286D02*
X245559998Y-73486429D01*
X245631427Y-73415000D01*
X245774284Y-73343571D01*
X245917141Y-73343571D01*
X247559998Y-74343571D02*
X247559998Y-72843571D01*
X248059998Y-73915000D01*
X248559998Y-72843571D01*
X248559998Y-74343571D01*
X249917141Y-74343571D02*
X249917141Y-73557857D01*
X249845712Y-73415000D01*
X249702855Y-73343571D01*
X249417141Y-73343571D01*
X249274284Y-73415000D01*
X249917141Y-74272143D02*
X249774284Y-74343571D01*
X249417141Y-74343571D01*
X249274284Y-74272143D01*
X249202855Y-74129286D01*
X249202855Y-73986429D01*
X249274284Y-73843571D01*
X249417141Y-73772143D01*
X249774284Y-73772143D01*
X249917141Y-73700714D01*
X250559998Y-74272143D02*
X250702855Y-74343571D01*
X250988570Y-74343571D01*
X251131427Y-74272143D01*
X251202855Y-74129286D01*
X251202855Y-74057857D01*
X251131427Y-73915000D01*
X250988570Y-73843571D01*
X250774284Y-73843571D01*
X250631427Y-73772143D01*
X250559998Y-73629286D01*
X250559998Y-73557857D01*
X250631427Y-73415000D01*
X250774284Y-73343571D01*
X250988570Y-73343571D01*
X251131427Y-73415000D01*
X251845713Y-74343571D02*
X251845713Y-72843571D01*
X251988570Y-73772143D02*
X252417141Y-74343571D01*
X252417141Y-73343571D02*
X251845713Y-73915000D01*
D12*
X197358000Y-114046000D03*
D13*
X199898000Y-114046000D03*
X197358000Y-111506000D03*
X199898000Y-111506000D03*
X197358000Y-108966000D03*
X199898000Y-108966000D03*
X197358000Y-106426000D03*
X199898000Y-106426000D03*
X197358000Y-103886000D03*
X199898000Y-103886000D03*
X197358000Y-101346000D03*
X199898000Y-101346000D03*
X197358000Y-98806000D03*
X199898000Y-98806000D03*
X197358000Y-96266000D03*
X199898000Y-96266000D03*
X197358000Y-93726000D03*
X199898000Y-93726000D03*
X197358000Y-91186000D03*
X199898000Y-91186000D03*
X197358000Y-88646000D03*
X199898000Y-88646000D03*
X197358000Y-86106000D03*
X199898000Y-86106000D03*
X197358000Y-83566000D03*
X199898000Y-83566000D03*
X197358000Y-81026000D03*
X199898000Y-81026000D03*
X197358000Y-78486000D03*
X199898000Y-78486000D03*
X197358000Y-75946000D03*
X199898000Y-75946000D03*
X197358000Y-73406000D03*
X199898000Y-73406000D03*
X197358000Y-70866000D03*
X199898000Y-70866000D03*
D14*
X131318000Y-119126000D03*
X133858000Y-119126000D03*
X136398000Y-119126000D03*
X138938000Y-119126000D03*
X141478000Y-119126000D03*
X144018000Y-119126000D03*
X146558000Y-119126000D03*
X149098000Y-119126000D03*
X154178000Y-119126000D03*
X156718000Y-119126000D03*
X159258000Y-119126000D03*
X161798000Y-119126000D03*
X164338000Y-119126000D03*
X166878000Y-119126000D03*
X169418000Y-119126000D03*
X171958000Y-119126000D03*
X177038000Y-119126000D03*
X179578000Y-119126000D03*
X182118000Y-119126000D03*
X184658000Y-119126000D03*
X187198000Y-119126000D03*
X189738000Y-119126000D03*
X192278000Y-119126000D03*
X194818000Y-119126000D03*
X122174000Y-70866000D03*
X124714000Y-70866000D03*
X127254000Y-70866000D03*
X129794000Y-70866000D03*
X132334000Y-70866000D03*
X134874000Y-70866000D03*
X137414000Y-70866000D03*
X139954000Y-70866000D03*
X142494000Y-70866000D03*
X145034000Y-70866000D03*
X149098000Y-70866000D03*
X151638000Y-70866000D03*
X154178000Y-70866000D03*
X156718000Y-70866000D03*
X159258000Y-70866000D03*
X161798000Y-70866000D03*
X164338000Y-70866000D03*
X166878000Y-70866000D03*
X171958000Y-70866000D03*
X174498000Y-70866000D03*
X177038000Y-70866000D03*
X179578000Y-70866000D03*
X182118000Y-70866000D03*
X184658000Y-70866000D03*
X187198000Y-70866000D03*
X189738000Y-70866000D03*
D15*
X150071000Y-96581000D03*
X150071000Y-95631000D03*
X150071000Y-94681000D03*
X147871000Y-94681000D03*
X147871000Y-96581000D03*
X147871000Y-95631000D03*
D16*
X139954000Y-76581000D03*
X142494000Y-76581000D03*
X143764000Y-76581000D03*
X145034000Y-76581000D03*
X146304000Y-76581000D03*
X147574000Y-76581000D03*
X148844000Y-76581000D03*
X148844000Y-82931000D03*
X147574000Y-82931000D03*
X146304000Y-82931000D03*
X145034000Y-82931000D03*
X143764000Y-82931000D03*
X142494000Y-82931000D03*
X141224000Y-82931000D03*
X139954000Y-82931000D03*
X141224000Y-76581000D03*
X169926000Y-89408000D03*
X171196000Y-89408000D03*
X172466000Y-89408000D03*
X173736000Y-89408000D03*
X175006000Y-89408000D03*
X176276000Y-89408000D03*
X177546000Y-89408000D03*
X177546000Y-83058000D03*
X176276000Y-83058000D03*
X173736000Y-83058000D03*
X172466000Y-83058000D03*
X171196000Y-83058000D03*
X169926000Y-83058000D03*
X175006000Y-83058000D03*
X154432000Y-89281000D03*
X155702000Y-89281000D03*
X156972000Y-89281000D03*
X158242000Y-89281000D03*
X159512000Y-89281000D03*
X160782000Y-89281000D03*
X162052000Y-89281000D03*
X162052000Y-82931000D03*
X160782000Y-82931000D03*
X158242000Y-82931000D03*
X156972000Y-82931000D03*
X155702000Y-82931000D03*
X154432000Y-82931000D03*
X159512000Y-82931000D03*
D17*
X189992000Y-99314000D03*
D18*
X189992000Y-101854000D03*
X189992000Y-104394000D03*
X189992000Y-106934000D03*
D19*
X192152000Y-104394000D03*
D20*
X147193000Y-89535000D03*
X147193000Y-86233000D03*
D21*
X139192000Y-86614000D03*
X135890000Y-86614000D03*
D20*
X184658000Y-76327000D03*
X184658000Y-79629000D03*
X181356000Y-76327000D03*
X181356000Y-79629000D03*
X154686000Y-95758000D03*
X154686000Y-92456000D03*
X162052000Y-76708000D03*
X162052000Y-80010000D03*
X188087000Y-76200000D03*
X188087000Y-79502000D03*
X159004000Y-95758000D03*
X159004000Y-92456000D03*
X142875000Y-86360000D03*
X142875000Y-89662000D03*
X177038000Y-76454000D03*
X177038000Y-79756000D03*
X157480000Y-76708000D03*
X157480000Y-80010000D03*
D22*
X131276000Y-99815000D03*
X131276000Y-97315000D03*
X131276000Y-94015000D03*
X131276000Y-92315000D03*
X131276000Y-89815000D03*
X131276000Y-87315000D03*
X131276000Y-84895000D03*
X131276000Y-83195000D03*
X131276000Y-102315000D03*
X131276000Y-95665000D03*
X131276000Y-79845000D03*
D23*
X110276000Y-107345000D03*
X109076000Y-79345000D03*
D24*
X106976000Y-105045000D03*
X106976000Y-80845000D03*
D21*
X138049000Y-95631000D03*
X134747000Y-95631000D03*
D20*
X152527000Y-103505000D03*
X152527000Y-100203000D03*
D15*
X143848000Y-96581000D03*
X143848000Y-95631000D03*
X143848000Y-94681000D03*
X141648000Y-94681000D03*
X141648000Y-96581000D03*
X141648000Y-95631000D03*
D25*
X182880000Y-106045000D03*
X182880000Y-107315000D03*
X182880000Y-108585000D03*
X182880000Y-109855000D03*
X176530000Y-109855000D03*
X176530000Y-108585000D03*
X176530000Y-107315000D03*
X176530000Y-106045000D03*
D26*
X181422000Y-102700000D03*
X182372000Y-102700000D03*
X183322000Y-102700000D03*
X183322000Y-100500000D03*
X181422000Y-100500000D03*
X182372000Y-100500000D03*
M02*
