G04 #@! TF.GenerationSoftware,KiCad,Pcbnew,(5.1.10)-1*
G04 #@! TF.CreationDate,2021-05-21T10:06:19-04:00*
G04 #@! TF.ProjectId,IO Board,494f2042-6f61-4726-942e-6b696361645f,1.4*
G04 #@! TF.SameCoordinates,Original*
G04 #@! TF.FileFunction,Legend,Top*
G04 #@! TF.FilePolarity,Positive*
%FSLAX46Y46*%
G04 Gerber Fmt 4.6, Leading zero omitted, Abs format (unit mm)*
G04 Created by KiCad (PCBNEW (5.1.10)-1) date 2021-05-21 10:06:19*
%MOMM*%
%LPD*%
G01*
G04 APERTURE LIST*
%ADD10C,0.100000*%
%ADD11C,0.150000*%
%ADD12C,0.300000*%
%ADD13C,0.400000*%
%ADD14C,0.120000*%
%ADD15C,1.600000*%
%ADD16R,1.600000X1.600000*%
%ADD17R,1.900000X0.800000*%
%ADD18R,1.700000X1.700000*%
%ADD19O,1.700000X1.700000*%
%ADD20R,1.000000X3.000000*%
%ADD21R,1.560000X0.650000*%
G04 APERTURE END LIST*
D10*
D11*
X159400000Y-171900000D02*
X159400000Y-203900000D01*
X267400000Y-203900000D01*
X267400000Y-171900000D01*
X159400000Y-171900000D01*
D10*
D11*
X10000000Y-10000000D02*
X10000000Y-205900000D01*
X269400000Y-205900000D01*
X269400000Y-10000000D01*
X10000000Y-10000000D01*
D10*
D11*
X12000000Y-12000000D02*
X12000000Y-203900000D01*
X267400000Y-203900000D01*
X267400000Y-12000000D01*
X12000000Y-12000000D01*
D10*
D11*
X60000000Y-12000000D02*
X60000000Y-10000000D01*
D10*
D11*
X110000000Y-12000000D02*
X110000000Y-10000000D01*
D10*
D11*
X160000000Y-12000000D02*
X160000000Y-10000000D01*
D10*
D11*
X210000000Y-12000000D02*
X210000000Y-10000000D01*
D10*
D11*
X260000000Y-12000000D02*
X260000000Y-10000000D01*
D10*
D11*
X36065476Y-11588095D02*
X35322619Y-11588095D01*
X35694047Y-11588095D02*
X35694047Y-10288095D01*
X35570238Y-10473809D01*
X35446428Y-10597619D01*
X35322619Y-10659523D01*
D10*
D11*
X85322619Y-10411904D02*
X85384523Y-10350000D01*
X85508333Y-10288095D01*
X85817857Y-10288095D01*
X85941666Y-10350000D01*
X86003571Y-10411904D01*
X86065476Y-10535714D01*
X86065476Y-10659523D01*
X86003571Y-10845238D01*
X85260714Y-11588095D01*
X86065476Y-11588095D01*
D10*
D11*
X135260714Y-10288095D02*
X136065476Y-10288095D01*
X135632142Y-10783333D01*
X135817857Y-10783333D01*
X135941666Y-10845238D01*
X136003571Y-10907142D01*
X136065476Y-11030952D01*
X136065476Y-11340476D01*
X136003571Y-11464285D01*
X135941666Y-11526190D01*
X135817857Y-11588095D01*
X135446428Y-11588095D01*
X135322619Y-11526190D01*
X135260714Y-11464285D01*
D10*
D11*
X185941666Y-10721428D02*
X185941666Y-11588095D01*
X185632142Y-10226190D02*
X185322619Y-11154761D01*
X186127380Y-11154761D01*
D10*
D11*
X236003571Y-10288095D02*
X235384523Y-10288095D01*
X235322619Y-10907142D01*
X235384523Y-10845238D01*
X235508333Y-10783333D01*
X235817857Y-10783333D01*
X235941666Y-10845238D01*
X236003571Y-10907142D01*
X236065476Y-11030952D01*
X236065476Y-11340476D01*
X236003571Y-11464285D01*
X235941666Y-11526190D01*
X235817857Y-11588095D01*
X235508333Y-11588095D01*
X235384523Y-11526190D01*
X235322619Y-11464285D01*
D10*
D11*
X60000000Y-203900000D02*
X60000000Y-205900000D01*
D10*
D11*
X110000000Y-203900000D02*
X110000000Y-205900000D01*
D10*
D11*
X160000000Y-203900000D02*
X160000000Y-205900000D01*
D10*
D11*
X210000000Y-203900000D02*
X210000000Y-205900000D01*
D10*
D11*
X260000000Y-203900000D02*
X260000000Y-205900000D01*
D10*
D11*
X36065476Y-205488095D02*
X35322619Y-205488095D01*
X35694047Y-205488095D02*
X35694047Y-204188095D01*
X35570238Y-204373809D01*
X35446428Y-204497619D01*
X35322619Y-204559523D01*
D10*
D11*
X85322619Y-204311904D02*
X85384523Y-204250000D01*
X85508333Y-204188095D01*
X85817857Y-204188095D01*
X85941666Y-204250000D01*
X86003571Y-204311904D01*
X86065476Y-204435714D01*
X86065476Y-204559523D01*
X86003571Y-204745238D01*
X85260714Y-205488095D01*
X86065476Y-205488095D01*
D10*
D11*
X135260714Y-204188095D02*
X136065476Y-204188095D01*
X135632142Y-204683333D01*
X135817857Y-204683333D01*
X135941666Y-204745238D01*
X136003571Y-204807142D01*
X136065476Y-204930952D01*
X136065476Y-205240476D01*
X136003571Y-205364285D01*
X135941666Y-205426190D01*
X135817857Y-205488095D01*
X135446428Y-205488095D01*
X135322619Y-205426190D01*
X135260714Y-205364285D01*
D10*
D11*
X185941666Y-204621428D02*
X185941666Y-205488095D01*
X185632142Y-204126190D02*
X185322619Y-205054761D01*
X186127380Y-205054761D01*
D10*
D11*
X236003571Y-204188095D02*
X235384523Y-204188095D01*
X235322619Y-204807142D01*
X235384523Y-204745238D01*
X235508333Y-204683333D01*
X235817857Y-204683333D01*
X235941666Y-204745238D01*
X236003571Y-204807142D01*
X236065476Y-204930952D01*
X236065476Y-205240476D01*
X236003571Y-205364285D01*
X235941666Y-205426190D01*
X235817857Y-205488095D01*
X235508333Y-205488095D01*
X235384523Y-205426190D01*
X235322619Y-205364285D01*
D10*
D11*
X10000000Y-60000000D02*
X12000000Y-60000000D01*
D10*
D11*
X10000000Y-110000000D02*
X12000000Y-110000000D01*
D10*
D11*
X10000000Y-160000000D02*
X12000000Y-160000000D01*
D10*
D11*
X10690476Y-35216666D02*
X11309523Y-35216666D01*
X10566666Y-35588095D02*
X11000000Y-34288095D01*
X11433333Y-35588095D01*
D10*
D11*
X11092857Y-84907142D02*
X11278571Y-84969047D01*
X11340476Y-85030952D01*
X11402380Y-85154761D01*
X11402380Y-85340476D01*
X11340476Y-85464285D01*
X11278571Y-85526190D01*
X11154761Y-85588095D01*
X10659523Y-85588095D01*
X10659523Y-84288095D01*
X11092857Y-84288095D01*
X11216666Y-84350000D01*
X11278571Y-84411904D01*
X11340476Y-84535714D01*
X11340476Y-84659523D01*
X11278571Y-84783333D01*
X11216666Y-84845238D01*
X11092857Y-84907142D01*
X10659523Y-84907142D01*
D10*
D11*
X11402380Y-135464285D02*
X11340476Y-135526190D01*
X11154761Y-135588095D01*
X11030952Y-135588095D01*
X10845238Y-135526190D01*
X10721428Y-135402380D01*
X10659523Y-135278571D01*
X10597619Y-135030952D01*
X10597619Y-134845238D01*
X10659523Y-134597619D01*
X10721428Y-134473809D01*
X10845238Y-134350000D01*
X11030952Y-134288095D01*
X11154761Y-134288095D01*
X11340476Y-134350000D01*
X11402380Y-134411904D01*
D10*
D11*
X10659523Y-185588095D02*
X10659523Y-184288095D01*
X10969047Y-184288095D01*
X11154761Y-184350000D01*
X11278571Y-184473809D01*
X11340476Y-184597619D01*
X11402380Y-184845238D01*
X11402380Y-185030952D01*
X11340476Y-185278571D01*
X11278571Y-185402380D01*
X11154761Y-185526190D01*
X10969047Y-185588095D01*
X10659523Y-185588095D01*
D10*
D11*
X269400000Y-60000000D02*
X267400000Y-60000000D01*
D10*
D11*
X269400000Y-110000000D02*
X267400000Y-110000000D01*
D10*
D11*
X269400000Y-160000000D02*
X267400000Y-160000000D01*
D10*
D11*
X268090476Y-35216666D02*
X268709523Y-35216666D01*
X267966666Y-35588095D02*
X268400000Y-34288095D01*
X268833333Y-35588095D01*
D10*
D11*
X268492857Y-84907142D02*
X268678571Y-84969047D01*
X268740476Y-85030952D01*
X268802380Y-85154761D01*
X268802380Y-85340476D01*
X268740476Y-85464285D01*
X268678571Y-85526190D01*
X268554761Y-85588095D01*
X268059523Y-85588095D01*
X268059523Y-84288095D01*
X268492857Y-84288095D01*
X268616666Y-84350000D01*
X268678571Y-84411904D01*
X268740476Y-84535714D01*
X268740476Y-84659523D01*
X268678571Y-84783333D01*
X268616666Y-84845238D01*
X268492857Y-84907142D01*
X268059523Y-84907142D01*
D10*
D11*
X268802380Y-135464285D02*
X268740476Y-135526190D01*
X268554761Y-135588095D01*
X268430952Y-135588095D01*
X268245238Y-135526190D01*
X268121428Y-135402380D01*
X268059523Y-135278571D01*
X267997619Y-135030952D01*
X267997619Y-134845238D01*
X268059523Y-134597619D01*
X268121428Y-134473809D01*
X268245238Y-134350000D01*
X268430952Y-134288095D01*
X268554761Y-134288095D01*
X268740476Y-134350000D01*
X268802380Y-134411904D01*
D10*
D11*
X268059523Y-185588095D02*
X268059523Y-184288095D01*
X268369047Y-184288095D01*
X268554761Y-184350000D01*
X268678571Y-184473809D01*
X268740476Y-184597619D01*
X268802380Y-184845238D01*
X268802380Y-185030952D01*
X268740476Y-185278571D01*
X268678571Y-185402380D01*
X268554761Y-185526190D01*
X268369047Y-185588095D01*
X268059523Y-185588095D01*
D10*
D11*
X182832142Y-199678571D02*
X182832142Y-198178571D01*
X183189285Y-198178571D01*
X183403571Y-198250000D01*
X183546428Y-198392857D01*
X183617857Y-198535714D01*
X183689285Y-198821428D01*
X183689285Y-199035714D01*
X183617857Y-199321428D01*
X183546428Y-199464285D01*
X183403571Y-199607142D01*
X183189285Y-199678571D01*
X182832142Y-199678571D01*
X184975000Y-199678571D02*
X184975000Y-198892857D01*
X184903571Y-198750000D01*
X184760714Y-198678571D01*
X184475000Y-198678571D01*
X184332142Y-198750000D01*
X184975000Y-199607142D02*
X184832142Y-199678571D01*
X184475000Y-199678571D01*
X184332142Y-199607142D01*
X184260714Y-199464285D01*
X184260714Y-199321428D01*
X184332142Y-199178571D01*
X184475000Y-199107142D01*
X184832142Y-199107142D01*
X184975000Y-199035714D01*
X185475000Y-198678571D02*
X186046428Y-198678571D01*
X185689285Y-198178571D02*
X185689285Y-199464285D01*
X185760714Y-199607142D01*
X185903571Y-199678571D01*
X186046428Y-199678571D01*
X187117857Y-199607142D02*
X186975000Y-199678571D01*
X186689285Y-199678571D01*
X186546428Y-199607142D01*
X186475000Y-199464285D01*
X186475000Y-198892857D01*
X186546428Y-198750000D01*
X186689285Y-198678571D01*
X186975000Y-198678571D01*
X187117857Y-198750000D01*
X187189285Y-198892857D01*
X187189285Y-199035714D01*
X186475000Y-199178571D01*
X187832142Y-199535714D02*
X187903571Y-199607142D01*
X187832142Y-199678571D01*
X187760714Y-199607142D01*
X187832142Y-199535714D01*
X187832142Y-199678571D01*
X187832142Y-198750000D02*
X187903571Y-198821428D01*
X187832142Y-198892857D01*
X187760714Y-198821428D01*
X187832142Y-198750000D01*
X187832142Y-198892857D01*
X189617857Y-198321428D02*
X189689285Y-198250000D01*
X189832142Y-198178571D01*
X190189285Y-198178571D01*
X190332142Y-198250000D01*
X190403571Y-198321428D01*
X190475000Y-198464285D01*
X190475000Y-198607142D01*
X190403571Y-198821428D01*
X189546428Y-199678571D01*
X190475000Y-199678571D01*
X191403571Y-198178571D02*
X191546428Y-198178571D01*
X191689285Y-198250000D01*
X191760714Y-198321428D01*
X191832142Y-198464285D01*
X191903571Y-198750000D01*
X191903571Y-199107142D01*
X191832142Y-199392857D01*
X191760714Y-199535714D01*
X191689285Y-199607142D01*
X191546428Y-199678571D01*
X191403571Y-199678571D01*
X191260714Y-199607142D01*
X191189285Y-199535714D01*
X191117857Y-199392857D01*
X191046428Y-199107142D01*
X191046428Y-198750000D01*
X191117857Y-198464285D01*
X191189285Y-198321428D01*
X191260714Y-198250000D01*
X191403571Y-198178571D01*
X192475000Y-198321428D02*
X192546428Y-198250000D01*
X192689285Y-198178571D01*
X193046428Y-198178571D01*
X193189285Y-198250000D01*
X193260714Y-198321428D01*
X193332142Y-198464285D01*
X193332142Y-198607142D01*
X193260714Y-198821428D01*
X192403571Y-199678571D01*
X193332142Y-199678571D01*
X194760714Y-199678571D02*
X193903571Y-199678571D01*
X194332142Y-199678571D02*
X194332142Y-198178571D01*
X194189285Y-198392857D01*
X194046428Y-198535714D01*
X193903571Y-198607142D01*
X195403571Y-199107142D02*
X196546428Y-199107142D01*
X197546428Y-198178571D02*
X197689285Y-198178571D01*
X197832142Y-198250000D01*
X197903571Y-198321428D01*
X197975000Y-198464285D01*
X198046428Y-198750000D01*
X198046428Y-199107142D01*
X197975000Y-199392857D01*
X197903571Y-199535714D01*
X197832142Y-199607142D01*
X197689285Y-199678571D01*
X197546428Y-199678571D01*
X197403571Y-199607142D01*
X197332142Y-199535714D01*
X197260714Y-199392857D01*
X197189285Y-199107142D01*
X197189285Y-198750000D01*
X197260714Y-198464285D01*
X197332142Y-198321428D01*
X197403571Y-198250000D01*
X197546428Y-198178571D01*
X199403571Y-198178571D02*
X198689285Y-198178571D01*
X198617857Y-198892857D01*
X198689285Y-198821428D01*
X198832142Y-198750000D01*
X199189285Y-198750000D01*
X199332142Y-198821428D01*
X199403571Y-198892857D01*
X199475000Y-199035714D01*
X199475000Y-199392857D01*
X199403571Y-199535714D01*
X199332142Y-199607142D01*
X199189285Y-199678571D01*
X198832142Y-199678571D01*
X198689285Y-199607142D01*
X198617857Y-199535714D01*
X200117857Y-199107142D02*
X201260714Y-199107142D01*
X202760714Y-199678571D02*
X201903571Y-199678571D01*
X202332142Y-199678571D02*
X202332142Y-198178571D01*
X202189285Y-198392857D01*
X202046428Y-198535714D01*
X201903571Y-198607142D01*
X203260714Y-198178571D02*
X204260714Y-198178571D01*
X203617857Y-199678571D01*
D10*
D11*
X159400000Y-200400000D02*
X267400000Y-200400000D01*
D10*
D11*
X160832142Y-202478571D02*
X160832142Y-200978571D01*
X161689285Y-202478571D02*
X161046428Y-201621428D01*
X161689285Y-200978571D02*
X160832142Y-201835714D01*
X162332142Y-202478571D02*
X162332142Y-201478571D01*
X162332142Y-200978571D02*
X162260714Y-201050000D01*
X162332142Y-201121428D01*
X162403571Y-201050000D01*
X162332142Y-200978571D01*
X162332142Y-201121428D01*
X163903571Y-202335714D02*
X163832142Y-202407142D01*
X163617857Y-202478571D01*
X163475000Y-202478571D01*
X163260714Y-202407142D01*
X163117857Y-202264285D01*
X163046428Y-202121428D01*
X162975000Y-201835714D01*
X162975000Y-201621428D01*
X163046428Y-201335714D01*
X163117857Y-201192857D01*
X163260714Y-201050000D01*
X163475000Y-200978571D01*
X163617857Y-200978571D01*
X163832142Y-201050000D01*
X163903571Y-201121428D01*
X165189285Y-202478571D02*
X165189285Y-201692857D01*
X165117857Y-201550000D01*
X164975000Y-201478571D01*
X164689285Y-201478571D01*
X164546428Y-201550000D01*
X165189285Y-202407142D02*
X165046428Y-202478571D01*
X164689285Y-202478571D01*
X164546428Y-202407142D01*
X164475000Y-202264285D01*
X164475000Y-202121428D01*
X164546428Y-201978571D01*
X164689285Y-201907142D01*
X165046428Y-201907142D01*
X165189285Y-201835714D01*
X166546428Y-202478571D02*
X166546428Y-200978571D01*
X166546428Y-202407142D02*
X166403571Y-202478571D01*
X166117857Y-202478571D01*
X165975000Y-202407142D01*
X165903571Y-202335714D01*
X165832142Y-202192857D01*
X165832142Y-201764285D01*
X165903571Y-201621428D01*
X165975000Y-201550000D01*
X166117857Y-201478571D01*
X166403571Y-201478571D01*
X166546428Y-201550000D01*
X168403571Y-201692857D02*
X168903571Y-201692857D01*
X169117857Y-202478571D02*
X168403571Y-202478571D01*
X168403571Y-200978571D01*
X169117857Y-200978571D01*
X169760714Y-202335714D02*
X169832142Y-202407142D01*
X169760714Y-202478571D01*
X169689285Y-202407142D01*
X169760714Y-202335714D01*
X169760714Y-202478571D01*
X170475000Y-202478571D02*
X170475000Y-200978571D01*
X170832142Y-200978571D01*
X171046428Y-201050000D01*
X171189285Y-201192857D01*
X171260714Y-201335714D01*
X171332142Y-201621428D01*
X171332142Y-201835714D01*
X171260714Y-202121428D01*
X171189285Y-202264285D01*
X171046428Y-202407142D01*
X170832142Y-202478571D01*
X170475000Y-202478571D01*
X171975000Y-202335714D02*
X172046428Y-202407142D01*
X171975000Y-202478571D01*
X171903571Y-202407142D01*
X171975000Y-202335714D01*
X171975000Y-202478571D01*
X172617857Y-202050000D02*
X173332142Y-202050000D01*
X172475000Y-202478571D02*
X172975000Y-200978571D01*
X173475000Y-202478571D01*
X173975000Y-202335714D02*
X174046428Y-202407142D01*
X173975000Y-202478571D01*
X173903571Y-202407142D01*
X173975000Y-202335714D01*
X173975000Y-202478571D01*
X176975000Y-202478571D02*
X176975000Y-200978571D01*
X177117857Y-201907142D02*
X177546428Y-202478571D01*
X177546428Y-201478571D02*
X176975000Y-202050000D01*
X178189285Y-202478571D02*
X178189285Y-201478571D01*
X178189285Y-200978571D02*
X178117857Y-201050000D01*
X178189285Y-201121428D01*
X178260714Y-201050000D01*
X178189285Y-200978571D01*
X178189285Y-201121428D01*
X179546428Y-202407142D02*
X179403571Y-202478571D01*
X179117857Y-202478571D01*
X178975000Y-202407142D01*
X178903571Y-202335714D01*
X178832142Y-202192857D01*
X178832142Y-201764285D01*
X178903571Y-201621428D01*
X178975000Y-201550000D01*
X179117857Y-201478571D01*
X179403571Y-201478571D01*
X179546428Y-201550000D01*
X180832142Y-202478571D02*
X180832142Y-201692857D01*
X180760714Y-201550000D01*
X180617857Y-201478571D01*
X180332142Y-201478571D01*
X180189285Y-201550000D01*
X180832142Y-202407142D02*
X180689285Y-202478571D01*
X180332142Y-202478571D01*
X180189285Y-202407142D01*
X180117857Y-202264285D01*
X180117857Y-202121428D01*
X180189285Y-201978571D01*
X180332142Y-201907142D01*
X180689285Y-201907142D01*
X180832142Y-201835714D01*
X182189285Y-202478571D02*
X182189285Y-200978571D01*
X182189285Y-202407142D02*
X182046428Y-202478571D01*
X181760714Y-202478571D01*
X181617857Y-202407142D01*
X181546428Y-202335714D01*
X181475000Y-202192857D01*
X181475000Y-201764285D01*
X181546428Y-201621428D01*
X181617857Y-201550000D01*
X181760714Y-201478571D01*
X182046428Y-201478571D01*
X182189285Y-201550000D01*
X184475000Y-203050000D02*
X184403571Y-202978571D01*
X184260714Y-202764285D01*
X184189285Y-202621428D01*
X184117857Y-202407142D01*
X184046428Y-202050000D01*
X184046428Y-201764285D01*
X184117857Y-201407142D01*
X184189285Y-201192857D01*
X184260714Y-201050000D01*
X184403571Y-200835714D01*
X184475000Y-200764285D01*
X185760714Y-200978571D02*
X185046428Y-200978571D01*
X184975000Y-201692857D01*
X185046428Y-201621428D01*
X185189285Y-201550000D01*
X185546428Y-201550000D01*
X185689285Y-201621428D01*
X185760714Y-201692857D01*
X185832142Y-201835714D01*
X185832142Y-202192857D01*
X185760714Y-202335714D01*
X185689285Y-202407142D01*
X185546428Y-202478571D01*
X185189285Y-202478571D01*
X185046428Y-202407142D01*
X184975000Y-202335714D01*
X186475000Y-202335714D02*
X186546428Y-202407142D01*
X186475000Y-202478571D01*
X186403571Y-202407142D01*
X186475000Y-202335714D01*
X186475000Y-202478571D01*
X187975000Y-202478571D02*
X187117857Y-202478571D01*
X187546428Y-202478571D02*
X187546428Y-200978571D01*
X187403571Y-201192857D01*
X187260714Y-201335714D01*
X187117857Y-201407142D01*
X188617857Y-202335714D02*
X188689285Y-202407142D01*
X188617857Y-202478571D01*
X188546428Y-202407142D01*
X188617857Y-202335714D01*
X188617857Y-202478571D01*
X190117857Y-202478571D02*
X189260714Y-202478571D01*
X189689285Y-202478571D02*
X189689285Y-200978571D01*
X189546428Y-201192857D01*
X189403571Y-201335714D01*
X189260714Y-201407142D01*
X191046428Y-200978571D02*
X191189285Y-200978571D01*
X191332142Y-201050000D01*
X191403571Y-201121428D01*
X191475000Y-201264285D01*
X191546428Y-201550000D01*
X191546428Y-201907142D01*
X191475000Y-202192857D01*
X191403571Y-202335714D01*
X191332142Y-202407142D01*
X191189285Y-202478571D01*
X191046428Y-202478571D01*
X190903571Y-202407142D01*
X190832142Y-202335714D01*
X190760714Y-202192857D01*
X190689285Y-201907142D01*
X190689285Y-201550000D01*
X190760714Y-201264285D01*
X190832142Y-201121428D01*
X190903571Y-201050000D01*
X191046428Y-200978571D01*
X192046428Y-203050000D02*
X192117857Y-202978571D01*
X192260714Y-202764285D01*
X192332142Y-202621428D01*
X192403571Y-202407142D01*
X192475000Y-202050000D01*
X192475000Y-201764285D01*
X192403571Y-201407142D01*
X192332142Y-201192857D01*
X192260714Y-201050000D01*
X192117857Y-200835714D01*
X192046428Y-200764285D01*
X193189285Y-201907142D02*
X194332142Y-201907142D01*
X195832142Y-202478571D02*
X194975000Y-202478571D01*
X195403571Y-202478571D02*
X195403571Y-200978571D01*
X195260714Y-201192857D01*
X195117857Y-201335714D01*
X194975000Y-201407142D01*
D10*
D11*
X159400000Y-197400000D02*
X267400000Y-197400000D01*
D10*
D12*
X246809285Y-199678571D02*
X246309285Y-198964285D01*
X245952142Y-199678571D02*
X245952142Y-198178571D01*
X246523571Y-198178571D01*
X246666428Y-198250000D01*
X246737857Y-198321428D01*
X246809285Y-198464285D01*
X246809285Y-198678571D01*
X246737857Y-198821428D01*
X246666428Y-198892857D01*
X246523571Y-198964285D01*
X245952142Y-198964285D01*
X248023571Y-199607142D02*
X247880714Y-199678571D01*
X247595000Y-199678571D01*
X247452142Y-199607142D01*
X247380714Y-199464285D01*
X247380714Y-198892857D01*
X247452142Y-198750000D01*
X247595000Y-198678571D01*
X247880714Y-198678571D01*
X248023571Y-198750000D01*
X248095000Y-198892857D01*
X248095000Y-199035714D01*
X247380714Y-199178571D01*
X248595000Y-198678571D02*
X248952142Y-199678571D01*
X249309285Y-198678571D01*
X249880714Y-199535714D02*
X249952142Y-199607142D01*
X249880714Y-199678571D01*
X249809285Y-199607142D01*
X249880714Y-199535714D01*
X249880714Y-199678571D01*
X249880714Y-198750000D02*
X249952142Y-198821428D01*
X249880714Y-198892857D01*
X249809285Y-198821428D01*
X249880714Y-198750000D01*
X249880714Y-198892857D01*
X252523571Y-199678571D02*
X251666428Y-199678571D01*
X252095000Y-199678571D02*
X252095000Y-198178571D01*
X251952142Y-198392857D01*
X251809285Y-198535714D01*
X251666428Y-198607142D01*
X253166428Y-199535714D02*
X253237857Y-199607142D01*
X253166428Y-199678571D01*
X253095000Y-199607142D01*
X253166428Y-199535714D01*
X253166428Y-199678571D01*
X254523571Y-198678571D02*
X254523571Y-199678571D01*
X254166428Y-198107142D02*
X253809285Y-199178571D01*
X254737857Y-199178571D01*
D10*
D11*
X160760714Y-199607142D02*
X160975000Y-199678571D01*
X161332142Y-199678571D01*
X161475000Y-199607142D01*
X161546428Y-199535714D01*
X161617857Y-199392857D01*
X161617857Y-199250000D01*
X161546428Y-199107142D01*
X161475000Y-199035714D01*
X161332142Y-198964285D01*
X161046428Y-198892857D01*
X160903571Y-198821428D01*
X160832142Y-198750000D01*
X160760714Y-198607142D01*
X160760714Y-198464285D01*
X160832142Y-198321428D01*
X160903571Y-198250000D01*
X161046428Y-198178571D01*
X161403571Y-198178571D01*
X161617857Y-198250000D01*
X162260714Y-199678571D02*
X162260714Y-198678571D01*
X162260714Y-198178571D02*
X162189285Y-198250000D01*
X162260714Y-198321428D01*
X162332142Y-198250000D01*
X162260714Y-198178571D01*
X162260714Y-198321428D01*
X162832142Y-198678571D02*
X163617857Y-198678571D01*
X162832142Y-199678571D01*
X163617857Y-199678571D01*
X164760714Y-199607142D02*
X164617857Y-199678571D01*
X164332142Y-199678571D01*
X164189285Y-199607142D01*
X164117857Y-199464285D01*
X164117857Y-198892857D01*
X164189285Y-198750000D01*
X164332142Y-198678571D01*
X164617857Y-198678571D01*
X164760714Y-198750000D01*
X164832142Y-198892857D01*
X164832142Y-199035714D01*
X164117857Y-199178571D01*
X165475000Y-199535714D02*
X165546428Y-199607142D01*
X165475000Y-199678571D01*
X165403571Y-199607142D01*
X165475000Y-199535714D01*
X165475000Y-199678571D01*
X165475000Y-198750000D02*
X165546428Y-198821428D01*
X165475000Y-198892857D01*
X165403571Y-198821428D01*
X165475000Y-198750000D01*
X165475000Y-198892857D01*
X167332142Y-198178571D02*
X167332142Y-199392857D01*
X167403571Y-199535714D01*
X167475000Y-199607142D01*
X167617857Y-199678571D01*
X167903571Y-199678571D01*
X168046428Y-199607142D01*
X168117857Y-199535714D01*
X168189285Y-199392857D01*
X168189285Y-198178571D01*
X168832142Y-199607142D02*
X169046428Y-199678571D01*
X169403571Y-199678571D01*
X169546428Y-199607142D01*
X169617857Y-199535714D01*
X169689285Y-199392857D01*
X169689285Y-199250000D01*
X169617857Y-199107142D01*
X169546428Y-199035714D01*
X169403571Y-198964285D01*
X169117857Y-198892857D01*
X168975000Y-198821428D01*
X168903571Y-198750000D01*
X168832142Y-198607142D01*
X168832142Y-198464285D01*
X168903571Y-198321428D01*
X168975000Y-198250000D01*
X169117857Y-198178571D01*
X169475000Y-198178571D01*
X169689285Y-198250000D01*
X171046428Y-199678571D02*
X170332142Y-199678571D01*
X170332142Y-198178571D01*
X172117857Y-199607142D02*
X171975000Y-199678571D01*
X171689285Y-199678571D01*
X171546428Y-199607142D01*
X171475000Y-199464285D01*
X171475000Y-198892857D01*
X171546428Y-198750000D01*
X171689285Y-198678571D01*
X171975000Y-198678571D01*
X172117857Y-198750000D01*
X172189285Y-198892857D01*
X172189285Y-199035714D01*
X171475000Y-199178571D01*
X172617857Y-198678571D02*
X173189285Y-198678571D01*
X172832142Y-198178571D02*
X172832142Y-199464285D01*
X172903571Y-199607142D01*
X173046428Y-199678571D01*
X173189285Y-199678571D01*
X173475000Y-198678571D02*
X174046428Y-198678571D01*
X173689285Y-198178571D02*
X173689285Y-199464285D01*
X173760714Y-199607142D01*
X173903571Y-199678571D01*
X174046428Y-199678571D01*
X175117857Y-199607142D02*
X174975000Y-199678571D01*
X174689285Y-199678571D01*
X174546428Y-199607142D01*
X174475000Y-199464285D01*
X174475000Y-198892857D01*
X174546428Y-198750000D01*
X174689285Y-198678571D01*
X174975000Y-198678571D01*
X175117857Y-198750000D01*
X175189285Y-198892857D01*
X175189285Y-199035714D01*
X174475000Y-199178571D01*
X175832142Y-199678571D02*
X175832142Y-198678571D01*
X175832142Y-198964285D02*
X175903571Y-198821428D01*
X175975000Y-198750000D01*
X176117857Y-198678571D01*
X176260714Y-198678571D01*
D10*
D11*
X245832142Y-202478571D02*
X245832142Y-200978571D01*
X247189285Y-202478571D02*
X247189285Y-200978571D01*
X247189285Y-202407142D02*
X247046428Y-202478571D01*
X246760714Y-202478571D01*
X246617857Y-202407142D01*
X246546428Y-202335714D01*
X246475000Y-202192857D01*
X246475000Y-201764285D01*
X246546428Y-201621428D01*
X246617857Y-201550000D01*
X246760714Y-201478571D01*
X247046428Y-201478571D01*
X247189285Y-201550000D01*
X247903571Y-202335714D02*
X247975000Y-202407142D01*
X247903571Y-202478571D01*
X247832142Y-202407142D01*
X247903571Y-202335714D01*
X247903571Y-202478571D01*
X247903571Y-201550000D02*
X247975000Y-201621428D01*
X247903571Y-201692857D01*
X247832142Y-201621428D01*
X247903571Y-201550000D01*
X247903571Y-201692857D01*
X250546428Y-202478571D02*
X249689285Y-202478571D01*
X250117857Y-202478571D02*
X250117857Y-200978571D01*
X249975000Y-201192857D01*
X249832142Y-201335714D01*
X249689285Y-201407142D01*
X252260714Y-200907142D02*
X250975000Y-202835714D01*
X253546428Y-202478571D02*
X252689285Y-202478571D01*
X253117857Y-202478571D02*
X253117857Y-200978571D01*
X252975000Y-201192857D01*
X252832142Y-201335714D01*
X252689285Y-201407142D01*
D10*
D11*
X159400000Y-193400000D02*
X267400000Y-193400000D01*
D10*
D13*
X161112380Y-194104761D02*
X162255238Y-194104761D01*
X161433809Y-196104761D02*
X161683809Y-194104761D01*
X162671904Y-196104761D02*
X162838571Y-194771428D01*
X162921904Y-194104761D02*
X162814761Y-194200000D01*
X162898095Y-194295238D01*
X163005238Y-194200000D01*
X162921904Y-194104761D01*
X162898095Y-194295238D01*
X163505238Y-194771428D02*
X164267142Y-194771428D01*
X163874285Y-194104761D02*
X163660000Y-195819047D01*
X163731428Y-196009523D01*
X163910000Y-196104761D01*
X164100476Y-196104761D01*
X165052857Y-196104761D02*
X164874285Y-196009523D01*
X164802857Y-195819047D01*
X165017142Y-194104761D01*
X166588571Y-196009523D02*
X166386190Y-196104761D01*
X166005238Y-196104761D01*
X165826666Y-196009523D01*
X165755238Y-195819047D01*
X165850476Y-195057142D01*
X165969523Y-194866666D01*
X166171904Y-194771428D01*
X166552857Y-194771428D01*
X166731428Y-194866666D01*
X166802857Y-195057142D01*
X166779047Y-195247619D01*
X165802857Y-195438095D01*
X167552857Y-195914285D02*
X167636190Y-196009523D01*
X167529047Y-196104761D01*
X167445714Y-196009523D01*
X167552857Y-195914285D01*
X167529047Y-196104761D01*
X167683809Y-194866666D02*
X167767142Y-194961904D01*
X167660000Y-195057142D01*
X167576666Y-194961904D01*
X167683809Y-194866666D01*
X167660000Y-195057142D01*
X170005238Y-196104761D02*
X170255238Y-194104761D01*
X172648095Y-194009523D02*
X170612380Y-196580952D01*
X173683809Y-194104761D02*
X174064761Y-194104761D01*
X174243333Y-194200000D01*
X174410000Y-194390476D01*
X174457619Y-194771428D01*
X174374285Y-195438095D01*
X174231428Y-195819047D01*
X174017142Y-196009523D01*
X173814761Y-196104761D01*
X173433809Y-196104761D01*
X173255238Y-196009523D01*
X173088571Y-195819047D01*
X173040952Y-195438095D01*
X173124285Y-194771428D01*
X173267142Y-194390476D01*
X173481428Y-194200000D01*
X173683809Y-194104761D01*
X177469523Y-195057142D02*
X177743333Y-195152380D01*
X177826666Y-195247619D01*
X177898095Y-195438095D01*
X177862380Y-195723809D01*
X177743333Y-195914285D01*
X177636190Y-196009523D01*
X177433809Y-196104761D01*
X176671904Y-196104761D01*
X176921904Y-194104761D01*
X177588571Y-194104761D01*
X177767142Y-194200000D01*
X177850476Y-194295238D01*
X177921904Y-194485714D01*
X177898095Y-194676190D01*
X177779047Y-194866666D01*
X177671904Y-194961904D01*
X177469523Y-195057142D01*
X176802857Y-195057142D01*
X178957619Y-196104761D02*
X178779047Y-196009523D01*
X178695714Y-195914285D01*
X178624285Y-195723809D01*
X178695714Y-195152380D01*
X178814761Y-194961904D01*
X178921904Y-194866666D01*
X179124285Y-194771428D01*
X179410000Y-194771428D01*
X179588571Y-194866666D01*
X179671904Y-194961904D01*
X179743333Y-195152380D01*
X179671904Y-195723809D01*
X179552857Y-195914285D01*
X179445714Y-196009523D01*
X179243333Y-196104761D01*
X178957619Y-196104761D01*
X181338571Y-196104761D02*
X181469523Y-195057142D01*
X181398095Y-194866666D01*
X181219523Y-194771428D01*
X180838571Y-194771428D01*
X180636190Y-194866666D01*
X181350476Y-196009523D02*
X181148095Y-196104761D01*
X180671904Y-196104761D01*
X180493333Y-196009523D01*
X180421904Y-195819047D01*
X180445714Y-195628571D01*
X180564761Y-195438095D01*
X180767142Y-195342857D01*
X181243333Y-195342857D01*
X181445714Y-195247619D01*
X182290952Y-196104761D02*
X182457619Y-194771428D01*
X182410000Y-195152380D02*
X182529047Y-194961904D01*
X182636190Y-194866666D01*
X182838571Y-194771428D01*
X183029047Y-194771428D01*
X184386190Y-196104761D02*
X184636190Y-194104761D01*
X184398095Y-196009523D02*
X184195714Y-196104761D01*
X183814761Y-196104761D01*
X183636190Y-196009523D01*
X183552857Y-195914285D01*
X183481428Y-195723809D01*
X183552857Y-195152380D01*
X183671904Y-194961904D01*
X183779047Y-194866666D01*
X183981428Y-194771428D01*
X184362380Y-194771428D01*
X184540952Y-194866666D01*
X187814761Y-196104761D02*
X186862380Y-196104761D01*
X187112380Y-194104761D01*
X189338571Y-196104761D02*
X189469523Y-195057142D01*
X189398095Y-194866666D01*
X189219523Y-194771428D01*
X188838571Y-194771428D01*
X188636190Y-194866666D01*
X189350476Y-196009523D02*
X189148095Y-196104761D01*
X188671904Y-196104761D01*
X188493333Y-196009523D01*
X188421904Y-195819047D01*
X188445714Y-195628571D01*
X188564761Y-195438095D01*
X188767142Y-195342857D01*
X189243333Y-195342857D01*
X189445714Y-195247619D01*
X190267142Y-194771428D02*
X190576666Y-196104761D01*
X191219523Y-194771428D02*
X190576666Y-196104761D01*
X190326666Y-196580952D01*
X190219523Y-196676190D01*
X190017142Y-196771428D01*
X192100476Y-196104761D02*
X191921904Y-196009523D01*
X191838571Y-195914285D01*
X191767142Y-195723809D01*
X191838571Y-195152380D01*
X191957619Y-194961904D01*
X192064761Y-194866666D01*
X192267142Y-194771428D01*
X192552857Y-194771428D01*
X192731428Y-194866666D01*
X192814761Y-194961904D01*
X192886190Y-195152380D01*
X192814761Y-195723809D01*
X192695714Y-195914285D01*
X192588571Y-196009523D01*
X192386190Y-196104761D01*
X192100476Y-196104761D01*
X194648095Y-194771428D02*
X194481428Y-196104761D01*
X193790952Y-194771428D02*
X193660000Y-195819047D01*
X193731428Y-196009523D01*
X193910000Y-196104761D01*
X194195714Y-196104761D01*
X194398095Y-196009523D01*
X194505238Y-195914285D01*
X195314761Y-194771428D02*
X196076666Y-194771428D01*
X195683809Y-194104761D02*
X195469523Y-195819047D01*
X195540952Y-196009523D01*
X195719523Y-196104761D01*
X195910000Y-196104761D01*
D10*
D11*
X161332142Y-191492857D02*
X160832142Y-191492857D01*
X160832142Y-192278571D02*
X160832142Y-190778571D01*
X161546428Y-190778571D01*
X162117857Y-192278571D02*
X162117857Y-191278571D01*
X162117857Y-190778571D02*
X162046428Y-190850000D01*
X162117857Y-190921428D01*
X162189285Y-190850000D01*
X162117857Y-190778571D01*
X162117857Y-190921428D01*
X163046428Y-192278571D02*
X162903571Y-192207142D01*
X162832142Y-192064285D01*
X162832142Y-190778571D01*
X164189285Y-192207142D02*
X164046428Y-192278571D01*
X163760714Y-192278571D01*
X163617857Y-192207142D01*
X163546428Y-192064285D01*
X163546428Y-191492857D01*
X163617857Y-191350000D01*
X163760714Y-191278571D01*
X164046428Y-191278571D01*
X164189285Y-191350000D01*
X164260714Y-191492857D01*
X164260714Y-191635714D01*
X163546428Y-191778571D01*
X164903571Y-192135714D02*
X164975000Y-192207142D01*
X164903571Y-192278571D01*
X164832142Y-192207142D01*
X164903571Y-192135714D01*
X164903571Y-192278571D01*
X164903571Y-191350000D02*
X164975000Y-191421428D01*
X164903571Y-191492857D01*
X164832142Y-191421428D01*
X164903571Y-191350000D01*
X164903571Y-191492857D01*
X166760714Y-192278571D02*
X166760714Y-190778571D01*
X167760714Y-190778571D02*
X168046428Y-190778571D01*
X168189285Y-190850000D01*
X168332142Y-190992857D01*
X168403571Y-191278571D01*
X168403571Y-191778571D01*
X168332142Y-192064285D01*
X168189285Y-192207142D01*
X168046428Y-192278571D01*
X167760714Y-192278571D01*
X167617857Y-192207142D01*
X167475000Y-192064285D01*
X167403571Y-191778571D01*
X167403571Y-191278571D01*
X167475000Y-190992857D01*
X167617857Y-190850000D01*
X167760714Y-190778571D01*
X170689285Y-191492857D02*
X170903571Y-191564285D01*
X170975000Y-191635714D01*
X171046428Y-191778571D01*
X171046428Y-191992857D01*
X170975000Y-192135714D01*
X170903571Y-192207142D01*
X170760714Y-192278571D01*
X170189285Y-192278571D01*
X170189285Y-190778571D01*
X170689285Y-190778571D01*
X170832142Y-190850000D01*
X170903571Y-190921428D01*
X170975000Y-191064285D01*
X170975000Y-191207142D01*
X170903571Y-191350000D01*
X170832142Y-191421428D01*
X170689285Y-191492857D01*
X170189285Y-191492857D01*
X171903571Y-192278571D02*
X171760714Y-192207142D01*
X171689285Y-192135714D01*
X171617857Y-191992857D01*
X171617857Y-191564285D01*
X171689285Y-191421428D01*
X171760714Y-191350000D01*
X171903571Y-191278571D01*
X172117857Y-191278571D01*
X172260714Y-191350000D01*
X172332142Y-191421428D01*
X172403571Y-191564285D01*
X172403571Y-191992857D01*
X172332142Y-192135714D01*
X172260714Y-192207142D01*
X172117857Y-192278571D01*
X171903571Y-192278571D01*
X173689285Y-192278571D02*
X173689285Y-191492857D01*
X173617857Y-191350000D01*
X173475000Y-191278571D01*
X173189285Y-191278571D01*
X173046428Y-191350000D01*
X173689285Y-192207142D02*
X173546428Y-192278571D01*
X173189285Y-192278571D01*
X173046428Y-192207142D01*
X172975000Y-192064285D01*
X172975000Y-191921428D01*
X173046428Y-191778571D01*
X173189285Y-191707142D01*
X173546428Y-191707142D01*
X173689285Y-191635714D01*
X174403571Y-192278571D02*
X174403571Y-191278571D01*
X174403571Y-191564285D02*
X174475000Y-191421428D01*
X174546428Y-191350000D01*
X174689285Y-191278571D01*
X174832142Y-191278571D01*
X175975000Y-192278571D02*
X175975000Y-190778571D01*
X175975000Y-192207142D02*
X175832142Y-192278571D01*
X175546428Y-192278571D01*
X175403571Y-192207142D01*
X175332142Y-192135714D01*
X175260714Y-191992857D01*
X175260714Y-191564285D01*
X175332142Y-191421428D01*
X175403571Y-191350000D01*
X175546428Y-191278571D01*
X175832142Y-191278571D01*
X175975000Y-191350000D01*
X176689285Y-192135714D02*
X176760714Y-192207142D01*
X176689285Y-192278571D01*
X176617857Y-192207142D01*
X176689285Y-192135714D01*
X176689285Y-192278571D01*
X177403571Y-192278571D02*
X177403571Y-190778571D01*
X177546428Y-191707142D02*
X177975000Y-192278571D01*
X177975000Y-191278571D02*
X177403571Y-191850000D01*
X178617857Y-192278571D02*
X178617857Y-191278571D01*
X178617857Y-190778571D02*
X178546428Y-190850000D01*
X178617857Y-190921428D01*
X178689285Y-190850000D01*
X178617857Y-190778571D01*
X178617857Y-190921428D01*
X179975000Y-192207142D02*
X179832142Y-192278571D01*
X179546428Y-192278571D01*
X179403571Y-192207142D01*
X179332142Y-192135714D01*
X179260714Y-191992857D01*
X179260714Y-191564285D01*
X179332142Y-191421428D01*
X179403571Y-191350000D01*
X179546428Y-191278571D01*
X179832142Y-191278571D01*
X179975000Y-191350000D01*
X181260714Y-192278571D02*
X181260714Y-191492857D01*
X181189285Y-191350000D01*
X181046428Y-191278571D01*
X180760714Y-191278571D01*
X180617857Y-191350000D01*
X181260714Y-192207142D02*
X181117857Y-192278571D01*
X180760714Y-192278571D01*
X180617857Y-192207142D01*
X180546428Y-192064285D01*
X180546428Y-191921428D01*
X180617857Y-191778571D01*
X180760714Y-191707142D01*
X181117857Y-191707142D01*
X181260714Y-191635714D01*
X182617857Y-192278571D02*
X182617857Y-190778571D01*
X182617857Y-192207142D02*
X182475000Y-192278571D01*
X182189285Y-192278571D01*
X182046428Y-192207142D01*
X181975000Y-192135714D01*
X181903571Y-191992857D01*
X181903571Y-191564285D01*
X181975000Y-191421428D01*
X182046428Y-191350000D01*
X182189285Y-191278571D01*
X182475000Y-191278571D01*
X182617857Y-191350000D01*
X182975000Y-192421428D02*
X184117857Y-192421428D01*
X184475000Y-191278571D02*
X184475000Y-192778571D01*
X184475000Y-191350000D02*
X184617857Y-191278571D01*
X184903571Y-191278571D01*
X185046428Y-191350000D01*
X185117857Y-191421428D01*
X185189285Y-191564285D01*
X185189285Y-191992857D01*
X185117857Y-192135714D01*
X185046428Y-192207142D01*
X184903571Y-192278571D01*
X184617857Y-192278571D01*
X184475000Y-192207142D01*
X186475000Y-192207142D02*
X186332142Y-192278571D01*
X186046428Y-192278571D01*
X185903571Y-192207142D01*
X185832142Y-192135714D01*
X185760714Y-191992857D01*
X185760714Y-191564285D01*
X185832142Y-191421428D01*
X185903571Y-191350000D01*
X186046428Y-191278571D01*
X186332142Y-191278571D01*
X186475000Y-191350000D01*
X187117857Y-192278571D02*
X187117857Y-190778571D01*
X187117857Y-191350000D02*
X187260714Y-191278571D01*
X187546428Y-191278571D01*
X187689285Y-191350000D01*
X187760714Y-191421428D01*
X187832142Y-191564285D01*
X187832142Y-191992857D01*
X187760714Y-192135714D01*
X187689285Y-192207142D01*
X187546428Y-192278571D01*
X187260714Y-192278571D01*
X187117857Y-192207142D01*
D10*
D11*
X159400000Y-187400000D02*
X267400000Y-187400000D01*
D10*
D11*
X160760714Y-189507142D02*
X160975000Y-189578571D01*
X161332142Y-189578571D01*
X161475000Y-189507142D01*
X161546428Y-189435714D01*
X161617857Y-189292857D01*
X161617857Y-189150000D01*
X161546428Y-189007142D01*
X161475000Y-188935714D01*
X161332142Y-188864285D01*
X161046428Y-188792857D01*
X160903571Y-188721428D01*
X160832142Y-188650000D01*
X160760714Y-188507142D01*
X160760714Y-188364285D01*
X160832142Y-188221428D01*
X160903571Y-188150000D01*
X161046428Y-188078571D01*
X161403571Y-188078571D01*
X161617857Y-188150000D01*
X162260714Y-189578571D02*
X162260714Y-188078571D01*
X162903571Y-189578571D02*
X162903571Y-188792857D01*
X162832142Y-188650000D01*
X162689285Y-188578571D01*
X162475000Y-188578571D01*
X162332142Y-188650000D01*
X162260714Y-188721428D01*
X164189285Y-189507142D02*
X164046428Y-189578571D01*
X163760714Y-189578571D01*
X163617857Y-189507142D01*
X163546428Y-189364285D01*
X163546428Y-188792857D01*
X163617857Y-188650000D01*
X163760714Y-188578571D01*
X164046428Y-188578571D01*
X164189285Y-188650000D01*
X164260714Y-188792857D01*
X164260714Y-188935714D01*
X163546428Y-189078571D01*
X165475000Y-189507142D02*
X165332142Y-189578571D01*
X165046428Y-189578571D01*
X164903571Y-189507142D01*
X164832142Y-189364285D01*
X164832142Y-188792857D01*
X164903571Y-188650000D01*
X165046428Y-188578571D01*
X165332142Y-188578571D01*
X165475000Y-188650000D01*
X165546428Y-188792857D01*
X165546428Y-188935714D01*
X164832142Y-189078571D01*
X165975000Y-188578571D02*
X166546428Y-188578571D01*
X166189285Y-188078571D02*
X166189285Y-189364285D01*
X166260714Y-189507142D01*
X166403571Y-189578571D01*
X166546428Y-189578571D01*
X167046428Y-189435714D02*
X167117857Y-189507142D01*
X167046428Y-189578571D01*
X166975000Y-189507142D01*
X167046428Y-189435714D01*
X167046428Y-189578571D01*
X167046428Y-188650000D02*
X167117857Y-188721428D01*
X167046428Y-188792857D01*
X166975000Y-188721428D01*
X167046428Y-188650000D01*
X167046428Y-188792857D01*
D10*
D11*
X179400000Y-197400000D02*
X179400000Y-200400000D01*
D10*
D11*
X243400000Y-197400000D02*
X243400000Y-203900000D01*
D12*
X200450142Y-99479571D02*
X200450142Y-97979571D01*
X202235857Y-97908142D02*
X200950142Y-99836714D01*
X203021571Y-97979571D02*
X203307285Y-97979571D01*
X203450142Y-98051000D01*
X203593000Y-98193857D01*
X203664428Y-98479571D01*
X203664428Y-98979571D01*
X203593000Y-99265285D01*
X203450142Y-99408142D01*
X203307285Y-99479571D01*
X203021571Y-99479571D01*
X202878714Y-99408142D01*
X202735857Y-99265285D01*
X202664428Y-98979571D01*
X202664428Y-98479571D01*
X202735857Y-98193857D01*
X202878714Y-98051000D01*
X203021571Y-97979571D01*
X205950142Y-98693857D02*
X206164428Y-98765285D01*
X206235857Y-98836714D01*
X206307285Y-98979571D01*
X206307285Y-99193857D01*
X206235857Y-99336714D01*
X206164428Y-99408142D01*
X206021571Y-99479571D01*
X205450142Y-99479571D01*
X205450142Y-97979571D01*
X205950142Y-97979571D01*
X206093000Y-98051000D01*
X206164428Y-98122428D01*
X206235857Y-98265285D01*
X206235857Y-98408142D01*
X206164428Y-98551000D01*
X206093000Y-98622428D01*
X205950142Y-98693857D01*
X205450142Y-98693857D01*
X207164428Y-99479571D02*
X207021571Y-99408142D01*
X206950142Y-99336714D01*
X206878714Y-99193857D01*
X206878714Y-98765285D01*
X206950142Y-98622428D01*
X207021571Y-98551000D01*
X207164428Y-98479571D01*
X207378714Y-98479571D01*
X207521571Y-98551000D01*
X207593000Y-98622428D01*
X207664428Y-98765285D01*
X207664428Y-99193857D01*
X207593000Y-99336714D01*
X207521571Y-99408142D01*
X207378714Y-99479571D01*
X207164428Y-99479571D01*
X208950142Y-99479571D02*
X208950142Y-98693857D01*
X208878714Y-98551000D01*
X208735857Y-98479571D01*
X208450142Y-98479571D01*
X208307285Y-98551000D01*
X208950142Y-99408142D02*
X208807285Y-99479571D01*
X208450142Y-99479571D01*
X208307285Y-99408142D01*
X208235857Y-99265285D01*
X208235857Y-99122428D01*
X208307285Y-98979571D01*
X208450142Y-98908142D01*
X208807285Y-98908142D01*
X208950142Y-98836714D01*
X209664428Y-99479571D02*
X209664428Y-98479571D01*
X209664428Y-98765285D02*
X209735857Y-98622428D01*
X209807285Y-98551000D01*
X209950142Y-98479571D01*
X210093000Y-98479571D01*
X211235857Y-99479571D02*
X211235857Y-97979571D01*
X211235857Y-99408142D02*
X211093000Y-99479571D01*
X210807285Y-99479571D01*
X210664428Y-99408142D01*
X210593000Y-99336714D01*
X210521571Y-99193857D01*
X210521571Y-98765285D01*
X210593000Y-98622428D01*
X210664428Y-98551000D01*
X210807285Y-98479571D01*
X211093000Y-98479571D01*
X211235857Y-98551000D01*
X200235857Y-100529571D02*
X201093000Y-100529571D01*
X200664428Y-102029571D02*
X200664428Y-100529571D01*
X201807285Y-102029571D02*
X201664428Y-101958142D01*
X201593000Y-101886714D01*
X201521571Y-101743857D01*
X201521571Y-101315285D01*
X201593000Y-101172428D01*
X201664428Y-101101000D01*
X201807285Y-101029571D01*
X202021571Y-101029571D01*
X202164428Y-101101000D01*
X202235857Y-101172428D01*
X202307285Y-101315285D01*
X202307285Y-101743857D01*
X202235857Y-101886714D01*
X202164428Y-101958142D01*
X202021571Y-102029571D01*
X201807285Y-102029571D01*
X202950142Y-101029571D02*
X202950142Y-102529571D01*
X202950142Y-101101000D02*
X203093000Y-101029571D01*
X203378714Y-101029571D01*
X203521571Y-101101000D01*
X203593000Y-101172428D01*
X203664428Y-101315285D01*
X203664428Y-101743857D01*
X203593000Y-101886714D01*
X203521571Y-101958142D01*
X203378714Y-102029571D01*
X203093000Y-102029571D01*
X202950142Y-101958142D01*
X205378714Y-101958142D02*
X205593000Y-102029571D01*
X205950142Y-102029571D01*
X206093000Y-101958142D01*
X206164428Y-101886714D01*
X206235857Y-101743857D01*
X206235857Y-101601000D01*
X206164428Y-101458142D01*
X206093000Y-101386714D01*
X205950142Y-101315285D01*
X205664428Y-101243857D01*
X205521571Y-101172428D01*
X205450142Y-101101000D01*
X205378714Y-100958142D01*
X205378714Y-100815285D01*
X205450142Y-100672428D01*
X205521571Y-100601000D01*
X205664428Y-100529571D01*
X206021571Y-100529571D01*
X206235857Y-100601000D01*
X206878714Y-102029571D02*
X206878714Y-101029571D01*
X206878714Y-100529571D02*
X206807285Y-100601000D01*
X206878714Y-100672428D01*
X206950142Y-100601000D01*
X206878714Y-100529571D01*
X206878714Y-100672428D01*
X208235857Y-102029571D02*
X208235857Y-100529571D01*
X208235857Y-101958142D02*
X208093000Y-102029571D01*
X207807285Y-102029571D01*
X207664428Y-101958142D01*
X207593000Y-101886714D01*
X207521571Y-101743857D01*
X207521571Y-101315285D01*
X207593000Y-101172428D01*
X207664428Y-101101000D01*
X207807285Y-101029571D01*
X208093000Y-101029571D01*
X208235857Y-101101000D01*
X209521571Y-101958142D02*
X209378714Y-102029571D01*
X209093000Y-102029571D01*
X208950142Y-101958142D01*
X208878714Y-101815285D01*
X208878714Y-101243857D01*
X208950142Y-101101000D01*
X209093000Y-101029571D01*
X209378714Y-101029571D01*
X209521571Y-101101000D01*
X209593000Y-101243857D01*
X209593000Y-101386714D01*
X208878714Y-101529571D01*
X211307285Y-101958142D02*
X211521571Y-102029571D01*
X211878714Y-102029571D01*
X212021571Y-101958142D01*
X212093000Y-101886714D01*
X212164428Y-101743857D01*
X212164428Y-101601000D01*
X212093000Y-101458142D01*
X212021571Y-101386714D01*
X211878714Y-101315285D01*
X211593000Y-101243857D01*
X211450142Y-101172428D01*
X211378714Y-101101000D01*
X211307285Y-100958142D01*
X211307285Y-100815285D01*
X211378714Y-100672428D01*
X211450142Y-100601000D01*
X211593000Y-100529571D01*
X211950142Y-100529571D01*
X212164428Y-100601000D01*
X212807285Y-102029571D02*
X212807285Y-101029571D01*
X212807285Y-100529571D02*
X212735857Y-100601000D01*
X212807285Y-100672428D01*
X212878714Y-100601000D01*
X212807285Y-100529571D01*
X212807285Y-100672428D01*
X213735857Y-102029571D02*
X213593000Y-101958142D01*
X213521571Y-101815285D01*
X213521571Y-100529571D01*
X214307285Y-102029571D02*
X214307285Y-100529571D01*
X214450142Y-101458142D02*
X214878714Y-102029571D01*
X214878714Y-101029571D02*
X214307285Y-101601000D01*
X215450142Y-101958142D02*
X215593000Y-102029571D01*
X215878714Y-102029571D01*
X216021571Y-101958142D01*
X216093000Y-101815285D01*
X216093000Y-101743857D01*
X216021571Y-101601000D01*
X215878714Y-101529571D01*
X215664428Y-101529571D01*
X215521571Y-101458142D01*
X215450142Y-101315285D01*
X215450142Y-101243857D01*
X215521571Y-101101000D01*
X215664428Y-101029571D01*
X215878714Y-101029571D01*
X216021571Y-101101000D01*
X217378714Y-101958142D02*
X217235857Y-102029571D01*
X216950142Y-102029571D01*
X216807285Y-101958142D01*
X216735857Y-101886714D01*
X216664428Y-101743857D01*
X216664428Y-101315285D01*
X216735857Y-101172428D01*
X216807285Y-101101000D01*
X216950142Y-101029571D01*
X217235857Y-101029571D01*
X217378714Y-101101000D01*
X218021571Y-102029571D02*
X218021571Y-101029571D01*
X218021571Y-101315285D02*
X218093000Y-101172428D01*
X218164428Y-101101000D01*
X218307285Y-101029571D01*
X218450142Y-101029571D01*
X219521571Y-101958142D02*
X219378714Y-102029571D01*
X219093000Y-102029571D01*
X218950142Y-101958142D01*
X218878714Y-101815285D01*
X218878714Y-101243857D01*
X218950142Y-101101000D01*
X219093000Y-101029571D01*
X219378714Y-101029571D01*
X219521571Y-101101000D01*
X219593000Y-101243857D01*
X219593000Y-101386714D01*
X218878714Y-101529571D01*
X220807285Y-101958142D02*
X220664428Y-102029571D01*
X220378714Y-102029571D01*
X220235857Y-101958142D01*
X220164428Y-101815285D01*
X220164428Y-101243857D01*
X220235857Y-101101000D01*
X220378714Y-101029571D01*
X220664428Y-101029571D01*
X220807285Y-101101000D01*
X220878714Y-101243857D01*
X220878714Y-101386714D01*
X220164428Y-101529571D01*
X221521571Y-101029571D02*
X221521571Y-102029571D01*
X221521571Y-101172428D02*
X221593000Y-101101000D01*
X221735857Y-101029571D01*
X221950142Y-101029571D01*
X222093000Y-101101000D01*
X222164428Y-101243857D01*
X222164428Y-102029571D01*
X127271142Y-118256857D02*
X127485428Y-118328285D01*
X127556857Y-118399714D01*
X127628285Y-118542571D01*
X127628285Y-118756857D01*
X127556857Y-118899714D01*
X127485428Y-118971142D01*
X127342571Y-119042571D01*
X126771142Y-119042571D01*
X126771142Y-117542571D01*
X127271142Y-117542571D01*
X127414000Y-117614000D01*
X127485428Y-117685428D01*
X127556857Y-117828285D01*
X127556857Y-117971142D01*
X127485428Y-118114000D01*
X127414000Y-118185428D01*
X127271142Y-118256857D01*
X126771142Y-118256857D01*
X128914000Y-119042571D02*
X128914000Y-118256857D01*
X128842571Y-118114000D01*
X128699714Y-118042571D01*
X128414000Y-118042571D01*
X128271142Y-118114000D01*
X128914000Y-118971142D02*
X128771142Y-119042571D01*
X128414000Y-119042571D01*
X128271142Y-118971142D01*
X128199714Y-118828285D01*
X128199714Y-118685428D01*
X128271142Y-118542571D01*
X128414000Y-118471142D01*
X128771142Y-118471142D01*
X128914000Y-118399714D01*
X129414000Y-118042571D02*
X129985428Y-118042571D01*
X129628285Y-117542571D02*
X129628285Y-118828285D01*
X129699714Y-118971142D01*
X129842571Y-119042571D01*
X129985428Y-119042571D01*
X130271142Y-118042571D02*
X130842571Y-118042571D01*
X130485428Y-117542571D02*
X130485428Y-118828285D01*
X130556857Y-118971142D01*
X130699714Y-119042571D01*
X130842571Y-119042571D01*
X131342571Y-119042571D02*
X131342571Y-117542571D01*
X131914000Y-117542571D01*
X132056857Y-117614000D01*
X132128285Y-117685428D01*
X132199714Y-117828285D01*
X132199714Y-118042571D01*
X132128285Y-118185428D01*
X132056857Y-118256857D01*
X131914000Y-118328285D01*
X131342571Y-118328285D01*
X132842571Y-119042571D02*
X132842571Y-118042571D01*
X132842571Y-118328285D02*
X132914000Y-118185428D01*
X132985428Y-118114000D01*
X133128285Y-118042571D01*
X133271142Y-118042571D01*
X133985428Y-119042571D02*
X133842571Y-118971142D01*
X133771142Y-118899714D01*
X133699714Y-118756857D01*
X133699714Y-118328285D01*
X133771142Y-118185428D01*
X133842571Y-118114000D01*
X133985428Y-118042571D01*
X134199714Y-118042571D01*
X134342571Y-118114000D01*
X134414000Y-118185428D01*
X134485428Y-118328285D01*
X134485428Y-118756857D01*
X134414000Y-118899714D01*
X134342571Y-118971142D01*
X134199714Y-119042571D01*
X133985428Y-119042571D01*
X135771142Y-118042571D02*
X135771142Y-119256857D01*
X135699714Y-119399714D01*
X135628285Y-119471142D01*
X135485428Y-119542571D01*
X135271142Y-119542571D01*
X135128285Y-119471142D01*
X135771142Y-118971142D02*
X135628285Y-119042571D01*
X135342571Y-119042571D01*
X135199714Y-118971142D01*
X135128285Y-118899714D01*
X135056857Y-118756857D01*
X135056857Y-118328285D01*
X135128285Y-118185428D01*
X135199714Y-118114000D01*
X135342571Y-118042571D01*
X135628285Y-118042571D01*
X135771142Y-118114000D01*
X137485428Y-117542571D02*
X137842571Y-119042571D01*
X138128285Y-117971142D01*
X138414000Y-119042571D01*
X138771142Y-117542571D01*
X139342571Y-119042571D02*
X139342571Y-118042571D01*
X139342571Y-117542571D02*
X139271142Y-117614000D01*
X139342571Y-117685428D01*
X139414000Y-117614000D01*
X139342571Y-117542571D01*
X139342571Y-117685428D01*
X140056857Y-118042571D02*
X140056857Y-119042571D01*
X140056857Y-118185428D02*
X140128285Y-118114000D01*
X140271142Y-118042571D01*
X140485428Y-118042571D01*
X140628285Y-118114000D01*
X140699714Y-118256857D01*
X140699714Y-119042571D01*
X142056857Y-118042571D02*
X142056857Y-119256857D01*
X141985428Y-119399714D01*
X141914000Y-119471142D01*
X141771142Y-119542571D01*
X141556857Y-119542571D01*
X141414000Y-119471142D01*
X142056857Y-118971142D02*
X141914000Y-119042571D01*
X141628285Y-119042571D01*
X141485428Y-118971142D01*
X141414000Y-118899714D01*
X141342571Y-118756857D01*
X141342571Y-118328285D01*
X141414000Y-118185428D01*
X141485428Y-118114000D01*
X141628285Y-118042571D01*
X141914000Y-118042571D01*
X142056857Y-118114000D01*
X143699714Y-117542571D02*
X144199714Y-119042571D01*
X144699714Y-117542571D01*
X145985428Y-119042571D02*
X145128285Y-119042571D01*
X145556857Y-119042571D02*
X145556857Y-117542571D01*
X145414000Y-117756857D01*
X145271142Y-117899714D01*
X145128285Y-117971142D01*
X146628285Y-118899714D02*
X146699714Y-118971142D01*
X146628285Y-119042571D01*
X146556857Y-118971142D01*
X146628285Y-118899714D01*
X146628285Y-119042571D01*
X147985428Y-118042571D02*
X147985428Y-119042571D01*
X147628285Y-117471142D02*
X147271142Y-118542571D01*
X148199714Y-118542571D01*
D11*
X183383785Y-97401714D02*
X183612357Y-97477904D01*
X183688547Y-97554095D01*
X183764738Y-97706476D01*
X183764738Y-97935047D01*
X183688547Y-98087428D01*
X183612357Y-98163619D01*
X183459976Y-98239809D01*
X182850452Y-98239809D01*
X182850452Y-96639809D01*
X183383785Y-96639809D01*
X183536166Y-96716000D01*
X183612357Y-96792190D01*
X183688547Y-96944571D01*
X183688547Y-97096952D01*
X183612357Y-97249333D01*
X183536166Y-97325523D01*
X183383785Y-97401714D01*
X182850452Y-97401714D01*
X184450452Y-97630285D02*
X185669500Y-97630285D01*
X185059976Y-98239809D02*
X185059976Y-97020761D01*
X183764738Y-100637428D02*
X183688547Y-100713619D01*
X183459976Y-100789809D01*
X183307595Y-100789809D01*
X183079023Y-100713619D01*
X182926642Y-100561238D01*
X182850452Y-100408857D01*
X182774261Y-100104095D01*
X182774261Y-99875523D01*
X182850452Y-99570761D01*
X182926642Y-99418380D01*
X183079023Y-99266000D01*
X183307595Y-99189809D01*
X183459976Y-99189809D01*
X183688547Y-99266000D01*
X183764738Y-99342190D01*
X185212357Y-100789809D02*
X184450452Y-100789809D01*
X184450452Y-99189809D01*
X182850452Y-103339809D02*
X182850452Y-101739809D01*
X183231404Y-101739809D01*
X183459976Y-101816000D01*
X183612357Y-101968380D01*
X183688547Y-102120761D01*
X183764738Y-102425523D01*
X183764738Y-102654095D01*
X183688547Y-102958857D01*
X183612357Y-103111238D01*
X183459976Y-103263619D01*
X183231404Y-103339809D01*
X182850452Y-103339809D01*
X184374261Y-102882666D02*
X185136166Y-102882666D01*
X184221880Y-103339809D02*
X184755214Y-101739809D01*
X185288547Y-103339809D01*
X183688547Y-104366000D02*
X183536166Y-104289809D01*
X183307595Y-104289809D01*
X183079023Y-104366000D01*
X182926642Y-104518380D01*
X182850452Y-104670761D01*
X182774261Y-104975523D01*
X182774261Y-105204095D01*
X182850452Y-105508857D01*
X182926642Y-105661238D01*
X183079023Y-105813619D01*
X183307595Y-105889809D01*
X183459976Y-105889809D01*
X183688547Y-105813619D01*
X183764738Y-105737428D01*
X183764738Y-105204095D01*
X183459976Y-105204095D01*
X184450452Y-105889809D02*
X184450452Y-104289809D01*
X185364738Y-105889809D01*
X185364738Y-104289809D01*
X182621880Y-106839809D02*
X183536166Y-106839809D01*
X183079023Y-108439809D02*
X183079023Y-106839809D01*
X184069500Y-108439809D02*
X184069500Y-106839809D01*
X184069500Y-107601714D02*
X184983785Y-107601714D01*
X184983785Y-108439809D02*
X184983785Y-106839809D01*
D14*
X124209564Y-99081000D02*
X123005436Y-99081000D01*
X124209564Y-97261000D02*
X123005436Y-97261000D01*
X117598436Y-110892000D02*
X118802564Y-110892000D01*
X117598436Y-109072000D02*
X118802564Y-109072000D01*
X107680000Y-115746000D02*
X105680000Y-115746000D01*
X100220000Y-94996000D02*
X100220000Y-112776000D01*
X151240000Y-94996000D02*
X151240000Y-112776000D01*
X102870000Y-92346000D02*
X148590000Y-92346000D01*
X102870000Y-115426000D02*
X148590000Y-115426000D01*
X151240000Y-112776000D02*
G75*
G02*
X148590000Y-115426000I-2650000J0D01*
G01*
X148590000Y-92346000D02*
G75*
G02*
X151240000Y-94996000I0J-2650000D01*
G01*
X102870000Y-115426000D02*
G75*
G02*
X100220000Y-112776000I0J2650000D01*
G01*
X100220000Y-94996000D02*
G75*
G02*
X102870000Y-92346000I2650000J0D01*
G01*
X174651000Y-102748000D02*
X174651000Y-103678000D01*
X174651000Y-105908000D02*
X174651000Y-104978000D01*
X174651000Y-105908000D02*
X177811000Y-105908000D01*
X174651000Y-102748000D02*
X176111000Y-102748000D01*
X143731064Y-109072000D02*
X142526936Y-109072000D01*
X143731064Y-110892000D02*
X142526936Y-110892000D01*
X132965436Y-97261000D02*
X134169564Y-97261000D01*
X132965436Y-99081000D02*
X134169564Y-99081000D01*
X188743000Y-90620436D02*
X188743000Y-91824564D01*
X186923000Y-90620436D02*
X186923000Y-91824564D01*
X111607000Y-110993000D02*
X111607000Y-110063000D01*
X111607000Y-107833000D02*
X111607000Y-108763000D01*
X111607000Y-107833000D02*
X108447000Y-107833000D01*
X111607000Y-110993000D02*
X110147000Y-110993000D01*
X188655000Y-95952000D02*
X185995000Y-95952000D01*
X188655000Y-106172000D02*
X188655000Y-95952000D01*
X185995000Y-106172000D02*
X185995000Y-95952000D01*
X188655000Y-106172000D02*
X185995000Y-106172000D01*
X188655000Y-107442000D02*
X188655000Y-108772000D01*
X188655000Y-108772000D02*
X187325000Y-108772000D01*
X118802564Y-106828000D02*
X117598436Y-106828000D01*
X118802564Y-105008000D02*
X117598436Y-105008000D01*
X167746000Y-102993436D02*
X167746000Y-104197564D01*
X169566000Y-102993436D02*
X169566000Y-104197564D01*
X166536000Y-88564000D02*
X167736000Y-88564000D01*
X167736000Y-97964000D02*
X167736000Y-99564000D01*
X166536000Y-97964000D02*
X167736000Y-97964000D01*
X180936000Y-88564000D02*
X179736000Y-88564000D01*
X180936000Y-97964000D02*
X179736000Y-97964000D01*
X166536000Y-97964000D02*
X166536000Y-88564000D01*
X180936000Y-88564000D02*
X180936000Y-97964000D01*
X180936000Y-108538000D02*
X180936000Y-117938000D01*
X166536000Y-117938000D02*
X166536000Y-108538000D01*
X180936000Y-117938000D02*
X179736000Y-117938000D01*
X180936000Y-108538000D02*
X179736000Y-108538000D01*
X166536000Y-117938000D02*
X167736000Y-117938000D01*
X167736000Y-117938000D02*
X167736000Y-119538000D01*
X166536000Y-108538000D02*
X167736000Y-108538000D01*
X159323600Y-114788000D02*
X157523600Y-114788000D01*
X157523600Y-118008000D02*
X159973600Y-118008000D01*
D11*
X123440833Y-100443380D02*
X123107500Y-99967190D01*
X122869404Y-100443380D02*
X122869404Y-99443380D01*
X123250357Y-99443380D01*
X123345595Y-99491000D01*
X123393214Y-99538619D01*
X123440833Y-99633857D01*
X123440833Y-99776714D01*
X123393214Y-99871952D01*
X123345595Y-99919571D01*
X123250357Y-99967190D01*
X122869404Y-99967190D01*
X123774166Y-99443380D02*
X124393214Y-99443380D01*
X124059880Y-99824333D01*
X124202738Y-99824333D01*
X124297976Y-99871952D01*
X124345595Y-99919571D01*
X124393214Y-100014809D01*
X124393214Y-100252904D01*
X124345595Y-100348142D01*
X124297976Y-100395761D01*
X124202738Y-100443380D01*
X123917023Y-100443380D01*
X123821785Y-100395761D01*
X123774166Y-100348142D01*
X121589833Y-110339142D02*
X121542214Y-110386761D01*
X121399357Y-110434380D01*
X121304119Y-110434380D01*
X121161261Y-110386761D01*
X121066023Y-110291523D01*
X121018404Y-110196285D01*
X120970785Y-110005809D01*
X120970785Y-109862952D01*
X121018404Y-109672476D01*
X121066023Y-109577238D01*
X121161261Y-109482000D01*
X121304119Y-109434380D01*
X121399357Y-109434380D01*
X121542214Y-109482000D01*
X121589833Y-109529619D01*
X122446976Y-109434380D02*
X122256500Y-109434380D01*
X122161261Y-109482000D01*
X122113642Y-109529619D01*
X122018404Y-109672476D01*
X121970785Y-109862952D01*
X121970785Y-110243904D01*
X122018404Y-110339142D01*
X122066023Y-110386761D01*
X122161261Y-110434380D01*
X122351738Y-110434380D01*
X122446976Y-110386761D01*
X122494595Y-110339142D01*
X122542214Y-110243904D01*
X122542214Y-110005809D01*
X122494595Y-109910571D01*
X122446976Y-109862952D01*
X122351738Y-109815333D01*
X122161261Y-109815333D01*
X122066023Y-109862952D01*
X122018404Y-109910571D01*
X121970785Y-110005809D01*
X113712714Y-91098666D02*
X114188904Y-91098666D01*
X113617476Y-91384380D02*
X113950809Y-90384380D01*
X114284142Y-91384380D01*
X115141285Y-91384380D02*
X114569857Y-91384380D01*
X114855571Y-91384380D02*
X114855571Y-90384380D01*
X114760333Y-90527238D01*
X114665095Y-90622476D01*
X114569857Y-90670095D01*
X179990761Y-104687619D02*
X179895523Y-104640000D01*
X179800285Y-104544761D01*
X179657428Y-104401904D01*
X179562190Y-104354285D01*
X179466952Y-104354285D01*
X179514571Y-104592380D02*
X179419333Y-104544761D01*
X179324095Y-104449523D01*
X179276476Y-104259047D01*
X179276476Y-103925714D01*
X179324095Y-103735238D01*
X179419333Y-103640000D01*
X179514571Y-103592380D01*
X179705047Y-103592380D01*
X179800285Y-103640000D01*
X179895523Y-103735238D01*
X179943142Y-103925714D01*
X179943142Y-104259047D01*
X179895523Y-104449523D01*
X179800285Y-104544761D01*
X179705047Y-104592380D01*
X179514571Y-104592380D01*
X180895523Y-104592380D02*
X180324095Y-104592380D01*
X180609809Y-104592380D02*
X180609809Y-103592380D01*
X180514571Y-103735238D01*
X180419333Y-103830476D01*
X180324095Y-103878095D01*
X142962333Y-112254380D02*
X142629000Y-111778190D01*
X142390904Y-112254380D02*
X142390904Y-111254380D01*
X142771857Y-111254380D01*
X142867095Y-111302000D01*
X142914714Y-111349619D01*
X142962333Y-111444857D01*
X142962333Y-111587714D01*
X142914714Y-111682952D01*
X142867095Y-111730571D01*
X142771857Y-111778190D01*
X142390904Y-111778190D01*
X143914714Y-112254380D02*
X143343285Y-112254380D01*
X143629000Y-112254380D02*
X143629000Y-111254380D01*
X143533761Y-111397238D01*
X143438523Y-111492476D01*
X143343285Y-111540095D01*
X133400833Y-96803380D02*
X133067500Y-96327190D01*
X132829404Y-96803380D02*
X132829404Y-95803380D01*
X133210357Y-95803380D01*
X133305595Y-95851000D01*
X133353214Y-95898619D01*
X133400833Y-95993857D01*
X133400833Y-96136714D01*
X133353214Y-96231952D01*
X133305595Y-96279571D01*
X133210357Y-96327190D01*
X132829404Y-96327190D01*
X133781785Y-95898619D02*
X133829404Y-95851000D01*
X133924642Y-95803380D01*
X134162738Y-95803380D01*
X134257976Y-95851000D01*
X134305595Y-95898619D01*
X134353214Y-95993857D01*
X134353214Y-96089095D01*
X134305595Y-96231952D01*
X133734166Y-96803380D01*
X134353214Y-96803380D01*
X190105380Y-91865357D02*
X189629190Y-92198690D01*
X190105380Y-92436785D02*
X189105380Y-92436785D01*
X189105380Y-92055833D01*
X189153000Y-91960595D01*
X189200619Y-91912976D01*
X189295857Y-91865357D01*
X189438714Y-91865357D01*
X189533952Y-91912976D01*
X189581571Y-91960595D01*
X189629190Y-92055833D01*
X189629190Y-92436785D01*
X190105380Y-90912976D02*
X190105380Y-91484404D01*
X190105380Y-91198690D02*
X189105380Y-91198690D01*
X189248238Y-91293928D01*
X189343476Y-91389166D01*
X189391095Y-91484404D01*
X189105380Y-90293928D02*
X189105380Y-90198690D01*
X189153000Y-90103452D01*
X189200619Y-90055833D01*
X189295857Y-90008214D01*
X189486333Y-89960595D01*
X189724428Y-89960595D01*
X189914904Y-90008214D01*
X190010142Y-90055833D01*
X190057761Y-90103452D01*
X190105380Y-90198690D01*
X190105380Y-90293928D01*
X190057761Y-90389166D01*
X190010142Y-90436785D01*
X189914904Y-90484404D01*
X189724428Y-90532023D01*
X189486333Y-90532023D01*
X189295857Y-90484404D01*
X189200619Y-90436785D01*
X189153000Y-90389166D01*
X189105380Y-90293928D01*
X110108904Y-107365380D02*
X110108904Y-106365380D01*
X110347000Y-106365380D01*
X110489857Y-106413000D01*
X110585095Y-106508238D01*
X110632714Y-106603476D01*
X110680333Y-106793952D01*
X110680333Y-106936809D01*
X110632714Y-107127285D01*
X110585095Y-107222523D01*
X110489857Y-107317761D01*
X110347000Y-107365380D01*
X110108904Y-107365380D01*
X111061285Y-106460619D02*
X111108904Y-106413000D01*
X111204142Y-106365380D01*
X111442238Y-106365380D01*
X111537476Y-106413000D01*
X111585095Y-106460619D01*
X111632714Y-106555857D01*
X111632714Y-106651095D01*
X111585095Y-106793952D01*
X111013666Y-107365380D01*
X111632714Y-107365380D01*
X186991666Y-109224380D02*
X186991666Y-109938666D01*
X186944047Y-110081523D01*
X186848809Y-110176761D01*
X186705952Y-110224380D01*
X186610714Y-110224380D01*
X187991666Y-110224380D02*
X187420238Y-110224380D01*
X187705952Y-110224380D02*
X187705952Y-109224380D01*
X187610714Y-109367238D01*
X187515476Y-109462476D01*
X187420238Y-109510095D01*
X121785142Y-106370380D02*
X121451809Y-105894190D01*
X121213714Y-106370380D02*
X121213714Y-105370380D01*
X121594666Y-105370380D01*
X121689904Y-105418000D01*
X121737523Y-105465619D01*
X121785142Y-105560857D01*
X121785142Y-105703714D01*
X121737523Y-105798952D01*
X121689904Y-105846571D01*
X121594666Y-105894190D01*
X121213714Y-105894190D01*
X122737523Y-106370380D02*
X122166095Y-106370380D01*
X122451809Y-106370380D02*
X122451809Y-105370380D01*
X122356571Y-105513238D01*
X122261333Y-105608476D01*
X122166095Y-105656095D01*
X123689904Y-106370380D02*
X123118476Y-106370380D01*
X123404190Y-106370380D02*
X123404190Y-105370380D01*
X123308952Y-105513238D01*
X123213714Y-105608476D01*
X123118476Y-105656095D01*
X165377904Y-105354380D02*
X165377904Y-104354380D01*
X165616000Y-104354380D01*
X165758857Y-104402000D01*
X165854095Y-104497238D01*
X165901714Y-104592476D01*
X165949333Y-104782952D01*
X165949333Y-104925809D01*
X165901714Y-105116285D01*
X165854095Y-105211523D01*
X165758857Y-105306761D01*
X165616000Y-105354380D01*
X165377904Y-105354380D01*
X166901714Y-105354380D02*
X166330285Y-105354380D01*
X166616000Y-105354380D02*
X166616000Y-104354380D01*
X166520761Y-104497238D01*
X166425523Y-104592476D01*
X166330285Y-104640095D01*
X166088380Y-94002095D02*
X165088380Y-94002095D01*
X166088380Y-93430666D02*
X165516952Y-93859238D01*
X165088380Y-93430666D02*
X165659809Y-94002095D01*
X166088380Y-92478285D02*
X166088380Y-93049714D01*
X166088380Y-92764000D02*
X165088380Y-92764000D01*
X165231238Y-92859238D01*
X165326476Y-92954476D01*
X165374095Y-93049714D01*
X166088380Y-113976095D02*
X165088380Y-113976095D01*
X166088380Y-113404666D02*
X165516952Y-113833238D01*
X165088380Y-113404666D02*
X165659809Y-113976095D01*
X165183619Y-113023714D02*
X165136000Y-112976095D01*
X165088380Y-112880857D01*
X165088380Y-112642761D01*
X165136000Y-112547523D01*
X165183619Y-112499904D01*
X165278857Y-112452285D01*
X165374095Y-112452285D01*
X165516952Y-112499904D01*
X166088380Y-113071333D01*
X166088380Y-112452285D01*
X157661695Y-118750380D02*
X157661695Y-119559904D01*
X157709314Y-119655142D01*
X157756933Y-119702761D01*
X157852171Y-119750380D01*
X158042647Y-119750380D01*
X158137885Y-119702761D01*
X158185504Y-119655142D01*
X158233123Y-119559904D01*
X158233123Y-118750380D01*
X158614076Y-118750380D02*
X159280742Y-118750380D01*
X158852171Y-119750380D01*
%LPC*%
D12*
X200450142Y-85509571D02*
X200450142Y-84009571D01*
X202235857Y-83938142D02*
X200950142Y-85866714D01*
X203021571Y-84009571D02*
X203307285Y-84009571D01*
X203450142Y-84081000D01*
X203593000Y-84223857D01*
X203664428Y-84509571D01*
X203664428Y-85009571D01*
X203593000Y-85295285D01*
X203450142Y-85438142D01*
X203307285Y-85509571D01*
X203021571Y-85509571D01*
X202878714Y-85438142D01*
X202735857Y-85295285D01*
X202664428Y-85009571D01*
X202664428Y-84509571D01*
X202735857Y-84223857D01*
X202878714Y-84081000D01*
X203021571Y-84009571D01*
X205950142Y-84723857D02*
X206164428Y-84795285D01*
X206235857Y-84866714D01*
X206307285Y-85009571D01*
X206307285Y-85223857D01*
X206235857Y-85366714D01*
X206164428Y-85438142D01*
X206021571Y-85509571D01*
X205450142Y-85509571D01*
X205450142Y-84009571D01*
X205950142Y-84009571D01*
X206093000Y-84081000D01*
X206164428Y-84152428D01*
X206235857Y-84295285D01*
X206235857Y-84438142D01*
X206164428Y-84581000D01*
X206093000Y-84652428D01*
X205950142Y-84723857D01*
X205450142Y-84723857D01*
X207164428Y-85509571D02*
X207021571Y-85438142D01*
X206950142Y-85366714D01*
X206878714Y-85223857D01*
X206878714Y-84795285D01*
X206950142Y-84652428D01*
X207021571Y-84581000D01*
X207164428Y-84509571D01*
X207378714Y-84509571D01*
X207521571Y-84581000D01*
X207593000Y-84652428D01*
X207664428Y-84795285D01*
X207664428Y-85223857D01*
X207593000Y-85366714D01*
X207521571Y-85438142D01*
X207378714Y-85509571D01*
X207164428Y-85509571D01*
X208950142Y-85509571D02*
X208950142Y-84723857D01*
X208878714Y-84581000D01*
X208735857Y-84509571D01*
X208450142Y-84509571D01*
X208307285Y-84581000D01*
X208950142Y-85438142D02*
X208807285Y-85509571D01*
X208450142Y-85509571D01*
X208307285Y-85438142D01*
X208235857Y-85295285D01*
X208235857Y-85152428D01*
X208307285Y-85009571D01*
X208450142Y-84938142D01*
X208807285Y-84938142D01*
X208950142Y-84866714D01*
X209664428Y-85509571D02*
X209664428Y-84509571D01*
X209664428Y-84795285D02*
X209735857Y-84652428D01*
X209807285Y-84581000D01*
X209950142Y-84509571D01*
X210093000Y-84509571D01*
X211235857Y-85509571D02*
X211235857Y-84009571D01*
X211235857Y-85438142D02*
X211093000Y-85509571D01*
X210807285Y-85509571D01*
X210664428Y-85438142D01*
X210593000Y-85366714D01*
X210521571Y-85223857D01*
X210521571Y-84795285D01*
X210593000Y-84652428D01*
X210664428Y-84581000D01*
X210807285Y-84509571D01*
X211093000Y-84509571D01*
X211235857Y-84581000D01*
X200235857Y-86559571D02*
X201093000Y-86559571D01*
X200664428Y-88059571D02*
X200664428Y-86559571D01*
X201807285Y-88059571D02*
X201664428Y-87988142D01*
X201593000Y-87916714D01*
X201521571Y-87773857D01*
X201521571Y-87345285D01*
X201593000Y-87202428D01*
X201664428Y-87131000D01*
X201807285Y-87059571D01*
X202021571Y-87059571D01*
X202164428Y-87131000D01*
X202235857Y-87202428D01*
X202307285Y-87345285D01*
X202307285Y-87773857D01*
X202235857Y-87916714D01*
X202164428Y-87988142D01*
X202021571Y-88059571D01*
X201807285Y-88059571D01*
X202950142Y-87059571D02*
X202950142Y-88559571D01*
X202950142Y-87131000D02*
X203093000Y-87059571D01*
X203378714Y-87059571D01*
X203521571Y-87131000D01*
X203593000Y-87202428D01*
X203664428Y-87345285D01*
X203664428Y-87773857D01*
X203593000Y-87916714D01*
X203521571Y-87988142D01*
X203378714Y-88059571D01*
X203093000Y-88059571D01*
X202950142Y-87988142D01*
X205378714Y-87988142D02*
X205593000Y-88059571D01*
X205950142Y-88059571D01*
X206093000Y-87988142D01*
X206164428Y-87916714D01*
X206235857Y-87773857D01*
X206235857Y-87631000D01*
X206164428Y-87488142D01*
X206093000Y-87416714D01*
X205950142Y-87345285D01*
X205664428Y-87273857D01*
X205521571Y-87202428D01*
X205450142Y-87131000D01*
X205378714Y-86988142D01*
X205378714Y-86845285D01*
X205450142Y-86702428D01*
X205521571Y-86631000D01*
X205664428Y-86559571D01*
X206021571Y-86559571D01*
X206235857Y-86631000D01*
X206878714Y-88059571D02*
X206878714Y-87059571D01*
X206878714Y-86559571D02*
X206807285Y-86631000D01*
X206878714Y-86702428D01*
X206950142Y-86631000D01*
X206878714Y-86559571D01*
X206878714Y-86702428D01*
X208235857Y-88059571D02*
X208235857Y-86559571D01*
X208235857Y-87988142D02*
X208093000Y-88059571D01*
X207807285Y-88059571D01*
X207664428Y-87988142D01*
X207593000Y-87916714D01*
X207521571Y-87773857D01*
X207521571Y-87345285D01*
X207593000Y-87202428D01*
X207664428Y-87131000D01*
X207807285Y-87059571D01*
X208093000Y-87059571D01*
X208235857Y-87131000D01*
X209521571Y-87988142D02*
X209378714Y-88059571D01*
X209093000Y-88059571D01*
X208950142Y-87988142D01*
X208878714Y-87845285D01*
X208878714Y-87273857D01*
X208950142Y-87131000D01*
X209093000Y-87059571D01*
X209378714Y-87059571D01*
X209521571Y-87131000D01*
X209593000Y-87273857D01*
X209593000Y-87416714D01*
X208878714Y-87559571D01*
X211307285Y-87988142D02*
X211521571Y-88059571D01*
X211878714Y-88059571D01*
X212021571Y-87988142D01*
X212093000Y-87916714D01*
X212164428Y-87773857D01*
X212164428Y-87631000D01*
X212093000Y-87488142D01*
X212021571Y-87416714D01*
X211878714Y-87345285D01*
X211593000Y-87273857D01*
X211450142Y-87202428D01*
X211378714Y-87131000D01*
X211307285Y-86988142D01*
X211307285Y-86845285D01*
X211378714Y-86702428D01*
X211450142Y-86631000D01*
X211593000Y-86559571D01*
X211950142Y-86559571D01*
X212164428Y-86631000D01*
X213021571Y-88059571D02*
X212878714Y-87988142D01*
X212807285Y-87916714D01*
X212735857Y-87773857D01*
X212735857Y-87345285D01*
X212807285Y-87202428D01*
X212878714Y-87131000D01*
X213021571Y-87059571D01*
X213235857Y-87059571D01*
X213378714Y-87131000D01*
X213450142Y-87202428D01*
X213521571Y-87345285D01*
X213521571Y-87773857D01*
X213450142Y-87916714D01*
X213378714Y-87988142D01*
X213235857Y-88059571D01*
X213021571Y-88059571D01*
X214378714Y-88059571D02*
X214235857Y-87988142D01*
X214164428Y-87845285D01*
X214164428Y-86559571D01*
X215593000Y-88059571D02*
X215593000Y-86559571D01*
X215593000Y-87988142D02*
X215450142Y-88059571D01*
X215164428Y-88059571D01*
X215021571Y-87988142D01*
X214950142Y-87916714D01*
X214878714Y-87773857D01*
X214878714Y-87345285D01*
X214950142Y-87202428D01*
X215021571Y-87131000D01*
X215164428Y-87059571D01*
X215450142Y-87059571D01*
X215593000Y-87131000D01*
X216878714Y-87988142D02*
X216735857Y-88059571D01*
X216450142Y-88059571D01*
X216307285Y-87988142D01*
X216235857Y-87845285D01*
X216235857Y-87273857D01*
X216307285Y-87131000D01*
X216450142Y-87059571D01*
X216735857Y-87059571D01*
X216878714Y-87131000D01*
X216950142Y-87273857D01*
X216950142Y-87416714D01*
X216235857Y-87559571D01*
X217593000Y-88059571D02*
X217593000Y-87059571D01*
X217593000Y-87345285D02*
X217664428Y-87202428D01*
X217735857Y-87131000D01*
X217878714Y-87059571D01*
X218021571Y-87059571D01*
X219664428Y-88059571D02*
X219664428Y-86559571D01*
X220164428Y-87631000D01*
X220664428Y-86559571D01*
X220664428Y-88059571D01*
X222021571Y-88059571D02*
X222021571Y-87273857D01*
X221950142Y-87131000D01*
X221807285Y-87059571D01*
X221521571Y-87059571D01*
X221378714Y-87131000D01*
X222021571Y-87988142D02*
X221878714Y-88059571D01*
X221521571Y-88059571D01*
X221378714Y-87988142D01*
X221307285Y-87845285D01*
X221307285Y-87702428D01*
X221378714Y-87559571D01*
X221521571Y-87488142D01*
X221878714Y-87488142D01*
X222021571Y-87416714D01*
X222664428Y-87988142D02*
X222807285Y-88059571D01*
X223093000Y-88059571D01*
X223235857Y-87988142D01*
X223307285Y-87845285D01*
X223307285Y-87773857D01*
X223235857Y-87631000D01*
X223093000Y-87559571D01*
X222878714Y-87559571D01*
X222735857Y-87488142D01*
X222664428Y-87345285D01*
X222664428Y-87273857D01*
X222735857Y-87131000D01*
X222878714Y-87059571D01*
X223093000Y-87059571D01*
X223235857Y-87131000D01*
X223950142Y-88059571D02*
X223950142Y-86559571D01*
X224093000Y-87488142D02*
X224521571Y-88059571D01*
X224521571Y-87059571D02*
X223950142Y-87631000D01*
G36*
G01*
X125807500Y-97546000D02*
X125807500Y-98796000D01*
G75*
G02*
X125557500Y-99046000I-250000J0D01*
G01*
X124632500Y-99046000D01*
G75*
G02*
X124382500Y-98796000I0J250000D01*
G01*
X124382500Y-97546000D01*
G75*
G02*
X124632500Y-97296000I250000J0D01*
G01*
X125557500Y-97296000D01*
G75*
G02*
X125807500Y-97546000I0J-250000D01*
G01*
G37*
G36*
G01*
X122832500Y-97546000D02*
X122832500Y-98796000D01*
G75*
G02*
X122582500Y-99046000I-250000J0D01*
G01*
X121657500Y-99046000D01*
G75*
G02*
X121407500Y-98796000I0J250000D01*
G01*
X121407500Y-97546000D01*
G75*
G02*
X121657500Y-97296000I250000J0D01*
G01*
X122582500Y-97296000D01*
G75*
G02*
X122832500Y-97546000I0J-250000D01*
G01*
G37*
G36*
G01*
X118975500Y-110607000D02*
X118975500Y-109357000D01*
G75*
G02*
X119225500Y-109107000I250000J0D01*
G01*
X120150500Y-109107000D01*
G75*
G02*
X120400500Y-109357000I0J-250000D01*
G01*
X120400500Y-110607000D01*
G75*
G02*
X120150500Y-110857000I-250000J0D01*
G01*
X119225500Y-110857000D01*
G75*
G02*
X118975500Y-110607000I0J250000D01*
G01*
G37*
G36*
G01*
X116000500Y-110607000D02*
X116000500Y-109357000D01*
G75*
G02*
X116250500Y-109107000I250000J0D01*
G01*
X117175500Y-109107000D01*
G75*
G02*
X117425500Y-109357000I0J-250000D01*
G01*
X117425500Y-110607000D01*
G75*
G02*
X117175500Y-110857000I-250000J0D01*
G01*
X116250500Y-110857000D01*
G75*
G02*
X116000500Y-110607000I0J250000D01*
G01*
G37*
D15*
X144780000Y-114046000D03*
X142240000Y-114046000D03*
X139700000Y-114046000D03*
X137160000Y-114046000D03*
X134620000Y-114046000D03*
X132080000Y-114046000D03*
X129540000Y-114046000D03*
X127000000Y-114046000D03*
X124460000Y-114046000D03*
X121920000Y-114046000D03*
X119380000Y-114046000D03*
X116840000Y-114046000D03*
X114300000Y-114046000D03*
X111760000Y-114046000D03*
X109220000Y-114046000D03*
D16*
X106680000Y-114046000D03*
D15*
X116840000Y-93726000D03*
X119380000Y-93726000D03*
X121920000Y-93726000D03*
X124460000Y-93726000D03*
X127000000Y-93726000D03*
X129540000Y-93726000D03*
X132080000Y-93726000D03*
X134620000Y-93726000D03*
X137160000Y-93726000D03*
X139700000Y-93726000D03*
X142240000Y-93726000D03*
X144780000Y-93726000D03*
D17*
X176911000Y-105278000D03*
X176911000Y-103378000D03*
X173911000Y-104328000D03*
G36*
G01*
X142354000Y-109357000D02*
X142354000Y-110607000D01*
G75*
G02*
X142104000Y-110857000I-250000J0D01*
G01*
X141179000Y-110857000D01*
G75*
G02*
X140929000Y-110607000I0J250000D01*
G01*
X140929000Y-109357000D01*
G75*
G02*
X141179000Y-109107000I250000J0D01*
G01*
X142104000Y-109107000D01*
G75*
G02*
X142354000Y-109357000I0J-250000D01*
G01*
G37*
G36*
G01*
X145329000Y-109357000D02*
X145329000Y-110607000D01*
G75*
G02*
X145079000Y-110857000I-250000J0D01*
G01*
X144154000Y-110857000D01*
G75*
G02*
X143904000Y-110607000I0J250000D01*
G01*
X143904000Y-109357000D01*
G75*
G02*
X144154000Y-109107000I250000J0D01*
G01*
X145079000Y-109107000D01*
G75*
G02*
X145329000Y-109357000I0J-250000D01*
G01*
G37*
G36*
G01*
X131367500Y-98796000D02*
X131367500Y-97546000D01*
G75*
G02*
X131617500Y-97296000I250000J0D01*
G01*
X132542500Y-97296000D01*
G75*
G02*
X132792500Y-97546000I0J-250000D01*
G01*
X132792500Y-98796000D01*
G75*
G02*
X132542500Y-99046000I-250000J0D01*
G01*
X131617500Y-99046000D01*
G75*
G02*
X131367500Y-98796000I0J250000D01*
G01*
G37*
G36*
G01*
X134342500Y-98796000D02*
X134342500Y-97546000D01*
G75*
G02*
X134592500Y-97296000I250000J0D01*
G01*
X135517500Y-97296000D01*
G75*
G02*
X135767500Y-97546000I0J-250000D01*
G01*
X135767500Y-98796000D01*
G75*
G02*
X135517500Y-99046000I-250000J0D01*
G01*
X134592500Y-99046000D01*
G75*
G02*
X134342500Y-98796000I0J250000D01*
G01*
G37*
G36*
G01*
X187208000Y-89022500D02*
X188458000Y-89022500D01*
G75*
G02*
X188708000Y-89272500I0J-250000D01*
G01*
X188708000Y-90197500D01*
G75*
G02*
X188458000Y-90447500I-250000J0D01*
G01*
X187208000Y-90447500D01*
G75*
G02*
X186958000Y-90197500I0J250000D01*
G01*
X186958000Y-89272500D01*
G75*
G02*
X187208000Y-89022500I250000J0D01*
G01*
G37*
G36*
G01*
X187208000Y-91997500D02*
X188458000Y-91997500D01*
G75*
G02*
X188708000Y-92247500I0J-250000D01*
G01*
X188708000Y-93172500D01*
G75*
G02*
X188458000Y-93422500I-250000J0D01*
G01*
X187208000Y-93422500D01*
G75*
G02*
X186958000Y-93172500I0J250000D01*
G01*
X186958000Y-92247500D01*
G75*
G02*
X187208000Y-91997500I250000J0D01*
G01*
G37*
X109347000Y-108463000D03*
X109347000Y-110363000D03*
X112347000Y-109413000D03*
D18*
X187325000Y-107442000D03*
D19*
X187325000Y-104902000D03*
X187325000Y-102362000D03*
X187325000Y-99822000D03*
X187325000Y-97282000D03*
G36*
G01*
X120400500Y-105293000D02*
X120400500Y-106543000D01*
G75*
G02*
X120150500Y-106793000I-250000J0D01*
G01*
X119225500Y-106793000D01*
G75*
G02*
X118975500Y-106543000I0J250000D01*
G01*
X118975500Y-105293000D01*
G75*
G02*
X119225500Y-105043000I250000J0D01*
G01*
X120150500Y-105043000D01*
G75*
G02*
X120400500Y-105293000I0J-250000D01*
G01*
G37*
G36*
G01*
X117425500Y-105293000D02*
X117425500Y-106543000D01*
G75*
G02*
X117175500Y-106793000I-250000J0D01*
G01*
X116250500Y-106793000D01*
G75*
G02*
X116000500Y-106543000I0J250000D01*
G01*
X116000500Y-105293000D01*
G75*
G02*
X116250500Y-105043000I250000J0D01*
G01*
X117175500Y-105043000D01*
G75*
G02*
X117425500Y-105293000I0J-250000D01*
G01*
G37*
G36*
G01*
X168031000Y-104370500D02*
X169281000Y-104370500D01*
G75*
G02*
X169531000Y-104620500I0J-250000D01*
G01*
X169531000Y-105545500D01*
G75*
G02*
X169281000Y-105795500I-250000J0D01*
G01*
X168031000Y-105795500D01*
G75*
G02*
X167781000Y-105545500I0J250000D01*
G01*
X167781000Y-104620500D01*
G75*
G02*
X168031000Y-104370500I250000J0D01*
G01*
G37*
G36*
G01*
X168031000Y-101395500D02*
X169281000Y-101395500D01*
G75*
G02*
X169531000Y-101645500I0J-250000D01*
G01*
X169531000Y-102570500D01*
G75*
G02*
X169281000Y-102820500I-250000J0D01*
G01*
X168031000Y-102820500D01*
G75*
G02*
X167781000Y-102570500I0J250000D01*
G01*
X167781000Y-101645500D01*
G75*
G02*
X168031000Y-101395500I250000J0D01*
G01*
G37*
D20*
X168656000Y-88484000D03*
X171196000Y-88484000D03*
X173736000Y-88484000D03*
X176276000Y-88484000D03*
X178816000Y-88484000D03*
X178816000Y-98044000D03*
X176276000Y-98044000D03*
X173736000Y-98044000D03*
X171196000Y-98044000D03*
X168656000Y-98044000D03*
X168656000Y-118018000D03*
X171196000Y-118018000D03*
X173736000Y-118018000D03*
X176276000Y-118018000D03*
X178816000Y-118018000D03*
X178816000Y-108458000D03*
X176276000Y-108458000D03*
X173736000Y-108458000D03*
X171196000Y-108458000D03*
X168656000Y-108458000D03*
D21*
X159773600Y-117348000D03*
X159773600Y-116398000D03*
X159773600Y-115448000D03*
X157073600Y-115448000D03*
X157073600Y-117348000D03*
M02*
