  0
SECTION
  2
HEADER
  9
$ANGBASE
  50
0.0
  9
$ANGDIR
  70
1
  9
$MEASUREMENT
  70
1
  0
ENDSEC
  0
SECTION
  2
TABLES
  0
TABLE
  2
LTYPE
  70
4
  0
LTYPE
  5
40F
  2
CONTINUOUS
  70
0
  3
Solid line
  72
65
  73
0
  40
0.0
  0
LTYPE
  5
410
  2
DASHDOT
 70
0
  3
Dash Dot ____ _ ____ _
 72
65
 73
4
 40
2.0
 49
1.25
 49
-0.25
 49
0.25
 49
-0.25
  0
LTYPE
  5
411
  2
DASHED
 70
0
  3
Dashed __ __ __ __ __
 72
65
 73
2
 40
0.75
 49
0.5
 49
-0.25
  0
LTYPE
  5
43B
  2
DOTTED
 70
0
  3
Dotted .  .  .  .
 72
65
 73
2
 40
0.2
 49
0.0
 49
-0.2
  0
ENDTAB
  0
TABLE
  2
STYLE
  70
4
  0
STYLE
  2
KICAD
  70
0
  40
0
  41
1
  42
1
  50
0
  71
0
  3
isocp.shx
  0
STYLE
  2
KICADB
  70
0
  40
0
  41
1
  42
1
  50
0
  71
0
  3
isocp.shx
  0
STYLE
  2
KICADI
  70
0
  40
0
  41
1
  42
1
  50
15
  71
0
  3
isocp.shx
  0
STYLE
  2
KICADBI
  70
0
  40
0
  41
1
  42
1
  50
15
  71
0
  3
isocp.shx
  0
ENDTAB
  0
TABLE
  2
LAYER
  70
1
  0
LAYER
  2
BLACK
  70
0
  62
7
  6
CONTINUOUS
  0
ENDTAB
  0
ENDSEC
  0
SECTION
  2
ENTITIES
0
LINE
8
BLACK
6
CONTINUOUS
10
191.77
20
-121.92
11
102.87
21
-121.92
0
LINE
8
BLACK
6
CONTINUOUS
10
102.87
20
-83.82
11
191.77
21
-83.82
0
LINE
8
BLACK
6
CONTINUOUS
10
191.77
20
-83.82
11
191.77
21
-121.92
0
LINE
8
BLACK
6
CONTINUOUS
10
102.87
20
-121.92
11
102.87
21
-83.82
0
LINE
8
BLACK
6
CONTINUOUS
10
111.212
20
-106.695
11
111.593
21
-107.076
0
LINE
8
BLACK
6
CONTINUOUS
10
111.593
20
-106.695
11
111.212
21
-107.076
0
LINE
8
BLACK
6
CONTINUOUS
10
116.586
20
-102.679
11
116.967
21
-103.06
0
LINE
8
BLACK
6
CONTINUOUS
10
116.967
20
-102.679
11
116.586
21
-103.06
0
LINE
8
BLACK
6
CONTINUOUS
10
119.52
20
-100.825
11
119.901
21
-101.206
0
LINE
8
BLACK
6
CONTINUOUS
10
119.901
20
-100.825
11
119.52
21
-101.206
0
LINE
8
BLACK
6
CONTINUOUS
10
124.904
20
-109.791
11
125.285
21
-110.172
0
LINE
8
BLACK
6
CONTINUOUS
10
125.285
20
-109.791
11
124.904
21
-110.172
0
LINE
8
BLACK
6
CONTINUOUS
10
136.843
20
-106.997
11
137.224
21
-107.378
0
LINE
8
BLACK
6
CONTINUOUS
10
137.224
20
-106.997
11
136.843
21
-107.378
0
LINE
8
BLACK
6
CONTINUOUS
10
136.975
20
-109.405
11
137.356
21
-109.786
0
LINE
8
BLACK
6
CONTINUOUS
10
137.356
20
-109.405
11
136.975
21
-109.786
0
LINE
8
BLACK
6
CONTINUOUS
10
137.477
20
-97.5995
11
137.858
21
-97.9805
0
LINE
8
BLACK
6
CONTINUOUS
10
137.858
20
-97.5995
11
137.477
21
-97.9805
0
LINE
8
BLACK
6
CONTINUOUS
10
138.874
20
-102.425
11
139.255
21
-102.806
0
LINE
8
BLACK
6
CONTINUOUS
10
139.255
20
-102.425
11
138.874
21
-102.806
0
LINE
8
BLACK
6
CONTINUOUS
10
139.636
20
-111.316
11
140.017
21
-111.697
0
LINE
8
BLACK
6
CONTINUOUS
10
140.017
20
-111.316
11
139.636
21
-111.697
0
LINE
8
BLACK
6
CONTINUOUS
10
143.192
20
-106.743
11
143.573
21
-107.124
0
LINE
8
BLACK
6
CONTINUOUS
10
143.573
20
-106.743
11
143.192
21
-107.124
0
LINE
8
BLACK
6
CONTINUOUS
10
146.749
20
-112.331
11
147.13
21
-112.712
0
LINE
8
BLACK
6
CONTINUOUS
10
147.13
20
-112.331
11
146.749
21
-112.712
0
LINE
8
BLACK
6
CONTINUOUS
10
147.13
20
-102.425
11
147.511
21
-102.806
0
LINE
8
BLACK
6
CONTINUOUS
10
147.511
20
-102.425
11
147.13
21
-102.806
0
LINE
8
BLACK
6
CONTINUOUS
10
147.764
20
-110.299
11
148.145
21
-110.68
0
LINE
8
BLACK
6
CONTINUOUS
10
148.145
20
-110.299
11
147.764
21
-110.68
0
LINE
8
BLACK
6
CONTINUOUS
10
151.575
20
-109.537
11
151.956
21
-109.918
0
LINE
8
BLACK
6
CONTINUOUS
10
151.956
20
-109.537
11
151.575
21
-109.918
0
LINE
8
BLACK
6
CONTINUOUS
10
152.082
20
-115.379
11
152.463
21
-115.76
0
LINE
8
BLACK
6
CONTINUOUS
10
152.463
20
-115.379
11
152.082
21
-115.76
0
LINE
8
BLACK
6
CONTINUOUS
10
152.719
20
-112.584
11
153.1
21
-112.965
0
LINE
8
BLACK
6
CONTINUOUS
10
153.1
20
-112.584
11
152.719
21
-112.965
0
LINE
8
BLACK
6
CONTINUOUS
10
153.733
20
-115.379
11
154.114
21
-115.76
0
LINE
8
BLACK
6
CONTINUOUS
10
154.114
20
-115.379
11
153.733
21
-115.76
0
LINE
8
BLACK
6
CONTINUOUS
10
154.242
20
-117.31
11
154.623
21
-117.691
0
LINE
8
BLACK
6
CONTINUOUS
10
154.623
20
-117.31
11
154.242
21
-117.691
0
LINE
8
BLACK
6
CONTINUOUS
10
154.876
20
-97.3455
11
155.257
21
-97.7265
0
LINE
8
BLACK
6
CONTINUOUS
10
155.257
20
-97.3455
11
154.876
21
-97.7265
0
LINE
8
BLACK
6
CONTINUOUS
10
155.638
20
-99.6315
11
156.019
21
-100.012
0
LINE
8
BLACK
6
CONTINUOUS
10
156.019
20
-99.6315
11
155.638
21
-100.012
0
LINE
8
BLACK
6
CONTINUOUS
10
157.924
20
-106.743
11
158.305
21
-107.124
0
LINE
8
BLACK
6
CONTINUOUS
10
158.305
20
-106.743
11
157.924
21
-107.124
0
LINE
8
BLACK
6
CONTINUOUS
10
158.686
20
-99.1235
11
159.067
21
-99.5045
0
LINE
8
BLACK
6
CONTINUOUS
10
159.067
20
-99.1235
11
158.686
21
-99.5045
0
LINE
8
BLACK
6
CONTINUOUS
10
160.21
20
-113.602
11
160.591
21
-113.983
0
LINE
8
BLACK
6
CONTINUOUS
10
160.591
20
-113.602
11
160.21
21
-113.983
0
LINE
8
BLACK
6
CONTINUOUS
10
160.307
20
-103.538
11
160.688
21
-103.919
0
LINE
8
BLACK
6
CONTINUOUS
10
160.688
20
-103.538
11
160.307
21
-103.919
0
LINE
8
BLACK
6
CONTINUOUS
10
161.226
20
-94.0435
11
161.607
21
-94.4245
0
LINE
8
BLACK
6
CONTINUOUS
10
161.607
20
-94.0435
11
161.226
21
-94.4245
0
LINE
8
BLACK
6
CONTINUOUS
10
161.226
20
-107.759
11
161.607
21
-108.14
0
LINE
8
BLACK
6
CONTINUOUS
10
161.607
20
-107.759
11
161.226
21
-108.14
0
LINE
8
BLACK
6
CONTINUOUS
10
161.988
20
-93.0275
11
162.369
21
-93.4085
0
LINE
8
BLACK
6
CONTINUOUS
10
162.369
20
-93.0275
11
161.988
21
-93.4085
0
LINE
8
BLACK
6
CONTINUOUS
10
162.052
20
-106.489
11
162.433
21
-106.87
0
LINE
8
BLACK
6
CONTINUOUS
10
162.433
20
-106.489
11
162.052
21
-106.87
0
LINE
8
BLACK
6
CONTINUOUS
10
163.258
20
-103.441
11
163.639
21
-103.822
0
LINE
8
BLACK
6
CONTINUOUS
10
163.639
20
-103.441
11
163.258
21
-103.822
0
LINE
8
BLACK
6
CONTINUOUS
10
163.335
20
-119.342
11
163.716
21
-119.723
0
LINE
8
BLACK
6
CONTINUOUS
10
163.716
20
-119.342
11
163.335
21
-119.723
0
LINE
8
BLACK
6
CONTINUOUS
10
163.766
20
-98.1075
11
164.147
21
-98.4885
0
LINE
8
BLACK
6
CONTINUOUS
10
164.147
20
-98.1075
11
163.766
21
-98.4885
0
LINE
8
BLACK
6
CONTINUOUS
10
163.766
20
-113.093
11
164.147
21
-113.474
0
LINE
8
BLACK
6
CONTINUOUS
10
164.147
20
-113.093
11
163.766
21
-113.474
0
LINE
8
BLACK
6
CONTINUOUS
10
166.433
20
-118.808
11
166.814
21
-119.189
0
LINE
8
BLACK
6
CONTINUOUS
10
166.814
20
-118.808
11
166.433
21
-119.189
0
LINE
8
BLACK
6
CONTINUOUS
10
166.809
20
-98.0595
11
167.19
21
-98.4405
0
LINE
8
BLACK
6
CONTINUOUS
10
167.19
20
-98.0595
11
166.809
21
-98.4405
0
LINE
8
BLACK
6
CONTINUOUS
10
168.465
20
-113.602
11
168.846
21
-113.983
0
LINE
8
BLACK
6
CONTINUOUS
10
168.846
20
-113.602
11
168.465
21
-113.983
0
LINE
8
BLACK
6
CONTINUOUS
10
170.809
20
-104.559
11
171.19
21
-104.941
0
LINE
8
BLACK
6
CONTINUOUS
10
171.19
20
-104.559
11
170.809
21
-104.941
0
LINE
8
BLACK
6
CONTINUOUS
10
173.546
20
-111.188
11
173.927
21
-111.569
0
LINE
8
BLACK
6
CONTINUOUS
10
173.927
20
-111.188
11
173.546
21
-111.569
0
LINE
8
BLACK
6
CONTINUOUS
10
174.942
20
-91.8845
11
175.323
21
-92.2655
0
LINE
8
BLACK
6
CONTINUOUS
10
175.323
20
-91.8845
11
174.942
21
-92.2655
0
LINE
8
BLACK
6
CONTINUOUS
10
175.196
20
-101.155
11
175.577
21
-101.536
0
LINE
8
BLACK
6
CONTINUOUS
10
175.577
20
-101.155
11
175.196
21
-101.536
0
LINE
8
BLACK
6
CONTINUOUS
10
175.323
20
-94.0435
11
175.704
21
-94.4245
0
LINE
8
BLACK
6
CONTINUOUS
10
175.704
20
-94.0435
11
175.323
21
-94.4245
0
LINE
8
BLACK
6
CONTINUOUS
10
176.085
20
-101.917
11
176.466
21
-102.298
0
LINE
8
BLACK
6
CONTINUOUS
10
176.466
20
-101.917
11
176.085
21
-102.298
0
LINE
8
BLACK
6
CONTINUOUS
10
176.085
20
-114.363
11
176.466
21
-114.744
0
LINE
8
BLACK
6
CONTINUOUS
10
176.466
20
-114.363
11
176.085
21
-114.744
0
LINE
8
BLACK
6
CONTINUOUS
10
177.609
20
-112.459
11
177.99
21
-112.84
0
LINE
8
BLACK
6
CONTINUOUS
10
177.99
20
-112.459
11
177.609
21
-112.84
0
LINE
8
BLACK
6
CONTINUOUS
10
178.498
20
-104.712
11
178.879
21
-105.093
0
LINE
8
BLACK
6
CONTINUOUS
10
178.879
20
-104.712
11
178.498
21
-105.093
0
LINE
8
BLACK
6
CONTINUOUS
10
179.768
20
-100.393
11
180.149
21
-100.774
0
LINE
8
BLACK
6
CONTINUOUS
10
180.149
20
-100.393
11
179.768
21
-100.774
0
LINE
8
BLACK
6
CONTINUOUS
10
181.927
20
-107.124
11
182.308
21
-107.505
0
LINE
8
BLACK
6
CONTINUOUS
10
182.308
20
-107.124
11
181.927
21
-107.505
0
LINE
8
BLACK
6
CONTINUOUS
10
183.197
20
-111.188
11
183.578
21
-111.569
0
LINE
8
BLACK
6
CONTINUOUS
10
183.578
20
-111.188
11
183.197
21
-111.569
0
LINE
8
BLACK
6
CONTINUOUS
10
183.325
20
-103.188
11
183.706
21
-103.569
0
LINE
8
BLACK
6
CONTINUOUS
10
183.706
20
-103.188
11
183.325
21
-103.569
0
LINE
8
BLACK
6
CONTINUOUS
10
184.34
20
-104.076
11
184.721
21
-104.457
0
LINE
8
BLACK
6
CONTINUOUS
10
184.721
20
-104.076
11
184.34
21
-104.457
0
CIRCLE
8
BLACK
10
106.68
20
-114.046
40
0.4
0
CIRCLE
8
BLACK
10
109.22
20
-114.046
40
0.4
0
CIRCLE
8
BLACK
10
111.76
20
-114.046
40
0.4
0
CIRCLE
8
BLACK
10
114.3
20
-114.046
40
0.4
0
CIRCLE
8
BLACK
10
116.84
20
-93.726
40
0.4
0
CIRCLE
8
BLACK
10
116.84
20
-114.046
40
0.4
0
CIRCLE
8
BLACK
10
119.38
20
-93.726
40
0.4
0
CIRCLE
8
BLACK
10
119.38
20
-114.046
40
0.4
0
CIRCLE
8
BLACK
10
121.92
20
-93.726
40
0.4
0
CIRCLE
8
BLACK
10
121.92
20
-114.046
40
0.4
0
CIRCLE
8
BLACK
10
124.46
20
-93.726
40
0.4
0
CIRCLE
8
BLACK
10
124.46
20
-114.046
40
0.4
0
CIRCLE
8
BLACK
10
127
20
-93.726
40
0.4
0
CIRCLE
8
BLACK
10
127
20
-114.046
40
0.4
0
CIRCLE
8
BLACK
10
129.54
20
-93.726
40
0.4
0
CIRCLE
8
BLACK
10
129.54
20
-114.046
40
0.4
0
CIRCLE
8
BLACK
10
132.08
20
-93.726
40
0.4
0
CIRCLE
8
BLACK
10
132.08
20
-114.046
40
0.4
0
CIRCLE
8
BLACK
10
134.62
20
-93.726
40
0.4
0
CIRCLE
8
BLACK
10
134.62
20
-114.046
40
0.4
0
CIRCLE
8
BLACK
10
137.16
20
-93.726
40
0.4
0
CIRCLE
8
BLACK
10
137.16
20
-114.046
40
0.4
0
CIRCLE
8
BLACK
10
139.7
20
-93.726
40
0.4
0
CIRCLE
8
BLACK
10
139.7
20
-114.046
40
0.4
0
CIRCLE
8
BLACK
10
142.24
20
-93.726
40
0.4
0
CIRCLE
8
BLACK
10
142.24
20
-114.046
40
0.4
0
CIRCLE
8
BLACK
10
144.78
20
-93.726
40
0.4
0
CIRCLE
8
BLACK
10
144.78
20
-114.046
40
0.4
0
LINE
8
BLACK
6
CONTINUOUS
10
187.325
20
-96.782
11
187.325
21
-97.782
0
LINE
8
BLACK
6
CONTINUOUS
10
186.825
20
-97.282
11
187.825
21
-97.282
0
LINE
8
BLACK
6
CONTINUOUS
10
187.325
20
-99.322
11
187.325
21
-100.322
0
LINE
8
BLACK
6
CONTINUOUS
10
186.825
20
-99.822
11
187.825
21
-99.822
0
LINE
8
BLACK
6
CONTINUOUS
10
187.325
20
-101.862
11
187.325
21
-102.862
0
LINE
8
BLACK
6
CONTINUOUS
10
186.825
20
-102.362
11
187.825
21
-102.362
0
LINE
8
BLACK
6
CONTINUOUS
10
187.325
20
-104.402
11
187.325
21
-105.402
0
LINE
8
BLACK
6
CONTINUOUS
10
186.825
20
-104.902
11
187.825
21
-104.902
0
LINE
8
BLACK
6
CONTINUOUS
10
187.325
20
-106.942
11
187.325
21
-107.942
0
LINE
8
BLACK
6
CONTINUOUS
10
186.825
20
-107.442
11
187.825
21
-107.442
0
LINE
8
BLACK
6
CONTINUOUS
10
105.371
20
-125.1
11
105.371
21
-123.1
0
LINE
8
BLACK
6
CONTINUOUS
10
105.371
20
-123.1
11
105.847
21
-123.1
0
LINE
8
BLACK
6
CONTINUOUS
10
105.847
20
-123.1
11
106.133
21
-123.195
0
LINE
8
BLACK
6
CONTINUOUS
10
106.133
20
-123.195
11
106.324
21
-123.385
0
LINE
8
BLACK
6
CONTINUOUS
10
106.324
20
-123.385
11
106.419
21
-123.576
0
LINE
8
BLACK
6
CONTINUOUS
10
106.419
20
-123.576
11
106.514
21
-123.957
0
LINE
8
BLACK
6
CONTINUOUS
10
106.514
20
-123.957
11
106.514
21
-124.243
0
LINE
8
BLACK
6
CONTINUOUS
10
106.514
20
-124.243
11
106.419
21
-124.624
0
LINE
8
BLACK
6
CONTINUOUS
10
106.419
20
-124.624
11
106.324
21
-124.814
0
LINE
8
BLACK
6
CONTINUOUS
10
106.324
20
-124.814
11
106.133
21
-125.005
0
LINE
8
BLACK
6
CONTINUOUS
10
106.133
20
-125.005
11
105.847
21
-125.1
0
LINE
8
BLACK
6
CONTINUOUS
10
105.847
20
-125.1
11
105.371
21
-125.1
0
LINE
8
BLACK
6
CONTINUOUS
10
107.371
20
-125.1
11
107.371
21
-123.766
0
LINE
8
BLACK
6
CONTINUOUS
10
107.371
20
-124.147
11
107.466
21
-123.957
0
LINE
8
BLACK
6
CONTINUOUS
10
107.466
20
-123.957
11
107.562
21
-123.862
0
LINE
8
BLACK
6
CONTINUOUS
10
107.562
20
-123.862
11
107.752
21
-123.766
0
LINE
8
BLACK
6
CONTINUOUS
10
107.752
20
-123.766
11
107.943
21
-123.766
0
LINE
8
BLACK
6
CONTINUOUS
10
108.609
20
-125.1
11
108.609
21
-123.766
0
LINE
8
BLACK
6
CONTINUOUS
10
108.609
20
-123.1
11
108.514
21
-123.195
0
LINE
8
BLACK
6
CONTINUOUS
10
108.514
20
-123.195
11
108.609
21
-123.29
0
LINE
8
BLACK
6
CONTINUOUS
10
108.609
20
-123.29
11
108.705
21
-123.195
0
LINE
8
BLACK
6
CONTINUOUS
10
108.705
20
-123.195
11
108.609
21
-123.1
0
LINE
8
BLACK
6
CONTINUOUS
10
108.609
20
-123.1
11
108.609
21
-123.29
0
LINE
8
BLACK
6
CONTINUOUS
10
109.847
20
-125.1
11
109.657
21
-125.005
0
LINE
8
BLACK
6
CONTINUOUS
10
109.657
20
-125.005
11
109.562
21
-124.814
0
LINE
8
BLACK
6
CONTINUOUS
10
109.562
20
-124.814
11
109.562
21
-123.1
0
LINE
8
BLACK
6
CONTINUOUS
10
110.895
20
-125.1
11
110.705
21
-125.005
0
LINE
8
BLACK
6
CONTINUOUS
10
110.705
20
-125.005
11
110.609
21
-124.814
0
LINE
8
BLACK
6
CONTINUOUS
10
110.609
20
-124.814
11
110.609
21
-123.1
0
LINE
8
BLACK
6
CONTINUOUS
10
113.181
20
-125.1
11
113.181
21
-123.1
0
LINE
8
BLACK
6
CONTINUOUS
10
113.181
20
-123.1
11
113.847
21
-124.528
0
LINE
8
BLACK
6
CONTINUOUS
10
113.847
20
-124.528
11
114.514
21
-123.1
0
LINE
8
BLACK
6
CONTINUOUS
10
114.514
20
-123.1
11
114.514
21
-125.1
0
LINE
8
BLACK
6
CONTINUOUS
10
116.324
20
-125.1
11
116.324
21
-124.052
0
LINE
8
BLACK
6
CONTINUOUS
10
116.324
20
-124.052
11
116.228
21
-123.862
0
LINE
8
BLACK
6
CONTINUOUS
10
116.228
20
-123.862
11
116.038
21
-123.766
0
LINE
8
BLACK
6
CONTINUOUS
10
116.038
20
-123.766
11
115.657
21
-123.766
0
LINE
8
BLACK
6
CONTINUOUS
10
115.657
20
-123.766
11
115.466
21
-123.862
0
LINE
8
BLACK
6
CONTINUOUS
10
116.324
20
-125.005
11
116.133
21
-125.1
0
LINE
8
BLACK
6
CONTINUOUS
10
116.133
20
-125.1
11
115.657
21
-125.1
0
LINE
8
BLACK
6
CONTINUOUS
10
115.657
20
-125.1
11
115.466
21
-125.005
0
LINE
8
BLACK
6
CONTINUOUS
10
115.466
20
-125.005
11
115.371
21
-124.814
0
LINE
8
BLACK
6
CONTINUOUS
10
115.371
20
-124.814
11
115.371
21
-124.624
0
LINE
8
BLACK
6
CONTINUOUS
10
115.371
20
-124.624
11
115.466
21
-124.433
0
LINE
8
BLACK
6
CONTINUOUS
10
115.466
20
-124.433
11
115.657
21
-124.338
0
LINE
8
BLACK
6
CONTINUOUS
10
115.657
20
-124.338
11
116.133
21
-124.338
0
LINE
8
BLACK
6
CONTINUOUS
10
116.133
20
-124.338
11
116.324
21
-124.243
0
LINE
8
BLACK
6
CONTINUOUS
10
117.276
20
-123.766
11
117.276
21
-125.766
0
LINE
8
BLACK
6
CONTINUOUS
10
117.276
20
-123.862
11
117.466
21
-123.766
0
LINE
8
BLACK
6
CONTINUOUS
10
117.466
20
-123.766
11
117.847
21
-123.766
0
LINE
8
BLACK
6
CONTINUOUS
10
117.847
20
-123.766
11
118.038
21
-123.862
0
LINE
8
BLACK
6
CONTINUOUS
10
118.038
20
-123.862
11
118.133
21
-123.957
0
LINE
8
BLACK
6
CONTINUOUS
10
118.133
20
-123.957
11
118.228
21
-124.147
0
LINE
8
BLACK
6
CONTINUOUS
10
118.228
20
-124.147
11
118.228
21
-124.719
0
LINE
8
BLACK
6
CONTINUOUS
10
118.228
20
-124.719
11
118.133
21
-124.909
0
LINE
8
BLACK
6
CONTINUOUS
10
118.133
20
-124.909
11
118.038
21
-125.005
0
LINE
8
BLACK
6
CONTINUOUS
10
118.038
20
-125.005
11
117.847
21
-125.1
0
LINE
8
BLACK
6
CONTINUOUS
10
117.847
20
-125.1
11
117.466
21
-125.1
0
LINE
8
BLACK
6
CONTINUOUS
10
117.466
20
-125.1
11
117.276
21
-125.005
0
LINE
8
BLACK
6
CONTINUOUS
10
119.085
20
-124.909
11
119.181
21
-125.005
0
LINE
8
BLACK
6
CONTINUOUS
10
119.181
20
-125.005
11
119.085
21
-125.1
0
LINE
8
BLACK
6
CONTINUOUS
10
119.085
20
-125.1
11
118.99
21
-125.005
0
LINE
8
BLACK
6
CONTINUOUS
10
118.99
20
-125.005
11
119.085
21
-124.909
0
LINE
8
BLACK
6
CONTINUOUS
10
119.085
20
-124.909
11
119.085
21
-125.1
0
LINE
8
BLACK
6
CONTINUOUS
10
119.085
20
-123.862
11
119.181
21
-123.957
0
LINE
8
BLACK
6
CONTINUOUS
10
119.181
20
-123.957
11
119.085
21
-124.052
0
LINE
8
BLACK
6
CONTINUOUS
10
119.085
20
-124.052
11
118.99
21
-123.957
0
LINE
8
BLACK
6
CONTINUOUS
10
118.99
20
-123.957
11
119.085
21
-123.862
0
LINE
8
BLACK
6
CONTINUOUS
10
119.085
20
-123.862
11
119.085
21
-124.052
0
LINE
8
BLACK
6
CONTINUOUS
10
102.414
20
-128.204
11
102.795
21
-128.585
0
LINE
8
BLACK
6
CONTINUOUS
10
102.795
20
-128.204
11
102.414
21
-128.585
0
LINE
8
BLACK
6
CONTINUOUS
10
105.752
20
-127.3
11
105.943
21
-127.3
0
LINE
8
BLACK
6
CONTINUOUS
10
105.943
20
-127.3
11
106.133
21
-127.395
0
LINE
8
BLACK
6
CONTINUOUS
10
106.133
20
-127.395
11
106.228
21
-127.49
0
LINE
8
BLACK
6
CONTINUOUS
10
106.228
20
-127.49
11
106.324
21
-127.681
0
LINE
8
BLACK
6
CONTINUOUS
10
106.324
20
-127.681
11
106.419
21
-128.062
0
LINE
8
BLACK
6
CONTINUOUS
10
106.419
20
-128.062
11
106.419
21
-128.538
0
LINE
8
BLACK
6
CONTINUOUS
10
106.419
20
-128.538
11
106.324
21
-128.919
0
LINE
8
BLACK
6
CONTINUOUS
10
106.324
20
-128.919
11
106.228
21
-129.109
0
LINE
8
BLACK
6
CONTINUOUS
10
106.228
20
-129.109
11
106.133
21
-129.205
0
LINE
8
BLACK
6
CONTINUOUS
10
106.133
20
-129.205
11
105.943
21
-129.3
0
LINE
8
BLACK
6
CONTINUOUS
10
105.943
20
-129.3
11
105.752
21
-129.3
0
LINE
8
BLACK
6
CONTINUOUS
10
105.752
20
-129.3
11
105.562
21
-129.205
0
LINE
8
BLACK
6
CONTINUOUS
10
105.562
20
-129.205
11
105.466
21
-129.109
0
LINE
8
BLACK
6
CONTINUOUS
10
105.466
20
-129.109
11
105.371
21
-128.919
0
LINE
8
BLACK
6
CONTINUOUS
10
105.371
20
-128.919
11
105.276
21
-128.538
0
LINE
8
BLACK
6
CONTINUOUS
10
105.276
20
-128.538
11
105.276
21
-128.062
0
LINE
8
BLACK
6
CONTINUOUS
10
105.276
20
-128.062
11
105.371
21
-127.681
0
LINE
8
BLACK
6
CONTINUOUS
10
105.371
20
-127.681
11
105.466
21
-127.49
0
LINE
8
BLACK
6
CONTINUOUS
10
105.466
20
-127.49
11
105.562
21
-127.395
0
LINE
8
BLACK
6
CONTINUOUS
10
105.562
20
-127.395
11
105.752
21
-127.3
0
LINE
8
BLACK
6
CONTINUOUS
10
107.276
20
-129.109
11
107.371
21
-129.205
0
LINE
8
BLACK
6
CONTINUOUS
10
107.371
20
-129.205
11
107.276
21
-129.3
0
LINE
8
BLACK
6
CONTINUOUS
10
107.276
20
-129.3
11
107.181
21
-129.205
0
LINE
8
BLACK
6
CONTINUOUS
10
107.181
20
-129.205
11
107.276
21
-129.109
0
LINE
8
BLACK
6
CONTINUOUS
10
107.276
20
-129.109
11
107.276
21
-129.3
0
LINE
8
BLACK
6
CONTINUOUS
10
108.038
20
-127.3
11
109.276
21
-127.3
0
LINE
8
BLACK
6
CONTINUOUS
10
109.276
20
-127.3
11
108.609
21
-128.062
0
LINE
8
BLACK
6
CONTINUOUS
10
108.609
20
-128.062
11
108.895
21
-128.062
0
LINE
8
BLACK
6
CONTINUOUS
10
108.895
20
-128.062
11
109.085
21
-128.157
0
LINE
8
BLACK
6
CONTINUOUS
10
109.085
20
-128.157
11
109.181
21
-128.252
0
LINE
8
BLACK
6
CONTINUOUS
10
109.181
20
-128.252
11
109.276
21
-128.443
0
LINE
8
BLACK
6
CONTINUOUS
10
109.276
20
-128.443
11
109.276
21
-128.919
0
LINE
8
BLACK
6
CONTINUOUS
10
109.276
20
-128.919
11
109.181
21
-129.109
0
LINE
8
BLACK
6
CONTINUOUS
10
109.181
20
-129.109
11
109.085
21
-129.205
0
LINE
8
BLACK
6
CONTINUOUS
10
109.085
20
-129.205
11
108.895
21
-129.3
0
LINE
8
BLACK
6
CONTINUOUS
10
108.895
20
-129.3
11
108.324
21
-129.3
0
LINE
8
BLACK
6
CONTINUOUS
10
108.324
20
-129.3
11
108.133
21
-129.205
0
LINE
8
BLACK
6
CONTINUOUS
10
108.133
20
-129.205
11
108.038
21
-129.109
0
LINE
8
BLACK
6
CONTINUOUS
10
110.419
20
-128.157
11
110.228
21
-128.062
0
LINE
8
BLACK
6
CONTINUOUS
10
110.228
20
-128.062
11
110.133
21
-127.966
0
LINE
8
BLACK
6
CONTINUOUS
10
110.133
20
-127.966
11
110.038
21
-127.776
0
LINE
8
BLACK
6
CONTINUOUS
10
110.038
20
-127.776
11
110.038
21
-127.681
0
LINE
8
BLACK
6
CONTINUOUS
10
110.038
20
-127.681
11
110.133
21
-127.49
0
LINE
8
BLACK
6
CONTINUOUS
10
110.133
20
-127.49
11
110.228
21
-127.395
0
LINE
8
BLACK
6
CONTINUOUS
10
110.228
20
-127.395
11
110.419
21
-127.3
0
LINE
8
BLACK
6
CONTINUOUS
10
110.419
20
-127.3
11
110.8
21
-127.3
0
LINE
8
BLACK
6
CONTINUOUS
10
110.8
20
-127.3
11
110.99
21
-127.395
0
LINE
8
BLACK
6
CONTINUOUS
10
110.99
20
-127.395
11
111.085
21
-127.49
0
LINE
8
BLACK
6
CONTINUOUS
10
111.085
20
-127.49
11
111.181
21
-127.681
0
LINE
8
BLACK
6
CONTINUOUS
10
111.181
20
-127.681
11
111.181
21
-127.776
0
LINE
8
BLACK
6
CONTINUOUS
10
111.181
20
-127.776
11
111.085
21
-127.966
0
LINE
8
BLACK
6
CONTINUOUS
10
111.085
20
-127.966
11
110.99
21
-128.062
0
LINE
8
BLACK
6
CONTINUOUS
10
110.99
20
-128.062
11
110.8
21
-128.157
0
LINE
8
BLACK
6
CONTINUOUS
10
110.8
20
-128.157
11
110.419
21
-128.157
0
LINE
8
BLACK
6
CONTINUOUS
10
110.419
20
-128.157
11
110.228
21
-128.252
0
LINE
8
BLACK
6
CONTINUOUS
10
110.228
20
-128.252
11
110.133
21
-128.347
0
LINE
8
BLACK
6
CONTINUOUS
10
110.133
20
-128.347
11
110.038
21
-128.538
0
LINE
8
BLACK
6
CONTINUOUS
10
110.038
20
-128.538
11
110.038
21
-128.919
0
LINE
8
BLACK
6
CONTINUOUS
10
110.038
20
-128.919
11
110.133
21
-129.109
0
LINE
8
BLACK
6
CONTINUOUS
10
110.133
20
-129.109
11
110.228
21
-129.205
0
LINE
8
BLACK
6
CONTINUOUS
10
110.228
20
-129.205
11
110.419
21
-129.3
0
LINE
8
BLACK
6
CONTINUOUS
10
110.419
20
-129.3
11
110.8
21
-129.3
0
LINE
8
BLACK
6
CONTINUOUS
10
110.8
20
-129.3
11
110.99
21
-129.205
0
LINE
8
BLACK
6
CONTINUOUS
10
110.99
20
-129.205
11
111.085
21
-129.109
0
LINE
8
BLACK
6
CONTINUOUS
10
111.085
20
-129.109
11
111.181
21
-128.919
0
LINE
8
BLACK
6
CONTINUOUS
10
111.181
20
-128.919
11
111.181
21
-128.538
0
LINE
8
BLACK
6
CONTINUOUS
10
111.181
20
-128.538
11
111.085
21
-128.347
0
LINE
8
BLACK
6
CONTINUOUS
10
111.085
20
-128.347
11
110.99
21
-128.252
0
LINE
8
BLACK
6
CONTINUOUS
10
110.99
20
-128.252
11
110.8
21
-128.157
0
LINE
8
BLACK
6
CONTINUOUS
10
113.085
20
-129.3
11
111.943
21
-129.3
0
LINE
8
BLACK
6
CONTINUOUS
10
112.514
20
-129.3
11
112.514
21
-127.3
0
LINE
8
BLACK
6
CONTINUOUS
10
112.514
20
-127.3
11
112.324
21
-127.585
0
LINE
8
BLACK
6
CONTINUOUS
10
112.324
20
-127.585
11
112.133
21
-127.776
0
LINE
8
BLACK
6
CONTINUOUS
10
112.133
20
-127.776
11
111.943
21
-127.871
0
LINE
8
BLACK
6
CONTINUOUS
10
113.943
20
-129.3
11
113.943
21
-127.966
0
LINE
8
BLACK
6
CONTINUOUS
10
113.943
20
-128.157
11
114.038
21
-128.062
0
LINE
8
BLACK
6
CONTINUOUS
10
114.038
20
-128.062
11
114.228
21
-127.966
0
LINE
8
BLACK
6
CONTINUOUS
10
114.228
20
-127.966
11
114.514
21
-127.966
0
LINE
8
BLACK
6
CONTINUOUS
10
114.514
20
-127.966
11
114.705
21
-128.062
0
LINE
8
BLACK
6
CONTINUOUS
10
114.705
20
-128.062
11
114.8
21
-128.252
0
LINE
8
BLACK
6
CONTINUOUS
10
114.8
20
-128.252
11
114.8
21
-129.3
0
LINE
8
BLACK
6
CONTINUOUS
10
114.8
20
-128.252
11
114.895
21
-128.062
0
LINE
8
BLACK
6
CONTINUOUS
10
114.895
20
-128.062
11
115.085
21
-127.966
0
LINE
8
BLACK
6
CONTINUOUS
10
115.085
20
-127.966
11
115.371
21
-127.966
0
LINE
8
BLACK
6
CONTINUOUS
10
115.371
20
-127.966
11
115.562
21
-128.062
0
LINE
8
BLACK
6
CONTINUOUS
10
115.562
20
-128.062
11
115.657
21
-128.252
0
LINE
8
BLACK
6
CONTINUOUS
10
115.657
20
-128.252
11
115.657
21
-129.3
0
LINE
8
BLACK
6
CONTINUOUS
10
116.609
20
-129.3
11
116.609
21
-127.966
0
LINE
8
BLACK
6
CONTINUOUS
10
116.609
20
-128.157
11
116.705
21
-128.062
0
LINE
8
BLACK
6
CONTINUOUS
10
116.705
20
-128.062
11
116.895
21
-127.966
0
LINE
8
BLACK
6
CONTINUOUS
10
116.895
20
-127.966
11
117.181
21
-127.966
0
LINE
8
BLACK
6
CONTINUOUS
10
117.181
20
-127.966
11
117.371
21
-128.062
0
LINE
8
BLACK
6
CONTINUOUS
10
117.371
20
-128.062
11
117.466
21
-128.252
0
LINE
8
BLACK
6
CONTINUOUS
10
117.466
20
-128.252
11
117.466
21
-129.3
0
LINE
8
BLACK
6
CONTINUOUS
10
117.466
20
-128.252
11
117.562
21
-128.062
0
LINE
8
BLACK
6
CONTINUOUS
10
117.562
20
-128.062
11
117.752
21
-127.966
0
LINE
8
BLACK
6
CONTINUOUS
10
117.752
20
-127.966
11
118.038
21
-127.966
0
LINE
8
BLACK
6
CONTINUOUS
10
118.038
20
-127.966
11
118.228
21
-128.062
0
LINE
8
BLACK
6
CONTINUOUS
10
118.228
20
-128.062
11
118.324
21
-128.252
0
LINE
8
BLACK
6
CONTINUOUS
10
118.324
20
-128.252
11
118.324
21
-129.3
0
LINE
8
BLACK
6
CONTINUOUS
10
122.228
20
-127.205
11
120.514
21
-129.776
0
LINE
8
BLACK
6
CONTINUOUS
10
124.8
20
-127.3
11
124.99
21
-127.3
0
LINE
8
BLACK
6
CONTINUOUS
10
124.99
20
-127.3
11
125.181
21
-127.395
0
LINE
8
BLACK
6
CONTINUOUS
10
125.181
20
-127.395
11
125.276
21
-127.49
0
LINE
8
BLACK
6
CONTINUOUS
10
125.276
20
-127.49
11
125.371
21
-127.681
0
LINE
8
BLACK
6
CONTINUOUS
10
125.371
20
-127.681
11
125.466
21
-128.062
0
LINE
8
BLACK
6
CONTINUOUS
10
125.466
20
-128.062
11
125.466
21
-128.538
0
LINE
8
BLACK
6
CONTINUOUS
10
125.466
20
-128.538
11
125.371
21
-128.919
0
LINE
8
BLACK
6
CONTINUOUS
10
125.371
20
-128.919
11
125.276
21
-129.109
0
LINE
8
BLACK
6
CONTINUOUS
10
125.276
20
-129.109
11
125.181
21
-129.205
0
LINE
8
BLACK
6
CONTINUOUS
10
125.181
20
-129.205
11
124.99
21
-129.3
0
LINE
8
BLACK
6
CONTINUOUS
10
124.99
20
-129.3
11
124.8
21
-129.3
0
LINE
8
BLACK
6
CONTINUOUS
10
124.8
20
-129.3
11
124.609
21
-129.205
0
LINE
8
BLACK
6
CONTINUOUS
10
124.609
20
-129.205
11
124.514
21
-129.109
0
LINE
8
BLACK
6
CONTINUOUS
10
124.514
20
-129.109
11
124.419
21
-128.919
0
LINE
8
BLACK
6
CONTINUOUS
10
124.419
20
-128.919
11
124.324
21
-128.538
0
LINE
8
BLACK
6
CONTINUOUS
10
124.324
20
-128.538
11
124.324
21
-128.062
0
LINE
8
BLACK
6
CONTINUOUS
10
124.324
20
-128.062
11
124.419
21
-127.681
0
LINE
8
BLACK
6
CONTINUOUS
10
124.419
20
-127.681
11
124.514
21
-127.49
0
LINE
8
BLACK
6
CONTINUOUS
10
124.514
20
-127.49
11
124.609
21
-127.395
0
LINE
8
BLACK
6
CONTINUOUS
10
124.609
20
-127.395
11
124.8
21
-127.3
0
LINE
8
BLACK
6
CONTINUOUS
10
126.324
20
-129.109
11
126.419
21
-129.205
0
LINE
8
BLACK
6
CONTINUOUS
10
126.419
20
-129.205
11
126.324
21
-129.3
0
LINE
8
BLACK
6
CONTINUOUS
10
126.324
20
-129.3
11
126.228
21
-129.205
0
LINE
8
BLACK
6
CONTINUOUS
10
126.228
20
-129.205
11
126.324
21
-129.109
0
LINE
8
BLACK
6
CONTINUOUS
10
126.324
20
-129.109
11
126.324
21
-129.3
0
LINE
8
BLACK
6
CONTINUOUS
10
127.657
20
-127.3
11
127.847
21
-127.3
0
LINE
8
BLACK
6
CONTINUOUS
10
127.847
20
-127.3
11
128.038
21
-127.395
0
LINE
8
BLACK
6
CONTINUOUS
10
128.038
20
-127.395
11
128.133
21
-127.49
0
LINE
8
BLACK
6
CONTINUOUS
10
128.133
20
-127.49
11
128.228
21
-127.681
0
LINE
8
BLACK
6
CONTINUOUS
10
128.228
20
-127.681
11
128.324
21
-128.062
0
LINE
8
BLACK
6
CONTINUOUS
10
128.324
20
-128.062
11
128.324
21
-128.538
0
LINE
8
BLACK
6
CONTINUOUS
10
128.324
20
-128.538
11
128.228
21
-128.919
0
LINE
8
BLACK
6
CONTINUOUS
10
128.228
20
-128.919
11
128.133
21
-129.109
0
LINE
8
BLACK
6
CONTINUOUS
10
128.133
20
-129.109
11
128.038
21
-129.205
0
LINE
8
BLACK
6
CONTINUOUS
10
128.038
20
-129.205
11
127.847
21
-129.3
0
LINE
8
BLACK
6
CONTINUOUS
10
127.847
20
-129.3
11
127.657
21
-129.3
0
LINE
8
BLACK
6
CONTINUOUS
10
127.657
20
-129.3
11
127.466
21
-129.205
0
LINE
8
BLACK
6
CONTINUOUS
10
127.466
20
-129.205
11
127.371
21
-129.109
0
LINE
8
BLACK
6
CONTINUOUS
10
127.371
20
-129.109
11
127.276
21
-128.919
0
LINE
8
BLACK
6
CONTINUOUS
10
127.276
20
-128.919
11
127.181
21
-128.538
0
LINE
8
BLACK
6
CONTINUOUS
10
127.181
20
-128.538
11
127.181
21
-128.062
0
LINE
8
BLACK
6
CONTINUOUS
10
127.181
20
-128.062
11
127.276
21
-127.681
0
LINE
8
BLACK
6
CONTINUOUS
10
127.276
20
-127.681
11
127.371
21
-127.49
0
LINE
8
BLACK
6
CONTINUOUS
10
127.371
20
-127.49
11
127.466
21
-127.395
0
LINE
8
BLACK
6
CONTINUOUS
10
127.466
20
-127.395
11
127.657
21
-127.3
0
LINE
8
BLACK
6
CONTINUOUS
10
130.228
20
-129.3
11
129.085
21
-129.3
0
LINE
8
BLACK
6
CONTINUOUS
10
129.657
20
-129.3
11
129.657
21
-127.3
0
LINE
8
BLACK
6
CONTINUOUS
10
129.657
20
-127.3
11
129.466
21
-127.585
0
LINE
8
BLACK
6
CONTINUOUS
10
129.466
20
-127.585
11
129.276
21
-127.776
0
LINE
8
BLACK
6
CONTINUOUS
10
129.276
20
-127.776
11
129.085
21
-127.871
0
LINE
8
BLACK
6
CONTINUOUS
10
132.038
20
-127.3
11
131.085
21
-127.3
0
LINE
8
BLACK
6
CONTINUOUS
10
131.085
20
-127.3
11
130.99
21
-128.252
0
LINE
8
BLACK
6
CONTINUOUS
10
130.99
20
-128.252
11
131.085
21
-128.157
0
LINE
8
BLACK
6
CONTINUOUS
10
131.085
20
-128.157
11
131.276
21
-128.062
0
LINE
8
BLACK
6
CONTINUOUS
10
131.276
20
-128.062
11
131.752
21
-128.062
0
LINE
8
BLACK
6
CONTINUOUS
10
131.752
20
-128.062
11
131.943
21
-128.157
0
LINE
8
BLACK
6
CONTINUOUS
10
131.943
20
-128.157
11
132.038
21
-128.252
0
LINE
8
BLACK
6
CONTINUOUS
10
132.038
20
-128.252
11
132.133
21
-128.443
0
LINE
8
BLACK
6
CONTINUOUS
10
132.133
20
-128.443
11
132.133
21
-128.919
0
LINE
8
BLACK
6
CONTINUOUS
10
132.133
20
-128.919
11
132.038
21
-129.109
0
LINE
8
BLACK
6
CONTINUOUS
10
132.038
20
-129.109
11
131.943
21
-129.205
0
LINE
8
BLACK
6
CONTINUOUS
10
131.943
20
-129.205
11
131.752
21
-129.3
0
LINE
8
BLACK
6
CONTINUOUS
10
131.752
20
-129.3
11
131.276
21
-129.3
0
LINE
8
BLACK
6
CONTINUOUS
10
131.276
20
-129.3
11
131.085
21
-129.205
0
LINE
8
BLACK
6
CONTINUOUS
10
131.085
20
-129.205
11
130.99
21
-129.109
0
LINE
8
BLACK
6
CONTINUOUS
10
133.371
20
-127.3
11
133.562
21
-127.3
0
LINE
8
BLACK
6
CONTINUOUS
10
133.562
20
-127.3
11
133.752
21
-127.395
0
LINE
8
BLACK
6
CONTINUOUS
10
133.752
20
-127.395
11
133.847
21
-127.49
0
LINE
8
BLACK
6
CONTINUOUS
10
133.847
20
-127.49
11
133.943
21
-127.681
0
LINE
8
BLACK
6
CONTINUOUS
10
133.943
20
-127.681
11
134.038
21
-128.062
0
LINE
8
BLACK
6
CONTINUOUS
10
134.038
20
-128.062
11
134.038
21
-128.538
0
LINE
8
BLACK
6
CONTINUOUS
10
134.038
20
-128.538
11
133.943
21
-128.919
0
LINE
8
BLACK
6
CONTINUOUS
10
133.943
20
-128.919
11
133.847
21
-129.109
0
LINE
8
BLACK
6
CONTINUOUS
10
133.847
20
-129.109
11
133.752
21
-129.205
0
LINE
8
BLACK
6
CONTINUOUS
10
133.752
20
-129.205
11
133.562
21
-129.3
0
LINE
8
BLACK
6
CONTINUOUS
10
133.562
20
-129.3
11
133.371
21
-129.3
0
LINE
8
BLACK
6
CONTINUOUS
10
133.371
20
-129.3
11
133.181
21
-129.205
0
LINE
8
BLACK
6
CONTINUOUS
10
133.181
20
-129.205
11
133.085
21
-129.109
0
LINE
8
BLACK
6
CONTINUOUS
10
133.085
20
-129.109
11
132.99
21
-128.919
0
LINE
8
BLACK
6
CONTINUOUS
10
132.99
20
-128.919
11
132.895
21
-128.538
0
LINE
8
BLACK
6
CONTINUOUS
10
132.895
20
-128.538
11
132.895
21
-128.062
0
LINE
8
BLACK
6
CONTINUOUS
10
132.895
20
-128.062
11
132.99
21
-127.681
0
LINE
8
BLACK
6
CONTINUOUS
10
132.99
20
-127.681
11
133.085
21
-127.49
0
LINE
8
BLACK
6
CONTINUOUS
10
133.085
20
-127.49
11
133.181
21
-127.395
0
LINE
8
BLACK
6
CONTINUOUS
10
133.181
20
-127.395
11
133.371
21
-127.3
0
LINE
8
BLACK
6
CONTINUOUS
10
134.8
20
-127.3
11
134.8
21
-127.681
0
LINE
8
BLACK
6
CONTINUOUS
10
135.562
20
-127.3
11
135.562
21
-127.681
0
LINE
8
BLACK
6
CONTINUOUS
10
138.514
20
-130.062
11
138.419
21
-129.966
0
LINE
8
BLACK
6
CONTINUOUS
10
138.419
20
-129.966
11
138.228
21
-129.681
0
LINE
8
BLACK
6
CONTINUOUS
10
138.228
20
-129.681
11
138.133
21
-129.49
0
LINE
8
BLACK
6
CONTINUOUS
10
138.133
20
-129.49
11
138.038
21
-129.205
0
LINE
8
BLACK
6
CONTINUOUS
10
138.038
20
-129.205
11
137.943
21
-128.728
0
LINE
8
BLACK
6
CONTINUOUS
10
137.943
20
-128.728
11
137.943
21
-128.347
0
LINE
8
BLACK
6
CONTINUOUS
10
137.943
20
-128.347
11
138.038
21
-127.871
0
LINE
8
BLACK
6
CONTINUOUS
10
138.038
20
-127.871
11
138.133
21
-127.585
0
LINE
8
BLACK
6
CONTINUOUS
10
138.133
20
-127.585
11
138.228
21
-127.395
0
LINE
8
BLACK
6
CONTINUOUS
10
138.228
20
-127.395
11
138.419
21
-127.109
0
LINE
8
BLACK
6
CONTINUOUS
10
138.419
20
-127.109
11
138.514
21
-127.014
0
LINE
8
BLACK
6
CONTINUOUS
10
140.133
20
-127.966
11
140.133
21
-129.3
0
LINE
8
BLACK
6
CONTINUOUS
10
139.657
20
-127.205
11
139.181
21
-128.633
0
LINE
8
BLACK
6
CONTINUOUS
10
139.181
20
-128.633
11
140.419
21
-128.633
0
LINE
8
BLACK
6
CONTINUOUS
10
141.276
20
-129.3
11
141.657
21
-129.3
0
LINE
8
BLACK
6
CONTINUOUS
10
141.657
20
-129.3
11
141.847
21
-129.205
0
LINE
8
BLACK
6
CONTINUOUS
10
141.847
20
-129.205
11
141.943
21
-129.109
0
LINE
8
BLACK
6
CONTINUOUS
10
141.943
20
-129.109
11
142.133
21
-128.824
0
LINE
8
BLACK
6
CONTINUOUS
10
142.133
20
-128.824
11
142.228
21
-128.443
0
LINE
8
BLACK
6
CONTINUOUS
10
142.228
20
-128.443
11
142.228
21
-127.681
0
LINE
8
BLACK
6
CONTINUOUS
10
142.228
20
-127.681
11
142.133
21
-127.49
0
LINE
8
BLACK
6
CONTINUOUS
10
142.133
20
-127.49
11
142.038
21
-127.395
0
LINE
8
BLACK
6
CONTINUOUS
10
142.038
20
-127.395
11
141.847
21
-127.3
0
LINE
8
BLACK
6
CONTINUOUS
10
141.847
20
-127.3
11
141.466
21
-127.3
0
LINE
8
BLACK
6
CONTINUOUS
10
141.466
20
-127.3
11
141.276
21
-127.395
0
LINE
8
BLACK
6
CONTINUOUS
10
141.276
20
-127.395
11
141.181
21
-127.49
0
LINE
8
BLACK
6
CONTINUOUS
10
141.181
20
-127.49
11
141.085
21
-127.681
0
LINE
8
BLACK
6
CONTINUOUS
10
141.085
20
-127.681
11
141.085
21
-128.157
0
LINE
8
BLACK
6
CONTINUOUS
10
141.085
20
-128.157
11
141.181
21
-128.347
0
LINE
8
BLACK
6
CONTINUOUS
10
141.181
20
-128.347
11
141.276
21
-128.443
0
LINE
8
BLACK
6
CONTINUOUS
10
141.276
20
-128.443
11
141.466
21
-128.538
0
LINE
8
BLACK
6
CONTINUOUS
10
141.466
20
-128.538
11
141.847
21
-128.538
0
LINE
8
BLACK
6
CONTINUOUS
10
141.847
20
-128.538
11
142.038
21
-128.443
0
LINE
8
BLACK
6
CONTINUOUS
10
142.038
20
-128.443
11
142.133
21
-128.347
0
LINE
8
BLACK
6
CONTINUOUS
10
142.133
20
-128.347
11
142.228
21
-128.157
0
LINE
8
BLACK
6
CONTINUOUS
10
144.609
20
-129.3
11
144.609
21
-127.3
0
LINE
8
BLACK
6
CONTINUOUS
10
145.466
20
-129.3
11
145.466
21
-128.252
0
LINE
8
BLACK
6
CONTINUOUS
10
145.466
20
-128.252
11
145.371
21
-128.062
0
LINE
8
BLACK
6
CONTINUOUS
10
145.371
20
-128.062
11
145.181
21
-127.966
0
LINE
8
BLACK
6
CONTINUOUS
10
145.181
20
-127.966
11
144.895
21
-127.966
0
LINE
8
BLACK
6
CONTINUOUS
10
144.895
20
-127.966
11
144.705
21
-128.062
0
LINE
8
BLACK
6
CONTINUOUS
10
144.705
20
-128.062
11
144.609
21
-128.157
0
LINE
8
BLACK
6
CONTINUOUS
10
146.705
20
-129.3
11
146.514
21
-129.205
0
LINE
8
BLACK
6
CONTINUOUS
10
146.514
20
-129.205
11
146.419
21
-129.109
0
LINE
8
BLACK
6
CONTINUOUS
10
146.419
20
-129.109
11
146.324
21
-128.919
0
LINE
8
BLACK
6
CONTINUOUS
10
146.324
20
-128.919
11
146.324
21
-128.347
0
LINE
8
BLACK
6
CONTINUOUS
10
146.324
20
-128.347
11
146.419
21
-128.157
0
LINE
8
BLACK
6
CONTINUOUS
10
146.419
20
-128.157
11
146.514
21
-128.062
0
LINE
8
BLACK
6
CONTINUOUS
10
146.514
20
-128.062
11
146.705
21
-127.966
0
LINE
8
BLACK
6
CONTINUOUS
10
146.705
20
-127.966
11
146.99
21
-127.966
0
LINE
8
BLACK
6
CONTINUOUS
10
146.99
20
-127.966
11
147.181
21
-128.062
0
LINE
8
BLACK
6
CONTINUOUS
10
147.181
20
-128.062
11
147.276
21
-128.157
0
LINE
8
BLACK
6
CONTINUOUS
10
147.276
20
-128.157
11
147.371
21
-128.347
0
LINE
8
BLACK
6
CONTINUOUS
10
147.371
20
-128.347
11
147.371
21
-128.919
0
LINE
8
BLACK
6
CONTINUOUS
10
147.371
20
-128.919
11
147.276
21
-129.109
0
LINE
8
BLACK
6
CONTINUOUS
10
147.276
20
-129.109
11
147.181
21
-129.205
0
LINE
8
BLACK
6
CONTINUOUS
10
147.181
20
-129.205
11
146.99
21
-129.3
0
LINE
8
BLACK
6
CONTINUOUS
10
146.99
20
-129.3
11
146.705
21
-129.3
0
LINE
8
BLACK
6
CONTINUOUS
10
148.514
20
-129.3
11
148.324
21
-129.205
0
LINE
8
BLACK
6
CONTINUOUS
10
148.324
20
-129.205
11
148.228
21
-129.014
0
LINE
8
BLACK
6
CONTINUOUS
10
148.228
20
-129.014
11
148.228
21
-127.3
0
LINE
8
BLACK
6
CONTINUOUS
10
150.038
20
-129.205
11
149.847
21
-129.3
0
LINE
8
BLACK
6
CONTINUOUS
10
149.847
20
-129.3
11
149.466
21
-129.3
0
LINE
8
BLACK
6
CONTINUOUS
10
149.466
20
-129.3
11
149.276
21
-129.205
0
LINE
8
BLACK
6
CONTINUOUS
10
149.276
20
-129.205
11
149.181
21
-129.014
0
LINE
8
BLACK
6
CONTINUOUS
10
149.181
20
-129.014
11
149.181
21
-128.252
0
LINE
8
BLACK
6
CONTINUOUS
10
149.181
20
-128.252
11
149.276
21
-128.062
0
LINE
8
BLACK
6
CONTINUOUS
10
149.276
20
-128.062
11
149.466
21
-127.966
0
LINE
8
BLACK
6
CONTINUOUS
10
149.466
20
-127.966
11
149.847
21
-127.966
0
LINE
8
BLACK
6
CONTINUOUS
10
149.847
20
-127.966
11
150.038
21
-128.062
0
LINE
8
BLACK
6
CONTINUOUS
10
150.038
20
-128.062
11
150.133
21
-128.252
0
LINE
8
BLACK
6
CONTINUOUS
10
150.133
20
-128.252
11
150.133
21
-128.443
0
LINE
8
BLACK
6
CONTINUOUS
10
150.133
20
-128.443
11
149.181
21
-128.633
0
LINE
8
BLACK
6
CONTINUOUS
10
150.895
20
-129.205
11
151.085
21
-129.3
0
LINE
8
BLACK
6
CONTINUOUS
10
151.085
20
-129.3
11
151.466
21
-129.3
0
LINE
8
BLACK
6
CONTINUOUS
10
151.466
20
-129.3
11
151.657
21
-129.205
0
LINE
8
BLACK
6
CONTINUOUS
10
151.657
20
-129.205
11
151.752
21
-129.014
0
LINE
8
BLACK
6
CONTINUOUS
10
151.752
20
-129.014
11
151.752
21
-128.919
0
LINE
8
BLACK
6
CONTINUOUS
10
151.752
20
-128.919
11
151.657
21
-128.728
0
LINE
8
BLACK
6
CONTINUOUS
10
151.657
20
-128.728
11
151.466
21
-128.633
0
LINE
8
BLACK
6
CONTINUOUS
10
151.466
20
-128.633
11
151.181
21
-128.633
0
LINE
8
BLACK
6
CONTINUOUS
10
151.181
20
-128.633
11
150.99
21
-128.538
0
LINE
8
BLACK
6
CONTINUOUS
10
150.99
20
-128.538
11
150.895
21
-128.347
0
LINE
8
BLACK
6
CONTINUOUS
10
150.895
20
-128.347
11
150.895
21
-128.252
0
LINE
8
BLACK
6
CONTINUOUS
10
150.895
20
-128.252
11
150.99
21
-128.062
0
LINE
8
BLACK
6
CONTINUOUS
10
150.99
20
-128.062
11
151.181
21
-127.966
0
LINE
8
BLACK
6
CONTINUOUS
10
151.181
20
-127.966
11
151.466
21
-127.966
0
LINE
8
BLACK
6
CONTINUOUS
10
151.466
20
-127.966
11
151.657
21
-128.062
0
LINE
8
BLACK
6
CONTINUOUS
10
152.419
20
-130.062
11
152.514
21
-129.966
0
LINE
8
BLACK
6
CONTINUOUS
10
152.514
20
-129.966
11
152.705
21
-129.681
0
LINE
8
BLACK
6
CONTINUOUS
10
152.705
20
-129.681
11
152.8
21
-129.49
0
LINE
8
BLACK
6
CONTINUOUS
10
152.8
20
-129.49
11
152.895
21
-129.205
0
LINE
8
BLACK
6
CONTINUOUS
10
152.895
20
-129.205
11
152.99
21
-128.728
0
LINE
8
BLACK
6
CONTINUOUS
10
152.99
20
-128.728
11
152.99
21
-128.347
0
LINE
8
BLACK
6
CONTINUOUS
10
152.99
20
-128.347
11
152.895
21
-127.871
0
LINE
8
BLACK
6
CONTINUOUS
10
152.895
20
-127.871
11
152.8
21
-127.585
0
LINE
8
BLACK
6
CONTINUOUS
10
152.8
20
-127.585
11
152.705
21
-127.395
0
LINE
8
BLACK
6
CONTINUOUS
10
152.705
20
-127.395
11
152.514
21
-127.109
0
LINE
8
BLACK
6
CONTINUOUS
10
152.514
20
-127.109
11
152.419
21
-127.014
0
CIRCLE
8
BLACK
10
102.395
20
-131.035
40
0.4
0
LINE
8
BLACK
6
CONTINUOUS
10
105.752
20
-129.94
11
105.943
21
-129.94
0
LINE
8
BLACK
6
CONTINUOUS
10
105.943
20
-129.94
11
106.133
21
-130.035
0
LINE
8
BLACK
6
CONTINUOUS
10
106.133
20
-130.035
11
106.228
21
-130.13
0
LINE
8
BLACK
6
CONTINUOUS
10
106.228
20
-130.13
11
106.324
21
-130.321
0
LINE
8
BLACK
6
CONTINUOUS
10
106.324
20
-130.321
11
106.419
21
-130.702
0
LINE
8
BLACK
6
CONTINUOUS
10
106.419
20
-130.702
11
106.419
21
-131.178
0
LINE
8
BLACK
6
CONTINUOUS
10
106.419
20
-131.178
11
106.324
21
-131.559
0
LINE
8
BLACK
6
CONTINUOUS
10
106.324
20
-131.559
11
106.228
21
-131.749
0
LINE
8
BLACK
6
CONTINUOUS
10
106.228
20
-131.749
11
106.133
21
-131.845
0
LINE
8
BLACK
6
CONTINUOUS
10
106.133
20
-131.845
11
105.943
21
-131.94
0
LINE
8
BLACK
6
CONTINUOUS
10
105.943
20
-131.94
11
105.752
21
-131.94
0
LINE
8
BLACK
6
CONTINUOUS
10
105.752
20
-131.94
11
105.562
21
-131.845
0
LINE
8
BLACK
6
CONTINUOUS
10
105.562
20
-131.845
11
105.466
21
-131.749
0
LINE
8
BLACK
6
CONTINUOUS
10
105.466
20
-131.749
11
105.371
21
-131.559
0
LINE
8
BLACK
6
CONTINUOUS
10
105.371
20
-131.559
11
105.276
21
-131.178
0
LINE
8
BLACK
6
CONTINUOUS
10
105.276
20
-131.178
11
105.276
21
-130.702
0
LINE
8
BLACK
6
CONTINUOUS
10
105.276
20
-130.702
11
105.371
21
-130.321
0
LINE
8
BLACK
6
CONTINUOUS
10
105.371
20
-130.321
11
105.466
21
-130.13
0
LINE
8
BLACK
6
CONTINUOUS
10
105.466
20
-130.13
11
105.562
21
-130.035
0
LINE
8
BLACK
6
CONTINUOUS
10
105.562
20
-130.035
11
105.752
21
-129.94
0
LINE
8
BLACK
6
CONTINUOUS
10
107.276
20
-131.749
11
107.371
21
-131.845
0
LINE
8
BLACK
6
CONTINUOUS
10
107.371
20
-131.845
11
107.276
21
-131.94
0
LINE
8
BLACK
6
CONTINUOUS
10
107.276
20
-131.94
11
107.181
21
-131.845
0
LINE
8
BLACK
6
CONTINUOUS
10
107.181
20
-131.845
11
107.276
21
-131.749
0
LINE
8
BLACK
6
CONTINUOUS
10
107.276
20
-131.749
11
107.276
21
-131.94
0
LINE
8
BLACK
6
CONTINUOUS
10
108.514
20
-130.797
11
108.324
21
-130.702
0
LINE
8
BLACK
6
CONTINUOUS
10
108.324
20
-130.702
11
108.228
21
-130.606
0
LINE
8
BLACK
6
CONTINUOUS
10
108.228
20
-130.606
11
108.133
21
-130.416
0
LINE
8
BLACK
6
CONTINUOUS
10
108.133
20
-130.416
11
108.133
21
-130.321
0
LINE
8
BLACK
6
CONTINUOUS
10
108.133
20
-130.321
11
108.228
21
-130.13
0
LINE
8
BLACK
6
CONTINUOUS
10
108.228
20
-130.13
11
108.324
21
-130.035
0
LINE
8
BLACK
6
CONTINUOUS
10
108.324
20
-130.035
11
108.514
21
-129.94
0
LINE
8
BLACK
6
CONTINUOUS
10
108.514
20
-129.94
11
108.895
21
-129.94
0
LINE
8
BLACK
6
CONTINUOUS
10
108.895
20
-129.94
11
109.085
21
-130.035
0
LINE
8
BLACK
6
CONTINUOUS
10
109.085
20
-130.035
11
109.181
21
-130.13
0
LINE
8
BLACK
6
CONTINUOUS
10
109.181
20
-130.13
11
109.276
21
-130.321
0
LINE
8
BLACK
6
CONTINUOUS
10
109.276
20
-130.321
11
109.276
21
-130.416
0
LINE
8
BLACK
6
CONTINUOUS
10
109.276
20
-130.416
11
109.181
21
-130.606
0
LINE
8
BLACK
6
CONTINUOUS
10
109.181
20
-130.606
11
109.085
21
-130.702
0
LINE
8
BLACK
6
CONTINUOUS
10
109.085
20
-130.702
11
108.895
21
-130.797
0
LINE
8
BLACK
6
CONTINUOUS
10
108.895
20
-130.797
11
108.514
21
-130.797
0
LINE
8
BLACK
6
CONTINUOUS
10
108.514
20
-130.797
11
108.324
21
-130.892
0
LINE
8
BLACK
6
CONTINUOUS
10
108.324
20
-130.892
11
108.228
21
-130.987
0
LINE
8
BLACK
6
CONTINUOUS
10
108.228
20
-130.987
11
108.133
21
-131.178
0
LINE
8
BLACK
6
CONTINUOUS
10
108.133
20
-131.178
11
108.133
21
-131.559
0
LINE
8
BLACK
6
CONTINUOUS
10
108.133
20
-131.559
11
108.228
21
-131.749
0
LINE
8
BLACK
6
CONTINUOUS
10
108.228
20
-131.749
11
108.324
21
-131.845
0
LINE
8
BLACK
6
CONTINUOUS
10
108.324
20
-131.845
11
108.514
21
-131.94
0
LINE
8
BLACK
6
CONTINUOUS
10
108.514
20
-131.94
11
108.895
21
-131.94
0
LINE
8
BLACK
6
CONTINUOUS
10
108.895
20
-131.94
11
109.085
21
-131.845
0
LINE
8
BLACK
6
CONTINUOUS
10
109.085
20
-131.845
11
109.181
21
-131.749
0
LINE
8
BLACK
6
CONTINUOUS
10
109.181
20
-131.749
11
109.276
21
-131.559
0
LINE
8
BLACK
6
CONTINUOUS
10
109.276
20
-131.559
11
109.276
21
-131.178
0
LINE
8
BLACK
6
CONTINUOUS
10
109.276
20
-131.178
11
109.181
21
-130.987
0
LINE
8
BLACK
6
CONTINUOUS
10
109.181
20
-130.987
11
109.085
21
-130.892
0
LINE
8
BLACK
6
CONTINUOUS
10
109.085
20
-130.892
11
108.895
21
-130.797
0
LINE
8
BLACK
6
CONTINUOUS
10
110.514
20
-129.94
11
110.705
21
-129.94
0
LINE
8
BLACK
6
CONTINUOUS
10
110.705
20
-129.94
11
110.895
21
-130.035
0
LINE
8
BLACK
6
CONTINUOUS
10
110.895
20
-130.035
11
110.99
21
-130.13
0
LINE
8
BLACK
6
CONTINUOUS
10
110.99
20
-130.13
11
111.085
21
-130.321
0
LINE
8
BLACK
6
CONTINUOUS
10
111.085
20
-130.321
11
111.181
21
-130.702
0
LINE
8
BLACK
6
CONTINUOUS
10
111.181
20
-130.702
11
111.181
21
-131.178
0
LINE
8
BLACK
6
CONTINUOUS
10
111.181
20
-131.178
11
111.085
21
-131.559
0
LINE
8
BLACK
6
CONTINUOUS
10
111.085
20
-131.559
11
110.99
21
-131.749
0
LINE
8
BLACK
6
CONTINUOUS
10
110.99
20
-131.749
11
110.895
21
-131.845
0
LINE
8
BLACK
6
CONTINUOUS
10
110.895
20
-131.845
11
110.705
21
-131.94
0
LINE
8
BLACK
6
CONTINUOUS
10
110.705
20
-131.94
11
110.514
21
-131.94
0
LINE
8
BLACK
6
CONTINUOUS
10
110.514
20
-131.94
11
110.324
21
-131.845
0
LINE
8
BLACK
6
CONTINUOUS
10
110.324
20
-131.845
11
110.228
21
-131.749
0
LINE
8
BLACK
6
CONTINUOUS
10
110.228
20
-131.749
11
110.133
21
-131.559
0
LINE
8
BLACK
6
CONTINUOUS
10
110.133
20
-131.559
11
110.038
21
-131.178
0
LINE
8
BLACK
6
CONTINUOUS
10
110.038
20
-131.178
11
110.038
21
-130.702
0
LINE
8
BLACK
6
CONTINUOUS
10
110.038
20
-130.702
11
110.133
21
-130.321
0
LINE
8
BLACK
6
CONTINUOUS
10
110.133
20
-130.321
11
110.228
21
-130.13
0
LINE
8
BLACK
6
CONTINUOUS
10
110.228
20
-130.13
11
110.324
21
-130.035
0
LINE
8
BLACK
6
CONTINUOUS
10
110.324
20
-130.035
11
110.514
21
-129.94
0
LINE
8
BLACK
6
CONTINUOUS
10
112.419
20
-129.94
11
112.609
21
-129.94
0
LINE
8
BLACK
6
CONTINUOUS
10
112.609
20
-129.94
11
112.8
21
-130.035
0
LINE
8
BLACK
6
CONTINUOUS
10
112.8
20
-130.035
11
112.895
21
-130.13
0
LINE
8
BLACK
6
CONTINUOUS
10
112.895
20
-130.13
11
112.99
21
-130.321
0
LINE
8
BLACK
6
CONTINUOUS
10
112.99
20
-130.321
11
113.085
21
-130.702
0
LINE
8
BLACK
6
CONTINUOUS
10
113.085
20
-130.702
11
113.085
21
-131.178
0
LINE
8
BLACK
6
CONTINUOUS
10
113.085
20
-131.178
11
112.99
21
-131.559
0
LINE
8
BLACK
6
CONTINUOUS
10
112.99
20
-131.559
11
112.895
21
-131.749
0
LINE
8
BLACK
6
CONTINUOUS
10
112.895
20
-131.749
11
112.8
21
-131.845
0
LINE
8
BLACK
6
CONTINUOUS
10
112.8
20
-131.845
11
112.609
21
-131.94
0
LINE
8
BLACK
6
CONTINUOUS
10
112.609
20
-131.94
11
112.419
21
-131.94
0
LINE
8
BLACK
6
CONTINUOUS
10
112.419
20
-131.94
11
112.228
21
-131.845
0
LINE
8
BLACK
6
CONTINUOUS
10
112.228
20
-131.845
11
112.133
21
-131.749
0
LINE
8
BLACK
6
CONTINUOUS
10
112.133
20
-131.749
11
112.038
21
-131.559
0
LINE
8
BLACK
6
CONTINUOUS
10
112.038
20
-131.559
11
111.943
21
-131.178
0
LINE
8
BLACK
6
CONTINUOUS
10
111.943
20
-131.178
11
111.943
21
-130.702
0
LINE
8
BLACK
6
CONTINUOUS
10
111.943
20
-130.702
11
112.038
21
-130.321
0
LINE
8
BLACK
6
CONTINUOUS
10
112.038
20
-130.321
11
112.133
21
-130.13
0
LINE
8
BLACK
6
CONTINUOUS
10
112.133
20
-130.13
11
112.228
21
-130.035
0
LINE
8
BLACK
6
CONTINUOUS
10
112.228
20
-130.035
11
112.419
21
-129.94
0
LINE
8
BLACK
6
CONTINUOUS
10
113.943
20
-131.94
11
113.943
21
-130.606
0
LINE
8
BLACK
6
CONTINUOUS
10
113.943
20
-130.797
11
114.038
21
-130.702
0
LINE
8
BLACK
6
CONTINUOUS
10
114.038
20
-130.702
11
114.228
21
-130.606
0
LINE
8
BLACK
6
CONTINUOUS
10
114.228
20
-130.606
11
114.514
21
-130.606
0
LINE
8
BLACK
6
CONTINUOUS
10
114.514
20
-130.606
11
114.705
21
-130.702
0
LINE
8
BLACK
6
CONTINUOUS
10
114.705
20
-130.702
11
114.8
21
-130.892
0
LINE
8
BLACK
6
CONTINUOUS
10
114.8
20
-130.892
11
114.8
21
-131.94
0
LINE
8
BLACK
6
CONTINUOUS
10
114.8
20
-130.892
11
114.895
21
-130.702
0
LINE
8
BLACK
6
CONTINUOUS
10
114.895
20
-130.702
11
115.085
21
-130.606
0
LINE
8
BLACK
6
CONTINUOUS
10
115.085
20
-130.606
11
115.371
21
-130.606
0
LINE
8
BLACK
6
CONTINUOUS
10
115.371
20
-130.606
11
115.562
21
-130.702
0
LINE
8
BLACK
6
CONTINUOUS
10
115.562
20
-130.702
11
115.657
21
-130.892
0
LINE
8
BLACK
6
CONTINUOUS
10
115.657
20
-130.892
11
115.657
21
-131.94
0
LINE
8
BLACK
6
CONTINUOUS
10
116.609
20
-131.94
11
116.609
21
-130.606
0
LINE
8
BLACK
6
CONTINUOUS
10
116.609
20
-130.797
11
116.705
21
-130.702
0
LINE
8
BLACK
6
CONTINUOUS
10
116.705
20
-130.702
11
116.895
21
-130.606
0
LINE
8
BLACK
6
CONTINUOUS
10
116.895
20
-130.606
11
117.181
21
-130.606
0
LINE
8
BLACK
6
CONTINUOUS
10
117.181
20
-130.606
11
117.371
21
-130.702
0
LINE
8
BLACK
6
CONTINUOUS
10
117.371
20
-130.702
11
117.466
21
-130.892
0
LINE
8
BLACK
6
CONTINUOUS
10
117.466
20
-130.892
11
117.466
21
-131.94
0
LINE
8
BLACK
6
CONTINUOUS
10
117.466
20
-130.892
11
117.562
21
-130.702
0
LINE
8
BLACK
6
CONTINUOUS
10
117.562
20
-130.702
11
117.752
21
-130.606
0
LINE
8
BLACK
6
CONTINUOUS
10
117.752
20
-130.606
11
118.038
21
-130.606
0
LINE
8
BLACK
6
CONTINUOUS
10
118.038
20
-130.606
11
118.228
21
-130.702
0
LINE
8
BLACK
6
CONTINUOUS
10
118.228
20
-130.702
11
118.324
21
-130.892
0
LINE
8
BLACK
6
CONTINUOUS
10
118.324
20
-130.892
11
118.324
21
-131.94
0
LINE
8
BLACK
6
CONTINUOUS
10
122.228
20
-129.845
11
120.514
21
-132.416
0
LINE
8
BLACK
6
CONTINUOUS
10
124.8
20
-129.94
11
124.99
21
-129.94
0
LINE
8
BLACK
6
CONTINUOUS
10
124.99
20
-129.94
11
125.181
21
-130.035
0
LINE
8
BLACK
6
CONTINUOUS
10
125.181
20
-130.035
11
125.276
21
-130.13
0
LINE
8
BLACK
6
CONTINUOUS
10
125.276
20
-130.13
11
125.371
21
-130.321
0
LINE
8
BLACK
6
CONTINUOUS
10
125.371
20
-130.321
11
125.466
21
-130.702
0
LINE
8
BLACK
6
CONTINUOUS
10
125.466
20
-130.702
11
125.466
21
-131.178
0
LINE
8
BLACK
6
CONTINUOUS
10
125.466
20
-131.178
11
125.371
21
-131.559
0
LINE
8
BLACK
6
CONTINUOUS
10
125.371
20
-131.559
11
125.276
21
-131.749
0
LINE
8
BLACK
6
CONTINUOUS
10
125.276
20
-131.749
11
125.181
21
-131.845
0
LINE
8
BLACK
6
CONTINUOUS
10
125.181
20
-131.845
11
124.99
21
-131.94
0
LINE
8
BLACK
6
CONTINUOUS
10
124.99
20
-131.94
11
124.8
21
-131.94
0
LINE
8
BLACK
6
CONTINUOUS
10
124.8
20
-131.94
11
124.609
21
-131.845
0
LINE
8
BLACK
6
CONTINUOUS
10
124.609
20
-131.845
11
124.514
21
-131.749
0
LINE
8
BLACK
6
CONTINUOUS
10
124.514
20
-131.749
11
124.419
21
-131.559
0
LINE
8
BLACK
6
CONTINUOUS
10
124.419
20
-131.559
11
124.324
21
-131.178
0
LINE
8
BLACK
6
CONTINUOUS
10
124.324
20
-131.178
11
124.324
21
-130.702
0
LINE
8
BLACK
6
CONTINUOUS
10
124.324
20
-130.702
11
124.419
21
-130.321
0
LINE
8
BLACK
6
CONTINUOUS
10
124.419
20
-130.321
11
124.514
21
-130.13
0
LINE
8
BLACK
6
CONTINUOUS
10
124.514
20
-130.13
11
124.609
21
-130.035
0
LINE
8
BLACK
6
CONTINUOUS
10
124.609
20
-130.035
11
124.8
21
-129.94
0
LINE
8
BLACK
6
CONTINUOUS
10
126.324
20
-131.749
11
126.419
21
-131.845
0
LINE
8
BLACK
6
CONTINUOUS
10
126.419
20
-131.845
11
126.324
21
-131.94
0
LINE
8
BLACK
6
CONTINUOUS
10
126.324
20
-131.94
11
126.228
21
-131.845
0
LINE
8
BLACK
6
CONTINUOUS
10
126.228
20
-131.845
11
126.324
21
-131.749
0
LINE
8
BLACK
6
CONTINUOUS
10
126.324
20
-131.749
11
126.324
21
-131.94
0
LINE
8
BLACK
6
CONTINUOUS
10
127.657
20
-129.94
11
127.847
21
-129.94
0
LINE
8
BLACK
6
CONTINUOUS
10
127.847
20
-129.94
11
128.038
21
-130.035
0
LINE
8
BLACK
6
CONTINUOUS
10
128.038
20
-130.035
11
128.133
21
-130.13
0
LINE
8
BLACK
6
CONTINUOUS
10
128.133
20
-130.13
11
128.228
21
-130.321
0
LINE
8
BLACK
6
CONTINUOUS
10
128.228
20
-130.321
11
128.324
21
-130.702
0
LINE
8
BLACK
6
CONTINUOUS
10
128.324
20
-130.702
11
128.324
21
-131.178
0
LINE
8
BLACK
6
CONTINUOUS
10
128.324
20
-131.178
11
128.228
21
-131.559
0
LINE
8
BLACK
6
CONTINUOUS
10
128.228
20
-131.559
11
128.133
21
-131.749
0
LINE
8
BLACK
6
CONTINUOUS
10
128.133
20
-131.749
11
128.038
21
-131.845
0
LINE
8
BLACK
6
CONTINUOUS
10
128.038
20
-131.845
11
127.847
21
-131.94
0
LINE
8
BLACK
6
CONTINUOUS
10
127.847
20
-131.94
11
127.657
21
-131.94
0
LINE
8
BLACK
6
CONTINUOUS
10
127.657
20
-131.94
11
127.466
21
-131.845
0
LINE
8
BLACK
6
CONTINUOUS
10
127.466
20
-131.845
11
127.371
21
-131.749
0
LINE
8
BLACK
6
CONTINUOUS
10
127.371
20
-131.749
11
127.276
21
-131.559
0
LINE
8
BLACK
6
CONTINUOUS
10
127.276
20
-131.559
11
127.181
21
-131.178
0
LINE
8
BLACK
6
CONTINUOUS
10
127.181
20
-131.178
11
127.181
21
-130.702
0
LINE
8
BLACK
6
CONTINUOUS
10
127.181
20
-130.702
11
127.276
21
-130.321
0
LINE
8
BLACK
6
CONTINUOUS
10
127.276
20
-130.321
11
127.371
21
-130.13
0
LINE
8
BLACK
6
CONTINUOUS
10
127.371
20
-130.13
11
127.466
21
-130.035
0
LINE
8
BLACK
6
CONTINUOUS
10
127.466
20
-130.035
11
127.657
21
-129.94
0
LINE
8
BLACK
6
CONTINUOUS
10
128.99
20
-129.94
11
130.228
21
-129.94
0
LINE
8
BLACK
6
CONTINUOUS
10
130.228
20
-129.94
11
129.562
21
-130.702
0
LINE
8
BLACK
6
CONTINUOUS
10
129.562
20
-130.702
11
129.847
21
-130.702
0
LINE
8
BLACK
6
CONTINUOUS
10
129.847
20
-130.702
11
130.038
21
-130.797
0
LINE
8
BLACK
6
CONTINUOUS
10
130.038
20
-130.797
11
130.133
21
-130.892
0
LINE
8
BLACK
6
CONTINUOUS
10
130.133
20
-130.892
11
130.228
21
-131.083
0
LINE
8
BLACK
6
CONTINUOUS
10
130.228
20
-131.083
11
130.228
21
-131.559
0
LINE
8
BLACK
6
CONTINUOUS
10
130.228
20
-131.559
11
130.133
21
-131.749
0
LINE
8
BLACK
6
CONTINUOUS
10
130.133
20
-131.749
11
130.038
21
-131.845
0
LINE
8
BLACK
6
CONTINUOUS
10
130.038
20
-131.845
11
129.847
21
-131.94
0
LINE
8
BLACK
6
CONTINUOUS
10
129.847
20
-131.94
11
129.276
21
-131.94
0
LINE
8
BLACK
6
CONTINUOUS
10
129.276
20
-131.94
11
129.085
21
-131.845
0
LINE
8
BLACK
6
CONTINUOUS
10
129.085
20
-131.845
11
128.99
21
-131.749
0
LINE
8
BLACK
6
CONTINUOUS
10
132.133
20
-131.94
11
130.99
21
-131.94
0
LINE
8
BLACK
6
CONTINUOUS
10
131.562
20
-131.94
11
131.562
21
-129.94
0
LINE
8
BLACK
6
CONTINUOUS
10
131.562
20
-129.94
11
131.371
21
-130.225
0
LINE
8
BLACK
6
CONTINUOUS
10
131.371
20
-130.225
11
131.181
21
-130.416
0
LINE
8
BLACK
6
CONTINUOUS
10
131.181
20
-130.416
11
130.99
21
-130.511
0
LINE
8
BLACK
6
CONTINUOUS
10
133.943
20
-129.94
11
132.99
21
-129.94
0
LINE
8
BLACK
6
CONTINUOUS
10
132.99
20
-129.94
11
132.895
21
-130.892
0
LINE
8
BLACK
6
CONTINUOUS
10
132.895
20
-130.892
11
132.99
21
-130.797
0
LINE
8
BLACK
6
CONTINUOUS
10
132.99
20
-130.797
11
133.181
21
-130.702
0
LINE
8
BLACK
6
CONTINUOUS
10
133.181
20
-130.702
11
133.657
21
-130.702
0
LINE
8
BLACK
6
CONTINUOUS
10
133.657
20
-130.702
11
133.847
21
-130.797
0
LINE
8
BLACK
6
CONTINUOUS
10
133.847
20
-130.797
11
133.943
21
-130.892
0
LINE
8
BLACK
6
CONTINUOUS
10
133.943
20
-130.892
11
134.038
21
-131.083
0
LINE
8
BLACK
6
CONTINUOUS
10
134.038
20
-131.083
11
134.038
21
-131.559
0
LINE
8
BLACK
6
CONTINUOUS
10
134.038
20
-131.559
11
133.943
21
-131.749
0
LINE
8
BLACK
6
CONTINUOUS
10
133.943
20
-131.749
11
133.847
21
-131.845
0
LINE
8
BLACK
6
CONTINUOUS
10
133.847
20
-131.845
11
133.657
21
-131.94
0
LINE
8
BLACK
6
CONTINUOUS
10
133.657
20
-131.94
11
133.181
21
-131.94
0
LINE
8
BLACK
6
CONTINUOUS
10
133.181
20
-131.94
11
132.99
21
-131.845
0
LINE
8
BLACK
6
CONTINUOUS
10
132.99
20
-131.845
11
132.895
21
-131.749
0
LINE
8
BLACK
6
CONTINUOUS
10
134.8
20
-129.94
11
134.8
21
-130.321
0
LINE
8
BLACK
6
CONTINUOUS
10
135.562
20
-129.94
11
135.562
21
-130.321
0
LINE
8
BLACK
6
CONTINUOUS
10
138.514
20
-132.702
11
138.419
21
-132.606
0
LINE
8
BLACK
6
CONTINUOUS
10
138.419
20
-132.606
11
138.228
21
-132.321
0
LINE
8
BLACK
6
CONTINUOUS
10
138.228
20
-132.321
11
138.133
21
-132.13
0
LINE
8
BLACK
6
CONTINUOUS
10
138.133
20
-132.13
11
138.038
21
-131.845
0
LINE
8
BLACK
6
CONTINUOUS
10
138.038
20
-131.845
11
137.943
21
-131.368
0
LINE
8
BLACK
6
CONTINUOUS
10
137.943
20
-131.368
11
137.943
21
-130.987
0
LINE
8
BLACK
6
CONTINUOUS
10
137.943
20
-130.987
11
138.038
21
-130.511
0
LINE
8
BLACK
6
CONTINUOUS
10
138.038
20
-130.511
11
138.133
21
-130.225
0
LINE
8
BLACK
6
CONTINUOUS
10
138.133
20
-130.225
11
138.228
21
-130.035
0
LINE
8
BLACK
6
CONTINUOUS
10
138.228
20
-130.035
11
138.419
21
-129.749
0
LINE
8
BLACK
6
CONTINUOUS
10
138.419
20
-129.749
11
138.514
21
-129.654
0
LINE
8
BLACK
6
CONTINUOUS
10
139.181
20
-130.13
11
139.276
21
-130.035
0
LINE
8
BLACK
6
CONTINUOUS
10
139.276
20
-130.035
11
139.466
21
-129.94
0
LINE
8
BLACK
6
CONTINUOUS
10
139.466
20
-129.94
11
139.943
21
-129.94
0
LINE
8
BLACK
6
CONTINUOUS
10
139.943
20
-129.94
11
140.133
21
-130.035
0
LINE
8
BLACK
6
CONTINUOUS
10
140.133
20
-130.035
11
140.228
21
-130.13
0
LINE
8
BLACK
6
CONTINUOUS
10
140.228
20
-130.13
11
140.324
21
-130.321
0
LINE
8
BLACK
6
CONTINUOUS
10
140.324
20
-130.321
11
140.324
21
-130.511
0
LINE
8
BLACK
6
CONTINUOUS
10
140.324
20
-130.511
11
140.228
21
-130.797
0
LINE
8
BLACK
6
CONTINUOUS
10
140.228
20
-130.797
11
139.085
21
-131.94
0
LINE
8
BLACK
6
CONTINUOUS
10
139.085
20
-131.94
11
140.324
21
-131.94
0
LINE
8
BLACK
6
CONTINUOUS
10
141.466
20
-130.797
11
141.276
21
-130.702
0
LINE
8
BLACK
6
CONTINUOUS
10
141.276
20
-130.702
11
141.181
21
-130.606
0
LINE
8
BLACK
6
CONTINUOUS
10
141.181
20
-130.606
11
141.085
21
-130.416
0
LINE
8
BLACK
6
CONTINUOUS
10
141.085
20
-130.416
11
141.085
21
-130.321
0
LINE
8
BLACK
6
CONTINUOUS
10
141.085
20
-130.321
11
141.181
21
-130.13
0
LINE
8
BLACK
6
CONTINUOUS
10
141.181
20
-130.13
11
141.276
21
-130.035
0
LINE
8
BLACK
6
CONTINUOUS
10
141.276
20
-130.035
11
141.466
21
-129.94
0
LINE
8
BLACK
6
CONTINUOUS
10
141.466
20
-129.94
11
141.847
21
-129.94
0
LINE
8
BLACK
6
CONTINUOUS
10
141.847
20
-129.94
11
142.038
21
-130.035
0
LINE
8
BLACK
6
CONTINUOUS
10
142.038
20
-130.035
11
142.133
21
-130.13
0
LINE
8
BLACK
6
CONTINUOUS
10
142.133
20
-130.13
11
142.228
21
-130.321
0
LINE
8
BLACK
6
CONTINUOUS
10
142.228
20
-130.321
11
142.228
21
-130.416
0
LINE
8
BLACK
6
CONTINUOUS
10
142.228
20
-130.416
11
142.133
21
-130.606
0
LINE
8
BLACK
6
CONTINUOUS
10
142.133
20
-130.606
11
142.038
21
-130.702
0
LINE
8
BLACK
6
CONTINUOUS
10
142.038
20
-130.702
11
141.847
21
-130.797
0
LINE
8
BLACK
6
CONTINUOUS
10
141.847
20
-130.797
11
141.466
21
-130.797
0
LINE
8
BLACK
6
CONTINUOUS
10
141.466
20
-130.797
11
141.276
21
-130.892
0
LINE
8
BLACK
6
CONTINUOUS
10
141.276
20
-130.892
11
141.181
21
-130.987
0
LINE
8
BLACK
6
CONTINUOUS
10
141.181
20
-130.987
11
141.085
21
-131.178
0
LINE
8
BLACK
6
CONTINUOUS
10
141.085
20
-131.178
11
141.085
21
-131.559
0
LINE
8
BLACK
6
CONTINUOUS
10
141.085
20
-131.559
11
141.181
21
-131.749
0
LINE
8
BLACK
6
CONTINUOUS
10
141.181
20
-131.749
11
141.276
21
-131.845
0
LINE
8
BLACK
6
CONTINUOUS
10
141.276
20
-131.845
11
141.466
21
-131.94
0
LINE
8
BLACK
6
CONTINUOUS
10
141.466
20
-131.94
11
141.847
21
-131.94
0
LINE
8
BLACK
6
CONTINUOUS
10
141.847
20
-131.94
11
142.038
21
-131.845
0
LINE
8
BLACK
6
CONTINUOUS
10
142.038
20
-131.845
11
142.133
21
-131.749
0
LINE
8
BLACK
6
CONTINUOUS
10
142.133
20
-131.749
11
142.228
21
-131.559
0
LINE
8
BLACK
6
CONTINUOUS
10
142.228
20
-131.559
11
142.228
21
-131.178
0
LINE
8
BLACK
6
CONTINUOUS
10
142.228
20
-131.178
11
142.133
21
-130.987
0
LINE
8
BLACK
6
CONTINUOUS
10
142.133
20
-130.987
11
142.038
21
-130.892
0
LINE
8
BLACK
6
CONTINUOUS
10
142.038
20
-130.892
11
141.847
21
-130.797
0
LINE
8
BLACK
6
CONTINUOUS
10
144.609
20
-131.94
11
144.609
21
-129.94
0
LINE
8
BLACK
6
CONTINUOUS
10
145.466
20
-131.94
11
145.466
21
-130.892
0
LINE
8
BLACK
6
CONTINUOUS
10
145.466
20
-130.892
11
145.371
21
-130.702
0
LINE
8
BLACK
6
CONTINUOUS
10
145.371
20
-130.702
11
145.181
21
-130.606
0
LINE
8
BLACK
6
CONTINUOUS
10
145.181
20
-130.606
11
144.895
21
-130.606
0
LINE
8
BLACK
6
CONTINUOUS
10
144.895
20
-130.606
11
144.705
21
-130.702
0
LINE
8
BLACK
6
CONTINUOUS
10
144.705
20
-130.702
11
144.609
21
-130.797
0
LINE
8
BLACK
6
CONTINUOUS
10
146.705
20
-131.94
11
146.514
21
-131.845
0
LINE
8
BLACK
6
CONTINUOUS
10
146.514
20
-131.845
11
146.419
21
-131.749
0
LINE
8
BLACK
6
CONTINUOUS
10
146.419
20
-131.749
11
146.324
21
-131.559
0
LINE
8
BLACK
6
CONTINUOUS
10
146.324
20
-131.559
11
146.324
21
-130.987
0
LINE
8
BLACK
6
CONTINUOUS
10
146.324
20
-130.987
11
146.419
21
-130.797
0
LINE
8
BLACK
6
CONTINUOUS
10
146.419
20
-130.797
11
146.514
21
-130.702
0
LINE
8
BLACK
6
CONTINUOUS
10
146.514
20
-130.702
11
146.705
21
-130.606
0
LINE
8
BLACK
6
CONTINUOUS
10
146.705
20
-130.606
11
146.99
21
-130.606
0
LINE
8
BLACK
6
CONTINUOUS
10
146.99
20
-130.606
11
147.181
21
-130.702
0
LINE
8
BLACK
6
CONTINUOUS
10
147.181
20
-130.702
11
147.276
21
-130.797
0
LINE
8
BLACK
6
CONTINUOUS
10
147.276
20
-130.797
11
147.371
21
-130.987
0
LINE
8
BLACK
6
CONTINUOUS
10
147.371
20
-130.987
11
147.371
21
-131.559
0
LINE
8
BLACK
6
CONTINUOUS
10
147.371
20
-131.559
11
147.276
21
-131.749
0
LINE
8
BLACK
6
CONTINUOUS
10
147.276
20
-131.749
11
147.181
21
-131.845
0
LINE
8
BLACK
6
CONTINUOUS
10
147.181
20
-131.845
11
146.99
21
-131.94
0
LINE
8
BLACK
6
CONTINUOUS
10
146.99
20
-131.94
11
146.705
21
-131.94
0
LINE
8
BLACK
6
CONTINUOUS
10
148.514
20
-131.94
11
148.324
21
-131.845
0
LINE
8
BLACK
6
CONTINUOUS
10
148.324
20
-131.845
11
148.228
21
-131.654
0
LINE
8
BLACK
6
CONTINUOUS
10
148.228
20
-131.654
11
148.228
21
-129.94
0
LINE
8
BLACK
6
CONTINUOUS
10
150.038
20
-131.845
11
149.847
21
-131.94
0
LINE
8
BLACK
6
CONTINUOUS
10
149.847
20
-131.94
11
149.466
21
-131.94
0
LINE
8
BLACK
6
CONTINUOUS
10
149.466
20
-131.94
11
149.276
21
-131.845
0
LINE
8
BLACK
6
CONTINUOUS
10
149.276
20
-131.845
11
149.181
21
-131.654
0
LINE
8
BLACK
6
CONTINUOUS
10
149.181
20
-131.654
11
149.181
21
-130.892
0
LINE
8
BLACK
6
CONTINUOUS
10
149.181
20
-130.892
11
149.276
21
-130.702
0
LINE
8
BLACK
6
CONTINUOUS
10
149.276
20
-130.702
11
149.466
21
-130.606
0
LINE
8
BLACK
6
CONTINUOUS
10
149.466
20
-130.606
11
149.847
21
-130.606
0
LINE
8
BLACK
6
CONTINUOUS
10
149.847
20
-130.606
11
150.038
21
-130.702
0
LINE
8
BLACK
6
CONTINUOUS
10
150.038
20
-130.702
11
150.133
21
-130.892
0
LINE
8
BLACK
6
CONTINUOUS
10
150.133
20
-130.892
11
150.133
21
-131.083
0
LINE
8
BLACK
6
CONTINUOUS
10
150.133
20
-131.083
11
149.181
21
-131.273
0
LINE
8
BLACK
6
CONTINUOUS
10
150.895
20
-131.845
11
151.085
21
-131.94
0
LINE
8
BLACK
6
CONTINUOUS
10
151.085
20
-131.94
11
151.466
21
-131.94
0
LINE
8
BLACK
6
CONTINUOUS
10
151.466
20
-131.94
11
151.657
21
-131.845
0
LINE
8
BLACK
6
CONTINUOUS
10
151.657
20
-131.845
11
151.752
21
-131.654
0
LINE
8
BLACK
6
CONTINUOUS
10
151.752
20
-131.654
11
151.752
21
-131.559
0
LINE
8
BLACK
6
CONTINUOUS
10
151.752
20
-131.559
11
151.657
21
-131.368
0
LINE
8
BLACK
6
CONTINUOUS
10
151.657
20
-131.368
11
151.466
21
-131.273
0
LINE
8
BLACK
6
CONTINUOUS
10
151.466
20
-131.273
11
151.181
21
-131.273
0
LINE
8
BLACK
6
CONTINUOUS
10
151.181
20
-131.273
11
150.99
21
-131.178
0
LINE
8
BLACK
6
CONTINUOUS
10
150.99
20
-131.178
11
150.895
21
-130.987
0
LINE
8
BLACK
6
CONTINUOUS
10
150.895
20
-130.987
11
150.895
21
-130.892
0
LINE
8
BLACK
6
CONTINUOUS
10
150.895
20
-130.892
11
150.99
21
-130.702
0
LINE
8
BLACK
6
CONTINUOUS
10
150.99
20
-130.702
11
151.181
21
-130.606
0
LINE
8
BLACK
6
CONTINUOUS
10
151.181
20
-130.606
11
151.466
21
-130.606
0
LINE
8
BLACK
6
CONTINUOUS
10
151.466
20
-130.606
11
151.657
21
-130.702
0
LINE
8
BLACK
6
CONTINUOUS
10
152.419
20
-132.702
11
152.514
21
-132.606
0
LINE
8
BLACK
6
CONTINUOUS
10
152.514
20
-132.606
11
152.705
21
-132.321
0
LINE
8
BLACK
6
CONTINUOUS
10
152.705
20
-132.321
11
152.8
21
-132.13
0
LINE
8
BLACK
6
CONTINUOUS
10
152.8
20
-132.13
11
152.895
21
-131.845
0
LINE
8
BLACK
6
CONTINUOUS
10
152.895
20
-131.845
11
152.99
21
-131.368
0
LINE
8
BLACK
6
CONTINUOUS
10
152.99
20
-131.368
11
152.99
21
-130.987
0
LINE
8
BLACK
6
CONTINUOUS
10
152.99
20
-130.987
11
152.895
21
-130.511
0
LINE
8
BLACK
6
CONTINUOUS
10
152.895
20
-130.511
11
152.8
21
-130.225
0
LINE
8
BLACK
6
CONTINUOUS
10
152.8
20
-130.225
11
152.705
21
-130.035
0
LINE
8
BLACK
6
CONTINUOUS
10
152.705
20
-130.035
11
152.514
21
-129.749
0
LINE
8
BLACK
6
CONTINUOUS
10
152.514
20
-129.749
11
152.419
21
-129.654
0
LINE
8
BLACK
6
CONTINUOUS
10
102.295
20
-133.175
11
102.295
21
-134.175
0
LINE
8
BLACK
6
CONTINUOUS
10
101.795
20
-133.675
11
102.795
21
-133.675
0
LINE
8
BLACK
6
CONTINUOUS
10
106.419
20
-134.58
11
105.276
21
-134.58
0
LINE
8
BLACK
6
CONTINUOUS
10
105.847
20
-134.58
11
105.847
21
-132.58
0
LINE
8
BLACK
6
CONTINUOUS
10
105.847
20
-132.58
11
105.657
21
-132.865
0
LINE
8
BLACK
6
CONTINUOUS
10
105.657
20
-132.865
11
105.466
21
-133.056
0
LINE
8
BLACK
6
CONTINUOUS
10
105.466
20
-133.056
11
105.276
21
-133.151
0
LINE
8
BLACK
6
CONTINUOUS
10
107.276
20
-134.389
11
107.371
21
-134.485
0
LINE
8
BLACK
6
CONTINUOUS
10
107.371
20
-134.485
11
107.276
21
-134.58
0
LINE
8
BLACK
6
CONTINUOUS
10
107.276
20
-134.58
11
107.181
21
-134.485
0
LINE
8
BLACK
6
CONTINUOUS
10
107.181
20
-134.485
11
107.276
21
-134.389
0
LINE
8
BLACK
6
CONTINUOUS
10
107.276
20
-134.389
11
107.276
21
-134.58
0
LINE
8
BLACK
6
CONTINUOUS
10
108.609
20
-132.58
11
108.8
21
-132.58
0
LINE
8
BLACK
6
CONTINUOUS
10
108.8
20
-132.58
11
108.99
21
-132.675
0
LINE
8
BLACK
6
CONTINUOUS
10
108.99
20
-132.675
11
109.085
21
-132.77
0
LINE
8
BLACK
6
CONTINUOUS
10
109.085
20
-132.77
11
109.181
21
-132.961
0
LINE
8
BLACK
6
CONTINUOUS
10
109.181
20
-132.961
11
109.276
21
-133.342
0
LINE
8
BLACK
6
CONTINUOUS
10
109.276
20
-133.342
11
109.276
21
-133.818
0
LINE
8
BLACK
6
CONTINUOUS
10
109.276
20
-133.818
11
109.181
21
-134.199
0
LINE
8
BLACK
6
CONTINUOUS
10
109.181
20
-134.199
11
109.085
21
-134.389
0
LINE
8
BLACK
6
CONTINUOUS
10
109.085
20
-134.389
11
108.99
21
-134.485
0
LINE
8
BLACK
6
CONTINUOUS
10
108.99
20
-134.485
11
108.8
21
-134.58
0
LINE
8
BLACK
6
CONTINUOUS
10
108.8
20
-134.58
11
108.609
21
-134.58
0
LINE
8
BLACK
6
CONTINUOUS
10
108.609
20
-134.58
11
108.419
21
-134.485
0
LINE
8
BLACK
6
CONTINUOUS
10
108.419
20
-134.485
11
108.324
21
-134.389
0
LINE
8
BLACK
6
CONTINUOUS
10
108.324
20
-134.389
11
108.228
21
-134.199
0
LINE
8
BLACK
6
CONTINUOUS
10
108.228
20
-134.199
11
108.133
21
-133.818
0
LINE
8
BLACK
6
CONTINUOUS
10
108.133
20
-133.818
11
108.133
21
-133.342
0
LINE
8
BLACK
6
CONTINUOUS
10
108.133
20
-133.342
11
108.228
21
-132.961
0
LINE
8
BLACK
6
CONTINUOUS
10
108.228
20
-132.961
11
108.324
21
-132.77
0
LINE
8
BLACK
6
CONTINUOUS
10
108.324
20
-132.77
11
108.419
21
-132.675
0
LINE
8
BLACK
6
CONTINUOUS
10
108.419
20
-132.675
11
108.609
21
-132.58
0
LINE
8
BLACK
6
CONTINUOUS
10
110.514
20
-132.58
11
110.705
21
-132.58
0
LINE
8
BLACK
6
CONTINUOUS
10
110.705
20
-132.58
11
110.895
21
-132.675
0
LINE
8
BLACK
6
CONTINUOUS
10
110.895
20
-132.675
11
110.99
21
-132.77
0
LINE
8
BLACK
6
CONTINUOUS
10
110.99
20
-132.77
11
111.085
21
-132.961
0
LINE
8
BLACK
6
CONTINUOUS
10
111.085
20
-132.961
11
111.181
21
-133.342
0
LINE
8
BLACK
6
CONTINUOUS
10
111.181
20
-133.342
11
111.181
21
-133.818
0
LINE
8
BLACK
6
CONTINUOUS
10
111.181
20
-133.818
11
111.085
21
-134.199
0
LINE
8
BLACK
6
CONTINUOUS
10
111.085
20
-134.199
11
110.99
21
-134.389
0
LINE
8
BLACK
6
CONTINUOUS
10
110.99
20
-134.389
11
110.895
21
-134.485
0
LINE
8
BLACK
6
CONTINUOUS
10
110.895
20
-134.485
11
110.705
21
-134.58
0
LINE
8
BLACK
6
CONTINUOUS
10
110.705
20
-134.58
11
110.514
21
-134.58
0
LINE
8
BLACK
6
CONTINUOUS
10
110.514
20
-134.58
11
110.324
21
-134.485
0
LINE
8
BLACK
6
CONTINUOUS
10
110.324
20
-134.485
11
110.228
21
-134.389
0
LINE
8
BLACK
6
CONTINUOUS
10
110.228
20
-134.389
11
110.133
21
-134.199
0
LINE
8
BLACK
6
CONTINUOUS
10
110.133
20
-134.199
11
110.038
21
-133.818
0
LINE
8
BLACK
6
CONTINUOUS
10
110.038
20
-133.818
11
110.038
21
-133.342
0
LINE
8
BLACK
6
CONTINUOUS
10
110.038
20
-133.342
11
110.133
21
-132.961
0
LINE
8
BLACK
6
CONTINUOUS
10
110.133
20
-132.961
11
110.228
21
-132.77
0
LINE
8
BLACK
6
CONTINUOUS
10
110.228
20
-132.77
11
110.324
21
-132.675
0
LINE
8
BLACK
6
CONTINUOUS
10
110.324
20
-132.675
11
110.514
21
-132.58
0
LINE
8
BLACK
6
CONTINUOUS
10
112.419
20
-132.58
11
112.609
21
-132.58
0
LINE
8
BLACK
6
CONTINUOUS
10
112.609
20
-132.58
11
112.8
21
-132.675
0
LINE
8
BLACK
6
CONTINUOUS
10
112.8
20
-132.675
11
112.895
21
-132.77
0
LINE
8
BLACK
6
CONTINUOUS
10
112.895
20
-132.77
11
112.99
21
-132.961
0
LINE
8
BLACK
6
CONTINUOUS
10
112.99
20
-132.961
11
113.085
21
-133.342
0
LINE
8
BLACK
6
CONTINUOUS
10
113.085
20
-133.342
11
113.085
21
-133.818
0
LINE
8
BLACK
6
CONTINUOUS
10
113.085
20
-133.818
11
112.99
21
-134.199
0
LINE
8
BLACK
6
CONTINUOUS
10
112.99
20
-134.199
11
112.895
21
-134.389
0
LINE
8
BLACK
6
CONTINUOUS
10
112.895
20
-134.389
11
112.8
21
-134.485
0
LINE
8
BLACK
6
CONTINUOUS
10
112.8
20
-134.485
11
112.609
21
-134.58
0
LINE
8
BLACK
6
CONTINUOUS
10
112.609
20
-134.58
11
112.419
21
-134.58
0
LINE
8
BLACK
6
CONTINUOUS
10
112.419
20
-134.58
11
112.228
21
-134.485
0
LINE
8
BLACK
6
CONTINUOUS
10
112.228
20
-134.485
11
112.133
21
-134.389
0
LINE
8
BLACK
6
CONTINUOUS
10
112.133
20
-134.389
11
112.038
21
-134.199
0
LINE
8
BLACK
6
CONTINUOUS
10
112.038
20
-134.199
11
111.943
21
-133.818
0
LINE
8
BLACK
6
CONTINUOUS
10
111.943
20
-133.818
11
111.943
21
-133.342
0
LINE
8
BLACK
6
CONTINUOUS
10
111.943
20
-133.342
11
112.038
21
-132.961
0
LINE
8
BLACK
6
CONTINUOUS
10
112.038
20
-132.961
11
112.133
21
-132.77
0
LINE
8
BLACK
6
CONTINUOUS
10
112.133
20
-132.77
11
112.228
21
-132.675
0
LINE
8
BLACK
6
CONTINUOUS
10
112.228
20
-132.675
11
112.419
21
-132.58
0
LINE
8
BLACK
6
CONTINUOUS
10
113.943
20
-134.58
11
113.943
21
-133.246
0
LINE
8
BLACK
6
CONTINUOUS
10
113.943
20
-133.437
11
114.038
21
-133.342
0
LINE
8
BLACK
6
CONTINUOUS
10
114.038
20
-133.342
11
114.228
21
-133.246
0
LINE
8
BLACK
6
CONTINUOUS
10
114.228
20
-133.246
11
114.514
21
-133.246
0
LINE
8
BLACK
6
CONTINUOUS
10
114.514
20
-133.246
11
114.705
21
-133.342
0
LINE
8
BLACK
6
CONTINUOUS
10
114.705
20
-133.342
11
114.8
21
-133.532
0
LINE
8
BLACK
6
CONTINUOUS
10
114.8
20
-133.532
11
114.8
21
-134.58
0
LINE
8
BLACK
6
CONTINUOUS
10
114.8
20
-133.532
11
114.895
21
-133.342
0
LINE
8
BLACK
6
CONTINUOUS
10
114.895
20
-133.342
11
115.085
21
-133.246
0
LINE
8
BLACK
6
CONTINUOUS
10
115.085
20
-133.246
11
115.371
21
-133.246
0
LINE
8
BLACK
6
CONTINUOUS
10
115.371
20
-133.246
11
115.562
21
-133.342
0
LINE
8
BLACK
6
CONTINUOUS
10
115.562
20
-133.342
11
115.657
21
-133.532
0
LINE
8
BLACK
6
CONTINUOUS
10
115.657
20
-133.532
11
115.657
21
-134.58
0
LINE
8
BLACK
6
CONTINUOUS
10
116.609
20
-134.58
11
116.609
21
-133.246
0
LINE
8
BLACK
6
CONTINUOUS
10
116.609
20
-133.437
11
116.705
21
-133.342
0
LINE
8
BLACK
6
CONTINUOUS
10
116.705
20
-133.342
11
116.895
21
-133.246
0
LINE
8
BLACK
6
CONTINUOUS
10
116.895
20
-133.246
11
117.181
21
-133.246
0
LINE
8
BLACK
6
CONTINUOUS
10
117.181
20
-133.246
11
117.371
21
-133.342
0
LINE
8
BLACK
6
CONTINUOUS
10
117.371
20
-133.342
11
117.466
21
-133.532
0
LINE
8
BLACK
6
CONTINUOUS
10
117.466
20
-133.532
11
117.466
21
-134.58
0
LINE
8
BLACK
6
CONTINUOUS
10
117.466
20
-133.532
11
117.562
21
-133.342
0
LINE
8
BLACK
6
CONTINUOUS
10
117.562
20
-133.342
11
117.752
21
-133.246
0
LINE
8
BLACK
6
CONTINUOUS
10
117.752
20
-133.246
11
118.038
21
-133.246
0
LINE
8
BLACK
6
CONTINUOUS
10
118.038
20
-133.246
11
118.228
21
-133.342
0
LINE
8
BLACK
6
CONTINUOUS
10
118.228
20
-133.342
11
118.324
21
-133.532
0
LINE
8
BLACK
6
CONTINUOUS
10
118.324
20
-133.532
11
118.324
21
-134.58
0
LINE
8
BLACK
6
CONTINUOUS
10
122.228
20
-132.485
11
120.514
21
-135.056
0
LINE
8
BLACK
6
CONTINUOUS
10
124.8
20
-132.58
11
124.99
21
-132.58
0
LINE
8
BLACK
6
CONTINUOUS
10
124.99
20
-132.58
11
125.181
21
-132.675
0
LINE
8
BLACK
6
CONTINUOUS
10
125.181
20
-132.675
11
125.276
21
-132.77
0
LINE
8
BLACK
6
CONTINUOUS
10
125.276
20
-132.77
11
125.371
21
-132.961
0
LINE
8
BLACK
6
CONTINUOUS
10
125.371
20
-132.961
11
125.466
21
-133.342
0
LINE
8
BLACK
6
CONTINUOUS
10
125.466
20
-133.342
11
125.466
21
-133.818
0
LINE
8
BLACK
6
CONTINUOUS
10
125.466
20
-133.818
11
125.371
21
-134.199
0
LINE
8
BLACK
6
CONTINUOUS
10
125.371
20
-134.199
11
125.276
21
-134.389
0
LINE
8
BLACK
6
CONTINUOUS
10
125.276
20
-134.389
11
125.181
21
-134.485
0
LINE
8
BLACK
6
CONTINUOUS
10
125.181
20
-134.485
11
124.99
21
-134.58
0
LINE
8
BLACK
6
CONTINUOUS
10
124.99
20
-134.58
11
124.8
21
-134.58
0
LINE
8
BLACK
6
CONTINUOUS
10
124.8
20
-134.58
11
124.609
21
-134.485
0
LINE
8
BLACK
6
CONTINUOUS
10
124.609
20
-134.485
11
124.514
21
-134.389
0
LINE
8
BLACK
6
CONTINUOUS
10
124.514
20
-134.389
11
124.419
21
-134.199
0
LINE
8
BLACK
6
CONTINUOUS
10
124.419
20
-134.199
11
124.324
21
-133.818
0
LINE
8
BLACK
6
CONTINUOUS
10
124.324
20
-133.818
11
124.324
21
-133.342
0
LINE
8
BLACK
6
CONTINUOUS
10
124.324
20
-133.342
11
124.419
21
-132.961
0
LINE
8
BLACK
6
CONTINUOUS
10
124.419
20
-132.961
11
124.514
21
-132.77
0
LINE
8
BLACK
6
CONTINUOUS
10
124.514
20
-132.77
11
124.609
21
-132.675
0
LINE
8
BLACK
6
CONTINUOUS
10
124.609
20
-132.675
11
124.8
21
-132.58
0
LINE
8
BLACK
6
CONTINUOUS
10
126.324
20
-134.389
11
126.419
21
-134.485
0
LINE
8
BLACK
6
CONTINUOUS
10
126.419
20
-134.485
11
126.324
21
-134.58
0
LINE
8
BLACK
6
CONTINUOUS
10
126.324
20
-134.58
11
126.228
21
-134.485
0
LINE
8
BLACK
6
CONTINUOUS
10
126.228
20
-134.485
11
126.324
21
-134.389
0
LINE
8
BLACK
6
CONTINUOUS
10
126.324
20
-134.389
11
126.324
21
-134.58
0
LINE
8
BLACK
6
CONTINUOUS
10
127.657
20
-132.58
11
127.847
21
-132.58
0
LINE
8
BLACK
6
CONTINUOUS
10
127.847
20
-132.58
11
128.038
21
-132.675
0
LINE
8
BLACK
6
CONTINUOUS
10
128.038
20
-132.675
11
128.133
21
-132.77
0
LINE
8
BLACK
6
CONTINUOUS
10
128.133
20
-132.77
11
128.228
21
-132.961
0
LINE
8
BLACK
6
CONTINUOUS
10
128.228
20
-132.961
11
128.324
21
-133.342
0
LINE
8
BLACK
6
CONTINUOUS
10
128.324
20
-133.342
11
128.324
21
-133.818
0
LINE
8
BLACK
6
CONTINUOUS
10
128.324
20
-133.818
11
128.228
21
-134.199
0
LINE
8
BLACK
6
CONTINUOUS
10
128.228
20
-134.199
11
128.133
21
-134.389
0
LINE
8
BLACK
6
CONTINUOUS
10
128.133
20
-134.389
11
128.038
21
-134.485
0
LINE
8
BLACK
6
CONTINUOUS
10
128.038
20
-134.485
11
127.847
21
-134.58
0
LINE
8
BLACK
6
CONTINUOUS
10
127.847
20
-134.58
11
127.657
21
-134.58
0
LINE
8
BLACK
6
CONTINUOUS
10
127.657
20
-134.58
11
127.466
21
-134.485
0
LINE
8
BLACK
6
CONTINUOUS
10
127.466
20
-134.485
11
127.371
21
-134.389
0
LINE
8
BLACK
6
CONTINUOUS
10
127.371
20
-134.389
11
127.276
21
-134.199
0
LINE
8
BLACK
6
CONTINUOUS
10
127.276
20
-134.199
11
127.181
21
-133.818
0
LINE
8
BLACK
6
CONTINUOUS
10
127.181
20
-133.818
11
127.181
21
-133.342
0
LINE
8
BLACK
6
CONTINUOUS
10
127.181
20
-133.342
11
127.276
21
-132.961
0
LINE
8
BLACK
6
CONTINUOUS
10
127.276
20
-132.961
11
127.371
21
-132.77
0
LINE
8
BLACK
6
CONTINUOUS
10
127.371
20
-132.77
11
127.466
21
-132.675
0
LINE
8
BLACK
6
CONTINUOUS
10
127.466
20
-132.675
11
127.657
21
-132.58
0
LINE
8
BLACK
6
CONTINUOUS
10
128.99
20
-132.58
11
130.228
21
-132.58
0
LINE
8
BLACK
6
CONTINUOUS
10
130.228
20
-132.58
11
129.562
21
-133.342
0
LINE
8
BLACK
6
CONTINUOUS
10
129.562
20
-133.342
11
129.847
21
-133.342
0
LINE
8
BLACK
6
CONTINUOUS
10
129.847
20
-133.342
11
130.038
21
-133.437
0
LINE
8
BLACK
6
CONTINUOUS
10
130.038
20
-133.437
11
130.133
21
-133.532
0
LINE
8
BLACK
6
CONTINUOUS
10
130.133
20
-133.532
11
130.228
21
-133.723
0
LINE
8
BLACK
6
CONTINUOUS
10
130.228
20
-133.723
11
130.228
21
-134.199
0
LINE
8
BLACK
6
CONTINUOUS
10
130.228
20
-134.199
11
130.133
21
-134.389
0
LINE
8
BLACK
6
CONTINUOUS
10
130.133
20
-134.389
11
130.038
21
-134.485
0
LINE
8
BLACK
6
CONTINUOUS
10
130.038
20
-134.485
11
129.847
21
-134.58
0
LINE
8
BLACK
6
CONTINUOUS
10
129.847
20
-134.58
11
129.276
21
-134.58
0
LINE
8
BLACK
6
CONTINUOUS
10
129.276
20
-134.58
11
129.085
21
-134.485
0
LINE
8
BLACK
6
CONTINUOUS
10
129.085
20
-134.485
11
128.99
21
-134.389
0
LINE
8
BLACK
6
CONTINUOUS
10
131.181
20
-134.58
11
131.562
21
-134.58
0
LINE
8
BLACK
6
CONTINUOUS
10
131.562
20
-134.58
11
131.752
21
-134.485
0
LINE
8
BLACK
6
CONTINUOUS
10
131.752
20
-134.485
11
131.847
21
-134.389
0
LINE
8
BLACK
6
CONTINUOUS
10
131.847
20
-134.389
11
132.038
21
-134.104
0
LINE
8
BLACK
6
CONTINUOUS
10
132.038
20
-134.104
11
132.133
21
-133.723
0
LINE
8
BLACK
6
CONTINUOUS
10
132.133
20
-133.723
11
132.133
21
-132.961
0
LINE
8
BLACK
6
CONTINUOUS
10
132.133
20
-132.961
11
132.038
21
-132.77
0
LINE
8
BLACK
6
CONTINUOUS
10
132.038
20
-132.77
11
131.943
21
-132.675
0
LINE
8
BLACK
6
CONTINUOUS
10
131.943
20
-132.675
11
131.752
21
-132.58
0
LINE
8
BLACK
6
CONTINUOUS
10
131.752
20
-132.58
11
131.371
21
-132.58
0
LINE
8
BLACK
6
CONTINUOUS
10
131.371
20
-132.58
11
131.181
21
-132.675
0
LINE
8
BLACK
6
CONTINUOUS
10
131.181
20
-132.675
11
131.085
21
-132.77
0
LINE
8
BLACK
6
CONTINUOUS
10
131.085
20
-132.77
11
130.99
21
-132.961
0
LINE
8
BLACK
6
CONTINUOUS
10
130.99
20
-132.961
11
130.99
21
-133.437
0
LINE
8
BLACK
6
CONTINUOUS
10
130.99
20
-133.437
11
131.085
21
-133.627
0
LINE
8
BLACK
6
CONTINUOUS
10
131.085
20
-133.627
11
131.181
21
-133.723
0
LINE
8
BLACK
6
CONTINUOUS
10
131.181
20
-133.723
11
131.371
21
-133.818
0
LINE
8
BLACK
6
CONTINUOUS
10
131.371
20
-133.818
11
131.752
21
-133.818
0
LINE
8
BLACK
6
CONTINUOUS
10
131.752
20
-133.818
11
131.943
21
-133.723
0
LINE
8
BLACK
6
CONTINUOUS
10
131.943
20
-133.723
11
132.038
21
-133.627
0
LINE
8
BLACK
6
CONTINUOUS
10
132.038
20
-133.627
11
132.133
21
-133.437
0
LINE
8
BLACK
6
CONTINUOUS
10
133.847
20
-133.246
11
133.847
21
-134.58
0
LINE
8
BLACK
6
CONTINUOUS
10
133.371
20
-132.485
11
132.895
21
-133.913
0
LINE
8
BLACK
6
CONTINUOUS
10
132.895
20
-133.913
11
134.133
21
-133.913
0
LINE
8
BLACK
6
CONTINUOUS
10
134.8
20
-132.58
11
134.8
21
-132.961
0
LINE
8
BLACK
6
CONTINUOUS
10
135.562
20
-132.58
11
135.562
21
-132.961
0
LINE
8
BLACK
6
CONTINUOUS
10
138.514
20
-135.342
11
138.419
21
-135.246
0
LINE
8
BLACK
6
CONTINUOUS
10
138.419
20
-135.246
11
138.228
21
-134.961
0
LINE
8
BLACK
6
CONTINUOUS
10
138.228
20
-134.961
11
138.133
21
-134.77
0
LINE
8
BLACK
6
CONTINUOUS
10
138.133
20
-134.77
11
138.038
21
-134.485
0
LINE
8
BLACK
6
CONTINUOUS
10
138.038
20
-134.485
11
137.943
21
-134.008
0
LINE
8
BLACK
6
CONTINUOUS
10
137.943
20
-134.008
11
137.943
21
-133.627
0
LINE
8
BLACK
6
CONTINUOUS
10
137.943
20
-133.627
11
138.038
21
-133.151
0
LINE
8
BLACK
6
CONTINUOUS
10
138.038
20
-133.151
11
138.133
21
-132.865
0
LINE
8
BLACK
6
CONTINUOUS
10
138.133
20
-132.865
11
138.228
21
-132.675
0
LINE
8
BLACK
6
CONTINUOUS
10
138.228
20
-132.675
11
138.419
21
-132.389
0
LINE
8
BLACK
6
CONTINUOUS
10
138.419
20
-132.389
11
138.514
21
-132.294
0
LINE
8
BLACK
6
CONTINUOUS
10
140.228
20
-132.58
11
139.276
21
-132.58
0
LINE
8
BLACK
6
CONTINUOUS
10
139.276
20
-132.58
11
139.181
21
-133.532
0
LINE
8
BLACK
6
CONTINUOUS
10
139.181
20
-133.532
11
139.276
21
-133.437
0
LINE
8
BLACK
6
CONTINUOUS
10
139.276
20
-133.437
11
139.466
21
-133.342
0
LINE
8
BLACK
6
CONTINUOUS
10
139.466
20
-133.342
11
139.943
21
-133.342
0
LINE
8
BLACK
6
CONTINUOUS
10
139.943
20
-133.342
11
140.133
21
-133.437
0
LINE
8
BLACK
6
CONTINUOUS
10
140.133
20
-133.437
11
140.228
21
-133.532
0
LINE
8
BLACK
6
CONTINUOUS
10
140.228
20
-133.532
11
140.324
21
-133.723
0
LINE
8
BLACK
6
CONTINUOUS
10
140.324
20
-133.723
11
140.324
21
-134.199
0
LINE
8
BLACK
6
CONTINUOUS
10
140.324
20
-134.199
11
140.228
21
-134.389
0
LINE
8
BLACK
6
CONTINUOUS
10
140.228
20
-134.389
11
140.133
21
-134.485
0
LINE
8
BLACK
6
CONTINUOUS
10
140.133
20
-134.485
11
139.943
21
-134.58
0
LINE
8
BLACK
6
CONTINUOUS
10
139.943
20
-134.58
11
139.466
21
-134.58
0
LINE
8
BLACK
6
CONTINUOUS
10
139.466
20
-134.58
11
139.276
21
-134.485
0
LINE
8
BLACK
6
CONTINUOUS
10
139.276
20
-134.485
11
139.181
21
-134.389
0
LINE
8
BLACK
6
CONTINUOUS
10
142.705
20
-134.58
11
142.705
21
-132.58
0
LINE
8
BLACK
6
CONTINUOUS
10
143.562
20
-134.58
11
143.562
21
-133.532
0
LINE
8
BLACK
6
CONTINUOUS
10
143.562
20
-133.532
11
143.466
21
-133.342
0
LINE
8
BLACK
6
CONTINUOUS
10
143.466
20
-133.342
11
143.276
21
-133.246
0
LINE
8
BLACK
6
CONTINUOUS
10
143.276
20
-133.246
11
142.99
21
-133.246
0
LINE
8
BLACK
6
CONTINUOUS
10
142.99
20
-133.246
11
142.8
21
-133.342
0
LINE
8
BLACK
6
CONTINUOUS
10
142.8
20
-133.342
11
142.705
21
-133.437
0
LINE
8
BLACK
6
CONTINUOUS
10
144.8
20
-134.58
11
144.609
21
-134.485
0
LINE
8
BLACK
6
CONTINUOUS
10
144.609
20
-134.485
11
144.514
21
-134.389
0
LINE
8
BLACK
6
CONTINUOUS
10
144.514
20
-134.389
11
144.419
21
-134.199
0
LINE
8
BLACK
6
CONTINUOUS
10
144.419
20
-134.199
11
144.419
21
-133.627
0
LINE
8
BLACK
6
CONTINUOUS
10
144.419
20
-133.627
11
144.514
21
-133.437
0
LINE
8
BLACK
6
CONTINUOUS
10
144.514
20
-133.437
11
144.609
21
-133.342
0
LINE
8
BLACK
6
CONTINUOUS
10
144.609
20
-133.342
11
144.8
21
-133.246
0
LINE
8
BLACK
6
CONTINUOUS
10
144.8
20
-133.246
11
145.085
21
-133.246
0
LINE
8
BLACK
6
CONTINUOUS
10
145.085
20
-133.246
11
145.276
21
-133.342
0
LINE
8
BLACK
6
CONTINUOUS
10
145.276
20
-133.342
11
145.371
21
-133.437
0
LINE
8
BLACK
6
CONTINUOUS
10
145.371
20
-133.437
11
145.466
21
-133.627
0
LINE
8
BLACK
6
CONTINUOUS
10
145.466
20
-133.627
11
145.466
21
-134.199
0
LINE
8
BLACK
6
CONTINUOUS
10
145.466
20
-134.199
11
145.371
21
-134.389
0
LINE
8
BLACK
6
CONTINUOUS
10
145.371
20
-134.389
11
145.276
21
-134.485
0
LINE
8
BLACK
6
CONTINUOUS
10
145.276
20
-134.485
11
145.085
21
-134.58
0
LINE
8
BLACK
6
CONTINUOUS
10
145.085
20
-134.58
11
144.8
21
-134.58
0
LINE
8
BLACK
6
CONTINUOUS
10
146.609
20
-134.58
11
146.419
21
-134.485
0
LINE
8
BLACK
6
CONTINUOUS
10
146.419
20
-134.485
11
146.324
21
-134.294
0
LINE
8
BLACK
6
CONTINUOUS
10
146.324
20
-134.294
11
146.324
21
-132.58
0
LINE
8
BLACK
6
CONTINUOUS
10
148.133
20
-134.485
11
147.943
21
-134.58
0
LINE
8
BLACK
6
CONTINUOUS
10
147.943
20
-134.58
11
147.562
21
-134.58
0
LINE
8
BLACK
6
CONTINUOUS
10
147.562
20
-134.58
11
147.371
21
-134.485
0
LINE
8
BLACK
6
CONTINUOUS
10
147.371
20
-134.485
11
147.276
21
-134.294
0
LINE
8
BLACK
6
CONTINUOUS
10
147.276
20
-134.294
11
147.276
21
-133.532
0
LINE
8
BLACK
6
CONTINUOUS
10
147.276
20
-133.532
11
147.371
21
-133.342
0
LINE
8
BLACK
6
CONTINUOUS
10
147.371
20
-133.342
11
147.562
21
-133.246
0
LINE
8
BLACK
6
CONTINUOUS
10
147.562
20
-133.246
11
147.943
21
-133.246
0
LINE
8
BLACK
6
CONTINUOUS
10
147.943
20
-133.246
11
148.133
21
-133.342
0
LINE
8
BLACK
6
CONTINUOUS
10
148.133
20
-133.342
11
148.228
21
-133.532
0
LINE
8
BLACK
6
CONTINUOUS
10
148.228
20
-133.532
11
148.228
21
-133.723
0
LINE
8
BLACK
6
CONTINUOUS
10
148.228
20
-133.723
11
147.276
21
-133.913
0
LINE
8
BLACK
6
CONTINUOUS
10
148.99
20
-134.485
11
149.181
21
-134.58
0
LINE
8
BLACK
6
CONTINUOUS
10
149.181
20
-134.58
11
149.562
21
-134.58
0
LINE
8
BLACK
6
CONTINUOUS
10
149.562
20
-134.58
11
149.752
21
-134.485
0
LINE
8
BLACK
6
CONTINUOUS
10
149.752
20
-134.485
11
149.847
21
-134.294
0
LINE
8
BLACK
6
CONTINUOUS
10
149.847
20
-134.294
11
149.847
21
-134.199
0
LINE
8
BLACK
6
CONTINUOUS
10
149.847
20
-134.199
11
149.752
21
-134.008
0
LINE
8
BLACK
6
CONTINUOUS
10
149.752
20
-134.008
11
149.562
21
-133.913
0
LINE
8
BLACK
6
CONTINUOUS
10
149.562
20
-133.913
11
149.276
21
-133.913
0
LINE
8
BLACK
6
CONTINUOUS
10
149.276
20
-133.913
11
149.085
21
-133.818
0
LINE
8
BLACK
6
CONTINUOUS
10
149.085
20
-133.818
11
148.99
21
-133.627
0
LINE
8
BLACK
6
CONTINUOUS
10
148.99
20
-133.627
11
148.99
21
-133.532
0
LINE
8
BLACK
6
CONTINUOUS
10
148.99
20
-133.532
11
149.085
21
-133.342
0
LINE
8
BLACK
6
CONTINUOUS
10
149.085
20
-133.342
11
149.276
21
-133.246
0
LINE
8
BLACK
6
CONTINUOUS
10
149.276
20
-133.246
11
149.562
21
-133.246
0
LINE
8
BLACK
6
CONTINUOUS
10
149.562
20
-133.246
11
149.752
21
-133.342
0
LINE
8
BLACK
6
CONTINUOUS
10
150.514
20
-135.342
11
150.609
21
-135.246
0
LINE
8
BLACK
6
CONTINUOUS
10
150.609
20
-135.246
11
150.8
21
-134.961
0
LINE
8
BLACK
6
CONTINUOUS
10
150.8
20
-134.961
11
150.895
21
-134.77
0
LINE
8
BLACK
6
CONTINUOUS
10
150.895
20
-134.77
11
150.99
21
-134.485
0
LINE
8
BLACK
6
CONTINUOUS
10
150.99
20
-134.485
11
151.085
21
-134.008
0
LINE
8
BLACK
6
CONTINUOUS
10
151.085
20
-134.008
11
151.085
21
-133.627
0
LINE
8
BLACK
6
CONTINUOUS
10
151.085
20
-133.627
11
150.99
21
-133.151
0
LINE
8
BLACK
6
CONTINUOUS
10
150.99
20
-133.151
11
150.895
21
-132.865
0
LINE
8
BLACK
6
CONTINUOUS
10
150.895
20
-132.865
11
150.8
21
-132.675
0
LINE
8
BLACK
6
CONTINUOUS
10
150.8
20
-132.675
11
150.609
21
-132.389
0
LINE
8
BLACK
6
CONTINUOUS
10
150.609
20
-132.389
11
150.514
21
-132.294
  0
ENDSEC
  0
EOF
