G04 #@! TF.GenerationSoftware,KiCad,Pcbnew,(5.1.10)-1*
G04 #@! TF.CreationDate,2021-05-21T10:06:19-04:00*
G04 #@! TF.ProjectId,IO Board,494f2042-6f61-4726-942e-6b696361645f,1.4*
G04 #@! TF.SameCoordinates,Original*
G04 #@! TF.FileFunction,Legend,Bot*
G04 #@! TF.FilePolarity,Positive*
%FSLAX46Y46*%
G04 Gerber Fmt 4.6, Leading zero omitted, Abs format (unit mm)*
G04 Created by KiCad (PCBNEW (5.1.10)-1) date 2021-05-21 10:06:19*
%MOMM*%
%LPD*%
G01*
G04 APERTURE LIST*
%ADD10C,0.100000*%
%ADD11C,0.150000*%
%ADD12C,0.300000*%
%ADD13C,0.400000*%
%ADD14C,0.120000*%
%ADD15C,1.600000*%
%ADD16R,1.600000X1.600000*%
%ADD17R,1.900000X0.800000*%
%ADD18R,0.650000X1.560000*%
%ADD19R,1.700000X1.700000*%
%ADD20O,1.700000X1.700000*%
G04 APERTURE END LIST*
D10*
D11*
X159400000Y-171900000D02*
X159400000Y-203900000D01*
X267400000Y-203900000D01*
X267400000Y-171900000D01*
X159400000Y-171900000D01*
D10*
D11*
X10000000Y-10000000D02*
X10000000Y-205900000D01*
X269400000Y-205900000D01*
X269400000Y-10000000D01*
X10000000Y-10000000D01*
D10*
D11*
X12000000Y-12000000D02*
X12000000Y-203900000D01*
X267400000Y-203900000D01*
X267400000Y-12000000D01*
X12000000Y-12000000D01*
D10*
D11*
X60000000Y-12000000D02*
X60000000Y-10000000D01*
D10*
D11*
X110000000Y-12000000D02*
X110000000Y-10000000D01*
D10*
D11*
X160000000Y-12000000D02*
X160000000Y-10000000D01*
D10*
D11*
X210000000Y-12000000D02*
X210000000Y-10000000D01*
D10*
D11*
X260000000Y-12000000D02*
X260000000Y-10000000D01*
D10*
D11*
X36065476Y-11588095D02*
X35322619Y-11588095D01*
X35694047Y-11588095D02*
X35694047Y-10288095D01*
X35570238Y-10473809D01*
X35446428Y-10597619D01*
X35322619Y-10659523D01*
D10*
D11*
X85322619Y-10411904D02*
X85384523Y-10350000D01*
X85508333Y-10288095D01*
X85817857Y-10288095D01*
X85941666Y-10350000D01*
X86003571Y-10411904D01*
X86065476Y-10535714D01*
X86065476Y-10659523D01*
X86003571Y-10845238D01*
X85260714Y-11588095D01*
X86065476Y-11588095D01*
D10*
D11*
X135260714Y-10288095D02*
X136065476Y-10288095D01*
X135632142Y-10783333D01*
X135817857Y-10783333D01*
X135941666Y-10845238D01*
X136003571Y-10907142D01*
X136065476Y-11030952D01*
X136065476Y-11340476D01*
X136003571Y-11464285D01*
X135941666Y-11526190D01*
X135817857Y-11588095D01*
X135446428Y-11588095D01*
X135322619Y-11526190D01*
X135260714Y-11464285D01*
D10*
D11*
X185941666Y-10721428D02*
X185941666Y-11588095D01*
X185632142Y-10226190D02*
X185322619Y-11154761D01*
X186127380Y-11154761D01*
D10*
D11*
X236003571Y-10288095D02*
X235384523Y-10288095D01*
X235322619Y-10907142D01*
X235384523Y-10845238D01*
X235508333Y-10783333D01*
X235817857Y-10783333D01*
X235941666Y-10845238D01*
X236003571Y-10907142D01*
X236065476Y-11030952D01*
X236065476Y-11340476D01*
X236003571Y-11464285D01*
X235941666Y-11526190D01*
X235817857Y-11588095D01*
X235508333Y-11588095D01*
X235384523Y-11526190D01*
X235322619Y-11464285D01*
D10*
D11*
X60000000Y-203900000D02*
X60000000Y-205900000D01*
D10*
D11*
X110000000Y-203900000D02*
X110000000Y-205900000D01*
D10*
D11*
X160000000Y-203900000D02*
X160000000Y-205900000D01*
D10*
D11*
X210000000Y-203900000D02*
X210000000Y-205900000D01*
D10*
D11*
X260000000Y-203900000D02*
X260000000Y-205900000D01*
D10*
D11*
X36065476Y-205488095D02*
X35322619Y-205488095D01*
X35694047Y-205488095D02*
X35694047Y-204188095D01*
X35570238Y-204373809D01*
X35446428Y-204497619D01*
X35322619Y-204559523D01*
D10*
D11*
X85322619Y-204311904D02*
X85384523Y-204250000D01*
X85508333Y-204188095D01*
X85817857Y-204188095D01*
X85941666Y-204250000D01*
X86003571Y-204311904D01*
X86065476Y-204435714D01*
X86065476Y-204559523D01*
X86003571Y-204745238D01*
X85260714Y-205488095D01*
X86065476Y-205488095D01*
D10*
D11*
X135260714Y-204188095D02*
X136065476Y-204188095D01*
X135632142Y-204683333D01*
X135817857Y-204683333D01*
X135941666Y-204745238D01*
X136003571Y-204807142D01*
X136065476Y-204930952D01*
X136065476Y-205240476D01*
X136003571Y-205364285D01*
X135941666Y-205426190D01*
X135817857Y-205488095D01*
X135446428Y-205488095D01*
X135322619Y-205426190D01*
X135260714Y-205364285D01*
D10*
D11*
X185941666Y-204621428D02*
X185941666Y-205488095D01*
X185632142Y-204126190D02*
X185322619Y-205054761D01*
X186127380Y-205054761D01*
D10*
D11*
X236003571Y-204188095D02*
X235384523Y-204188095D01*
X235322619Y-204807142D01*
X235384523Y-204745238D01*
X235508333Y-204683333D01*
X235817857Y-204683333D01*
X235941666Y-204745238D01*
X236003571Y-204807142D01*
X236065476Y-204930952D01*
X236065476Y-205240476D01*
X236003571Y-205364285D01*
X235941666Y-205426190D01*
X235817857Y-205488095D01*
X235508333Y-205488095D01*
X235384523Y-205426190D01*
X235322619Y-205364285D01*
D10*
D11*
X10000000Y-60000000D02*
X12000000Y-60000000D01*
D10*
D11*
X10000000Y-110000000D02*
X12000000Y-110000000D01*
D10*
D11*
X10000000Y-160000000D02*
X12000000Y-160000000D01*
D10*
D11*
X10690476Y-35216666D02*
X11309523Y-35216666D01*
X10566666Y-35588095D02*
X11000000Y-34288095D01*
X11433333Y-35588095D01*
D10*
D11*
X11092857Y-84907142D02*
X11278571Y-84969047D01*
X11340476Y-85030952D01*
X11402380Y-85154761D01*
X11402380Y-85340476D01*
X11340476Y-85464285D01*
X11278571Y-85526190D01*
X11154761Y-85588095D01*
X10659523Y-85588095D01*
X10659523Y-84288095D01*
X11092857Y-84288095D01*
X11216666Y-84350000D01*
X11278571Y-84411904D01*
X11340476Y-84535714D01*
X11340476Y-84659523D01*
X11278571Y-84783333D01*
X11216666Y-84845238D01*
X11092857Y-84907142D01*
X10659523Y-84907142D01*
D10*
D11*
X11402380Y-135464285D02*
X11340476Y-135526190D01*
X11154761Y-135588095D01*
X11030952Y-135588095D01*
X10845238Y-135526190D01*
X10721428Y-135402380D01*
X10659523Y-135278571D01*
X10597619Y-135030952D01*
X10597619Y-134845238D01*
X10659523Y-134597619D01*
X10721428Y-134473809D01*
X10845238Y-134350000D01*
X11030952Y-134288095D01*
X11154761Y-134288095D01*
X11340476Y-134350000D01*
X11402380Y-134411904D01*
D10*
D11*
X10659523Y-185588095D02*
X10659523Y-184288095D01*
X10969047Y-184288095D01*
X11154761Y-184350000D01*
X11278571Y-184473809D01*
X11340476Y-184597619D01*
X11402380Y-184845238D01*
X11402380Y-185030952D01*
X11340476Y-185278571D01*
X11278571Y-185402380D01*
X11154761Y-185526190D01*
X10969047Y-185588095D01*
X10659523Y-185588095D01*
D10*
D11*
X269400000Y-60000000D02*
X267400000Y-60000000D01*
D10*
D11*
X269400000Y-110000000D02*
X267400000Y-110000000D01*
D10*
D11*
X269400000Y-160000000D02*
X267400000Y-160000000D01*
D10*
D11*
X268090476Y-35216666D02*
X268709523Y-35216666D01*
X267966666Y-35588095D02*
X268400000Y-34288095D01*
X268833333Y-35588095D01*
D10*
D11*
X268492857Y-84907142D02*
X268678571Y-84969047D01*
X268740476Y-85030952D01*
X268802380Y-85154761D01*
X268802380Y-85340476D01*
X268740476Y-85464285D01*
X268678571Y-85526190D01*
X268554761Y-85588095D01*
X268059523Y-85588095D01*
X268059523Y-84288095D01*
X268492857Y-84288095D01*
X268616666Y-84350000D01*
X268678571Y-84411904D01*
X268740476Y-84535714D01*
X268740476Y-84659523D01*
X268678571Y-84783333D01*
X268616666Y-84845238D01*
X268492857Y-84907142D01*
X268059523Y-84907142D01*
D10*
D11*
X268802380Y-135464285D02*
X268740476Y-135526190D01*
X268554761Y-135588095D01*
X268430952Y-135588095D01*
X268245238Y-135526190D01*
X268121428Y-135402380D01*
X268059523Y-135278571D01*
X267997619Y-135030952D01*
X267997619Y-134845238D01*
X268059523Y-134597619D01*
X268121428Y-134473809D01*
X268245238Y-134350000D01*
X268430952Y-134288095D01*
X268554761Y-134288095D01*
X268740476Y-134350000D01*
X268802380Y-134411904D01*
D10*
D11*
X268059523Y-185588095D02*
X268059523Y-184288095D01*
X268369047Y-184288095D01*
X268554761Y-184350000D01*
X268678571Y-184473809D01*
X268740476Y-184597619D01*
X268802380Y-184845238D01*
X268802380Y-185030952D01*
X268740476Y-185278571D01*
X268678571Y-185402380D01*
X268554761Y-185526190D01*
X268369047Y-185588095D01*
X268059523Y-185588095D01*
D10*
D11*
X182832142Y-199678571D02*
X182832142Y-198178571D01*
X183189285Y-198178571D01*
X183403571Y-198250000D01*
X183546428Y-198392857D01*
X183617857Y-198535714D01*
X183689285Y-198821428D01*
X183689285Y-199035714D01*
X183617857Y-199321428D01*
X183546428Y-199464285D01*
X183403571Y-199607142D01*
X183189285Y-199678571D01*
X182832142Y-199678571D01*
X184975000Y-199678571D02*
X184975000Y-198892857D01*
X184903571Y-198750000D01*
X184760714Y-198678571D01*
X184475000Y-198678571D01*
X184332142Y-198750000D01*
X184975000Y-199607142D02*
X184832142Y-199678571D01*
X184475000Y-199678571D01*
X184332142Y-199607142D01*
X184260714Y-199464285D01*
X184260714Y-199321428D01*
X184332142Y-199178571D01*
X184475000Y-199107142D01*
X184832142Y-199107142D01*
X184975000Y-199035714D01*
X185475000Y-198678571D02*
X186046428Y-198678571D01*
X185689285Y-198178571D02*
X185689285Y-199464285D01*
X185760714Y-199607142D01*
X185903571Y-199678571D01*
X186046428Y-199678571D01*
X187117857Y-199607142D02*
X186975000Y-199678571D01*
X186689285Y-199678571D01*
X186546428Y-199607142D01*
X186475000Y-199464285D01*
X186475000Y-198892857D01*
X186546428Y-198750000D01*
X186689285Y-198678571D01*
X186975000Y-198678571D01*
X187117857Y-198750000D01*
X187189285Y-198892857D01*
X187189285Y-199035714D01*
X186475000Y-199178571D01*
X187832142Y-199535714D02*
X187903571Y-199607142D01*
X187832142Y-199678571D01*
X187760714Y-199607142D01*
X187832142Y-199535714D01*
X187832142Y-199678571D01*
X187832142Y-198750000D02*
X187903571Y-198821428D01*
X187832142Y-198892857D01*
X187760714Y-198821428D01*
X187832142Y-198750000D01*
X187832142Y-198892857D01*
X189617857Y-198321428D02*
X189689285Y-198250000D01*
X189832142Y-198178571D01*
X190189285Y-198178571D01*
X190332142Y-198250000D01*
X190403571Y-198321428D01*
X190475000Y-198464285D01*
X190475000Y-198607142D01*
X190403571Y-198821428D01*
X189546428Y-199678571D01*
X190475000Y-199678571D01*
X191403571Y-198178571D02*
X191546428Y-198178571D01*
X191689285Y-198250000D01*
X191760714Y-198321428D01*
X191832142Y-198464285D01*
X191903571Y-198750000D01*
X191903571Y-199107142D01*
X191832142Y-199392857D01*
X191760714Y-199535714D01*
X191689285Y-199607142D01*
X191546428Y-199678571D01*
X191403571Y-199678571D01*
X191260714Y-199607142D01*
X191189285Y-199535714D01*
X191117857Y-199392857D01*
X191046428Y-199107142D01*
X191046428Y-198750000D01*
X191117857Y-198464285D01*
X191189285Y-198321428D01*
X191260714Y-198250000D01*
X191403571Y-198178571D01*
X192475000Y-198321428D02*
X192546428Y-198250000D01*
X192689285Y-198178571D01*
X193046428Y-198178571D01*
X193189285Y-198250000D01*
X193260714Y-198321428D01*
X193332142Y-198464285D01*
X193332142Y-198607142D01*
X193260714Y-198821428D01*
X192403571Y-199678571D01*
X193332142Y-199678571D01*
X194760714Y-199678571D02*
X193903571Y-199678571D01*
X194332142Y-199678571D02*
X194332142Y-198178571D01*
X194189285Y-198392857D01*
X194046428Y-198535714D01*
X193903571Y-198607142D01*
X195403571Y-199107142D02*
X196546428Y-199107142D01*
X197546428Y-198178571D02*
X197689285Y-198178571D01*
X197832142Y-198250000D01*
X197903571Y-198321428D01*
X197975000Y-198464285D01*
X198046428Y-198750000D01*
X198046428Y-199107142D01*
X197975000Y-199392857D01*
X197903571Y-199535714D01*
X197832142Y-199607142D01*
X197689285Y-199678571D01*
X197546428Y-199678571D01*
X197403571Y-199607142D01*
X197332142Y-199535714D01*
X197260714Y-199392857D01*
X197189285Y-199107142D01*
X197189285Y-198750000D01*
X197260714Y-198464285D01*
X197332142Y-198321428D01*
X197403571Y-198250000D01*
X197546428Y-198178571D01*
X199403571Y-198178571D02*
X198689285Y-198178571D01*
X198617857Y-198892857D01*
X198689285Y-198821428D01*
X198832142Y-198750000D01*
X199189285Y-198750000D01*
X199332142Y-198821428D01*
X199403571Y-198892857D01*
X199475000Y-199035714D01*
X199475000Y-199392857D01*
X199403571Y-199535714D01*
X199332142Y-199607142D01*
X199189285Y-199678571D01*
X198832142Y-199678571D01*
X198689285Y-199607142D01*
X198617857Y-199535714D01*
X200117857Y-199107142D02*
X201260714Y-199107142D01*
X202760714Y-199678571D02*
X201903571Y-199678571D01*
X202332142Y-199678571D02*
X202332142Y-198178571D01*
X202189285Y-198392857D01*
X202046428Y-198535714D01*
X201903571Y-198607142D01*
X203260714Y-198178571D02*
X204260714Y-198178571D01*
X203617857Y-199678571D01*
D10*
D11*
X159400000Y-200400000D02*
X267400000Y-200400000D01*
D10*
D11*
X160832142Y-202478571D02*
X160832142Y-200978571D01*
X161689285Y-202478571D02*
X161046428Y-201621428D01*
X161689285Y-200978571D02*
X160832142Y-201835714D01*
X162332142Y-202478571D02*
X162332142Y-201478571D01*
X162332142Y-200978571D02*
X162260714Y-201050000D01*
X162332142Y-201121428D01*
X162403571Y-201050000D01*
X162332142Y-200978571D01*
X162332142Y-201121428D01*
X163903571Y-202335714D02*
X163832142Y-202407142D01*
X163617857Y-202478571D01*
X163475000Y-202478571D01*
X163260714Y-202407142D01*
X163117857Y-202264285D01*
X163046428Y-202121428D01*
X162975000Y-201835714D01*
X162975000Y-201621428D01*
X163046428Y-201335714D01*
X163117857Y-201192857D01*
X163260714Y-201050000D01*
X163475000Y-200978571D01*
X163617857Y-200978571D01*
X163832142Y-201050000D01*
X163903571Y-201121428D01*
X165189285Y-202478571D02*
X165189285Y-201692857D01*
X165117857Y-201550000D01*
X164975000Y-201478571D01*
X164689285Y-201478571D01*
X164546428Y-201550000D01*
X165189285Y-202407142D02*
X165046428Y-202478571D01*
X164689285Y-202478571D01*
X164546428Y-202407142D01*
X164475000Y-202264285D01*
X164475000Y-202121428D01*
X164546428Y-201978571D01*
X164689285Y-201907142D01*
X165046428Y-201907142D01*
X165189285Y-201835714D01*
X166546428Y-202478571D02*
X166546428Y-200978571D01*
X166546428Y-202407142D02*
X166403571Y-202478571D01*
X166117857Y-202478571D01*
X165975000Y-202407142D01*
X165903571Y-202335714D01*
X165832142Y-202192857D01*
X165832142Y-201764285D01*
X165903571Y-201621428D01*
X165975000Y-201550000D01*
X166117857Y-201478571D01*
X166403571Y-201478571D01*
X166546428Y-201550000D01*
X168403571Y-201692857D02*
X168903571Y-201692857D01*
X169117857Y-202478571D02*
X168403571Y-202478571D01*
X168403571Y-200978571D01*
X169117857Y-200978571D01*
X169760714Y-202335714D02*
X169832142Y-202407142D01*
X169760714Y-202478571D01*
X169689285Y-202407142D01*
X169760714Y-202335714D01*
X169760714Y-202478571D01*
X170475000Y-202478571D02*
X170475000Y-200978571D01*
X170832142Y-200978571D01*
X171046428Y-201050000D01*
X171189285Y-201192857D01*
X171260714Y-201335714D01*
X171332142Y-201621428D01*
X171332142Y-201835714D01*
X171260714Y-202121428D01*
X171189285Y-202264285D01*
X171046428Y-202407142D01*
X170832142Y-202478571D01*
X170475000Y-202478571D01*
X171975000Y-202335714D02*
X172046428Y-202407142D01*
X171975000Y-202478571D01*
X171903571Y-202407142D01*
X171975000Y-202335714D01*
X171975000Y-202478571D01*
X172617857Y-202050000D02*
X173332142Y-202050000D01*
X172475000Y-202478571D02*
X172975000Y-200978571D01*
X173475000Y-202478571D01*
X173975000Y-202335714D02*
X174046428Y-202407142D01*
X173975000Y-202478571D01*
X173903571Y-202407142D01*
X173975000Y-202335714D01*
X173975000Y-202478571D01*
X176975000Y-202478571D02*
X176975000Y-200978571D01*
X177117857Y-201907142D02*
X177546428Y-202478571D01*
X177546428Y-201478571D02*
X176975000Y-202050000D01*
X178189285Y-202478571D02*
X178189285Y-201478571D01*
X178189285Y-200978571D02*
X178117857Y-201050000D01*
X178189285Y-201121428D01*
X178260714Y-201050000D01*
X178189285Y-200978571D01*
X178189285Y-201121428D01*
X179546428Y-202407142D02*
X179403571Y-202478571D01*
X179117857Y-202478571D01*
X178975000Y-202407142D01*
X178903571Y-202335714D01*
X178832142Y-202192857D01*
X178832142Y-201764285D01*
X178903571Y-201621428D01*
X178975000Y-201550000D01*
X179117857Y-201478571D01*
X179403571Y-201478571D01*
X179546428Y-201550000D01*
X180832142Y-202478571D02*
X180832142Y-201692857D01*
X180760714Y-201550000D01*
X180617857Y-201478571D01*
X180332142Y-201478571D01*
X180189285Y-201550000D01*
X180832142Y-202407142D02*
X180689285Y-202478571D01*
X180332142Y-202478571D01*
X180189285Y-202407142D01*
X180117857Y-202264285D01*
X180117857Y-202121428D01*
X180189285Y-201978571D01*
X180332142Y-201907142D01*
X180689285Y-201907142D01*
X180832142Y-201835714D01*
X182189285Y-202478571D02*
X182189285Y-200978571D01*
X182189285Y-202407142D02*
X182046428Y-202478571D01*
X181760714Y-202478571D01*
X181617857Y-202407142D01*
X181546428Y-202335714D01*
X181475000Y-202192857D01*
X181475000Y-201764285D01*
X181546428Y-201621428D01*
X181617857Y-201550000D01*
X181760714Y-201478571D01*
X182046428Y-201478571D01*
X182189285Y-201550000D01*
X184475000Y-203050000D02*
X184403571Y-202978571D01*
X184260714Y-202764285D01*
X184189285Y-202621428D01*
X184117857Y-202407142D01*
X184046428Y-202050000D01*
X184046428Y-201764285D01*
X184117857Y-201407142D01*
X184189285Y-201192857D01*
X184260714Y-201050000D01*
X184403571Y-200835714D01*
X184475000Y-200764285D01*
X185760714Y-200978571D02*
X185046428Y-200978571D01*
X184975000Y-201692857D01*
X185046428Y-201621428D01*
X185189285Y-201550000D01*
X185546428Y-201550000D01*
X185689285Y-201621428D01*
X185760714Y-201692857D01*
X185832142Y-201835714D01*
X185832142Y-202192857D01*
X185760714Y-202335714D01*
X185689285Y-202407142D01*
X185546428Y-202478571D01*
X185189285Y-202478571D01*
X185046428Y-202407142D01*
X184975000Y-202335714D01*
X186475000Y-202335714D02*
X186546428Y-202407142D01*
X186475000Y-202478571D01*
X186403571Y-202407142D01*
X186475000Y-202335714D01*
X186475000Y-202478571D01*
X187975000Y-202478571D02*
X187117857Y-202478571D01*
X187546428Y-202478571D02*
X187546428Y-200978571D01*
X187403571Y-201192857D01*
X187260714Y-201335714D01*
X187117857Y-201407142D01*
X188617857Y-202335714D02*
X188689285Y-202407142D01*
X188617857Y-202478571D01*
X188546428Y-202407142D01*
X188617857Y-202335714D01*
X188617857Y-202478571D01*
X190117857Y-202478571D02*
X189260714Y-202478571D01*
X189689285Y-202478571D02*
X189689285Y-200978571D01*
X189546428Y-201192857D01*
X189403571Y-201335714D01*
X189260714Y-201407142D01*
X191046428Y-200978571D02*
X191189285Y-200978571D01*
X191332142Y-201050000D01*
X191403571Y-201121428D01*
X191475000Y-201264285D01*
X191546428Y-201550000D01*
X191546428Y-201907142D01*
X191475000Y-202192857D01*
X191403571Y-202335714D01*
X191332142Y-202407142D01*
X191189285Y-202478571D01*
X191046428Y-202478571D01*
X190903571Y-202407142D01*
X190832142Y-202335714D01*
X190760714Y-202192857D01*
X190689285Y-201907142D01*
X190689285Y-201550000D01*
X190760714Y-201264285D01*
X190832142Y-201121428D01*
X190903571Y-201050000D01*
X191046428Y-200978571D01*
X192046428Y-203050000D02*
X192117857Y-202978571D01*
X192260714Y-202764285D01*
X192332142Y-202621428D01*
X192403571Y-202407142D01*
X192475000Y-202050000D01*
X192475000Y-201764285D01*
X192403571Y-201407142D01*
X192332142Y-201192857D01*
X192260714Y-201050000D01*
X192117857Y-200835714D01*
X192046428Y-200764285D01*
X193189285Y-201907142D02*
X194332142Y-201907142D01*
X195832142Y-202478571D02*
X194975000Y-202478571D01*
X195403571Y-202478571D02*
X195403571Y-200978571D01*
X195260714Y-201192857D01*
X195117857Y-201335714D01*
X194975000Y-201407142D01*
D10*
D11*
X159400000Y-197400000D02*
X267400000Y-197400000D01*
D10*
D12*
X246809285Y-199678571D02*
X246309285Y-198964285D01*
X245952142Y-199678571D02*
X245952142Y-198178571D01*
X246523571Y-198178571D01*
X246666428Y-198250000D01*
X246737857Y-198321428D01*
X246809285Y-198464285D01*
X246809285Y-198678571D01*
X246737857Y-198821428D01*
X246666428Y-198892857D01*
X246523571Y-198964285D01*
X245952142Y-198964285D01*
X248023571Y-199607142D02*
X247880714Y-199678571D01*
X247595000Y-199678571D01*
X247452142Y-199607142D01*
X247380714Y-199464285D01*
X247380714Y-198892857D01*
X247452142Y-198750000D01*
X247595000Y-198678571D01*
X247880714Y-198678571D01*
X248023571Y-198750000D01*
X248095000Y-198892857D01*
X248095000Y-199035714D01*
X247380714Y-199178571D01*
X248595000Y-198678571D02*
X248952142Y-199678571D01*
X249309285Y-198678571D01*
X249880714Y-199535714D02*
X249952142Y-199607142D01*
X249880714Y-199678571D01*
X249809285Y-199607142D01*
X249880714Y-199535714D01*
X249880714Y-199678571D01*
X249880714Y-198750000D02*
X249952142Y-198821428D01*
X249880714Y-198892857D01*
X249809285Y-198821428D01*
X249880714Y-198750000D01*
X249880714Y-198892857D01*
X252523571Y-199678571D02*
X251666428Y-199678571D01*
X252095000Y-199678571D02*
X252095000Y-198178571D01*
X251952142Y-198392857D01*
X251809285Y-198535714D01*
X251666428Y-198607142D01*
X253166428Y-199535714D02*
X253237857Y-199607142D01*
X253166428Y-199678571D01*
X253095000Y-199607142D01*
X253166428Y-199535714D01*
X253166428Y-199678571D01*
X254523571Y-198678571D02*
X254523571Y-199678571D01*
X254166428Y-198107142D02*
X253809285Y-199178571D01*
X254737857Y-199178571D01*
D10*
D11*
X160760714Y-199607142D02*
X160975000Y-199678571D01*
X161332142Y-199678571D01*
X161475000Y-199607142D01*
X161546428Y-199535714D01*
X161617857Y-199392857D01*
X161617857Y-199250000D01*
X161546428Y-199107142D01*
X161475000Y-199035714D01*
X161332142Y-198964285D01*
X161046428Y-198892857D01*
X160903571Y-198821428D01*
X160832142Y-198750000D01*
X160760714Y-198607142D01*
X160760714Y-198464285D01*
X160832142Y-198321428D01*
X160903571Y-198250000D01*
X161046428Y-198178571D01*
X161403571Y-198178571D01*
X161617857Y-198250000D01*
X162260714Y-199678571D02*
X162260714Y-198678571D01*
X162260714Y-198178571D02*
X162189285Y-198250000D01*
X162260714Y-198321428D01*
X162332142Y-198250000D01*
X162260714Y-198178571D01*
X162260714Y-198321428D01*
X162832142Y-198678571D02*
X163617857Y-198678571D01*
X162832142Y-199678571D01*
X163617857Y-199678571D01*
X164760714Y-199607142D02*
X164617857Y-199678571D01*
X164332142Y-199678571D01*
X164189285Y-199607142D01*
X164117857Y-199464285D01*
X164117857Y-198892857D01*
X164189285Y-198750000D01*
X164332142Y-198678571D01*
X164617857Y-198678571D01*
X164760714Y-198750000D01*
X164832142Y-198892857D01*
X164832142Y-199035714D01*
X164117857Y-199178571D01*
X165475000Y-199535714D02*
X165546428Y-199607142D01*
X165475000Y-199678571D01*
X165403571Y-199607142D01*
X165475000Y-199535714D01*
X165475000Y-199678571D01*
X165475000Y-198750000D02*
X165546428Y-198821428D01*
X165475000Y-198892857D01*
X165403571Y-198821428D01*
X165475000Y-198750000D01*
X165475000Y-198892857D01*
X167332142Y-198178571D02*
X167332142Y-199392857D01*
X167403571Y-199535714D01*
X167475000Y-199607142D01*
X167617857Y-199678571D01*
X167903571Y-199678571D01*
X168046428Y-199607142D01*
X168117857Y-199535714D01*
X168189285Y-199392857D01*
X168189285Y-198178571D01*
X168832142Y-199607142D02*
X169046428Y-199678571D01*
X169403571Y-199678571D01*
X169546428Y-199607142D01*
X169617857Y-199535714D01*
X169689285Y-199392857D01*
X169689285Y-199250000D01*
X169617857Y-199107142D01*
X169546428Y-199035714D01*
X169403571Y-198964285D01*
X169117857Y-198892857D01*
X168975000Y-198821428D01*
X168903571Y-198750000D01*
X168832142Y-198607142D01*
X168832142Y-198464285D01*
X168903571Y-198321428D01*
X168975000Y-198250000D01*
X169117857Y-198178571D01*
X169475000Y-198178571D01*
X169689285Y-198250000D01*
X171046428Y-199678571D02*
X170332142Y-199678571D01*
X170332142Y-198178571D01*
X172117857Y-199607142D02*
X171975000Y-199678571D01*
X171689285Y-199678571D01*
X171546428Y-199607142D01*
X171475000Y-199464285D01*
X171475000Y-198892857D01*
X171546428Y-198750000D01*
X171689285Y-198678571D01*
X171975000Y-198678571D01*
X172117857Y-198750000D01*
X172189285Y-198892857D01*
X172189285Y-199035714D01*
X171475000Y-199178571D01*
X172617857Y-198678571D02*
X173189285Y-198678571D01*
X172832142Y-198178571D02*
X172832142Y-199464285D01*
X172903571Y-199607142D01*
X173046428Y-199678571D01*
X173189285Y-199678571D01*
X173475000Y-198678571D02*
X174046428Y-198678571D01*
X173689285Y-198178571D02*
X173689285Y-199464285D01*
X173760714Y-199607142D01*
X173903571Y-199678571D01*
X174046428Y-199678571D01*
X175117857Y-199607142D02*
X174975000Y-199678571D01*
X174689285Y-199678571D01*
X174546428Y-199607142D01*
X174475000Y-199464285D01*
X174475000Y-198892857D01*
X174546428Y-198750000D01*
X174689285Y-198678571D01*
X174975000Y-198678571D01*
X175117857Y-198750000D01*
X175189285Y-198892857D01*
X175189285Y-199035714D01*
X174475000Y-199178571D01*
X175832142Y-199678571D02*
X175832142Y-198678571D01*
X175832142Y-198964285D02*
X175903571Y-198821428D01*
X175975000Y-198750000D01*
X176117857Y-198678571D01*
X176260714Y-198678571D01*
D10*
D11*
X245832142Y-202478571D02*
X245832142Y-200978571D01*
X247189285Y-202478571D02*
X247189285Y-200978571D01*
X247189285Y-202407142D02*
X247046428Y-202478571D01*
X246760714Y-202478571D01*
X246617857Y-202407142D01*
X246546428Y-202335714D01*
X246475000Y-202192857D01*
X246475000Y-201764285D01*
X246546428Y-201621428D01*
X246617857Y-201550000D01*
X246760714Y-201478571D01*
X247046428Y-201478571D01*
X247189285Y-201550000D01*
X247903571Y-202335714D02*
X247975000Y-202407142D01*
X247903571Y-202478571D01*
X247832142Y-202407142D01*
X247903571Y-202335714D01*
X247903571Y-202478571D01*
X247903571Y-201550000D02*
X247975000Y-201621428D01*
X247903571Y-201692857D01*
X247832142Y-201621428D01*
X247903571Y-201550000D01*
X247903571Y-201692857D01*
X250546428Y-202478571D02*
X249689285Y-202478571D01*
X250117857Y-202478571D02*
X250117857Y-200978571D01*
X249975000Y-201192857D01*
X249832142Y-201335714D01*
X249689285Y-201407142D01*
X252260714Y-200907142D02*
X250975000Y-202835714D01*
X253546428Y-202478571D02*
X252689285Y-202478571D01*
X253117857Y-202478571D02*
X253117857Y-200978571D01*
X252975000Y-201192857D01*
X252832142Y-201335714D01*
X252689285Y-201407142D01*
D10*
D11*
X159400000Y-193400000D02*
X267400000Y-193400000D01*
D10*
D13*
X161112380Y-194104761D02*
X162255238Y-194104761D01*
X161433809Y-196104761D02*
X161683809Y-194104761D01*
X162671904Y-196104761D02*
X162838571Y-194771428D01*
X162921904Y-194104761D02*
X162814761Y-194200000D01*
X162898095Y-194295238D01*
X163005238Y-194200000D01*
X162921904Y-194104761D01*
X162898095Y-194295238D01*
X163505238Y-194771428D02*
X164267142Y-194771428D01*
X163874285Y-194104761D02*
X163660000Y-195819047D01*
X163731428Y-196009523D01*
X163910000Y-196104761D01*
X164100476Y-196104761D01*
X165052857Y-196104761D02*
X164874285Y-196009523D01*
X164802857Y-195819047D01*
X165017142Y-194104761D01*
X166588571Y-196009523D02*
X166386190Y-196104761D01*
X166005238Y-196104761D01*
X165826666Y-196009523D01*
X165755238Y-195819047D01*
X165850476Y-195057142D01*
X165969523Y-194866666D01*
X166171904Y-194771428D01*
X166552857Y-194771428D01*
X166731428Y-194866666D01*
X166802857Y-195057142D01*
X166779047Y-195247619D01*
X165802857Y-195438095D01*
X167552857Y-195914285D02*
X167636190Y-196009523D01*
X167529047Y-196104761D01*
X167445714Y-196009523D01*
X167552857Y-195914285D01*
X167529047Y-196104761D01*
X167683809Y-194866666D02*
X167767142Y-194961904D01*
X167660000Y-195057142D01*
X167576666Y-194961904D01*
X167683809Y-194866666D01*
X167660000Y-195057142D01*
X170005238Y-196104761D02*
X170255238Y-194104761D01*
X172648095Y-194009523D02*
X170612380Y-196580952D01*
X173683809Y-194104761D02*
X174064761Y-194104761D01*
X174243333Y-194200000D01*
X174410000Y-194390476D01*
X174457619Y-194771428D01*
X174374285Y-195438095D01*
X174231428Y-195819047D01*
X174017142Y-196009523D01*
X173814761Y-196104761D01*
X173433809Y-196104761D01*
X173255238Y-196009523D01*
X173088571Y-195819047D01*
X173040952Y-195438095D01*
X173124285Y-194771428D01*
X173267142Y-194390476D01*
X173481428Y-194200000D01*
X173683809Y-194104761D01*
X177469523Y-195057142D02*
X177743333Y-195152380D01*
X177826666Y-195247619D01*
X177898095Y-195438095D01*
X177862380Y-195723809D01*
X177743333Y-195914285D01*
X177636190Y-196009523D01*
X177433809Y-196104761D01*
X176671904Y-196104761D01*
X176921904Y-194104761D01*
X177588571Y-194104761D01*
X177767142Y-194200000D01*
X177850476Y-194295238D01*
X177921904Y-194485714D01*
X177898095Y-194676190D01*
X177779047Y-194866666D01*
X177671904Y-194961904D01*
X177469523Y-195057142D01*
X176802857Y-195057142D01*
X178957619Y-196104761D02*
X178779047Y-196009523D01*
X178695714Y-195914285D01*
X178624285Y-195723809D01*
X178695714Y-195152380D01*
X178814761Y-194961904D01*
X178921904Y-194866666D01*
X179124285Y-194771428D01*
X179410000Y-194771428D01*
X179588571Y-194866666D01*
X179671904Y-194961904D01*
X179743333Y-195152380D01*
X179671904Y-195723809D01*
X179552857Y-195914285D01*
X179445714Y-196009523D01*
X179243333Y-196104761D01*
X178957619Y-196104761D01*
X181338571Y-196104761D02*
X181469523Y-195057142D01*
X181398095Y-194866666D01*
X181219523Y-194771428D01*
X180838571Y-194771428D01*
X180636190Y-194866666D01*
X181350476Y-196009523D02*
X181148095Y-196104761D01*
X180671904Y-196104761D01*
X180493333Y-196009523D01*
X180421904Y-195819047D01*
X180445714Y-195628571D01*
X180564761Y-195438095D01*
X180767142Y-195342857D01*
X181243333Y-195342857D01*
X181445714Y-195247619D01*
X182290952Y-196104761D02*
X182457619Y-194771428D01*
X182410000Y-195152380D02*
X182529047Y-194961904D01*
X182636190Y-194866666D01*
X182838571Y-194771428D01*
X183029047Y-194771428D01*
X184386190Y-196104761D02*
X184636190Y-194104761D01*
X184398095Y-196009523D02*
X184195714Y-196104761D01*
X183814761Y-196104761D01*
X183636190Y-196009523D01*
X183552857Y-195914285D01*
X183481428Y-195723809D01*
X183552857Y-195152380D01*
X183671904Y-194961904D01*
X183779047Y-194866666D01*
X183981428Y-194771428D01*
X184362380Y-194771428D01*
X184540952Y-194866666D01*
X187814761Y-196104761D02*
X186862380Y-196104761D01*
X187112380Y-194104761D01*
X189338571Y-196104761D02*
X189469523Y-195057142D01*
X189398095Y-194866666D01*
X189219523Y-194771428D01*
X188838571Y-194771428D01*
X188636190Y-194866666D01*
X189350476Y-196009523D02*
X189148095Y-196104761D01*
X188671904Y-196104761D01*
X188493333Y-196009523D01*
X188421904Y-195819047D01*
X188445714Y-195628571D01*
X188564761Y-195438095D01*
X188767142Y-195342857D01*
X189243333Y-195342857D01*
X189445714Y-195247619D01*
X190267142Y-194771428D02*
X190576666Y-196104761D01*
X191219523Y-194771428D02*
X190576666Y-196104761D01*
X190326666Y-196580952D01*
X190219523Y-196676190D01*
X190017142Y-196771428D01*
X192100476Y-196104761D02*
X191921904Y-196009523D01*
X191838571Y-195914285D01*
X191767142Y-195723809D01*
X191838571Y-195152380D01*
X191957619Y-194961904D01*
X192064761Y-194866666D01*
X192267142Y-194771428D01*
X192552857Y-194771428D01*
X192731428Y-194866666D01*
X192814761Y-194961904D01*
X192886190Y-195152380D01*
X192814761Y-195723809D01*
X192695714Y-195914285D01*
X192588571Y-196009523D01*
X192386190Y-196104761D01*
X192100476Y-196104761D01*
X194648095Y-194771428D02*
X194481428Y-196104761D01*
X193790952Y-194771428D02*
X193660000Y-195819047D01*
X193731428Y-196009523D01*
X193910000Y-196104761D01*
X194195714Y-196104761D01*
X194398095Y-196009523D01*
X194505238Y-195914285D01*
X195314761Y-194771428D02*
X196076666Y-194771428D01*
X195683809Y-194104761D02*
X195469523Y-195819047D01*
X195540952Y-196009523D01*
X195719523Y-196104761D01*
X195910000Y-196104761D01*
D10*
D11*
X161332142Y-191492857D02*
X160832142Y-191492857D01*
X160832142Y-192278571D02*
X160832142Y-190778571D01*
X161546428Y-190778571D01*
X162117857Y-192278571D02*
X162117857Y-191278571D01*
X162117857Y-190778571D02*
X162046428Y-190850000D01*
X162117857Y-190921428D01*
X162189285Y-190850000D01*
X162117857Y-190778571D01*
X162117857Y-190921428D01*
X163046428Y-192278571D02*
X162903571Y-192207142D01*
X162832142Y-192064285D01*
X162832142Y-190778571D01*
X164189285Y-192207142D02*
X164046428Y-192278571D01*
X163760714Y-192278571D01*
X163617857Y-192207142D01*
X163546428Y-192064285D01*
X163546428Y-191492857D01*
X163617857Y-191350000D01*
X163760714Y-191278571D01*
X164046428Y-191278571D01*
X164189285Y-191350000D01*
X164260714Y-191492857D01*
X164260714Y-191635714D01*
X163546428Y-191778571D01*
X164903571Y-192135714D02*
X164975000Y-192207142D01*
X164903571Y-192278571D01*
X164832142Y-192207142D01*
X164903571Y-192135714D01*
X164903571Y-192278571D01*
X164903571Y-191350000D02*
X164975000Y-191421428D01*
X164903571Y-191492857D01*
X164832142Y-191421428D01*
X164903571Y-191350000D01*
X164903571Y-191492857D01*
X166760714Y-192278571D02*
X166760714Y-190778571D01*
X167760714Y-190778571D02*
X168046428Y-190778571D01*
X168189285Y-190850000D01*
X168332142Y-190992857D01*
X168403571Y-191278571D01*
X168403571Y-191778571D01*
X168332142Y-192064285D01*
X168189285Y-192207142D01*
X168046428Y-192278571D01*
X167760714Y-192278571D01*
X167617857Y-192207142D01*
X167475000Y-192064285D01*
X167403571Y-191778571D01*
X167403571Y-191278571D01*
X167475000Y-190992857D01*
X167617857Y-190850000D01*
X167760714Y-190778571D01*
X170689285Y-191492857D02*
X170903571Y-191564285D01*
X170975000Y-191635714D01*
X171046428Y-191778571D01*
X171046428Y-191992857D01*
X170975000Y-192135714D01*
X170903571Y-192207142D01*
X170760714Y-192278571D01*
X170189285Y-192278571D01*
X170189285Y-190778571D01*
X170689285Y-190778571D01*
X170832142Y-190850000D01*
X170903571Y-190921428D01*
X170975000Y-191064285D01*
X170975000Y-191207142D01*
X170903571Y-191350000D01*
X170832142Y-191421428D01*
X170689285Y-191492857D01*
X170189285Y-191492857D01*
X171903571Y-192278571D02*
X171760714Y-192207142D01*
X171689285Y-192135714D01*
X171617857Y-191992857D01*
X171617857Y-191564285D01*
X171689285Y-191421428D01*
X171760714Y-191350000D01*
X171903571Y-191278571D01*
X172117857Y-191278571D01*
X172260714Y-191350000D01*
X172332142Y-191421428D01*
X172403571Y-191564285D01*
X172403571Y-191992857D01*
X172332142Y-192135714D01*
X172260714Y-192207142D01*
X172117857Y-192278571D01*
X171903571Y-192278571D01*
X173689285Y-192278571D02*
X173689285Y-191492857D01*
X173617857Y-191350000D01*
X173475000Y-191278571D01*
X173189285Y-191278571D01*
X173046428Y-191350000D01*
X173689285Y-192207142D02*
X173546428Y-192278571D01*
X173189285Y-192278571D01*
X173046428Y-192207142D01*
X172975000Y-192064285D01*
X172975000Y-191921428D01*
X173046428Y-191778571D01*
X173189285Y-191707142D01*
X173546428Y-191707142D01*
X173689285Y-191635714D01*
X174403571Y-192278571D02*
X174403571Y-191278571D01*
X174403571Y-191564285D02*
X174475000Y-191421428D01*
X174546428Y-191350000D01*
X174689285Y-191278571D01*
X174832142Y-191278571D01*
X175975000Y-192278571D02*
X175975000Y-190778571D01*
X175975000Y-192207142D02*
X175832142Y-192278571D01*
X175546428Y-192278571D01*
X175403571Y-192207142D01*
X175332142Y-192135714D01*
X175260714Y-191992857D01*
X175260714Y-191564285D01*
X175332142Y-191421428D01*
X175403571Y-191350000D01*
X175546428Y-191278571D01*
X175832142Y-191278571D01*
X175975000Y-191350000D01*
X176689285Y-192135714D02*
X176760714Y-192207142D01*
X176689285Y-192278571D01*
X176617857Y-192207142D01*
X176689285Y-192135714D01*
X176689285Y-192278571D01*
X177403571Y-192278571D02*
X177403571Y-190778571D01*
X177546428Y-191707142D02*
X177975000Y-192278571D01*
X177975000Y-191278571D02*
X177403571Y-191850000D01*
X178617857Y-192278571D02*
X178617857Y-191278571D01*
X178617857Y-190778571D02*
X178546428Y-190850000D01*
X178617857Y-190921428D01*
X178689285Y-190850000D01*
X178617857Y-190778571D01*
X178617857Y-190921428D01*
X179975000Y-192207142D02*
X179832142Y-192278571D01*
X179546428Y-192278571D01*
X179403571Y-192207142D01*
X179332142Y-192135714D01*
X179260714Y-191992857D01*
X179260714Y-191564285D01*
X179332142Y-191421428D01*
X179403571Y-191350000D01*
X179546428Y-191278571D01*
X179832142Y-191278571D01*
X179975000Y-191350000D01*
X181260714Y-192278571D02*
X181260714Y-191492857D01*
X181189285Y-191350000D01*
X181046428Y-191278571D01*
X180760714Y-191278571D01*
X180617857Y-191350000D01*
X181260714Y-192207142D02*
X181117857Y-192278571D01*
X180760714Y-192278571D01*
X180617857Y-192207142D01*
X180546428Y-192064285D01*
X180546428Y-191921428D01*
X180617857Y-191778571D01*
X180760714Y-191707142D01*
X181117857Y-191707142D01*
X181260714Y-191635714D01*
X182617857Y-192278571D02*
X182617857Y-190778571D01*
X182617857Y-192207142D02*
X182475000Y-192278571D01*
X182189285Y-192278571D01*
X182046428Y-192207142D01*
X181975000Y-192135714D01*
X181903571Y-191992857D01*
X181903571Y-191564285D01*
X181975000Y-191421428D01*
X182046428Y-191350000D01*
X182189285Y-191278571D01*
X182475000Y-191278571D01*
X182617857Y-191350000D01*
X182975000Y-192421428D02*
X184117857Y-192421428D01*
X184475000Y-191278571D02*
X184475000Y-192778571D01*
X184475000Y-191350000D02*
X184617857Y-191278571D01*
X184903571Y-191278571D01*
X185046428Y-191350000D01*
X185117857Y-191421428D01*
X185189285Y-191564285D01*
X185189285Y-191992857D01*
X185117857Y-192135714D01*
X185046428Y-192207142D01*
X184903571Y-192278571D01*
X184617857Y-192278571D01*
X184475000Y-192207142D01*
X186475000Y-192207142D02*
X186332142Y-192278571D01*
X186046428Y-192278571D01*
X185903571Y-192207142D01*
X185832142Y-192135714D01*
X185760714Y-191992857D01*
X185760714Y-191564285D01*
X185832142Y-191421428D01*
X185903571Y-191350000D01*
X186046428Y-191278571D01*
X186332142Y-191278571D01*
X186475000Y-191350000D01*
X187117857Y-192278571D02*
X187117857Y-190778571D01*
X187117857Y-191350000D02*
X187260714Y-191278571D01*
X187546428Y-191278571D01*
X187689285Y-191350000D01*
X187760714Y-191421428D01*
X187832142Y-191564285D01*
X187832142Y-191992857D01*
X187760714Y-192135714D01*
X187689285Y-192207142D01*
X187546428Y-192278571D01*
X187260714Y-192278571D01*
X187117857Y-192207142D01*
D10*
D11*
X159400000Y-187400000D02*
X267400000Y-187400000D01*
D10*
D11*
X160760714Y-189507142D02*
X160975000Y-189578571D01*
X161332142Y-189578571D01*
X161475000Y-189507142D01*
X161546428Y-189435714D01*
X161617857Y-189292857D01*
X161617857Y-189150000D01*
X161546428Y-189007142D01*
X161475000Y-188935714D01*
X161332142Y-188864285D01*
X161046428Y-188792857D01*
X160903571Y-188721428D01*
X160832142Y-188650000D01*
X160760714Y-188507142D01*
X160760714Y-188364285D01*
X160832142Y-188221428D01*
X160903571Y-188150000D01*
X161046428Y-188078571D01*
X161403571Y-188078571D01*
X161617857Y-188150000D01*
X162260714Y-189578571D02*
X162260714Y-188078571D01*
X162903571Y-189578571D02*
X162903571Y-188792857D01*
X162832142Y-188650000D01*
X162689285Y-188578571D01*
X162475000Y-188578571D01*
X162332142Y-188650000D01*
X162260714Y-188721428D01*
X164189285Y-189507142D02*
X164046428Y-189578571D01*
X163760714Y-189578571D01*
X163617857Y-189507142D01*
X163546428Y-189364285D01*
X163546428Y-188792857D01*
X163617857Y-188650000D01*
X163760714Y-188578571D01*
X164046428Y-188578571D01*
X164189285Y-188650000D01*
X164260714Y-188792857D01*
X164260714Y-188935714D01*
X163546428Y-189078571D01*
X165475000Y-189507142D02*
X165332142Y-189578571D01*
X165046428Y-189578571D01*
X164903571Y-189507142D01*
X164832142Y-189364285D01*
X164832142Y-188792857D01*
X164903571Y-188650000D01*
X165046428Y-188578571D01*
X165332142Y-188578571D01*
X165475000Y-188650000D01*
X165546428Y-188792857D01*
X165546428Y-188935714D01*
X164832142Y-189078571D01*
X165975000Y-188578571D02*
X166546428Y-188578571D01*
X166189285Y-188078571D02*
X166189285Y-189364285D01*
X166260714Y-189507142D01*
X166403571Y-189578571D01*
X166546428Y-189578571D01*
X167046428Y-189435714D02*
X167117857Y-189507142D01*
X167046428Y-189578571D01*
X166975000Y-189507142D01*
X167046428Y-189435714D01*
X167046428Y-189578571D01*
X167046428Y-188650000D02*
X167117857Y-188721428D01*
X167046428Y-188792857D01*
X166975000Y-188721428D01*
X167046428Y-188650000D01*
X167046428Y-188792857D01*
D10*
D11*
X179400000Y-197400000D02*
X179400000Y-200400000D01*
D10*
D11*
X243400000Y-197400000D02*
X243400000Y-203900000D01*
D12*
X200450142Y-107099571D02*
X200450142Y-105599571D01*
X202235857Y-105528142D02*
X200950142Y-107456714D01*
X203021571Y-105599571D02*
X203307285Y-105599571D01*
X203450142Y-105671000D01*
X203593000Y-105813857D01*
X203664428Y-106099571D01*
X203664428Y-106599571D01*
X203593000Y-106885285D01*
X203450142Y-107028142D01*
X203307285Y-107099571D01*
X203021571Y-107099571D01*
X202878714Y-107028142D01*
X202735857Y-106885285D01*
X202664428Y-106599571D01*
X202664428Y-106099571D01*
X202735857Y-105813857D01*
X202878714Y-105671000D01*
X203021571Y-105599571D01*
X205950142Y-106313857D02*
X206164428Y-106385285D01*
X206235857Y-106456714D01*
X206307285Y-106599571D01*
X206307285Y-106813857D01*
X206235857Y-106956714D01*
X206164428Y-107028142D01*
X206021571Y-107099571D01*
X205450142Y-107099571D01*
X205450142Y-105599571D01*
X205950142Y-105599571D01*
X206093000Y-105671000D01*
X206164428Y-105742428D01*
X206235857Y-105885285D01*
X206235857Y-106028142D01*
X206164428Y-106171000D01*
X206093000Y-106242428D01*
X205950142Y-106313857D01*
X205450142Y-106313857D01*
X207164428Y-107099571D02*
X207021571Y-107028142D01*
X206950142Y-106956714D01*
X206878714Y-106813857D01*
X206878714Y-106385285D01*
X206950142Y-106242428D01*
X207021571Y-106171000D01*
X207164428Y-106099571D01*
X207378714Y-106099571D01*
X207521571Y-106171000D01*
X207593000Y-106242428D01*
X207664428Y-106385285D01*
X207664428Y-106813857D01*
X207593000Y-106956714D01*
X207521571Y-107028142D01*
X207378714Y-107099571D01*
X207164428Y-107099571D01*
X208950142Y-107099571D02*
X208950142Y-106313857D01*
X208878714Y-106171000D01*
X208735857Y-106099571D01*
X208450142Y-106099571D01*
X208307285Y-106171000D01*
X208950142Y-107028142D02*
X208807285Y-107099571D01*
X208450142Y-107099571D01*
X208307285Y-107028142D01*
X208235857Y-106885285D01*
X208235857Y-106742428D01*
X208307285Y-106599571D01*
X208450142Y-106528142D01*
X208807285Y-106528142D01*
X208950142Y-106456714D01*
X209664428Y-107099571D02*
X209664428Y-106099571D01*
X209664428Y-106385285D02*
X209735857Y-106242428D01*
X209807285Y-106171000D01*
X209950142Y-106099571D01*
X210093000Y-106099571D01*
X211235857Y-107099571D02*
X211235857Y-105599571D01*
X211235857Y-107028142D02*
X211093000Y-107099571D01*
X210807285Y-107099571D01*
X210664428Y-107028142D01*
X210593000Y-106956714D01*
X210521571Y-106813857D01*
X210521571Y-106385285D01*
X210593000Y-106242428D01*
X210664428Y-106171000D01*
X210807285Y-106099571D01*
X211093000Y-106099571D01*
X211235857Y-106171000D01*
X200950142Y-108863857D02*
X201164428Y-108935285D01*
X201235857Y-109006714D01*
X201307285Y-109149571D01*
X201307285Y-109363857D01*
X201235857Y-109506714D01*
X201164428Y-109578142D01*
X201021571Y-109649571D01*
X200450142Y-109649571D01*
X200450142Y-108149571D01*
X200950142Y-108149571D01*
X201093000Y-108221000D01*
X201164428Y-108292428D01*
X201235857Y-108435285D01*
X201235857Y-108578142D01*
X201164428Y-108721000D01*
X201093000Y-108792428D01*
X200950142Y-108863857D01*
X200450142Y-108863857D01*
X202164428Y-109649571D02*
X202021571Y-109578142D01*
X201950142Y-109506714D01*
X201878714Y-109363857D01*
X201878714Y-108935285D01*
X201950142Y-108792428D01*
X202021571Y-108721000D01*
X202164428Y-108649571D01*
X202378714Y-108649571D01*
X202521571Y-108721000D01*
X202593000Y-108792428D01*
X202664428Y-108935285D01*
X202664428Y-109363857D01*
X202593000Y-109506714D01*
X202521571Y-109578142D01*
X202378714Y-109649571D01*
X202164428Y-109649571D01*
X203093000Y-108649571D02*
X203664428Y-108649571D01*
X203307285Y-108149571D02*
X203307285Y-109435285D01*
X203378714Y-109578142D01*
X203521571Y-109649571D01*
X203664428Y-109649571D01*
X203950142Y-108649571D02*
X204521571Y-108649571D01*
X204164428Y-108149571D02*
X204164428Y-109435285D01*
X204235857Y-109578142D01*
X204378714Y-109649571D01*
X204521571Y-109649571D01*
X205235857Y-109649571D02*
X205093000Y-109578142D01*
X205021571Y-109506714D01*
X204950142Y-109363857D01*
X204950142Y-108935285D01*
X205021571Y-108792428D01*
X205093000Y-108721000D01*
X205235857Y-108649571D01*
X205450142Y-108649571D01*
X205593000Y-108721000D01*
X205664428Y-108792428D01*
X205735857Y-108935285D01*
X205735857Y-109363857D01*
X205664428Y-109506714D01*
X205593000Y-109578142D01*
X205450142Y-109649571D01*
X205235857Y-109649571D01*
X206378714Y-109649571D02*
X206378714Y-108649571D01*
X206378714Y-108792428D02*
X206450142Y-108721000D01*
X206593000Y-108649571D01*
X206807285Y-108649571D01*
X206950142Y-108721000D01*
X207021571Y-108863857D01*
X207021571Y-109649571D01*
X207021571Y-108863857D02*
X207093000Y-108721000D01*
X207235857Y-108649571D01*
X207450142Y-108649571D01*
X207593000Y-108721000D01*
X207664428Y-108863857D01*
X207664428Y-109649571D01*
X209450142Y-109578142D02*
X209664428Y-109649571D01*
X210021571Y-109649571D01*
X210164428Y-109578142D01*
X210235857Y-109506714D01*
X210307285Y-109363857D01*
X210307285Y-109221000D01*
X210235857Y-109078142D01*
X210164428Y-109006714D01*
X210021571Y-108935285D01*
X209735857Y-108863857D01*
X209593000Y-108792428D01*
X209521571Y-108721000D01*
X209450142Y-108578142D01*
X209450142Y-108435285D01*
X209521571Y-108292428D01*
X209593000Y-108221000D01*
X209735857Y-108149571D01*
X210093000Y-108149571D01*
X210307285Y-108221000D01*
X210950142Y-109649571D02*
X210950142Y-108649571D01*
X210950142Y-108149571D02*
X210878714Y-108221000D01*
X210950142Y-108292428D01*
X211021571Y-108221000D01*
X210950142Y-108149571D01*
X210950142Y-108292428D01*
X212307285Y-109649571D02*
X212307285Y-108149571D01*
X212307285Y-109578142D02*
X212164428Y-109649571D01*
X211878714Y-109649571D01*
X211735857Y-109578142D01*
X211664428Y-109506714D01*
X211593000Y-109363857D01*
X211593000Y-108935285D01*
X211664428Y-108792428D01*
X211735857Y-108721000D01*
X211878714Y-108649571D01*
X212164428Y-108649571D01*
X212307285Y-108721000D01*
X213593000Y-109578142D02*
X213450142Y-109649571D01*
X213164428Y-109649571D01*
X213021571Y-109578142D01*
X212950142Y-109435285D01*
X212950142Y-108863857D01*
X213021571Y-108721000D01*
X213164428Y-108649571D01*
X213450142Y-108649571D01*
X213593000Y-108721000D01*
X213664428Y-108863857D01*
X213664428Y-109006714D01*
X212950142Y-109149571D01*
X215378714Y-109578142D02*
X215593000Y-109649571D01*
X215950142Y-109649571D01*
X216093000Y-109578142D01*
X216164428Y-109506714D01*
X216235857Y-109363857D01*
X216235857Y-109221000D01*
X216164428Y-109078142D01*
X216093000Y-109006714D01*
X215950142Y-108935285D01*
X215664428Y-108863857D01*
X215521571Y-108792428D01*
X215450142Y-108721000D01*
X215378714Y-108578142D01*
X215378714Y-108435285D01*
X215450142Y-108292428D01*
X215521571Y-108221000D01*
X215664428Y-108149571D01*
X216021571Y-108149571D01*
X216235857Y-108221000D01*
X216878714Y-109649571D02*
X216878714Y-108649571D01*
X216878714Y-108149571D02*
X216807285Y-108221000D01*
X216878714Y-108292428D01*
X216950142Y-108221000D01*
X216878714Y-108149571D01*
X216878714Y-108292428D01*
X217807285Y-109649571D02*
X217664428Y-109578142D01*
X217593000Y-109435285D01*
X217593000Y-108149571D01*
X218378714Y-109649571D02*
X218378714Y-108149571D01*
X218521571Y-109078142D02*
X218950142Y-109649571D01*
X218950142Y-108649571D02*
X218378714Y-109221000D01*
X220664428Y-109578142D02*
X220878714Y-109649571D01*
X221235857Y-109649571D01*
X221378714Y-109578142D01*
X221450142Y-109506714D01*
X221521571Y-109363857D01*
X221521571Y-109221000D01*
X221450142Y-109078142D01*
X221378714Y-109006714D01*
X221235857Y-108935285D01*
X220950142Y-108863857D01*
X220807285Y-108792428D01*
X220735857Y-108721000D01*
X220664428Y-108578142D01*
X220664428Y-108435285D01*
X220735857Y-108292428D01*
X220807285Y-108221000D01*
X220950142Y-108149571D01*
X221307285Y-108149571D01*
X221521571Y-108221000D01*
X222807285Y-109578142D02*
X222664428Y-109649571D01*
X222378714Y-109649571D01*
X222235857Y-109578142D01*
X222164428Y-109506714D01*
X222093000Y-109363857D01*
X222093000Y-108935285D01*
X222164428Y-108792428D01*
X222235857Y-108721000D01*
X222378714Y-108649571D01*
X222664428Y-108649571D01*
X222807285Y-108721000D01*
X223450142Y-109649571D02*
X223450142Y-108649571D01*
X223450142Y-108935285D02*
X223521571Y-108792428D01*
X223593000Y-108721000D01*
X223735857Y-108649571D01*
X223878714Y-108649571D01*
X224950142Y-109578142D02*
X224807285Y-109649571D01*
X224521571Y-109649571D01*
X224378714Y-109578142D01*
X224307285Y-109435285D01*
X224307285Y-108863857D01*
X224378714Y-108721000D01*
X224521571Y-108649571D01*
X224807285Y-108649571D01*
X224950142Y-108721000D01*
X225021571Y-108863857D01*
X225021571Y-109006714D01*
X224307285Y-109149571D01*
X226235857Y-109578142D02*
X226093000Y-109649571D01*
X225807285Y-109649571D01*
X225664428Y-109578142D01*
X225593000Y-109435285D01*
X225593000Y-108863857D01*
X225664428Y-108721000D01*
X225807285Y-108649571D01*
X226093000Y-108649571D01*
X226235857Y-108721000D01*
X226307285Y-108863857D01*
X226307285Y-109006714D01*
X225593000Y-109149571D01*
X226950142Y-108649571D02*
X226950142Y-109649571D01*
X226950142Y-108792428D02*
X227021571Y-108721000D01*
X227164428Y-108649571D01*
X227378714Y-108649571D01*
X227521571Y-108721000D01*
X227593000Y-108863857D01*
X227593000Y-109649571D01*
D14*
X148310000Y-105796000D02*
X148310000Y-106726000D01*
X148310000Y-108956000D02*
X148310000Y-108026000D01*
X148310000Y-108956000D02*
X145150000Y-108956000D01*
X148310000Y-105796000D02*
X146850000Y-105796000D01*
X141960000Y-107066000D02*
X140500000Y-107066000D01*
X141960000Y-110226000D02*
X138800000Y-110226000D01*
X141960000Y-110226000D02*
X141960000Y-109296000D01*
X141960000Y-107066000D02*
X141960000Y-107996000D01*
X158729000Y-106114436D02*
X158729000Y-107318564D01*
X160549000Y-106114436D02*
X160549000Y-107318564D01*
X164613000Y-106114436D02*
X164613000Y-107318564D01*
X162793000Y-106114436D02*
X162793000Y-107318564D01*
X157501000Y-91128436D02*
X157501000Y-92332564D01*
X155681000Y-91128436D02*
X155681000Y-92332564D01*
X160549000Y-91128436D02*
X160549000Y-92332564D01*
X158729000Y-91128436D02*
X158729000Y-92332564D01*
X164867000Y-91128436D02*
X164867000Y-92332564D01*
X163047000Y-91128436D02*
X163047000Y-92332564D01*
X147680000Y-99408064D02*
X147680000Y-98203936D01*
X149500000Y-99408064D02*
X149500000Y-98203936D01*
X120370000Y-103891000D02*
X120370000Y-104821000D01*
X120370000Y-107051000D02*
X120370000Y-106121000D01*
X120370000Y-107051000D02*
X117210000Y-107051000D01*
X120370000Y-103891000D02*
X118910000Y-103891000D01*
X182966000Y-102558000D02*
X182966000Y-104358000D01*
X179746000Y-104358000D02*
X179746000Y-101408000D01*
X135595000Y-105606000D02*
X135595000Y-107406000D01*
X132375000Y-107406000D02*
X132375000Y-104456000D01*
X112210436Y-103611000D02*
X113414564Y-103611000D01*
X112210436Y-105431000D02*
X113414564Y-105431000D01*
X138070000Y-101948064D02*
X138070000Y-100743936D01*
X136250000Y-101948064D02*
X136250000Y-100743936D01*
X118597000Y-97478436D02*
X118597000Y-98682564D01*
X120417000Y-97478436D02*
X120417000Y-98682564D01*
X179356936Y-99970000D02*
X180561064Y-99970000D01*
X179356936Y-98150000D02*
X180561064Y-98150000D01*
X120646436Y-109834000D02*
X121850564Y-109834000D01*
X120646436Y-111654000D02*
X121850564Y-111654000D01*
X155681000Y-106114436D02*
X155681000Y-107318564D01*
X157501000Y-106114436D02*
X157501000Y-107318564D01*
X151490000Y-99408064D02*
X151490000Y-98203936D01*
X153310000Y-99408064D02*
X153310000Y-98203936D01*
X115065564Y-111654000D02*
X113861436Y-111654000D01*
X115065564Y-109834000D02*
X113861436Y-109834000D01*
X164836000Y-113981000D02*
X164836000Y-115931000D01*
X164836000Y-113981000D02*
X164836000Y-112031000D01*
X155966000Y-113981000D02*
X155966000Y-115931000D01*
X155966000Y-113981000D02*
X155966000Y-110531000D01*
X155966000Y-98995000D02*
X155966000Y-95545000D01*
X155966000Y-98995000D02*
X155966000Y-100945000D01*
X164836000Y-98995000D02*
X164836000Y-97045000D01*
X164836000Y-98995000D02*
X164836000Y-100945000D01*
X144800000Y-100011000D02*
X144800000Y-101961000D01*
X144800000Y-100011000D02*
X144800000Y-98061000D01*
X139680000Y-100011000D02*
X139680000Y-101961000D01*
X139680000Y-100011000D02*
X139680000Y-96561000D01*
X148885000Y-113502000D02*
X148885000Y-110552000D01*
X152105000Y-111702000D02*
X152105000Y-113502000D01*
X181076000Y-113609000D02*
X181076000Y-114539000D01*
X181076000Y-116769000D02*
X181076000Y-115839000D01*
X181076000Y-116769000D02*
X177916000Y-116769000D01*
X181076000Y-113609000D02*
X179616000Y-113609000D01*
X188689064Y-116311000D02*
X187484936Y-116311000D01*
X188689064Y-118131000D02*
X187484936Y-118131000D01*
X187484936Y-112120000D02*
X188689064Y-112120000D01*
X187484936Y-113940000D02*
X188689064Y-113940000D01*
D11*
X149899619Y-105060761D02*
X149852000Y-104965523D01*
X149756761Y-104870285D01*
X149613904Y-104727428D01*
X149566285Y-104632190D01*
X149566285Y-104536952D01*
X149804380Y-104584571D02*
X149756761Y-104489333D01*
X149661523Y-104394095D01*
X149471047Y-104346476D01*
X149137714Y-104346476D01*
X148947238Y-104394095D01*
X148852000Y-104489333D01*
X148804380Y-104584571D01*
X148804380Y-104775047D01*
X148852000Y-104870285D01*
X148947238Y-104965523D01*
X149137714Y-105013142D01*
X149471047Y-105013142D01*
X149661523Y-104965523D01*
X149756761Y-104870285D01*
X149804380Y-104775047D01*
X149804380Y-104584571D01*
X148899619Y-105394095D02*
X148852000Y-105441714D01*
X148804380Y-105536952D01*
X148804380Y-105775047D01*
X148852000Y-105870285D01*
X148899619Y-105917904D01*
X148994857Y-105965523D01*
X149090095Y-105965523D01*
X149232952Y-105917904D01*
X149804380Y-105346476D01*
X149804380Y-105965523D01*
X142025619Y-111156761D02*
X141978000Y-111061523D01*
X141882761Y-110966285D01*
X141739904Y-110823428D01*
X141692285Y-110728190D01*
X141692285Y-110632952D01*
X141930380Y-110680571D02*
X141882761Y-110585333D01*
X141787523Y-110490095D01*
X141597047Y-110442476D01*
X141263714Y-110442476D01*
X141073238Y-110490095D01*
X140978000Y-110585333D01*
X140930380Y-110680571D01*
X140930380Y-110871047D01*
X140978000Y-110966285D01*
X141073238Y-111061523D01*
X141263714Y-111109142D01*
X141597047Y-111109142D01*
X141787523Y-111061523D01*
X141882761Y-110966285D01*
X141930380Y-110871047D01*
X141930380Y-110680571D01*
X140930380Y-111442476D02*
X140930380Y-112061523D01*
X141311333Y-111728190D01*
X141311333Y-111871047D01*
X141358952Y-111966285D01*
X141406571Y-112013904D01*
X141501809Y-112061523D01*
X141739904Y-112061523D01*
X141835142Y-112013904D01*
X141882761Y-111966285D01*
X141930380Y-111871047D01*
X141930380Y-111585333D01*
X141882761Y-111490095D01*
X141835142Y-111442476D01*
X158916666Y-104084380D02*
X159250000Y-103608190D01*
X159488095Y-104084380D02*
X159488095Y-103084380D01*
X159107142Y-103084380D01*
X159011904Y-103132000D01*
X158964285Y-103179619D01*
X158916666Y-103274857D01*
X158916666Y-103417714D01*
X158964285Y-103512952D01*
X159011904Y-103560571D01*
X159107142Y-103608190D01*
X159488095Y-103608190D01*
X158011904Y-103084380D02*
X158488095Y-103084380D01*
X158535714Y-103560571D01*
X158488095Y-103512952D01*
X158392857Y-103465333D01*
X158154761Y-103465333D01*
X158059523Y-103512952D01*
X158011904Y-103560571D01*
X157964285Y-103655809D01*
X157964285Y-103893904D01*
X158011904Y-103989142D01*
X158059523Y-104036761D01*
X158154761Y-104084380D01*
X158392857Y-104084380D01*
X158488095Y-104036761D01*
X158535714Y-103989142D01*
X167298666Y-107386380D02*
X167632000Y-106910190D01*
X167870095Y-107386380D02*
X167870095Y-106386380D01*
X167489142Y-106386380D01*
X167393904Y-106434000D01*
X167346285Y-106481619D01*
X167298666Y-106576857D01*
X167298666Y-106719714D01*
X167346285Y-106814952D01*
X167393904Y-106862571D01*
X167489142Y-106910190D01*
X167870095Y-106910190D01*
X166441523Y-106386380D02*
X166632000Y-106386380D01*
X166727238Y-106434000D01*
X166774857Y-106481619D01*
X166870095Y-106624476D01*
X166917714Y-106814952D01*
X166917714Y-107195904D01*
X166870095Y-107291142D01*
X166822476Y-107338761D01*
X166727238Y-107386380D01*
X166536761Y-107386380D01*
X166441523Y-107338761D01*
X166393904Y-107291142D01*
X166346285Y-107195904D01*
X166346285Y-106957809D01*
X166393904Y-106862571D01*
X166441523Y-106814952D01*
X166536761Y-106767333D01*
X166727238Y-106767333D01*
X166822476Y-106814952D01*
X166870095Y-106862571D01*
X166917714Y-106957809D01*
X154344666Y-91384380D02*
X154678000Y-90908190D01*
X154916095Y-91384380D02*
X154916095Y-90384380D01*
X154535142Y-90384380D01*
X154439904Y-90432000D01*
X154392285Y-90479619D01*
X154344666Y-90574857D01*
X154344666Y-90717714D01*
X154392285Y-90812952D01*
X154439904Y-90860571D01*
X154535142Y-90908190D01*
X154916095Y-90908190D01*
X154011333Y-90384380D02*
X153344666Y-90384380D01*
X153773238Y-91384380D01*
X161964666Y-92146380D02*
X162298000Y-91670190D01*
X162536095Y-92146380D02*
X162536095Y-91146380D01*
X162155142Y-91146380D01*
X162059904Y-91194000D01*
X162012285Y-91241619D01*
X161964666Y-91336857D01*
X161964666Y-91479714D01*
X162012285Y-91574952D01*
X162059904Y-91622571D01*
X162155142Y-91670190D01*
X162536095Y-91670190D01*
X161393238Y-91574952D02*
X161488476Y-91527333D01*
X161536095Y-91479714D01*
X161583714Y-91384476D01*
X161583714Y-91336857D01*
X161536095Y-91241619D01*
X161488476Y-91194000D01*
X161393238Y-91146380D01*
X161202761Y-91146380D01*
X161107523Y-91194000D01*
X161059904Y-91241619D01*
X161012285Y-91336857D01*
X161012285Y-91384476D01*
X161059904Y-91479714D01*
X161107523Y-91527333D01*
X161202761Y-91574952D01*
X161393238Y-91574952D01*
X161488476Y-91622571D01*
X161536095Y-91670190D01*
X161583714Y-91765428D01*
X161583714Y-91955904D01*
X161536095Y-92051142D01*
X161488476Y-92098761D01*
X161393238Y-92146380D01*
X161202761Y-92146380D01*
X161107523Y-92098761D01*
X161059904Y-92051142D01*
X161012285Y-91955904D01*
X161012285Y-91765428D01*
X161059904Y-91670190D01*
X161107523Y-91622571D01*
X161202761Y-91574952D01*
X166282666Y-92400380D02*
X166616000Y-91924190D01*
X166854095Y-92400380D02*
X166854095Y-91400380D01*
X166473142Y-91400380D01*
X166377904Y-91448000D01*
X166330285Y-91495619D01*
X166282666Y-91590857D01*
X166282666Y-91733714D01*
X166330285Y-91828952D01*
X166377904Y-91876571D01*
X166473142Y-91924190D01*
X166854095Y-91924190D01*
X165806476Y-92400380D02*
X165616000Y-92400380D01*
X165520761Y-92352761D01*
X165473142Y-92305142D01*
X165377904Y-92162285D01*
X165330285Y-91971809D01*
X165330285Y-91590857D01*
X165377904Y-91495619D01*
X165425523Y-91448000D01*
X165520761Y-91400380D01*
X165711238Y-91400380D01*
X165806476Y-91448000D01*
X165854095Y-91495619D01*
X165901714Y-91590857D01*
X165901714Y-91828952D01*
X165854095Y-91924190D01*
X165806476Y-91971809D01*
X165711238Y-92019428D01*
X165520761Y-92019428D01*
X165425523Y-91971809D01*
X165377904Y-91924190D01*
X165330285Y-91828952D01*
X149042380Y-94353142D02*
X148566190Y-94019809D01*
X149042380Y-93781714D02*
X148042380Y-93781714D01*
X148042380Y-94162666D01*
X148090000Y-94257904D01*
X148137619Y-94305523D01*
X148232857Y-94353142D01*
X148375714Y-94353142D01*
X148470952Y-94305523D01*
X148518571Y-94257904D01*
X148566190Y-94162666D01*
X148566190Y-93781714D01*
X149042380Y-95305523D02*
X149042380Y-94734095D01*
X149042380Y-95019809D02*
X148042380Y-95019809D01*
X148185238Y-94924571D01*
X148280476Y-94829333D01*
X148328095Y-94734095D01*
X148042380Y-95638857D02*
X148042380Y-96257904D01*
X148423333Y-95924571D01*
X148423333Y-96067428D01*
X148470952Y-96162666D01*
X148518571Y-96210285D01*
X148613809Y-96257904D01*
X148851904Y-96257904D01*
X148947142Y-96210285D01*
X148994761Y-96162666D01*
X149042380Y-96067428D01*
X149042380Y-95781714D01*
X148994761Y-95686476D01*
X148947142Y-95638857D01*
X120348095Y-108423380D02*
X120348095Y-107423380D01*
X120110000Y-107423380D01*
X119967142Y-107471000D01*
X119871904Y-107566238D01*
X119824285Y-107661476D01*
X119776666Y-107851952D01*
X119776666Y-107994809D01*
X119824285Y-108185285D01*
X119871904Y-108280523D01*
X119967142Y-108375761D01*
X120110000Y-108423380D01*
X120348095Y-108423380D01*
X119443333Y-107423380D02*
X118824285Y-107423380D01*
X119157619Y-107804333D01*
X119014761Y-107804333D01*
X118919523Y-107851952D01*
X118871904Y-107899571D01*
X118824285Y-107994809D01*
X118824285Y-108232904D01*
X118871904Y-108328142D01*
X118919523Y-108375761D01*
X119014761Y-108423380D01*
X119300476Y-108423380D01*
X119395714Y-108375761D01*
X119443333Y-108328142D01*
X181101904Y-106132380D02*
X181101904Y-106941904D01*
X181054285Y-107037142D01*
X181006666Y-107084761D01*
X180911428Y-107132380D01*
X180720952Y-107132380D01*
X180625714Y-107084761D01*
X180578095Y-107037142D01*
X180530476Y-106941904D01*
X180530476Y-106132380D01*
X179578095Y-106132380D02*
X180054285Y-106132380D01*
X180101904Y-106608571D01*
X180054285Y-106560952D01*
X179959047Y-106513333D01*
X179720952Y-106513333D01*
X179625714Y-106560952D01*
X179578095Y-106608571D01*
X179530476Y-106703809D01*
X179530476Y-106941904D01*
X179578095Y-107037142D01*
X179625714Y-107084761D01*
X179720952Y-107132380D01*
X179959047Y-107132380D01*
X180054285Y-107084761D01*
X180101904Y-107037142D01*
X131024380Y-105664095D02*
X131833904Y-105664095D01*
X131929142Y-105711714D01*
X131976761Y-105759333D01*
X132024380Y-105854571D01*
X132024380Y-106045047D01*
X131976761Y-106140285D01*
X131929142Y-106187904D01*
X131833904Y-106235523D01*
X131024380Y-106235523D01*
X131024380Y-106616476D02*
X131024380Y-107235523D01*
X131405333Y-106902190D01*
X131405333Y-107045047D01*
X131452952Y-107140285D01*
X131500571Y-107187904D01*
X131595809Y-107235523D01*
X131833904Y-107235523D01*
X131929142Y-107187904D01*
X131976761Y-107140285D01*
X132024380Y-107045047D01*
X132024380Y-106759333D01*
X131976761Y-106664095D01*
X131929142Y-106616476D01*
X112979166Y-102338142D02*
X113026785Y-102385761D01*
X113169642Y-102433380D01*
X113264880Y-102433380D01*
X113407738Y-102385761D01*
X113502976Y-102290523D01*
X113550595Y-102195285D01*
X113598214Y-102004809D01*
X113598214Y-101861952D01*
X113550595Y-101671476D01*
X113502976Y-101576238D01*
X113407738Y-101481000D01*
X113264880Y-101433380D01*
X113169642Y-101433380D01*
X113026785Y-101481000D01*
X112979166Y-101528619D01*
X112026785Y-102433380D02*
X112598214Y-102433380D01*
X112312500Y-102433380D02*
X112312500Y-101433380D01*
X112407738Y-101576238D01*
X112502976Y-101671476D01*
X112598214Y-101719095D01*
X135485142Y-100163333D02*
X135532761Y-100115714D01*
X135580380Y-99972857D01*
X135580380Y-99877619D01*
X135532761Y-99734761D01*
X135437523Y-99639523D01*
X135342285Y-99591904D01*
X135151809Y-99544285D01*
X135008952Y-99544285D01*
X134818476Y-99591904D01*
X134723238Y-99639523D01*
X134628000Y-99734761D01*
X134580380Y-99877619D01*
X134580380Y-99972857D01*
X134628000Y-100115714D01*
X134675619Y-100163333D01*
X134675619Y-100544285D02*
X134628000Y-100591904D01*
X134580380Y-100687142D01*
X134580380Y-100925238D01*
X134628000Y-101020476D01*
X134675619Y-101068095D01*
X134770857Y-101115714D01*
X134866095Y-101115714D01*
X135008952Y-101068095D01*
X135580380Y-100496666D01*
X135580380Y-101115714D01*
X121832666Y-99671142D02*
X121880285Y-99718761D01*
X122023142Y-99766380D01*
X122118380Y-99766380D01*
X122261238Y-99718761D01*
X122356476Y-99623523D01*
X122404095Y-99528285D01*
X122451714Y-99337809D01*
X122451714Y-99194952D01*
X122404095Y-99004476D01*
X122356476Y-98909238D01*
X122261238Y-98814000D01*
X122118380Y-98766380D01*
X122023142Y-98766380D01*
X121880285Y-98814000D01*
X121832666Y-98861619D01*
X121499333Y-98766380D02*
X120880285Y-98766380D01*
X121213619Y-99147333D01*
X121070761Y-99147333D01*
X120975523Y-99194952D01*
X120927904Y-99242571D01*
X120880285Y-99337809D01*
X120880285Y-99575904D01*
X120927904Y-99671142D01*
X120975523Y-99718761D01*
X121070761Y-99766380D01*
X121356476Y-99766380D01*
X121451714Y-99718761D01*
X121499333Y-99671142D01*
X179998666Y-97639142D02*
X180046285Y-97686761D01*
X180189142Y-97734380D01*
X180284380Y-97734380D01*
X180427238Y-97686761D01*
X180522476Y-97591523D01*
X180570095Y-97496285D01*
X180617714Y-97305809D01*
X180617714Y-97162952D01*
X180570095Y-96972476D01*
X180522476Y-96877238D01*
X180427238Y-96782000D01*
X180284380Y-96734380D01*
X180189142Y-96734380D01*
X180046285Y-96782000D01*
X179998666Y-96829619D01*
X179141523Y-97067714D02*
X179141523Y-97734380D01*
X179379619Y-96686761D02*
X179617714Y-97401047D01*
X178998666Y-97401047D01*
X122594666Y-109069142D02*
X122642285Y-109116761D01*
X122785142Y-109164380D01*
X122880380Y-109164380D01*
X123023238Y-109116761D01*
X123118476Y-109021523D01*
X123166095Y-108926285D01*
X123213714Y-108735809D01*
X123213714Y-108592952D01*
X123166095Y-108402476D01*
X123118476Y-108307238D01*
X123023238Y-108212000D01*
X122880380Y-108164380D01*
X122785142Y-108164380D01*
X122642285Y-108212000D01*
X122594666Y-108259619D01*
X121689904Y-108164380D02*
X122166095Y-108164380D01*
X122213714Y-108640571D01*
X122166095Y-108592952D01*
X122070857Y-108545333D01*
X121832761Y-108545333D01*
X121737523Y-108592952D01*
X121689904Y-108640571D01*
X121642285Y-108735809D01*
X121642285Y-108973904D01*
X121689904Y-109069142D01*
X121737523Y-109116761D01*
X121832761Y-109164380D01*
X122070857Y-109164380D01*
X122166095Y-109116761D01*
X122213714Y-109069142D01*
X154598666Y-107132380D02*
X154932000Y-106656190D01*
X155170095Y-107132380D02*
X155170095Y-106132380D01*
X154789142Y-106132380D01*
X154693904Y-106180000D01*
X154646285Y-106227619D01*
X154598666Y-106322857D01*
X154598666Y-106465714D01*
X154646285Y-106560952D01*
X154693904Y-106608571D01*
X154789142Y-106656190D01*
X155170095Y-106656190D01*
X153741523Y-106465714D02*
X153741523Y-107132380D01*
X153979619Y-106084761D02*
X154217714Y-106799047D01*
X153598666Y-106799047D01*
X151947619Y-95384857D02*
X152423809Y-95718190D01*
X151947619Y-95956285D02*
X152947619Y-95956285D01*
X152947619Y-95575333D01*
X152900000Y-95480095D01*
X152852380Y-95432476D01*
X152757142Y-95384857D01*
X152614285Y-95384857D01*
X152519047Y-95432476D01*
X152471428Y-95480095D01*
X152423809Y-95575333D01*
X152423809Y-95956285D01*
X151947619Y-94432476D02*
X151947619Y-95003904D01*
X151947619Y-94718190D02*
X152947619Y-94718190D01*
X152804761Y-94813428D01*
X152709523Y-94908666D01*
X152661904Y-95003904D01*
X152852380Y-94051523D02*
X152900000Y-94003904D01*
X152947619Y-93908666D01*
X152947619Y-93670571D01*
X152900000Y-93575333D01*
X152852380Y-93527714D01*
X152757142Y-93480095D01*
X152661904Y-93480095D01*
X152519047Y-93527714D01*
X151947619Y-94099142D01*
X151947619Y-93480095D01*
X112910857Y-109164380D02*
X113244190Y-108688190D01*
X113482285Y-109164380D02*
X113482285Y-108164380D01*
X113101333Y-108164380D01*
X113006095Y-108212000D01*
X112958476Y-108259619D01*
X112910857Y-108354857D01*
X112910857Y-108497714D01*
X112958476Y-108592952D01*
X113006095Y-108640571D01*
X113101333Y-108688190D01*
X113482285Y-108688190D01*
X111958476Y-109164380D02*
X112529904Y-109164380D01*
X112244190Y-109164380D02*
X112244190Y-108164380D01*
X112339428Y-108307238D01*
X112434666Y-108402476D01*
X112529904Y-108450095D01*
X111101333Y-108497714D02*
X111101333Y-109164380D01*
X111339428Y-108116761D02*
X111577523Y-108831047D01*
X110958476Y-108831047D01*
X154573380Y-113219095D02*
X155382904Y-113219095D01*
X155478142Y-113266714D01*
X155525761Y-113314333D01*
X155573380Y-113409571D01*
X155573380Y-113600047D01*
X155525761Y-113695285D01*
X155478142Y-113742904D01*
X155382904Y-113790523D01*
X154573380Y-113790523D01*
X155573380Y-114790523D02*
X155573380Y-114219095D01*
X155573380Y-114504809D02*
X154573380Y-114504809D01*
X154716238Y-114409571D01*
X154811476Y-114314333D01*
X154859095Y-114219095D01*
X154392380Y-95250095D02*
X155201904Y-95250095D01*
X155297142Y-95297714D01*
X155344761Y-95345333D01*
X155392380Y-95440571D01*
X155392380Y-95631047D01*
X155344761Y-95726285D01*
X155297142Y-95773904D01*
X155201904Y-95821523D01*
X154392380Y-95821523D01*
X154487619Y-96250095D02*
X154440000Y-96297714D01*
X154392380Y-96392952D01*
X154392380Y-96631047D01*
X154440000Y-96726285D01*
X154487619Y-96773904D01*
X154582857Y-96821523D01*
X154678095Y-96821523D01*
X154820952Y-96773904D01*
X155392380Y-96202476D01*
X155392380Y-96821523D01*
X141223904Y-94956380D02*
X141223904Y-95765904D01*
X141176285Y-95861142D01*
X141128666Y-95908761D01*
X141033428Y-95956380D01*
X140842952Y-95956380D01*
X140747714Y-95908761D01*
X140700095Y-95861142D01*
X140652476Y-95765904D01*
X140652476Y-94956380D01*
X139747714Y-94956380D02*
X139938190Y-94956380D01*
X140033428Y-95004000D01*
X140081047Y-95051619D01*
X140176285Y-95194476D01*
X140223904Y-95384952D01*
X140223904Y-95765904D01*
X140176285Y-95861142D01*
X140128666Y-95908761D01*
X140033428Y-95956380D01*
X139842952Y-95956380D01*
X139747714Y-95908761D01*
X139700095Y-95861142D01*
X139652476Y-95765904D01*
X139652476Y-95527809D01*
X139700095Y-95432571D01*
X139747714Y-95384952D01*
X139842952Y-95337333D01*
X140033428Y-95337333D01*
X140128666Y-95384952D01*
X140176285Y-95432571D01*
X140223904Y-95527809D01*
X152360380Y-110236095D02*
X153169904Y-110236095D01*
X153265142Y-110283714D01*
X153312761Y-110331333D01*
X153360380Y-110426571D01*
X153360380Y-110617047D01*
X153312761Y-110712285D01*
X153265142Y-110759904D01*
X153169904Y-110807523D01*
X152360380Y-110807523D01*
X152693714Y-111712285D02*
X153360380Y-111712285D01*
X152312761Y-111474190D02*
X153027047Y-111236095D01*
X153027047Y-111855142D01*
X181054095Y-118141380D02*
X181054095Y-117141380D01*
X180816000Y-117141380D01*
X180673142Y-117189000D01*
X180577904Y-117284238D01*
X180530285Y-117379476D01*
X180482666Y-117569952D01*
X180482666Y-117712809D01*
X180530285Y-117903285D01*
X180577904Y-117998523D01*
X180673142Y-118093761D01*
X180816000Y-118141380D01*
X181054095Y-118141380D01*
X179625523Y-117474714D02*
X179625523Y-118141380D01*
X179863619Y-117093761D02*
X180101714Y-117808047D01*
X179482666Y-117808047D01*
X188704457Y-119629180D02*
X189037790Y-119152990D01*
X189275885Y-119629180D02*
X189275885Y-118629180D01*
X188894933Y-118629180D01*
X188799695Y-118676800D01*
X188752076Y-118724419D01*
X188704457Y-118819657D01*
X188704457Y-118962514D01*
X188752076Y-119057752D01*
X188799695Y-119105371D01*
X188894933Y-119152990D01*
X189275885Y-119152990D01*
X187752076Y-119629180D02*
X188323504Y-119629180D01*
X188037790Y-119629180D02*
X188037790Y-118629180D01*
X188133028Y-118772038D01*
X188228266Y-118867276D01*
X188323504Y-118914895D01*
X186847314Y-118629180D02*
X187323504Y-118629180D01*
X187371123Y-119105371D01*
X187323504Y-119057752D01*
X187228266Y-119010133D01*
X186990171Y-119010133D01*
X186894933Y-119057752D01*
X186847314Y-119105371D01*
X186799695Y-119200609D01*
X186799695Y-119438704D01*
X186847314Y-119533942D01*
X186894933Y-119581561D01*
X186990171Y-119629180D01*
X187228266Y-119629180D01*
X187323504Y-119581561D01*
X187371123Y-119533942D01*
X188856857Y-111755180D02*
X189190190Y-111278990D01*
X189428285Y-111755180D02*
X189428285Y-110755180D01*
X189047333Y-110755180D01*
X188952095Y-110802800D01*
X188904476Y-110850419D01*
X188856857Y-110945657D01*
X188856857Y-111088514D01*
X188904476Y-111183752D01*
X188952095Y-111231371D01*
X189047333Y-111278990D01*
X189428285Y-111278990D01*
X187904476Y-111755180D02*
X188475904Y-111755180D01*
X188190190Y-111755180D02*
X188190190Y-110755180D01*
X188285428Y-110898038D01*
X188380666Y-110993276D01*
X188475904Y-111040895D01*
X187047333Y-110755180D02*
X187237809Y-110755180D01*
X187333047Y-110802800D01*
X187380666Y-110850419D01*
X187475904Y-110993276D01*
X187523523Y-111183752D01*
X187523523Y-111564704D01*
X187475904Y-111659942D01*
X187428285Y-111707561D01*
X187333047Y-111755180D01*
X187142571Y-111755180D01*
X187047333Y-111707561D01*
X186999714Y-111659942D01*
X186952095Y-111564704D01*
X186952095Y-111326609D01*
X186999714Y-111231371D01*
X187047333Y-111183752D01*
X187142571Y-111136133D01*
X187333047Y-111136133D01*
X187428285Y-111183752D01*
X187475904Y-111231371D01*
X187523523Y-111326609D01*
%LPC*%
D12*
X200450142Y-93129571D02*
X200450142Y-91629571D01*
X202235857Y-91558142D02*
X200950142Y-93486714D01*
X203021571Y-91629571D02*
X203307285Y-91629571D01*
X203450142Y-91701000D01*
X203593000Y-91843857D01*
X203664428Y-92129571D01*
X203664428Y-92629571D01*
X203593000Y-92915285D01*
X203450142Y-93058142D01*
X203307285Y-93129571D01*
X203021571Y-93129571D01*
X202878714Y-93058142D01*
X202735857Y-92915285D01*
X202664428Y-92629571D01*
X202664428Y-92129571D01*
X202735857Y-91843857D01*
X202878714Y-91701000D01*
X203021571Y-91629571D01*
X205950142Y-92343857D02*
X206164428Y-92415285D01*
X206235857Y-92486714D01*
X206307285Y-92629571D01*
X206307285Y-92843857D01*
X206235857Y-92986714D01*
X206164428Y-93058142D01*
X206021571Y-93129571D01*
X205450142Y-93129571D01*
X205450142Y-91629571D01*
X205950142Y-91629571D01*
X206093000Y-91701000D01*
X206164428Y-91772428D01*
X206235857Y-91915285D01*
X206235857Y-92058142D01*
X206164428Y-92201000D01*
X206093000Y-92272428D01*
X205950142Y-92343857D01*
X205450142Y-92343857D01*
X207164428Y-93129571D02*
X207021571Y-93058142D01*
X206950142Y-92986714D01*
X206878714Y-92843857D01*
X206878714Y-92415285D01*
X206950142Y-92272428D01*
X207021571Y-92201000D01*
X207164428Y-92129571D01*
X207378714Y-92129571D01*
X207521571Y-92201000D01*
X207593000Y-92272428D01*
X207664428Y-92415285D01*
X207664428Y-92843857D01*
X207593000Y-92986714D01*
X207521571Y-93058142D01*
X207378714Y-93129571D01*
X207164428Y-93129571D01*
X208950142Y-93129571D02*
X208950142Y-92343857D01*
X208878714Y-92201000D01*
X208735857Y-92129571D01*
X208450142Y-92129571D01*
X208307285Y-92201000D01*
X208950142Y-93058142D02*
X208807285Y-93129571D01*
X208450142Y-93129571D01*
X208307285Y-93058142D01*
X208235857Y-92915285D01*
X208235857Y-92772428D01*
X208307285Y-92629571D01*
X208450142Y-92558142D01*
X208807285Y-92558142D01*
X208950142Y-92486714D01*
X209664428Y-93129571D02*
X209664428Y-92129571D01*
X209664428Y-92415285D02*
X209735857Y-92272428D01*
X209807285Y-92201000D01*
X209950142Y-92129571D01*
X210093000Y-92129571D01*
X211235857Y-93129571D02*
X211235857Y-91629571D01*
X211235857Y-93058142D02*
X211093000Y-93129571D01*
X210807285Y-93129571D01*
X210664428Y-93058142D01*
X210593000Y-92986714D01*
X210521571Y-92843857D01*
X210521571Y-92415285D01*
X210593000Y-92272428D01*
X210664428Y-92201000D01*
X210807285Y-92129571D01*
X211093000Y-92129571D01*
X211235857Y-92201000D01*
X200950142Y-94893857D02*
X201164428Y-94965285D01*
X201235857Y-95036714D01*
X201307285Y-95179571D01*
X201307285Y-95393857D01*
X201235857Y-95536714D01*
X201164428Y-95608142D01*
X201021571Y-95679571D01*
X200450142Y-95679571D01*
X200450142Y-94179571D01*
X200950142Y-94179571D01*
X201093000Y-94251000D01*
X201164428Y-94322428D01*
X201235857Y-94465285D01*
X201235857Y-94608142D01*
X201164428Y-94751000D01*
X201093000Y-94822428D01*
X200950142Y-94893857D01*
X200450142Y-94893857D01*
X202164428Y-95679571D02*
X202021571Y-95608142D01*
X201950142Y-95536714D01*
X201878714Y-95393857D01*
X201878714Y-94965285D01*
X201950142Y-94822428D01*
X202021571Y-94751000D01*
X202164428Y-94679571D01*
X202378714Y-94679571D01*
X202521571Y-94751000D01*
X202593000Y-94822428D01*
X202664428Y-94965285D01*
X202664428Y-95393857D01*
X202593000Y-95536714D01*
X202521571Y-95608142D01*
X202378714Y-95679571D01*
X202164428Y-95679571D01*
X203093000Y-94679571D02*
X203664428Y-94679571D01*
X203307285Y-94179571D02*
X203307285Y-95465285D01*
X203378714Y-95608142D01*
X203521571Y-95679571D01*
X203664428Y-95679571D01*
X203950142Y-94679571D02*
X204521571Y-94679571D01*
X204164428Y-94179571D02*
X204164428Y-95465285D01*
X204235857Y-95608142D01*
X204378714Y-95679571D01*
X204521571Y-95679571D01*
X205235857Y-95679571D02*
X205093000Y-95608142D01*
X205021571Y-95536714D01*
X204950142Y-95393857D01*
X204950142Y-94965285D01*
X205021571Y-94822428D01*
X205093000Y-94751000D01*
X205235857Y-94679571D01*
X205450142Y-94679571D01*
X205593000Y-94751000D01*
X205664428Y-94822428D01*
X205735857Y-94965285D01*
X205735857Y-95393857D01*
X205664428Y-95536714D01*
X205593000Y-95608142D01*
X205450142Y-95679571D01*
X205235857Y-95679571D01*
X206378714Y-95679571D02*
X206378714Y-94679571D01*
X206378714Y-94822428D02*
X206450142Y-94751000D01*
X206593000Y-94679571D01*
X206807285Y-94679571D01*
X206950142Y-94751000D01*
X207021571Y-94893857D01*
X207021571Y-95679571D01*
X207021571Y-94893857D02*
X207093000Y-94751000D01*
X207235857Y-94679571D01*
X207450142Y-94679571D01*
X207593000Y-94751000D01*
X207664428Y-94893857D01*
X207664428Y-95679571D01*
X209450142Y-95608142D02*
X209664428Y-95679571D01*
X210021571Y-95679571D01*
X210164428Y-95608142D01*
X210235857Y-95536714D01*
X210307285Y-95393857D01*
X210307285Y-95251000D01*
X210235857Y-95108142D01*
X210164428Y-95036714D01*
X210021571Y-94965285D01*
X209735857Y-94893857D01*
X209593000Y-94822428D01*
X209521571Y-94751000D01*
X209450142Y-94608142D01*
X209450142Y-94465285D01*
X209521571Y-94322428D01*
X209593000Y-94251000D01*
X209735857Y-94179571D01*
X210093000Y-94179571D01*
X210307285Y-94251000D01*
X210950142Y-95679571D02*
X210950142Y-94679571D01*
X210950142Y-94179571D02*
X210878714Y-94251000D01*
X210950142Y-94322428D01*
X211021571Y-94251000D01*
X210950142Y-94179571D01*
X210950142Y-94322428D01*
X212307285Y-95679571D02*
X212307285Y-94179571D01*
X212307285Y-95608142D02*
X212164428Y-95679571D01*
X211878714Y-95679571D01*
X211735857Y-95608142D01*
X211664428Y-95536714D01*
X211593000Y-95393857D01*
X211593000Y-94965285D01*
X211664428Y-94822428D01*
X211735857Y-94751000D01*
X211878714Y-94679571D01*
X212164428Y-94679571D01*
X212307285Y-94751000D01*
X213593000Y-95608142D02*
X213450142Y-95679571D01*
X213164428Y-95679571D01*
X213021571Y-95608142D01*
X212950142Y-95465285D01*
X212950142Y-94893857D01*
X213021571Y-94751000D01*
X213164428Y-94679571D01*
X213450142Y-94679571D01*
X213593000Y-94751000D01*
X213664428Y-94893857D01*
X213664428Y-95036714D01*
X212950142Y-95179571D01*
X215378714Y-95608142D02*
X215593000Y-95679571D01*
X215950142Y-95679571D01*
X216093000Y-95608142D01*
X216164428Y-95536714D01*
X216235857Y-95393857D01*
X216235857Y-95251000D01*
X216164428Y-95108142D01*
X216093000Y-95036714D01*
X215950142Y-94965285D01*
X215664428Y-94893857D01*
X215521571Y-94822428D01*
X215450142Y-94751000D01*
X215378714Y-94608142D01*
X215378714Y-94465285D01*
X215450142Y-94322428D01*
X215521571Y-94251000D01*
X215664428Y-94179571D01*
X216021571Y-94179571D01*
X216235857Y-94251000D01*
X217093000Y-95679571D02*
X216950142Y-95608142D01*
X216878714Y-95536714D01*
X216807285Y-95393857D01*
X216807285Y-94965285D01*
X216878714Y-94822428D01*
X216950142Y-94751000D01*
X217093000Y-94679571D01*
X217307285Y-94679571D01*
X217450142Y-94751000D01*
X217521571Y-94822428D01*
X217593000Y-94965285D01*
X217593000Y-95393857D01*
X217521571Y-95536714D01*
X217450142Y-95608142D01*
X217307285Y-95679571D01*
X217093000Y-95679571D01*
X218450142Y-95679571D02*
X218307285Y-95608142D01*
X218235857Y-95465285D01*
X218235857Y-94179571D01*
X219664428Y-95679571D02*
X219664428Y-94179571D01*
X219664428Y-95608142D02*
X219521571Y-95679571D01*
X219235857Y-95679571D01*
X219093000Y-95608142D01*
X219021571Y-95536714D01*
X218950142Y-95393857D01*
X218950142Y-94965285D01*
X219021571Y-94822428D01*
X219093000Y-94751000D01*
X219235857Y-94679571D01*
X219521571Y-94679571D01*
X219664428Y-94751000D01*
X220950142Y-95608142D02*
X220807285Y-95679571D01*
X220521571Y-95679571D01*
X220378714Y-95608142D01*
X220307285Y-95465285D01*
X220307285Y-94893857D01*
X220378714Y-94751000D01*
X220521571Y-94679571D01*
X220807285Y-94679571D01*
X220950142Y-94751000D01*
X221021571Y-94893857D01*
X221021571Y-95036714D01*
X220307285Y-95179571D01*
X221664428Y-95679571D02*
X221664428Y-94679571D01*
X221664428Y-94965285D02*
X221735857Y-94822428D01*
X221807285Y-94751000D01*
X221950142Y-94679571D01*
X222093000Y-94679571D01*
X223735857Y-95679571D02*
X223735857Y-94179571D01*
X224235857Y-95251000D01*
X224735857Y-94179571D01*
X224735857Y-95679571D01*
X226093000Y-95679571D02*
X226093000Y-94893857D01*
X226021571Y-94751000D01*
X225878714Y-94679571D01*
X225593000Y-94679571D01*
X225450142Y-94751000D01*
X226093000Y-95608142D02*
X225950142Y-95679571D01*
X225593000Y-95679571D01*
X225450142Y-95608142D01*
X225378714Y-95465285D01*
X225378714Y-95322428D01*
X225450142Y-95179571D01*
X225593000Y-95108142D01*
X225950142Y-95108142D01*
X226093000Y-95036714D01*
X226735857Y-95608142D02*
X226878714Y-95679571D01*
X227164428Y-95679571D01*
X227307285Y-95608142D01*
X227378714Y-95465285D01*
X227378714Y-95393857D01*
X227307285Y-95251000D01*
X227164428Y-95179571D01*
X226950142Y-95179571D01*
X226807285Y-95108142D01*
X226735857Y-94965285D01*
X226735857Y-94893857D01*
X226807285Y-94751000D01*
X226950142Y-94679571D01*
X227164428Y-94679571D01*
X227307285Y-94751000D01*
X228021571Y-95679571D02*
X228021571Y-94179571D01*
X228164428Y-95108142D02*
X228593000Y-95679571D01*
X228593000Y-94679571D02*
X228021571Y-95251000D01*
D15*
X144780000Y-114046000D03*
X142240000Y-114046000D03*
X139700000Y-114046000D03*
X137160000Y-114046000D03*
X134620000Y-114046000D03*
X132080000Y-114046000D03*
X129540000Y-114046000D03*
X127000000Y-114046000D03*
X124460000Y-114046000D03*
X121920000Y-114046000D03*
X119380000Y-114046000D03*
X116840000Y-114046000D03*
X114300000Y-114046000D03*
X111760000Y-114046000D03*
X109220000Y-114046000D03*
D16*
X106680000Y-114046000D03*
D15*
X116840000Y-93726000D03*
X119380000Y-93726000D03*
X121920000Y-93726000D03*
X124460000Y-93726000D03*
X127000000Y-93726000D03*
X129540000Y-93726000D03*
X132080000Y-93726000D03*
X134620000Y-93726000D03*
X137160000Y-93726000D03*
X139700000Y-93726000D03*
X142240000Y-93726000D03*
X144780000Y-93726000D03*
D17*
X146050000Y-108326000D03*
X146050000Y-106426000D03*
X149050000Y-107376000D03*
X142700000Y-108646000D03*
X139700000Y-107696000D03*
X139700000Y-109596000D03*
G36*
G01*
X159014000Y-104516500D02*
X160264000Y-104516500D01*
G75*
G02*
X160514000Y-104766500I0J-250000D01*
G01*
X160514000Y-105691500D01*
G75*
G02*
X160264000Y-105941500I-250000J0D01*
G01*
X159014000Y-105941500D01*
G75*
G02*
X158764000Y-105691500I0J250000D01*
G01*
X158764000Y-104766500D01*
G75*
G02*
X159014000Y-104516500I250000J0D01*
G01*
G37*
G36*
G01*
X159014000Y-107491500D02*
X160264000Y-107491500D01*
G75*
G02*
X160514000Y-107741500I0J-250000D01*
G01*
X160514000Y-108666500D01*
G75*
G02*
X160264000Y-108916500I-250000J0D01*
G01*
X159014000Y-108916500D01*
G75*
G02*
X158764000Y-108666500I0J250000D01*
G01*
X158764000Y-107741500D01*
G75*
G02*
X159014000Y-107491500I250000J0D01*
G01*
G37*
G36*
G01*
X163078000Y-107491500D02*
X164328000Y-107491500D01*
G75*
G02*
X164578000Y-107741500I0J-250000D01*
G01*
X164578000Y-108666500D01*
G75*
G02*
X164328000Y-108916500I-250000J0D01*
G01*
X163078000Y-108916500D01*
G75*
G02*
X162828000Y-108666500I0J250000D01*
G01*
X162828000Y-107741500D01*
G75*
G02*
X163078000Y-107491500I250000J0D01*
G01*
G37*
G36*
G01*
X163078000Y-104516500D02*
X164328000Y-104516500D01*
G75*
G02*
X164578000Y-104766500I0J-250000D01*
G01*
X164578000Y-105691500D01*
G75*
G02*
X164328000Y-105941500I-250000J0D01*
G01*
X163078000Y-105941500D01*
G75*
G02*
X162828000Y-105691500I0J250000D01*
G01*
X162828000Y-104766500D01*
G75*
G02*
X163078000Y-104516500I250000J0D01*
G01*
G37*
G36*
G01*
X155966000Y-92505500D02*
X157216000Y-92505500D01*
G75*
G02*
X157466000Y-92755500I0J-250000D01*
G01*
X157466000Y-93680500D01*
G75*
G02*
X157216000Y-93930500I-250000J0D01*
G01*
X155966000Y-93930500D01*
G75*
G02*
X155716000Y-93680500I0J250000D01*
G01*
X155716000Y-92755500D01*
G75*
G02*
X155966000Y-92505500I250000J0D01*
G01*
G37*
G36*
G01*
X155966000Y-89530500D02*
X157216000Y-89530500D01*
G75*
G02*
X157466000Y-89780500I0J-250000D01*
G01*
X157466000Y-90705500D01*
G75*
G02*
X157216000Y-90955500I-250000J0D01*
G01*
X155966000Y-90955500D01*
G75*
G02*
X155716000Y-90705500I0J250000D01*
G01*
X155716000Y-89780500D01*
G75*
G02*
X155966000Y-89530500I250000J0D01*
G01*
G37*
G36*
G01*
X159014000Y-92505500D02*
X160264000Y-92505500D01*
G75*
G02*
X160514000Y-92755500I0J-250000D01*
G01*
X160514000Y-93680500D01*
G75*
G02*
X160264000Y-93930500I-250000J0D01*
G01*
X159014000Y-93930500D01*
G75*
G02*
X158764000Y-93680500I0J250000D01*
G01*
X158764000Y-92755500D01*
G75*
G02*
X159014000Y-92505500I250000J0D01*
G01*
G37*
G36*
G01*
X159014000Y-89530500D02*
X160264000Y-89530500D01*
G75*
G02*
X160514000Y-89780500I0J-250000D01*
G01*
X160514000Y-90705500D01*
G75*
G02*
X160264000Y-90955500I-250000J0D01*
G01*
X159014000Y-90955500D01*
G75*
G02*
X158764000Y-90705500I0J250000D01*
G01*
X158764000Y-89780500D01*
G75*
G02*
X159014000Y-89530500I250000J0D01*
G01*
G37*
G36*
G01*
X163332000Y-92505500D02*
X164582000Y-92505500D01*
G75*
G02*
X164832000Y-92755500I0J-250000D01*
G01*
X164832000Y-93680500D01*
G75*
G02*
X164582000Y-93930500I-250000J0D01*
G01*
X163332000Y-93930500D01*
G75*
G02*
X163082000Y-93680500I0J250000D01*
G01*
X163082000Y-92755500D01*
G75*
G02*
X163332000Y-92505500I250000J0D01*
G01*
G37*
G36*
G01*
X163332000Y-89530500D02*
X164582000Y-89530500D01*
G75*
G02*
X164832000Y-89780500I0J-250000D01*
G01*
X164832000Y-90705500D01*
G75*
G02*
X164582000Y-90955500I-250000J0D01*
G01*
X163332000Y-90955500D01*
G75*
G02*
X163082000Y-90705500I0J250000D01*
G01*
X163082000Y-89780500D01*
G75*
G02*
X163332000Y-89530500I250000J0D01*
G01*
G37*
G36*
G01*
X149215000Y-98031000D02*
X147965000Y-98031000D01*
G75*
G02*
X147715000Y-97781000I0J250000D01*
G01*
X147715000Y-96856000D01*
G75*
G02*
X147965000Y-96606000I250000J0D01*
G01*
X149215000Y-96606000D01*
G75*
G02*
X149465000Y-96856000I0J-250000D01*
G01*
X149465000Y-97781000D01*
G75*
G02*
X149215000Y-98031000I-250000J0D01*
G01*
G37*
G36*
G01*
X149215000Y-101006000D02*
X147965000Y-101006000D01*
G75*
G02*
X147715000Y-100756000I0J250000D01*
G01*
X147715000Y-99831000D01*
G75*
G02*
X147965000Y-99581000I250000J0D01*
G01*
X149215000Y-99581000D01*
G75*
G02*
X149465000Y-99831000I0J-250000D01*
G01*
X149465000Y-100756000D01*
G75*
G02*
X149215000Y-101006000I-250000J0D01*
G01*
G37*
X118110000Y-106421000D03*
X118110000Y-104521000D03*
X121110000Y-105471000D03*
D18*
X180406000Y-102108000D03*
X181356000Y-102108000D03*
X182306000Y-102108000D03*
X182306000Y-104808000D03*
X180406000Y-104808000D03*
X181356000Y-104808000D03*
X133035000Y-105156000D03*
X133985000Y-105156000D03*
X134935000Y-105156000D03*
X134935000Y-107856000D03*
X133035000Y-107856000D03*
X133985000Y-107856000D03*
G36*
G01*
X113587500Y-105146000D02*
X113587500Y-103896000D01*
G75*
G02*
X113837500Y-103646000I250000J0D01*
G01*
X114762500Y-103646000D01*
G75*
G02*
X115012500Y-103896000I0J-250000D01*
G01*
X115012500Y-105146000D01*
G75*
G02*
X114762500Y-105396000I-250000J0D01*
G01*
X113837500Y-105396000D01*
G75*
G02*
X113587500Y-105146000I0J250000D01*
G01*
G37*
G36*
G01*
X110612500Y-105146000D02*
X110612500Y-103896000D01*
G75*
G02*
X110862500Y-103646000I250000J0D01*
G01*
X111787500Y-103646000D01*
G75*
G02*
X112037500Y-103896000I0J-250000D01*
G01*
X112037500Y-105146000D01*
G75*
G02*
X111787500Y-105396000I-250000J0D01*
G01*
X110862500Y-105396000D01*
G75*
G02*
X110612500Y-105146000I0J250000D01*
G01*
G37*
G36*
G01*
X137785000Y-103546000D02*
X136535000Y-103546000D01*
G75*
G02*
X136285000Y-103296000I0J250000D01*
G01*
X136285000Y-102371000D01*
G75*
G02*
X136535000Y-102121000I250000J0D01*
G01*
X137785000Y-102121000D01*
G75*
G02*
X138035000Y-102371000I0J-250000D01*
G01*
X138035000Y-103296000D01*
G75*
G02*
X137785000Y-103546000I-250000J0D01*
G01*
G37*
G36*
G01*
X137785000Y-100571000D02*
X136535000Y-100571000D01*
G75*
G02*
X136285000Y-100321000I0J250000D01*
G01*
X136285000Y-99396000D01*
G75*
G02*
X136535000Y-99146000I250000J0D01*
G01*
X137785000Y-99146000D01*
G75*
G02*
X138035000Y-99396000I0J-250000D01*
G01*
X138035000Y-100321000D01*
G75*
G02*
X137785000Y-100571000I-250000J0D01*
G01*
G37*
G36*
G01*
X118882000Y-95880500D02*
X120132000Y-95880500D01*
G75*
G02*
X120382000Y-96130500I0J-250000D01*
G01*
X120382000Y-97055500D01*
G75*
G02*
X120132000Y-97305500I-250000J0D01*
G01*
X118882000Y-97305500D01*
G75*
G02*
X118632000Y-97055500I0J250000D01*
G01*
X118632000Y-96130500D01*
G75*
G02*
X118882000Y-95880500I250000J0D01*
G01*
G37*
G36*
G01*
X118882000Y-98855500D02*
X120132000Y-98855500D01*
G75*
G02*
X120382000Y-99105500I0J-250000D01*
G01*
X120382000Y-100030500D01*
G75*
G02*
X120132000Y-100280500I-250000J0D01*
G01*
X118882000Y-100280500D01*
G75*
G02*
X118632000Y-100030500I0J250000D01*
G01*
X118632000Y-99105500D01*
G75*
G02*
X118882000Y-98855500I250000J0D01*
G01*
G37*
G36*
G01*
X177759000Y-99685000D02*
X177759000Y-98435000D01*
G75*
G02*
X178009000Y-98185000I250000J0D01*
G01*
X178934000Y-98185000D01*
G75*
G02*
X179184000Y-98435000I0J-250000D01*
G01*
X179184000Y-99685000D01*
G75*
G02*
X178934000Y-99935000I-250000J0D01*
G01*
X178009000Y-99935000D01*
G75*
G02*
X177759000Y-99685000I0J250000D01*
G01*
G37*
G36*
G01*
X180734000Y-99685000D02*
X180734000Y-98435000D01*
G75*
G02*
X180984000Y-98185000I250000J0D01*
G01*
X181909000Y-98185000D01*
G75*
G02*
X182159000Y-98435000I0J-250000D01*
G01*
X182159000Y-99685000D01*
G75*
G02*
X181909000Y-99935000I-250000J0D01*
G01*
X180984000Y-99935000D01*
G75*
G02*
X180734000Y-99685000I0J250000D01*
G01*
G37*
G36*
G01*
X122023500Y-111369000D02*
X122023500Y-110119000D01*
G75*
G02*
X122273500Y-109869000I250000J0D01*
G01*
X123198500Y-109869000D01*
G75*
G02*
X123448500Y-110119000I0J-250000D01*
G01*
X123448500Y-111369000D01*
G75*
G02*
X123198500Y-111619000I-250000J0D01*
G01*
X122273500Y-111619000D01*
G75*
G02*
X122023500Y-111369000I0J250000D01*
G01*
G37*
G36*
G01*
X119048500Y-111369000D02*
X119048500Y-110119000D01*
G75*
G02*
X119298500Y-109869000I250000J0D01*
G01*
X120223500Y-109869000D01*
G75*
G02*
X120473500Y-110119000I0J-250000D01*
G01*
X120473500Y-111369000D01*
G75*
G02*
X120223500Y-111619000I-250000J0D01*
G01*
X119298500Y-111619000D01*
G75*
G02*
X119048500Y-111369000I0J250000D01*
G01*
G37*
D19*
X187325000Y-107442000D03*
D20*
X187325000Y-104902000D03*
X187325000Y-102362000D03*
X187325000Y-99822000D03*
X187325000Y-97282000D03*
G36*
G01*
X155966000Y-104516500D02*
X157216000Y-104516500D01*
G75*
G02*
X157466000Y-104766500I0J-250000D01*
G01*
X157466000Y-105691500D01*
G75*
G02*
X157216000Y-105941500I-250000J0D01*
G01*
X155966000Y-105941500D01*
G75*
G02*
X155716000Y-105691500I0J250000D01*
G01*
X155716000Y-104766500D01*
G75*
G02*
X155966000Y-104516500I250000J0D01*
G01*
G37*
G36*
G01*
X155966000Y-107491500D02*
X157216000Y-107491500D01*
G75*
G02*
X157466000Y-107741500I0J-250000D01*
G01*
X157466000Y-108666500D01*
G75*
G02*
X157216000Y-108916500I-250000J0D01*
G01*
X155966000Y-108916500D01*
G75*
G02*
X155716000Y-108666500I0J250000D01*
G01*
X155716000Y-107741500D01*
G75*
G02*
X155966000Y-107491500I250000J0D01*
G01*
G37*
G36*
G01*
X153025000Y-98031000D02*
X151775000Y-98031000D01*
G75*
G02*
X151525000Y-97781000I0J250000D01*
G01*
X151525000Y-96856000D01*
G75*
G02*
X151775000Y-96606000I250000J0D01*
G01*
X153025000Y-96606000D01*
G75*
G02*
X153275000Y-96856000I0J-250000D01*
G01*
X153275000Y-97781000D01*
G75*
G02*
X153025000Y-98031000I-250000J0D01*
G01*
G37*
G36*
G01*
X153025000Y-101006000D02*
X151775000Y-101006000D01*
G75*
G02*
X151525000Y-100756000I0J250000D01*
G01*
X151525000Y-99831000D01*
G75*
G02*
X151775000Y-99581000I250000J0D01*
G01*
X153025000Y-99581000D01*
G75*
G02*
X153275000Y-99831000I0J-250000D01*
G01*
X153275000Y-100756000D01*
G75*
G02*
X153025000Y-101006000I-250000J0D01*
G01*
G37*
G36*
G01*
X113688500Y-110119000D02*
X113688500Y-111369000D01*
G75*
G02*
X113438500Y-111619000I-250000J0D01*
G01*
X112513500Y-111619000D01*
G75*
G02*
X112263500Y-111369000I0J250000D01*
G01*
X112263500Y-110119000D01*
G75*
G02*
X112513500Y-109869000I250000J0D01*
G01*
X113438500Y-109869000D01*
G75*
G02*
X113688500Y-110119000I0J-250000D01*
G01*
G37*
G36*
G01*
X116663500Y-110119000D02*
X116663500Y-111369000D01*
G75*
G02*
X116413500Y-111619000I-250000J0D01*
G01*
X115488500Y-111619000D01*
G75*
G02*
X115238500Y-111369000I0J250000D01*
G01*
X115238500Y-110119000D01*
G75*
G02*
X115488500Y-109869000I250000J0D01*
G01*
X116413500Y-109869000D01*
G75*
G02*
X116663500Y-110119000I0J-250000D01*
G01*
G37*
G36*
G01*
X156441000Y-110531000D02*
X156741000Y-110531000D01*
G75*
G02*
X156891000Y-110681000I0J-150000D01*
G01*
X156891000Y-112331000D01*
G75*
G02*
X156741000Y-112481000I-150000J0D01*
G01*
X156441000Y-112481000D01*
G75*
G02*
X156291000Y-112331000I0J150000D01*
G01*
X156291000Y-110681000D01*
G75*
G02*
X156441000Y-110531000I150000J0D01*
G01*
G37*
G36*
G01*
X157711000Y-110531000D02*
X158011000Y-110531000D01*
G75*
G02*
X158161000Y-110681000I0J-150000D01*
G01*
X158161000Y-112331000D01*
G75*
G02*
X158011000Y-112481000I-150000J0D01*
G01*
X157711000Y-112481000D01*
G75*
G02*
X157561000Y-112331000I0J150000D01*
G01*
X157561000Y-110681000D01*
G75*
G02*
X157711000Y-110531000I150000J0D01*
G01*
G37*
G36*
G01*
X158981000Y-110531000D02*
X159281000Y-110531000D01*
G75*
G02*
X159431000Y-110681000I0J-150000D01*
G01*
X159431000Y-112331000D01*
G75*
G02*
X159281000Y-112481000I-150000J0D01*
G01*
X158981000Y-112481000D01*
G75*
G02*
X158831000Y-112331000I0J150000D01*
G01*
X158831000Y-110681000D01*
G75*
G02*
X158981000Y-110531000I150000J0D01*
G01*
G37*
G36*
G01*
X160251000Y-110531000D02*
X160551000Y-110531000D01*
G75*
G02*
X160701000Y-110681000I0J-150000D01*
G01*
X160701000Y-112331000D01*
G75*
G02*
X160551000Y-112481000I-150000J0D01*
G01*
X160251000Y-112481000D01*
G75*
G02*
X160101000Y-112331000I0J150000D01*
G01*
X160101000Y-110681000D01*
G75*
G02*
X160251000Y-110531000I150000J0D01*
G01*
G37*
G36*
G01*
X161521000Y-110531000D02*
X161821000Y-110531000D01*
G75*
G02*
X161971000Y-110681000I0J-150000D01*
G01*
X161971000Y-112331000D01*
G75*
G02*
X161821000Y-112481000I-150000J0D01*
G01*
X161521000Y-112481000D01*
G75*
G02*
X161371000Y-112331000I0J150000D01*
G01*
X161371000Y-110681000D01*
G75*
G02*
X161521000Y-110531000I150000J0D01*
G01*
G37*
G36*
G01*
X162791000Y-110531000D02*
X163091000Y-110531000D01*
G75*
G02*
X163241000Y-110681000I0J-150000D01*
G01*
X163241000Y-112331000D01*
G75*
G02*
X163091000Y-112481000I-150000J0D01*
G01*
X162791000Y-112481000D01*
G75*
G02*
X162641000Y-112331000I0J150000D01*
G01*
X162641000Y-110681000D01*
G75*
G02*
X162791000Y-110531000I150000J0D01*
G01*
G37*
G36*
G01*
X164061000Y-110531000D02*
X164361000Y-110531000D01*
G75*
G02*
X164511000Y-110681000I0J-150000D01*
G01*
X164511000Y-112331000D01*
G75*
G02*
X164361000Y-112481000I-150000J0D01*
G01*
X164061000Y-112481000D01*
G75*
G02*
X163911000Y-112331000I0J150000D01*
G01*
X163911000Y-110681000D01*
G75*
G02*
X164061000Y-110531000I150000J0D01*
G01*
G37*
G36*
G01*
X164061000Y-115481000D02*
X164361000Y-115481000D01*
G75*
G02*
X164511000Y-115631000I0J-150000D01*
G01*
X164511000Y-117281000D01*
G75*
G02*
X164361000Y-117431000I-150000J0D01*
G01*
X164061000Y-117431000D01*
G75*
G02*
X163911000Y-117281000I0J150000D01*
G01*
X163911000Y-115631000D01*
G75*
G02*
X164061000Y-115481000I150000J0D01*
G01*
G37*
G36*
G01*
X162791000Y-115481000D02*
X163091000Y-115481000D01*
G75*
G02*
X163241000Y-115631000I0J-150000D01*
G01*
X163241000Y-117281000D01*
G75*
G02*
X163091000Y-117431000I-150000J0D01*
G01*
X162791000Y-117431000D01*
G75*
G02*
X162641000Y-117281000I0J150000D01*
G01*
X162641000Y-115631000D01*
G75*
G02*
X162791000Y-115481000I150000J0D01*
G01*
G37*
G36*
G01*
X161521000Y-115481000D02*
X161821000Y-115481000D01*
G75*
G02*
X161971000Y-115631000I0J-150000D01*
G01*
X161971000Y-117281000D01*
G75*
G02*
X161821000Y-117431000I-150000J0D01*
G01*
X161521000Y-117431000D01*
G75*
G02*
X161371000Y-117281000I0J150000D01*
G01*
X161371000Y-115631000D01*
G75*
G02*
X161521000Y-115481000I150000J0D01*
G01*
G37*
G36*
G01*
X160251000Y-115481000D02*
X160551000Y-115481000D01*
G75*
G02*
X160701000Y-115631000I0J-150000D01*
G01*
X160701000Y-117281000D01*
G75*
G02*
X160551000Y-117431000I-150000J0D01*
G01*
X160251000Y-117431000D01*
G75*
G02*
X160101000Y-117281000I0J150000D01*
G01*
X160101000Y-115631000D01*
G75*
G02*
X160251000Y-115481000I150000J0D01*
G01*
G37*
G36*
G01*
X158981000Y-115481000D02*
X159281000Y-115481000D01*
G75*
G02*
X159431000Y-115631000I0J-150000D01*
G01*
X159431000Y-117281000D01*
G75*
G02*
X159281000Y-117431000I-150000J0D01*
G01*
X158981000Y-117431000D01*
G75*
G02*
X158831000Y-117281000I0J150000D01*
G01*
X158831000Y-115631000D01*
G75*
G02*
X158981000Y-115481000I150000J0D01*
G01*
G37*
G36*
G01*
X157711000Y-115481000D02*
X158011000Y-115481000D01*
G75*
G02*
X158161000Y-115631000I0J-150000D01*
G01*
X158161000Y-117281000D01*
G75*
G02*
X158011000Y-117431000I-150000J0D01*
G01*
X157711000Y-117431000D01*
G75*
G02*
X157561000Y-117281000I0J150000D01*
G01*
X157561000Y-115631000D01*
G75*
G02*
X157711000Y-115481000I150000J0D01*
G01*
G37*
G36*
G01*
X156441000Y-115481000D02*
X156741000Y-115481000D01*
G75*
G02*
X156891000Y-115631000I0J-150000D01*
G01*
X156891000Y-117281000D01*
G75*
G02*
X156741000Y-117431000I-150000J0D01*
G01*
X156441000Y-117431000D01*
G75*
G02*
X156291000Y-117281000I0J150000D01*
G01*
X156291000Y-115631000D01*
G75*
G02*
X156441000Y-115481000I150000J0D01*
G01*
G37*
G36*
G01*
X156441000Y-100495000D02*
X156741000Y-100495000D01*
G75*
G02*
X156891000Y-100645000I0J-150000D01*
G01*
X156891000Y-102295000D01*
G75*
G02*
X156741000Y-102445000I-150000J0D01*
G01*
X156441000Y-102445000D01*
G75*
G02*
X156291000Y-102295000I0J150000D01*
G01*
X156291000Y-100645000D01*
G75*
G02*
X156441000Y-100495000I150000J0D01*
G01*
G37*
G36*
G01*
X157711000Y-100495000D02*
X158011000Y-100495000D01*
G75*
G02*
X158161000Y-100645000I0J-150000D01*
G01*
X158161000Y-102295000D01*
G75*
G02*
X158011000Y-102445000I-150000J0D01*
G01*
X157711000Y-102445000D01*
G75*
G02*
X157561000Y-102295000I0J150000D01*
G01*
X157561000Y-100645000D01*
G75*
G02*
X157711000Y-100495000I150000J0D01*
G01*
G37*
G36*
G01*
X158981000Y-100495000D02*
X159281000Y-100495000D01*
G75*
G02*
X159431000Y-100645000I0J-150000D01*
G01*
X159431000Y-102295000D01*
G75*
G02*
X159281000Y-102445000I-150000J0D01*
G01*
X158981000Y-102445000D01*
G75*
G02*
X158831000Y-102295000I0J150000D01*
G01*
X158831000Y-100645000D01*
G75*
G02*
X158981000Y-100495000I150000J0D01*
G01*
G37*
G36*
G01*
X160251000Y-100495000D02*
X160551000Y-100495000D01*
G75*
G02*
X160701000Y-100645000I0J-150000D01*
G01*
X160701000Y-102295000D01*
G75*
G02*
X160551000Y-102445000I-150000J0D01*
G01*
X160251000Y-102445000D01*
G75*
G02*
X160101000Y-102295000I0J150000D01*
G01*
X160101000Y-100645000D01*
G75*
G02*
X160251000Y-100495000I150000J0D01*
G01*
G37*
G36*
G01*
X161521000Y-100495000D02*
X161821000Y-100495000D01*
G75*
G02*
X161971000Y-100645000I0J-150000D01*
G01*
X161971000Y-102295000D01*
G75*
G02*
X161821000Y-102445000I-150000J0D01*
G01*
X161521000Y-102445000D01*
G75*
G02*
X161371000Y-102295000I0J150000D01*
G01*
X161371000Y-100645000D01*
G75*
G02*
X161521000Y-100495000I150000J0D01*
G01*
G37*
G36*
G01*
X162791000Y-100495000D02*
X163091000Y-100495000D01*
G75*
G02*
X163241000Y-100645000I0J-150000D01*
G01*
X163241000Y-102295000D01*
G75*
G02*
X163091000Y-102445000I-150000J0D01*
G01*
X162791000Y-102445000D01*
G75*
G02*
X162641000Y-102295000I0J150000D01*
G01*
X162641000Y-100645000D01*
G75*
G02*
X162791000Y-100495000I150000J0D01*
G01*
G37*
G36*
G01*
X164061000Y-100495000D02*
X164361000Y-100495000D01*
G75*
G02*
X164511000Y-100645000I0J-150000D01*
G01*
X164511000Y-102295000D01*
G75*
G02*
X164361000Y-102445000I-150000J0D01*
G01*
X164061000Y-102445000D01*
G75*
G02*
X163911000Y-102295000I0J150000D01*
G01*
X163911000Y-100645000D01*
G75*
G02*
X164061000Y-100495000I150000J0D01*
G01*
G37*
G36*
G01*
X164061000Y-95545000D02*
X164361000Y-95545000D01*
G75*
G02*
X164511000Y-95695000I0J-150000D01*
G01*
X164511000Y-97345000D01*
G75*
G02*
X164361000Y-97495000I-150000J0D01*
G01*
X164061000Y-97495000D01*
G75*
G02*
X163911000Y-97345000I0J150000D01*
G01*
X163911000Y-95695000D01*
G75*
G02*
X164061000Y-95545000I150000J0D01*
G01*
G37*
G36*
G01*
X162791000Y-95545000D02*
X163091000Y-95545000D01*
G75*
G02*
X163241000Y-95695000I0J-150000D01*
G01*
X163241000Y-97345000D01*
G75*
G02*
X163091000Y-97495000I-150000J0D01*
G01*
X162791000Y-97495000D01*
G75*
G02*
X162641000Y-97345000I0J150000D01*
G01*
X162641000Y-95695000D01*
G75*
G02*
X162791000Y-95545000I150000J0D01*
G01*
G37*
G36*
G01*
X161521000Y-95545000D02*
X161821000Y-95545000D01*
G75*
G02*
X161971000Y-95695000I0J-150000D01*
G01*
X161971000Y-97345000D01*
G75*
G02*
X161821000Y-97495000I-150000J0D01*
G01*
X161521000Y-97495000D01*
G75*
G02*
X161371000Y-97345000I0J150000D01*
G01*
X161371000Y-95695000D01*
G75*
G02*
X161521000Y-95545000I150000J0D01*
G01*
G37*
G36*
G01*
X160251000Y-95545000D02*
X160551000Y-95545000D01*
G75*
G02*
X160701000Y-95695000I0J-150000D01*
G01*
X160701000Y-97345000D01*
G75*
G02*
X160551000Y-97495000I-150000J0D01*
G01*
X160251000Y-97495000D01*
G75*
G02*
X160101000Y-97345000I0J150000D01*
G01*
X160101000Y-95695000D01*
G75*
G02*
X160251000Y-95545000I150000J0D01*
G01*
G37*
G36*
G01*
X158981000Y-95545000D02*
X159281000Y-95545000D01*
G75*
G02*
X159431000Y-95695000I0J-150000D01*
G01*
X159431000Y-97345000D01*
G75*
G02*
X159281000Y-97495000I-150000J0D01*
G01*
X158981000Y-97495000D01*
G75*
G02*
X158831000Y-97345000I0J150000D01*
G01*
X158831000Y-95695000D01*
G75*
G02*
X158981000Y-95545000I150000J0D01*
G01*
G37*
G36*
G01*
X157711000Y-95545000D02*
X158011000Y-95545000D01*
G75*
G02*
X158161000Y-95695000I0J-150000D01*
G01*
X158161000Y-97345000D01*
G75*
G02*
X158011000Y-97495000I-150000J0D01*
G01*
X157711000Y-97495000D01*
G75*
G02*
X157561000Y-97345000I0J150000D01*
G01*
X157561000Y-95695000D01*
G75*
G02*
X157711000Y-95545000I150000J0D01*
G01*
G37*
G36*
G01*
X156441000Y-95545000D02*
X156741000Y-95545000D01*
G75*
G02*
X156891000Y-95695000I0J-150000D01*
G01*
X156891000Y-97345000D01*
G75*
G02*
X156741000Y-97495000I-150000J0D01*
G01*
X156441000Y-97495000D01*
G75*
G02*
X156291000Y-97345000I0J150000D01*
G01*
X156291000Y-95695000D01*
G75*
G02*
X156441000Y-95545000I150000J0D01*
G01*
G37*
G36*
G01*
X140185000Y-96561000D02*
X140485000Y-96561000D01*
G75*
G02*
X140635000Y-96711000I0J-150000D01*
G01*
X140635000Y-98361000D01*
G75*
G02*
X140485000Y-98511000I-150000J0D01*
G01*
X140185000Y-98511000D01*
G75*
G02*
X140035000Y-98361000I0J150000D01*
G01*
X140035000Y-96711000D01*
G75*
G02*
X140185000Y-96561000I150000J0D01*
G01*
G37*
G36*
G01*
X141455000Y-96561000D02*
X141755000Y-96561000D01*
G75*
G02*
X141905000Y-96711000I0J-150000D01*
G01*
X141905000Y-98361000D01*
G75*
G02*
X141755000Y-98511000I-150000J0D01*
G01*
X141455000Y-98511000D01*
G75*
G02*
X141305000Y-98361000I0J150000D01*
G01*
X141305000Y-96711000D01*
G75*
G02*
X141455000Y-96561000I150000J0D01*
G01*
G37*
G36*
G01*
X142725000Y-96561000D02*
X143025000Y-96561000D01*
G75*
G02*
X143175000Y-96711000I0J-150000D01*
G01*
X143175000Y-98361000D01*
G75*
G02*
X143025000Y-98511000I-150000J0D01*
G01*
X142725000Y-98511000D01*
G75*
G02*
X142575000Y-98361000I0J150000D01*
G01*
X142575000Y-96711000D01*
G75*
G02*
X142725000Y-96561000I150000J0D01*
G01*
G37*
G36*
G01*
X143995000Y-96561000D02*
X144295000Y-96561000D01*
G75*
G02*
X144445000Y-96711000I0J-150000D01*
G01*
X144445000Y-98361000D01*
G75*
G02*
X144295000Y-98511000I-150000J0D01*
G01*
X143995000Y-98511000D01*
G75*
G02*
X143845000Y-98361000I0J150000D01*
G01*
X143845000Y-96711000D01*
G75*
G02*
X143995000Y-96561000I150000J0D01*
G01*
G37*
G36*
G01*
X143995000Y-101511000D02*
X144295000Y-101511000D01*
G75*
G02*
X144445000Y-101661000I0J-150000D01*
G01*
X144445000Y-103311000D01*
G75*
G02*
X144295000Y-103461000I-150000J0D01*
G01*
X143995000Y-103461000D01*
G75*
G02*
X143845000Y-103311000I0J150000D01*
G01*
X143845000Y-101661000D01*
G75*
G02*
X143995000Y-101511000I150000J0D01*
G01*
G37*
G36*
G01*
X142725000Y-101511000D02*
X143025000Y-101511000D01*
G75*
G02*
X143175000Y-101661000I0J-150000D01*
G01*
X143175000Y-103311000D01*
G75*
G02*
X143025000Y-103461000I-150000J0D01*
G01*
X142725000Y-103461000D01*
G75*
G02*
X142575000Y-103311000I0J150000D01*
G01*
X142575000Y-101661000D01*
G75*
G02*
X142725000Y-101511000I150000J0D01*
G01*
G37*
G36*
G01*
X141455000Y-101511000D02*
X141755000Y-101511000D01*
G75*
G02*
X141905000Y-101661000I0J-150000D01*
G01*
X141905000Y-103311000D01*
G75*
G02*
X141755000Y-103461000I-150000J0D01*
G01*
X141455000Y-103461000D01*
G75*
G02*
X141305000Y-103311000I0J150000D01*
G01*
X141305000Y-101661000D01*
G75*
G02*
X141455000Y-101511000I150000J0D01*
G01*
G37*
G36*
G01*
X140185000Y-101511000D02*
X140485000Y-101511000D01*
G75*
G02*
X140635000Y-101661000I0J-150000D01*
G01*
X140635000Y-103311000D01*
G75*
G02*
X140485000Y-103461000I-150000J0D01*
G01*
X140185000Y-103461000D01*
G75*
G02*
X140035000Y-103311000I0J150000D01*
G01*
X140035000Y-101661000D01*
G75*
G02*
X140185000Y-101511000I150000J0D01*
G01*
G37*
D18*
X149545000Y-111252000D03*
X150495000Y-111252000D03*
X151445000Y-111252000D03*
X151445000Y-113952000D03*
X149545000Y-113952000D03*
X150495000Y-113952000D03*
D17*
X178816000Y-116139000D03*
X178816000Y-114239000D03*
X181816000Y-115189000D03*
G36*
G01*
X190287000Y-116596000D02*
X190287000Y-117846000D01*
G75*
G02*
X190037000Y-118096000I-250000J0D01*
G01*
X189112000Y-118096000D01*
G75*
G02*
X188862000Y-117846000I0J250000D01*
G01*
X188862000Y-116596000D01*
G75*
G02*
X189112000Y-116346000I250000J0D01*
G01*
X190037000Y-116346000D01*
G75*
G02*
X190287000Y-116596000I0J-250000D01*
G01*
G37*
G36*
G01*
X187312000Y-116596000D02*
X187312000Y-117846000D01*
G75*
G02*
X187062000Y-118096000I-250000J0D01*
G01*
X186137000Y-118096000D01*
G75*
G02*
X185887000Y-117846000I0J250000D01*
G01*
X185887000Y-116596000D01*
G75*
G02*
X186137000Y-116346000I250000J0D01*
G01*
X187062000Y-116346000D01*
G75*
G02*
X187312000Y-116596000I0J-250000D01*
G01*
G37*
G36*
G01*
X188862000Y-113655000D02*
X188862000Y-112405000D01*
G75*
G02*
X189112000Y-112155000I250000J0D01*
G01*
X190037000Y-112155000D01*
G75*
G02*
X190287000Y-112405000I0J-250000D01*
G01*
X190287000Y-113655000D01*
G75*
G02*
X190037000Y-113905000I-250000J0D01*
G01*
X189112000Y-113905000D01*
G75*
G02*
X188862000Y-113655000I0J250000D01*
G01*
G37*
G36*
G01*
X185887000Y-113655000D02*
X185887000Y-112405000D01*
G75*
G02*
X186137000Y-112155000I250000J0D01*
G01*
X187062000Y-112155000D01*
G75*
G02*
X187312000Y-112405000I0J-250000D01*
G01*
X187312000Y-113655000D01*
G75*
G02*
X187062000Y-113905000I-250000J0D01*
G01*
X186137000Y-113905000D01*
G75*
G02*
X185887000Y-113655000I0J250000D01*
G01*
G37*
M02*
