G04 #@! TF.GenerationSoftware,KiCad,Pcbnew,(6.0.0)*
G04 #@! TF.CreationDate,2023-02-09T15:45:20-05:00*
G04 #@! TF.ProjectId,IO Board,494f2042-6f61-4726-942e-6b696361645f,1.5*
G04 #@! TF.SameCoordinates,Original*
G04 #@! TF.FileFunction,AssemblyDrawing,Top*
%FSLAX46Y46*%
G04 Gerber Fmt 4.6, Leading zero omitted, Abs format (unit mm)*
G04 Created by KiCad (PCBNEW (6.0.0)) date 2023-02-09 15:45:20*
%MOMM*%
%LPD*%
G01*
G04 APERTURE LIST*
%ADD10C,0.100000*%
%ADD11C,0.150000*%
%ADD12C,0.300000*%
%ADD13C,0.400000*%
%ADD14C,0.304800*%
%ADD15C,0.075000*%
%ADD16C,0.120000*%
G04 APERTURE END LIST*
D10*
D11*
X159400000Y-171900000D02*
X159400000Y-203900000D01*
X267400000Y-203900000D01*
X267400000Y-171900000D01*
X159400000Y-171900000D01*
D10*
D11*
X10000000Y-10000000D02*
X10000000Y-205900000D01*
X269400000Y-205900000D01*
X269400000Y-10000000D01*
X10000000Y-10000000D01*
D10*
D11*
X12000000Y-12000000D02*
X12000000Y-203900000D01*
X267400000Y-203900000D01*
X267400000Y-12000000D01*
X12000000Y-12000000D01*
D10*
D11*
X60000000Y-12000000D02*
X60000000Y-10000000D01*
D10*
D11*
X110000000Y-12000000D02*
X110000000Y-10000000D01*
D10*
D11*
X160000000Y-12000000D02*
X160000000Y-10000000D01*
D10*
D11*
X210000000Y-12000000D02*
X210000000Y-10000000D01*
D10*
D11*
X260000000Y-12000000D02*
X260000000Y-10000000D01*
D10*
D11*
X36065476Y-11588095D02*
X35322619Y-11588095D01*
X35694047Y-11588095D02*
X35694047Y-10288095D01*
X35570238Y-10473809D01*
X35446428Y-10597619D01*
X35322619Y-10659523D01*
D10*
D11*
X85322619Y-10411904D02*
X85384523Y-10350000D01*
X85508333Y-10288095D01*
X85817857Y-10288095D01*
X85941666Y-10350000D01*
X86003571Y-10411904D01*
X86065476Y-10535714D01*
X86065476Y-10659523D01*
X86003571Y-10845238D01*
X85260714Y-11588095D01*
X86065476Y-11588095D01*
D10*
D11*
X135260714Y-10288095D02*
X136065476Y-10288095D01*
X135632142Y-10783333D01*
X135817857Y-10783333D01*
X135941666Y-10845238D01*
X136003571Y-10907142D01*
X136065476Y-11030952D01*
X136065476Y-11340476D01*
X136003571Y-11464285D01*
X135941666Y-11526190D01*
X135817857Y-11588095D01*
X135446428Y-11588095D01*
X135322619Y-11526190D01*
X135260714Y-11464285D01*
D10*
D11*
X185941666Y-10721428D02*
X185941666Y-11588095D01*
X185632142Y-10226190D02*
X185322619Y-11154761D01*
X186127380Y-11154761D01*
D10*
D11*
X236003571Y-10288095D02*
X235384523Y-10288095D01*
X235322619Y-10907142D01*
X235384523Y-10845238D01*
X235508333Y-10783333D01*
X235817857Y-10783333D01*
X235941666Y-10845238D01*
X236003571Y-10907142D01*
X236065476Y-11030952D01*
X236065476Y-11340476D01*
X236003571Y-11464285D01*
X235941666Y-11526190D01*
X235817857Y-11588095D01*
X235508333Y-11588095D01*
X235384523Y-11526190D01*
X235322619Y-11464285D01*
D10*
D11*
X60000000Y-203900000D02*
X60000000Y-205900000D01*
D10*
D11*
X110000000Y-203900000D02*
X110000000Y-205900000D01*
D10*
D11*
X160000000Y-203900000D02*
X160000000Y-205900000D01*
D10*
D11*
X210000000Y-203900000D02*
X210000000Y-205900000D01*
D10*
D11*
X260000000Y-203900000D02*
X260000000Y-205900000D01*
D10*
D11*
X36065476Y-205488095D02*
X35322619Y-205488095D01*
X35694047Y-205488095D02*
X35694047Y-204188095D01*
X35570238Y-204373809D01*
X35446428Y-204497619D01*
X35322619Y-204559523D01*
D10*
D11*
X85322619Y-204311904D02*
X85384523Y-204250000D01*
X85508333Y-204188095D01*
X85817857Y-204188095D01*
X85941666Y-204250000D01*
X86003571Y-204311904D01*
X86065476Y-204435714D01*
X86065476Y-204559523D01*
X86003571Y-204745238D01*
X85260714Y-205488095D01*
X86065476Y-205488095D01*
D10*
D11*
X135260714Y-204188095D02*
X136065476Y-204188095D01*
X135632142Y-204683333D01*
X135817857Y-204683333D01*
X135941666Y-204745238D01*
X136003571Y-204807142D01*
X136065476Y-204930952D01*
X136065476Y-205240476D01*
X136003571Y-205364285D01*
X135941666Y-205426190D01*
X135817857Y-205488095D01*
X135446428Y-205488095D01*
X135322619Y-205426190D01*
X135260714Y-205364285D01*
D10*
D11*
X185941666Y-204621428D02*
X185941666Y-205488095D01*
X185632142Y-204126190D02*
X185322619Y-205054761D01*
X186127380Y-205054761D01*
D10*
D11*
X236003571Y-204188095D02*
X235384523Y-204188095D01*
X235322619Y-204807142D01*
X235384523Y-204745238D01*
X235508333Y-204683333D01*
X235817857Y-204683333D01*
X235941666Y-204745238D01*
X236003571Y-204807142D01*
X236065476Y-204930952D01*
X236065476Y-205240476D01*
X236003571Y-205364285D01*
X235941666Y-205426190D01*
X235817857Y-205488095D01*
X235508333Y-205488095D01*
X235384523Y-205426190D01*
X235322619Y-205364285D01*
D10*
D11*
X10000000Y-60000000D02*
X12000000Y-60000000D01*
D10*
D11*
X10000000Y-110000000D02*
X12000000Y-110000000D01*
D10*
D11*
X10000000Y-160000000D02*
X12000000Y-160000000D01*
D10*
D11*
X10690476Y-35216666D02*
X11309523Y-35216666D01*
X10566666Y-35588095D02*
X11000000Y-34288095D01*
X11433333Y-35588095D01*
D10*
D11*
X11092857Y-84907142D02*
X11278571Y-84969047D01*
X11340476Y-85030952D01*
X11402380Y-85154761D01*
X11402380Y-85340476D01*
X11340476Y-85464285D01*
X11278571Y-85526190D01*
X11154761Y-85588095D01*
X10659523Y-85588095D01*
X10659523Y-84288095D01*
X11092857Y-84288095D01*
X11216666Y-84350000D01*
X11278571Y-84411904D01*
X11340476Y-84535714D01*
X11340476Y-84659523D01*
X11278571Y-84783333D01*
X11216666Y-84845238D01*
X11092857Y-84907142D01*
X10659523Y-84907142D01*
D10*
D11*
X11402380Y-135464285D02*
X11340476Y-135526190D01*
X11154761Y-135588095D01*
X11030952Y-135588095D01*
X10845238Y-135526190D01*
X10721428Y-135402380D01*
X10659523Y-135278571D01*
X10597619Y-135030952D01*
X10597619Y-134845238D01*
X10659523Y-134597619D01*
X10721428Y-134473809D01*
X10845238Y-134350000D01*
X11030952Y-134288095D01*
X11154761Y-134288095D01*
X11340476Y-134350000D01*
X11402380Y-134411904D01*
D10*
D11*
X10659523Y-185588095D02*
X10659523Y-184288095D01*
X10969047Y-184288095D01*
X11154761Y-184350000D01*
X11278571Y-184473809D01*
X11340476Y-184597619D01*
X11402380Y-184845238D01*
X11402380Y-185030952D01*
X11340476Y-185278571D01*
X11278571Y-185402380D01*
X11154761Y-185526190D01*
X10969047Y-185588095D01*
X10659523Y-185588095D01*
D10*
D11*
X269400000Y-60000000D02*
X267400000Y-60000000D01*
D10*
D11*
X269400000Y-110000000D02*
X267400000Y-110000000D01*
D10*
D11*
X269400000Y-160000000D02*
X267400000Y-160000000D01*
D10*
D11*
X268090476Y-35216666D02*
X268709523Y-35216666D01*
X267966666Y-35588095D02*
X268400000Y-34288095D01*
X268833333Y-35588095D01*
D10*
D11*
X268492857Y-84907142D02*
X268678571Y-84969047D01*
X268740476Y-85030952D01*
X268802380Y-85154761D01*
X268802380Y-85340476D01*
X268740476Y-85464285D01*
X268678571Y-85526190D01*
X268554761Y-85588095D01*
X268059523Y-85588095D01*
X268059523Y-84288095D01*
X268492857Y-84288095D01*
X268616666Y-84350000D01*
X268678571Y-84411904D01*
X268740476Y-84535714D01*
X268740476Y-84659523D01*
X268678571Y-84783333D01*
X268616666Y-84845238D01*
X268492857Y-84907142D01*
X268059523Y-84907142D01*
D10*
D11*
X268802380Y-135464285D02*
X268740476Y-135526190D01*
X268554761Y-135588095D01*
X268430952Y-135588095D01*
X268245238Y-135526190D01*
X268121428Y-135402380D01*
X268059523Y-135278571D01*
X267997619Y-135030952D01*
X267997619Y-134845238D01*
X268059523Y-134597619D01*
X268121428Y-134473809D01*
X268245238Y-134350000D01*
X268430952Y-134288095D01*
X268554761Y-134288095D01*
X268740476Y-134350000D01*
X268802380Y-134411904D01*
D10*
D11*
X268059523Y-185588095D02*
X268059523Y-184288095D01*
X268369047Y-184288095D01*
X268554761Y-184350000D01*
X268678571Y-184473809D01*
X268740476Y-184597619D01*
X268802380Y-184845238D01*
X268802380Y-185030952D01*
X268740476Y-185278571D01*
X268678571Y-185402380D01*
X268554761Y-185526190D01*
X268369047Y-185588095D01*
X268059523Y-185588095D01*
D10*
D11*
X182832142Y-199678571D02*
X182832142Y-198178571D01*
X183189285Y-198178571D01*
X183403571Y-198250000D01*
X183546428Y-198392857D01*
X183617857Y-198535714D01*
X183689285Y-198821428D01*
X183689285Y-199035714D01*
X183617857Y-199321428D01*
X183546428Y-199464285D01*
X183403571Y-199607142D01*
X183189285Y-199678571D01*
X182832142Y-199678571D01*
X184975000Y-199678571D02*
X184975000Y-198892857D01*
X184903571Y-198750000D01*
X184760714Y-198678571D01*
X184475000Y-198678571D01*
X184332142Y-198750000D01*
X184975000Y-199607142D02*
X184832142Y-199678571D01*
X184475000Y-199678571D01*
X184332142Y-199607142D01*
X184260714Y-199464285D01*
X184260714Y-199321428D01*
X184332142Y-199178571D01*
X184475000Y-199107142D01*
X184832142Y-199107142D01*
X184975000Y-199035714D01*
X185475000Y-198678571D02*
X186046428Y-198678571D01*
X185689285Y-198178571D02*
X185689285Y-199464285D01*
X185760714Y-199607142D01*
X185903571Y-199678571D01*
X186046428Y-199678571D01*
X187117857Y-199607142D02*
X186975000Y-199678571D01*
X186689285Y-199678571D01*
X186546428Y-199607142D01*
X186475000Y-199464285D01*
X186475000Y-198892857D01*
X186546428Y-198750000D01*
X186689285Y-198678571D01*
X186975000Y-198678571D01*
X187117857Y-198750000D01*
X187189285Y-198892857D01*
X187189285Y-199035714D01*
X186475000Y-199178571D01*
X187832142Y-199535714D02*
X187903571Y-199607142D01*
X187832142Y-199678571D01*
X187760714Y-199607142D01*
X187832142Y-199535714D01*
X187832142Y-199678571D01*
X187832142Y-198750000D02*
X187903571Y-198821428D01*
X187832142Y-198892857D01*
X187760714Y-198821428D01*
X187832142Y-198750000D01*
X187832142Y-198892857D01*
X189617857Y-198321428D02*
X189689285Y-198250000D01*
X189832142Y-198178571D01*
X190189285Y-198178571D01*
X190332142Y-198250000D01*
X190403571Y-198321428D01*
X190475000Y-198464285D01*
X190475000Y-198607142D01*
X190403571Y-198821428D01*
X189546428Y-199678571D01*
X190475000Y-199678571D01*
X191403571Y-198178571D02*
X191546428Y-198178571D01*
X191689285Y-198250000D01*
X191760714Y-198321428D01*
X191832142Y-198464285D01*
X191903571Y-198750000D01*
X191903571Y-199107142D01*
X191832142Y-199392857D01*
X191760714Y-199535714D01*
X191689285Y-199607142D01*
X191546428Y-199678571D01*
X191403571Y-199678571D01*
X191260714Y-199607142D01*
X191189285Y-199535714D01*
X191117857Y-199392857D01*
X191046428Y-199107142D01*
X191046428Y-198750000D01*
X191117857Y-198464285D01*
X191189285Y-198321428D01*
X191260714Y-198250000D01*
X191403571Y-198178571D01*
X192475000Y-198321428D02*
X192546428Y-198250000D01*
X192689285Y-198178571D01*
X193046428Y-198178571D01*
X193189285Y-198250000D01*
X193260714Y-198321428D01*
X193332142Y-198464285D01*
X193332142Y-198607142D01*
X193260714Y-198821428D01*
X192403571Y-199678571D01*
X193332142Y-199678571D01*
X193903571Y-198321428D02*
X193975000Y-198250000D01*
X194117857Y-198178571D01*
X194475000Y-198178571D01*
X194617857Y-198250000D01*
X194689285Y-198321428D01*
X194760714Y-198464285D01*
X194760714Y-198607142D01*
X194689285Y-198821428D01*
X193832142Y-199678571D01*
X194760714Y-199678571D01*
X195403571Y-199107142D02*
X196546428Y-199107142D01*
X198046428Y-199678571D02*
X197189285Y-199678571D01*
X197617857Y-199678571D02*
X197617857Y-198178571D01*
X197475000Y-198392857D01*
X197332142Y-198535714D01*
X197189285Y-198607142D01*
X198975000Y-198178571D02*
X199117857Y-198178571D01*
X199260714Y-198250000D01*
X199332142Y-198321428D01*
X199403571Y-198464285D01*
X199475000Y-198750000D01*
X199475000Y-199107142D01*
X199403571Y-199392857D01*
X199332142Y-199535714D01*
X199260714Y-199607142D01*
X199117857Y-199678571D01*
X198975000Y-199678571D01*
X198832142Y-199607142D01*
X198760714Y-199535714D01*
X198689285Y-199392857D01*
X198617857Y-199107142D01*
X198617857Y-198750000D01*
X198689285Y-198464285D01*
X198760714Y-198321428D01*
X198832142Y-198250000D01*
X198975000Y-198178571D01*
X200117857Y-199107142D02*
X201260714Y-199107142D01*
X202260714Y-198178571D02*
X202403571Y-198178571D01*
X202546428Y-198250000D01*
X202617857Y-198321428D01*
X202689285Y-198464285D01*
X202760714Y-198750000D01*
X202760714Y-199107142D01*
X202689285Y-199392857D01*
X202617857Y-199535714D01*
X202546428Y-199607142D01*
X202403571Y-199678571D01*
X202260714Y-199678571D01*
X202117857Y-199607142D01*
X202046428Y-199535714D01*
X201975000Y-199392857D01*
X201903571Y-199107142D01*
X201903571Y-198750000D01*
X201975000Y-198464285D01*
X202046428Y-198321428D01*
X202117857Y-198250000D01*
X202260714Y-198178571D01*
X203260714Y-198178571D02*
X204260714Y-198178571D01*
X203617857Y-199678571D01*
D10*
D11*
X159400000Y-200400000D02*
X267400000Y-200400000D01*
D10*
D11*
X160832142Y-202478571D02*
X160832142Y-200978571D01*
X161689285Y-202478571D02*
X161046428Y-201621428D01*
X161689285Y-200978571D02*
X160832142Y-201835714D01*
X162332142Y-202478571D02*
X162332142Y-201478571D01*
X162332142Y-200978571D02*
X162260714Y-201050000D01*
X162332142Y-201121428D01*
X162403571Y-201050000D01*
X162332142Y-200978571D01*
X162332142Y-201121428D01*
X163903571Y-202335714D02*
X163832142Y-202407142D01*
X163617857Y-202478571D01*
X163475000Y-202478571D01*
X163260714Y-202407142D01*
X163117857Y-202264285D01*
X163046428Y-202121428D01*
X162975000Y-201835714D01*
X162975000Y-201621428D01*
X163046428Y-201335714D01*
X163117857Y-201192857D01*
X163260714Y-201050000D01*
X163475000Y-200978571D01*
X163617857Y-200978571D01*
X163832142Y-201050000D01*
X163903571Y-201121428D01*
X165189285Y-202478571D02*
X165189285Y-201692857D01*
X165117857Y-201550000D01*
X164975000Y-201478571D01*
X164689285Y-201478571D01*
X164546428Y-201550000D01*
X165189285Y-202407142D02*
X165046428Y-202478571D01*
X164689285Y-202478571D01*
X164546428Y-202407142D01*
X164475000Y-202264285D01*
X164475000Y-202121428D01*
X164546428Y-201978571D01*
X164689285Y-201907142D01*
X165046428Y-201907142D01*
X165189285Y-201835714D01*
X166546428Y-202478571D02*
X166546428Y-200978571D01*
X166546428Y-202407142D02*
X166403571Y-202478571D01*
X166117857Y-202478571D01*
X165975000Y-202407142D01*
X165903571Y-202335714D01*
X165832142Y-202192857D01*
X165832142Y-201764285D01*
X165903571Y-201621428D01*
X165975000Y-201550000D01*
X166117857Y-201478571D01*
X166403571Y-201478571D01*
X166546428Y-201550000D01*
X168403571Y-201692857D02*
X168903571Y-201692857D01*
X169117857Y-202478571D02*
X168403571Y-202478571D01*
X168403571Y-200978571D01*
X169117857Y-200978571D01*
X169760714Y-202335714D02*
X169832142Y-202407142D01*
X169760714Y-202478571D01*
X169689285Y-202407142D01*
X169760714Y-202335714D01*
X169760714Y-202478571D01*
X170475000Y-202478571D02*
X170475000Y-200978571D01*
X170832142Y-200978571D01*
X171046428Y-201050000D01*
X171189285Y-201192857D01*
X171260714Y-201335714D01*
X171332142Y-201621428D01*
X171332142Y-201835714D01*
X171260714Y-202121428D01*
X171189285Y-202264285D01*
X171046428Y-202407142D01*
X170832142Y-202478571D01*
X170475000Y-202478571D01*
X171975000Y-202335714D02*
X172046428Y-202407142D01*
X171975000Y-202478571D01*
X171903571Y-202407142D01*
X171975000Y-202335714D01*
X171975000Y-202478571D01*
X172617857Y-202050000D02*
X173332142Y-202050000D01*
X172475000Y-202478571D02*
X172975000Y-200978571D01*
X173475000Y-202478571D01*
X173975000Y-202335714D02*
X174046428Y-202407142D01*
X173975000Y-202478571D01*
X173903571Y-202407142D01*
X173975000Y-202335714D01*
X173975000Y-202478571D01*
X176975000Y-202478571D02*
X176975000Y-200978571D01*
X177117857Y-201907142D02*
X177546428Y-202478571D01*
X177546428Y-201478571D02*
X176975000Y-202050000D01*
X178189285Y-202478571D02*
X178189285Y-201478571D01*
X178189285Y-200978571D02*
X178117857Y-201050000D01*
X178189285Y-201121428D01*
X178260714Y-201050000D01*
X178189285Y-200978571D01*
X178189285Y-201121428D01*
X179546428Y-202407142D02*
X179403571Y-202478571D01*
X179117857Y-202478571D01*
X178975000Y-202407142D01*
X178903571Y-202335714D01*
X178832142Y-202192857D01*
X178832142Y-201764285D01*
X178903571Y-201621428D01*
X178975000Y-201550000D01*
X179117857Y-201478571D01*
X179403571Y-201478571D01*
X179546428Y-201550000D01*
X180832142Y-202478571D02*
X180832142Y-201692857D01*
X180760714Y-201550000D01*
X180617857Y-201478571D01*
X180332142Y-201478571D01*
X180189285Y-201550000D01*
X180832142Y-202407142D02*
X180689285Y-202478571D01*
X180332142Y-202478571D01*
X180189285Y-202407142D01*
X180117857Y-202264285D01*
X180117857Y-202121428D01*
X180189285Y-201978571D01*
X180332142Y-201907142D01*
X180689285Y-201907142D01*
X180832142Y-201835714D01*
X182189285Y-202478571D02*
X182189285Y-200978571D01*
X182189285Y-202407142D02*
X182046428Y-202478571D01*
X181760714Y-202478571D01*
X181617857Y-202407142D01*
X181546428Y-202335714D01*
X181475000Y-202192857D01*
X181475000Y-201764285D01*
X181546428Y-201621428D01*
X181617857Y-201550000D01*
X181760714Y-201478571D01*
X182046428Y-201478571D01*
X182189285Y-201550000D01*
X184475000Y-203050000D02*
X184403571Y-202978571D01*
X184260714Y-202764285D01*
X184189285Y-202621428D01*
X184117857Y-202407142D01*
X184046428Y-202050000D01*
X184046428Y-201764285D01*
X184117857Y-201407142D01*
X184189285Y-201192857D01*
X184260714Y-201050000D01*
X184403571Y-200835714D01*
X184475000Y-200764285D01*
X185689285Y-200978571D02*
X185403571Y-200978571D01*
X185260714Y-201050000D01*
X185189285Y-201121428D01*
X185046428Y-201335714D01*
X184975000Y-201621428D01*
X184975000Y-202192857D01*
X185046428Y-202335714D01*
X185117857Y-202407142D01*
X185260714Y-202478571D01*
X185546428Y-202478571D01*
X185689285Y-202407142D01*
X185760714Y-202335714D01*
X185832142Y-202192857D01*
X185832142Y-201835714D01*
X185760714Y-201692857D01*
X185689285Y-201621428D01*
X185546428Y-201550000D01*
X185260714Y-201550000D01*
X185117857Y-201621428D01*
X185046428Y-201692857D01*
X184975000Y-201835714D01*
X186475000Y-202335714D02*
X186546428Y-202407142D01*
X186475000Y-202478571D01*
X186403571Y-202407142D01*
X186475000Y-202335714D01*
X186475000Y-202478571D01*
X187475000Y-200978571D02*
X187617857Y-200978571D01*
X187760714Y-201050000D01*
X187832142Y-201121428D01*
X187903571Y-201264285D01*
X187975000Y-201550000D01*
X187975000Y-201907142D01*
X187903571Y-202192857D01*
X187832142Y-202335714D01*
X187760714Y-202407142D01*
X187617857Y-202478571D01*
X187475000Y-202478571D01*
X187332142Y-202407142D01*
X187260714Y-202335714D01*
X187189285Y-202192857D01*
X187117857Y-201907142D01*
X187117857Y-201550000D01*
X187189285Y-201264285D01*
X187260714Y-201121428D01*
X187332142Y-201050000D01*
X187475000Y-200978571D01*
X188617857Y-202335714D02*
X188689285Y-202407142D01*
X188617857Y-202478571D01*
X188546428Y-202407142D01*
X188617857Y-202335714D01*
X188617857Y-202478571D01*
X189617857Y-200978571D02*
X189760714Y-200978571D01*
X189903571Y-201050000D01*
X189975000Y-201121428D01*
X190046428Y-201264285D01*
X190117857Y-201550000D01*
X190117857Y-201907142D01*
X190046428Y-202192857D01*
X189975000Y-202335714D01*
X189903571Y-202407142D01*
X189760714Y-202478571D01*
X189617857Y-202478571D01*
X189475000Y-202407142D01*
X189403571Y-202335714D01*
X189332142Y-202192857D01*
X189260714Y-201907142D01*
X189260714Y-201550000D01*
X189332142Y-201264285D01*
X189403571Y-201121428D01*
X189475000Y-201050000D01*
X189617857Y-200978571D01*
X190617857Y-203050000D02*
X190689285Y-202978571D01*
X190832142Y-202764285D01*
X190903571Y-202621428D01*
X190975000Y-202407142D01*
X191046428Y-202050000D01*
X191046428Y-201764285D01*
X190975000Y-201407142D01*
X190903571Y-201192857D01*
X190832142Y-201050000D01*
X190689285Y-200835714D01*
X190617857Y-200764285D01*
D10*
D11*
X159400000Y-197400000D02*
X267400000Y-197400000D01*
D10*
D12*
X246809285Y-199678571D02*
X246309285Y-198964285D01*
X245952142Y-199678571D02*
X245952142Y-198178571D01*
X246523571Y-198178571D01*
X246666428Y-198250000D01*
X246737857Y-198321428D01*
X246809285Y-198464285D01*
X246809285Y-198678571D01*
X246737857Y-198821428D01*
X246666428Y-198892857D01*
X246523571Y-198964285D01*
X245952142Y-198964285D01*
X248023571Y-199607142D02*
X247880714Y-199678571D01*
X247595000Y-199678571D01*
X247452142Y-199607142D01*
X247380714Y-199464285D01*
X247380714Y-198892857D01*
X247452142Y-198750000D01*
X247595000Y-198678571D01*
X247880714Y-198678571D01*
X248023571Y-198750000D01*
X248095000Y-198892857D01*
X248095000Y-199035714D01*
X247380714Y-199178571D01*
X248595000Y-198678571D02*
X248952142Y-199678571D01*
X249309285Y-198678571D01*
X249880714Y-199535714D02*
X249952142Y-199607142D01*
X249880714Y-199678571D01*
X249809285Y-199607142D01*
X249880714Y-199535714D01*
X249880714Y-199678571D01*
X249880714Y-198750000D02*
X249952142Y-198821428D01*
X249880714Y-198892857D01*
X249809285Y-198821428D01*
X249880714Y-198750000D01*
X249880714Y-198892857D01*
X252523571Y-199678571D02*
X251666428Y-199678571D01*
X252095000Y-199678571D02*
X252095000Y-198178571D01*
X251952142Y-198392857D01*
X251809285Y-198535714D01*
X251666428Y-198607142D01*
X253166428Y-199535714D02*
X253237857Y-199607142D01*
X253166428Y-199678571D01*
X253095000Y-199607142D01*
X253166428Y-199535714D01*
X253166428Y-199678571D01*
X254595000Y-198178571D02*
X253880714Y-198178571D01*
X253809285Y-198892857D01*
X253880714Y-198821428D01*
X254023571Y-198750000D01*
X254380714Y-198750000D01*
X254523571Y-198821428D01*
X254595000Y-198892857D01*
X254666428Y-199035714D01*
X254666428Y-199392857D01*
X254595000Y-199535714D01*
X254523571Y-199607142D01*
X254380714Y-199678571D01*
X254023571Y-199678571D01*
X253880714Y-199607142D01*
X253809285Y-199535714D01*
D10*
D11*
X160760714Y-199607142D02*
X160975000Y-199678571D01*
X161332142Y-199678571D01*
X161475000Y-199607142D01*
X161546428Y-199535714D01*
X161617857Y-199392857D01*
X161617857Y-199250000D01*
X161546428Y-199107142D01*
X161475000Y-199035714D01*
X161332142Y-198964285D01*
X161046428Y-198892857D01*
X160903571Y-198821428D01*
X160832142Y-198750000D01*
X160760714Y-198607142D01*
X160760714Y-198464285D01*
X160832142Y-198321428D01*
X160903571Y-198250000D01*
X161046428Y-198178571D01*
X161403571Y-198178571D01*
X161617857Y-198250000D01*
X162260714Y-199678571D02*
X162260714Y-198678571D01*
X162260714Y-198178571D02*
X162189285Y-198250000D01*
X162260714Y-198321428D01*
X162332142Y-198250000D01*
X162260714Y-198178571D01*
X162260714Y-198321428D01*
X162832142Y-198678571D02*
X163617857Y-198678571D01*
X162832142Y-199678571D01*
X163617857Y-199678571D01*
X164760714Y-199607142D02*
X164617857Y-199678571D01*
X164332142Y-199678571D01*
X164189285Y-199607142D01*
X164117857Y-199464285D01*
X164117857Y-198892857D01*
X164189285Y-198750000D01*
X164332142Y-198678571D01*
X164617857Y-198678571D01*
X164760714Y-198750000D01*
X164832142Y-198892857D01*
X164832142Y-199035714D01*
X164117857Y-199178571D01*
X165475000Y-199535714D02*
X165546428Y-199607142D01*
X165475000Y-199678571D01*
X165403571Y-199607142D01*
X165475000Y-199535714D01*
X165475000Y-199678571D01*
X165475000Y-198750000D02*
X165546428Y-198821428D01*
X165475000Y-198892857D01*
X165403571Y-198821428D01*
X165475000Y-198750000D01*
X165475000Y-198892857D01*
X167332142Y-198178571D02*
X167332142Y-199392857D01*
X167403571Y-199535714D01*
X167475000Y-199607142D01*
X167617857Y-199678571D01*
X167903571Y-199678571D01*
X168046428Y-199607142D01*
X168117857Y-199535714D01*
X168189285Y-199392857D01*
X168189285Y-198178571D01*
X168832142Y-199607142D02*
X169046428Y-199678571D01*
X169403571Y-199678571D01*
X169546428Y-199607142D01*
X169617857Y-199535714D01*
X169689285Y-199392857D01*
X169689285Y-199250000D01*
X169617857Y-199107142D01*
X169546428Y-199035714D01*
X169403571Y-198964285D01*
X169117857Y-198892857D01*
X168975000Y-198821428D01*
X168903571Y-198750000D01*
X168832142Y-198607142D01*
X168832142Y-198464285D01*
X168903571Y-198321428D01*
X168975000Y-198250000D01*
X169117857Y-198178571D01*
X169475000Y-198178571D01*
X169689285Y-198250000D01*
X171046428Y-199678571D02*
X170332142Y-199678571D01*
X170332142Y-198178571D01*
X172117857Y-199607142D02*
X171975000Y-199678571D01*
X171689285Y-199678571D01*
X171546428Y-199607142D01*
X171475000Y-199464285D01*
X171475000Y-198892857D01*
X171546428Y-198750000D01*
X171689285Y-198678571D01*
X171975000Y-198678571D01*
X172117857Y-198750000D01*
X172189285Y-198892857D01*
X172189285Y-199035714D01*
X171475000Y-199178571D01*
X172617857Y-198678571D02*
X173189285Y-198678571D01*
X172832142Y-198178571D02*
X172832142Y-199464285D01*
X172903571Y-199607142D01*
X173046428Y-199678571D01*
X173189285Y-199678571D01*
X173475000Y-198678571D02*
X174046428Y-198678571D01*
X173689285Y-198178571D02*
X173689285Y-199464285D01*
X173760714Y-199607142D01*
X173903571Y-199678571D01*
X174046428Y-199678571D01*
X175117857Y-199607142D02*
X174975000Y-199678571D01*
X174689285Y-199678571D01*
X174546428Y-199607142D01*
X174475000Y-199464285D01*
X174475000Y-198892857D01*
X174546428Y-198750000D01*
X174689285Y-198678571D01*
X174975000Y-198678571D01*
X175117857Y-198750000D01*
X175189285Y-198892857D01*
X175189285Y-199035714D01*
X174475000Y-199178571D01*
X175832142Y-199678571D02*
X175832142Y-198678571D01*
X175832142Y-198964285D02*
X175903571Y-198821428D01*
X175975000Y-198750000D01*
X176117857Y-198678571D01*
X176260714Y-198678571D01*
D10*
D11*
X245832142Y-202478571D02*
X245832142Y-200978571D01*
X247189285Y-202478571D02*
X247189285Y-200978571D01*
X247189285Y-202407142D02*
X247046428Y-202478571D01*
X246760714Y-202478571D01*
X246617857Y-202407142D01*
X246546428Y-202335714D01*
X246475000Y-202192857D01*
X246475000Y-201764285D01*
X246546428Y-201621428D01*
X246617857Y-201550000D01*
X246760714Y-201478571D01*
X247046428Y-201478571D01*
X247189285Y-201550000D01*
X247903571Y-202335714D02*
X247975000Y-202407142D01*
X247903571Y-202478571D01*
X247832142Y-202407142D01*
X247903571Y-202335714D01*
X247903571Y-202478571D01*
X247903571Y-201550000D02*
X247975000Y-201621428D01*
X247903571Y-201692857D01*
X247832142Y-201621428D01*
X247903571Y-201550000D01*
X247903571Y-201692857D01*
X250546428Y-202478571D02*
X249689285Y-202478571D01*
X250117857Y-202478571D02*
X250117857Y-200978571D01*
X249975000Y-201192857D01*
X249832142Y-201335714D01*
X249689285Y-201407142D01*
X252260714Y-200907142D02*
X250975000Y-202835714D01*
X253546428Y-202478571D02*
X252689285Y-202478571D01*
X253117857Y-202478571D02*
X253117857Y-200978571D01*
X252975000Y-201192857D01*
X252832142Y-201335714D01*
X252689285Y-201407142D01*
D10*
D11*
X159400000Y-193400000D02*
X267400000Y-193400000D01*
D10*
D13*
X161112380Y-194104761D02*
X162255238Y-194104761D01*
X161433809Y-196104761D02*
X161683809Y-194104761D01*
X162671904Y-196104761D02*
X162838571Y-194771428D01*
X162921904Y-194104761D02*
X162814761Y-194200000D01*
X162898095Y-194295238D01*
X163005238Y-194200000D01*
X162921904Y-194104761D01*
X162898095Y-194295238D01*
X163505238Y-194771428D02*
X164267142Y-194771428D01*
X163874285Y-194104761D02*
X163660000Y-195819047D01*
X163731428Y-196009523D01*
X163910000Y-196104761D01*
X164100476Y-196104761D01*
X165052857Y-196104761D02*
X164874285Y-196009523D01*
X164802857Y-195819047D01*
X165017142Y-194104761D01*
X166588571Y-196009523D02*
X166386190Y-196104761D01*
X166005238Y-196104761D01*
X165826666Y-196009523D01*
X165755238Y-195819047D01*
X165850476Y-195057142D01*
X165969523Y-194866666D01*
X166171904Y-194771428D01*
X166552857Y-194771428D01*
X166731428Y-194866666D01*
X166802857Y-195057142D01*
X166779047Y-195247619D01*
X165802857Y-195438095D01*
X167552857Y-195914285D02*
X167636190Y-196009523D01*
X167529047Y-196104761D01*
X167445714Y-196009523D01*
X167552857Y-195914285D01*
X167529047Y-196104761D01*
X167683809Y-194866666D02*
X167767142Y-194961904D01*
X167660000Y-195057142D01*
X167576666Y-194961904D01*
X167683809Y-194866666D01*
X167660000Y-195057142D01*
X170005238Y-196104761D02*
X170255238Y-194104761D01*
X172648095Y-194009523D02*
X170612380Y-196580952D01*
X173683809Y-194104761D02*
X174064761Y-194104761D01*
X174243333Y-194200000D01*
X174410000Y-194390476D01*
X174457619Y-194771428D01*
X174374285Y-195438095D01*
X174231428Y-195819047D01*
X174017142Y-196009523D01*
X173814761Y-196104761D01*
X173433809Y-196104761D01*
X173255238Y-196009523D01*
X173088571Y-195819047D01*
X173040952Y-195438095D01*
X173124285Y-194771428D01*
X173267142Y-194390476D01*
X173481428Y-194200000D01*
X173683809Y-194104761D01*
X177469523Y-195057142D02*
X177743333Y-195152380D01*
X177826666Y-195247619D01*
X177898095Y-195438095D01*
X177862380Y-195723809D01*
X177743333Y-195914285D01*
X177636190Y-196009523D01*
X177433809Y-196104761D01*
X176671904Y-196104761D01*
X176921904Y-194104761D01*
X177588571Y-194104761D01*
X177767142Y-194200000D01*
X177850476Y-194295238D01*
X177921904Y-194485714D01*
X177898095Y-194676190D01*
X177779047Y-194866666D01*
X177671904Y-194961904D01*
X177469523Y-195057142D01*
X176802857Y-195057142D01*
X178957619Y-196104761D02*
X178779047Y-196009523D01*
X178695714Y-195914285D01*
X178624285Y-195723809D01*
X178695714Y-195152380D01*
X178814761Y-194961904D01*
X178921904Y-194866666D01*
X179124285Y-194771428D01*
X179410000Y-194771428D01*
X179588571Y-194866666D01*
X179671904Y-194961904D01*
X179743333Y-195152380D01*
X179671904Y-195723809D01*
X179552857Y-195914285D01*
X179445714Y-196009523D01*
X179243333Y-196104761D01*
X178957619Y-196104761D01*
X181338571Y-196104761D02*
X181469523Y-195057142D01*
X181398095Y-194866666D01*
X181219523Y-194771428D01*
X180838571Y-194771428D01*
X180636190Y-194866666D01*
X181350476Y-196009523D02*
X181148095Y-196104761D01*
X180671904Y-196104761D01*
X180493333Y-196009523D01*
X180421904Y-195819047D01*
X180445714Y-195628571D01*
X180564761Y-195438095D01*
X180767142Y-195342857D01*
X181243333Y-195342857D01*
X181445714Y-195247619D01*
X182290952Y-196104761D02*
X182457619Y-194771428D01*
X182410000Y-195152380D02*
X182529047Y-194961904D01*
X182636190Y-194866666D01*
X182838571Y-194771428D01*
X183029047Y-194771428D01*
X184386190Y-196104761D02*
X184636190Y-194104761D01*
X184398095Y-196009523D02*
X184195714Y-196104761D01*
X183814761Y-196104761D01*
X183636190Y-196009523D01*
X183552857Y-195914285D01*
X183481428Y-195723809D01*
X183552857Y-195152380D01*
X183671904Y-194961904D01*
X183779047Y-194866666D01*
X183981428Y-194771428D01*
X184362380Y-194771428D01*
X184540952Y-194866666D01*
X187814761Y-196104761D02*
X186862380Y-196104761D01*
X187112380Y-194104761D01*
X189338571Y-196104761D02*
X189469523Y-195057142D01*
X189398095Y-194866666D01*
X189219523Y-194771428D01*
X188838571Y-194771428D01*
X188636190Y-194866666D01*
X189350476Y-196009523D02*
X189148095Y-196104761D01*
X188671904Y-196104761D01*
X188493333Y-196009523D01*
X188421904Y-195819047D01*
X188445714Y-195628571D01*
X188564761Y-195438095D01*
X188767142Y-195342857D01*
X189243333Y-195342857D01*
X189445714Y-195247619D01*
X190267142Y-194771428D02*
X190576666Y-196104761D01*
X191219523Y-194771428D02*
X190576666Y-196104761D01*
X190326666Y-196580952D01*
X190219523Y-196676190D01*
X190017142Y-196771428D01*
X192100476Y-196104761D02*
X191921904Y-196009523D01*
X191838571Y-195914285D01*
X191767142Y-195723809D01*
X191838571Y-195152380D01*
X191957619Y-194961904D01*
X192064761Y-194866666D01*
X192267142Y-194771428D01*
X192552857Y-194771428D01*
X192731428Y-194866666D01*
X192814761Y-194961904D01*
X192886190Y-195152380D01*
X192814761Y-195723809D01*
X192695714Y-195914285D01*
X192588571Y-196009523D01*
X192386190Y-196104761D01*
X192100476Y-196104761D01*
X194648095Y-194771428D02*
X194481428Y-196104761D01*
X193790952Y-194771428D02*
X193660000Y-195819047D01*
X193731428Y-196009523D01*
X193910000Y-196104761D01*
X194195714Y-196104761D01*
X194398095Y-196009523D01*
X194505238Y-195914285D01*
X195314761Y-194771428D02*
X196076666Y-194771428D01*
X195683809Y-194104761D02*
X195469523Y-195819047D01*
X195540952Y-196009523D01*
X195719523Y-196104761D01*
X195910000Y-196104761D01*
D10*
D11*
X161332142Y-191492857D02*
X160832142Y-191492857D01*
X160832142Y-192278571D02*
X160832142Y-190778571D01*
X161546428Y-190778571D01*
X162117857Y-192278571D02*
X162117857Y-191278571D01*
X162117857Y-190778571D02*
X162046428Y-190850000D01*
X162117857Y-190921428D01*
X162189285Y-190850000D01*
X162117857Y-190778571D01*
X162117857Y-190921428D01*
X163046428Y-192278571D02*
X162903571Y-192207142D01*
X162832142Y-192064285D01*
X162832142Y-190778571D01*
X164189285Y-192207142D02*
X164046428Y-192278571D01*
X163760714Y-192278571D01*
X163617857Y-192207142D01*
X163546428Y-192064285D01*
X163546428Y-191492857D01*
X163617857Y-191350000D01*
X163760714Y-191278571D01*
X164046428Y-191278571D01*
X164189285Y-191350000D01*
X164260714Y-191492857D01*
X164260714Y-191635714D01*
X163546428Y-191778571D01*
X164903571Y-192135714D02*
X164975000Y-192207142D01*
X164903571Y-192278571D01*
X164832142Y-192207142D01*
X164903571Y-192135714D01*
X164903571Y-192278571D01*
X164903571Y-191350000D02*
X164975000Y-191421428D01*
X164903571Y-191492857D01*
X164832142Y-191421428D01*
X164903571Y-191350000D01*
X164903571Y-191492857D01*
X166760714Y-192278571D02*
X166760714Y-190778571D01*
X167760714Y-190778571D02*
X168046428Y-190778571D01*
X168189285Y-190850000D01*
X168332142Y-190992857D01*
X168403571Y-191278571D01*
X168403571Y-191778571D01*
X168332142Y-192064285D01*
X168189285Y-192207142D01*
X168046428Y-192278571D01*
X167760714Y-192278571D01*
X167617857Y-192207142D01*
X167475000Y-192064285D01*
X167403571Y-191778571D01*
X167403571Y-191278571D01*
X167475000Y-190992857D01*
X167617857Y-190850000D01*
X167760714Y-190778571D01*
X170689285Y-191492857D02*
X170903571Y-191564285D01*
X170975000Y-191635714D01*
X171046428Y-191778571D01*
X171046428Y-191992857D01*
X170975000Y-192135714D01*
X170903571Y-192207142D01*
X170760714Y-192278571D01*
X170189285Y-192278571D01*
X170189285Y-190778571D01*
X170689285Y-190778571D01*
X170832142Y-190850000D01*
X170903571Y-190921428D01*
X170975000Y-191064285D01*
X170975000Y-191207142D01*
X170903571Y-191350000D01*
X170832142Y-191421428D01*
X170689285Y-191492857D01*
X170189285Y-191492857D01*
X171903571Y-192278571D02*
X171760714Y-192207142D01*
X171689285Y-192135714D01*
X171617857Y-191992857D01*
X171617857Y-191564285D01*
X171689285Y-191421428D01*
X171760714Y-191350000D01*
X171903571Y-191278571D01*
X172117857Y-191278571D01*
X172260714Y-191350000D01*
X172332142Y-191421428D01*
X172403571Y-191564285D01*
X172403571Y-191992857D01*
X172332142Y-192135714D01*
X172260714Y-192207142D01*
X172117857Y-192278571D01*
X171903571Y-192278571D01*
X173689285Y-192278571D02*
X173689285Y-191492857D01*
X173617857Y-191350000D01*
X173475000Y-191278571D01*
X173189285Y-191278571D01*
X173046428Y-191350000D01*
X173689285Y-192207142D02*
X173546428Y-192278571D01*
X173189285Y-192278571D01*
X173046428Y-192207142D01*
X172975000Y-192064285D01*
X172975000Y-191921428D01*
X173046428Y-191778571D01*
X173189285Y-191707142D01*
X173546428Y-191707142D01*
X173689285Y-191635714D01*
X174403571Y-192278571D02*
X174403571Y-191278571D01*
X174403571Y-191564285D02*
X174475000Y-191421428D01*
X174546428Y-191350000D01*
X174689285Y-191278571D01*
X174832142Y-191278571D01*
X175975000Y-192278571D02*
X175975000Y-190778571D01*
X175975000Y-192207142D02*
X175832142Y-192278571D01*
X175546428Y-192278571D01*
X175403571Y-192207142D01*
X175332142Y-192135714D01*
X175260714Y-191992857D01*
X175260714Y-191564285D01*
X175332142Y-191421428D01*
X175403571Y-191350000D01*
X175546428Y-191278571D01*
X175832142Y-191278571D01*
X175975000Y-191350000D01*
X176689285Y-192135714D02*
X176760714Y-192207142D01*
X176689285Y-192278571D01*
X176617857Y-192207142D01*
X176689285Y-192135714D01*
X176689285Y-192278571D01*
X177403571Y-192278571D02*
X177403571Y-190778571D01*
X177546428Y-191707142D02*
X177975000Y-192278571D01*
X177975000Y-191278571D02*
X177403571Y-191850000D01*
X178617857Y-192278571D02*
X178617857Y-191278571D01*
X178617857Y-190778571D02*
X178546428Y-190850000D01*
X178617857Y-190921428D01*
X178689285Y-190850000D01*
X178617857Y-190778571D01*
X178617857Y-190921428D01*
X179975000Y-192207142D02*
X179832142Y-192278571D01*
X179546428Y-192278571D01*
X179403571Y-192207142D01*
X179332142Y-192135714D01*
X179260714Y-191992857D01*
X179260714Y-191564285D01*
X179332142Y-191421428D01*
X179403571Y-191350000D01*
X179546428Y-191278571D01*
X179832142Y-191278571D01*
X179975000Y-191350000D01*
X181260714Y-192278571D02*
X181260714Y-191492857D01*
X181189285Y-191350000D01*
X181046428Y-191278571D01*
X180760714Y-191278571D01*
X180617857Y-191350000D01*
X181260714Y-192207142D02*
X181117857Y-192278571D01*
X180760714Y-192278571D01*
X180617857Y-192207142D01*
X180546428Y-192064285D01*
X180546428Y-191921428D01*
X180617857Y-191778571D01*
X180760714Y-191707142D01*
X181117857Y-191707142D01*
X181260714Y-191635714D01*
X182617857Y-192278571D02*
X182617857Y-190778571D01*
X182617857Y-192207142D02*
X182475000Y-192278571D01*
X182189285Y-192278571D01*
X182046428Y-192207142D01*
X181975000Y-192135714D01*
X181903571Y-191992857D01*
X181903571Y-191564285D01*
X181975000Y-191421428D01*
X182046428Y-191350000D01*
X182189285Y-191278571D01*
X182475000Y-191278571D01*
X182617857Y-191350000D01*
X182975000Y-192421428D02*
X184117857Y-192421428D01*
X184475000Y-191278571D02*
X184475000Y-192778571D01*
X184475000Y-191350000D02*
X184617857Y-191278571D01*
X184903571Y-191278571D01*
X185046428Y-191350000D01*
X185117857Y-191421428D01*
X185189285Y-191564285D01*
X185189285Y-191992857D01*
X185117857Y-192135714D01*
X185046428Y-192207142D01*
X184903571Y-192278571D01*
X184617857Y-192278571D01*
X184475000Y-192207142D01*
X186475000Y-192207142D02*
X186332142Y-192278571D01*
X186046428Y-192278571D01*
X185903571Y-192207142D01*
X185832142Y-192135714D01*
X185760714Y-191992857D01*
X185760714Y-191564285D01*
X185832142Y-191421428D01*
X185903571Y-191350000D01*
X186046428Y-191278571D01*
X186332142Y-191278571D01*
X186475000Y-191350000D01*
X187117857Y-192278571D02*
X187117857Y-190778571D01*
X187117857Y-191350000D02*
X187260714Y-191278571D01*
X187546428Y-191278571D01*
X187689285Y-191350000D01*
X187760714Y-191421428D01*
X187832142Y-191564285D01*
X187832142Y-191992857D01*
X187760714Y-192135714D01*
X187689285Y-192207142D01*
X187546428Y-192278571D01*
X187260714Y-192278571D01*
X187117857Y-192207142D01*
D10*
D11*
X159400000Y-187400000D02*
X267400000Y-187400000D01*
D10*
D11*
X160760714Y-189507142D02*
X160975000Y-189578571D01*
X161332142Y-189578571D01*
X161475000Y-189507142D01*
X161546428Y-189435714D01*
X161617857Y-189292857D01*
X161617857Y-189150000D01*
X161546428Y-189007142D01*
X161475000Y-188935714D01*
X161332142Y-188864285D01*
X161046428Y-188792857D01*
X160903571Y-188721428D01*
X160832142Y-188650000D01*
X160760714Y-188507142D01*
X160760714Y-188364285D01*
X160832142Y-188221428D01*
X160903571Y-188150000D01*
X161046428Y-188078571D01*
X161403571Y-188078571D01*
X161617857Y-188150000D01*
X162260714Y-189578571D02*
X162260714Y-188078571D01*
X162903571Y-189578571D02*
X162903571Y-188792857D01*
X162832142Y-188650000D01*
X162689285Y-188578571D01*
X162475000Y-188578571D01*
X162332142Y-188650000D01*
X162260714Y-188721428D01*
X164189285Y-189507142D02*
X164046428Y-189578571D01*
X163760714Y-189578571D01*
X163617857Y-189507142D01*
X163546428Y-189364285D01*
X163546428Y-188792857D01*
X163617857Y-188650000D01*
X163760714Y-188578571D01*
X164046428Y-188578571D01*
X164189285Y-188650000D01*
X164260714Y-188792857D01*
X164260714Y-188935714D01*
X163546428Y-189078571D01*
X165475000Y-189507142D02*
X165332142Y-189578571D01*
X165046428Y-189578571D01*
X164903571Y-189507142D01*
X164832142Y-189364285D01*
X164832142Y-188792857D01*
X164903571Y-188650000D01*
X165046428Y-188578571D01*
X165332142Y-188578571D01*
X165475000Y-188650000D01*
X165546428Y-188792857D01*
X165546428Y-188935714D01*
X164832142Y-189078571D01*
X165975000Y-188578571D02*
X166546428Y-188578571D01*
X166189285Y-188078571D02*
X166189285Y-189364285D01*
X166260714Y-189507142D01*
X166403571Y-189578571D01*
X166546428Y-189578571D01*
X167046428Y-189435714D02*
X167117857Y-189507142D01*
X167046428Y-189578571D01*
X166975000Y-189507142D01*
X167046428Y-189435714D01*
X167046428Y-189578571D01*
X167046428Y-188650000D02*
X167117857Y-188721428D01*
X167046428Y-188792857D01*
X166975000Y-188721428D01*
X167046428Y-188650000D01*
X167046428Y-188792857D01*
D10*
D12*
D10*
D11*
D10*
D11*
D10*
D11*
D10*
D11*
D10*
D11*
X179400000Y-197400000D02*
X179400000Y-200400000D01*
D10*
D11*
X243400000Y-197400000D02*
X243400000Y-203900000D01*
D12*
X200450142Y-114787071D02*
X200450142Y-113287071D01*
X202235857Y-113215642D02*
X200950142Y-115144214D01*
X203021571Y-113287071D02*
X203307285Y-113287071D01*
X203450142Y-113358500D01*
X203593000Y-113501357D01*
X203664428Y-113787071D01*
X203664428Y-114287071D01*
X203593000Y-114572785D01*
X203450142Y-114715642D01*
X203307285Y-114787071D01*
X203021571Y-114787071D01*
X202878714Y-114715642D01*
X202735857Y-114572785D01*
X202664428Y-114287071D01*
X202664428Y-113787071D01*
X202735857Y-113501357D01*
X202878714Y-113358500D01*
X203021571Y-113287071D01*
X205950142Y-114001357D02*
X206164428Y-114072785D01*
X206235857Y-114144214D01*
X206307285Y-114287071D01*
X206307285Y-114501357D01*
X206235857Y-114644214D01*
X206164428Y-114715642D01*
X206021571Y-114787071D01*
X205450142Y-114787071D01*
X205450142Y-113287071D01*
X205950142Y-113287071D01*
X206093000Y-113358500D01*
X206164428Y-113429928D01*
X206235857Y-113572785D01*
X206235857Y-113715642D01*
X206164428Y-113858500D01*
X206093000Y-113929928D01*
X205950142Y-114001357D01*
X205450142Y-114001357D01*
X207164428Y-114787071D02*
X207021571Y-114715642D01*
X206950142Y-114644214D01*
X206878714Y-114501357D01*
X206878714Y-114072785D01*
X206950142Y-113929928D01*
X207021571Y-113858500D01*
X207164428Y-113787071D01*
X207378714Y-113787071D01*
X207521571Y-113858500D01*
X207593000Y-113929928D01*
X207664428Y-114072785D01*
X207664428Y-114501357D01*
X207593000Y-114644214D01*
X207521571Y-114715642D01*
X207378714Y-114787071D01*
X207164428Y-114787071D01*
X208950142Y-114787071D02*
X208950142Y-114001357D01*
X208878714Y-113858500D01*
X208735857Y-113787071D01*
X208450142Y-113787071D01*
X208307285Y-113858500D01*
X208950142Y-114715642D02*
X208807285Y-114787071D01*
X208450142Y-114787071D01*
X208307285Y-114715642D01*
X208235857Y-114572785D01*
X208235857Y-114429928D01*
X208307285Y-114287071D01*
X208450142Y-114215642D01*
X208807285Y-114215642D01*
X208950142Y-114144214D01*
X209664428Y-114787071D02*
X209664428Y-113787071D01*
X209664428Y-114072785D02*
X209735857Y-113929928D01*
X209807285Y-113858500D01*
X209950142Y-113787071D01*
X210093000Y-113787071D01*
X211235857Y-114787071D02*
X211235857Y-113287071D01*
X211235857Y-114715642D02*
X211093000Y-114787071D01*
X210807285Y-114787071D01*
X210664428Y-114715642D01*
X210593000Y-114644214D01*
X210521571Y-114501357D01*
X210521571Y-114072785D01*
X210593000Y-113929928D01*
X210664428Y-113858500D01*
X210807285Y-113787071D01*
X211093000Y-113787071D01*
X211235857Y-113858500D01*
X200235857Y-115702071D02*
X201093000Y-115702071D01*
X200664428Y-117202071D02*
X200664428Y-115702071D01*
X201807285Y-117202071D02*
X201664428Y-117130642D01*
X201593000Y-117059214D01*
X201521571Y-116916357D01*
X201521571Y-116487785D01*
X201593000Y-116344928D01*
X201664428Y-116273500D01*
X201807285Y-116202071D01*
X202021571Y-116202071D01*
X202164428Y-116273500D01*
X202235857Y-116344928D01*
X202307285Y-116487785D01*
X202307285Y-116916357D01*
X202235857Y-117059214D01*
X202164428Y-117130642D01*
X202021571Y-117202071D01*
X201807285Y-117202071D01*
X202950142Y-116202071D02*
X202950142Y-117702071D01*
X202950142Y-116273500D02*
X203093000Y-116202071D01*
X203378714Y-116202071D01*
X203521571Y-116273500D01*
X203593000Y-116344928D01*
X203664428Y-116487785D01*
X203664428Y-116916357D01*
X203593000Y-117059214D01*
X203521571Y-117130642D01*
X203378714Y-117202071D01*
X203093000Y-117202071D01*
X202950142Y-117130642D01*
X205950142Y-116416357D02*
X205450142Y-116416357D01*
X205450142Y-117202071D02*
X205450142Y-115702071D01*
X206164428Y-115702071D01*
X207378714Y-117202071D02*
X207378714Y-116416357D01*
X207307285Y-116273500D01*
X207164428Y-116202071D01*
X206878714Y-116202071D01*
X206735857Y-116273500D01*
X207378714Y-117130642D02*
X207235857Y-117202071D01*
X206878714Y-117202071D01*
X206735857Y-117130642D01*
X206664428Y-116987785D01*
X206664428Y-116844928D01*
X206735857Y-116702071D01*
X206878714Y-116630642D01*
X207235857Y-116630642D01*
X207378714Y-116559214D01*
X208093000Y-117202071D02*
X208093000Y-115702071D01*
X208093000Y-116273500D02*
X208235857Y-116202071D01*
X208521571Y-116202071D01*
X208664428Y-116273500D01*
X208735857Y-116344928D01*
X208807285Y-116487785D01*
X208807285Y-116916357D01*
X208735857Y-117059214D01*
X208664428Y-117130642D01*
X208521571Y-117202071D01*
X208235857Y-117202071D01*
X208093000Y-117130642D01*
X209450142Y-117202071D02*
X209450142Y-116202071D01*
X209450142Y-116487785D02*
X209521571Y-116344928D01*
X209593000Y-116273500D01*
X209735857Y-116202071D01*
X209878714Y-116202071D01*
X210378714Y-117202071D02*
X210378714Y-116202071D01*
X210378714Y-115702071D02*
X210307285Y-115773500D01*
X210378714Y-115844928D01*
X210450142Y-115773500D01*
X210378714Y-115702071D01*
X210378714Y-115844928D01*
X211735857Y-117130642D02*
X211593000Y-117202071D01*
X211307285Y-117202071D01*
X211164428Y-117130642D01*
X211093000Y-117059214D01*
X211021571Y-116916357D01*
X211021571Y-116487785D01*
X211093000Y-116344928D01*
X211164428Y-116273500D01*
X211307285Y-116202071D01*
X211593000Y-116202071D01*
X211735857Y-116273500D01*
X213021571Y-117202071D02*
X213021571Y-116416357D01*
X212950142Y-116273500D01*
X212807285Y-116202071D01*
X212521571Y-116202071D01*
X212378714Y-116273500D01*
X213021571Y-117130642D02*
X212878714Y-117202071D01*
X212521571Y-117202071D01*
X212378714Y-117130642D01*
X212307285Y-116987785D01*
X212307285Y-116844928D01*
X212378714Y-116702071D01*
X212521571Y-116630642D01*
X212878714Y-116630642D01*
X213021571Y-116559214D01*
X213521571Y-116202071D02*
X214093000Y-116202071D01*
X213735857Y-115702071D02*
X213735857Y-116987785D01*
X213807285Y-117130642D01*
X213950142Y-117202071D01*
X214093000Y-117202071D01*
X214593000Y-117202071D02*
X214593000Y-116202071D01*
X214593000Y-115702071D02*
X214521571Y-115773500D01*
X214593000Y-115844928D01*
X214664428Y-115773500D01*
X214593000Y-115702071D01*
X214593000Y-115844928D01*
X215521571Y-117202071D02*
X215378714Y-117130642D01*
X215307285Y-117059214D01*
X215235857Y-116916357D01*
X215235857Y-116487785D01*
X215307285Y-116344928D01*
X215378714Y-116273500D01*
X215521571Y-116202071D01*
X215735857Y-116202071D01*
X215878714Y-116273500D01*
X215950142Y-116344928D01*
X216021571Y-116487785D01*
X216021571Y-116916357D01*
X215950142Y-117059214D01*
X215878714Y-117130642D01*
X215735857Y-117202071D01*
X215521571Y-117202071D01*
X216664428Y-116202071D02*
X216664428Y-117202071D01*
X216664428Y-116344928D02*
X216735857Y-116273500D01*
X216878714Y-116202071D01*
X217093000Y-116202071D01*
X217235857Y-116273500D01*
X217307285Y-116416357D01*
X217307285Y-117202071D01*
X219164428Y-117202071D02*
X219164428Y-115702071D01*
X219521571Y-115702071D01*
X219735857Y-115773500D01*
X219878714Y-115916357D01*
X219950142Y-116059214D01*
X220021571Y-116344928D01*
X220021571Y-116559214D01*
X219950142Y-116844928D01*
X219878714Y-116987785D01*
X219735857Y-117130642D01*
X219521571Y-117202071D01*
X219164428Y-117202071D01*
X220664428Y-117202071D02*
X220664428Y-116202071D01*
X220664428Y-116487785D02*
X220735857Y-116344928D01*
X220807285Y-116273500D01*
X220950142Y-116202071D01*
X221093000Y-116202071D01*
X222235857Y-117202071D02*
X222235857Y-116416357D01*
X222164428Y-116273500D01*
X222021571Y-116202071D01*
X221735857Y-116202071D01*
X221593000Y-116273500D01*
X222235857Y-117130642D02*
X222093000Y-117202071D01*
X221735857Y-117202071D01*
X221593000Y-117130642D01*
X221521571Y-116987785D01*
X221521571Y-116844928D01*
X221593000Y-116702071D01*
X221735857Y-116630642D01*
X222093000Y-116630642D01*
X222235857Y-116559214D01*
X222807285Y-116202071D02*
X223093000Y-117202071D01*
X223378714Y-116487785D01*
X223664428Y-117202071D01*
X223950142Y-116202071D01*
X224521571Y-117202071D02*
X224521571Y-116202071D01*
X224521571Y-115702071D02*
X224450142Y-115773500D01*
X224521571Y-115844928D01*
X224593000Y-115773500D01*
X224521571Y-115702071D01*
X224521571Y-115844928D01*
X225235857Y-116202071D02*
X225235857Y-117202071D01*
X225235857Y-116344928D02*
X225307285Y-116273500D01*
X225450142Y-116202071D01*
X225664428Y-116202071D01*
X225807285Y-116273500D01*
X225878714Y-116416357D01*
X225878714Y-117202071D01*
X227235857Y-116202071D02*
X227235857Y-117416357D01*
X227164428Y-117559214D01*
X227093000Y-117630642D01*
X226950142Y-117702071D01*
X226735857Y-117702071D01*
X226593000Y-117630642D01*
X227235857Y-117130642D02*
X227093000Y-117202071D01*
X226807285Y-117202071D01*
X226664428Y-117130642D01*
X226593000Y-117059214D01*
X226521571Y-116916357D01*
X226521571Y-116487785D01*
X226593000Y-116344928D01*
X226664428Y-116273500D01*
X226807285Y-116202071D01*
X227093000Y-116202071D01*
X227235857Y-116273500D01*
X131901857Y-57403071D02*
X132044714Y-57403071D01*
X132187571Y-57474500D01*
X132259000Y-57545928D01*
X132330428Y-57688785D01*
X132401857Y-57974500D01*
X132401857Y-58331642D01*
X132330428Y-58617357D01*
X132259000Y-58760214D01*
X132187571Y-58831642D01*
X132044714Y-58903071D01*
X131901857Y-58903071D01*
X131759000Y-58831642D01*
X131687571Y-58760214D01*
X131616142Y-58617357D01*
X131544714Y-58331642D01*
X131544714Y-57974500D01*
X131616142Y-57688785D01*
X131687571Y-57545928D01*
X131759000Y-57474500D01*
X131901857Y-57403071D01*
X133044714Y-58760214D02*
X133116142Y-58831642D01*
X133044714Y-58903071D01*
X132973285Y-58831642D01*
X133044714Y-58760214D01*
X133044714Y-58903071D01*
X134044714Y-57403071D02*
X134187571Y-57403071D01*
X134330428Y-57474500D01*
X134401857Y-57545928D01*
X134473285Y-57688785D01*
X134544714Y-57974500D01*
X134544714Y-58331642D01*
X134473285Y-58617357D01*
X134401857Y-58760214D01*
X134330428Y-58831642D01*
X134187571Y-58903071D01*
X134044714Y-58903071D01*
X133901857Y-58831642D01*
X133830428Y-58760214D01*
X133759000Y-58617357D01*
X133687571Y-58331642D01*
X133687571Y-57974500D01*
X133759000Y-57688785D01*
X133830428Y-57545928D01*
X133901857Y-57474500D01*
X134044714Y-57403071D01*
X135830428Y-57403071D02*
X135544714Y-57403071D01*
X135401857Y-57474500D01*
X135330428Y-57545928D01*
X135187571Y-57760214D01*
X135116142Y-58045928D01*
X135116142Y-58617357D01*
X135187571Y-58760214D01*
X135259000Y-58831642D01*
X135401857Y-58903071D01*
X135687571Y-58903071D01*
X135830428Y-58831642D01*
X135901857Y-58760214D01*
X135973285Y-58617357D01*
X135973285Y-58260214D01*
X135901857Y-58117357D01*
X135830428Y-58045928D01*
X135687571Y-57974500D01*
X135401857Y-57974500D01*
X135259000Y-58045928D01*
X135187571Y-58117357D01*
X135116142Y-58260214D01*
X136473285Y-57403071D02*
X137401857Y-57403071D01*
X136901857Y-57974500D01*
X137116142Y-57974500D01*
X137259000Y-58045928D01*
X137330428Y-58117357D01*
X137401857Y-58260214D01*
X137401857Y-58617357D01*
X137330428Y-58760214D01*
X137259000Y-58831642D01*
X137116142Y-58903071D01*
X136687571Y-58903071D01*
X136544714Y-58831642D01*
X136473285Y-58760214D01*
X139187571Y-58903071D02*
X139187571Y-57903071D01*
X139187571Y-57403071D02*
X139116142Y-57474500D01*
X139187571Y-57545928D01*
X139259000Y-57474500D01*
X139187571Y-57403071D01*
X139187571Y-57545928D01*
X139901857Y-57903071D02*
X139901857Y-58903071D01*
X139901857Y-58045928D02*
X139973285Y-57974500D01*
X140116142Y-57903071D01*
X140330428Y-57903071D01*
X140473285Y-57974500D01*
X140544714Y-58117357D01*
X140544714Y-58903071D01*
X142901857Y-58117357D02*
X142401857Y-58117357D01*
X142401857Y-58903071D02*
X142401857Y-57403071D01*
X143116142Y-57403071D01*
X143687571Y-58903071D02*
X143687571Y-57903071D01*
X143687571Y-57403071D02*
X143616142Y-57474500D01*
X143687571Y-57545928D01*
X143759000Y-57474500D01*
X143687571Y-57403071D01*
X143687571Y-57545928D01*
X144401857Y-57903071D02*
X144401857Y-58903071D01*
X144401857Y-58045928D02*
X144473285Y-57974500D01*
X144616142Y-57903071D01*
X144830428Y-57903071D01*
X144973285Y-57974500D01*
X145044714Y-58117357D01*
X145044714Y-58903071D01*
X145759000Y-58903071D02*
X145759000Y-57903071D01*
X145759000Y-57403071D02*
X145687571Y-57474500D01*
X145759000Y-57545928D01*
X145830428Y-57474500D01*
X145759000Y-57403071D01*
X145759000Y-57545928D01*
X146401857Y-58831642D02*
X146544714Y-58903071D01*
X146830428Y-58903071D01*
X146973285Y-58831642D01*
X147044714Y-58688785D01*
X147044714Y-58617357D01*
X146973285Y-58474500D01*
X146830428Y-58403071D01*
X146616142Y-58403071D01*
X146473285Y-58331642D01*
X146401857Y-58188785D01*
X146401857Y-58117357D01*
X146473285Y-57974500D01*
X146616142Y-57903071D01*
X146830428Y-57903071D01*
X146973285Y-57974500D01*
X147687571Y-58903071D02*
X147687571Y-57403071D01*
X148330428Y-58903071D02*
X148330428Y-58117357D01*
X148259000Y-57974500D01*
X148116142Y-57903071D01*
X147901857Y-57903071D01*
X147759000Y-57974500D01*
X147687571Y-58045928D01*
X149616142Y-58831642D02*
X149473285Y-58903071D01*
X149187571Y-58903071D01*
X149044714Y-58831642D01*
X148973285Y-58688785D01*
X148973285Y-58117357D01*
X149044714Y-57974500D01*
X149187571Y-57903071D01*
X149473285Y-57903071D01*
X149616142Y-57974500D01*
X149687571Y-58117357D01*
X149687571Y-58260214D01*
X148973285Y-58403071D01*
X150973285Y-58903071D02*
X150973285Y-57403071D01*
X150973285Y-58831642D02*
X150830428Y-58903071D01*
X150544714Y-58903071D01*
X150401857Y-58831642D01*
X150330428Y-58760214D01*
X150259000Y-58617357D01*
X150259000Y-58188785D01*
X150330428Y-58045928D01*
X150401857Y-57974500D01*
X150544714Y-57903071D01*
X150830428Y-57903071D01*
X150973285Y-57974500D01*
X152616142Y-57903071D02*
X153187571Y-57903071D01*
X152830428Y-57403071D02*
X152830428Y-58688785D01*
X152901857Y-58831642D01*
X153044714Y-58903071D01*
X153187571Y-58903071D01*
X153687571Y-58903071D02*
X153687571Y-57403071D01*
X154330428Y-58903071D02*
X154330428Y-58117357D01*
X154259000Y-57974500D01*
X154116142Y-57903071D01*
X153901857Y-57903071D01*
X153759000Y-57974500D01*
X153687571Y-58045928D01*
X155044714Y-58903071D02*
X155044714Y-57903071D01*
X155044714Y-57403071D02*
X154973285Y-57474500D01*
X155044714Y-57545928D01*
X155116142Y-57474500D01*
X155044714Y-57403071D01*
X155044714Y-57545928D01*
X156401857Y-58831642D02*
X156259000Y-58903071D01*
X155973285Y-58903071D01*
X155830428Y-58831642D01*
X155759000Y-58760214D01*
X155687571Y-58617357D01*
X155687571Y-58188785D01*
X155759000Y-58045928D01*
X155830428Y-57974500D01*
X155973285Y-57903071D01*
X156259000Y-57903071D01*
X156401857Y-57974500D01*
X157044714Y-58903071D02*
X157044714Y-57403071D01*
X157187571Y-58331642D02*
X157616142Y-58903071D01*
X157616142Y-57903071D02*
X157044714Y-58474500D01*
X158259000Y-57903071D02*
X158259000Y-58903071D01*
X158259000Y-58045928D02*
X158330428Y-57974500D01*
X158473285Y-57903071D01*
X158687571Y-57903071D01*
X158830428Y-57974500D01*
X158901857Y-58117357D01*
X158901857Y-58903071D01*
X160187571Y-58831642D02*
X160044714Y-58903071D01*
X159759000Y-58903071D01*
X159616142Y-58831642D01*
X159544714Y-58688785D01*
X159544714Y-58117357D01*
X159616142Y-57974500D01*
X159759000Y-57903071D01*
X160044714Y-57903071D01*
X160187571Y-57974500D01*
X160259000Y-58117357D01*
X160259000Y-58260214D01*
X159544714Y-58403071D01*
X160830428Y-58831642D02*
X160973285Y-58903071D01*
X161259000Y-58903071D01*
X161401857Y-58831642D01*
X161473285Y-58688785D01*
X161473285Y-58617357D01*
X161401857Y-58474500D01*
X161259000Y-58403071D01*
X161044714Y-58403071D01*
X160901857Y-58331642D01*
X160830428Y-58188785D01*
X160830428Y-58117357D01*
X160901857Y-57974500D01*
X161044714Y-57903071D01*
X161259000Y-57903071D01*
X161401857Y-57974500D01*
X162044714Y-58831642D02*
X162187571Y-58903071D01*
X162473285Y-58903071D01*
X162616142Y-58831642D01*
X162687571Y-58688785D01*
X162687571Y-58617357D01*
X162616142Y-58474500D01*
X162473285Y-58403071D01*
X162259000Y-58403071D01*
X162116142Y-58331642D01*
X162044714Y-58188785D01*
X162044714Y-58117357D01*
X162116142Y-57974500D01*
X162259000Y-57903071D01*
X162473285Y-57903071D01*
X162616142Y-57974500D01*
X132401857Y-61318071D02*
X131544714Y-61318071D01*
X131973285Y-61318071D02*
X131973285Y-59818071D01*
X131830428Y-60032357D01*
X131687571Y-60175214D01*
X131544714Y-60246642D01*
X133044714Y-61175214D02*
X133116142Y-61246642D01*
X133044714Y-61318071D01*
X132973285Y-61246642D01*
X133044714Y-61175214D01*
X133044714Y-61318071D01*
X134044714Y-59818071D02*
X134187571Y-59818071D01*
X134330428Y-59889500D01*
X134401857Y-59960928D01*
X134473285Y-60103785D01*
X134544714Y-60389500D01*
X134544714Y-60746642D01*
X134473285Y-61032357D01*
X134401857Y-61175214D01*
X134330428Y-61246642D01*
X134187571Y-61318071D01*
X134044714Y-61318071D01*
X133901857Y-61246642D01*
X133830428Y-61175214D01*
X133759000Y-61032357D01*
X133687571Y-60746642D01*
X133687571Y-60389500D01*
X133759000Y-60103785D01*
X133830428Y-59960928D01*
X133901857Y-59889500D01*
X134044714Y-59818071D01*
X136544714Y-61318071D02*
X136401857Y-61246642D01*
X136330428Y-61175214D01*
X136259000Y-61032357D01*
X136259000Y-60603785D01*
X136330428Y-60460928D01*
X136401857Y-60389500D01*
X136544714Y-60318071D01*
X136759000Y-60318071D01*
X136901857Y-60389500D01*
X136973285Y-60460928D01*
X137044714Y-60603785D01*
X137044714Y-61032357D01*
X136973285Y-61175214D01*
X136901857Y-61246642D01*
X136759000Y-61318071D01*
X136544714Y-61318071D01*
X137544714Y-60318071D02*
X138330428Y-60318071D01*
X137544714Y-61318071D01*
X138330428Y-61318071D01*
X140901857Y-61175214D02*
X140830428Y-61246642D01*
X140616142Y-61318071D01*
X140473285Y-61318071D01*
X140259000Y-61246642D01*
X140116142Y-61103785D01*
X140044714Y-60960928D01*
X139973285Y-60675214D01*
X139973285Y-60460928D01*
X140044714Y-60175214D01*
X140116142Y-60032357D01*
X140259000Y-59889500D01*
X140473285Y-59818071D01*
X140616142Y-59818071D01*
X140830428Y-59889500D01*
X140901857Y-59960928D01*
X142187571Y-60318071D02*
X142187571Y-61318071D01*
X141544714Y-60318071D02*
X141544714Y-61103785D01*
X141616142Y-61246642D01*
X141759000Y-61318071D01*
X141973285Y-61318071D01*
X142116142Y-61246642D01*
X142187571Y-61175214D01*
X144259000Y-61318071D02*
X144116142Y-61246642D01*
X144044714Y-61175214D01*
X143973285Y-61032357D01*
X143973285Y-60603785D01*
X144044714Y-60460928D01*
X144116142Y-60389500D01*
X144259000Y-60318071D01*
X144473285Y-60318071D01*
X144616142Y-60389500D01*
X144687571Y-60460928D01*
X144759000Y-60603785D01*
X144759000Y-61032357D01*
X144687571Y-61175214D01*
X144616142Y-61246642D01*
X144473285Y-61318071D01*
X144259000Y-61318071D01*
X145401857Y-60318071D02*
X145401857Y-61318071D01*
X145401857Y-60460928D02*
X145473285Y-60389500D01*
X145616142Y-60318071D01*
X145830428Y-60318071D01*
X145973285Y-60389500D01*
X146044714Y-60532357D01*
X146044714Y-61318071D01*
X148116142Y-61318071D02*
X147973285Y-61246642D01*
X147901857Y-61175214D01*
X147830428Y-61032357D01*
X147830428Y-60603785D01*
X147901857Y-60460928D01*
X147973285Y-60389500D01*
X148116142Y-60318071D01*
X148330428Y-60318071D01*
X148473285Y-60389500D01*
X148544714Y-60460928D01*
X148616142Y-60603785D01*
X148616142Y-61032357D01*
X148544714Y-61175214D01*
X148473285Y-61246642D01*
X148330428Y-61318071D01*
X148116142Y-61318071D01*
X149901857Y-60318071D02*
X149901857Y-61318071D01*
X149259000Y-60318071D02*
X149259000Y-61103785D01*
X149330428Y-61246642D01*
X149473285Y-61318071D01*
X149687571Y-61318071D01*
X149830428Y-61246642D01*
X149901857Y-61175214D01*
X150401857Y-60318071D02*
X150973285Y-60318071D01*
X150616142Y-59818071D02*
X150616142Y-61103785D01*
X150687571Y-61246642D01*
X150830428Y-61318071D01*
X150973285Y-61318071D01*
X152044714Y-61246642D02*
X151901857Y-61318071D01*
X151616142Y-61318071D01*
X151473285Y-61246642D01*
X151401857Y-61103785D01*
X151401857Y-60532357D01*
X151473285Y-60389500D01*
X151616142Y-60318071D01*
X151901857Y-60318071D01*
X152044714Y-60389500D01*
X152116142Y-60532357D01*
X152116142Y-60675214D01*
X151401857Y-60818071D01*
X152759000Y-61318071D02*
X152759000Y-60318071D01*
X152759000Y-60603785D02*
X152830428Y-60460928D01*
X152901857Y-60389500D01*
X153044714Y-60318071D01*
X153187571Y-60318071D01*
X155544714Y-61318071D02*
X154830428Y-61318071D01*
X154830428Y-59818071D01*
X156687571Y-61318071D02*
X156687571Y-60532357D01*
X156616142Y-60389500D01*
X156473285Y-60318071D01*
X156187571Y-60318071D01*
X156044714Y-60389500D01*
X156687571Y-61246642D02*
X156544714Y-61318071D01*
X156187571Y-61318071D01*
X156044714Y-61246642D01*
X155973285Y-61103785D01*
X155973285Y-60960928D01*
X156044714Y-60818071D01*
X156187571Y-60746642D01*
X156544714Y-60746642D01*
X156687571Y-60675214D01*
X157259000Y-60318071D02*
X157616142Y-61318071D01*
X157973285Y-60318071D02*
X157616142Y-61318071D01*
X157473285Y-61675214D01*
X157401857Y-61746642D01*
X157259000Y-61818071D01*
X159116142Y-61246642D02*
X158973285Y-61318071D01*
X158687571Y-61318071D01*
X158544714Y-61246642D01*
X158473285Y-61103785D01*
X158473285Y-60532357D01*
X158544714Y-60389500D01*
X158687571Y-60318071D01*
X158973285Y-60318071D01*
X159116142Y-60389500D01*
X159187571Y-60532357D01*
X159187571Y-60675214D01*
X158473285Y-60818071D01*
X159830428Y-61318071D02*
X159830428Y-60318071D01*
X159830428Y-60603785D02*
X159901857Y-60460928D01*
X159973285Y-60389500D01*
X160116142Y-60318071D01*
X160259000Y-60318071D01*
X160687571Y-61246642D02*
X160830428Y-61318071D01*
X161116142Y-61318071D01*
X161259000Y-61246642D01*
X161330428Y-61103785D01*
X161330428Y-61032357D01*
X161259000Y-60889500D01*
X161116142Y-60818071D01*
X160901857Y-60818071D01*
X160759000Y-60746642D01*
X160687571Y-60603785D01*
X160687571Y-60532357D01*
X160759000Y-60389500D01*
X160901857Y-60318071D01*
X161116142Y-60318071D01*
X161259000Y-60389500D01*
X131901857Y-62233071D02*
X132044714Y-62233071D01*
X132187571Y-62304500D01*
X132259000Y-62375928D01*
X132330428Y-62518785D01*
X132401857Y-62804500D01*
X132401857Y-63161642D01*
X132330428Y-63447357D01*
X132259000Y-63590214D01*
X132187571Y-63661642D01*
X132044714Y-63733071D01*
X131901857Y-63733071D01*
X131759000Y-63661642D01*
X131687571Y-63590214D01*
X131616142Y-63447357D01*
X131544714Y-63161642D01*
X131544714Y-62804500D01*
X131616142Y-62518785D01*
X131687571Y-62375928D01*
X131759000Y-62304500D01*
X131901857Y-62233071D01*
X133044714Y-63590214D02*
X133116142Y-63661642D01*
X133044714Y-63733071D01*
X132973285Y-63661642D01*
X133044714Y-63590214D01*
X133044714Y-63733071D01*
X134473285Y-62233071D02*
X133759000Y-62233071D01*
X133687571Y-62947357D01*
X133759000Y-62875928D01*
X133901857Y-62804500D01*
X134259000Y-62804500D01*
X134401857Y-62875928D01*
X134473285Y-62947357D01*
X134544714Y-63090214D01*
X134544714Y-63447357D01*
X134473285Y-63590214D01*
X134401857Y-63661642D01*
X134259000Y-63733071D01*
X133901857Y-63733071D01*
X133759000Y-63661642D01*
X133687571Y-63590214D01*
X136544714Y-63733071D02*
X136401857Y-63661642D01*
X136330428Y-63590214D01*
X136259000Y-63447357D01*
X136259000Y-63018785D01*
X136330428Y-62875928D01*
X136401857Y-62804500D01*
X136544714Y-62733071D01*
X136759000Y-62733071D01*
X136901857Y-62804500D01*
X136973285Y-62875928D01*
X137044714Y-63018785D01*
X137044714Y-63447357D01*
X136973285Y-63590214D01*
X136901857Y-63661642D01*
X136759000Y-63733071D01*
X136544714Y-63733071D01*
X137544714Y-62733071D02*
X138330428Y-62733071D01*
X137544714Y-63733071D01*
X138330428Y-63733071D01*
X140901857Y-63590214D02*
X140830428Y-63661642D01*
X140616142Y-63733071D01*
X140473285Y-63733071D01*
X140259000Y-63661642D01*
X140116142Y-63518785D01*
X140044714Y-63375928D01*
X139973285Y-63090214D01*
X139973285Y-62875928D01*
X140044714Y-62590214D01*
X140116142Y-62447357D01*
X140259000Y-62304500D01*
X140473285Y-62233071D01*
X140616142Y-62233071D01*
X140830428Y-62304500D01*
X140901857Y-62375928D01*
X142187571Y-62733071D02*
X142187571Y-63733071D01*
X141544714Y-62733071D02*
X141544714Y-63518785D01*
X141616142Y-63661642D01*
X141759000Y-63733071D01*
X141973285Y-63733071D01*
X142116142Y-63661642D01*
X142187571Y-63590214D01*
X144259000Y-63733071D02*
X144116142Y-63661642D01*
X144044714Y-63590214D01*
X143973285Y-63447357D01*
X143973285Y-63018785D01*
X144044714Y-62875928D01*
X144116142Y-62804500D01*
X144259000Y-62733071D01*
X144473285Y-62733071D01*
X144616142Y-62804500D01*
X144687571Y-62875928D01*
X144759000Y-63018785D01*
X144759000Y-63447357D01*
X144687571Y-63590214D01*
X144616142Y-63661642D01*
X144473285Y-63733071D01*
X144259000Y-63733071D01*
X145401857Y-62733071D02*
X145401857Y-63733071D01*
X145401857Y-62875928D02*
X145473285Y-62804500D01*
X145616142Y-62733071D01*
X145830428Y-62733071D01*
X145973285Y-62804500D01*
X146044714Y-62947357D01*
X146044714Y-63733071D01*
X147901857Y-63733071D02*
X147901857Y-62733071D01*
X147901857Y-62233071D02*
X147830428Y-62304500D01*
X147901857Y-62375928D01*
X147973285Y-62304500D01*
X147901857Y-62233071D01*
X147901857Y-62375928D01*
X148616142Y-62733071D02*
X148616142Y-63733071D01*
X148616142Y-62875928D02*
X148687571Y-62804500D01*
X148830428Y-62733071D01*
X149044714Y-62733071D01*
X149187571Y-62804500D01*
X149259000Y-62947357D01*
X149259000Y-63733071D01*
X149973285Y-62733071D02*
X149973285Y-63733071D01*
X149973285Y-62875928D02*
X150044714Y-62804500D01*
X150187571Y-62733071D01*
X150401857Y-62733071D01*
X150544714Y-62804500D01*
X150616142Y-62947357D01*
X150616142Y-63733071D01*
X151901857Y-63661642D02*
X151759000Y-63733071D01*
X151473285Y-63733071D01*
X151330428Y-63661642D01*
X151259000Y-63518785D01*
X151259000Y-62947357D01*
X151330428Y-62804500D01*
X151473285Y-62733071D01*
X151759000Y-62733071D01*
X151901857Y-62804500D01*
X151973285Y-62947357D01*
X151973285Y-63090214D01*
X151259000Y-63233071D01*
X152616142Y-63733071D02*
X152616142Y-62733071D01*
X152616142Y-63018785D02*
X152687571Y-62875928D01*
X152759000Y-62804500D01*
X152901857Y-62733071D01*
X153044714Y-62733071D01*
X155401857Y-63733071D02*
X154687571Y-63733071D01*
X154687571Y-62233071D01*
X156544714Y-63733071D02*
X156544714Y-62947357D01*
X156473285Y-62804500D01*
X156330428Y-62733071D01*
X156044714Y-62733071D01*
X155901857Y-62804500D01*
X156544714Y-63661642D02*
X156401857Y-63733071D01*
X156044714Y-63733071D01*
X155901857Y-63661642D01*
X155830428Y-63518785D01*
X155830428Y-63375928D01*
X155901857Y-63233071D01*
X156044714Y-63161642D01*
X156401857Y-63161642D01*
X156544714Y-63090214D01*
X157116142Y-62733071D02*
X157473285Y-63733071D01*
X157830428Y-62733071D02*
X157473285Y-63733071D01*
X157330428Y-64090214D01*
X157259000Y-64161642D01*
X157116142Y-64233071D01*
X158973285Y-63661642D02*
X158830428Y-63733071D01*
X158544714Y-63733071D01*
X158401857Y-63661642D01*
X158330428Y-63518785D01*
X158330428Y-62947357D01*
X158401857Y-62804500D01*
X158544714Y-62733071D01*
X158830428Y-62733071D01*
X158973285Y-62804500D01*
X159044714Y-62947357D01*
X159044714Y-63090214D01*
X158330428Y-63233071D01*
X159687571Y-63733071D02*
X159687571Y-62733071D01*
X159687571Y-63018785D02*
X159759000Y-62875928D01*
X159830428Y-62804500D01*
X159973285Y-62733071D01*
X160116142Y-62733071D01*
X160544714Y-63661642D02*
X160687571Y-63733071D01*
X160973285Y-63733071D01*
X161116142Y-63661642D01*
X161187571Y-63518785D01*
X161187571Y-63447357D01*
X161116142Y-63304500D01*
X160973285Y-63233071D01*
X160759000Y-63233071D01*
X160616142Y-63161642D01*
X160544714Y-63018785D01*
X160544714Y-62947357D01*
X160616142Y-62804500D01*
X160759000Y-62733071D01*
X160973285Y-62733071D01*
X161116142Y-62804500D01*
X132401857Y-64719500D02*
X132259000Y-64648071D01*
X132044714Y-64648071D01*
X131830428Y-64719500D01*
X131687571Y-64862357D01*
X131616142Y-65005214D01*
X131544714Y-65290928D01*
X131544714Y-65505214D01*
X131616142Y-65790928D01*
X131687571Y-65933785D01*
X131830428Y-66076642D01*
X132044714Y-66148071D01*
X132187571Y-66148071D01*
X132401857Y-66076642D01*
X132473285Y-66005214D01*
X132473285Y-65505214D01*
X132187571Y-65505214D01*
X133116142Y-66148071D02*
X133116142Y-65148071D01*
X133116142Y-65433785D02*
X133187571Y-65290928D01*
X133259000Y-65219500D01*
X133401857Y-65148071D01*
X133544714Y-65148071D01*
X134616142Y-66076642D02*
X134473285Y-66148071D01*
X134187571Y-66148071D01*
X134044714Y-66076642D01*
X133973285Y-65933785D01*
X133973285Y-65362357D01*
X134044714Y-65219500D01*
X134187571Y-65148071D01*
X134473285Y-65148071D01*
X134616142Y-65219500D01*
X134687571Y-65362357D01*
X134687571Y-65505214D01*
X133973285Y-65648071D01*
X135901857Y-66076642D02*
X135759000Y-66148071D01*
X135473285Y-66148071D01*
X135330428Y-66076642D01*
X135259000Y-65933785D01*
X135259000Y-65362357D01*
X135330428Y-65219500D01*
X135473285Y-65148071D01*
X135759000Y-65148071D01*
X135901857Y-65219500D01*
X135973285Y-65362357D01*
X135973285Y-65505214D01*
X135259000Y-65648071D01*
X136616142Y-65148071D02*
X136616142Y-66148071D01*
X136616142Y-65290928D02*
X136687571Y-65219500D01*
X136830428Y-65148071D01*
X137044714Y-65148071D01*
X137187571Y-65219500D01*
X137259000Y-65362357D01*
X137259000Y-66148071D01*
X139044714Y-66076642D02*
X139259000Y-66148071D01*
X139616142Y-66148071D01*
X139759000Y-66076642D01*
X139830428Y-66005214D01*
X139901857Y-65862357D01*
X139901857Y-65719500D01*
X139830428Y-65576642D01*
X139759000Y-65505214D01*
X139616142Y-65433785D01*
X139330428Y-65362357D01*
X139187571Y-65290928D01*
X139116142Y-65219500D01*
X139044714Y-65076642D01*
X139044714Y-64933785D01*
X139116142Y-64790928D01*
X139187571Y-64719500D01*
X139330428Y-64648071D01*
X139687571Y-64648071D01*
X139901857Y-64719500D01*
X140759000Y-66148071D02*
X140616142Y-66076642D01*
X140544714Y-66005214D01*
X140473285Y-65862357D01*
X140473285Y-65433785D01*
X140544714Y-65290928D01*
X140616142Y-65219500D01*
X140759000Y-65148071D01*
X140973285Y-65148071D01*
X141116142Y-65219500D01*
X141187571Y-65290928D01*
X141259000Y-65433785D01*
X141259000Y-65862357D01*
X141187571Y-66005214D01*
X141116142Y-66076642D01*
X140973285Y-66148071D01*
X140759000Y-66148071D01*
X142116142Y-66148071D02*
X141973285Y-66076642D01*
X141901857Y-65933785D01*
X141901857Y-64648071D01*
X143330428Y-66148071D02*
X143330428Y-64648071D01*
X143330428Y-66076642D02*
X143187571Y-66148071D01*
X142901857Y-66148071D01*
X142759000Y-66076642D01*
X142687571Y-66005214D01*
X142616142Y-65862357D01*
X142616142Y-65433785D01*
X142687571Y-65290928D01*
X142759000Y-65219500D01*
X142901857Y-65148071D01*
X143187571Y-65148071D01*
X143330428Y-65219500D01*
X144616142Y-66076642D02*
X144473285Y-66148071D01*
X144187571Y-66148071D01*
X144044714Y-66076642D01*
X143973285Y-65933785D01*
X143973285Y-65362357D01*
X144044714Y-65219500D01*
X144187571Y-65148071D01*
X144473285Y-65148071D01*
X144616142Y-65219500D01*
X144687571Y-65362357D01*
X144687571Y-65505214D01*
X143973285Y-65648071D01*
X145330428Y-66148071D02*
X145330428Y-65148071D01*
X145330428Y-65433785D02*
X145401857Y-65290928D01*
X145473285Y-65219500D01*
X145616142Y-65148071D01*
X145759000Y-65148071D01*
X147401857Y-66148071D02*
X147401857Y-64648071D01*
X147901857Y-65719500D01*
X148401857Y-64648071D01*
X148401857Y-66148071D01*
X149759000Y-66148071D02*
X149759000Y-65362357D01*
X149687571Y-65219500D01*
X149544714Y-65148071D01*
X149259000Y-65148071D01*
X149116142Y-65219500D01*
X149759000Y-66076642D02*
X149616142Y-66148071D01*
X149259000Y-66148071D01*
X149116142Y-66076642D01*
X149044714Y-65933785D01*
X149044714Y-65790928D01*
X149116142Y-65648071D01*
X149259000Y-65576642D01*
X149616142Y-65576642D01*
X149759000Y-65505214D01*
X150401857Y-66076642D02*
X150544714Y-66148071D01*
X150830428Y-66148071D01*
X150973285Y-66076642D01*
X151044714Y-65933785D01*
X151044714Y-65862357D01*
X150973285Y-65719500D01*
X150830428Y-65648071D01*
X150616142Y-65648071D01*
X150473285Y-65576642D01*
X150401857Y-65433785D01*
X150401857Y-65362357D01*
X150473285Y-65219500D01*
X150616142Y-65148071D01*
X150830428Y-65148071D01*
X150973285Y-65219500D01*
X151687571Y-66148071D02*
X151687571Y-64648071D01*
X151830428Y-65576642D02*
X152259000Y-66148071D01*
X152259000Y-65148071D02*
X151687571Y-65719500D01*
X154544714Y-65362357D02*
X154759000Y-65433785D01*
X154830428Y-65505214D01*
X154901857Y-65648071D01*
X154901857Y-65862357D01*
X154830428Y-66005214D01*
X154759000Y-66076642D01*
X154616142Y-66148071D01*
X154044714Y-66148071D01*
X154044714Y-64648071D01*
X154544714Y-64648071D01*
X154687571Y-64719500D01*
X154759000Y-64790928D01*
X154830428Y-64933785D01*
X154830428Y-65076642D01*
X154759000Y-65219500D01*
X154687571Y-65290928D01*
X154544714Y-65362357D01*
X154044714Y-65362357D01*
X155759000Y-66148071D02*
X155616142Y-66076642D01*
X155544714Y-66005214D01*
X155473285Y-65862357D01*
X155473285Y-65433785D01*
X155544714Y-65290928D01*
X155616142Y-65219500D01*
X155759000Y-65148071D01*
X155973285Y-65148071D01*
X156116142Y-65219500D01*
X156187571Y-65290928D01*
X156259000Y-65433785D01*
X156259000Y-65862357D01*
X156187571Y-66005214D01*
X156116142Y-66076642D01*
X155973285Y-66148071D01*
X155759000Y-66148071D01*
X156687571Y-65148071D02*
X157259000Y-65148071D01*
X156901857Y-64648071D02*
X156901857Y-65933785D01*
X156973285Y-66076642D01*
X157116142Y-66148071D01*
X157259000Y-66148071D01*
X157759000Y-66148071D02*
X157759000Y-64648071D01*
X158401857Y-66148071D02*
X158401857Y-65362357D01*
X158330428Y-65219500D01*
X158187571Y-65148071D01*
X157973285Y-65148071D01*
X157830428Y-65219500D01*
X157759000Y-65290928D01*
X160187571Y-66076642D02*
X160401857Y-66148071D01*
X160759000Y-66148071D01*
X160901857Y-66076642D01*
X160973285Y-66005214D01*
X161044714Y-65862357D01*
X161044714Y-65719500D01*
X160973285Y-65576642D01*
X160901857Y-65505214D01*
X160759000Y-65433785D01*
X160473285Y-65362357D01*
X160330428Y-65290928D01*
X160259000Y-65219500D01*
X160187571Y-65076642D01*
X160187571Y-64933785D01*
X160259000Y-64790928D01*
X160330428Y-64719500D01*
X160473285Y-64648071D01*
X160830428Y-64648071D01*
X161044714Y-64719500D01*
X161687571Y-66148071D02*
X161687571Y-65148071D01*
X161687571Y-64648071D02*
X161616142Y-64719500D01*
X161687571Y-64790928D01*
X161759000Y-64719500D01*
X161687571Y-64648071D01*
X161687571Y-64790928D01*
X163044714Y-66148071D02*
X163044714Y-64648071D01*
X163044714Y-66076642D02*
X162901857Y-66148071D01*
X162616142Y-66148071D01*
X162473285Y-66076642D01*
X162401857Y-66005214D01*
X162330428Y-65862357D01*
X162330428Y-65433785D01*
X162401857Y-65290928D01*
X162473285Y-65219500D01*
X162616142Y-65148071D01*
X162901857Y-65148071D01*
X163044714Y-65219500D01*
X164330428Y-66076642D02*
X164187571Y-66148071D01*
X163901857Y-66148071D01*
X163759000Y-66076642D01*
X163687571Y-65933785D01*
X163687571Y-65362357D01*
X163759000Y-65219500D01*
X163901857Y-65148071D01*
X164187571Y-65148071D01*
X164330428Y-65219500D01*
X164401857Y-65362357D01*
X164401857Y-65505214D01*
X163687571Y-65648071D01*
X164973285Y-66076642D02*
X165116142Y-66148071D01*
X165401857Y-66148071D01*
X165544714Y-66076642D01*
X165616142Y-65933785D01*
X165616142Y-65862357D01*
X165544714Y-65719500D01*
X165401857Y-65648071D01*
X165187571Y-65648071D01*
X165044714Y-65576642D01*
X164973285Y-65433785D01*
X164973285Y-65362357D01*
X165044714Y-65219500D01*
X165187571Y-65148071D01*
X165401857Y-65148071D01*
X165544714Y-65219500D01*
X131473285Y-67063071D02*
X131830428Y-68563071D01*
X132116142Y-67491642D01*
X132401857Y-68563071D01*
X132759000Y-67063071D01*
X133330428Y-68563071D02*
X133330428Y-67063071D01*
X133973285Y-68563071D02*
X133973285Y-67777357D01*
X133901857Y-67634500D01*
X133759000Y-67563071D01*
X133544714Y-67563071D01*
X133401857Y-67634500D01*
X133330428Y-67705928D01*
X134687571Y-68563071D02*
X134687571Y-67563071D01*
X134687571Y-67063071D02*
X134616142Y-67134500D01*
X134687571Y-67205928D01*
X134759000Y-67134500D01*
X134687571Y-67063071D01*
X134687571Y-67205928D01*
X135187571Y-67563071D02*
X135759000Y-67563071D01*
X135401857Y-67063071D02*
X135401857Y-68348785D01*
X135473285Y-68491642D01*
X135616142Y-68563071D01*
X135759000Y-68563071D01*
X136830428Y-68491642D02*
X136687571Y-68563071D01*
X136401857Y-68563071D01*
X136259000Y-68491642D01*
X136187571Y-68348785D01*
X136187571Y-67777357D01*
X136259000Y-67634500D01*
X136401857Y-67563071D01*
X136687571Y-67563071D01*
X136830428Y-67634500D01*
X136901857Y-67777357D01*
X136901857Y-67920214D01*
X136187571Y-68063071D01*
X138616142Y-68491642D02*
X138830428Y-68563071D01*
X139187571Y-68563071D01*
X139330428Y-68491642D01*
X139401857Y-68420214D01*
X139473285Y-68277357D01*
X139473285Y-68134500D01*
X139401857Y-67991642D01*
X139330428Y-67920214D01*
X139187571Y-67848785D01*
X138901857Y-67777357D01*
X138759000Y-67705928D01*
X138687571Y-67634500D01*
X138616142Y-67491642D01*
X138616142Y-67348785D01*
X138687571Y-67205928D01*
X138759000Y-67134500D01*
X138901857Y-67063071D01*
X139259000Y-67063071D01*
X139473285Y-67134500D01*
X140116142Y-68563071D02*
X140116142Y-67563071D01*
X140116142Y-67063071D02*
X140044714Y-67134500D01*
X140116142Y-67205928D01*
X140187571Y-67134500D01*
X140116142Y-67063071D01*
X140116142Y-67205928D01*
X141044714Y-68563071D02*
X140901857Y-68491642D01*
X140830428Y-68348785D01*
X140830428Y-67063071D01*
X141616142Y-68563071D02*
X141616142Y-67063071D01*
X141759000Y-67991642D02*
X142187571Y-68563071D01*
X142187571Y-67563071D02*
X141616142Y-68134500D01*
X142759000Y-68491642D02*
X142901857Y-68563071D01*
X143187571Y-68563071D01*
X143330428Y-68491642D01*
X143401857Y-68348785D01*
X143401857Y-68277357D01*
X143330428Y-68134500D01*
X143187571Y-68063071D01*
X142973285Y-68063071D01*
X142830428Y-67991642D01*
X142759000Y-67848785D01*
X142759000Y-67777357D01*
X142830428Y-67634500D01*
X142973285Y-67563071D01*
X143187571Y-67563071D01*
X143330428Y-67634500D01*
X144687571Y-68491642D02*
X144544714Y-68563071D01*
X144259000Y-68563071D01*
X144116142Y-68491642D01*
X144044714Y-68420214D01*
X143973285Y-68277357D01*
X143973285Y-67848785D01*
X144044714Y-67705928D01*
X144116142Y-67634500D01*
X144259000Y-67563071D01*
X144544714Y-67563071D01*
X144687571Y-67634500D01*
X145330428Y-68563071D02*
X145330428Y-67563071D01*
X145330428Y-67848785D02*
X145401857Y-67705928D01*
X145473285Y-67634500D01*
X145616142Y-67563071D01*
X145759000Y-67563071D01*
X146830428Y-68491642D02*
X146687571Y-68563071D01*
X146401857Y-68563071D01*
X146259000Y-68491642D01*
X146187571Y-68348785D01*
X146187571Y-67777357D01*
X146259000Y-67634500D01*
X146401857Y-67563071D01*
X146687571Y-67563071D01*
X146830428Y-67634500D01*
X146901857Y-67777357D01*
X146901857Y-67920214D01*
X146187571Y-68063071D01*
X148116142Y-68491642D02*
X147973285Y-68563071D01*
X147687571Y-68563071D01*
X147544714Y-68491642D01*
X147473285Y-68348785D01*
X147473285Y-67777357D01*
X147544714Y-67634500D01*
X147687571Y-67563071D01*
X147973285Y-67563071D01*
X148116142Y-67634500D01*
X148187571Y-67777357D01*
X148187571Y-67920214D01*
X147473285Y-68063071D01*
X148830428Y-67563071D02*
X148830428Y-68563071D01*
X148830428Y-67705928D02*
X148901857Y-67634500D01*
X149044714Y-67563071D01*
X149259000Y-67563071D01*
X149401857Y-67634500D01*
X149473285Y-67777357D01*
X149473285Y-68563071D01*
X151830428Y-67777357D02*
X152044714Y-67848785D01*
X152116142Y-67920214D01*
X152187571Y-68063071D01*
X152187571Y-68277357D01*
X152116142Y-68420214D01*
X152044714Y-68491642D01*
X151901857Y-68563071D01*
X151330428Y-68563071D01*
X151330428Y-67063071D01*
X151830428Y-67063071D01*
X151973285Y-67134500D01*
X152044714Y-67205928D01*
X152116142Y-67348785D01*
X152116142Y-67491642D01*
X152044714Y-67634500D01*
X151973285Y-67705928D01*
X151830428Y-67777357D01*
X151330428Y-67777357D01*
X153044714Y-68563071D02*
X152901857Y-68491642D01*
X152830428Y-68420214D01*
X152759000Y-68277357D01*
X152759000Y-67848785D01*
X152830428Y-67705928D01*
X152901857Y-67634500D01*
X153044714Y-67563071D01*
X153259000Y-67563071D01*
X153401857Y-67634500D01*
X153473285Y-67705928D01*
X153544714Y-67848785D01*
X153544714Y-68277357D01*
X153473285Y-68420214D01*
X153401857Y-68491642D01*
X153259000Y-68563071D01*
X153044714Y-68563071D01*
X153973285Y-67563071D02*
X154544714Y-67563071D01*
X154187571Y-67063071D02*
X154187571Y-68348785D01*
X154259000Y-68491642D01*
X154401857Y-68563071D01*
X154544714Y-68563071D01*
X155044714Y-68563071D02*
X155044714Y-67063071D01*
X155687571Y-68563071D02*
X155687571Y-67777357D01*
X155616142Y-67634500D01*
X155473285Y-67563071D01*
X155259000Y-67563071D01*
X155116142Y-67634500D01*
X155044714Y-67705928D01*
X157473285Y-68491642D02*
X157687571Y-68563071D01*
X158044714Y-68563071D01*
X158187571Y-68491642D01*
X158259000Y-68420214D01*
X158330428Y-68277357D01*
X158330428Y-68134500D01*
X158259000Y-67991642D01*
X158187571Y-67920214D01*
X158044714Y-67848785D01*
X157759000Y-67777357D01*
X157616142Y-67705928D01*
X157544714Y-67634500D01*
X157473285Y-67491642D01*
X157473285Y-67348785D01*
X157544714Y-67205928D01*
X157616142Y-67134500D01*
X157759000Y-67063071D01*
X158116142Y-67063071D01*
X158330428Y-67134500D01*
X158973285Y-68563071D02*
X158973285Y-67563071D01*
X158973285Y-67063071D02*
X158901857Y-67134500D01*
X158973285Y-67205928D01*
X159044714Y-67134500D01*
X158973285Y-67063071D01*
X158973285Y-67205928D01*
X160330428Y-68563071D02*
X160330428Y-67063071D01*
X160330428Y-68491642D02*
X160187571Y-68563071D01*
X159901857Y-68563071D01*
X159759000Y-68491642D01*
X159687571Y-68420214D01*
X159616142Y-68277357D01*
X159616142Y-67848785D01*
X159687571Y-67705928D01*
X159759000Y-67634500D01*
X159901857Y-67563071D01*
X160187571Y-67563071D01*
X160330428Y-67634500D01*
X161616142Y-68491642D02*
X161473285Y-68563071D01*
X161187571Y-68563071D01*
X161044714Y-68491642D01*
X160973285Y-68348785D01*
X160973285Y-67777357D01*
X161044714Y-67634500D01*
X161187571Y-67563071D01*
X161473285Y-67563071D01*
X161616142Y-67634500D01*
X161687571Y-67777357D01*
X161687571Y-67920214D01*
X160973285Y-68063071D01*
X162259000Y-68491642D02*
X162401857Y-68563071D01*
X162687571Y-68563071D01*
X162830428Y-68491642D01*
X162901857Y-68348785D01*
X162901857Y-68277357D01*
X162830428Y-68134500D01*
X162687571Y-68063071D01*
X162473285Y-68063071D01*
X162330428Y-67991642D01*
X162259000Y-67848785D01*
X162259000Y-67777357D01*
X162330428Y-67634500D01*
X162473285Y-67563071D01*
X162687571Y-67563071D01*
X162830428Y-67634500D01*
D14*
X141913428Y-75568628D02*
X142856857Y-75568628D01*
X142348857Y-76149200D01*
X142566571Y-76149200D01*
X142711714Y-76221771D01*
X142784285Y-76294342D01*
X142856857Y-76439485D01*
X142856857Y-76802342D01*
X142784285Y-76947485D01*
X142711714Y-77020057D01*
X142566571Y-77092628D01*
X142131142Y-77092628D01*
X141986000Y-77020057D01*
X141913428Y-76947485D01*
X143510000Y-76947485D02*
X143582571Y-77020057D01*
X143510000Y-77092628D01*
X143437428Y-77020057D01*
X143510000Y-76947485D01*
X143510000Y-77092628D01*
X144961428Y-75568628D02*
X144235714Y-75568628D01*
X144163142Y-76294342D01*
X144235714Y-76221771D01*
X144380857Y-76149200D01*
X144743714Y-76149200D01*
X144888857Y-76221771D01*
X144961428Y-76294342D01*
X145034000Y-76439485D01*
X145034000Y-76802342D01*
X144961428Y-76947485D01*
X144888857Y-77020057D01*
X144743714Y-77092628D01*
X144380857Y-77092628D01*
X144235714Y-77020057D01*
X144163142Y-76947485D01*
X145977428Y-75568628D02*
X146122571Y-75568628D01*
X146267714Y-75641200D01*
X146340285Y-75713771D01*
X146412857Y-75858914D01*
X146485428Y-76149200D01*
X146485428Y-76512057D01*
X146412857Y-76802342D01*
X146340285Y-76947485D01*
X146267714Y-77020057D01*
X146122571Y-77092628D01*
X145977428Y-77092628D01*
X145832285Y-77020057D01*
X145759714Y-76947485D01*
X145687142Y-76802342D01*
X145614571Y-76512057D01*
X145614571Y-76149200D01*
X145687142Y-75858914D01*
X145759714Y-75713771D01*
X145832285Y-75641200D01*
X145977428Y-75568628D01*
X147428857Y-75568628D02*
X147574000Y-75568628D01*
X147719142Y-75641200D01*
X147791714Y-75713771D01*
X147864285Y-75858914D01*
X147936857Y-76149200D01*
X147936857Y-76512057D01*
X147864285Y-76802342D01*
X147791714Y-76947485D01*
X147719142Y-77020057D01*
X147574000Y-77092628D01*
X147428857Y-77092628D01*
X147283714Y-77020057D01*
X147211142Y-76947485D01*
X147138571Y-76802342D01*
X147066000Y-76512057D01*
X147066000Y-76149200D01*
X147138571Y-75858914D01*
X147211142Y-75713771D01*
X147283714Y-75641200D01*
X147428857Y-75568628D01*
X148880285Y-75568628D02*
X149025428Y-75568628D01*
X149170571Y-75641200D01*
X149243142Y-75713771D01*
X149315714Y-75858914D01*
X149388285Y-76149200D01*
X149388285Y-76512057D01*
X149315714Y-76802342D01*
X149243142Y-76947485D01*
X149170571Y-77020057D01*
X149025428Y-77092628D01*
X148880285Y-77092628D01*
X148735142Y-77020057D01*
X148662571Y-76947485D01*
X148590000Y-76802342D01*
X148517428Y-76512057D01*
X148517428Y-76149200D01*
X148590000Y-75858914D01*
X148662571Y-75713771D01*
X148735142Y-75641200D01*
X148880285Y-75568628D01*
X151202571Y-77092628D02*
X151202571Y-76076628D01*
X151202571Y-75568628D02*
X151130000Y-75641200D01*
X151202571Y-75713771D01*
X151275142Y-75641200D01*
X151202571Y-75568628D01*
X151202571Y-75713771D01*
X151928285Y-76076628D02*
X151928285Y-77092628D01*
X151928285Y-76221771D02*
X152000857Y-76149200D01*
X152146000Y-76076628D01*
X152363714Y-76076628D01*
X152508857Y-76149200D01*
X152581428Y-76294342D01*
X152581428Y-77092628D01*
X191770000Y-82042000D02*
X191770000Y-77645580D01*
X102870000Y-82042000D02*
X102870000Y-77645580D01*
X191770000Y-78232000D02*
X153858686Y-78232000D01*
X140781315Y-78232000D02*
X102870000Y-78232000D01*
X191770000Y-78232000D02*
X190643496Y-77645579D01*
X191770000Y-78232000D02*
X190643496Y-78818421D01*
X102870000Y-78232000D02*
X103996504Y-78818421D01*
X102870000Y-78232000D02*
X103996504Y-77645579D01*
X95380628Y-107333142D02*
X95380628Y-108204000D01*
X95380628Y-107768571D02*
X93856628Y-107768571D01*
X94074342Y-107913714D01*
X94219485Y-108058857D01*
X94292057Y-108204000D01*
X95235485Y-106680000D02*
X95308057Y-106607428D01*
X95380628Y-106680000D01*
X95308057Y-106752571D01*
X95235485Y-106680000D01*
X95380628Y-106680000D01*
X93856628Y-105228571D02*
X93856628Y-105954285D01*
X94582342Y-106026857D01*
X94509771Y-105954285D01*
X94437200Y-105809142D01*
X94437200Y-105446285D01*
X94509771Y-105301142D01*
X94582342Y-105228571D01*
X94727485Y-105156000D01*
X95090342Y-105156000D01*
X95235485Y-105228571D01*
X95308057Y-105301142D01*
X95380628Y-105446285D01*
X95380628Y-105809142D01*
X95308057Y-105954285D01*
X95235485Y-106026857D01*
X93856628Y-104212571D02*
X93856628Y-104067428D01*
X93929200Y-103922285D01*
X94001771Y-103849714D01*
X94146914Y-103777142D01*
X94437200Y-103704571D01*
X94800057Y-103704571D01*
X95090342Y-103777142D01*
X95235485Y-103849714D01*
X95308057Y-103922285D01*
X95380628Y-104067428D01*
X95380628Y-104212571D01*
X95308057Y-104357714D01*
X95235485Y-104430285D01*
X95090342Y-104502857D01*
X94800057Y-104575428D01*
X94437200Y-104575428D01*
X94146914Y-104502857D01*
X94001771Y-104430285D01*
X93929200Y-104357714D01*
X93856628Y-104212571D01*
X93856628Y-102761142D02*
X93856628Y-102616000D01*
X93929200Y-102470857D01*
X94001771Y-102398285D01*
X94146914Y-102325714D01*
X94437200Y-102253142D01*
X94800057Y-102253142D01*
X95090342Y-102325714D01*
X95235485Y-102398285D01*
X95308057Y-102470857D01*
X95380628Y-102616000D01*
X95380628Y-102761142D01*
X95308057Y-102906285D01*
X95235485Y-102978857D01*
X95090342Y-103051428D01*
X94800057Y-103124000D01*
X94437200Y-103124000D01*
X94146914Y-103051428D01*
X94001771Y-102978857D01*
X93929200Y-102906285D01*
X93856628Y-102761142D01*
X93856628Y-101309714D02*
X93856628Y-101164571D01*
X93929200Y-101019428D01*
X94001771Y-100946857D01*
X94146914Y-100874285D01*
X94437200Y-100801714D01*
X94800057Y-100801714D01*
X95090342Y-100874285D01*
X95235485Y-100946857D01*
X95308057Y-101019428D01*
X95380628Y-101164571D01*
X95380628Y-101309714D01*
X95308057Y-101454857D01*
X95235485Y-101527428D01*
X95090342Y-101600000D01*
X94800057Y-101672571D01*
X94437200Y-101672571D01*
X94146914Y-101600000D01*
X94001771Y-101527428D01*
X93929200Y-101454857D01*
X93856628Y-101309714D01*
X95380628Y-98987428D02*
X94364628Y-98987428D01*
X93856628Y-98987428D02*
X93929200Y-99060000D01*
X94001771Y-98987428D01*
X93929200Y-98914857D01*
X93856628Y-98987428D01*
X94001771Y-98987428D01*
X94364628Y-98261714D02*
X95380628Y-98261714D01*
X94509771Y-98261714D02*
X94437200Y-98189142D01*
X94364628Y-98044000D01*
X94364628Y-97826285D01*
X94437200Y-97681142D01*
X94582342Y-97608571D01*
X95380628Y-97608571D01*
X101600000Y-83820000D02*
X95933580Y-83820000D01*
X101600000Y-121920000D02*
X95933580Y-121920000D01*
X96520000Y-83820000D02*
X96520000Y-96331314D01*
X96520000Y-109408685D02*
X96520000Y-121920000D01*
X96520000Y-83820000D02*
X95933579Y-84946504D01*
X96520000Y-83820000D02*
X97106421Y-84946504D01*
X96520000Y-121920000D02*
X97106421Y-120793496D01*
X96520000Y-121920000D02*
X95933579Y-120793496D01*
D15*
X175684809Y-104375619D02*
X175661000Y-104423238D01*
X175613380Y-104470857D01*
X175541952Y-104542285D01*
X175518142Y-104589904D01*
X175518142Y-104637523D01*
X175637190Y-104613714D02*
X175613380Y-104661333D01*
X175565761Y-104708952D01*
X175470523Y-104732761D01*
X175303857Y-104732761D01*
X175208619Y-104708952D01*
X175161000Y-104661333D01*
X175137190Y-104613714D01*
X175137190Y-104518476D01*
X175161000Y-104470857D01*
X175208619Y-104423238D01*
X175303857Y-104399428D01*
X175470523Y-104399428D01*
X175565761Y-104423238D01*
X175613380Y-104470857D01*
X175637190Y-104518476D01*
X175637190Y-104613714D01*
X175637190Y-103923238D02*
X175637190Y-104208952D01*
X175637190Y-104066095D02*
X175137190Y-104066095D01*
X175208619Y-104113714D01*
X175256238Y-104161333D01*
X175280047Y-104208952D01*
D16*
X142995666Y-110343904D02*
X142729000Y-109962952D01*
X142538523Y-110343904D02*
X142538523Y-109543904D01*
X142843285Y-109543904D01*
X142919476Y-109582000D01*
X142957571Y-109620095D01*
X142995666Y-109696285D01*
X142995666Y-109810571D01*
X142957571Y-109886761D01*
X142919476Y-109924857D01*
X142843285Y-109962952D01*
X142538523Y-109962952D01*
X143757571Y-110343904D02*
X143300428Y-110343904D01*
X143529000Y-110343904D02*
X143529000Y-109543904D01*
X143452809Y-109658190D01*
X143376619Y-109734380D01*
X143300428Y-109772476D01*
X133434166Y-98532904D02*
X133167500Y-98151952D01*
X132977023Y-98532904D02*
X132977023Y-97732904D01*
X133281785Y-97732904D01*
X133357976Y-97771000D01*
X133396071Y-97809095D01*
X133434166Y-97885285D01*
X133434166Y-97999571D01*
X133396071Y-98075761D01*
X133357976Y-98113857D01*
X133281785Y-98151952D01*
X132977023Y-98151952D01*
X133738928Y-97809095D02*
X133777023Y-97771000D01*
X133853214Y-97732904D01*
X134043690Y-97732904D01*
X134119880Y-97771000D01*
X134157976Y-97809095D01*
X134196071Y-97885285D01*
X134196071Y-97961476D01*
X134157976Y-98075761D01*
X133700833Y-98532904D01*
X134196071Y-98532904D01*
X188194904Y-91736785D02*
X187813952Y-92003452D01*
X188194904Y-92193928D02*
X187394904Y-92193928D01*
X187394904Y-91889166D01*
X187433000Y-91812976D01*
X187471095Y-91774880D01*
X187547285Y-91736785D01*
X187661571Y-91736785D01*
X187737761Y-91774880D01*
X187775857Y-91812976D01*
X187813952Y-91889166D01*
X187813952Y-92193928D01*
X188194904Y-90974880D02*
X188194904Y-91432023D01*
X188194904Y-91203452D02*
X187394904Y-91203452D01*
X187509190Y-91279642D01*
X187585380Y-91355833D01*
X187623476Y-91432023D01*
X187394904Y-90479642D02*
X187394904Y-90403452D01*
X187433000Y-90327261D01*
X187471095Y-90289166D01*
X187547285Y-90251071D01*
X187699666Y-90212976D01*
X187890142Y-90212976D01*
X188042523Y-90251071D01*
X188118714Y-90289166D01*
X188156809Y-90327261D01*
X188194904Y-90403452D01*
X188194904Y-90479642D01*
X188156809Y-90555833D01*
X188118714Y-90593928D01*
X188042523Y-90632023D01*
X187890142Y-90670119D01*
X187699666Y-90670119D01*
X187547285Y-90632023D01*
X187471095Y-90593928D01*
X187433000Y-90555833D01*
X187394904Y-90479642D01*
D11*
X125896666Y-104600285D02*
X125896666Y-104124095D01*
X126182380Y-104695523D02*
X125182380Y-104362190D01*
X126182380Y-104028857D01*
X126182380Y-103171714D02*
X126182380Y-103743142D01*
X126182380Y-103457428D02*
X125182380Y-103457428D01*
X125325238Y-103552666D01*
X125420476Y-103647904D01*
X125468095Y-103743142D01*
D16*
X118067166Y-110267714D02*
X118029071Y-110305809D01*
X117914785Y-110343904D01*
X117838595Y-110343904D01*
X117724309Y-110305809D01*
X117648119Y-110229619D01*
X117610023Y-110153428D01*
X117571928Y-110001047D01*
X117571928Y-109886761D01*
X117610023Y-109734380D01*
X117648119Y-109658190D01*
X117724309Y-109582000D01*
X117838595Y-109543904D01*
X117914785Y-109543904D01*
X118029071Y-109582000D01*
X118067166Y-109620095D01*
X118752880Y-109543904D02*
X118600500Y-109543904D01*
X118524309Y-109582000D01*
X118486214Y-109620095D01*
X118410023Y-109734380D01*
X118371928Y-109886761D01*
X118371928Y-110191523D01*
X118410023Y-110267714D01*
X118448119Y-110305809D01*
X118524309Y-110343904D01*
X118676690Y-110343904D01*
X118752880Y-110305809D01*
X118790976Y-110267714D01*
X118829071Y-110191523D01*
X118829071Y-110001047D01*
X118790976Y-109924857D01*
X118752880Y-109886761D01*
X118676690Y-109848666D01*
X118524309Y-109848666D01*
X118448119Y-109886761D01*
X118410023Y-109924857D01*
X118371928Y-110001047D01*
D11*
X186777380Y-102695333D02*
X187491666Y-102695333D01*
X187634523Y-102742952D01*
X187729761Y-102838190D01*
X187777380Y-102981047D01*
X187777380Y-103076285D01*
X187777380Y-101695333D02*
X187777380Y-102266761D01*
X187777380Y-101981047D02*
X186777380Y-101981047D01*
X186920238Y-102076285D01*
X187015476Y-102171523D01*
X187063095Y-102266761D01*
D16*
X117686214Y-106279904D02*
X117419547Y-105898952D01*
X117229071Y-106279904D02*
X117229071Y-105479904D01*
X117533833Y-105479904D01*
X117610023Y-105518000D01*
X117648119Y-105556095D01*
X117686214Y-105632285D01*
X117686214Y-105746571D01*
X117648119Y-105822761D01*
X117610023Y-105860857D01*
X117533833Y-105898952D01*
X117229071Y-105898952D01*
X118448119Y-106279904D02*
X117990976Y-106279904D01*
X118219547Y-106279904D02*
X118219547Y-105479904D01*
X118143357Y-105594190D01*
X118067166Y-105670380D01*
X117990976Y-105708476D01*
X119210023Y-106279904D02*
X118752880Y-106279904D01*
X118981452Y-106279904D02*
X118981452Y-105479904D01*
X118905261Y-105594190D01*
X118829071Y-105670380D01*
X118752880Y-105708476D01*
D11*
X167261904Y-104952380D02*
X167261904Y-103952380D01*
X167500000Y-103952380D01*
X167642857Y-104000000D01*
X167738095Y-104095238D01*
X167785714Y-104190476D01*
X167833333Y-104380952D01*
X167833333Y-104523809D01*
X167785714Y-104714285D01*
X167738095Y-104809523D01*
X167642857Y-104904761D01*
X167500000Y-104952380D01*
X167261904Y-104952380D01*
X168785714Y-104952380D02*
X168214285Y-104952380D01*
X168500000Y-104952380D02*
X168500000Y-103952380D01*
X168404761Y-104095238D01*
X168309523Y-104190476D01*
X168214285Y-104238095D01*
X174188380Y-94002095D02*
X173188380Y-94002095D01*
X174188380Y-93430666D02*
X173616952Y-93859238D01*
X173188380Y-93430666D02*
X173759809Y-94002095D01*
X174188380Y-92478285D02*
X174188380Y-93049714D01*
X174188380Y-92764000D02*
X173188380Y-92764000D01*
X173331238Y-92859238D01*
X173426476Y-92954476D01*
X173474095Y-93049714D01*
X174188380Y-113976095D02*
X173188380Y-113976095D01*
X174188380Y-113404666D02*
X173616952Y-113833238D01*
X173188380Y-113404666D02*
X173759809Y-113976095D01*
X173283619Y-113023714D02*
X173236000Y-112976095D01*
X173188380Y-112880857D01*
X173188380Y-112642761D01*
X173236000Y-112547523D01*
X173283619Y-112499904D01*
X173378857Y-112452285D01*
X173474095Y-112452285D01*
X173616952Y-112499904D01*
X174188380Y-113071333D01*
X174188380Y-112452285D01*
D16*
X123474166Y-98532904D02*
X123207500Y-98151952D01*
X123017023Y-98532904D02*
X123017023Y-97732904D01*
X123321785Y-97732904D01*
X123397976Y-97771000D01*
X123436071Y-97809095D01*
X123474166Y-97885285D01*
X123474166Y-97999571D01*
X123436071Y-98075761D01*
X123397976Y-98113857D01*
X123321785Y-98151952D01*
X123017023Y-98151952D01*
X123740833Y-97732904D02*
X124236071Y-97732904D01*
X123969404Y-98037666D01*
X124083690Y-98037666D01*
X124159880Y-98075761D01*
X124197976Y-98113857D01*
X124236071Y-98190047D01*
X124236071Y-98380523D01*
X124197976Y-98456714D01*
X124159880Y-98494809D01*
X124083690Y-98532904D01*
X123855119Y-98532904D01*
X123778928Y-98494809D01*
X123740833Y-98456714D01*
D15*
X111073190Y-109782047D02*
X110573190Y-109782047D01*
X110573190Y-109663000D01*
X110597000Y-109591571D01*
X110644619Y-109543952D01*
X110692238Y-109520142D01*
X110787476Y-109496333D01*
X110858904Y-109496333D01*
X110954142Y-109520142D01*
X111001761Y-109543952D01*
X111049380Y-109591571D01*
X111073190Y-109663000D01*
X111073190Y-109782047D01*
X110620809Y-109305857D02*
X110597000Y-109282047D01*
X110573190Y-109234428D01*
X110573190Y-109115380D01*
X110597000Y-109067761D01*
X110620809Y-109043952D01*
X110668428Y-109020142D01*
X110716047Y-109020142D01*
X110787476Y-109043952D01*
X111073190Y-109329666D01*
X111073190Y-109020142D01*
X158149790Y-116778952D02*
X158554552Y-116778952D01*
X158602171Y-116755142D01*
X158625980Y-116731333D01*
X158649790Y-116683714D01*
X158649790Y-116588476D01*
X158625980Y-116540857D01*
X158602171Y-116517047D01*
X158554552Y-116493238D01*
X158149790Y-116493238D01*
X158149790Y-116302761D02*
X158149790Y-115969428D01*
X158649790Y-116183714D01*
D10*
X175561000Y-105848000D02*
X174711000Y-105848000D01*
X176111000Y-105278000D02*
X175561000Y-105848000D01*
X174711000Y-105848000D02*
X174711000Y-102808000D01*
X176111000Y-102808000D02*
X174711000Y-102808000D01*
X176111000Y-105278000D02*
X176111000Y-102828000D01*
X141529000Y-109182000D02*
X144729000Y-109182000D01*
X144729000Y-109182000D02*
X144729000Y-110782000D01*
X141529000Y-110782000D02*
X141529000Y-109182000D01*
X144729000Y-110782000D02*
X141529000Y-110782000D01*
X131967500Y-97371000D02*
X135167500Y-97371000D01*
X135167500Y-97371000D02*
X135167500Y-98971000D01*
X135167500Y-98971000D02*
X131967500Y-98971000D01*
X131967500Y-98971000D02*
X131967500Y-97371000D01*
X188633000Y-89622500D02*
X188633000Y-92822500D01*
X187033000Y-89622500D02*
X188633000Y-89622500D01*
X187033000Y-92822500D02*
X187033000Y-89622500D01*
X188633000Y-92822500D02*
X187033000Y-92822500D01*
X151130000Y-112776000D02*
X151130000Y-94996000D01*
X105791000Y-115316000D02*
X106680000Y-114427000D01*
X102870000Y-115316000D02*
X148590000Y-115316000D01*
X148590000Y-92456000D02*
X102870000Y-92456000D01*
X106680000Y-114427000D02*
X107569000Y-115316000D01*
X100330000Y-94996000D02*
X100330000Y-112776000D01*
X102870000Y-92456000D02*
G75*
G03*
X100330000Y-94996000I1J-2540001D01*
G01*
X100330000Y-112776000D02*
G75*
G03*
X102870000Y-115316000I2540001J1D01*
G01*
X151130000Y-94996000D02*
G75*
G03*
X148590000Y-92456000I-2540001J-1D01*
G01*
X148590000Y-115316000D02*
G75*
G03*
X151129532Y-112824762I0J2540000D01*
G01*
X119800500Y-110782000D02*
X116600500Y-110782000D01*
X116600500Y-110782000D02*
X116600500Y-109182000D01*
X119800500Y-109182000D02*
X119800500Y-110782000D01*
X116600500Y-109182000D02*
X119800500Y-109182000D01*
X186055000Y-108712000D02*
X186055000Y-96012000D01*
X188595000Y-96012000D02*
X188595000Y-108077000D01*
X188595000Y-108077000D02*
X187960000Y-108712000D01*
X186055000Y-96012000D02*
X188595000Y-96012000D01*
X187960000Y-108712000D02*
X186055000Y-108712000D01*
X116600500Y-106718000D02*
X116600500Y-105118000D01*
X119800500Y-106718000D02*
X116600500Y-106718000D01*
X119800500Y-105118000D02*
X119800500Y-106718000D01*
X116600500Y-105118000D02*
X119800500Y-105118000D01*
X168649440Y-101998980D02*
X167498820Y-101249680D01*
X165700000Y-103500000D02*
X165700000Y-100500000D01*
X168649440Y-101998980D02*
X167498820Y-102799080D01*
X165700000Y-103500000D02*
X170300000Y-103500000D01*
X170300000Y-100500000D02*
X170300000Y-103500000D01*
X165700000Y-100500000D02*
X170300000Y-100500000D01*
X168649440Y-102799080D02*
X168649440Y-101198880D01*
X167498820Y-101998980D02*
X166500600Y-101998980D01*
X168649440Y-101998980D02*
X169551140Y-101998980D01*
X167498820Y-101249680D02*
X167498820Y-102799080D01*
D16*
X167436000Y-97836000D02*
X166636000Y-96914000D01*
D10*
X167259000Y-97074000D02*
X167259000Y-89454000D01*
X180848000Y-97836000D02*
X167436000Y-97836000D01*
X180848000Y-88692000D02*
X180848000Y-97836000D01*
X166624000Y-88692000D02*
X180848000Y-88692000D01*
X166636000Y-96914000D02*
X166624000Y-88692000D01*
X180848000Y-117810000D02*
X167436000Y-117810000D01*
X180848000Y-108666000D02*
X180848000Y-117810000D01*
X167259000Y-117048000D02*
X167259000Y-109428000D01*
D16*
X167436000Y-117810000D02*
X166636000Y-116888000D01*
D10*
X166636000Y-116888000D02*
X166624000Y-108666000D01*
X166624000Y-108666000D02*
X180848000Y-108666000D01*
X125207500Y-98971000D02*
X122007500Y-98971000D01*
X122007500Y-98971000D02*
X122007500Y-97371000D01*
X125207500Y-97371000D02*
X125207500Y-98971000D01*
X122007500Y-97371000D02*
X125207500Y-97371000D01*
X110147000Y-108463000D02*
X110697000Y-107893000D01*
X110147000Y-108463000D02*
X110147000Y-110913000D01*
X110697000Y-107893000D02*
X111547000Y-107893000D01*
X111547000Y-107893000D02*
X111547000Y-110933000D01*
X110147000Y-110933000D02*
X111547000Y-110933000D01*
X157523600Y-117948000D02*
X157523600Y-114848000D01*
X157523600Y-117948000D02*
X158673600Y-117948000D01*
X159323600Y-117298000D02*
X158673600Y-117948000D01*
X157523600Y-114848000D02*
X159323600Y-114848000D01*
X159323600Y-117298000D02*
X159323600Y-114848000D01*
M02*
