  0
SECTION
  2
HEADER
  9
$ANGBASE
  50
0.0
  9
$ANGDIR
  70
1
  9
$MEASUREMENT
  70
1
  0
ENDSEC
  0
SECTION
  2
TABLES
  0
TABLE
  2
LTYPE
  70
4
  0
LTYPE
  5
40F
  2
CONTINUOUS
  70
0
  3
Solid line
  72
65
  73
0
  40
0.0
  0
LTYPE
  5
410
  2
DASHDOT
 70
0
  3
Dash Dot ____ _ ____ _
 72
65
 73
4
 40
2.0
 49
1.25
 49
-0.25
 49
0.25
 49
-0.25
  0
LTYPE
  5
411
  2
DASHED
 70
0
  3
Dashed __ __ __ __ __
 72
65
 73
2
 40
0.75
 49
0.5
 49
-0.25
  0
LTYPE
  5
43B
  2
DOTTED
 70
0
  3
Dotted .  .  .  .
 72
65
 73
2
 40
0.2
 49
0.0
 49
-0.2
  0
ENDTAB
  0
TABLE
  2
STYLE
  70
4
  0
STYLE
  2
KICAD
  70
0
  40
0
  41
1
  42
1
  50
0
  71
0
  3
isocp.shx
  0
STYLE
  2
KICADB
  70
0
  40
0
  41
1
  42
1
  50
0
  71
0
  3
isocp.shx
  0
STYLE
  2
KICADI
  70
0
  40
0
  41
1
  42
1
  50
15
  71
0
  3
isocp.shx
  0
STYLE
  2
KICADBI
  70
0
  40
0
  41
1
  42
1
  50
15
  71
0
  3
isocp.shx
  0
ENDTAB
  0
TABLE
  2
LAYER
  70
1
  0
LAYER
  2
BLACK
  70
0
  62
7
  6
CONTINUOUS
  0
ENDTAB
  0
ENDSEC
  0
SECTION
  2
ENTITIES
0
LINE
8
BLACK
6
CONTINUOUS
10
191.77
20
-121.92
11
102.87
21
-121.92
0
LINE
8
BLACK
6
CONTINUOUS
10
102.87
20
-83.82
11
191.77
21
-83.82
0
LINE
8
BLACK
6
CONTINUOUS
10
191.77
20
-83.82
11
191.77
21
-121.92
0
LINE
8
BLACK
6
CONTINUOUS
10
102.87
20
-121.92
11
102.87
21
-83.82
0
LINE
8
BLACK
6
CONTINUOUS
10
105.371
20
-125.1
11
105.371
21
-123.1
0
LINE
8
BLACK
6
CONTINUOUS
10
105.371
20
-123.1
11
105.847
21
-123.1
0
LINE
8
BLACK
6
CONTINUOUS
10
105.847
20
-123.1
11
106.133
21
-123.195
0
LINE
8
BLACK
6
CONTINUOUS
10
106.133
20
-123.195
11
106.324
21
-123.385
0
LINE
8
BLACK
6
CONTINUOUS
10
106.324
20
-123.385
11
106.419
21
-123.576
0
LINE
8
BLACK
6
CONTINUOUS
10
106.419
20
-123.576
11
106.514
21
-123.957
0
LINE
8
BLACK
6
CONTINUOUS
10
106.514
20
-123.957
11
106.514
21
-124.243
0
LINE
8
BLACK
6
CONTINUOUS
10
106.514
20
-124.243
11
106.419
21
-124.624
0
LINE
8
BLACK
6
CONTINUOUS
10
106.419
20
-124.624
11
106.324
21
-124.814
0
LINE
8
BLACK
6
CONTINUOUS
10
106.324
20
-124.814
11
106.133
21
-125.005
0
LINE
8
BLACK
6
CONTINUOUS
10
106.133
20
-125.005
11
105.847
21
-125.1
0
LINE
8
BLACK
6
CONTINUOUS
10
105.847
20
-125.1
11
105.371
21
-125.1
0
LINE
8
BLACK
6
CONTINUOUS
10
107.371
20
-125.1
11
107.371
21
-123.766
0
LINE
8
BLACK
6
CONTINUOUS
10
107.371
20
-124.147
11
107.466
21
-123.957
0
LINE
8
BLACK
6
CONTINUOUS
10
107.466
20
-123.957
11
107.562
21
-123.862
0
LINE
8
BLACK
6
CONTINUOUS
10
107.562
20
-123.862
11
107.752
21
-123.766
0
LINE
8
BLACK
6
CONTINUOUS
10
107.752
20
-123.766
11
107.943
21
-123.766
0
LINE
8
BLACK
6
CONTINUOUS
10
108.609
20
-125.1
11
108.609
21
-123.766
0
LINE
8
BLACK
6
CONTINUOUS
10
108.609
20
-123.1
11
108.514
21
-123.195
0
LINE
8
BLACK
6
CONTINUOUS
10
108.514
20
-123.195
11
108.609
21
-123.29
0
LINE
8
BLACK
6
CONTINUOUS
10
108.609
20
-123.29
11
108.705
21
-123.195
0
LINE
8
BLACK
6
CONTINUOUS
10
108.705
20
-123.195
11
108.609
21
-123.1
0
LINE
8
BLACK
6
CONTINUOUS
10
108.609
20
-123.1
11
108.609
21
-123.29
0
LINE
8
BLACK
6
CONTINUOUS
10
109.847
20
-125.1
11
109.657
21
-125.005
0
LINE
8
BLACK
6
CONTINUOUS
10
109.657
20
-125.005
11
109.562
21
-124.814
0
LINE
8
BLACK
6
CONTINUOUS
10
109.562
20
-124.814
11
109.562
21
-123.1
0
LINE
8
BLACK
6
CONTINUOUS
10
110.895
20
-125.1
11
110.705
21
-125.005
0
LINE
8
BLACK
6
CONTINUOUS
10
110.705
20
-125.005
11
110.609
21
-124.814
0
LINE
8
BLACK
6
CONTINUOUS
10
110.609
20
-124.814
11
110.609
21
-123.1
0
LINE
8
BLACK
6
CONTINUOUS
10
113.181
20
-125.1
11
113.181
21
-123.1
0
LINE
8
BLACK
6
CONTINUOUS
10
113.181
20
-123.1
11
113.847
21
-124.528
0
LINE
8
BLACK
6
CONTINUOUS
10
113.847
20
-124.528
11
114.514
21
-123.1
0
LINE
8
BLACK
6
CONTINUOUS
10
114.514
20
-123.1
11
114.514
21
-125.1
0
LINE
8
BLACK
6
CONTINUOUS
10
116.324
20
-125.1
11
116.324
21
-124.052
0
LINE
8
BLACK
6
CONTINUOUS
10
116.324
20
-124.052
11
116.228
21
-123.862
0
LINE
8
BLACK
6
CONTINUOUS
10
116.228
20
-123.862
11
116.038
21
-123.766
0
LINE
8
BLACK
6
CONTINUOUS
10
116.038
20
-123.766
11
115.657
21
-123.766
0
LINE
8
BLACK
6
CONTINUOUS
10
115.657
20
-123.766
11
115.466
21
-123.862
0
LINE
8
BLACK
6
CONTINUOUS
10
116.324
20
-125.005
11
116.133
21
-125.1
0
LINE
8
BLACK
6
CONTINUOUS
10
116.133
20
-125.1
11
115.657
21
-125.1
0
LINE
8
BLACK
6
CONTINUOUS
10
115.657
20
-125.1
11
115.466
21
-125.005
0
LINE
8
BLACK
6
CONTINUOUS
10
115.466
20
-125.005
11
115.371
21
-124.814
0
LINE
8
BLACK
6
CONTINUOUS
10
115.371
20
-124.814
11
115.371
21
-124.624
0
LINE
8
BLACK
6
CONTINUOUS
10
115.371
20
-124.624
11
115.466
21
-124.433
0
LINE
8
BLACK
6
CONTINUOUS
10
115.466
20
-124.433
11
115.657
21
-124.338
0
LINE
8
BLACK
6
CONTINUOUS
10
115.657
20
-124.338
11
116.133
21
-124.338
0
LINE
8
BLACK
6
CONTINUOUS
10
116.133
20
-124.338
11
116.324
21
-124.243
0
LINE
8
BLACK
6
CONTINUOUS
10
117.276
20
-123.766
11
117.276
21
-125.766
0
LINE
8
BLACK
6
CONTINUOUS
10
117.276
20
-123.862
11
117.466
21
-123.766
0
LINE
8
BLACK
6
CONTINUOUS
10
117.466
20
-123.766
11
117.847
21
-123.766
0
LINE
8
BLACK
6
CONTINUOUS
10
117.847
20
-123.766
11
118.038
21
-123.862
0
LINE
8
BLACK
6
CONTINUOUS
10
118.038
20
-123.862
11
118.133
21
-123.957
0
LINE
8
BLACK
6
CONTINUOUS
10
118.133
20
-123.957
11
118.228
21
-124.147
0
LINE
8
BLACK
6
CONTINUOUS
10
118.228
20
-124.147
11
118.228
21
-124.719
0
LINE
8
BLACK
6
CONTINUOUS
10
118.228
20
-124.719
11
118.133
21
-124.909
0
LINE
8
BLACK
6
CONTINUOUS
10
118.133
20
-124.909
11
118.038
21
-125.005
0
LINE
8
BLACK
6
CONTINUOUS
10
118.038
20
-125.005
11
117.847
21
-125.1
0
LINE
8
BLACK
6
CONTINUOUS
10
117.847
20
-125.1
11
117.466
21
-125.1
0
LINE
8
BLACK
6
CONTINUOUS
10
117.466
20
-125.1
11
117.276
21
-125.005
0
LINE
8
BLACK
6
CONTINUOUS
10
119.085
20
-124.909
11
119.181
21
-125.005
0
LINE
8
BLACK
6
CONTINUOUS
10
119.181
20
-125.005
11
119.085
21
-125.1
0
LINE
8
BLACK
6
CONTINUOUS
10
119.085
20
-125.1
11
118.99
21
-125.005
0
LINE
8
BLACK
6
CONTINUOUS
10
118.99
20
-125.005
11
119.085
21
-124.909
0
LINE
8
BLACK
6
CONTINUOUS
10
119.085
20
-124.909
11
119.085
21
-125.1
0
LINE
8
BLACK
6
CONTINUOUS
10
119.085
20
-123.862
11
119.181
21
-123.957
0
LINE
8
BLACK
6
CONTINUOUS
10
119.181
20
-123.957
11
119.085
21
-124.052
0
LINE
8
BLACK
6
CONTINUOUS
10
119.085
20
-124.052
11
118.99
21
-123.957
0
LINE
8
BLACK
6
CONTINUOUS
10
118.99
20
-123.957
11
119.085
21
-123.862
0
LINE
8
BLACK
6
CONTINUOUS
10
119.085
20
-123.862
11
119.085
21
-124.052
  0
ENDSEC
  0
EOF
