M48
; DRILL file {KiCad (5.1.4)-1} date 4/27/2020 2:18:22 PM
; FORMAT={3:3/ absolute / metric / suppress leading zeros}
; #@! TF.CreationDate,2020-04-27T14:18:22-04:00
; #@! TF.GenerationSoftware,Kicad,Pcbnew,(5.1.4)-1
; #@! TF.FileFunction,Plated,1,4,PTH
FMAT,2
METRIC,TZ
T1C0.381
T2C1.000
T3C1.016
%
G90
G05
T1
X110363Y-81788
X111887Y-104013
X122301Y-84836
X124003Y-79553
X128270Y-87630
X128270Y-92202
X128651Y-94742
X134239Y-89916
X136398Y-92837
X139700Y-93345
X140462Y-91821
X140589Y-74676
X140843Y-109220
X142494Y-78994
X142494Y-80772
X143510Y-98552
X143891Y-92329
X144018Y-78359
X145034Y-81153
X145669Y-97409
X146304Y-93472
X148971Y-93218
X149606Y-89662
X150241Y-84074
X151257Y-93218
X151384Y-89916
X151892Y-95504
X153797Y-81026
X155321Y-78359
X155448Y-104521
X156134Y-84633
X156337Y-74295
X156362Y-86411
X156566Y-110541
X161036Y-84633
X161036Y-109474
X162357Y-110744
X162408Y-94767
X162560Y-87630
X164084Y-111125
X164211Y-78359
X164821Y-82321
X165252Y-85039
X165354Y-108763
X166497Y-109982
X166599Y-90424
X167107Y-103302
X167538Y-86893
X167640Y-98323
X168275Y-90094
X168885Y-110617
X169266Y-97536
X169291Y-80899
X169748Y-103175
X169799Y-91440
X170256Y-115138
X171196Y-80645
X172466Y-91440
X172517Y-99060
X173736Y-79756
X174523Y-110388
X174752Y-75565
X175057Y-98831
X175336Y-104597
X178384Y-84404
X179070Y-90170
X179070Y-104140
X179705Y-86893
X180213Y-92100
X182485Y-97560
X182499Y-104648
X183617Y-96622
X183845Y-111379
X184201Y-81585
X184328Y-109271
X184480Y-106578
X185268Y-102819
X185896Y-91008
X186690Y-86639
X186868Y-81559
X186969Y-83160
X187640Y-90058
X193243Y-73889
T2
X188620Y-96545
X188620Y-99085
X188620Y-101625
X188620Y-104165
X188620Y-106705
X188620Y-109245
T3
X131318Y-119126
X133858Y-119126
X136398Y-119126
X138938Y-119126
X141478Y-119126
X144018Y-119126
X146558Y-119126
X149098Y-119126
X122174Y-70866
X124714Y-70866
X127254Y-70866
X129794Y-70866
X132334Y-70866
X134874Y-70866
X137414Y-70866
X139954Y-70866
X142494Y-70866
X145034Y-70866
X154178Y-119126
X156718Y-119126
X159258Y-119126
X161798Y-119126
X164338Y-119126
X166878Y-119126
X169418Y-119126
X171958Y-119126
X197358Y-70866
X197358Y-73406
X197358Y-75946
X197358Y-78486
X197358Y-81026
X197358Y-83566
X197358Y-86106
X197358Y-88646
X197358Y-91186
X197358Y-93726
X197358Y-96266
X197358Y-98806
X197358Y-101346
X197358Y-103886
X197358Y-106426
X197358Y-108966
X197358Y-111506
X197358Y-114046
X199898Y-70866
X199898Y-73406
X199898Y-75946
X199898Y-78486
X199898Y-81026
X199898Y-83566
X199898Y-86106
X199898Y-88646
X199898Y-91186
X199898Y-93726
X199898Y-96266
X199898Y-98806
X199898Y-101346
X199898Y-103886
X199898Y-106426
X199898Y-108966
X199898Y-111506
X199898Y-114046
X177038Y-119126
X179578Y-119126
X182118Y-119126
X184658Y-119126
X187198Y-119126
X189738Y-119126
X192278Y-119126
X194818Y-119126
X171958Y-70866
X174498Y-70866
X177038Y-70866
X179578Y-70866
X182118Y-70866
X184658Y-70866
X187198Y-70866
X189738Y-70866
X149098Y-70866
X151638Y-70866
X154178Y-70866
X156718Y-70866
X159258Y-70866
X161798Y-70866
X164338Y-70866
X166878Y-70866
T0
M30
