M48
; DRILL file {KiCad (6.0.0)} date Thu Feb  9 15:45:04 2023
; FORMAT={-:-/ absolute / metric / decimal}
; #@! TF.CreationDate,2023-02-09T15:45:04-05:00
; #@! TF.GenerationSoftware,Kicad,Pcbnew,(6.0.0)
; #@! TF.FileFunction,Plated,1,4,PTH
FMAT,2
METRIC
; #@! TA.AperFunction,Plated,PTH,ViaDrill
T1C0.381
; #@! TA.AperFunction,Plated,PTH,ComponentDrill
T2C0.800
; #@! TA.AperFunction,Plated,PTH,ComponentDrill
T3C1.000
%
G90
G05
T1
X111.402Y-106.885
X116.776Y-102.87
X119.71Y-101.016
X125.095Y-109.982
X137.033Y-107.188
X137.165Y-109.596
X137.668Y-97.79
X139.065Y-102.616
X139.827Y-111.506
X143.383Y-106.934
X146.939Y-112.522
X147.32Y-102.616
X147.955Y-110.49
X151.765Y-109.728
X152.273Y-115.57
X152.909Y-112.774
X153.924Y-115.57
X154.432Y-117.5
X155.067Y-97.536
X155.829Y-99.822
X158.115Y-106.934
X158.877Y-99.314
X160.401Y-113.792
X160.497Y-103.728
X161.417Y-94.234
X161.417Y-107.95
X162.179Y-93.218
X162.243Y-106.68
X163.449Y-103.632
X163.525Y-119.532
X163.957Y-98.298
X163.957Y-113.284
X166.624Y-118.999
X167.0Y-98.25
X168.656Y-113.792
X171.0Y-104.75
X173.736Y-111.379
X175.133Y-92.075
X175.387Y-101.346
X175.514Y-94.234
X176.276Y-102.108
X176.276Y-114.554
X177.8Y-112.649
X178.689Y-104.902
X179.959Y-100.584
X182.118Y-107.315
X183.388Y-111.379
X183.515Y-103.378
X184.531Y-104.267
T2
X106.68Y-114.046
X109.22Y-114.046
X111.76Y-114.046
X114.3Y-114.046
X116.84Y-93.726
X116.84Y-114.046
X119.38Y-93.726
X119.38Y-114.046
X121.92Y-93.726
X121.92Y-114.046
X124.46Y-93.726
X124.46Y-114.046
X127.0Y-93.726
X127.0Y-114.046
X129.54Y-93.726
X129.54Y-114.046
X132.08Y-93.726
X132.08Y-114.046
X134.62Y-93.726
X134.62Y-114.046
X137.16Y-93.726
X137.16Y-114.046
X139.7Y-93.726
X139.7Y-114.046
X142.24Y-93.726
X142.24Y-114.046
X144.78Y-93.726
X144.78Y-114.046
T3
X187.325Y-97.282
X187.325Y-99.822
X187.325Y-102.362
X187.325Y-104.902
X187.325Y-107.442
T0
M30
